<svg version="1.1" id="Layer_1" xmlns="http://www.w3.org/2000/svg" xmlns:xlink="http://www.w3.org/1999/xlink" x="0px" y="0px"
	 width="100%" viewBox="0 0 280 280" enable-background="new 0 0 280 280" xml:space="preserve">
<path fill="#717175" opacity="1.000000" stroke="none" 
	d="
M281.000000,127.000000 
	C281.000000,136.354233 281.000000,145.708450 280.641052,155.714035 
	C279.865479,158.292816 279.338013,160.203781 279.048798,162.150146 
	C274.071136,195.649887 258.752228,223.543198 233.473557,245.975311 
	C216.246338,261.262604 196.438385,271.704254 173.972687,276.976257 
	C167.996170,278.378723 161.991653,279.661987 156.000000,281.000000 
	C145.979111,281.000000 135.958206,281.000000 125.281067,280.638123 
	C118.315453,279.007111 111.953278,277.954376 105.706383,276.429382 
	C84.821327,271.330933 66.326927,261.514679 50.066185,247.511978 
	C39.224312,238.175674 30.035238,227.526825 22.409195,215.265228 
	C15.897454,204.795288 10.619731,193.970779 7.318081,182.179459 
	C4.985693,173.849686 3.090418,165.397522 1.000000,157.000000 
	C1.000000,146.645767 1.000000,136.291550 1.360408,125.283501 
	C2.905123,118.673759 3.910016,112.675385 5.307214,106.769829 
	C9.581815,88.702332 17.643543,72.368324 28.659988,57.508335 
	C39.099998,43.425896 51.775185,31.840521 66.751846,22.515224 
	C79.948250,14.298407 93.890572,8.377151 108.991661,5.002154 
	C114.992836,3.660927 120.997124,2.333635 127.000000,1.000000 
	C136.020889,1.000000 145.041794,1.000000 154.720154,1.362591 
	C157.803055,2.146144 160.219833,2.627075 162.655289,2.978643 
	C183.409561,5.974606 202.533890,13.422976 219.662979,25.342043 
	C249.246460,45.927349 268.753876,73.674301 276.977386,109.013252 
	C278.369781,114.996841 279.661682,121.003822 281.000000,127.000000 
M247.916733,97.940414 
	C242.596649,88.896667 237.276581,79.852913 231.649521,70.237785 
	C224.260498,60.572086 215.622940,52.246803 204.824326,45.250004 
	C195.736069,40.806011 186.647812,36.362019 176.904114,31.469452 
	C174.817307,30.905046 172.740509,30.300138 170.642227,29.782209 
	C127.465225,19.124577 89.615402,29.376322 58.349697,60.611824 
	C34.032875,84.905159 23.648170,115.183350 25.957506,149.617294 
	C27.407099,171.231796 34.512733,190.865616 47.173477,208.393112 
	C63.020851,230.332169 83.910484,245.062744 110.182861,252.183441 
	C145.919357,261.869263 178.812408,255.592102 208.749451,234.377304 
	C230.995712,218.612564 245.172989,197.069992 252.422470,170.665985 
	C259.191772,146.010773 257.500671,122.144035 247.916733,97.940414 
z"/>
<path fill="#FFFFFF" opacity="1.000000" stroke="none" 
	d="
M281.000000,126.531342 
	C279.661682,121.003822 278.369781,114.996841 276.977386,109.013252 
	C268.753876,73.674301 249.246460,45.927349 219.662979,25.342043 
	C202.533890,13.422976 183.409561,5.974606 162.655289,2.978643 
	C160.219833,2.627075 157.803055,2.146144 155.188812,1.362591 
	C196.926971,1.000000 238.853943,1.000000 281.000000,1.000000 
	C281.000000,42.687305 281.000000,84.374992 281.000000,126.531342 
z"/>
<path fill="#FFFFFF" opacity="1.000000" stroke="none" 
	d="
M126.531342,1.000000 
	C120.997124,2.333635 114.992836,3.660927 108.991661,5.002154 
	C93.890572,8.377151 79.948250,14.298407 66.751846,22.515224 
	C51.775185,31.840521 39.099998,43.425896 28.659988,57.508335 
	C17.643543,72.368324 9.581815,88.702332 5.307214,106.769829 
	C3.910016,112.675385 2.905123,118.673759 1.360408,124.814842 
	C1.000000,83.739113 1.000000,42.478230 1.000000,1.000000 
	C42.687309,1.000000 84.374992,1.000000 126.531342,1.000000 
z"/>
<path fill="#FFFFFF" opacity="1.000000" stroke="none" 
	d="
M156.468658,281.000000 
	C161.991653,279.661987 167.996170,278.378723 173.972687,276.976257 
	C196.438385,271.704254 216.246338,261.262604 233.473557,245.975311 
	C258.752228,223.543198 274.071136,195.649887 279.048798,162.150146 
	C279.338013,160.203781 279.865479,158.292816 280.641052,156.182693 
	C281.000000,197.593643 281.000000,239.187271 281.000000,281.000000 
	C239.646027,281.000000 198.291672,281.000000 156.468658,281.000000 
z"/>
<path fill="#FFFFFF" opacity="1.000000" stroke="none" 
	d="
M1.000000,157.468658 
	C3.090418,165.397522 4.985693,173.849686 7.318081,182.179459 
	C10.619731,193.970779 15.897454,204.795288 22.409195,215.265228 
	C30.035238,227.526825 39.224312,238.175674 50.066185,247.511978 
	C66.326927,261.514679 84.821327,271.330933 105.706383,276.429382 
	C111.953278,277.954376 118.315453,279.007111 124.812408,280.638123 
	C83.739700,281.000000 42.479393,281.000000 1.000000,281.000000 
	C1.000000,239.979370 1.000000,198.958344 1.000000,157.468658 
z"/>
<path fill="#01C0D4" opacity="1.000000" stroke="none" 
	d="
M205.318207,45.711403 
	C215.622940,52.246803 224.260498,60.572086 231.402802,70.609070 
	C227.895844,71.616867 224.597580,72.110466 221.394836,72.962982 
	C220.179550,73.286469 218.320587,74.340149 218.222092,75.224442 
	C217.217987,84.238617 216.516678,93.286514 215.615417,103.650276 
	C227.196777,101.851456 237.612656,100.233658 248.028549,98.615860 
	C257.500671,122.144035 259.191772,146.010773 252.422470,170.665985 
	C245.172989,197.069992 230.995712,218.612564 208.749451,234.377304 
	C178.812408,255.592102 145.919357,261.869263 110.182861,252.183441 
	C83.910484,245.062744 63.020851,230.332169 47.173477,208.393112 
	C34.512733,190.865616 27.407099,171.231796 25.957506,149.617294 
	C23.648170,115.183350 34.032875,84.905159 58.349697,60.611824 
	C89.615402,29.376322 127.465225,19.124577 170.642227,29.782209 
	C172.740509,30.300138 174.817307,30.905046 177.192139,32.155895 
	C176.682602,42.769806 175.885071,52.697273 175.056412,63.012104 
	C181.978287,62.258171 188.051956,61.672981 194.104721,60.919739 
	C203.551636,59.744110 203.545380,59.695812 204.752701,50.144638 
	C204.939514,48.666683 205.129623,47.189140 205.318207,45.711403 
M100.679855,217.204453 
	C119.269661,213.202530 137.581772,191.144135 140.906143,175.644882 
	C132.707321,178.125793 124.915627,180.346588 117.244186,182.925156 
	C115.783455,183.416153 114.354904,185.116531 113.665024,186.607544 
	C109.000656,196.688507 104.538956,206.863235 99.737648,217.162598 
	C99.798637,217.088440 99.859634,217.014282 100.679855,217.204453 
M190.494583,232.979813 
	C199.050140,228.452026 206.838013,222.980148 213.543747,214.329651 
	C206.884628,211.656998 200.878937,208.919952 194.631821,206.947510 
	C192.863174,206.389099 189.612045,207.383179 188.357422,208.817184 
	C172.889389,226.496765 152.868439,234.595001 130.103470,237.038803 
	C124.271606,237.664825 118.394638,237.870605 112.538399,238.269455 
	C139.094604,247.963394 164.725372,244.421997 190.494583,232.979813 
M39.026951,137.696472 
	C38.758030,148.452255 39.908791,158.952560 44.395798,168.898026 
	C45.015144,168.084763 45.245747,167.316025 45.250786,166.545807 
	C45.429493,139.238495 52.096962,114.489731 73.074524,95.276932 
	C73.828232,94.586624 74.262085,92.651207 73.855682,91.734825 
	C71.118500,85.562775 68.113808,79.509369 65.195740,73.417542 
	C64.591888,73.292259 63.988033,73.166977 63.384178,73.041695 
	C59.601448,78.189720 55.444870,83.107674 52.107895,88.530029 
	C43.036049,103.271172 40.523739,119.891388 39.026951,137.696472 
M250.317474,117.927010 
	C250.480850,116.514122 250.644226,115.101242 250.856781,113.263000 
	C239.480652,114.985794 228.656464,116.524704 217.890884,118.399956 
	C216.727539,118.602600 215.191803,120.673134 215.037994,122.015739 
	C214.035919,130.763214 213.367889,139.548950 212.504868,149.289734 
	C222.472748,148.181198 232.331131,147.166809 242.148956,145.850098 
	C243.010452,145.734528 243.938980,143.723755 244.270935,142.446320 
	C246.320450,134.559341 248.207779,126.630219 250.317474,117.927010 
M87.856934,84.077682 
	C88.496147,84.067825 89.204689,84.237373 89.764168,84.021179 
	C98.107605,80.797142 106.487381,77.652863 114.704803,74.130959 
	C116.080879,73.541183 117.479942,71.315857 117.592812,69.754082 
	C118.143417,62.135246 118.291977,54.485924 118.489594,46.844975 
	C118.512093,45.974739 117.950623,45.089397 117.553528,43.889545 
	C102.819031,48.161396 89.504387,54.536430 77.182434,62.960403 
	C80.718483,70.180260 83.992516,76.865112 87.856934,84.077682 
M219.045517,200.255066 
	C220.217697,200.740646 221.389877,201.226212 222.457718,201.668564 
	C228.923630,193.163177 237.879105,171.001740 238.419159,161.869217 
	C229.257095,162.927414 220.193192,163.888824 211.166977,165.125488 
	C210.045929,165.279099 208.633255,166.706573 208.192200,167.862854 
	C205.530380,174.841110 202.991516,181.874130 200.741165,188.993027 
	C200.399094,190.075104 201.403458,192.445221 202.416473,192.948395 
	C207.618668,195.532394 213.027252,197.700882 219.045517,200.255066 
M160.253311,63.528599 
	C161.150238,52.817299 162.047165,42.105995 163.035828,30.299408 
	C156.013504,32.274345 149.993469,33.972546 143.970490,35.660156 
	C133.625900,38.558655 133.549591,38.554035 133.285385,49.389965 
	C133.129105,55.798874 133.256805,62.214710 133.256805,69.029457 
	C138.557022,68.299416 143.338608,67.769905 148.069778,66.949585 
	C152.078873,66.254463 156.029663,65.223122 160.253311,63.528599 
M199.613113,127.285767 
	C199.613113,125.347984 199.613113,123.410194 199.613113,120.822784 
	C193.053116,121.846657 187.020859,122.838181 180.972717,123.720947 
	C170.748535,125.213242 170.745712,125.184601 168.683334,134.963776 
	C168.580475,135.451462 168.375946,135.919067 168.288483,136.408463 
	C167.192612,142.540878 166.109634,148.675613 164.908218,155.459839 
	C175.081146,154.003784 184.441788,152.817184 193.718948,151.162537 
	C195.032898,150.928192 196.621841,148.540207 196.915588,146.935272 
	C198.051544,140.728989 198.714508,134.436111 199.613113,127.285767 
M147.631516,114.150162 
	C150.504837,112.888397 155.570633,112.027115 155.886444,110.298187 
	C157.602905,100.901344 158.147507,91.290451 159.217468,80.526405 
	C150.021133,82.161613 141.897964,83.509315 133.842758,85.183945 
	C133.013443,85.356354 132.187943,87.435036 132.044662,88.706268 
	C131.243973,95.810280 130.668762,102.939453 129.984192,110.056923 
	C129.713806,112.868011 129.360001,115.671082 128.981293,119.036560 
	C135.608582,117.284698 141.215118,115.802673 147.631516,114.150162 
M201.384079,96.863159 
	C201.864532,89.815178 202.344971,82.767197 202.865753,75.127571 
	C196.000168,75.962013 190.104309,76.738907 184.194000,77.383095 
	C174.829041,78.403824 174.832458,78.367004 173.879639,87.947929 
	C173.764709,89.103653 173.439667,90.239578 173.341400,91.395676 
	C172.854584,97.122627 172.411194,102.853279 171.905609,109.168495 
	C179.691971,107.967758 186.542480,106.839020 193.415634,105.871132 
	C200.748230,104.838562 200.757568,104.904922 201.384079,96.863159 
M141.289169,131.832611 
	C137.299728,132.940933 133.263702,133.911850 129.348495,135.239166 
	C128.132797,135.651291 126.571243,136.874588 126.313499,137.990982 
	C124.280998,146.794403 122.526077,155.661926 120.589012,164.974701 
	C126.399063,163.556992 131.761795,161.586655 137.262558,161.061066 
	C145.543137,160.269882 149.925552,156.584305 150.789230,148.131668 
	C151.431503,141.845703 153.006409,135.654999 154.346039,128.453720 
	C149.370697,129.701843 145.712860,130.619461 141.289169,131.832611 
M106.325714,92.792625 
	C102.569221,94.530937 98.852005,96.361885 95.043274,97.976997 
	C92.216537,99.175697 91.823418,101.097534 92.117218,103.950562 
	C92.896599,111.519119 93.342598,119.123360 93.841331,126.718651 
	C93.986809,128.934097 93.863701,131.167206 93.863701,133.902252 
	C99.971436,130.996811 105.533615,128.496414 110.919006,125.660339 
	C111.937088,125.124184 112.663010,123.304825 112.826263,121.990898 
	C113.971169,112.776283 114.966637,103.542397 115.916687,94.305077 
	C116.056450,92.946182 115.703125,91.536568 115.519073,89.498596 
	C112.247452,90.625313 109.628632,91.527222 106.325714,92.792625 
M80.139313,181.630905 
	C86.303879,178.743607 92.359085,175.579315 98.678551,173.084396 
	C101.900711,171.812271 103.451927,169.889801 104.189499,166.758865 
	C105.675133,160.452393 107.309967,154.180984 108.782227,147.871521 
	C109.044693,146.746689 108.819542,145.508072 108.819542,144.066437 
	C91.451370,150.926102 72.351143,169.796799 70.530876,186.781342 
	C73.871140,184.978088 76.672333,183.465851 80.139313,181.630905 
M157.538681,188.453094 
	C164.999039,188.427841 172.461182,188.482330 179.918365,188.315582 
	C181.573303,188.278580 184.200851,187.940735 184.693420,186.924042 
	C187.599472,180.925476 190.007080,174.685410 192.582489,168.526642 
	C192.203964,168.088959 191.825424,167.651276 191.446884,167.213577 
	C181.360321,168.829269 171.268265,170.412643 161.197525,172.121567 
	C160.386124,172.259262 159.370316,173.112396 159.045715,173.883926 
	C157.079239,178.557678 155.286102,183.304352 153.241196,188.521194 
	C154.819412,188.521194 155.783707,188.521194 157.538681,188.453094 
M73.028046,117.579834 
	C64.208664,130.044067 58.548092,153.997391 61.506401,164.942078 
	C77.907196,151.276535 80.710152,132.968628 77.672585,111.497063 
	C75.764435,113.985031 74.606331,115.495033 73.028046,117.579834 
M158.924927,203.293915 
	C144.474167,202.770370 135.412811,211.658722 126.674294,221.568726 
	C138.718643,222.935150 167.346786,212.610367 171.251236,203.157806 
	C167.362778,203.157806 163.599472,203.157806 158.924927,203.293915 
M85.436852,195.924973 
	C79.873123,199.407898 74.309395,202.890823 67.488174,207.160950 
	C72.560341,211.440842 76.597961,214.847763 81.470078,218.958847 
	C86.426598,209.541733 90.770287,201.288986 95.113976,193.036224 
	C94.726982,192.665222 94.339981,192.294220 93.952980,191.923218 
	C91.334618,193.146698 88.716263,194.370178 85.436852,195.924973 
z"/>
<path fill="#1D448B" opacity="1.000000" stroke="none" 
	d="
M247.972641,98.278137 
	C237.612656,100.233658 227.196777,101.851456 215.615417,103.650276 
	C216.516678,93.286514 217.217987,84.238617 218.222092,75.224442 
	C218.320587,74.340149 220.179550,73.286469 221.394836,72.962982 
	C224.597580,72.110466 227.895844,71.616867 231.556290,70.894760 
	C237.276581,79.852913 242.596649,88.896667 247.972641,98.278137 
z"/>
<path fill="#1D448B" opacity="1.000000" stroke="none" 
	d="
M205.071259,45.480705 
	C205.129623,47.189140 204.939514,48.666683 204.752701,50.144638 
	C203.545380,59.695812 203.551636,59.744110 194.104721,60.919739 
	C188.051956,61.672981 181.978287,62.258171 175.056412,63.012104 
	C175.885071,52.697273 176.682602,42.769806 177.519852,32.380180 
	C186.647812,36.362019 195.736069,40.806011 205.071259,45.480705 
z"/>
<path fill="#1C458C" opacity="1.000000" stroke="none" 
	d="
M190.164505,233.150681 
	C164.725372,244.421997 139.094604,247.963394 112.538399,238.269455 
	C118.394638,237.870605 124.271606,237.664825 130.103470,237.038803 
	C152.868439,234.595001 172.889389,226.496765 188.357422,208.817184 
	C189.612045,207.383179 192.863174,206.389099 194.631821,206.947510 
	C200.878937,208.919952 206.884628,211.656998 213.543747,214.329651 
	C206.838013,222.980148 199.050140,228.452026 190.164505,233.150681 
z"/>
<path fill="#1C458C" opacity="1.000000" stroke="none" 
	d="
M39.061195,137.225464 
	C40.523739,119.891388 43.036049,103.271172 52.107895,88.530029 
	C55.444870,83.107674 59.601448,78.189720 63.384178,73.041695 
	C63.988033,73.166977 64.591888,73.292259 65.195740,73.417542 
	C68.113808,79.509369 71.118500,85.562775 73.855682,91.734825 
	C74.262085,92.651207 73.828232,94.586624 73.074524,95.276932 
	C52.096962,114.489731 45.429493,139.238495 45.250786,166.545807 
	C45.245747,167.316025 45.015144,168.084763 44.395798,168.898026 
	C39.908791,158.952560 38.758030,148.452255 39.061195,137.225464 
z"/>
<path fill="#1C448B" opacity="1.000000" stroke="none" 
	d="
M250.233246,118.321060 
	C248.207779,126.630219 246.320450,134.559341 244.270935,142.446320 
	C243.938980,143.723755 243.010452,145.734528 242.148956,145.850098 
	C232.331131,147.166809 222.472748,148.181198 212.504868,149.289734 
	C213.367889,139.548950 214.035919,130.763214 215.037994,122.015739 
	C215.191803,120.673134 216.727539,118.602600 217.890884,118.399956 
	C228.656464,116.524704 239.480652,114.985794 250.856781,113.263000 
	C250.644226,115.101242 250.480850,116.514122 250.233246,118.321060 
z"/>
<path fill="#1D448B" opacity="1.000000" stroke="none" 
	d="
M87.561737,83.813828 
	C83.992516,76.865112 80.718483,70.180260 77.182434,62.960403 
	C89.504387,54.536430 102.819031,48.161396 117.553528,43.889545 
	C117.950623,45.089397 118.512093,45.974739 118.489594,46.844975 
	C118.291977,54.485924 118.143417,62.135246 117.592812,69.754082 
	C117.479942,71.315857 116.080879,73.541183 114.704803,74.130959 
	C106.487381,77.652863 98.107605,80.797142 89.764168,84.021179 
	C89.204689,84.237373 88.496147,84.067825 87.561737,83.813828 
z"/>
<path fill="#1D448B" opacity="1.000000" stroke="none" 
	d="
M218.704636,200.134796 
	C213.027252,197.700882 207.618668,195.532394 202.416473,192.948395 
	C201.403458,192.445221 200.399094,190.075104 200.741165,188.993027 
	C202.991516,181.874130 205.530380,174.841110 208.192200,167.862854 
	C208.633255,166.706573 210.045929,165.279099 211.166977,165.125488 
	C220.193192,163.888824 229.257095,162.927414 238.419159,161.869217 
	C237.879105,171.001740 228.923630,193.163177 222.457718,201.668564 
	C221.389877,201.226212 220.217697,200.740646 218.704636,200.134796 
z"/>
<path fill="#1C458C" opacity="1.000000" stroke="none" 
	d="
M160.129791,63.934586 
	C156.029663,65.223122 152.078873,66.254463 148.069778,66.949585 
	C143.338608,67.769905 138.557022,68.299416 133.256805,69.029457 
	C133.256805,62.214710 133.129105,55.798874 133.285385,49.389965 
	C133.549591,38.554035 133.625900,38.558655 143.970490,35.660156 
	C149.993469,33.972546 156.013504,32.274345 163.035828,30.299408 
	C162.047165,42.105995 161.150238,52.817299 160.129791,63.934586 
z"/>
<path fill="#1C448B" opacity="1.000000" stroke="none" 
	d="
M199.583389,127.730637 
	C198.714508,134.436111 198.051544,140.728989 196.915588,146.935272 
	C196.621841,148.540207 195.032898,150.928192 193.718948,151.162537 
	C184.441788,152.817184 175.081146,154.003784 164.908218,155.459839 
	C166.109634,148.675613 167.192612,142.540878 168.288483,136.408463 
	C168.375946,135.919067 168.580475,135.451462 168.683334,134.963776 
	C170.745712,125.184601 170.748535,125.213242 180.972717,123.720947 
	C187.020859,122.838181 193.053116,121.846657 199.613113,120.822784 
	C199.613113,123.410194 199.613113,125.347984 199.583389,127.730637 
z"/>
<path fill="#1C448B" opacity="1.000000" stroke="none" 
	d="
M147.226578,114.235397 
	C141.215118,115.802673 135.608582,117.284698 128.981293,119.036560 
	C129.360001,115.671082 129.713806,112.868011 129.984192,110.056923 
	C130.668762,102.939453 131.243973,95.810280 132.044662,88.706268 
	C132.187943,87.435036 133.013443,85.356354 133.842758,85.183945 
	C141.897964,83.509315 150.021133,82.161613 159.217468,80.526405 
	C158.147507,91.290451 157.602905,100.901344 155.886444,110.298187 
	C155.570633,112.027115 150.504837,112.888397 147.226578,114.235397 
z"/>
<path fill="#1C448B" opacity="1.000000" stroke="none" 
	d="
M201.326462,97.312714 
	C200.757568,104.904922 200.748230,104.838562 193.415634,105.871132 
	C186.542480,106.839020 179.691971,107.967758 171.905609,109.168495 
	C172.411194,102.853279 172.854584,97.122627 173.341400,91.395676 
	C173.439667,90.239578 173.764709,89.103653 173.879639,87.947929 
	C174.832458,78.367004 174.829041,78.403824 184.194000,77.383095 
	C190.104309,76.738907 196.000168,75.962013 202.865753,75.127571 
	C202.344971,82.767197 201.864532,89.815178 201.326462,97.312714 
z"/>
<path fill="#1C448B" opacity="1.000000" stroke="none" 
	d="
M141.672089,131.684845 
	C145.712860,130.619461 149.370697,129.701843 154.346039,128.453720 
	C153.006409,135.654999 151.431503,141.845703 150.789230,148.131668 
	C149.925552,156.584305 145.543137,160.269882 137.262558,161.061066 
	C131.761795,161.586655 126.399063,163.556992 120.589012,164.974701 
	C122.526077,155.661926 124.280998,146.794403 126.313499,137.990982 
	C126.571243,136.874588 128.132797,135.651291 129.348495,135.239166 
	C133.263702,133.911850 137.299728,132.940933 141.672089,131.684845 
z"/>
<path fill="#1C448B" opacity="1.000000" stroke="none" 
	d="
M106.667755,92.610870 
	C109.628632,91.527222 112.247452,90.625313 115.519073,89.498596 
	C115.703125,91.536568 116.056450,92.946182 115.916687,94.305077 
	C114.966637,103.542397 113.971169,112.776283 112.826263,121.990898 
	C112.663010,123.304825 111.937088,125.124184 110.919006,125.660339 
	C105.533615,128.496414 99.971436,130.996811 93.863701,133.902252 
	C93.863701,131.167206 93.986809,128.934097 93.841331,126.718651 
	C93.342598,119.123360 92.896599,111.519119 92.117218,103.950562 
	C91.823418,101.097534 92.216537,99.175697 95.043274,97.976997 
	C98.852005,96.361885 102.569221,94.530937 106.667755,92.610870 
z"/>
<path fill="#1C458C" opacity="1.000000" stroke="none" 
	d="
M100.011696,217.007629 
	C104.538956,206.863235 109.000656,196.688507 113.665024,186.607544 
	C114.354904,185.116531 115.783455,183.416153 117.244186,182.925156 
	C124.915627,180.346588 132.707321,178.125793 140.906143,175.644882 
	C137.581772,191.144135 119.269661,213.202530 100.323288,217.088776 
	C99.966728,216.973099 100.011696,217.007629 100.011696,217.007629 
z"/>
<path fill="#1C448B" opacity="1.000000" stroke="none" 
	d="
M79.806419,181.792267 
	C76.672333,183.465851 73.871140,184.978088 70.530876,186.781342 
	C72.351143,169.796799 91.451370,150.926102 108.819542,144.066437 
	C108.819542,145.508072 109.044693,146.746689 108.782227,147.871521 
	C107.309967,154.180984 105.675133,160.452393 104.189499,166.758865 
	C103.451927,169.889801 101.900711,171.812271 98.678551,173.084396 
	C92.359085,175.579315 86.303879,178.743607 79.806419,181.792267 
z"/>
<path fill="#1C458B" opacity="1.000000" stroke="none" 
	d="
M157.143341,188.487152 
	C155.783707,188.521194 154.819412,188.521194 153.241196,188.521194 
	C155.286102,183.304352 157.079239,178.557678 159.045715,173.883926 
	C159.370316,173.112396 160.386124,172.259262 161.197525,172.121567 
	C171.268265,170.412643 181.360321,168.829269 191.446884,167.213577 
	C191.825424,167.651276 192.203964,168.088959 192.582489,168.526642 
	C190.007080,174.685410 187.599472,180.925476 184.693420,186.924042 
	C184.200851,187.940735 181.573303,188.278580 179.918365,188.315582 
	C172.461182,188.482330 164.999039,188.427841 157.143341,188.487152 
z"/>
<path fill="#1C458C" opacity="1.000000" stroke="none" 
	d="
M73.238144,117.292435 
	C74.606331,115.495033 75.764435,113.985031 77.672585,111.497063 
	C80.710152,132.968628 77.907196,151.276535 61.506401,164.942078 
	C58.548092,153.997391 64.208664,130.044067 73.238144,117.292435 
z"/>
<path fill="#1C458C" opacity="1.000000" stroke="none" 
	d="
M159.380554,203.225861 
	C163.599472,203.157806 167.362778,203.157806 171.251236,203.157806 
	C167.346786,212.610367 138.718643,222.935150 126.674294,221.568726 
	C135.412811,211.658722 144.474167,202.770370 159.380554,203.225861 
z"/>
<path fill="#1C468C" opacity="1.000000" stroke="none" 
	d="
M85.767380,195.759308 
	C88.716263,194.370178 91.334618,193.146698 93.952980,191.923218 
	C94.339981,192.294220 94.726982,192.665222 95.113976,193.036224 
	C90.770287,201.288986 86.426598,209.541733 81.470078,218.958847 
	C76.597961,214.847763 72.560341,211.440842 67.488174,207.160950 
	C74.309395,202.890823 79.873123,199.407898 85.767380,195.759308 
z"/>
<path fill="#1C458C" opacity="1.000000" stroke="none" 
	d="
M99.943680,216.956604 
	C99.859634,217.014282 99.798637,217.088440 99.874672,217.085114 
	C100.011696,217.007629 99.966728,216.973099 99.943680,216.956604 
z"/>
</svg>