<?xml version="1.0" encoding="UTF-8" standalone="no"?>
<!-- Created with Inkscape (http://www.inkscape.org/) -->

<svg
   version="1.1"
   id="svg2"
   width="6000"
   height="6000"
   viewBox="0 0 6000 6000"
   sodipodi:docname="vecteezy_ngx-logo-design-inspiration-for-a-unique-identity-modern_28132923.eps"
   xmlns:inkscape="http://www.inkscape.org/namespaces/inkscape"
   xmlns:sodipodi="http://sodipodi.sourceforge.net/DTD/sodipodi-0.dtd"
   xmlns="http://www.w3.org/2000/svg"
   xmlns:svg="http://www.w3.org/2000/svg">
  <defs
     id="defs6" />
  <sodipodi:namedview
     id="namedview4"
     pagecolor="#ffffff"
     bordercolor="#000000"
     borderopacity="0.25"
     inkscape:showpageshadow="2"
     inkscape:pageopacity="0.0"
     inkscape:pagecheckerboard="0"
     inkscape:deskcolor="#d1d1d1" />
  <g
     id="g8"
     inkscape:groupmode="layer"
     inkscape:label="ink_ext_XXXXXX"
     transform="matrix(1.3333333,0,0,-1.3333333,0,6000)">
    <g
       id="g10"
       transform="scale(0.1)">
      <path
         d="M 45000,0 H 0 V 45000 H 45000 V 0"
         style="fill:#ffffff;fill-opacity:1;fill-rule:nonzero;stroke:none"
         id="path12" />
      <path
         d="m 27053.9,19039.4 c -1317,-2898.9 -4237.6,-4914.7 -7629,-4914.7 -4625.6,0 -8375.3,3749.7 -8375.3,8375.3 0,4625.6 3749.7,8375.3 8375.3,8375.3 3402.8,0 6331.5,-2029.5 7642.1,-4944 10.8,7.5 21.7,14.9 32.7,22.1 -1390.5,3379.6 -4701.4,5812 -8564.9,5812 -5117.2,0 -9265.4,-4148.3 -9265.4,-9265.4 0,-5117.1 4148.2,-9265.4 9265.4,-9265.4 3849.4,0 7150.4,2416.2 8549.8,5777 -10.2,9.3 -20.4,18.6 -30.7,27.8"
         style="fill:#100f0d;fill-opacity:1;fill-rule:nonzero;stroke:none"
         id="path14" />
      <path
         d="M 25438.5,19336 H 27016 c -1226.6,-2623.5 -3931.4,-4446.1 -7071.2,-4446.1 -3241,0 -6018.5,1997.8 -7185,4773.7 9.2,5.9 18.4,11.9 27.5,18.1 1099.4,-2393.9 3556.3,-4060.8 6410.9,-4060.8 2715.1,0 5070.6,1508 6240.3,3715.1"
         style="fill:#100f0d;fill-opacity:1;fill-rule:nonzero;stroke:none"
         id="path16" />
      <path
         d="m 12798.1,25342.3 c -8.5,7.6 -17.1,15.3 -25.6,22.9 1174,2760.4 3943.1,4744.9 7172.3,4744.9 3139.8,0 5844.6,-1822.6 7071.2,-4446.1 h -1577.4 c -1169.8,2207.1 -3525.2,3715 -6240.4,3715 -2845.1,0 -5295.2,-1655.6 -6400.1,-4036.7"
         style="fill:#100f0d;fill-opacity:1;fill-rule:nonzero;stroke:none"
         id="path18" />
      <path
         d="m 21579.3,20723 c 0,-424.7 -192.9,-637 -578.5,-637 -277.4,0 -541.8,104 -793,312 l -2743,2294.5 v -2574 h -1456 v 4082 c 0,173.3 55.2,316.3 165.7,429 110.5,112.6 267.5,169 471.3,169 264.2,0 509.1,-93.2 734.5,-279.5 l 2743,-2294.5 V 24805 h 1456 v -4082"
         style="fill:#100f0d;fill-opacity:1;fill-rule:nonzero;stroke:none"
         id="path20" />
      <path
         d="m 28444.2,24805 -936,-1215.5 h -2353 c -398.8,0 -729.1,-107.3 -991.3,-321.8 -262.2,-214.5 -393.2,-488.6 -393.2,-822.2 0,-333.7 130,-603.5 390,-809.3 260,-205.8 591.5,-308.7 994.5,-308.7 h 1690 v 435.5 h -1820 l -955.5,1157 h 4231.5 v -2801.5 h -3146 c -814.8,0 -1489.6,226.4 -2024.8,679.3 -535.2,452.7 -802.7,1021.5 -802.7,1706.2 0,684.6 264.2,1239.3 793,1664 528.6,424.6 1206.7,637 2034.5,637 h 3289"
         style="fill:#100f0d;fill-opacity:1;fill-rule:nonzero;stroke:none"
         id="path22" />
      <path
         d="m 35730.6,24805 -2320.5,-2385.5 2216.5,-2301 h -1852.5 l -1592.5,1677 -1599,-1677 h -1846 l 2210,2301 -2314,2385.5 h 1878.5 l 1670.5,-1742 1664,1742 h 1885"
         style="fill:#100f0d;fill-opacity:1;fill-rule:nonzero;stroke:none"
         id="path24" />
    </g>
  </g>
</svg>
