<?xml version="1.0" encoding="UTF-8"?>
<svg xmlns="http://www.w3.org/2000/svg" xmlns:xlink="http://www.w3.org/1999/xlink" width="1802" height="3000" viewBox="0 0 1802 3000">
<path fill-rule="nonzero" fill="rgb(0%, 0%, 0%)" fill-opacity="1" d="M 915.835938 910.238281 L 1567.460938 1216.738281 C 1580.171875 1222.679688 1587.628906 1235.289062 1587.648438 1248.460938 L 1587.78125 1248.460938 L 1587.78125 1861.46875 C 1587.78125 1876.660156 1578.140625 1889.601562 1564.648438 1894.519531 L 915.835938 2199.691406 C 906.066406 2204.261719 895.25 2203.921875 886.175781 2199.6875 L 234.550781 1893.191406 C 221.839844 1887.25 214.371094 1874.640625 214.359375 1861.46875 L 214.226562 1861.46875 L 214.226562 1248.460938 C 214.226562 1233.269531 223.867188 1220.328125 237.359375 1215.421875 L 886.175781 910.238281 C 895.949219 905.671875 906.765625 906.011719 915.835938 910.238281 Z M 1211.988281 1126.929688 L 901.007812 980.660156 L 284.535156 1270.628906 L 284.535156 1839.308594 L 901.007812 2129.273438 L 1517.46875 1839.308594 L 1517.46875 1270.621094 L 1211.988281 1126.929688 "/>
<path fill-rule="nonzero" fill="rgb(0%, 0%, 0%)" fill-opacity="1" d="M 237.105469 1281.660156 C 195.355469 1262.140625 224.980469 1198.699219 266.765625 1218.210938 L 901.007812 1513.898438 L 1534.648438 1218.210938 C 1576.449219 1198.710938 1606.058594 1262.171875 1564.308594 1281.648438 L 915.835938 1584.261719 C 906.777344 1588.480469 895.933594 1588.808594 886.175781 1584.261719 L 237.105469 1281.660156 "/>
<path fill-rule="nonzero" fill="rgb(0%, 0%, 0%)" fill-opacity="1" d="M 865.851562 1552.539062 C 865.851562 1506.261719 936.160156 1506.261719 936.160156 1552.539062 L 936.160156 2165.382812 C 936.160156 2211.65625 865.851562 2211.664062 865.851562 2165.382812 L 865.851562 1552.539062 "/>
<path fill-rule="nonzero" fill="rgb(0%, 0%, 0%)" fill-opacity="1" d="M 865.847656 2167.964844 C 865.847656 2121.683594 936.152344 2121.683594 936.152344 2167.964844 L 936.152344 2654.726562 C 936.152344 2701.007812 865.847656 2701.007812 865.847656 2654.726562 L 865.847656 2167.964844 "/>
<path fill-rule="nonzero" fill="rgb(0%, 0%, 0%)" fill-opacity="1" d="M 1222.859375 2000.035156 C 1222.859375 1984.488281 1231.050781 1974.589844 1241.570312 1969.5 C 1262.398438 1959.410156 1293.171875 1969.308594 1293.171875 2000.035156 L 1293.171875 2425.316406 L 1595.5 2727.640625 C 1628.230469 2760.367188 1578.511719 2810.082031 1545.789062 2777.355469 L 1233.160156 2464.734375 C 1226.800781 2458.371094 1222.859375 2449.585938 1222.859375 2439.875 L 1222.859375 2000.035156 "/>
<path fill-rule="nonzero" fill="rgb(0%, 0%, 0%)" fill-opacity="1" d="M 1646.261719 2690.410156 C 1782.929688 2690.410156 1853.390625 2856.921875 1755.460938 2954.664062 C 1657.839844 3052.089844 1491.511719 2981.78125 1491.511719 2845.160156 C 1491.511719 2759.890625 1561 2690.410156 1646.261719 2690.410156 Z M 1705.96875 2785.3125 C 1627.410156 2706.757812 1507.851562 2826.296875 1586.550781 2905.003906 C 1665.109375 2983.5625 1784.679688 2864.023438 1705.96875 2785.3125 "/>
<path fill-rule="nonzero" fill="rgb(0%, 0%, 0%)" fill-opacity="1" d="M 508.828125 2000.035156 C 508.828125 1969.519531 539.195312 1959.46875 560.011719 1969.179688 C 570.765625 1974.199219 579.140625 1984.28125 579.140625 2000.035156 L 579.140625 2439.875 C 579.140625 2449.585938 575.199219 2458.371094 568.839844 2464.734375 L 256.210938 2777.355469 C 223.484375 2810.082031 173.773438 2760.367188 206.496094 2727.640625 L 508.828125 2425.316406 L 508.828125 2000.035156 "/>
<path fill-rule="nonzero" fill="rgb(0%, 0%, 0%)" fill-opacity="1" d="M 155.738281 2760.71875 C 44.585938 2760.71875 44.59375 2929.597656 155.738281 2929.597656 C 266.882812 2929.597656 266.890625 2760.71875 155.738281 2760.71875 Z M 46.316406 2735.878906 C 144.183594 2638.011719 310.484375 2708.625 310.484375 2845.160156 C 310.484375 2981.816406 144.003906 3052.238281 46.316406 2954.441406 C -14.058594 2894 -14.117188 2796.308594 46.316406 2735.878906 "/>
<path fill-rule="nonzero" fill="rgb(0%, 0%, 0%)" fill-opacity="1" d="M 901 2619.570312 C 1037.640625 2619.570312 1108.140625 2786.074219 1010.199219 2883.820312 C 912.578125 2981.25 746.253906 2910.949219 746.253906 2774.316406 C 746.253906 2689.046875 815.738281 2619.570312 901 2619.570312 Z M 960.707031 2714.472656 C 882.148438 2635.914062 762.585938 2755.453125 841.292969 2834.164062 C 919.851562 2912.71875 1039.421875 2793.183594 960.707031 2714.472656 "/>
<path fill-rule="nonzero" fill="rgb(0%, 0%, 0%)" fill-opacity="1" d="M 1293.171875 1109.890625 C 1293.171875 1140.140625 1263.210938 1150.160156 1242.398438 1140.878906 C 1231.378906 1135.960938 1222.859375 1125.929688 1222.859375 1109.890625 L 1222.859375 560.109375 C 1222.859375 550.398438 1226.800781 541.609375 1233.160156 535.25 L 1545.789062 222.628906 C 1562.128906 206.289062 1580.71875 212.730469 1593.140625 225.121094 C 1605.589844 237.539062 1611.871094 255.980469 1595.5 272.339844 L 1293.171875 574.671875 L 1293.171875 1109.890625 "/>
<path fill-rule="nonzero" fill="rgb(0%, 0%, 0%)" fill-opacity="1" d="M 1646.261719 239.269531 C 1757.410156 239.269531 1757.410156 70.398438 1646.261719 70.398438 C 1535.109375 70.398438 1535.109375 239.269531 1646.261719 239.269531 Z M 1755.679688 264.121094 C 1657.820312 361.980469 1491.511719 291.371094 1491.511719 154.828125 C 1491.511719 18.179688 1658 -52.238281 1755.679688 45.550781 C 1816.050781 105.988281 1816.121094 203.679688 1755.679688 264.121094 "/>
<path fill-rule="nonzero" fill="rgb(0%, 0%, 0%)" fill-opacity="1" d="M 579.140625 1109.890625 C 579.140625 1125.480469 570.910156 1135.621094 560.238281 1140.691406 C 539.417969 1150.589844 508.828125 1140.628906 508.828125 1109.890625 L 508.828125 574.671875 L 206.496094 272.339844 C 173.773438 239.621094 223.484375 189.910156 256.210938 222.628906 L 568.839844 535.25 C 575.199219 541.609375 579.140625 550.398438 579.140625 560.109375 L 579.140625 1109.890625 "/>
<path fill-rule="nonzero" fill="rgb(0%, 0%, 0%)" fill-opacity="1" d="M 155.738281 309.578125 C 19.085938 309.578125 -51.402344 143.078125 46.539062 45.328125 C 144.152344 -52.101562 310.484375 18.199219 310.484375 154.828125 C 310.484375 240.101562 241 309.578125 155.738281 309.578125 Z M 96.03125 214.679688 C 174.589844 293.238281 294.152344 173.699219 215.445312 94.988281 C 136.886719 16.429688 17.324219 135.96875 96.03125 214.679688 "/>
<path fill-rule="evenodd" fill="rgb(74.021912%, 74.021912%, 74.021912%)" fill-opacity="1" d="M 1517.46875 1303.511719 L 936.160156 1574.769531 L 936.160156 2112.742188 L 1517.46875 1839.308594 L 1517.46875 1303.511719 "/>
<path fill-rule="evenodd" fill="rgb(52.539062%, 52.539062%, 52.539062%)" fill-opacity="1" d="M 901.007812 1513.898438 L 1470.089844 1248.339844 L 1211.988281 1126.929688 L 901.007812 980.660156 L 331.652344 1248.460938 L 901.007812 1513.898438 "/>
<path fill-rule="evenodd" fill="rgb(63.084412%, 63.084412%, 63.084412%)" fill-opacity="1" d="M 865.851562 2112.742188 L 865.851562 1574.789062 L 284.535156 1303.769531 L 284.535156 1839.308594 L 865.851562 2112.742188 "/>
<path fill-rule="evenodd" fill="rgb(63.476562%, 63.476562%, 63.476562%)" fill-opacity="1" d="M 96.03125 214.679688 C 174.589844 293.238281 294.152344 173.699219 215.445312 94.988281 C 136.886719 16.429688 17.324219 135.96875 96.03125 214.679688 "/>
<path fill-rule="evenodd" fill="rgb(57.617188%, 57.617188%, 57.617188%)" fill-opacity="1" d="M 1646.261719 70.398438 C 1535.109375 70.398438 1535.109375 239.269531 1646.261719 239.269531 C 1757.410156 239.269531 1757.410156 70.398438 1646.261719 70.398438 "/>
<path fill-rule="evenodd" fill="rgb(38.426208%, 38.426208%, 38.426208%)" fill-opacity="1" d="M 1705.96875 2785.3125 C 1627.410156 2706.757812 1507.851562 2826.296875 1586.550781 2905.003906 C 1665.109375 2983.5625 1784.679688 2864.023438 1705.96875 2785.3125 "/>
<path fill-rule="evenodd" fill="rgb(74.021912%, 74.021912%, 74.021912%)" fill-opacity="1" d="M 841.292969 2834.164062 C 919.851562 2912.71875 1039.421875 2793.183594 960.707031 2714.472656 C 944.003906 2697.769531 925.433594 2690.015625 907.316406 2688.929688 C 903.5625 2689.539062 899.707031 2689.59375 895.933594 2689.109375 C 833.714844 2694.777344 782.851562 2775.722656 841.292969 2834.164062 "/>
<path fill-rule="evenodd" fill="rgb(55.664062%, 55.664062%, 55.664062%)" fill-opacity="1" d="M 155.738281 2929.597656 C 241.632812 2929.597656 261.152344 2828.738281 214.28125 2782.914062 C 210.914062 2780.871094 207.832031 2778.296875 205.203125 2775.34375 C 192.367188 2766.261719 175.875 2760.71875 155.738281 2760.71875 C 44.585938 2760.71875 44.59375 2929.597656 155.738281 2929.597656 "/>
</svg>
