<svg xmlns="http://www.w3.org/2000/svg" viewBox="0 0 688.2 486.67"><g id="Layer_2" data-name="Layer 2"><g id="Layer_1-2" data-name="Layer 1"><g id="Main"><path d="M637.6,409.3a95.27,95.27,0,0,0-27.23-10.14l77.81-44.93L229.39,89.36,0,221.8,458.79,486.67l52.76-30.47c3.78,5.72,9.63,11.09,17.63,15.69,30.13,17.4,78.82,17.48,108.75.21S667.71,426.7,637.6,409.3Z" style="fill-rule:evenodd"/><polygon points="688.2 264.89 458.81 397.31 0.04 132.44 229.43 0 688.2 264.89" style="fill:#697587"/><polygon points="688.2 264.89 688.2 295.21 458.81 427.65 458.81 397.31 688.2 264.89" style="fill:#425066"/><polygon points="458.81 397.31 0.04 132.44 0.04 162.78 458.81 427.65 458.81 397.31" style="fill:#3a485f"/><path d="M229.43,17,169.18,51.76l18.6,10.74a3.74,3.74,0,0,1,0,6.48l-65.31,37.09a12.29,12.29,0,0,1-12.17,0L92.73,95.91l-63.3,36.55,429.4,247.92,200-115.47L229.43,17Z" style="fill:#fff"/><path d="M436.42,219.21a13.45,13.45,0,0,1,2.38-12.08A14.59,14.59,0,0,0,441.61,196a44,44,0,0,0-3.07-9.72s-13.29-39.21,20.23-39c0,0,27-10.44,26.93,12.6,0,0,7.78,6.42,4.92,23.3,0,0-1.1,5,3.63,11a19.08,19.08,0,0,1,4.13,11.58c0,3.79-1.12,7.76-5.38,9.62l-56.56,3.83Z" style="fill:#fff;stroke:#425066;stroke-linecap:round;stroke-linejoin:round;stroke-width:1.8612130880355835px"/><path d="M566.57,467.7a3.2,3.2,0,0,1-3.2,3.19,3,3,0,0,1-1.47-.38l-16.81-7.64a3.32,3.32,0,0,1-1.62-2.09l-1.39-5.6a3.2,3.2,0,0,0-1.55-2l-4.8-2.7a3.24,3.24,0,0,1-1.62-2.49l-1-10.74c.26,1.71,1.38,6.51,5.58,9a6.33,6.33,0,0,0,6.63-.23l2.47-1.58a5.6,5.6,0,0,1,8,2.12l2.57,4.75.24.47,7.56,14.48a3.3,3.3,0,0,1,.37,1.47Z" style="fill:#425066;stroke:#425066;stroke-linecap:round;stroke-linejoin:round;stroke-width:1.8612130880355835px;fill-rule:evenodd"/><path d="M558.4,451.29l-2.57-4.75a5.59,5.59,0,0,0-8-2.12L545.32,446a6.33,6.33,0,0,1-6.63.23c-4.21-2.48-5.3-7.26-5.58-9-.06-.4-.08-.63-.08-.63l-.85-8.82,14.16.45,12.06,23.06Z" style="fill:#fff;stroke:#425066;stroke-linecap:round;stroke-linejoin:round;stroke-width:1.8612130880355835px;fill-rule:evenodd"/><path d="M497.58,348.85,520.28,362s-9.1,39.59,13.68,74.39c0,0,9,7.71,16.94-2.72l-3.76-88.55-49.58,3.76Z" style="fill:#ffa800;stroke:#425066;stroke-linecap:round;stroke-linejoin:round;stroke-width:1.8612130880355835px;fill-rule:evenodd"/><path d="M547.18,345.09l-49.58,3.76L520.3,362s0,.17-.09.46l12.82-.89a14.55,14.55,0,0,1,13,6.25l2.29,3.34-1.1-26.06Z" style="fill:#ff6f00;fill-rule:evenodd"/><path d="M497.58,348.85,520.28,362s-9.1,39.59,13.68,74.39c0,0,9,7.71,16.94-2.72l-3.76-88.55-49.58,3.76Z" style="fill:none;stroke:#425066;stroke-linecap:round;stroke-linejoin:round;stroke-width:1.8612130880355835px"/><polygon points="511.01 237.49 519.37 250.56 553.65 270.81 544.46 277.21 506.85 265.19 485.68 234.2 511.01 237.49" style="fill:#fff;stroke:#425066;stroke-linecap:round;stroke-linejoin:round;stroke-width:1.8612130880355835px"/><path d="M472.93,199.86l13.42,1.75a13.1,13.1,0,0,1,9.74,6.44l18.42,31.64s-6,9.66-22.67,9.64Z" style="fill:#87898a;stroke:#425066;stroke-linecap:round;stroke-linejoin:round;stroke-width:1.8612130880355835px"/><path d="M645,414.81a30.9,30.9,0,0,1-14.92,4.07,10.53,10.53,0,0,1-4.06-.83l-18.11-7.56a4.28,4.28,0,0,1-2.25-2.12l-2.27-4.75c2.88,2.11,8.22,3.11,10.83,1.27,1.78-1.25,2.62-3.52,4.43-4.75,2-1.34,4.43-.85,6.59-.26,2.23,1.08,4.26,1.94,5.8,2.51a24.67,24.67,0,0,0,5.51,1.42,25.49,25.49,0,0,1,7.93,2.51l.48.24a4.65,4.65,0,0,1,.06,8.23Z" style="fill:#425066;stroke:#425066;stroke-linecap:round;stroke-linejoin:round;stroke-width:1.8612130880355835px;fill-rule:evenodd"/><path d="M625.26,399.88c-2.16-.59-4.6-1.08-6.59.26-1.81,1.23-2.65,3.5-4.43,4.75-2.63,1.84-8,.84-10.83-1.27l-2.48-5.12,9.73-9.41c3.84,4.8,9.68,8.39,14.58,10.79Z" style="fill:#fff;stroke:#425066;stroke-linecap:round;stroke-linejoin:round;stroke-width:1.8612130880355835px;fill-rule:evenodd"/><path d="M452.85,315.44V327s-4.82,35.66,89.34,24.41L556.34,371s6.42,8.68,21.53,15.43c0,0,18.31,11.58,21.85,17,0,0,12.86-2.25,15.43-12.21l-44.67-57a24.67,24.67,0,0,0-7-6.07l-66.63-38.77-44,26Z" style="fill:#ffa800;stroke:#425066;stroke-linecap:round;stroke-linejoin:round;stroke-width:1.8612130880355835px;fill-rule:evenodd"/><line x1="542.19" y1="351.42" x2="546.73" y2="342.24" style="fill:none;stroke:#425066;stroke-linecap:round;stroke-linejoin:round;stroke-width:1.8612130880355835px"/><path d="M546.73,350.19a9,9,0,0,1,6.92-2.22" style="fill:none;stroke:#425066;stroke-linecap:round;stroke-linejoin:round;stroke-width:1.8612130880355835px"/><path d="M491.53,217.48l5.84,13.74,6.55,15.41a15.48,15.48,0,0,1,.77,3.65,19,19,0,0,1-4.82,14.4l23.41,28.74-33.39,20.23s-7.11-5.23-23.28,9.27c0,0-12.08,8.69-24.11,1,0,0,4-8.58,1.16-43.34l-3.48-8.77-5.34-13.48a86.45,86.45,0,0,1-6-28.23c0-.26,0-.52,0-.78a17.89,17.89,0,0,1,9-15.54l11.37-6.44,12.16-6.87h4" style="fill:#87898a;stroke:#425066;stroke-linecap:round;stroke-linejoin:round;stroke-width:1.8612130880355835px"/><path d="M504.69,250.28l-54.26,31.34V258.34l46.94-27.1,6.55,15.41a15.32,15.32,0,0,1,.77,3.65Z" style="fill:#b8baba;stroke:#425066;stroke-linecap:round;stroke-linejoin:round;stroke-width:1.8612130880355835px"/><polygon points="567.61 294.41 508.97 328.06 471.11 306.19 529.38 272.56 567.61 294.41" style="fill:#fff;stroke:#425066;stroke-linecap:round;stroke-linejoin:round;stroke-width:1.8612130880355835px"/><polygon points="567.61 292.17 509.34 325.81 471.11 303.75 529.38 270.1 567.61 292.17" style="fill:#fff;stroke:#425066;stroke-linecap:round;stroke-linejoin:round;stroke-width:1.8612130880355835px"/><polygon points="508.97 325.81 471.11 303.75 471.11 306.19 508.97 328.06 508.97 325.81" style="fill:#425066;stroke:#425066;stroke-linecap:round;stroke-linejoin:round;stroke-width:1.8612130880355835px"/><path d="M434.52,266.86l3.59,29.85a7.37,7.37,0,0,0,6.44,6.43l49.19,5.67a17.12,17.12,0,0,0,12.34-3.38l10.09-7.71-7.56-6.05a7.31,7.31,0,0,0-8.8-.28l-5.66,4s-13.06-2.81-21.38-7.11c0,0-7.13-4.32-14-3.84l-1.43-27.08-22.82,9.55Z" style="fill:#fff;stroke:#425066;stroke-linecap:round;stroke-linejoin:round;stroke-width:1.8612130880355835px"/><path d="M450.43,287.26s4-3.13,8.32-2.87" style="fill:#fff;stroke:#425066;stroke-linecap:round;stroke-linejoin:round;stroke-width:1.8612130880355835px"/><path d="M472.54,191.7l10.37,25.71a11.65,11.65,0,0,1-5,14.48h0a11.67,11.67,0,0,1-17-6.83l-10.48-35.5,22.11,2.14Z" style="fill:#fff;stroke:#425066;stroke-linecap:round;stroke-linejoin:round;stroke-width:1.8612130880355835px"/><polyline points="454.75 204.25 450.43 189.58 460.24 182.34 465.99 178.08 477.77 195.52 477.77 215.36" style="fill:#fff;stroke:#425066;stroke-linecap:round;stroke-linejoin:round;stroke-width:1.8612130880355835px"/><path d="M477.77,195.52v8.23c-3.27-.6-8.09-2.33-13.68-7l8-2.23L466,178.08l11.78,17.44Z" style="fill:#425066;stroke:#425066;stroke-linecap:round;stroke-linejoin:round;stroke-width:1.8612130880355835px"/><path d="M455.33,184.22V166l23.88-6.14s10.77,11.56,4.56,37.3c0,0-6.7,4.3-19.66-.45" style="fill:#fff;stroke:#425066;stroke-linecap:round;stroke-linejoin:round;stroke-width:1.8612130880355835px"/><path d="M481.29,177.24l1.84,6.35a1.67,1.67,0,0,1-1.6,2.14" style="fill:#fff;stroke:#425066;stroke-linecap:round;stroke-linejoin:round;stroke-width:1.8612130880355835px"/><path d="M461,259.58a4.94,4.94,0,0,1-1.83,4.64,35.05,35.05,0,0,1-18.92,7.63A28.4,28.4,0,0,1,437,272a4.87,4.87,0,0,1-4.78-4.09c-.84-5.2-1.82-13.89-2.75-23.12l-.64-14.63a17.89,17.89,0,0,1,9-16.32l11.37-6.44h3.63l8.12,52.2Z" style="fill:#87898a;stroke:#425066;stroke-linecap:round;stroke-linejoin:round;stroke-width:1.8612130880355835px"/><path d="M483.75,158.67s-1.7,4.74-11,5.69c0,0-13.54-.39-15.69,10.74,0,0-.81,2.57,2.92,9.57,0,0,1.52,5.56-.34,8.65a7.49,7.49,0,0,0-.93,4.62,15.55,15.55,0,0,0,3.2,7.43s4.92,4.91,2.83,16.37c0,0-1.34,3.88,4.62,11.69,0,0,1.32,4.47,0,8.27a13.61,13.61,0,0,0-.78,7.55,12.4,12.4,0,0,0,1.24,3.26,10.37,10.37,0,0,1,.8,9.18,13,13,0,0,1-1.78,2.94s-2.94,5-1.73,7.35a15.7,15.7,0,0,1-1.44-6.55,13.32,13.32,0,0,0-1-6,10.09,10.09,0,0,0-1.25-2.07s-.89-3-.15-4.6c0,0-1,5.07.15,8.94,0,0-.09,4.17-2.44,6.7a12.9,12.9,0,0,0-.93-7,8.72,8.72,0,0,1-.82-4.72,17.4,17.4,0,0,1,.69-3.37,14.82,14.82,0,0,0-4.3-10.89,10.94,10.94,0,0,1-2.88-7.65,19.13,19.13,0,0,1,1-5.44s3.56-10.46-8.87-13.28c0,0-5.44.05-6.33-4.43l8.48-11-.59-31.77L459,158.72,481.29,155l2.46,3.77Z" style="fill:#fff;stroke:#fff;stroke-linecap:round;stroke-linejoin:round;stroke-width:0.6142003434578704px"/><path d="M483.75,158.67s-1.7,4.74-11,5.69c0,0-13.54-.39-15.69,10.74,0,0-.81,2.57,2.92,9.57,0,0,1.52,5.56-.34,8.65a7.49,7.49,0,0,0-.93,4.62,15.55,15.55,0,0,0,3.2,7.43s4.92,4.91,2.83,16.37c0,0-1.34,3.88,4.62,11.69,0,0,1.32,4.47,0,8.27a13.61,13.61,0,0,0-.78,7.55,12.4,12.4,0,0,0,1.24,3.26,10.37,10.37,0,0,1,.8,9.18,13,13,0,0,1-1.78,2.94s-2.94,5-1.73,7.35a15.7,15.7,0,0,1-1.44-6.55,13.32,13.32,0,0,0-1-6,10.09,10.09,0,0,0-1.25-2.07s-.89-3-.15-4.6c0,0-1,5.07.15,8.94,0,0-.09,4.17-2.44,6.7a12.9,12.9,0,0,0-.93-7,8.72,8.72,0,0,1-.82-4.72,17.4,17.4,0,0,1,.69-3.37,14.82,14.82,0,0,0-4.3-10.89,10.94,10.94,0,0,1-2.88-7.65,19.13,19.13,0,0,1,1-5.44s3.56-10.46-8.87-13.28c0,0-5.44.05-6.33-4.43" style="fill:#fff;stroke:#425066;stroke-linecap:round;stroke-linejoin:round;stroke-width:1.8612130880355835px"/><polygon points="567.61 294.41 508.97 328.26 508.97 284.41 567.61 250.56 567.61 294.41" style="fill:#697587;stroke:#425066;stroke-linecap:round;stroke-linejoin:round;stroke-width:1.8612130880355835px"/><polygon points="567.61 250.56 508.97 284.41 506.85 283.18 565.49 249.33 567.61 250.56" style="fill:#fff;stroke:#425066;stroke-linecap:round;stroke-linejoin:round;stroke-width:1.8612130880355835px"/><polygon points="508.97 325.81 508.97 284.41 506.85 283.18 506.85 324.58 508.97 325.81" style="fill:#425066;stroke:#425066;stroke-linecap:round;stroke-linejoin:round;stroke-width:1.8612130880355835px"/></g></g></g></svg>