<?xml version="1.0" encoding="UTF-8" standalone="no"?>
<!-- Created with Inkscape (http://www.inkscape.org/) -->

<svg
   version="1.1"
   id="svg2"
   width="3200"
   height="3513.3333"
   viewBox="0 0 3200 3513.3333"
   sodipodi:docname="vecteezy_save-data-vector-icon_37017992.eps"
   xmlns:inkscape="http://www.inkscape.org/namespaces/inkscape"
   xmlns:sodipodi="http://sodipodi.sourceforge.net/DTD/sodipodi-0.dtd"
   xmlns="http://www.w3.org/2000/svg"
   xmlns:svg="http://www.w3.org/2000/svg">
  <defs
     id="defs6" />
  <sodipodi:namedview
     id="namedview4"
     pagecolor="#ffffff"
     bordercolor="#000000"
     borderopacity="0.25"
     inkscape:showpageshadow="2"
     inkscape:pageopacity="0.0"
     inkscape:pagecheckerboard="0"
     inkscape:deskcolor="#d1d1d1" />
  <g
     id="g8"
     inkscape:groupmode="layer"
     inkscape:label="ink_ext_XXXXXX"
     transform="matrix(1.3333333,0,0,-1.3333333,0,3513.3333)">
    <g
       id="g10"
       transform="scale(0.1)">
      <path
         d="m 21161.3,1181.09 c -51.5,0 -103.1,15.47 -149.5,41.25 -556.3,309.11 -1035.4,767.58 -1349.5,1293.01 -5.1,5.12 -10.4,15.47 -10.4,20.59 -118.5,236.87 -236.9,638.67 -236.9,911.76 v 1030.31 c 0,159.61 118.6,288.51 273.1,309.06 340,36.02 710.8,170 1189.9,432.7 30.9,72.18 87.6,133.98 164.9,164.88 113.3,46.37 242.2,20.58 329.6,-61.8 0,0 5.2,0 5.2,-5.12 51.4,-30.89 92.7,-66.91 118.5,-108.16 386.3,-226.72 824.1,-386.33 1189.9,-427.62 154.6,-15.43 273.1,-149.41 273.1,-309.06 V 3442.58 c 0,-298.71 -200.9,-736.68 -288.5,-911.76 -273.1,-545.98 -762.4,-1014.84 -1375.4,-1323.91 -41.3,-15.46 -87.6,-25.82 -134,-25.82 z m -2234.8,618.17 H 9524.77 c -587.23,0 -1030.32,443.04 -1030.32,1030.27 V 10293.7 H 5676.8 C 5529.96,9746.17 5009.65,9315 4430.12,9315 c -685.04,0 -1287.74,602.73 -1287.74,1287.8 0,579.5 431.14,1100 978.67,1246.6 v 3641.7 H 3966.52 C 1782.42,15491.1 0,17268.3 0,19452.4 c 0,855 267.809,1674.1 783.051,2359.3 463.589,623.3 1097.219,1102.3 1833.899,1390.8 715.98,1277.6 2050.24,2065.7 3513.09,2065.7 484.18,0 963.24,-87.6 1401.21,-247.2 767.58,849.9 1838.98,1329 2972.15,1329 932.4,0 1833.8,-329.6 2534.5,-932.3 633.6,-540.9 1081.7,-1282.7 1277.5,-2101.7 1797.8,-417.3 3085.7,-2009 3085.7,-3863.5 l -0.2,-46.3 h 2988 c 587.2,0 1030.3,-443.1 1030.3,-1030.3 V 6662.07 c 36,-46.37 834.5,-1164.14 2199.6,-855.04 92.7,20.55 185.4,0 262.6,-61.83 72.2,-56.72 118.6,-149.42 118.6,-242.15 V 3499.14 c 0,-144.18 -15.5,-2235.66 -2704.4,-3477.0697 -46.4,-15.46874 -92.7,-20.54686 -134,-20.54686 -46.4,0 -87.6,10.34766 -128.7,30.89846 C 19946.5,541.602 19305.3,1195.78 18926.8,1799.26 Z M 8494.45,10911.8 v 4579.5 H 4739.22 v -3641.7 c 447.69,-119.9 817.66,-489.9 937.73,-937.8 z m 12673.15,-4900 -20.8,-19.65 c -367.1,-385.86 -1091.5,-940.67 -2149,-844.53 V 3497.46 c 0.8,-33.55 20.2,-573.36 376,-1244.96 6.1,-11.76 11.4,-23.63 16,-35.7 300.8,-516.02 832.2,-1098.91 1771.5,-1566.249 2230.4,1092.149 2215,2822.969 2209.9,2843.509 0,5.08 0,5.08 0,10.35 v 1648.44 c -82.4,-5.08 -159.7,-10.35 -236.9,-10.35 -951.8,0 -1626.2,518.95 -1966.7,869.3 z M 9112.62,15795.1 V 2829.37 c 0,-242.14 170,-412.14 412.15,-412.14 h 9088.53 c -97.6,246.95 -153.6,468.86 -186.1,647.38 -50.8,257.15 -52.7,419.1 -52.7,434.37 h -3904.7 c -170,0 -309.1,139.11 -309.1,309.11 v 1184.84 c 0,169.96 139.1,309.06 309.1,309.06 h 3904.7 v 205.98 c 0,92.73 41.3,180.35 113.3,236.91 38.6,30.47 83.3,51.8 130.6,62.89 l 2.9,0.78 1.4,0.32 c 46.4,11.91 95.5,13.59 143.2,2.93 33.6,-7.27 66.5,-13.75 99.1,-19.46 976.2,-134.29 1617.6,414.14 1919.4,709.34 l 11.1,12.5 V 18375.6 c 0,242.1 -170,412.1 -412.1,412.1 h -3286.5 c -18.5,-3.4 -37.5,-5.2 -56.8,-5.2 H 9524.61 c -238.28,0 -406.76,-164.8 -411.99,-400.8 l -0.16,-6.1 V 15794.8 Z M 14773.8,4117.3 h 3600.74 v 566.68 H 14773.8 Z m -1643.2,-51.44 h -2781.7 c -170,0 -309.1,139.06 -309.1,309.06 0,170 139.1,309.06 309.1,309.06 h 2781.7 c 170,0 309,-139.06 309,-309.06 0,-170 -139,-309.06 -309,-309.06 z m 6433.8,2513.83 h -5099.7 c -170,0 -309.1,139.1 -309.1,309.1 v 1195.04 c 0,170 139.1,309.06 309.1,309.06 h 5099.7 c 170,0 309.1,-139.06 309.1,-309.06 V 6888.79 c 0,-175.12 -139.1,-309.1 -309.1,-309.1 z m -4790.6,618.16 h 4481.6 v 576.879 h -4481.6 z m -1643.2,10.35 h -2781.7 c -170,0 -309.1,139.1 -309.1,309.07 0,170 139.1,309.1 309.1,309.1 h 2781.7 c 170,0 309,-139.1 309,-309.1 0,-169.97 -139,-309.07 -309,-309.07 z m 6433.8,2508.64 h -5099.7 c -170,0 -309.1,139.06 -309.1,309.06 v 1195 c 0,170 139.1,309.1 309.1,309.1 h 5099.7 c 170,0 309.1,-139.1 309.1,-309.1 v -1195 c 0,-170 -139.1,-309.06 -309.1,-309.06 z M 14773.8,10335 h 4481.6 v 576.879 h -4481.6 z m -1643.2,-41.3 h -2781.7 c -170,0 -309.1,139.1 -309.1,309.1 0,170 139.1,309 309.1,309 h 2781.7 c 170,0 309,-139 309,-309 0,-170 -139,-309.1 -309,-309.1 z m 6433.8,2513.9 h -5099.7 c -170,0 -309.1,139 -309.1,309 v 1195.1 c 0,170 139.1,309 309.1,309 h 5099.7 c 170,0 309.1,-139 309.1,-309 v -1195.1 c 0,-170 -139.1,-309 -309.1,-309 z m -4790.6,618.1 h 4481.6 v 576.922 h -4481.6 z m -1643.2,-41.3 h -2781.7 c -170,0 -309.1,139.2 -309.1,309.1 0,170 139.1,309.1 309.1,309.1 h 2781.7 c 170,0 309,-139.1 309,-309.1 0,-169.9 -139,-309.1 -309,-309.1 z m 6433.8,2508.7 h -5099.7 c -170,0 -309.1,139 -309.1,309.1 v 1195 c 0,170 139.1,309.1 309.1,309.1 h 5099.7 c 170,0 309.1,-139.1 309.1,-309.1 v -1195 c 0,-170.1 -139.1,-309.1 -309.1,-309.1 z m -4790.6,618.1 h 4481.6 v 576.879 h -4481.6 z m -1643.2,10.4 h -2781.7 c -170,0 -309.1,139.1 -309.1,309 0,170 139.1,309.1 309.1,309.1 h 2781.7 c 170,0 309,-139.1 309,-309.1 0,-169.9 -139,-309 -309,-309 z m -7000.56,8133.8 c -1272.31,0 -2431.33,-705.8 -3023.83,-1839.1 -36.01,-66.9 -97.81,-123.6 -170,-149.4 C 1529.92,22162 618.16,20905.2 618.16,19457.6 c 0,-1844.1 1498.99,-3348.3 3348.36,-3348.3 h 4527.93 v 2266.6 c 0,587.2 443.09,1030.3 1030.32,1030.3 h 7258.03 c 0,20.5 0,36 0,51.4 0,1627.8 -1169.4,3013.5 -2781.7,3296.8 -128.7,20.5 -226.7,123.6 -252.3,247.2 -293.7,1607.2 -1627.8,2730.2 -3250.4,2730.2 -1020,0 -1983.24,-463.6 -2642.66,-1277.5 -87.61,-108.2 -236.87,-144.2 -365.78,-87.6 -411.99,190.5 -880.86,288.3 -1359.92,288.3 z M 5097.89,10558 c -2.19,14.7 -3.24,29.6 -3.24,44.9 0,15.3 1.05,30.3 3.24,45 -26.44,327.9 -337.66,624.8 -667.77,624.8 -345.08,0 -669.61,-324.5 -669.61,-669.6 0,-345.1 324.53,-669.62 669.61,-669.62 330.11,0 641.33,296.92 667.77,624.82 z M 20192.8,2824.45 c 231.8,-381.25 576.9,-726.33 973.6,-978.71 422.4,242.19 762.3,587.27 953,968.52 128.8,257.61 226.7,530.51 226.7,633.59 v 767.58 c -381.2,82.38 -788.1,242.15 -1164.1,463.63 -443.1,-242.19 -808.7,-386.36 -1153.9,-463.63 v -767.58 c 0,-144.18 82.3,-448.16 164.9,-623.24 z"
         style="fill:#000000;fill-opacity:1;fill-rule:evenodd;stroke:none"
         id="path12" />
      <path
         d="m 20193,2824.3 c 231.8,-381.25 576.8,-726.33 973.5,-978.71 422.4,242.18 762.4,587.26 953.1,968.51 128.7,257.62 226.7,530.51 226.7,633.6 v 767.57 c -381.3,82.39 -788.2,242.15 -1164.1,463.64 -443.1,-242.19 -808.8,-386.37 -1154,-463.64 V 3447.7 c 0,-144.18 82.4,-448.17 164.9,-623.25 z"
         style="fill:#f9b916;fill-opacity:1;fill-rule:evenodd;stroke:none"
         id="path14" />
      <path
         d="m 19415,4477.85 c 0,159.61 118.6,288.52 273.1,309.06 340,36.02 710.8,170 1189.9,432.7 30.9,72.19 87.6,133.98 164.9,164.92 187.6,75.86 334.9,-59.69 334.9,-66.95 51.5,-30.9 92.7,-66.92 118.5,-108.17 386.4,-226.71 824.2,-386.32 1190,-427.61 154.5,-15.43 273,-149.42 273,-309.07 V 3442.42 c 0,-298.71 -200.9,-736.68 -288.5,-911.76 -273.1,-545.97 -762.3,-1014.84 -1375.4,-1323.9 -41.2,-15.47 -87.6,-25.82 -134,-25.82 -51.4,0 -103,15.47 -149.4,41.25 -556.3,309.1 -1035.4,767.61 -1349.6,1293.01 -101.5,130.31 -247.2,698.67 -247.2,932.34 v 1030.31 z m -417.2,669.61 V 3497.3 c 0.8,-33.55 20.2,-573.32 376,-1244.96 279.4,-530.5 852.7,-1136.91 1787.5,-1602.067 2241.1,1097.187 2209.9,2822.777 2209.9,2853.827 v 1648.44 c -1053.2,-66.13 -1753.9,396.09 -2203.6,859.1 l -20.8,-19.65 c -367.1,-385.86 -1091.5,-940.66 -2149,-844.53 z"
         style="fill:#fba310;fill-opacity:1;fill-rule:evenodd;stroke:none"
         id="path16" />
      <path
         d="m 14773.8,4117.31 h 3600.74 v 566.523 H 14773.8 Z"
         style="fill:#cababc;fill-opacity:1;fill-rule:evenodd;stroke:none"
         id="path18" />
      <path
         d="m 14469.8,5301.99 h 3904.7 c 0,207.23 -34.9,433.63 248.2,507.03 l 242.5,-16.52 c 976.2,-134.3 1617.5,414.14 1919.3,709.34 l 11.2,12.5 V 18375.7 c 0,242.2 -170,412.2 -412.2,412.2 l -10858.89,-5.1 c -243.24,0 -412.15,-171.1 -412.15,-412.2 V 2829.37 c 0,-242.14 170,-412.14 412.15,-412.14 h 9088.49 c -141.5,358.82 -238.6,821.05 -238.6,1081.75 h -3904.7 c -170,0 -309.1,139.11 -309.1,309.11 v 1184.84 c 0,169.96 139.1,309.06 309.1,309.06 z m -1339.4,-618.16 c 406.6,0 406.6,-618.13 0,-618.13 h -2781.6 c -406.61,0 -406.61,618.13 0,618.13 z m 6433.9,1895.7 h -5099.7 c -170,0 -309.1,139.1 -309.1,309.1 v 1195.04 c 0,170 139.1,309.06 309.1,309.06 h 5099.7 c 170,0 309.1,-139.06 309.1,-309.06 V 6888.63 c 0,-175.11 -139.1,-309.1 -309.1,-309.1 z m -6433.9,628.52 h -2781.6 c -406.61,0 -406.61,618.16 0,618.16 h 2781.6 c 406.6,0 406.6,-618.16 0,-618.16 z m 6433.9,2508.63 h -5099.7 c -170,0 -309.1,139.06 -309.1,309.02 v 1195.1 c 0,170 139.1,309 309.1,309 h 5099.7 c 170,0 309.1,-139 309.1,-309 v -1195.1 c 0,-169.96 -139.1,-309.02 -309.1,-309.02 z m -6433.9,576.92 h -2781.6 c -406.61,0 -406.61,618.1 0,618.1 h 2781.6 c 406.6,0 406.6,-618.1 0,-618.1 z m 6433.9,2513.8 h -5099.7 c -170,0 -309.1,139.1 -309.1,309.1 v 1195 c 0,170 139.1,309.1 309.1,309.1 h 5099.7 c 170,0 309.1,-139.1 309.1,-309.1 v -1195 c 0,-170 -139.1,-309.1 -309.1,-309.1 z m -6433.9,576.9 h -2781.6 c -406.61,0 -406.61,618.2 0,618.2 h 2781.6 c 406.6,0 406.6,-618.2 0,-618.2 z m 6433.9,2508.6 h -5099.7 c -170,0 -309.1,139.1 -309.1,309.1 v 1195 c 0,170 139.1,309.1 309.1,309.1 h 5099.7 c 170,0 309.1,-139.1 309.1,-309.1 v -1195 c 0,-170 -139.1,-309.1 -309.1,-309.1 z m -6433.9,628.5 h -2781.6 c -406.61,0 -406.61,618.2 0,618.2 h 2781.6 c 406.6,0 406.6,-618.2 0,-618.2 z"
         style="fill:#efedef;fill-opacity:1;fill-rule:evenodd;stroke:none"
         id="path20" />
      <path
         d="m 19255.4,7197.7 v 577.03 l -4481.6,-0.16 V 7197.7 Z"
         style="fill:#cababc;fill-opacity:1;fill-rule:evenodd;stroke:none"
         id="path22" />
      <path
         d="m 14773.8,10334.8 h 4481.6 v 576.91 h -4481.6 z"
         style="fill:#cababc;fill-opacity:1;fill-rule:evenodd;stroke:none"
         id="path24" />
      <path
         d="m 14773.8,13425.4 h 4481.6 v 577.07 h -4481.6 z"
         style="fill:#cababc;fill-opacity:1;fill-rule:evenodd;stroke:none"
         id="path26" />
      <path
         d="m 14773.8,16511.1 h 4481.6 v 576.879 h -4481.6 z"
         style="fill:#cababc;fill-opacity:1;fill-rule:evenodd;stroke:none"
         id="path28" />
      <path
         d="m 4430.12,9933.01 c 330.11,0 641.33,296.89 667.77,624.79 v 89.8 c -26.44,327.9 -337.66,624.8 -667.77,624.8 -345.08,0 -669.61,-324.5 -669.61,-669.6 0,-345.1 324.53,-669.64 669.61,-669.64 z"
         style="fill:#25a753;fill-opacity:1;fill-rule:evenodd;stroke:none"
         id="path30" />
      <path
         d="m 3966.52,16109.3 h 4527.93 v 2266.6 c 0,587.2 443.09,1030.3 1030.32,1030.3 h 7258.03 v 51.4 c 0,1627.8 -1169.4,3013.5 -2781.7,3296.8 -128.7,20.5 -226.7,123.6 -252.3,247.2 -576.2,2944.9 -4130.25,3629.8 -5893.06,1452.7 -87.61,-108.2 -236.87,-144.2 -365.78,-87.6 -411.99,190.5 -880.86,288.3 -1359.92,288.3 -1272.31,0 -2431.33,-705.7 -3023.83,-1838.9 -36.01,-67 -97.81,-123.7 -170,-149.5 -1406.29,-504.9 -2318.05,-1761.7 -2318.05,-3209.3 0,-1844.1 1498.99,-3348.4 3348.36,-3348.4 z"
         style="fill:#5facfd;fill-opacity:1;fill-rule:evenodd;stroke:none"
         id="path32" />
    </g>
  </g>
</svg>
