<?xml version="1.0" encoding="UTF-8" standalone="no"?>
<!-- Created with Inkscape (http://www.inkscape.org/) -->

<svg
   version="1.1"
   id="svg2"
   width="6260"
   height="6260"
   viewBox="0 0 6260 6260"
   sodipodi:docname="vecteezy_server-data-cloud-icon-color-outline-vector_15090773.eps"
   xmlns:inkscape="http://www.inkscape.org/namespaces/inkscape"
   xmlns:sodipodi="http://sodipodi.sourceforge.net/DTD/sodipodi-0.dtd"
   xmlns="http://www.w3.org/2000/svg"
   xmlns:svg="http://www.w3.org/2000/svg">
  <defs
     id="defs6" />
  <sodipodi:namedview
     id="namedview4"
     pagecolor="#ffffff"
     bordercolor="#000000"
     borderopacity="0.25"
     inkscape:showpageshadow="2"
     inkscape:pageopacity="0.0"
     inkscape:pagecheckerboard="0"
     inkscape:deskcolor="#d1d1d1" />
  <g
     id="g8"
     inkscape:groupmode="layer"
     inkscape:label="ink_ext_XXXXXX"
     transform="matrix(1.3333333,0,0,-1.3333333,0,6260)">
    <g
       id="g10"
       transform="scale(0.1)">
      <path
         d="m 32077.1,19992.1 h -18105 c -90.1,0 -160.1,70.1 -160.1,150.2 v 3432.8 c 0,90.1 70,160.1 160.1,160.1 h 18995.8 c 90,0 160.1,-70 160.1,-160.1 v -3432.8 c 0,-80.1 -70.1,-150.2 -160.1,-150.2 z m -7095.8,2512.1 h -5364.5 c -420.4,0 -770.6,-350.3 -770.6,-770.6 0,-420.4 350.2,-770.7 770.6,-770.7 h 5364.5 c 420.3,0 770.6,350.3 770.6,770.7 0,420.3 -350.3,770.6 -770.6,770.6"
         style="fill:#b2e6f2;fill-opacity:1;fill-rule:nonzero;stroke:none"
         id="path12" />
      <path
         d="m 32077.1,11935.4 h -18105 c -90.1,0 -160.1,70.1 -160.1,160.2 v 3432.8 c 0,80.1 70,150.2 160.1,150.2 h 900.8 17204.2 890.8 c 90,0 160.1,-70.1 160.1,-150.2 v -3432.8 c 0,-90.1 -70.1,-160.2 -160.1,-160.2 z m -8386.9,2642.2 h -4073.4 c -420.4,0 -770.6,-340.2 -770.6,-770.6 0,-420.3 350.2,-770.6 770.6,-770.6 h 4073.4 c 420.3,0 770.6,350.3 770.6,770.6 0,430.4 -350.3,770.6 -770.6,770.6 z m 7216,110.1 H 27083 c -420.4,0 -760.6,-340.2 -760.6,-760.6 0,-430.4 340.2,-770.6 760.6,-770.6 h 3823.2 c 420.3,0 770.6,340.2 770.6,770.6 0,420.4 -350.3,760.6 -770.6,760.6"
         style="fill:#b2e6f2;fill-opacity:1;fill-rule:nonzero;stroke:none"
         id="path14" />
      <path
         d="M 32967.9,3888.8 H 13972.1 c -90.1,0 -160.1,70 -160.1,150.1 v 3432.9 c 0,80 70,150.1 160.1,150.1 h 900.8 17204.2 890.8 c 90,0 160.1,-70.1 160.1,-150.1 V 4038.9 c 0,-80.1 -70.1,-150.1 -160.1,-150.1 z M 24981.3,6521 h -5364.5 c -420.4,0 -770.6,-340.3 -770.6,-760.7 0,-430.3 350.2,-770.6 770.6,-770.6 h 5364.5 c 420.3,0 770.6,340.3 770.6,770.6 0,420.4 -350.3,760.7 -770.6,760.7"
         style="fill:#b2e6f2;fill-opacity:1;fill-rule:nonzero;stroke:none"
         id="path16" />
      <path
         d="m 31306.5,17219.8 h -15663 v 1231.1 h 15663 v -1231.1"
         style="fill:#5bb5c2;fill-opacity:1;fill-rule:nonzero;stroke:none"
         id="path18" />
      <path
         d="m 31306.5,9163.2 h -15663 v 1241 h 15663 v -1241"
         style="fill:#5bb5c2;fill-opacity:1;fill-rule:nonzero;stroke:none"
         id="path20" />
      <path
         d="m 13782,34043.8 c 0,1661.4 1301,3012.5 2932.4,3112.6 350.3,-870.7 990.8,-1601.4 1851.5,-2051.7 110.1,-60.1 230.2,-80.1 350.3,-80.1 280.2,0 550.5,150.1 680.6,410.4 200.1,380.3 50,840.6 -320.3,1040.8 -800.6,410.3 -1301.1,1231 -1301.1,2141.8 0,1331.1 1080.9,2412 2412,2412 200.2,0 400.4,-40 600.5,-90.1 50.1,-10 90.1,-30 140.2,-40 170.1,-60.1 330.2,-130.1 490.4,-220.2 700.5,-420.4 1180.9,-1191 1180.9,-2061.7 0,-330.3 -70,-650.5 -190.1,-940.8 -170.2,-390.3 20,-840.7 410.3,-1010.8 390.3,-160.2 840.7,20 1000.9,410.3 210.1,490.4 310.2,1000.8 310.2,1541.3 0,1110.9 -470.4,2121.7 -1211,2842.3 800.7,1000.8 2021.7,1601.3 3322.8,1601.3 2361.9,0 4273.5,-1921.5 4273.5,-4273.5 0,-410.3 -70.1,-800.6 -180.1,-1191 -950.8,-10 -1871.6,-350.3 -2602.2,-960.8 -320.3,-280.2 -360.3,-760.6 -90.1,-1090.9 150.2,-180.1 370.3,-270.2 590.5,-270.2 170.1,0 350.3,60.1 490.4,180.2 730.6,620.5 1791.5,750.6 2662.2,400.3 80.1,-40 160.2,-70.1 240.2,-110.1 20,-10 40.1,-20 60.1,-40 760.6,-450.4 1281,-1281.1 1281,-2211.9 0,-1421.1 -1160.9,-2582.1 -2582.1,-2582.1 H 16904.6 c -1721.5,0 -3122.6,1411.2 -3122.6,3132.6"
         style="fill:#d2f0fc;fill-opacity:1;fill-rule:nonzero;stroke:none"
         id="path22" />
      <path
         d="M 38072.1,10554.3 V 8502.6 c 0,-420.3 -350.3,-770.6 -770.6,-770.6 -430.4,0 -770.7,350.3 -770.7,770.6 v 2051.7 c 0,420.4 340.3,770.7 770.7,770.7 420.3,0 770.6,-350.3 770.6,-770.7"
         style="fill:#100f0d;fill-opacity:1;fill-rule:nonzero;stroke:none"
         id="path24" />
      <path
         d="M 38072.1,26657.7 V 24606 c 0,-420.4 -350.3,-770.7 -770.6,-770.7 -430.4,0 -770.7,350.3 -770.7,770.7 v 2051.7 c 0,420.3 340.3,770.6 770.7,770.6 420.3,0 770.6,-350.3 770.6,-770.6"
         style="fill:#100f0d;fill-opacity:1;fill-rule:nonzero;stroke:none"
         id="path26" />
      <path
         d="m 34789.4,27478.3 c 0,-420.3 -340.3,-760.6 -760.6,-760.6 h -2051.7 c -430.4,0 -770.7,340.3 -770.7,760.6 0,430.4 340.3,770.7 770.7,770.7 h 2051.7 c 420.3,0 760.6,-340.3 760.6,-770.7"
         style="fill:#100f0d;fill-opacity:1;fill-rule:nonzero;stroke:none"
         id="path28" />
      <path
         d="m 30906.2,14687.7 c 420.3,0 770.6,-340.2 770.6,-760.6 0,-430.4 -350.3,-770.6 -770.6,-770.6 H 27083 c -420.4,0 -760.6,340.2 -760.6,770.6 0,420.4 340.2,760.6 760.6,760.6 h 3823.2"
         style="fill:#100f0d;fill-opacity:1;fill-rule:nonzero;stroke:none"
         id="path30" />
      <path
         d="m 24981.3,22504.2 c 420.3,0 770.6,-350.3 770.6,-770.6 0,-420.4 -350.3,-770.7 -770.6,-770.7 h -5364.5 c -420.4,0 -770.6,350.3 -770.6,770.7 0,420.3 350.2,770.6 770.6,770.6 h 5364.5"
         style="fill:#100f0d;fill-opacity:1;fill-rule:nonzero;stroke:none"
         id="path32" />
      <path
         d="m 24981.3,6521 c 420.3,0 770.6,-340.3 770.6,-760.7 0,-430.3 -350.3,-770.6 -770.6,-770.6 h -5364.5 c -420.4,0 -770.6,340.3 -770.6,770.6 0,420.4 350.2,760.7 770.6,760.7 h 5364.5"
         style="fill:#100f0d;fill-opacity:1;fill-rule:nonzero;stroke:none"
         id="path34" />
      <path
         d="m 23690.2,14577.6 c 420.3,0 770.6,-340.2 770.6,-770.6 0,-420.3 -350.3,-770.6 -770.6,-770.6 h -4073.4 c -420.4,0 -770.6,350.3 -770.6,770.6 0,430.4 350.2,770.6 770.6,770.6 h 4073.4"
         style="fill:#100f0d;fill-opacity:1;fill-rule:nonzero;stroke:none"
         id="path36" />
      <path
         d="m 14972.9,28249 c 420.4,0 760.7,-340.3 760.7,-770.7 0,-420.3 -340.3,-760.6 -760.7,-760.6 h -2051.6 c -430.4,0 -770.7,340.3 -770.7,760.6 0,430.4 340.3,770.7 770.7,770.7 h 2051.6"
         style="fill:#100f0d;fill-opacity:1;fill-rule:nonzero;stroke:none"
         id="path38" />
      <path
         d="m 12240.7,34043.8 c 0,2422 1841.5,4413.6 4193.5,4643.8 0,140.2 30,270.3 50,400.4 10,120.1 20,240.2 40,350.3 30.1,140.1 80.1,270.2 130.1,410.3 30.1,110.1 60.1,220.2 100.1,320.3 60.1,130.1 140.1,250.2 210.2,370.3 50,100.1 100.1,210.2 160.1,300.2 80.1,110.1 180.2,220.2 270.3,320.3 70,90.1 130.1,180.1 210.1,260.2 100.1,100.1 220.2,180.2 330.3,270.2 90.1,70.1 160.1,140.2 250.2,200.2 130.1,90.1 270.2,150.1 400.3,220.2 90.1,50 180.2,100.1 270.3,140.1 160.1,70 320.2,110.1 480.4,150.1 90,30 170.1,60 260.2,80 250.2,50.1 520.4,80.1 790.6,80.1 250.2,0 510.5,-30 750.7,-70.1 120.1,-30 220.1,-70 330.2,-100 110.1,-30 230.2,-50 340.3,-100.1 1100.9,1441.2 2812.3,2311.9 4633.9,2311.9 3202.6,0 5814.8,-2612.1 5814.8,-5814.8 0,-500.4 -60.1,-990.8 -190.2,-1461.2 40.1,-20 70.1,-30 100.1,-50 160.1,-60.1 310.3,-130.1 450.4,-210.2 20,-20 40,-30 60,-40 140.1,-80.1 270.3,-160.2 400.4,-260.3 20,-10 20,-30 40,-40 970.8,-760.6 1581.3,-1941.6 1581.3,-3232.7 0,-2271.8 -1841.5,-4113.4 -4113.4,-4113.4 h -1781.5 v -1731.4 c 0,-430.4 -340.3,-770.6 -770.6,-770.6 -420.4,0 -770.7,340.2 -770.7,770.6 v 1731.4 h -7586.3 v -1731.4 c 0,-430.4 -340.2,-770.6 -770.6,-770.6 -420.3,0 -770.6,340.2 -770.6,770.6 v 1731.4 h -1231 c -2572.2,0 -4663.9,2091.8 -4663.9,4663.9 z m 4473.7,3112.6 C 15083,37056.3 13782,35705.2 13782,34043.8 c 0,-1721.4 1401.1,-3132.6 3122.6,-3132.6 h 13681.3 c 1421.2,0 2582.1,1161 2582.1,2582.1 0,930.8 -520.4,1761.5 -1281,2211.9 -20,20 -40.1,30 -60.1,40 -80,40 -160.1,70.1 -240.2,110.1 -870.7,350.3 -1931.6,220.2 -2662.2,-400.3 -140.1,-120.1 -320.3,-180.2 -490.4,-180.2 -220.2,0 -440.3,90.1 -590.5,270.2 -270.2,330.3 -230.2,810.7 90.1,1090.9 730.6,610.5 1651.4,950.8 2602.2,960.8 110,390.4 180.1,780.7 180.1,1191 0,2352 -1911.6,4273.5 -4273.5,4273.5 -1301.1,0 -2522.1,-600.5 -3322.8,-1601.3 740.6,-720.6 1211,-1731.4 1211,-2842.3 0,-540.5 -100.1,-1050.9 -310.2,-1541.3 -160.2,-390.3 -610.6,-570.5 -1000.9,-410.3 -390.3,170.1 -580.5,620.5 -410.3,1010.8 120.1,290.3 190.1,610.5 190.1,940.8 0,870.7 -480.4,1641.3 -1180.9,2061.7 -160.2,90.1 -320.3,160.1 -490.4,220.2 -50.1,10 -90.1,30 -140.2,40 -200.1,50.1 -400.3,90.1 -600.5,90.1 -1331.1,0 -2412,-1080.9 -2412,-2412 0,-910.8 500.5,-1731.5 1301.1,-2141.8 370.3,-200.2 520.4,-660.5 320.3,-1040.8 -130.1,-260.3 -400.4,-410.4 -680.6,-410.4 -120.1,0 -240.2,20 -350.3,80.1 -860.7,450.3 -1501.2,1181 -1851.5,2051.7"
         style="fill:#100f0d;fill-opacity:1;fill-rule:nonzero;stroke:none"
         id="path40" />
      <path
         d="M 10409.2,10554.3 V 8502.6 c 0,-420.3 -340.3,-770.6 -760.66,-770.6 -430.37,0 -770.65,350.3 -770.65,770.6 v 2051.7 c 0,420.4 340.28,770.7 770.65,770.7 420.36,0 760.66,-350.3 760.66,-770.7"
         style="fill:#100f0d;fill-opacity:1;fill-rule:nonzero;stroke:none"
         id="path42" />
      <path
         d="m 10409.2,14687.7 h 1871.5 v 840.7 c 0,930.8 760.6,1691.4 1691.4,1691.4 h 130.1 v 1231.1 h -130.1 c -930.8,0 -1691.4,760.6 -1691.4,1691.4 v 950.7 h -1281 c -430.4,0 -770.7,340.3 -770.7,770.7 0,420.3 340.3,770.6 770.7,770.6 h 1281 v 940.8 c 0,930.8 760.6,1691.4 1691.4,1691.4 h 18995.8 c 940.8,0 1701.4,-760.6 1701.4,-1691.4 v -940.8 h 1281 c 420.4,0 760.7,-350.3 760.7,-770.6 0,-430.4 -340.3,-770.7 -760.7,-770.7 h -1281 v -950.7 c 0,-930.8 -760.6,-1691.4 -1701.4,-1691.4 h -130.1 v -1231.1 h 130.1 c 940.8,0 1701.4,-760.6 1701.4,-1691.4 v -840.7 h 1861.5 v 4794 c 0,420.4 340.3,770.7 770.7,770.7 420.3,0 770.6,-350.3 770.6,-770.7 v -5554.6 c 0,-430.4 -350.3,-770.6 -770.6,-770.6 h -2632.2 v -1060.9 c 0,-930.8 -760.6,-1691.4 -1701.4,-1691.4 h -130.1 v -1241 h 130.1 c 940.8,0 1701.4,-760.7 1701.4,-1691.4 V 6521 h 1281 c 420.4,0 760.7,-340.3 760.7,-760.7 0,-430.3 -340.3,-770.6 -760.7,-770.6 h -1281 v -950.8 c 0,-930.8 -760.6,-1691.4 -1701.4,-1691.4 H 13972.1 c -930.8,0 -1691.4,760.6 -1691.4,1691.4 v 950.8 h -1281 c -430.4,0 -770.7,340.3 -770.7,770.6 0,420.4 340.3,760.7 770.7,760.7 h 1281 v 950.8 c 0,930.7 760.6,1691.4 1691.4,1691.4 h 130.1 v 1241 h -130.1 c -930.8,0 -1691.4,760.6 -1691.4,1691.4 v 1060.9 H 9648.54 c -430.37,0 -770.65,340.2 -770.65,770.6 v 5554.6 c 0,420.4 340.28,770.7 770.65,770.7 420.36,0 760.66,-350.3 760.66,-770.7 z M 13812,12095.6 c 0,-90.1 70,-160.2 160.1,-160.2 h 900.8 17204.2 890.8 c 90,0 160.1,70.1 160.1,160.2 v 3432.8 c 0,80.1 -70.1,150.2 -160.1,150.2 h -890.8 -17204.2 -900.8 c -90.1,0 -160.1,-70.1 -160.1,-150.2 z m 160.1,11639.6 c -90.1,0 -160.1,-70 -160.1,-160.1 v -3432.8 c 0,-80.1 70,-150.2 160.1,-150.2 h 900.8 17204.2 890.8 c 90,0 160.1,70.1 160.1,150.2 v 3432.8 c 0,90.1 -70.1,160.1 -160.1,160.1 z m 0,-16113.3 c -90.1,0 -160.1,-70.1 -160.1,-150.1 V 4038.9 c 0,-80.1 70,-150.1 160.1,-150.1 h 18995.8 c 90,0 160.1,70 160.1,150.1 v 3432.9 c 0,80 -70.1,150.1 -160.1,150.1 h -890.8 -17204.2 z m 1671.4,1541.3 h 15663 v 1241 h -15663 z m 15663,9287.7 h -15663 v -1231.1 h 15663 v 1231.1"
         style="fill:#100f0d;fill-opacity:1;fill-rule:nonzero;stroke:none"
         id="path44" />
      <path
         d="m 9648.54,27428.3 c 420.36,0 760.66,-350.3 760.66,-770.6 V 24606 c 0,-420.4 -340.3,-770.7 -760.66,-770.7 -430.37,0 -770.65,350.3 -770.65,770.7 v 2051.7 c 0,420.3 340.28,770.6 770.65,770.6"
         style="fill:#100f0d;fill-opacity:1;fill-rule:nonzero;stroke:none"
         id="path46" />
    </g>
  </g>
</svg>
