<?xml version="1.0" encoding="UTF-8" standalone="no"?>
<!-- Created with Inkscape (http://www.inkscape.org/) -->

<svg
   version="1.1"
   id="svg2"
   width="4457.96"
   height="4367.7998"
   viewBox="0 0 4457.96 4367.7998"
   sodipodi:docname="vecteezy_algorithm-vector-icon_30383846.eps"
   xmlns:inkscape="http://www.inkscape.org/namespaces/inkscape"
   xmlns:sodipodi="http://sodipodi.sourceforge.net/DTD/sodipodi-0.dtd"
   xmlns="http://www.w3.org/2000/svg"
   xmlns:svg="http://www.w3.org/2000/svg">
  <defs
     id="defs6" />
  <sodipodi:namedview
     id="namedview4"
     pagecolor="#ffffff"
     bordercolor="#000000"
     borderopacity="0.25"
     inkscape:showpageshadow="2"
     inkscape:pageopacity="0.0"
     inkscape:pagecheckerboard="0"
     inkscape:deskcolor="#d1d1d1" />
  <g
     id="g8"
     inkscape:groupmode="layer"
     inkscape:label="ink_ext_XXXXXX"
     transform="matrix(1.3333333,0,0,-1.3333333,0,4367.8)">
    <g
       id="g10"
       transform="scale(0.1)">
      <path
         d="M 33056.5,5870 V 1323 c 0,-519.598 -425.1,-944.801 -944.8,-944.801 h -3188.4 c -519.7,0 -944.8,425.203 -944.8,944.801 v 4547 c 0,519.7 425.1,944.8 944.8,944.8 h 1593.8 1594.6 c 519.7,0 944.8,-425.1 944.8,-944.8"
         style="fill:#ac8dcd;fill-opacity:1;fill-rule:nonzero;stroke:none"
         id="path12" />
      <path
         d="M 5456.22,5870 V 1323 c 0,-519.598 -425.13,-944.801 -944.8,-944.801 h -3188.4 c -519.68,0 -944.801,425.203 -944.801,944.801 v 4547 c 0,519.7 425.121,944.8 944.801,944.8 h 1692.16 1496.24 c 519.67,0 944.8,-425.1 944.8,-944.8"
         style="fill:#85d8f5;fill-opacity:1;fill-rule:nonzero;stroke:none"
         id="path14" />
      <path
         d="m 33056.5,31435.5 v -4547 c 0,-519.7 -425.1,-944.8 -944.8,-944.8 h -1594.6 -1593.8 c -519.7,0 -944.8,425.1 -944.8,944.8 v 4547 c 0,519.7 425.1,944.8 944.8,944.8 h 3188.4 c 519.7,0 944.8,-425.1 944.8,-944.8"
         style="fill:#f9dd6c;fill-opacity:1;fill-rule:nonzero;stroke:none"
         id="path16" />
      <path
         d="m 19305.2,31435.5 v -4547 c 0,-519.7 -425.2,-944.8 -944.8,-944.8 H 16766.5 15172 c -519.7,0 -944.8,425.1 -944.8,944.8 v 4547 c 0,519.7 425.1,944.8 944.8,944.8 h 3188.4 c 519.6,0 944.8,-425.1 944.8,-944.8"
         style="fill:#f573a7;fill-opacity:1;fill-rule:nonzero;stroke:none"
         id="path18" />
      <path
         d="m 5553.8,31435.5 v -4547 c 0,-519.7 -425.12,-944.8 -944.8,-944.8 H 3015.18 1420.6 c -519.674,0 -944.799,425.1 -944.799,944.8 v 4547 c 0,519.7 425.125,944.8 944.799,944.8 H 4609 c 519.68,0 944.8,-425.1 944.8,-944.8"
         style="fill:#f1f7fc;fill-opacity:1;fill-rule:nonzero;stroke:none"
         id="path20" />
      <path
         d="m 18500.3,13848.2 c 0,954.6 -779.1,1733.8 -1733.8,1733.8 -955.4,0 -1733.7,-779.2 -1733.7,-1733.8 0,-955.4 778.3,-1733.8 1733.7,-1733.8 954.7,0 1733.8,778.4 1733.8,1733.8 z m -1733.8,3666.5 c 2019.7,0 3666.5,-1646.8 3666.5,-3666.5 0,-2019.7 -1646.8,-3667.2 -3666.5,-3667.2 -2020.4,0 -3667.2,1647.5 -3667.2,3667.2 0,2019.7 1646.8,3666.5 3667.2,3666.5"
         style="fill:#f1f7fc;fill-opacity:1;fill-rule:nonzero;stroke:none"
         id="path22" />
      <path
         d="m 16766.5,15582 c 957.6,0 1733.8,-776.3 1733.8,-1733.8 0,-957.5 -776.2,-1733.8 -1733.8,-1733.8 -957.5,0 -1733.7,776.3 -1733.7,1733.8 0,957.5 776.2,1733.8 1733.7,1733.8"
         style="fill:#466abc;fill-opacity:1;fill-rule:nonzero;stroke:none"
         id="path24" />
      <path
         d="m 20433,13848.2 c 0,2019.7 -1646.8,3666.5 -3666.5,3666.5 -2020.4,0 -3667.2,-1646.8 -3667.2,-3666.5 0,-2019.7 1646.8,-3667.2 3667.2,-3667.2 2019.7,0 3666.5,1647.5 3666.5,3667.2 z m 4125.6,283.7 v -567.4 c 0,-378.2 -310.1,-662.6 -687.6,-687.6 l -1534,-102.8 c -147.5,-768.6 -449.3,-1481.1 -873,-2105.2 l 1012.9,-1158.1 c 248.9,-285.2 267,-705 0,-972.8 L 22076,8137.1 c -267.8,-267 -687.6,-248.9 -972.8,0 L 19945.1,9150 c -624,-423.7 -1336.6,-725.5 -2104.4,-873 l -103.6,-1534 c -25,-377.5 -309.4,-687.7 -687.7,-687.7 h -282.9 -283.6 c -378.2,0 -662.7,310.2 -687.6,687.7 l -103.7,1534.8 c -767.8,146.7 -1480.3,449.3 -2104.4,872.2 L 12429.1,8137.1 c -285.2,-248.9 -705,-267 -972.8,0 l -400.9,400.9 c -267,267.8 -248.9,687.6 0,972.8 l 1012.9,1158.1 c -423.6,624.1 -725.4,1336.6 -873,2105.2 l -1534.02,102.8 c -377.46,25 -687.6,309.4 -687.6,687.6 v 567.4 c 0,377.4 310.14,661.9 687.6,686.8 l 1534.02,103.7 c 147.6,767.7 449.4,1480.3 873,2104.4 l -1012.9,1158.1 c -248.9,285.2 -267,705 0,972.8 l 400.9,400.9 c 267.8,267.8 687.6,248.9 972.8,0 l 1158.1,-1012.9 c 624.1,423.6 1336.6,725.4 2104.4,872.9 l 103.7,1534.1 c 24.9,377.5 309.4,687.6 687.6,687.6 h 283.6 282.9 c 378.3,0 662.7,-310.1 687.7,-687.6 l 103.6,-1534.1 c 767.8,-147.5 1480.4,-449.3 2104.4,-872.9 l 1158.1,1012.9 c 285.2,248.9 705,267.8 972.8,0 l 400.9,-400.9 c 267,-267.8 248.9,-687.6 0,-972.8 L 21464,17026.8 c 423.7,-624.1 725.5,-1336.7 873,-2104.4 l 1534,-103.7 c 377.5,-24.9 687.6,-309.4 687.6,-686.8"
         style="fill:#466abc;fill-opacity:1;fill-rule:nonzero;stroke:none"
         id="path26" />
      <path
         d="m 13587.3,9528.2 c 73.7,0 147.7,-21.5 212.1,-65.1 598.3,-405.4 1258.8,-679.2 1963.3,-813.8 168.9,-32.3 294.7,-174.4 306.3,-346 l 103.7,-1534.8 c 10.7,-162.6 123,-334.9 310.2,-334.9 h 566.5 c 187.3,0 299.6,172.2 310.3,334.4 l 103.7,1534.5 c 11.5,171.5 137.2,313.5 306,345.9 706.5,135.8 1367.1,409.8 1963.4,814.5 142.3,96.7 331.9,84.9 461.4,-28.2 l 1158.2,-1012.9 c 122.2,-106.7 324.1,-149.2 456.7,-17 l 400.5,400.6 c 131.8,132.2 89.5,334.1 -17.6,456.7 l -1012.5,1157.8 c -113.3,129.5 -124.8,319.1 -28.2,461.4 404.7,596.3 678.7,1257.1 814.4,1964.1 32.4,168.8 174.6,294.6 346.1,306.1 l 1534.1,102.9 c 162.4,10.7 334.7,123.1 334.7,310.2 v 567.3 c 0,186.7 -172.3,298.8 -334.4,309.5 l -1534.6,103.7 c -171.4,11.5 -313.5,137.2 -345.9,306 -135.8,706.6 -409.7,1367.1 -814.4,1963.3 -96.6,142.4 -85.1,332 28.2,461.5 l 1012.9,1158.1 c 106.7,122.3 149,324.1 16.9,456.7 l -400.5,400.6 c -132.4,132.3 -334,89.5 -456.6,-17.5 l -1157.9,-1012.6 c -129.5,-113.2 -319,-124.8 -461.5,-28.2 -596.1,404.6 -1256.7,678.7 -1963.4,814.5 -168.7,32.4 -294.5,174.5 -306,345.9 l -103.5,1534 c -10.8,162.6 -123.2,334.9 -310.4,334.9 h -566.6 c -187.1,0 -299.4,-172.2 -310.2,-334.3 L 16069,19393.4 c -11.6,-171.5 -137.3,-313.6 -306,-345.9 -706.6,-135.8 -1367.2,-409.8 -1963.3,-814.5 -142.4,-96.6 -332,-85 -461.4,28.2 l -1158.1,1012.9 c -122.5,106.8 -324.3,149.5 -456.4,17.2 l -401,-400.9 c -131.8,-132.2 -89.4,-334 17.6,-456.6 L 12353,17275.9 c 113.2,-129.4 124.8,-319 28.2,-461.4 -404.6,-596.1 -678.7,-1256.7 -814.4,-1963.3 -32.5,-168.7 -174.6,-294.5 -346,-306 l -1534.03,-103.6 c -162.64,-10.9 -334.88,-122.9 -334.88,-309.6 v -567.3 c 0,-187.2 172.24,-299.5 334.35,-310.2 l 1534.36,-102.9 c 171.6,-11.5 313.7,-137.2 346.2,-306.1 135.7,-707.1 409.7,-1367.9 814.4,-1964.1 96.6,-142.3 85,-332 -28.2,-461.5 L 11340.1,9261.8 c -106.7,-122.2 -149.1,-324.1 -16.8,-456.7 l 400.5,-400.5 c 132.3,-132 334.1,-89.6 456.7,17.5 l 1157.8,1012.6 c 70.8,61.9 159.7,93.5 249,93.5 z m 3462.1,-3851.1 h -566.5 c -567.9,0 -1025.8,447.5 -1065,1041 l -84.4,1250.4 c -604.4,146.2 -1178,383.9 -1711.5,709.4 l -944,-825.5 c -447.5,-390.5 -1087.5,-383.3 -1488.8,17 l -401.3,401.2 c -400.5,401.7 -407.9,1041.7 -17.5,1489 l 825.7,944 c -325.2,532.5 -563.1,1106.2 -710,1712.2 l -1250.16,83.8 c -593.05,39.3 -1040.56,497.1 -1040.56,1065 v 567.3 c 0,567.5 447.51,1025.1 1040.86,1064.3 l 1249.86,84.4 c 146.8,605.7 384.8,1179.2 709.9,1711.5 l -825.4,943.8 c -390.6,447.6 -383.2,1087.6 16.9,1488.9 l 401.3,401.3 c 401,400.8 1041,408.3 1488.9,17.4 l 944.1,-825.6 c 532.3,325.1 1105.9,563 1711.5,709.9 l 84.5,1250.4 c 39.3,592.8 497.1,1040.3 1065,1040.3 h 566.6 c 567.9,0 1025.9,-447.5 1065,-1040.8 l 84.4,-1249.9 c 605.7,-146.9 1179.3,-384.8 1711.6,-709.9 l 943.8,825.4 c 448.1,391.2 1088.3,383.6 1489.2,-17.2 l 400.9,-401 c 400.6,-401.6 408,-1041.6 17.6,-1488.9 l -825.8,-944.1 c 325.2,-532.3 563.1,-1105.9 710,-1711.5 l 1250.4,-84.5 c 592.9,-39.3 1040.4,-496.7 1040.4,-1064.2 v -567.3 c 0,-567.9 -447.5,-1025.7 -1040.9,-1065 l -1249.9,-83.8 c -146.7,-605.9 -384.7,-1179.7 -710,-1712.2 l 825.5,-943.7 c 390.6,-447.8 383.2,-1087.7 -17,-1488.9 l -401.3,-401.3 c -401.7,-400.8 -1041.6,-408 -1488.9,-17.5 l -944,825.6 c -532.3,-325.2 -1106,-563.1 -1711.6,-709.9 l -84.4,-1250.4 c -39.2,-592.9 -497.1,-1040.4 -1065,-1040.4"
         style="fill:#100f0d;fill-opacity:1;fill-rule:nonzero;stroke:none"
         id="path28" />
      <path
         d="m 16766.5,17136.5 c -1813.5,0 -3289,-1475.1 -3289,-3288.3 0,-1813.6 1475.5,-3289 3289,-3289 1813.2,0 3288.3,1475.4 3288.3,3289 0,1813.2 -1475.1,3288.3 -3288.3,3288.3 z m 0,-7333.7 c -2230.6,0 -4045.4,1814.7 -4045.4,4045.4 0,2230.2 1814.8,4044.7 4045.4,4044.7 2230.3,0 4044.7,-1814.4 4044.7,-4044.7 0,-2230.7 -1814.4,-4045.4 -4044.7,-4045.4"
         style="fill:#100f0d;fill-opacity:1;fill-rule:nonzero;stroke:none"
         id="path30" />
      <path
         d="m 16766.5,15203.8 c -747.4,0 -1355.5,-608.2 -1355.5,-1355.6 0,-747.4 608.1,-1355.5 1355.5,-1355.5 747.5,0 1355.6,608.1 1355.6,1355.5 0,747.4 -608.1,1355.6 -1355.6,1355.6 z m 0,-3467.6 c -1164.5,0 -2111.9,947.4 -2111.9,2112 0,1164.6 947.4,2112 2111.9,2112 1164.6,0 2112,-947.4 2112,-2112 0,-1164.6 -947.4,-2112 -2112,-2112"
         style="fill:#100f0d;fill-opacity:1;fill-rule:nonzero;stroke:none"
         id="path32" />
      <path
         d="m 16766.5,1746.6 c -208.8,0 -378.2,169.3 -378.2,378.3 v 3930.4 c 0,209 169.4,378.3 378.2,378.3 208.9,0 378.3,-169.3 378.3,-378.3 V 2124.9 c 0,-209 -169.4,-378.3 -378.3,-378.3"
         style="fill:#100f0d;fill-opacity:1;fill-rule:nonzero;stroke:none"
         id="path34" />
      <path
         d="M 23109.3,1746.6 H 10423 c -899.24,0 -1630.87,731.7 -1630.87,1631 v 5355.6 c 0,482.2 -392.29,874.5 -874.45,874.5 H 4267.09 c -481.78,0 -873.69,-392.3 -873.69,-874.5 V 6814.9 c 0,-208.9 -169.37,-378.2 -378.22,-378.2 -208.86,0 -378.22,169.3 -378.22,378.2 v 1918.3 c 0,899.4 731.25,1631 1630.13,1631 h 3650.59 c 899.25,0 1630.89,-731.6 1630.89,-1631 V 3377.6 c 0,-482.1 392.29,-874.5 874.43,-874.5 h 12686.3 c 482.2,0 874.5,392.4 874.5,874.5 v 5355.6 c 0,899.4 731.6,1631 1630.9,1631 h 3650.6 c 898.9,0 1630.1,-731.6 1630.1,-1631 V 6814.9 c 0,-208.9 -169.3,-378.2 -378.2,-378.2 -208.9,0 -378.2,169.3 -378.2,378.2 v 1918.3 c 0,482.2 -392,874.5 -873.7,874.5 h -3650.6 c -482.1,0 -874.5,-392.3 -874.5,-874.5 V 3377.6 c 0,-899.4 -731.6,-1631 -1630.9,-1631"
         style="fill:#100f0d;fill-opacity:1;fill-rule:nonzero;stroke:none"
         id="path36" />
      <path
         d="m 1323.02,6436.6 c -312.41,0 -566.579,-254.1 -566.579,-566.5 v -4547 c 0,-312.4 254.169,-566.6 566.579,-566.6 h 3188.4 c 312.41,0 566.57,254.2 566.57,566.6 v 4547 c 0,312.4 -254.16,566.5 -566.57,566.5 z M 4511.42,0 H 1323.02 C 593.504,0 0,593.5 0,1323 v 4547 c 0,729.5 593.504,1323 1323.02,1323 h 3188.4 c 729.51,0 1323.02,-593.6 1323.02,-1323 V 1323 C 5834.44,593.402 5240.93,0 4511.42,0"
         style="fill:#100f0d;fill-opacity:1;fill-rule:nonzero;stroke:none"
         id="path38" />
      <path
         d="m 28923.3,6436.6 c -312.4,0 -566.6,-254.1 -566.6,-566.5 v -4547 c 0,-312.4 254.2,-566.6 566.6,-566.6 h 3188.3 c 312.5,0 566.6,254.2 566.6,566.6 v 4547 c 0,312.4 -254.1,566.5 -566.6,566.5 z M 32111.7,0 h -3188.4 c -729.6,0 -1323,593.5 -1323,1323 v 4547 c 0,729.5 593.5,1323 1323,1323 h 3188.3 c 729.6,0 1323.1,-593.6 1323.1,-1323 V 1323 c 0,-729.598 -593.5,-1323 -1323,-1323"
         style="fill:#100f0d;fill-opacity:1;fill-rule:nonzero;stroke:none"
         id="path40" />
      <path
         d="M 28347.7,23395.3 H 5184.65 c -1404.79,0 -2547.69,1143.2 -2547.69,2548.4 0,208.9 169.36,378.2 378.22,378.2 208.85,0 378.22,-169.3 378.22,-378.2 0,-988.1 803.57,-1792 1791.25,-1792 H 28347.7 c 987.7,0 1791.2,803.9 1791.2,1792 0,208.9 169.3,378.2 378.2,378.2 209,0 378.3,-169.3 378.3,-378.2 0,-1405.2 -1142.9,-2548.4 -2547.7,-2548.4"
         style="fill:#100f0d;fill-opacity:1;fill-rule:nonzero;stroke:none"
         id="path42" />
      <path
         d="m 16766.5,21262.1 c -208.8,0 -378.2,169.4 -378.2,378.2 v 4303.4 c 0,208.9 169.4,378.2 378.2,378.2 208.9,0 378.3,-169.3 378.3,-378.2 v -4303.4 c 0,-208.8 -169.4,-378.2 -378.3,-378.2"
         style="fill:#100f0d;fill-opacity:1;fill-rule:nonzero;stroke:none"
         id="path44" />
      <path
         d="m 1420.6,32002.1 c -312.41,0 -566.577,-254.2 -566.577,-566.6 v -4547 c 0,-312.4 254.167,-566.6 566.577,-566.6 H 4609 c 312.41,0 566.58,254.2 566.58,566.6 v 4547 c 0,312.4 -254.17,566.6 -566.58,566.6 z M 4609,25565.5 H 1420.6 c -729.514,0 -1323.0219,593.5 -1323.0219,1323 v 4547 c 0,729.5 593.5079,1323 1323.0219,1323 H 4609 c 729.51,0 1323.02,-593.5 1323.02,-1323 v -4547 c 0,-729.5 -593.51,-1323 -1323.02,-1323"
         style="fill:#100f0d;fill-opacity:1;fill-rule:nonzero;stroke:none"
         id="path46" />
      <path
         d="m 28923.3,32002.1 c -312.4,0 -566.6,-254.2 -566.6,-566.6 v -4547 c 0,-312.4 254.2,-566.6 566.6,-566.6 h 3188.3 c 312.5,0 566.6,254.2 566.6,566.6 v 4547 c 0,312.4 -254.1,566.6 -566.6,566.6 z m 3188.4,-6436.6 h -3188.4 c -729.6,0 -1323,593.5 -1323,1323 v 4547 c 0,729.5 593.5,1323 1323,1323 h 3188.3 c 729.6,0 1323.1,-593.5 1323.1,-1323 v -4547 c 0,-729.5 -593.5,-1323 -1323,-1323"
         style="fill:#100f0d;fill-opacity:1;fill-rule:nonzero;stroke:none"
         id="path48" />
      <path
         d="M 3825.33,5005.4 H 2009.86 c -208.85,0 -378.21,169.3 -378.21,378.2 0,209 169.36,378.2 378.21,378.2 h 1815.47 c 208.85,0 378.22,-169.2 378.22,-378.2 0,-208.9 -169.37,-378.2 -378.22,-378.2"
         style="fill:#100f0d;fill-opacity:1;fill-rule:nonzero;stroke:none"
         id="path50" />
      <path
         d="M 3541.66,3814 H 2293.53 c -208.85,0 -378.22,169.3 -378.22,378.2 0,209 169.37,378.2 378.22,378.2 h 1248.13 c 208.85,0 378.22,-169.2 378.22,-378.2 0,-208.9 -169.37,-378.2 -378.22,-378.2"
         style="fill:#100f0d;fill-opacity:1;fill-rule:nonzero;stroke:none"
         id="path52" />
      <path
         d="M 3541.66,2622.6 H 2293.53 c -208.85,0 -378.22,169.3 -378.22,378.2 0,209 169.37,378.2 378.22,378.2 h 1248.13 c 208.85,0 378.22,-169.2 378.22,-378.2 0,-208.9 -169.37,-378.2 -378.22,-378.2"
         style="fill:#100f0d;fill-opacity:1;fill-rule:nonzero;stroke:none"
         id="path54" />
      <path
         d="M 3825.33,1431.2 H 2009.86 c -208.85,0 -378.21,169.3 -378.21,378.2 0,209 169.36,378.2 378.21,378.2 h 1815.47 c 208.85,0 378.22,-169.2 378.22,-378.2 0,-208.9 -169.37,-378.2 -378.22,-378.2"
         style="fill:#100f0d;fill-opacity:1;fill-rule:nonzero;stroke:none"
         id="path56" />
      <path
         d="m 31424.9,5005.4 h -1815.5 c -208.9,0 -378.2,169.3 -378.2,378.2 0,209 169.3,378.2 378.2,378.2 h 1815.5 c 208.9,0 378.2,-169.2 378.2,-378.2 0,-208.9 -169.4,-378.2 -378.2,-378.2"
         style="fill:#100f0d;fill-opacity:1;fill-rule:nonzero;stroke:none"
         id="path58" />
      <path
         d="m 31141.2,3814 h -1248.1 c -209,0 -378.2,169.3 -378.2,378.2 0,209 169.2,378.2 378.2,378.2 h 1248.1 c 208.9,0 378.2,-169.2 378.2,-378.2 0,-208.9 -169.3,-378.2 -378.2,-378.2"
         style="fill:#100f0d;fill-opacity:1;fill-rule:nonzero;stroke:none"
         id="path60" />
      <path
         d="m 31141.2,2622.6 h -1248.1 c -209,0 -378.2,169.3 -378.2,378.2 0,209 169.2,378.2 378.2,378.2 h 1248.1 c 208.9,0 378.2,-169.2 378.2,-378.2 0,-208.9 -169.3,-378.2 -378.2,-378.2"
         style="fill:#100f0d;fill-opacity:1;fill-rule:nonzero;stroke:none"
         id="path62" />
      <path
         d="m 31424.9,1431.2 h -1815.5 c -208.9,0 -378.2,169.3 -378.2,378.2 0,209 169.3,378.2 378.2,378.2 h 1815.5 c 208.9,0 378.2,-169.2 378.2,-378.2 0,-208.9 -169.4,-378.2 -378.2,-378.2"
         style="fill:#100f0d;fill-opacity:1;fill-rule:nonzero;stroke:none"
         id="path64" />
      <path
         d="m 31424.9,30570.9 h -1815.5 c -208.9,0 -378.2,169.3 -378.2,378.2 0,208.8 169.3,378.2 378.2,378.2 h 1815.5 c 208.9,0 378.2,-169.4 378.2,-378.2 0,-208.9 -169.4,-378.2 -378.2,-378.2"
         style="fill:#100f0d;fill-opacity:1;fill-rule:nonzero;stroke:none"
         id="path66" />
      <path
         d="m 31141.2,29379.5 h -1248.1 c -209,0 -378.2,169.3 -378.2,378.2 0,208.9 169.2,378.2 378.2,378.2 h 1248.1 c 208.9,0 378.2,-169.3 378.2,-378.2 0,-208.9 -169.3,-378.2 -378.2,-378.2"
         style="fill:#100f0d;fill-opacity:1;fill-rule:nonzero;stroke:none"
         id="path68" />
      <path
         d="m 31141.2,28188.1 h -1248.1 c -209,0 -378.2,169.3 -378.2,378.2 0,208.9 169.2,378.2 378.2,378.2 h 1248.1 c 208.9,0 378.2,-169.3 378.2,-378.2 0,-208.9 -169.3,-378.2 -378.2,-378.2"
         style="fill:#100f0d;fill-opacity:1;fill-rule:nonzero;stroke:none"
         id="path70" />
      <path
         d="m 31424.9,26996.7 h -1815.5 c -208.9,0 -378.2,169.4 -378.2,378.2 0,208.9 169.3,378.2 378.2,378.2 h 1815.5 c 208.9,0 378.2,-169.3 378.2,-378.2 0,-208.8 -169.4,-378.2 -378.2,-378.2"
         style="fill:#100f0d;fill-opacity:1;fill-rule:nonzero;stroke:none"
         id="path72" />
      <path
         d="m 15172,32002.1 c -312.5,0 -566.6,-254.2 -566.6,-566.6 v -4547 c 0,-312.4 254.1,-566.6 566.6,-566.6 h 3188.4 c 312.4,0 566.5,254.2 566.5,566.6 v 4547 c 0,312.4 -254.1,566.6 -566.5,566.6 z m 3188.4,-6436.6 H 15172 c -729.6,0 -1323.1,593.5 -1323.1,1323 v 4547 c 0,729.5 593.5,1323 1323.1,1323 h 3188.4 c 729.5,0 1323,-593.5 1323,-1323 v -4547 c 0,-729.5 -593.5,-1323 -1323,-1323"
         style="fill:#100f0d;fill-opacity:1;fill-rule:nonzero;stroke:none"
         id="path74" />
      <path
         d="m 17673.5,30570.9 h -1814.7 c -208.8,0 -378.2,169.3 -378.2,378.2 0,208.8 169.4,378.2 378.2,378.2 h 1814.7 c 208.9,0 378.2,-169.4 378.2,-378.2 0,-208.9 -169.3,-378.2 -378.2,-378.2"
         style="fill:#100f0d;fill-opacity:1;fill-rule:nonzero;stroke:none"
         id="path76" />
      <path
         d="m 17389.8,29379.5 h -1247.3 c -208.9,0 -378.2,169.3 -378.2,378.2 0,208.9 169.3,378.2 378.2,378.2 h 1247.3 c 209,0 378.3,-169.3 378.3,-378.2 0,-208.9 -169.4,-378.2 -378.3,-378.2"
         style="fill:#100f0d;fill-opacity:1;fill-rule:nonzero;stroke:none"
         id="path78" />
      <path
         d="m 17389.8,28188.1 h -1247.3 c -208.9,0 -378.2,169.3 -378.2,378.2 0,208.9 169.3,378.2 378.2,378.2 h 1247.3 c 209,0 378.3,-169.3 378.3,-378.2 0,-208.9 -169.4,-378.2 -378.3,-378.2"
         style="fill:#100f0d;fill-opacity:1;fill-rule:nonzero;stroke:none"
         id="path80" />
      <path
         d="m 17673.5,26996.7 h -1814.7 c -208.8,0 -378.2,169.4 -378.2,378.2 0,208.9 169.4,378.2 378.2,378.2 h 1814.7 c 208.9,0 378.2,-169.3 378.2,-378.2 0,-208.8 -169.3,-378.2 -378.2,-378.2"
         style="fill:#100f0d;fill-opacity:1;fill-rule:nonzero;stroke:none"
         id="path82" />
      <path
         d="M 3922.91,30570.9 H 2107.45 c -208.85,0 -378.22,169.3 -378.22,378.2 0,208.8 169.37,378.2 378.22,378.2 h 1815.46 c 208.85,0 378.22,-169.4 378.22,-378.2 0,-208.9 -169.37,-378.2 -378.22,-378.2"
         style="fill:#100f0d;fill-opacity:1;fill-rule:nonzero;stroke:none"
         id="path84" />
      <path
         d="M 3639.24,29379.5 H 2391.11 c -208.85,0 -378.22,169.3 -378.22,378.2 0,208.9 169.37,378.2 378.22,378.2 h 1248.13 c 208.86,0 378.22,-169.3 378.22,-378.2 0,-208.9 -169.36,-378.2 -378.22,-378.2"
         style="fill:#100f0d;fill-opacity:1;fill-rule:nonzero;stroke:none"
         id="path86" />
      <path
         d="M 3639.24,28188.1 H 2391.11 c -208.85,0 -378.22,169.3 -378.22,378.2 0,208.9 169.37,378.2 378.22,378.2 h 1248.13 c 208.86,0 378.22,-169.3 378.22,-378.2 0,-208.9 -169.36,-378.2 -378.22,-378.2"
         style="fill:#100f0d;fill-opacity:1;fill-rule:nonzero;stroke:none"
         id="path88" />
      <path
         d="M 3922.91,26996.7 H 2107.45 c -208.85,0 -378.22,169.4 -378.22,378.2 0,208.9 169.37,378.2 378.22,378.2 h 1815.46 c 208.85,0 378.22,-169.3 378.22,-378.2 0,-208.8 -169.37,-378.2 -378.22,-378.2"
         style="fill:#100f0d;fill-opacity:1;fill-rule:nonzero;stroke:none"
         id="path90" />
    </g>
  </g>
</svg>
