<?xml version="1.0" encoding="UTF-8" standalone="no"?>
<!-- Created with Inkscape (http://www.inkscape.org/) -->

<svg
   version="1.1"
   id="svg2"
   width="3899.2268"
   height="4614.8267"
   viewBox="0 0 3899.2268 4614.8267"
   sodipodi:docname="vecteezy_server-vector-icon_30380438.eps"
   xmlns:inkscape="http://www.inkscape.org/namespaces/inkscape"
   xmlns:sodipodi="http://sodipodi.sourceforge.net/DTD/sodipodi-0.dtd"
   xmlns="http://www.w3.org/2000/svg"
   xmlns:svg="http://www.w3.org/2000/svg">
  <defs
     id="defs6" />
  <sodipodi:namedview
     id="namedview4"
     pagecolor="#ffffff"
     bordercolor="#000000"
     borderopacity="0.25"
     inkscape:showpageshadow="2"
     inkscape:pageopacity="0.0"
     inkscape:pagecheckerboard="0"
     inkscape:deskcolor="#d1d1d1" />
  <g
     id="g8"
     inkscape:groupmode="layer"
     inkscape:label="ink_ext_XXXXXX"
     transform="matrix(1.3333333,0,0,-1.3333333,0,4614.8267)">
    <g
       id="g10"
       transform="scale(0.1)">
      <path
         d="m 16984.4,30221.8 v 1426.4 c 0,229.1 187.4,415.7 415.7,415.7 H 25483 c 229,0 415.6,-187.4 415.6,-415.7 v -1426.4 c 0,-229 -187.3,-415.6 -415.6,-415.6 h -8082.1 c -229.1,-0.8 -416.5,186.6 -416.5,415.6 z m -4546,713.2 c 0,623.5 505.4,1128.9 1128.8,1128.9 623.5,0 1128.9,-505.4 1128.9,-1128.9 0,-623.4 -505.4,-1128.8 -1128.9,-1128.8 -623.4,-0.8 -1128.8,505.4 -1128.8,1128.8 z M 9020.43,29805.4 c -623.45,0 -1128.83,505.4 -1128.83,1128.8 0,623.5 505.38,1128.9 1128.83,1128.9 623.46,0 1128.87,-505.4 1128.87,-1128.9 0.8,-622.6 -504.63,-1128.8 -1128.87,-1128.8 z m -4546.03,0 c -623.46,0 -1128.84,505.4 -1128.84,1128.8 0,623.5 505.38,1128.9 1128.84,1128.9 623.45,0 1128.83,-505.4 1128.83,-1128.9 0,-622.6 -505.38,-1128.8 -1128.83,-1128.8 z m 965.88,-2168.7 H 27236.8 c 547.1,0 995,447.9 995,995 v 4606.6 c 0,547.1 -447.9,995 -995,995 H 2007.34 c -547.1,0 -995.01,-447.9 -995.01,-995 v -4607.4 c 0,-547.1 447.91,-995 995.01,-995 h 3432.94 v 0.8"
         style="fill:#898fb1;fill-opacity:1;fill-rule:nonzero;stroke:none"
         id="path12" />
      <path
         d="m 8760.61,32034.4 c 606.74,143.3 1214.73,-232.4 1357.99,-839.1 143.3,-606.8 -232.44,-1214.7 -839.17,-1358 -606.73,-143.3 -1214.72,232.4 -1357.99,839.2 -143.26,606.7 232.45,1214.7 839.17,1357.9"
         style="fill:#f7ec9e;fill-opacity:1;fill-rule:evenodd;stroke:none"
         id="path14" />
      <path
         d="m 4474.4,29805.4 c 623.45,0 1128.83,505.4 1128.83,1128.8 0,623.5 -505.38,1128.9 -1128.83,1128.9 -623.46,0 -1129.62,-504.6 -1129.62,-1128.1 0,-623.4 506.16,-1129.6 1129.62,-1129.6"
         style="fill:#e2f1fb;fill-opacity:1;fill-rule:evenodd;stroke:none"
         id="path16" />
      <path
         d="m 13307.2,32034.8 c 606.7,143.2 1214.7,-232.5 1358,-839.2 143.3,-606.7 -232.5,-1214.7 -839.2,-1358 -606.7,-143.3 -1214.7,232.4 -1358,839.2 -143.2,606.7 232.5,1214.7 839.2,1358"
         style="fill:#94d565;fill-opacity:1;fill-rule:evenodd;stroke:none"
         id="path18" />
      <path
         d="m 16984.4,31648.2 v -1426.4 c 0,-229 187.4,-415.6 415.7,-415.6 H 25483 c 229,0 415.6,187.3 415.6,415.6 v 1426.4 c 0,229.1 -187.3,415.7 -415.6,415.7 h -8082.1 c -229.1,0 -416.5,-186.6 -416.5,-415.7"
         style="fill:#bcd9f3;fill-opacity:1;fill-rule:evenodd;stroke:none"
         id="path20" />
      <path
         d="m 25483,22912 h -8082.1 c -229.1,0 -415.7,-187.4 -415.7,-415.7 v -1426.4 c 0,-229 187.4,-415.6 415.7,-415.6 h 8082.9 c 229,0 415.6,187.3 415.6,415.6 v 1426.4 c 0,228.3 -187.4,415.7 -416.4,415.7"
         style="fill:#bcd9f3;fill-opacity:1;fill-rule:evenodd;stroke:none"
         id="path22" />
      <path
         d="m 12769,22580.6 c 440.8,440.8 1155.5,440.8 1596.4,0 440.8,-440.8 440.8,-1155.6 0,-1596.4 -440.9,-440.8 -1155.6,-440.8 -1596.4,0 -440.9,440.8 -440.9,1155.6 0,1596.4"
         style="fill:#94d565;fill-opacity:1;fill-rule:evenodd;stroke:none"
         id="path24" />
      <path
         d="m 8222.29,22580.4 c 440.83,440.8 1155.56,440.8 1596.39,0 440.82,-440.9 440.82,-1155.6 0,-1596.4 -440.83,-440.9 -1155.56,-440.9 -1596.39,0 -440.84,440.8 -440.84,1155.5 0,1596.4"
         style="fill:#f7ec9e;fill-opacity:1;fill-rule:evenodd;stroke:none"
         id="path26" />
      <path
         d="m 3348.85,21862.7 c 44.2,621.8 584.16,1090.1 1206.04,1045.9 621.88,-44.2 1090.18,-584.1 1045.98,-1206 -44.2,-621.9 -584.17,-1090.2 -1206.05,-1046 -621.88,44.2 -1090.17,584.2 -1045.97,1206.1"
         style="fill:#e2f1fb;fill-opacity:1;fill-rule:evenodd;stroke:none"
         id="path28" />
      <path
         d="m 17400.9,22912 h 8082.9 c 229,0 415.6,-187.4 415.6,-415.7 v -1426.4 c 0,-229 -187.4,-415.6 -415.6,-415.6 h -8082.9 c -229.1,0 -415.7,187.3 -415.7,415.6 v 1426.4 c -0.8,228.3 186.6,415.7 415.7,415.7 z m -4962.5,-1129.7 c 0,623.5 505.4,1128.9 1128.8,1128.9 623.5,0 1128.9,-505.4 1128.9,-1128.9 0,-623.4 -505.4,-1128.8 -1128.9,-1128.8 -623.4,0 -1128.8,505.4 -1128.8,1128.8 z m -4546.8,0 c 0,623.5 505.38,1128.9 1128.83,1128.9 623.46,0 1128.87,-505.4 1128.87,-1128.9 0,-623.4 -505.41,-1128.8 -1128.87,-1128.8 -623.45,0 -1128.83,505.4 -1128.83,1128.8 z m 15912.3,3298.4 H 2007.34 c -547.1,0 -995.01,-447.9 -995.01,-995 v -4607.5 c 0,-547.1 447.91,-995 995.01,-995 h 3432.94 18363.62 3432.9 c 547.1,0 995,447.9 995,995 v 4608.2 c 0,547.2 -447.9,995.1 -995,995.1 H 23803.9 Z M 4474.4,22912 c 623.45,0 1128.83,-505.4 1128.83,-1128.9 0,-623.4 -505.38,-1128.8 -1128.83,-1128.8 -623.46,0 -1129.62,504.6 -1129.62,1128 0,623.5 506.16,1129.7 1129.62,1129.7 v 0"
         style="fill:#898fb1;fill-opacity:1;fill-rule:nonzero;stroke:none"
         id="path30" />
      <path
         d="M 5440.28,27636.7 H 23804.7 V 25081.5 H 5440.28 v 2555.2"
         style="fill:#afb2c2;fill-opacity:1;fill-rule:evenodd;stroke:none"
         id="path32" />
      <path
         d="M 5440.28,18484 H 23804.7 V 15928.8 H 5440.28 V 18484"
         style="fill:#afb2c2;fill-opacity:1;fill-rule:evenodd;stroke:none"
         id="path34" />
      <path
         d="m 5603.23,12630.4 c 0,623.5 -505.38,1128.9 -1128.83,1128.9 -623.46,0 -1129.62,-505.4 -1129.62,-1128.9 0,-623.4 505.37,-1128.8 1128.83,-1128.8 623.45,0 1129.62,504.6 1129.62,1128.8"
         style="fill:#e2f1fb;fill-opacity:1;fill-rule:evenodd;stroke:none"
         id="path36" />
      <path
         d="m 9020.43,13759.3 c -623.45,0 -1128.83,-505.4 -1128.83,-1128.9 0,-623.4 505.38,-1128.8 1128.83,-1128.8 623.46,0 1128.87,505.4 1128.87,1128.8 0.8,623.5 -504.63,1128.9 -1128.87,1128.9"
         style="fill:#f7ec9e;fill-opacity:1;fill-rule:evenodd;stroke:none"
         id="path38" />
      <path
         d="m 13567.2,13759.3 c -623.4,0 -1128.8,-505.4 -1128.8,-1128.9 0,-623.4 505.4,-1128.8 1128.8,-1128.8 623.5,0 1128.9,505.4 1128.9,1128.8 0,623.5 -505.4,1128.9 -1128.9,1128.9"
         style="fill:#94d565;fill-opacity:1;fill-rule:evenodd;stroke:none"
         id="path40" />
      <path
         d="m 16984.4,13343.6 v -1426.4 c 0,-229 187.4,-415.6 415.7,-415.6 H 25483 c 229,0 415.6,187.4 415.6,415.6 v 1426.4 c 0,229.1 -187.3,415.7 -415.6,415.7 h -8082.1 c -229.1,0 -416.5,-187.4 -416.5,-415.7"
         style="fill:#bcd9f3;fill-opacity:1;fill-rule:evenodd;stroke:none"
         id="path42" />
      <path
         d="m 4474.4,13759.3 c 623.45,0 1128.83,-505.4 1128.83,-1128.9 0,-623.4 -505.38,-1128.8 -1128.83,-1128.8 -623.46,0 -1129.62,504.6 -1129.62,1128.8 0,623.5 506.16,1128.9 1129.62,1128.9 z m 4546.03,0 c 623.46,0 1128.87,-505.4 1128.87,-1128.9 0,-623.4 -505.41,-1128.8 -1128.87,-1128.8 -623.45,0 -1128.83,505.4 -1128.83,1128.8 0,623.5 505.38,1128.9 1128.83,1128.9 z m 4546.77,0 c 623.5,0 1128.9,-505.4 1128.9,-1128.9 0,-623.4 -505.4,-1128.8 -1128.9,-1128.8 -623.4,0 -1128.8,505.4 -1128.8,1128.8 0,623.5 505.4,1128.9 1128.8,1128.9 z m 10236.7,2169.5 H 2007.34 c -547.1,0 -995.01,-447.9 -995.01,-995 v -4607.5 c 0,-547.1 447.91,-995 995.01,-995 h 3918.64 1942 13509.82 1942 3918.6 c 547.1,0 995,447.9 995,995 v 4607.5 c 0,547.1 -447.9,995 -995,995 h -3434.5 z m -6819.5,-4011.6 v 1426.4 c 0,229.1 187.4,415.7 415.7,415.7 H 25483 c 229,0 415.6,-187.4 415.6,-415.7 v -1426.4 c 0,-229 -187.3,-415.6 -415.6,-415.6 h -8082.1 c -229.1,-0.8 -416.5,186.6 -416.5,415.6 v 0"
         style="fill:#898fb1;fill-opacity:1;fill-rule:nonzero;stroke:none"
         id="path44" />
      <path
         d="m 21377,9332.11 h 1942 v -5583.5 h -1942 v 5583.5"
         style="fill:#afb2c2;fill-opacity:1;fill-rule:evenodd;stroke:none"
         id="path46" />
      <path
         d="M 23319,3748.61 H 18880 V 377.801 h 6935.2 V 2063.2 3748.61 H 23319"
         style="fill:#898fb1;fill-opacity:1;fill-rule:nonzero;stroke:none"
         id="path48" />
      <path
         d="M 10364.2,2063.2 V 3748.61 H 3429.01 V 377.801 H 10364.2 V 2063.2"
         style="fill:#898fb1;fill-opacity:1;fill-rule:nonzero;stroke:none"
         id="path50" />
      <path
         d="M 5925.19,9332.11 H 7867.2 V 3748.61 H 5925.19 v 5583.5"
         style="fill:#afb2c2;fill-opacity:1;fill-rule:evenodd;stroke:none"
         id="path52" />
      <path
         d="m 2007.34,33855.5 c -340.07,0 -617.16,-277.1 -617.16,-617.2 v -4607.4 c 0,-340.1 277.09,-617.1 617.16,-617.1 H 27236.8 c 340.1,0 617.2,277 617.2,617.1 v 4607.4 c 0,340.1 -277.1,617.2 -617.2,617.2 z M 27236.8,27258.8 H 2007.34 c -756.49,0 -1372.863,615.6 -1372.863,1372.9 v 4606.6 c 0,756.5 615.583,1372.9 1372.863,1372.9 H 27236.8 c 756.5,0 1372.9,-615.6 1372.9,-1372.9 v -4607.4 c 0,-756.5 -615.6,-1372.1 -1372.9,-1372.1"
         style="fill:#100f0d;fill-opacity:1;fill-rule:nonzero;stroke:none"
         id="path54" />
      <path
         d="m 4474.4,31686 c -414.06,0 -750.98,-336.9 -750.98,-751 0,-414 336.92,-751 750.98,-751 414.06,0 750.98,337 750.98,751 0,414.1 -336.92,751 -750.98,751 z m 0,-2258.5 c -831.28,0 -1507.47,676.2 -1507.47,1506.7 0,831.3 676.19,1507.5 1507.47,1507.5 831.27,0 1506.68,-676.2 1506.68,-1507.5 0,-830.5 -675.41,-1506.7 -1506.68,-1506.7"
         style="fill:#100f0d;fill-opacity:1;fill-rule:nonzero;stroke:none"
         id="path56" />
      <path
         d="m 9020.43,31686 c -414.06,0 -750.98,-336.9 -750.98,-751 0,-414 336.92,-751 750.98,-751 414.06,0 750.98,337 750.98,751 0.79,414.1 -336.13,751 -750.98,751 z m 0,-2258.5 c -831.27,0 -1506.69,676.2 -1506.69,1506.7 0,831.3 676.21,1507.5 1506.69,1507.5 831.27,0 1507.47,-676.2 1507.47,-1507.5 0,-830.5 -676.2,-1506.7 -1507.47,-1506.7"
         style="fill:#100f0d;fill-opacity:1;fill-rule:nonzero;stroke:none"
         id="path58" />
      <path
         d="m 13567.2,31686 c -414,0 -750.9,-336.9 -750.9,-751 0,-414 336.9,-751 750.9,-751 414.1,0 751,337 751,751 0,414.1 -336.9,751 -751,751 z m 0,-2258.5 c -831.2,0 -1507.4,676.2 -1507.4,1506.7 0,831.3 676.2,1507.5 1507.4,1507.5 831.3,0 1506.7,-676.2 1506.7,-1507.5 0,-830.5 -675.4,-1506.7 -1506.7,-1506.7"
         style="fill:#100f0d;fill-opacity:1;fill-rule:nonzero;stroke:none"
         id="path60" />
      <path
         d="m 17400.9,31686 c -19.7,0 -38.6,-18.1 -38.6,-37.8 v -1426.4 c 0,-19.7 18.1,-37.8 38.6,-37.8 h 8082.9 c 19.6,0 38.5,18.1 38.5,37.8 v 1426.4 c 0,19.7 -18.1,37.8 -38.5,37.8 z M 25483,29427.5 h -8082.1 c -437.7,0 -793.5,355.9 -793.5,793.5 v 1427.2 c 0,437.7 355.8,793.5 793.5,793.5 h 8082.9 c 437.6,0 793.4,-355.8 793.4,-793.5 v -1426.4 c 0,-437.7 -356.5,-794.3 -794.2,-794.3"
         style="fill:#100f0d;fill-opacity:1;fill-rule:nonzero;stroke:none"
         id="path62" />
      <path
         d="m 5440.28,24702.8 c -208.6,0 -377.85,169.3 -377.85,377.9 v 2556 c 0,208.6 169.25,377.8 377.85,377.8 208.61,0 377.85,-169.2 377.85,-377.8 v -2555.2 c 0,-209.4 -169.24,-378.7 -377.85,-378.7"
         style="fill:#100f0d;fill-opacity:1;fill-rule:nonzero;stroke:none"
         id="path64" />
      <path
         d="m 23803.9,24702.8 c -208.6,0 -377.9,169.3 -377.9,377.9 v 2556 c 0,208.6 169.3,377.8 377.9,377.8 208.6,0 377.8,-169.2 377.8,-377.8 v -2555.2 c 0,-209.4 -169.2,-378.7 -377.8,-378.7"
         style="fill:#100f0d;fill-opacity:1;fill-rule:nonzero;stroke:none"
         id="path66" />
      <path
         d="m 2007.34,24702.8 c -340.07,0 -617.16,-277.1 -617.16,-617.1 v -4607.5 c 0,-340 277.09,-617.1 617.16,-617.1 H 27236.8 c 340.1,0 617.2,277.1 617.2,617.1 v 4608.2 c 0,340.1 -277.1,617.2 -617.2,617.2 H 2007.34 Z M 27236.8,18106.2 H 2007.34 c -756.49,0 -1372.863,615.5 -1372.863,1372.8 v 4607.4 c 0,756.5 615.583,1372.9 1372.863,1372.9 H 27236.8 c 756.5,0 1372.9,-615.6 1372.9,-1372.9 V 19479 c 0,-757.3 -615.6,-1372.8 -1372.9,-1372.8"
         style="fill:#100f0d;fill-opacity:1;fill-rule:nonzero;stroke:none"
         id="path68" />
      <path
         d="m 4474.4,22534.1 c -414.06,0 -750.98,-336.9 -750.98,-751 0,-414 336.92,-751 750.98,-751 414.06,0 750.98,337 750.98,751 0,414.1 -336.92,751 -750.98,751 z m 0,-2258.4 c -831.28,0 -1507.47,676.2 -1507.47,1507.4 0,831.3 676.19,1506.7 1507.47,1506.7 831.27,0 1506.68,-676.2 1506.68,-1506.7 0,-831.2 -675.41,-1507.4 -1506.68,-1507.4"
         style="fill:#100f0d;fill-opacity:1;fill-rule:nonzero;stroke:none"
         id="path70" />
      <path
         d="m 9020.43,22534.1 c -414.06,0 -750.98,-336.9 -750.98,-751 0,-414 336.92,-751 750.98,-751 414.06,0 750.98,337 750.98,751 0.79,414.1 -336.13,751 -750.98,751 z m 0,-2258.4 c -831.27,0 -1506.69,676.2 -1506.69,1507.4 0,831.3 676.21,1506.7 1506.69,1506.7 831.27,0 1507.47,-676.2 1507.47,-1506.7 0,-831.2 -676.2,-1507.4 -1507.47,-1507.4"
         style="fill:#100f0d;fill-opacity:1;fill-rule:nonzero;stroke:none"
         id="path72" />
      <path
         d="m 13567.2,22534.1 c -414,0 -750.9,-336.9 -750.9,-751 0,-414 336.9,-751 750.9,-751 414.1,0 751,337 751,751 0,414.1 -336.9,751 -751,751 z m 0,-2258.4 c -831.2,0 -1507.4,676.2 -1507.4,1507.4 0,831.3 676.2,1506.7 1507.4,1506.7 831.3,0 1506.7,-676.2 1506.7,-1506.7 0,-831.2 -675.4,-1507.4 -1506.7,-1507.4"
         style="fill:#100f0d;fill-opacity:1;fill-rule:nonzero;stroke:none"
         id="path74" />
      <path
         d="m 17400.9,22534.1 c -20.5,0 -38.6,-18.1 -38.6,-37.8 v -1426.4 c 0,-19.6 18.1,-37.8 38.6,-37.8 h 8082.9 c 19.6,0 38.5,18.2 38.5,37.8 v 1426.4 c 0,20.5 -18.1,37.8 -38.5,37.8 z M 25483,20275.7 h -8082.1 c -437.7,0 -793.5,355.8 -793.5,793.4 v 1426.4 c 0,437.7 355.8,793.5 793.5,793.5 h 8082.9 c 437.6,0 793.4,-355.8 793.4,-793.5 v -1426.4 c 0,-437.6 -356.5,-793.4 -794.2,-793.4"
         style="fill:#100f0d;fill-opacity:1;fill-rule:nonzero;stroke:none"
         id="path76" />
      <path
         d="m 5440.28,15550.9 c -208.6,0 -377.85,169.3 -377.85,377.9 V 18484 c 0,208.6 169.25,377.9 377.85,377.9 208.61,0 377.85,-169.3 377.85,-377.9 v -2555.2 c 0,-208.6 -169.24,-377.9 -377.85,-377.9"
         style="fill:#100f0d;fill-opacity:1;fill-rule:nonzero;stroke:none"
         id="path78" />
      <path
         d="m 23803.9,15550.9 c -208.6,0 -377.9,169.3 -377.9,377.9 V 18484 c 0,208.6 169.3,377.9 377.9,377.9 208.6,0 377.8,-169.3 377.8,-377.9 v -2555.2 c 0,-208.6 -169.2,-377.9 -377.8,-377.9"
         style="fill:#100f0d;fill-opacity:1;fill-rule:nonzero;stroke:none"
         id="path80" />
      <path
         d="m 2007.34,15550.9 c -340.07,0 -617.16,-277.1 -617.16,-617.1 v -4607.5 c 0,-340 277.09,-617.1 617.16,-617.1 H 27236.8 c 340.1,0 617.2,277.1 617.2,617.1 v 4607.5 c 0,340 -277.1,617.1 -617.2,617.1 z M 27236.8,8954.3 H 2007.34 c -756.49,0 -1372.863,615.5 -1372.863,1372.8 v 4607.5 c 0,756.4 615.583,1372.8 1372.863,1372.8 H 27236.8 c 756.5,0 1372.9,-615.6 1372.9,-1372.8 v -4607.5 c 0,-757.3 -615.6,-1372.8 -1372.9,-1372.8"
         style="fill:#100f0d;fill-opacity:1;fill-rule:nonzero;stroke:none"
         id="path82" />
      <path
         d="m 4474.4,13381.4 c -414.06,0 -750.98,-336.9 -750.98,-751 0,-414 336.92,-750.9 750.98,-750.9 414.06,0 750.98,336.9 750.98,750.9 0,414.1 -336.92,751 -750.98,751 z m 0,-2258.4 c -831.28,0 -1507.47,676.2 -1507.47,1506.7 0,831.2 676.19,1506.6 1507.47,1506.6 831.27,0 1506.68,-676.2 1506.68,-1506.6 0,-830.5 -675.41,-1506.7 -1506.68,-1506.7"
         style="fill:#100f0d;fill-opacity:1;fill-rule:nonzero;stroke:none"
         id="path84" />
      <path
         d="m 9020.43,13381.4 c -414.06,0 -750.98,-336.9 -750.98,-751 0,-414 336.92,-750.9 750.98,-750.9 414.06,0 750.98,336.9 750.98,750.9 0,414.1 -336.13,751 -750.98,751 z m 0,-2258.4 c -831.27,0 -1506.69,676.2 -1506.69,1506.7 0,831.2 676.21,1506.6 1506.69,1506.6 831.27,0 1507.47,-676.2 1507.47,-1506.6 0,-830.5 -676.2,-1506.7 -1507.47,-1506.7"
         style="fill:#100f0d;fill-opacity:1;fill-rule:nonzero;stroke:none"
         id="path86" />
      <path
         d="m 13567.2,13381.4 c -414,0 -750.9,-336.9 -750.9,-751 0,-414 336.9,-750.9 750.9,-750.9 414.1,0 751,336.9 751,750.9 0,414.1 -336.9,751 -751,751 z m 0,-2258.4 c -831.2,0 -1507.4,676.2 -1507.4,1506.7 0,831.2 676.2,1506.6 1507.4,1506.6 831.3,0 1506.7,-676.2 1506.7,-1506.6 0,-830.5 -675.4,-1506.7 -1506.7,-1506.7"
         style="fill:#100f0d;fill-opacity:1;fill-rule:nonzero;stroke:none"
         id="path88" />
      <path
         d="m 17400.9,13381.4 c -19.7,0 -38.6,-18.1 -38.6,-37.8 v -1426.4 c 0,-20.4 18.1,-38.5 38.6,-38.5 h 8082.9 c 20.4,0 38.5,18.1 38.5,38.5 v 1426.4 c 0,19.7 -18.1,37.8 -38.5,37.8 z M 25483,11123 h -8082.1 c -437.7,0 -793.5,355.8 -793.5,793.5 v 1426.4 c 0,437.6 355.8,793.4 793.5,793.4 h 8082.9 c 437.6,0 793.4,-355.8 793.4,-793.4 v -1426.4 c 0,-436.9 -356.5,-793.5 -794.2,-793.5"
         style="fill:#100f0d;fill-opacity:1;fill-rule:nonzero;stroke:none"
         id="path90" />
      <path
         d="m 5925.19,3370.7 c -208.6,0 -377.85,169.3 -377.85,377.91 v 5583.5 c 0,208.59 169.25,377.89 377.85,377.89 208.61,0 377.86,-169.3 377.86,-377.89 v -5583.5 c 0,-208.61 -168.47,-377.91 -377.86,-377.91"
         style="fill:#100f0d;fill-opacity:1;fill-rule:nonzero;stroke:none"
         id="path92" />
      <path
         d="m 7867.2,3370.7 c -208.61,0 -377.86,169.3 -377.86,377.91 v 5583.5 c 0,208.59 169.25,377.89 377.86,377.89 208.6,0 377.85,-169.3 377.85,-377.89 V 3748.61 C 8245.05,3540 8075.8,3370.7 7867.2,3370.7"
         style="fill:#100f0d;fill-opacity:1;fill-rule:nonzero;stroke:none"
         id="path94" />
      <path
         d="M 3806.86,755.703 H 9986.31 V 3370.7 H 3806.86 Z M 10364.2,0 H 3429.01 C 3220.4,0 3051.16,169.203 3051.16,377.801 V 3748.61 c 0,208.59 169.24,377.79 377.85,377.79 h 6935.19 c 208.6,0 377.8,-169.2 377.8,-377.79 V 377.801 C 10742,169.203 10572.8,0 10364.2,0"
         style="fill:#100f0d;fill-opacity:1;fill-rule:nonzero;stroke:none"
         id="path96" />
      <path
         d="M 3429.01,1685.3 H 377.852 C 169.246,1685.3 0,1854.61 0,2063.2 0,2271.8 169.246,2441 377.852,2441 H 3429.01 c 208.6,0 377.85,-169.2 377.85,-377.8 0,-208.59 -169.25,-377.9 -377.85,-377.9"
         style="fill:#100f0d;fill-opacity:1;fill-rule:nonzero;stroke:none"
         id="path98" />
      <path
         d="m 13415.3,1685.3 h -3051.1 c -208.6,0 -377.89,169.31 -377.89,377.9 0,208.6 169.29,377.8 377.89,377.8 h 3051.1 c 208.6,0 377.9,-169.2 377.9,-377.8 0,-208.59 -169.3,-377.9 -377.9,-377.9"
         style="fill:#100f0d;fill-opacity:1;fill-rule:nonzero;stroke:none"
         id="path100" />
      <path
         d="m 21377,3370.7 c -208.6,0 -377.9,169.3 -377.9,377.91 v 5583.5 c 0,208.59 169.3,377.89 377.9,377.89 208.6,0 377.8,-169.3 377.8,-377.89 v -5583.5 c 0,-208.61 -169.2,-377.91 -377.8,-377.91"
         style="fill:#100f0d;fill-opacity:1;fill-rule:nonzero;stroke:none"
         id="path102" />
      <path
         d="m 23319,3370.7 c -208.6,0 -377.9,169.3 -377.9,377.91 v 5583.5 c 0,208.59 169.3,377.89 377.9,377.89 208.6,0 377.8,-169.3 377.8,-377.89 v -5583.5 c 0,-208.61 -169.2,-377.91 -377.8,-377.91"
         style="fill:#100f0d;fill-opacity:1;fill-rule:nonzero;stroke:none"
         id="path104" />
      <path
         d="m 19257.9,755.703 h 6179.4 V 3370.7 H 19257.9 Z M 25815.2,0 H 18880 c -208.6,0 -377.8,169.203 -377.8,377.801 V 3748.61 c 0,208.59 169.2,377.79 377.8,377.79 h 6935.2 c 208.6,0 377.8,-169.2 377.8,-377.79 V 377.801 C 26193,169.203 26023.8,0 25815.2,0"
         style="fill:#100f0d;fill-opacity:1;fill-rule:nonzero;stroke:none"
         id="path106" />
      <path
         d="m 18880,1685.3 h -3051.1 c -208.7,0 -377.9,169.31 -377.9,377.9 0,208.6 169.2,377.8 377.9,377.8 H 18880 c 208.6,0 377.9,-169.2 377.9,-377.8 0,-208.59 -169.3,-377.9 -377.9,-377.9"
         style="fill:#100f0d;fill-opacity:1;fill-rule:nonzero;stroke:none"
         id="path108" />
      <path
         d="m 28866.3,1685.3 h -3051.1 c -208.6,0 -377.9,169.31 -377.9,377.9 0,208.6 169.3,377.8 377.9,377.8 h 3051.1 c 208.6,0 377.9,-169.2 377.9,-377.8 0,-208.59 -169.3,-377.9 -377.9,-377.9"
         style="fill:#100f0d;fill-opacity:1;fill-rule:nonzero;stroke:none"
         id="path110" />
    </g>
  </g>
</svg>
