<svg height="191.92" viewBox="0 0 1322.62 191.92" width="1322.62" xmlns="http://www.w3.org/2000/svg"><g stroke="#fff" stroke-width="3"><g opacity=".15"><g fill="none"><circle cx="765.84" cy="127.01" r="5"/><path d="m557.63 190.42 81.23-46.9a16 16 0 0 1 16 0l33.33 19.16a16 16 0 0 0 16 0l56.46-32.68m406.7 60.42-107.45-61.75m-703.36 61.75 31.83-18.49a16 16 0 0 1 16.07 0l31.83 18.49m404.48-20.17 34.93 20.17" stroke-linecap="round" stroke-linejoin="round"/><path d="m1036.58 142.38 51.94-30a16 16 0 0 1 16 0l26.91 15.54a16 16 0 0 0 16 0l119.32-68.58"/><path d="m953.59 190.42 32.18-18.42a16 16 0 0 1 16.5.38l28.44 18m-949.6.04-62-35.8a8 8 0 0 1 0-13.85l98.6-56.93" stroke-linecap="round" stroke-linejoin="round"/></g><circle cx="1031.39" cy="145.38" fill="#fff" r="5"/><circle cx="1271.93" cy="56.38" fill="none" r="5"/><circle cx="122.9" cy="80.84" fill="none" r="5"/><path d="m116.89 164.27-105.19-60.45" fill="none"/><circle cx="6.5" cy="100.83" fill="none" r="5"/><circle cx="122.09" cy="167.26" fill="#fff" r="5"/><circle cx="835.56" cy="167.26" fill="#fff" r="5"/></g><g opacity=".3"><circle cx="1271.93" cy="6.5" fill="#fff" r="5"/><path d="m516.54 190.28 104.39-60.28m-317.19 60.42-135.14-78a16 16 0 0 0 -16 0l-26.92 15.54a16 16 0 0 1 -16 0l-98-56.33m1255.06-62.13-84.37 48.71a8 8 0 0 0 0 13.86l49.84 28.78a8 8 0 0 1 0 13.85l-49.84 28.78a8 8 0 0 0 0 13.86l57.3 33.08m37.46-63.64 30.87 17.83a8 8 0 0 1 .14 13.78l-9.14 5.61a8 8 0 0 0 .14 13.77l22 12.7" fill="none" stroke-linecap="round" stroke-linejoin="round"/><circle cx="626.13" cy="127.01" fill="#fff" r="5"/><circle cx="6.5" cy="68.64" fill="#fff" r="5"/><g fill="none"><circle cx="1271.93" cy="123.78" r="5"/><path d="m260.65 164.91 60.45-34.9"/><circle cx="326.3" cy="127.01" r="5"/></g></g></g></svg>