<?xml version="1.0" encoding="utf-8"?>
<!-- Generator: Adobe Illustrator 24.1.0, SVG Export Plug-In . SVG Version: 6.00 Build 0)  -->
<svg version="1.1" id="Layer_1" xmlns="http://www.w3.org/2000/svg" xmlns:xlink="http://www.w3.org/1999/xlink" x="0px" y="0px"
	 viewBox="0 0 1000 562.5" style="enable-background:new 0 0 1000 562.5;" xml:space="preserve">
<style type="text/css">
	.st0{clip-path:url(#SVGID_2_);}
	.st1{fill:none;stroke:#E6E6E6;stroke-width:4;stroke-miterlimit:10;}
	.st2{fill:none;stroke:#FF6F00;stroke-width:4;stroke-miterlimit:10;}
	.st3{fill:#FF6F00;}
	.st4{fill:#E6E6E6;}
	.st5{fill:#FFFFFF;}
	.st6{fill:#425066;}
	.st7{fill:none;stroke:#425066;stroke-width:4;stroke-miterlimit:10;}
	.st8{clip-path:url(#SVGID_4_);}
	.st9{fill:#EEEEEE;}
	.st10{fill:#3A485F;}
	.st11{fill:#CED0D1;}
	.st12{fill:#616161;}
	.st13{fill:#E5E6E8;}
	.st14{fill:none;stroke:#CED0D1;stroke-width:3.23;stroke-miterlimit:10;}
	.st15{fill:#B8BABA;}
	.st16{fill:#697587;stroke:#425066;stroke-linecap:round;stroke-linejoin:round;}
	.st17{fill:#FFFFFF;stroke:#425066;stroke-linecap:round;stroke-linejoin:round;}
	.st18{fill:#616161;stroke:#425066;stroke-linecap:round;stroke-linejoin:round;}
	.st19{fill:#B8BABA;stroke:#425066;stroke-linecap:round;stroke-linejoin:round;}
	.st20{fill:#E5E6E8;stroke:#425066;stroke-linecap:round;stroke-linejoin:round;}
	.st21{fill:none;stroke:#425066;stroke-linecap:round;stroke-linejoin:round;}
	.st22{fill:#425066;stroke:#425066;stroke-linecap:round;stroke-linejoin:round;}
</style>
<g id="Footer">
	<g>
		<defs>
			<rect id="SVGID_1_" width="1000" height="562.5"/>
		</defs>
		<clipPath id="SVGID_2_">
			<use xlink:href="#SVGID_1_"  style="overflow:visible;"/>
		</clipPath>
		<g class="st0">
			<g>
				<path class="st1" d="M934.1-73.4L701.8,60.7c-7.1,4.1-7.1,10.8,0.1,14.9L820.3,144c7.2,4.1,7.2,10.8,0.1,14.9L530.8,326.1"/>
				<path class="st1" d="M1121.9,35.1l-329.1,190c-7.1,4.1-7.1,10.8,0.1,14.9l116.4,67.2c7.2,4.1,7.2,10.8,0.1,15L586.1,508.8"/>
				<path class="st1" d="M574.2,351.3l50.6-29.2c12.5-7.2,32.8-7.2,45.3,0.1l0,0c12.6,7.2,32.8,7.3,45.3,0.1l52.5-30.3"/>
				<path class="st1" d="M242.5-104.2l-329.1,190c-7.1,4.1-7.1,10.8,0.1,14.9l116.4,67.2c7.2,4.1,7.2,10.8,0.1,14.9l-267.8,154.6"/>
				<path class="st2" d="M-75.1,373.1L115.6,263c14.4-8.3,37.9-8.2,52.2,0.3l154,91.5"/>
				<path class="st2" d="M939.6,413.8L917.3,401c-9.6-5.5-25-5.5-34.5-0.1l-99.2,57.3c-14.3,8.2-37.5,8.2-51.8-0.1l-221.6-128"/>
				<circle class="st3" cx="940.7" cy="414.5" r="11.5"/>
				<path class="st1" d="M1042.8,80.7L966.2,125l-76.5,44.2c-7.1,4.1-7.1,10.8,0.1,14.9l68.1,39.3"/>
				<path class="st1" d="M84,442.4l23.5-13.6c14.3-8.2,37.5-8.2,51.8,0.1l94.1,54.4c14.4,8.3,37.5,8.3,51.8,0.1l72.8-42"/>
				<circle class="st4" cx="84" cy="442.3" r="11.5"/>
				<g>
					<circle class="st5" cx="586.1" cy="508.8" r="9.5"/>
					<path class="st4" d="M586.1,501.3c4.1,0,7.5,3.4,7.5,7.5c0,4.1-3.4,7.5-7.5,7.5s-7.5-3.4-7.5-7.5S582,501.3,586.1,501.3
						 M586.1,497.3c-6.3,0-11.5,5.1-11.5,11.5c0,6.3,5.2,11.5,11.5,11.5s11.5-5.2,11.5-11.5S592.4,497.3,586.1,497.3L586.1,497.3z"
						/>
				</g>
				<g>
					<circle class="st5" cx="768" cy="291.9" r="9.5"/>
					<path class="st4" d="M768,284.4c4.1,0,7.5,3.4,7.5,7.5c0,2-0.8,3.9-2.2,5.3c-1.4,1.4-3.3,2.2-5.3,2.2c-4.1,0-7.5-3.4-7.5-7.5
						S763.9,284.4,768,284.4 M768,280.4c-6.3,0-11.5,5.1-11.5,11.5s5.2,11.5,11.5,11.5s11.5-5.1,11.5-11.5S774.3,280.4,768,280.4
						L768,280.4z"/>
				</g>
				<g>
					<path class="st5" d="M957.8,232.9c-5.2,0-9.5-4.3-9.5-9.5s4.3-9.5,9.5-9.5s9.5,4.3,9.5,9.5c0,2.5-1,4.9-2.8,6.7
						C962.7,231.9,960.3,232.9,957.8,232.9z"/>
					<path class="st4" d="M957.8,215.9c4.1,0,7.5,3.4,7.5,7.5s-3.4,7.5-7.5,7.5s-7.5-3.4-7.5-7.5S953.6,215.9,957.8,215.9
						 M957.8,211.9c-6.3,0-11.5,5.1-11.5,11.5s5.2,11.5,11.5,11.5s11.5-5.1,11.5-11.5S964.1,211.9,957.8,211.9L957.8,211.9z"/>
				</g>
				<circle class="st6" cx="594.8" cy="181.6" r="11.5"/>
				<path class="st7" d="M631.8-54.8L421.4,66.7c-7.1,4.1-7.1,10.8,0.1,14.9l173,99.9"/>
				<path class="st1" d="M455.2,262L183.9,105.3c-7.2-4.1-7.2-10.8-0.1-14.9l82-47.3"/>
				<g>
					<path class="st5" d="M265.9,52.6c-5.2,0-9.5-4.3-9.5-9.5s4.3-9.5,9.5-9.5s9.5,4.3,9.5,9.5c0,2.5-1,4.9-2.8,6.7
						S268.4,52.6,265.9,52.6L265.9,52.6z"/>
					<path class="st4" d="M265.9,35.6L265.9,35.6c4.1,0,7.5,3.4,7.5,7.5s-3.4,7.5-7.5,7.5s-7.5-3.4-7.5-7.5c0-2,0.8-3.9,2.2-5.3
						C262,36.3,263.9,35.6,265.9,35.6 M265.9,31.6c-6.4,0-11.5,5.2-11.5,11.5s5.1,11.5,11.5,11.5s11.5-5.2,11.5-11.5
						S272.2,31.6,265.9,31.6L265.9,31.6z"/>
				</g>
			</g>
		</g>
	</g>
	<g>
		<defs>
			<rect id="SVGID_3_" x="-1000" width="1000" height="562.5"/>
		</defs>
		<clipPath id="SVGID_4_">
			<use xlink:href="#SVGID_3_"  style="overflow:visible;"/>
		</clipPath>
		<g class="st8">
			<g>
				<circle class="st3" cx="172" cy="232.8" r="11.5"/>
				<path class="st2" d="M134.9,251.7l-271,156.4c-13.4,7.7-35.1,7.7-48.6-0.1l0,0c-13.4-7.8-35.2-7.8-48.6-0.1l-42.4,24.5"/>
				<path class="st1" d="M242.9-104.7l-329.1,190c-7.1,4.1-7.1,10.8,0.1,14.9l116.4,67.2c7.2,4.1,7.2,10.8,0.1,14.9L-237.5,337"/>
			</g>
		</g>
	</g>
</g>
<g id="Main">
	
		<ellipse transform="matrix(5.410451e-03 -1 1 5.410451e-03 123.2056 1028.0228)" class="st9" cx="578.4" cy="452.1" rx="19.9" ry="34.4"/>
	<g>
		<polygon class="st10" points="301.8,393.2 301.8,230.5 291,224.3 291,399.4 301.8,405.6 442.6,486.9 442.6,474.5 		"/>
		<polygon class="st11" points="301.7,393.2 520.2,267 661,348.4 442.6,474.5 		"/>
		<polygon class="st12" points="329.7,393.2 520.2,283.2 612.1,336.3 421.6,446.2 		"/>
		<polygon class="st13" points="661,348.4 661,360.8 442.6,486.9 442.6,474.5 		"/>
		<polygon class="st4" points="612.1,336.3 421.6,446.2 329.7,393.2 520.2,283.2 		"/>
		<g>
			<g>
				<line class="st14" x1="321.3" y1="388.3" x2="430" y2="451.1"/>
				<line class="st14" x1="340.3" y1="377.3" x2="449.1" y2="440.1"/>
				<line class="st14" x1="359.4" y1="366.3" x2="468.1" y2="429.1"/>
				<line class="st14" x1="378.4" y1="355.3" x2="487.2" y2="418.1"/>
				<line class="st14" x1="397.5" y1="344.3" x2="506.2" y2="407.1"/>
				<line class="st14" x1="416.5" y1="333.3" x2="525.3" y2="396.1"/>
				<line class="st14" x1="321.3" y1="388.3" x2="430" y2="451.1"/>
				<line class="st14" x1="340.3" y1="377.3" x2="449.1" y2="440.1"/>
				<line class="st14" x1="359.4" y1="366.3" x2="468.1" y2="429.1"/>
				<line class="st14" x1="378.4" y1="355.3" x2="487.2" y2="418.1"/>
				<line class="st14" x1="397.5" y1="344.3" x2="506.2" y2="407.1"/>
				<line class="st14" x1="416.5" y1="333.3" x2="525.3" y2="396.1"/>
			</g>
			<g>
				<line class="st14" x1="416.5" y1="333.3" x2="525.3" y2="396.1"/>
				<line class="st14" x1="435.6" y1="322.3" x2="544.3" y2="385.1"/>
				<line class="st14" x1="454.6" y1="311.3" x2="563.4" y2="374.1"/>
				<line class="st14" x1="473.7" y1="300.3" x2="582.5" y2="363.1"/>
				<line class="st14" x1="492.7" y1="289.3" x2="601.5" y2="352.1"/>
				<line class="st14" x1="511.8" y1="278.3" x2="620.5" y2="341.1"/>
				<line class="st14" x1="435.6" y1="322.3" x2="544.3" y2="385.1"/>
				<line class="st14" x1="454.6" y1="311.3" x2="563.4" y2="374.1"/>
				<line class="st14" x1="473.7" y1="300.3" x2="582.5" y2="363.1"/>
				<line class="st14" x1="492.7" y1="289.3" x2="601.5" y2="352.1"/>
				<line class="st14" x1="511.8" y1="278.3" x2="620.5" y2="341.1"/>
			</g>
			<g>
				<line class="st14" x1="412.6" y1="451.5" x2="621.2" y2="331"/>
				<line class="st14" x1="394.2" y1="440.9" x2="602.8" y2="320.4"/>
				<line class="st14" x1="375.8" y1="430.2" x2="584.4" y2="309.8"/>
				<line class="st14" x1="357.4" y1="419.6" x2="566" y2="299.2"/>
				<line class="st14" x1="339" y1="409" x2="547.7" y2="288.6"/>
				<line class="st14" x1="320.6" y1="398.4" x2="529.3" y2="278"/>
				<line class="st14" x1="412.6" y1="451.5" x2="621.2" y2="331"/>
				<line class="st14" x1="394.2" y1="440.9" x2="602.8" y2="320.4"/>
				<line class="st14" x1="375.8" y1="430.2" x2="584.4" y2="309.8"/>
				<line class="st14" x1="357.4" y1="419.6" x2="566" y2="299.2"/>
				<line class="st14" x1="339" y1="409" x2="547.7" y2="288.6"/>
				<line class="st14" x1="320.6" y1="398.4" x2="529.3" y2="278"/>
			</g>
		</g>
		<path class="st4" d="M498.1,406.3l44.9-25.9c0.8-0.5,2.1-0.5,2.8-0.1l20.5,11.8c0.7,0.4,0.6,1.1-0.2,1.6l-44.8,25.9
			c-0.8,0.5-2.1,0.5-2.8,0.1l-20.5-11.8C497.2,407.5,497.3,406.8,498.1,406.3L498.1,406.3z"/>
		<g>
			<polygon class="st11" points="509.5,98.2 520.2,104.4 301.7,230.5 291,224.3 			"/>
			<polygon class="st13" points="301.7,230.5 520.2,104.4 520.2,267 301.7,393.2 			"/>
			<polygon class="st5" points="308.7,381.1 308.7,234.6 513.2,116.5 513.2,263 			"/>
			<polygon class="st13" points="325.1,369.7 325.1,260.2 496.9,161 496.9,270.5 			"/>
			<polygon class="st5" points="335.6,284.2 335.6,270.2 358.3,257.1 358.3,271.1 			"/>
			<polygon class="st5" points="335.6,307.4 335.6,293.4 358.3,280.3 358.3,294.3 			"/>
			<ellipse transform="matrix(0.5 -0.866 0.866 0.5 -45.7686 406.0193)" class="st13" cx="328.7" cy="242.6" rx="5.2" ry="3"/>
			<ellipse transform="matrix(0.5 -0.866 0.866 0.5 -23.8225 418.6899)" class="st13" cx="350.7" cy="230" rx="5.2" ry="3"/>
			<ellipse transform="matrix(0.5 -0.866 0.866 0.5 -34.7956 412.3546)" class="st13" cx="339.7" cy="236.3" rx="5.2" ry="3"/>
			<g>
				<polygon class="st11" points="511.1,261.8 308.7,378.6 308.7,381.1 513.2,263 				"/>
				<polygon class="st15" points="511.1,117.7 513.2,116.5 513.2,263 511.1,261.8 				"/>
			</g>
			<polygon class="st5" points="335.6,330.5 335.6,316.6 358.3,303.5 358.3,317.4 			"/>
			<g>
				<polygon class="st5" points="454.8,210.2 369,259.7 369,256.1 454.8,206.6 				"/>
				<polygon class="st5" points="454.8,256.5 369,306 369,302.4 454.8,252.9 				"/>
				<g>
					<polygon class="st5" points="464.7,223.6 369,278.9 369,275.2 464.7,220 					"/>
					<polygon class="st5" points="423.9,255.2 369,286.9 369,283.3 423.9,251.6 					"/>
				</g>
			</g>
		</g>
	</g>
	<g>
		<path class="st16" d="M538.7,260.1l-2.7,2.7l-1,4c-0.4,1.4,1.2,2,1.8,0.6l1.9-3.7l3.5-2.7L538.7,260.1L538.7,260.1z"/>
		<path class="st16" d="M538.7,260.8l-3.7,1l-2.9,2.9c-1,1,0,2.3,1.2,1.4l3.5-2.2l4.4-0.6L538.7,260.8L538.7,260.8z"/>
		<path class="st16" d="M568.8,277.6c0,0-9.7-5.5-12.5-6.3c0,0-7.2-3.9-8.2-5.5c0,0-3.5-6-6.2-6.6l-2.6,0.1l-6-3.6
			c-0.9-0.5-1.8,0.6-1.1,1.3c1.4,1.6,3.4,3.6,6,5.6c0,1,0.2,2,1,2.7c0,0,0,0.1,0,0.2c-0.1,0-0.1,0.1-0.2,0.1
			c-0.2,0.2-0.5,0.2-0.8,0.3c-1.2,0.1-5,0.5-4.7,2.8l0.5,0.6c1.1-0.4,2.3-0.6,3.5-0.6c1.1,0,2.5,0.2,3.2,0.6l3.6,0.9
			c0.6,0.2,1.2,0.5,1.7,1l1,1.1l14.7,16.4l21.3,8.5l4-12.5L568.8,277.6L568.8,277.6z"/>
		<path class="st17" d="M558.5,366.3c0,0,6,9.8,26.6-0.8l15.5-16.7l-12.4-9.5L558.5,366.3L558.5,366.3z"/>
		<path class="st16" d="M543.3,361c0,0-2.4,4.8-5.4,5.9c0,0,0,1.3,2.1,1.3l3.6-2L543.3,361L543.3,361z"/>
		<path class="st18" d="M539.1,377.9l-3.7-6.3c-0.4-0.6-0.2-1.5,0.5-1.8l11.8-6.9c0.6-0.4,1.5-0.2,1.8,0.5l3.7,6.3
			c0.4,0.6,0.2,1.5-0.5,1.8l-11.8,6.9C540.3,378.7,539.5,378.5,539.1,377.9z"/>
		<path class="st18" d="M577.2,442.2l16.2,9.3c1.2,0.7,2.6,0.8,3.9,0.2l1.2-0.6c1-0.5,1.6-1.6,1.4-2.7l-0.9-5.3l-13.3-5.1
			L577.2,442.2L577.2,442.2z"/>
		<path class="st18" d="M565.8,448.3h-6.2c-1,0.4-4.1,0.8-3.3,3.6c0.3,1.2,1.2,2.1,2.2,2.7l15,8.2c1.3,0.7,2.9,0.7,4.2-0.1l2.8-1.6
			c0.9-0.5,1.4-1.5,1.4-2.5v-6.1L565.8,448.3L565.8,448.3z"/>
		<path class="st19" d="M597,346.4c0,0,5.6,4.8,2,25.3v71.5c0,0-4.4,5.8-13.3-5.1l-0.9-22.6l-0.8-2.5l-5.2-63.1L597,346.4L597,346.4
			z"/>
		<path class="st19" d="M591.4,347.8l-29.7,15.9l4.1,84.6c0,0,7,11.7,16.7,5.9c0,0,2.5-34.3-2.9-42.9l10.6-38c0.8-3,1.2-6,1.2-9.1"
			/>
		<path class="st17" d="M574.5,279.1c0,0-8,9.3-3.5,18.3l25.6-5.5c0,0-3-10.1-13.5-9L574.5,279.1L574.5,279.1z"/>
		<path class="st16" d="M586.4,282.5l3,8.9l-14,5.9l-2.1-13.5l-0.7,0.1c-3,0.3-5.5-2.3-5.1-5.3l1.8-13.4c0.3-1.4,0.7-2.5,1.1-3.4
			l22,12.5c-1.6,3.5-4.2,6.2-5.8,7.7L586.4,282.5z"/>
		<path class="st20" d="M567.7,297.3c0,0,7.9-10.9,20.8-10.1c0.5,0,1,0.4,1.2,0.9l2.3,6.7L567.7,297.3z"/>
		<path class="st17" d="M595.5,289.5c0,0,9,17.3-1.5,40.4c0,0,2.5,11,6.6,18.9c0,0-4.2-1.1-18.8,11.8c0,0-10.6,9.8-23.3,5.7
			c0,0,2.9-7.7,2.2-16.7c-0.5-7-0.7-14.1-0.7-21.1c0-2.2,0-4.5,0-6.7v-22.4c0.1-0.1,0.2-0.2,0.4-0.2c5.6-3.3,18.4-10,29.9-10.1"/>
		<path class="st16" d="M556.5,310.9l-4.2,26.6c0,0-3.2,10.6-3.4,13.5c0,0-3.2,6.6-4.6,8c0,0-1.8,3-2.4,5.6c-0.5,1.9-1,3.9-1.6,5.8
			l-0.2,0.8c0,0,3.9,1.4,7.3-1c0,0,2.8-1.6,3.5-7.8l13.8-20.6l3.7-22.6L556.5,310.9L556.5,310.9z"/>
		<path class="st17" d="M568.4,311.9v16.4c0,0-3.9,1.2-8.4,0.1h0c-3-0.7-6.2-2.3-8.7-5.7l5.3-18.8c0.6-2,1.9-3.8,3.7-4.9
			c1.9-1.1,4.7-2.7,8-4.2"/>
		<path class="st21" d="M569.2,412.9c0,0,4.6-3,8-1.1"/>
		<path class="st21" d="M599,406c0,0-6.2-1.1-8.7,3h4.4"/>
		<path class="st16" d="M542.5,371.2l0.3,0.5l2.7,4.7c-0.5,1.4-2.4,1.2-2.4,1.2l-2.4-1.9c-0.4-0.3-0.6-0.8-0.6-1.2v-3.1l0.7-2"/>
		<path class="st16" d="M542.1,370.6v3.1c0,0.5,0.2,0.9,0.6,1.2l2.4,1.9c0,0,1.9,0.2,2.4-1.2l-2.7-4.7"/>
		<path class="st16" d="M543.7,369.6v3.2c0,0.4,0.2,0.8,0.5,1.1l2.5,2c0,0,1.9,0.2,2.4-1.2l-2.7-4.7"/>
		<path class="st16" d="M545.5,368.7l0.2,2.2l0.1,1.5c0.1,0.2,0.2,0.5,0.4,0.6l2.1,1.7l1.7-0.1c0.4,0,0.7-0.4,0.8-0.8l0.1-0.8h-1.7
			l-1.1-1.7l2.1-5"/>
		<path class="st17" d="M572.5,341.8c0,0,8.8-8.7,15.5-8.6"/>
		<path class="st17" d="M578.9,330.9c0,0,5.8-3.6,15.1-1"/>
		<polyline class="st16" points="559.9,344.2 562.6,341.8 562.6,338.5 		"/>
		<path class="st21" d="M596.5,291.8c0,0-1.4-4.8-5.7-7.4"/>
		<line class="st21" x1="572.6" y1="283.9" x2="578.4" y2="283.3"/>
		<path class="st22" d="M593.2,272.2c0-0.1,0.1-0.2,0.1-0.4c0.1-0.2,0.1-0.5,0.2-0.7c0-0.1,0.1-0.3,0.1-0.4c0.1-0.4,0.2-0.8,0.2-1.2
			c0.1-0.5,0.1-1.1,0.2-1.7c0-1-0.2-1.9-0.7-2.7c-1.7-2.9-6.7-9.3-17.9-7.7c-2,0.3-3.8,1.6-4.6,3.5c-0.1,0.3-0.3,0.6-0.4,0.9
			l4.8,2.7v6.9l2.6,3.5l3.8,5.8l5,1.4c1.8-1.7,4.7-4.7,6.3-8.7c0-0.1,0-0.1,0.1-0.2C593,272.7,593.1,272.5,593.2,272.2z"/>
		<path class="st16" d="M575.2,274.4c0.3-1.9,1.7-3.3,3.1-3.1c1.4,0.2,2.3,2,1.9,3.9s-1.7,3.3-3.1,3.1"/>
	</g>
</g>
</svg>
