<?xml version="1.0" encoding="utf-8"?>
<!-- Generator: Adobe Illustrator 24.1.0, SVG Export Plug-In . SVG Version: 6.00 Build 0)  -->
<svg version="1.1" id="Layer_1" xmlns="http://www.w3.org/2000/svg" xmlns:xlink="http://www.w3.org/1999/xlink" x="0px" y="0px"
	 viewBox="0 0 1000 562.5" style="enable-background:new 0 0 1000 562.5;" xml:space="preserve">
<style type="text/css">
	.st0{clip-path:url(#SVGID_2_);}
	.st1{fill:none;stroke:#E6E6E6;stroke-width:4;stroke-miterlimit:10;}
	.st2{fill:none;stroke:#FF6F00;stroke-width:4;stroke-miterlimit:10;}
	.st3{clip-path:url(#SVGID_4_);}
	.st4{fill:none;stroke:#CCCCCC;stroke-width:4;stroke-miterlimit:10;}
	.st5{clip-path:url(#SVGID_6_);}
	.st6{fill:none;stroke:#425066;stroke-width:4;stroke-miterlimit:10;}
	.st7{fill:#FFFFFF;}
	.st8{fill:#CCCCCC;}
	.st9{fill:#425066;}
	.st10{fill:#E6E6E6;}
	.st11{opacity:0.39;fill-rule:evenodd;clip-rule:evenodd;fill:#DDDDDD;}
	.st12{fill:#697587;}
	.st13{fill:#3A485F;}
	.st14{fill:#FFFFFF;stroke:#425066;stroke-linecap:round;stroke-linejoin:round;}
	.st15{fill-rule:evenodd;clip-rule:evenodd;fill:#425066;stroke:#425066;stroke-linecap:round;stroke-linejoin:round;}
	.st16{fill-rule:evenodd;clip-rule:evenodd;fill:#FFFFFF;stroke:#425066;stroke-linecap:round;stroke-linejoin:round;}
	.st17{fill-rule:evenodd;clip-rule:evenodd;fill:#FFA800;stroke:#425066;stroke-linecap:round;stroke-linejoin:round;}
	.st18{fill-rule:evenodd;clip-rule:evenodd;fill:#FF6F00;}
	.st19{fill:none;stroke:#425066;stroke-linecap:round;stroke-linejoin:round;}
	.st20{fill:#87898A;stroke:#425066;stroke-linecap:round;stroke-linejoin:round;}
	.st21{fill:#B8BABA;stroke:#425066;stroke-linecap:round;stroke-linejoin:round;}
	.st22{fill:#425066;stroke:#425066;stroke-linecap:round;stroke-linejoin:round;}
	.st23{fill:#FFFFFF;stroke:#FFFFFF;stroke-width:0.33;stroke-linecap:round;stroke-linejoin:round;}
	.st24{fill:#697587;stroke:#425066;stroke-linecap:round;stroke-linejoin:round;}
</style>
<g id="Footer">
	<g>
		<defs>
			<rect id="SVGID_1_" x="1000" width="1000" height="562.5"/>
		</defs>
		<clipPath id="SVGID_2_">
			<use xlink:href="#SVGID_1_"  style="overflow:visible;"/>
		</clipPath>
		<g class="st0">
			<g>
				<path class="st1" d="M957,186.3L1148.7,297c14.3,8.3,37.5,8.3,51.8,0.1l85.4-49.3c14.3-8.2,37.4-8.2,51.8,0.1l34.9,20.2"/>
				<path class="st2" d="M1580.4,442.6l-238.7-137.8c-14.3-8.3-37.5-8.3-51.8-0.1L942.1,505.5"/>
			</g>
		</g>
	</g>
	<g>
		<defs>
			<rect id="SVGID_3_" x="-1000" width="1000" height="562.5"/>
		</defs>
		<clipPath id="SVGID_4_">
			<use xlink:href="#SVGID_3_"  style="overflow:visible;"/>
		</clipPath>
		<g class="st3">
			<g>
				<line class="st4" x1="88.2" y1="94.2" x2="-247.5" y2="288"/>
				<path class="st2" d="M-476.2,382.3l104.1,60.1c14.4,8.3,37.5,8.3,51.8,0.1l84.3-48.7c14.3-8.2,37.4-8.2,51.8,0.1l284.8,164.5"/>
			</g>
		</g>
	</g>
	<g>
		<defs>
			<rect id="SVGID_5_" width="1000" height="562.5"/>
		</defs>
		<clipPath id="SVGID_6_">
			<use xlink:href="#SVGID_5_"  style="overflow:visible;"/>
		</clipPath>
		<g class="st5">
			<g>
				<path class="st4" d="M152.6-57.4L60.4-4.2C53.3,0,53.3,6.7,60.5,10.8l73.3,42.3c7.2,4.1,7.2,10.8,0.1,14.9l-253.2,146.2"/>
				<line class="st1" x1="681.8" y1="93.5" x2="422.2" y2="-56.4"/>
				<path class="st1" d="M911.6-32.6L764.1,52.6c-7.1,4.1-7.1,10.8,0.1,14.9l117.5,67.8c7.2,4.1,7.2,10.8,0.1,14.9L551.9,340.8"/>
				<path class="st1" d="M1074,253.9l-80.3-46.3c-14.3-8.3-37.5-8.3-51.8-0.1l-60.6,35"/>
				<path class="st2" d="M1122.5,323.2L1018.9,383c-7.1,4.1-7.1,10.8,0.1,15l41.6,24c7.2,4.1,7.2,10.8,0.1,15l-101.1,58.4
					c-14.3,8.2-37.5,8.2-51.8-0.1l-90.2-52c-14.3-8.3-37.5-8.3-51.8-0.1l-82.4,47.5c-14.3,8.2-37.5,8.2-51.8-0.1L453.9,388"/>
				<path class="st6" d="M469.5,103.2l-91.3,52.7c-7.1,4.1-7.1,10.8,0.1,14.9l77.5,44.7c7.2,4.1,7.2,10.8,0.1,14.9l-109.1,63"/>
				<path class="st4" d="M275.7,143.4l-91.3,52.7c-7.1,4.1-7.1,10.8,0.1,14.9l142.9,82.5"/>
				<path class="st2" d="M384.6,364.5L87.3,536.1c-7.1,4.1-18.7,4.1-25.9,0l-94.3-54.4"/>
				<g>
					<circle class="st7" cx="275.7" cy="143.4" r="9.5"/>
					<path class="st8" d="M275.7,135.9c4.1,0,7.5,3.4,7.5,7.5s-3.4,7.5-7.5,7.5s-7.5-3.4-7.5-7.5c0-2,0.8-3.9,2.2-5.3
						C271.9,136.6,273.7,135.9,275.7,135.9 M275.7,131.9c-6.4,0-11.5,5.1-11.5,11.5s5.1,11.5,11.5,11.5s11.5-5.1,11.5-11.5
						S282.1,131.9,275.7,131.9L275.7,131.9z"/>
				</g>
				<g>
					<path class="st7" d="M469.5,112.7c-5.2,0-9.5-4.3-9.5-9.5s4.3-9.5,9.5-9.5s9.5,4.3,9.5,9.5c0,2.5-1,4.9-2.8,6.7
						S472,112.7,469.5,112.7z"/>
					<path class="st9" d="M469.5,95.7c4.1,0,7.5,3.4,7.5,7.5c0,2-0.8,3.9-2.2,5.3c-1.4,1.4-3.3,2.2-5.3,2.2c-4.1,0-7.5-3.4-7.5-7.5
						c0-2,0.8-3.9,2.2-5.3C465.6,96.5,467.5,95.7,469.5,95.7 M469.5,91.7c-6.4,0-11.5,5.2-11.5,11.5s5.1,11.5,11.5,11.5
						s11.5-5.2,11.5-11.5S475.8,91.7,469.5,91.7L469.5,91.7z"/>
				</g>
				<g>
					<circle class="st7" cx="551.9" cy="340.8" r="9.5"/>
					<path class="st10" d="M551.9,333.3c4.1,0,7.5,3.4,7.5,7.5c0,2-0.8,3.9-2.2,5.3c-1.4,1.4-3.3,2.2-5.3,2.2
						c-4.1,0-7.5-3.4-7.5-7.5c0-2,0.8-3.9,2.2-5.3C548,334.1,549.9,333.3,551.9,333.3 M551.9,329.3c-6.3,0-11.5,5.1-11.5,11.5
						s5.2,11.5,11.5,11.5s11.5-5.1,11.5-11.5S558.2,329.3,551.9,329.3L551.9,329.3z"/>
				</g>
				<circle class="st10" cx="681.8" cy="93.5" r="11.5"/>
				<circle class="st10" cx="881.3" cy="242.3" r="11.5"/>
				<path class="st2" d="M317,325.5l-158.8,91.7c-7.1,4.1-7.1,10.8,0.1,15l41.6,24c7.2,4.1,7.2,10.8,0.1,15l-40.8,23.6"/>
			</g>
		</g>
	</g>
</g>
<g id="Main">
	<path class="st11" d="M518,445.1c-4.3-2.5-9.3-4.3-14.6-5.5l41.8-24.1L298.7,273.2l-123.2,71.2L422,486.7l28.4-16.4
		c2,3.1,5.2,6,9.5,8.4c16.2,9.4,42.4,9.4,58.4,0.1C534.3,469.5,534.2,454.5,518,445.1z"/>
	<g>
		<polygon class="st12" points="545.2,367.5 422,438.7 175.5,296.4 298.7,225.2 		"/>
		<polygon class="st9" points="545.2,367.5 545.2,383.8 422,455 422,438.7 		"/>
		<polygon class="st13" points="422,438.7 175.5,296.4 175.5,312.6 422,455 		"/>
		<path class="st7" d="M298.7,234.3L266.4,253l10,5.8c1.3,0.8,1.3,2.7,0,3.5l-35.1,19.9c-2,1.1-4.5,1.1-6.5,0l-9.4-5.4l-34,19.6
			L422,429.6l107.5-62L298.7,234.3L298.7,234.3z"/>
	</g>
	<g>
		<path class="st14" d="M409.9,343c0,0-1.2-3.2,1.3-6.5c1.3-1.7,1.9-3.9,1.5-6c-0.2-1.4-0.7-3.1-1.6-5.2c0,0-7.1-21.1,10.9-20.9
			c0,0,14.5-5.6,14.5,6.8c0,0,4.2,3.5,2.6,12.5c0,0-0.6,2.7,2,5.9c1.4,1.8,2.2,4,2.2,6.2c0,2-0.6,4.2-2.9,5.2L409.9,343L409.9,343z"
			/>
		<path class="st15" d="M479.9,476.5c0,0.9-0.7,1.7-1.7,1.7c-0.3,0-0.5-0.1-0.8-0.2l-9-4.1c-0.4-0.2-0.8-0.6-0.9-1.1l-0.8-3
			c-0.1-0.5-0.4-0.8-0.8-1.1l-2.6-1.5c-0.5-0.3-0.8-0.8-0.9-1.3l-0.5-5.8c0.1,0.9,0.7,3.5,3,4.8c1.1,0.6,2.5,0.6,3.6-0.1l1.3-0.9
			c1.5-1,3.5-0.5,4.3,1.1l1.4,2.5l0.1,0.2l4.1,7.8C479.8,475.9,479.9,476.2,479.9,476.5L479.9,476.5z"/>
		<path class="st16" d="M475.5,467.7l-1.4-2.5c-0.8-1.6-2.8-2.1-4.3-1.1l-1.3,0.9c-1.1,0.7-2.5,0.8-3.6,0.1c-2.3-1.3-2.9-3.9-3-4.8
			c0-0.2,0-0.3,0-0.3l-0.5-4.7l7.6,0.2L475.5,467.7L475.5,467.7z"/>
		<path class="st17" d="M442.8,412.6l12.2,7c0,0-4.9,21.3,7.4,40c0,0,4.9,4.1,9.1-1.5l-2-47.6L442.8,412.6L442.8,412.6z"/>
		<path class="st18" d="M469.5,410.6l-26.6,2l12.2,7c0,0,0,0.1,0,0.2l6.9-0.5c2.8-0.2,5.4,1.1,7,3.4l1.2,1.8L469.5,410.6
			L469.5,410.6z"/>
		<path class="st19" d="M442.8,412.6l12.2,7c0,0-4.9,21.3,7.4,40c0,0,4.9,4.1,9.1-1.5l-2-47.6L442.8,412.6L442.8,412.6z"/>
		<polygon class="st14" points="450,352.8 454.5,359.8 472.9,370.7 468,374.1 447.8,367.7 436.4,351 		"/>
		<path class="st20" d="M429.6,332.6l7.2,0.9c2.2,0.3,4.1,1.5,5.2,3.5l9.9,17c0,0-3.2,5.2-12.2,5.2L429.6,332.6z"/>
		<path class="st15" d="M522,448.1c-3.5,1.9-6.4,2.2-8,2.2c-0.8,0-1.5-0.2-2.2-0.5l-9.7-4.1c-0.5-0.2-1-0.6-1.2-1.1l-1.2-2.5
			c1.5,1.1,4.4,1.7,5.8,0.7c1-0.7,1.4-1.9,2.4-2.5c1.1-0.7,2.4-0.5,3.5-0.1c1.2,0.6,2.3,1,3.1,1.4c1,0.4,2,0.6,3,0.8
			c1.5,0.2,2.9,0.7,4.3,1.4l0.3,0.1C523.8,444.6,523.8,447.1,522,448.1L522,448.1z"/>
		<path class="st16" d="M511.4,440c-1.2-0.3-2.5-0.6-3.5,0.1c-1,0.7-1.4,1.9-2.4,2.5c-1.4,1-4.3,0.5-5.8-0.7l-1.3-2.8l5.2-5.1
			C505.6,436.8,508.8,438.8,511.4,440L511.4,440z"/>
		<path class="st17" d="M418.8,394.7v6.2c0,0-2.6,19.2,48,13.1l7.6,10.5c0,0,3.5,4.7,11.6,8.3c0,0,9.8,6.2,11.7,9.1
			c0,0,6.9-1.2,8.3-6.6l-24-30.6c-1-1.3-2.3-2.4-3.7-3.3l-35.8-20.8L418.8,394.7L418.8,394.7z"/>
		<line class="st19" x1="466.8" y1="414" x2="469.2" y2="409.1"/>
		<path class="st19" d="M469.2,413.3c0,0,1.4-1.4,3.7-1.2"/>
		<path class="st20" d="M439.5,342l3.1,7.4l3.5,8.3c0,0,0.3,0.8,0.4,2c0.2,1.9-0.1,4.9-2.6,7.7l12.6,15.4l-17.9,10.9
			c0,0-3.8-2.8-12.5,5c0,0-6.5,4.7-13,0.5c0,0,2.1-4.6,0.6-23.3l-1.9-4.7l-2.9-7.2c-1.9-4.8-3-10-3.2-15.2c0-0.1,0-0.3,0-0.4
			c0-3.4,1.9-6.6,4.9-8.4l6.1-3.5l6.5-3.7h2.2"/>
		<path class="st21" d="M446.6,359.7l-29.1,16.8V364l25.2-14.6l3.5,8.3C446.2,357.7,446.5,358.5,446.6,359.7L446.6,359.7z"/>
		<polygon class="st14" points="480.4,383.4 448.9,401.5 428.6,389.7 459.9,371.6 		"/>
		<polygon class="st14" points="480.4,382.2 449.1,400.2 428.6,388.4 459.9,370.3 		"/>
		<polygon class="st22" points="448.9,400.2 428.6,388.4 428.6,389.7 448.9,401.5 		"/>
		<path class="st14" d="M408.9,368.6l1.9,16c0.2,1.8,1.6,3.2,3.5,3.5l26.4,3c2.4,0.3,4.7-0.4,6.6-1.8l5.4-4.1l-4.1-3.2
			c-1.4-1.1-3.3-1.2-4.7-0.1l-3,2.1c0,0-7-1.5-11.5-3.8c0,0-3.8-2.3-7.5-2.1l-0.8-14.5L408.9,368.6L408.9,368.6z"/>
		<path class="st14" d="M417.5,379.5c0,0,2.1-1.7,4.5-1.5"/>
		<path class="st14" d="M429.4,328.2l5.6,13.8c1.2,2.9,0,6.2-2.7,7.8l0,0c-3.5,2-8,0.2-9.1-3.7l-5.6-19.1L429.4,328.2L429.4,328.2z"
			/>
		<polyline class="st14" points="419.8,334.9 417.5,327 422.7,323.2 425.8,320.9 432.2,330.2 432.2,340.9 		"/>
		<path class="st22" d="M432.2,330.2v4.4c-1.8-0.3-4.4-1.2-7.4-3.8l4.3-1.2l-3.3-8.8L432.2,330.2L432.2,330.2z"/>
		<path class="st14" d="M420.1,324.2v-9.8l12.8-3.3c0,0,5.8,6.2,2.5,20c0,0-3.6,2.3-10.6-0.2"/>
		<path class="st14" d="M434,320.4l1,3.4c0.2,0.6-0.3,1.1-0.9,1.1"/>
		<path class="st20" d="M423.1,364.7c0.1,0.9-0.2,1.9-1,2.5c-3.7,3-7.5,3.9-10.2,4.1c-0.6,0.1-1.2,0.1-1.7,0.1
			c-1.3,0-2.4-0.9-2.6-2.2c-0.5-2.8-1-7.5-1.5-12.4l-0.3-7.9c-0.2-3.6,1.7-7,4.9-8.8l6.1-3.5h2L423.1,364.7L423.1,364.7z"/>
		<path class="st23" d="M435.4,310.4c0,0-0.9,2.5-5.9,3.1c0,0-7.3-0.2-8.4,5.8c0,0-0.4,1.4,1.6,5.1c0,0,0.8,3-0.2,4.6
			c-0.4,0.7-0.6,1.6-0.5,2.5c0.1,1,0.5,2.4,1.7,4c0,0,2.6,2.6,1.5,8.8c0,0-0.7,2.1,2.5,6.3c0,0,0.7,2.4,0,4.4
			c-0.5,1.3-0.7,2.7-0.4,4.1c0.1,0.6,0.3,1.2,0.7,1.8c0.9,1.5,1.1,3.3,0.4,4.9c-0.2,0.5-0.5,1-1,1.6c0,0-1.6,2.7-0.9,4
			c0,0-0.8-1.7-0.8-3.5c0-1.1-0.1-2.2-0.5-3.2c-0.2-0.4-0.4-0.8-0.7-1.1c0,0-0.5-1.6-0.1-2.5c0,0-0.6,2.7,0.1,4.8c0,0,0,2.2-1.3,3.6
			c0,0,0.4-2.1-0.5-3.8c-0.4-0.8-0.5-1.7-0.4-2.5c0-0.5,0.2-1.1,0.4-1.8c0,0,0.3-3-2.3-5.9c-1-1.1-1.6-2.6-1.5-4.1
			c0-0.8,0.2-1.8,0.5-2.9c0,0,1.9-5.6-4.8-7.1c0,0-2.9,0-3.4-2.4l4.6-5.9l-0.3-17.1l6.7-5.4l12-2L435.4,310.4L435.4,310.4z"/>
		<path class="st14" d="M435.4,310.4c0,0-0.9,2.5-5.9,3.1c0,0-7.3-0.2-8.4,5.8c0,0-0.4,1.4,1.6,5.1c0,0,0.8,3-0.2,4.6
			c-0.4,0.7-0.6,1.6-0.5,2.5c0.1,1,0.5,2.4,1.7,4c0,0,2.6,2.6,1.5,8.8c0,0-0.7,2.1,2.5,6.3c0,0,0.7,2.4,0,4.4
			c-0.5,1.3-0.7,2.7-0.4,4.1c0.1,0.6,0.3,1.2,0.7,1.8c0.9,1.5,1.1,3.3,0.4,4.9c-0.2,0.5-0.5,1-1,1.6c0,0-1.6,2.7-0.9,4
			c0,0-0.8-1.7-0.8-3.5c0-1.1-0.1-2.2-0.5-3.2c-0.2-0.4-0.4-0.8-0.7-1.1c0,0-0.5-1.6-0.1-2.5c0,0-0.6,2.7,0.1,4.8c0,0,0,2.2-1.3,3.6
			c0,0,0.4-2.1-0.5-3.8c-0.4-0.8-0.5-1.7-0.4-2.5c0-0.5,0.2-1.1,0.4-1.8c0,0,0.3-3-2.3-5.9c-1-1.1-1.6-2.6-1.5-4.1
			c0-0.8,0.2-1.8,0.5-2.9c0,0,1.9-5.6-4.8-7.1c0,0-2.9,0-3.4-2.4"/>
		<polygon class="st24" points="480.4,383.4 448.9,401.6 448.9,378 480.4,359.8 		"/>
		<polygon class="st14" points="480.4,359.8 448.9,378 447.8,377.3 479.3,359.1 		"/>
		<polygon class="st22" points="448.9,400.2 448.9,378 447.8,377.3 447.8,399.6 		"/>
	</g>
</g>
</svg>
