<?xml version="1.0" encoding="utf-8"?>
<!-- Generator: Adobe Illustrator 24.1.0, SVG Export Plug-In . SVG Version: 6.00 Build 0)  -->
<svg version="1.1" id="Layer_1" xmlns="http://www.w3.org/2000/svg" xmlns:xlink="http://www.w3.org/1999/xlink" x="0px" y="0px"
	 viewBox="0 0 1000 562.5" style="enable-background:new 0 0 1000 562.5;" xml:space="preserve">
<style type="text/css">
	.st0{clip-path:url(#SVGID_2_);}
	.st1{fill:none;stroke:#CCCCCC;stroke-width:4;stroke-miterlimit:10;}
	.st2{fill:none;stroke:#E6E6E6;stroke-width:4;stroke-miterlimit:10;}
	.st3{fill:none;stroke:#425066;stroke-width:4;stroke-miterlimit:10;}
	.st4{fill:none;stroke:#FF6F00;stroke-width:4;stroke-miterlimit:10;}
	.st5{fill:#FF6F00;}
	.st6{fill:#E6E6E6;}
	.st7{fill:#425066;}
	.st8{fill:#FFFFFF;}
	.st9{fill:#CCCCCC;}
	.st10{clip-path:url(#SVGID_4_);}
	.st11{fill:#EEEEEE;}
	.st12{fill:#425066;stroke:#425066;stroke-linecap:round;stroke-linejoin:round;}
	.st13{fill:#FFFFFF;stroke:#425066;stroke-linecap:round;stroke-linejoin:round;}
	.st14{fill:#697587;stroke:#425066;stroke-linecap:round;stroke-linejoin:round;}
	.st15{fill:#E6E6E6;stroke:#425066;stroke-linecap:round;stroke-linejoin:round;}
	.st16{fill:#B8BABA;}
	.st17{fill:#CED0D1;}
	.st18{fill:#E5E6E8;}
	.st19{fill:none;stroke:#425066;stroke-linecap:round;stroke-linejoin:round;}
	.st20{fill:#FFFFFF;stroke:#FFFFFF;stroke-width:0.25;stroke-miterlimit:10;}
</style>
<g id="Footer">
	<g>
		<defs>
			<rect id="SVGID_1_" width="1000" height="562.5"/>
		</defs>
		<clipPath id="SVGID_2_">
			<use xlink:href="#SVGID_1_"  style="overflow:visible;"/>
		</clipPath>
		<g class="st0">
			<g>
				<line class="st1" x1="1088.2" y1="94.2" x2="752.5" y2="288"/>
				<path class="st2" d="M635.9,123l283.6,163.8c7.2,4.1,7.2,10.8,0.1,15l-32.8,19"/>
				<path class="st3" d="M616.1,42.6L524,95.8c-7.1,4.1-7.1,10.8,0.1,14.9l60.3,34.8c14.3,8.3,14.4,21.7,0.2,29.9l-84.4,48.7"/>
				<path class="st4" d="M53.6,177.9l13.6,7.9c14.3,8.3,37.5,8.3,51.8,0.1l103.5-59.8c7.1-4.1,18.7-4.1,25.9,0.1L483,261.6"/>
				<path class="st2" d="M726,381.3l-73.9-42.6c-4.8-2.8-12.5-2.8-17.3,0l-37.5,21.7"/>
				<path class="st4" d="M523.8,382.3l104.1,60.1c14.3,8.3,37.5,8.3,51.8,0.1l84.3-48.7c14.3-8.2,37.5-8.2,51.8,0.1l284.8,164.4"/>
				<path class="st2" d="M330.4,455.9l65.3-37.7c7.1-4.1,18.7-4.1,25.9,0l23,13.3c7.2,4.1,18.8,4.2,25.9,0l35.8-20.7"/>
				<line class="st2" x1="259.9" y1="255.7" x2="-128.4" y2="479.9"/>
				<circle class="st5" cx="52.5" cy="177.3" r="11.5"/>
				<circle class="st6" cx="259.9" cy="255.7" r="11.5"/>
				<circle class="st6" cx="330.4" cy="455.9" r="11.5"/>
				<circle class="st6" cx="726" cy="381.3" r="11.5"/>
				<circle class="st6" cx="886.7" cy="320.7" r="11.5"/>
				<circle class="st6" cx="635.9" cy="123" r="11.5"/>
				<circle class="st7" cx="616.1" cy="42.6" r="11.5"/>
				<line class="st1" x1="-40.6" y1="314.6" x2="142.5" y2="420.3"/>
				<g>
					<path class="st8" d="M142.5,429.8c-5.2,0-9.5-4.3-9.5-9.5s4.3-9.5,9.5-9.5s9.5,4.3,9.5,9.5c0,2.5-1,4.9-2.8,6.7
						C147.4,428.8,145,429.8,142.5,429.8z"/>
					<path class="st9" d="M142.5,412.8c4.1,0,7.5,3.4,7.5,7.5s-3.4,7.5-7.5,7.5s-7.5-3.4-7.5-7.5S138.4,412.8,142.5,412.8
						 M142.5,408.8c-6.4,0-11.5,5.1-11.5,11.5s5.1,11.5,11.5,11.5s11.5-5.1,11.5-11.5S148.9,408.8,142.5,408.8L142.5,408.8z"/>
				</g>
				<circle class="st9" cx="752.5" cy="288" r="11.5"/>
				<path class="st4" d="M325.1,170.4l30.3,17.5c7.2,4.1,7.2,10.8,0.1,14.9L310.1,229c-7.1,4.1-7.1,10.8,0.1,14.9l120.1,69.3"/>
			</g>
		</g>
	</g>
	<g>
		<defs>
			<rect id="SVGID_3_" x="1000" width="1000" height="562.5"/>
		</defs>
		<clipPath id="SVGID_4_">
			<use xlink:href="#SVGID_3_"  style="overflow:visible;"/>
		</clipPath>
		<g class="st10">
			<g>
				<path class="st1" d="M1152.6-57.4l-92.2,53.2c-7.1,4.1-7.1,10.8,0.1,14.9l73.3,42.3c7.2,4.1,7.2,10.8,0.1,14.9L880.7,214.2"/>
				<path class="st4" d="M1384.6,364.5l-297.2,171.6c-7.1,4.1-18.7,4.1-25.9,0l-94.3-54.4"/>
			</g>
		</g>
	</g>
</g>
<g id="Main">
	
		<ellipse transform="matrix(5.410451e-03 -1 1 5.410451e-03 32.7281 737.5294)" class="st11" cx="387.1" cy="352.3" rx="19.9" ry="34.4"/>
	<g>
		<path class="st12" d="M371,158.8c-0.3-0.9-1.2-2.2-1.9-2.9c-1-1.1-3.1-1.6-4.6-1.9s-3.1,0.8-4.4,1.4c-1.3,0.7-2.1,2.1-2.9,3.4
			c-1.6,2.6-3.8,6.7-1.8,9.7c0.9,1.3,2.6,2.3,4,2.9c1.6,0.8,3,0.7,4.6,0.1c2.8-0.9,4.8-2.4,5.8-5.2c0.5-1.6,1.1-3.3,1.4-5
			C371.4,160.7,371.5,159.8,371,158.8L371,158.8z"/>
		<path class="st12" d="M372.7,183.1l-1-2.3c-0.3-0.8-0.8-1.4-1.5-1.9l-0.5-0.5c-1-0.8-1.6-2.1-1.6-3.4v-3c0-1.4-0.2-2.8-0.7-4.1
			l0,0c-1.1-3.1-0.3-6.6,2.1-8.8l2.4-2.2c0.3-0.3,0.6-0.6,0.8-1l0,0c0.6-1.1,1.7-1.8,2.9-2l2.3-0.4c1.3-0.2,2.6,0.1,3.5,0.9l3.7,3.1
			c0.5,0.4,1,0.7,1.6,1l0,0c1.6,0.6,2.9,2,3.4,3.7l0.1,0.2c0.2,0.8,0.3,1.6,0.2,2.4l-0.7,5.1L372.7,183.1L372.7,183.1z"/>
		<path class="st13" d="M393.3,191.9c-2.8-3.2-11.4-7.9-14.5-5l0,0c-3.2,2.9-2.2,9.1,0.9,12.1l13.4,12.9l10.2-8.4L393.3,191.9
			L393.3,191.9z"/>
		<path class="st14" d="M367.9,339.1v11.6c0,0.3,0.3,1.5,0.6,2.8c0.8,2.9,2.4,5.4,4.8,7.3l0,0c2,3.3,7,1.7,6.7-2.1l-0.2-3.6
			c-0.1-1.5-0.5-3-1.2-4.4l0,0c-0.8-1.5-1.3-3.3-1.3-5V336L367.9,339.1L367.9,339.1z"/>
		<path class="st14" d="M388.7,329.3v11l5.9,2.9c0.7,0.4,1.3,0.9,1.7,1.6l0,0c0.6,1.1,1.8,1.8,3,2l7.5,0.9c1.3,0.2,2.4-0.8,2.4-2.1
			l0,0c0-0.5-0.2-1.1-0.6-1.5l-9.7-10.4l-1.5-6.5L388.7,329.3L388.7,329.3z"/>
		<path class="st15" d="M396.9,228.7l3.5,104c0,0-6.6,6-15.8,1.9l-5.9-105.9L396.9,228.7L396.9,228.7z"/>
		<path class="st15" d="M390.9,230.1h-23.6c0,0-5.8,14.1-2.7,27.6l1.8,38.6l-2.7,11.3l2.5,36c0,0,8.6,4.7,13.8-5.5l8.7-85.9"/>
		<path class="st14" d="M360.3,194.5l0.9-1.3c0.7-1,1.7-1.8,2.9-2.2l3-1.1c1.2-0.4,2.1-1.2,2.9-2.2l1.1-1.6c0.6-0.9,1.5-1.6,2.5-2.1
			l4.4-2l7.6,4.4c2.2,1.2,4,3.1,5.2,5.2l2.5,4.4c2.3,4.1,3.1,8.9,2.1,13.5l-0.3,1.3c-0.5,2.6-0.5,5.2,0,7.8l2.5,12
			c0,0-5.4,8.3-31.4-1.5l1-3.2L360.3,194.5L360.3,194.5z"/>
		<g>
			<polygon class="st16" points="389.3,232.2 413.5,246.2 413.5,218.2 389.3,204.3 			"/>
			<polygon class="st17" points="437.6,232.2 413.5,246.2 413.5,218.2 437.6,204.3 			"/>
			<polygon class="st18" points="389.3,204.3 413.5,218.2 437.6,204.3 413.4,190.3 			"/>
		</g>
		<path class="st19" d="M368.7,192.5c0,0,8.1,5.1,5.7,19.6"/>
		<path class="st19" d="M372.4,250.9c5.1-3.1,5.2-5.6,5.4-10"/>
		<path class="st13" d="M392.4,223.4l0.9-2.1c0.2-0.6,0.8-1.1,1.4-1.2l5.6-1.1c0.7-0.1,1.3,0.6,0.9,1.2c-0.5,0.8-1.7,1.8-4.6,2.4
			L392.4,223.4L392.4,223.4z"/>
		<path class="st20" d="M393.2,232l3.1-0.3l8.6-2.7c0.6-0.2,1-0.8,1-1.4v-2.5l1.9-1.2v-0.8c0-0.9-0.7-1.6-1.5-1.6
			c-3.3-0.2-11-0.4-13.9,1.9l-2.5,5.9L393.2,232L393.2,232z"/>
		<path class="st13" d="M392.4,223.4l-2.5,5.9l3.3,2.8l0.4,0c1.8-0.2,3.6-0.5,5.3-1.1l6-1.9c0.6-0.2,1-0.8,1-1.4v-2.5l1.9-1.2v-0.8
			c0-0.9-0.6-1.6-1.5-1.6c-2.4-0.1-7-0.3-10.5,0.5"/>
		<path class="st13" d="M399.6,225.9c1.9-0.3,3.3-0.3,5.2-0.6c0.7-0.1,3.4-1.1,3.4,0.4l0,0c0,0.7-0.5,1-1.2,1.1
			c-1.8,0.4-5.1,1-7.9,1"/>
		<path class="st13" d="M366.1,297.5c0,0,2.8-4.7,3.1-8.6"/>
		<path class="st13" d="M369.3,294.9c0,0,2.1-2.3,5.8-2.6"/>
		<path class="st13" d="M358.3,203l6,29.8c0.5,2.5,2.8,4.3,5.3,4.1l15.3-0.8c1.1-0.1,2.1-0.6,2.7-1.5l1.6-2.5l-1-8.8l-2.5-2
			c-0.9-0.7-2-0.9-3-0.7l-7.4,1.9l-1.8-17.6c-0.4-4.3-4.9-12.9-9.1-12.4l0,0C360.1,193.1,357.5,198.7,358.3,203L358.3,203z"/>
		<path class="st13" d="M378.6,233.9c0,0,7.4,0.5,9.6-2.7"/>
		<path class="st13" d="M388.3,223.4h4.1c0,0-1,5.7,0.8,8.7l-3.9,0.2C389.3,232.2,387.2,231,388.3,223.4L388.3,223.4z"/>
		<polygon class="st13" points="384.5,199 373.6,188 371.2,175.1 381,175.1 383.1,189.6 		"/>
		<path class="st12" d="M383.1,189.6c-0.1-0.1-0.2-0.1-0.3-0.2l-6.4-4.9c-0.6-0.4-0.9-1.1-1-1.8l0,0l5.7-7.6L383.1,189.6
			L383.1,189.6z"/>
		<path class="st13" d="M372.2,175.3c-1.6-3.8,0.2-8.2,4-9.8l7.8-3.2c1.7-0.7,3.6,0.2,4.2,1.9c1.6,4.9,3.8,14.4-0.8,22
			c-0.7,1.1-2,1.5-3.2,1l-7.5-3c-0.6-0.3-1.2-0.8-1.4-1.4"/>
		<path class="st7" d="M374.9,175.7l1.2-1.4c0.5-0.5,0.7-1.2,0.7-1.9l-0.1-1.9c-0.1-1.5,1.1-2.8,2.6-2.9l5.8-0.3
			c0.7,0,1.4-0.3,2-0.6l0,0c1.4-0.9,2-2.6,1.7-4.2l-0.2-1.1l-5.5-2.1l-10.2,3.3l-3.2,4.9v8.2L374.9,175.7L374.9,175.7z"/>
		<path class="st19" d="M373.1,175.7h1.8l1.2-1.4c0.5-0.5,0.7-1.2,0.7-1.9l-0.1-1.9c-0.1-1.5,1.1-2.8,2.6-2.9l5.8-0.3
			c0.7,0,1.4-0.3,2-0.6l0,0c1.4-0.9,2-2.6,1.7-4.2l-0.2-1.1"/>
		<path class="st13" d="M374.9,179.4c-1.4,0.4-2.9-0.9-3.5-2.8s0.2-3.8,1.5-4.2s2.9,0.9,3.5,2.8"/>
		<path class="st13" d="M387.6,174.3l0.9,4.9c0.1,0.7-0.4,1.4-1.2,1.4h-1"/>
		<path class="st13" d="M399.6,224.1l7.7-1c0.8-0.1,1.4-0.1,1.4,0.6l0,0c0,0.7-0.5,1-1.2,1.1c-1.8,0.4-5.1,1-7.9,1"/>
	</g>
	<g>
		<g>
			<g>
				<polygon class="st16" points="488.7,322.5 512.9,336.4 512.9,308.5 488.7,294.5 				"/>
				<polygon class="st17" points="537.1,322.5 512.9,336.4 512.9,308.5 537.1,294.5 				"/>
				<polygon class="st18" points="488.7,294.5 512.9,308.5 537.1,294.5 512.9,280.6 				"/>
			</g>
			<g>
				<polygon class="st16" points="488.7,287.7 512.9,301.6 512.9,273.7 488.7,259.8 				"/>
				<polygon class="st17" points="537.1,287.7 512.9,301.6 512.9,273.7 537.1,259.8 				"/>
				<polygon class="st18" points="488.7,259.8 512.9,273.7 537.1,259.8 512.9,245.8 				"/>
			</g>
			<g>
				<polygon class="st16" points="488.7,252.9 512.9,266.9 512.9,238.9 488.7,225 				"/>
				<polygon class="st17" points="537.1,252.9 512.9,266.9 512.9,238.9 537.1,225 				"/>
				<polygon class="st18" points="488.7,225 512.9,238.9 537.1,225 512.9,211 				"/>
			</g>
			<g>
				<polygon class="st16" points="488.7,218.1 512.9,232.1 512.9,204.1 488.7,190.2 				"/>
				<polygon class="st17" points="537.1,218.1 512.9,232.1 512.9,204.1 537.1,190.2 				"/>
				<polygon class="st18" points="488.7,190.2 512.9,204.1 537.1,190.2 512.9,176.2 				"/>
			</g>
		</g>
		<g>
			<g>
				<polygon class="st16" points="458.6,339.9 482.8,353.8 482.8,325.9 458.6,311.9 				"/>
				<polygon class="st17" points="507,339.9 482.8,353.8 482.8,325.9 507,311.9 				"/>
				<polygon class="st18" points="458.6,311.9 482.8,325.9 507,311.9 482.8,298 				"/>
			</g>
			<g>
				<polygon class="st16" points="458.6,305.1 482.8,319 482.8,291.1 458.6,277.1 				"/>
				<polygon class="st17" points="507,305.1 482.8,319 482.8,291.1 507,277.1 				"/>
				<polygon class="st18" points="458.6,277.1 482.8,291.1 507,277.1 482.8,263.2 				"/>
			</g>
			<g>
				<polygon class="st16" points="458.6,270.3 482.8,284.2 482.8,256.3 458.6,242.4 				"/>
				<polygon class="st17" points="507,270.3 482.8,284.2 482.8,256.3 507,242.4 				"/>
				<polygon class="st18" points="458.6,242.4 482.8,256.3 507,242.4 482.8,228.4 				"/>
			</g>
			<g>
				<polygon class="st16" points="458.6,235.5 482.8,249.5 482.8,221.5 458.6,207.6 				"/>
				<polygon class="st17" points="507,235.5 482.8,249.5 482.8,221.5 507,207.6 				"/>
				<polygon class="st18" points="458.6,207.6 482.8,221.5 507,207.6 482.8,193.6 				"/>
			</g>
		</g>
		<g>
			<g>
				<polygon class="st16" points="428.5,357.2 452.7,371.2 452.7,343.3 428.5,329.3 				"/>
				<polygon class="st17" points="476.9,357.2 452.7,371.2 452.7,343.3 476.9,329.3 				"/>
				<polygon class="st18" points="428.5,329.3 452.7,343.3 476.9,329.3 452.7,315.4 				"/>
			</g>
			<g>
				<polygon class="st16" points="428.5,322.5 452.7,336.4 452.7,308.5 428.5,294.5 				"/>
				<polygon class="st17" points="476.9,322.5 452.7,336.4 452.7,308.5 476.9,294.5 				"/>
				<polygon class="st18" points="428.5,294.5 452.7,308.5 476.9,294.5 452.7,280.6 				"/>
			</g>
			<g>
				<polygon class="st16" points="428.5,287.7 452.7,301.6 452.7,273.7 428.5,259.8 				"/>
				<polygon class="st17" points="476.9,287.7 452.7,301.6 452.7,273.7 476.9,259.8 				"/>
				<polygon class="st18" points="428.5,259.8 452.7,273.7 476.9,259.8 452.7,245.8 				"/>
			</g>
			<g>
				<polygon class="st16" points="428.5,252.9 452.7,266.9 452.7,238.9 428.5,225 				"/>
				<polygon class="st17" points="476.9,252.9 452.7,266.9 452.7,238.9 476.9,225 				"/>
				<polygon class="st18" points="428.5,225 452.7,238.9 476.9,225 452.7,211 				"/>
			</g>
		</g>
		<g>
			<g>
				<polygon class="st16" points="398.4,374.6 422.6,388.6 422.6,360.7 398.4,346.7 				"/>
				<polygon class="st17" points="446.7,374.6 422.6,388.6 422.6,360.7 446.7,346.7 				"/>
				<polygon class="st18" points="398.4,346.7 422.6,360.7 446.7,346.7 422.6,332.8 				"/>
			</g>
			<g>
				<polygon class="st16" points="398.4,339.9 422.6,353.8 422.6,325.9 398.4,311.9 				"/>
				<polygon class="st17" points="446.7,339.9 422.6,353.8 422.6,325.9 446.7,311.9 				"/>
				<polygon class="st18" points="398.4,311.9 422.6,325.9 446.7,311.9 422.6,298 				"/>
			</g>
			<g>
				<polygon class="st16" points="398.4,305.1 422.6,319 422.6,291.1 398.4,277.1 				"/>
				<polygon class="st17" points="446.7,305.1 422.6,319 422.6,291.1 446.7,277.1 				"/>
				<polygon class="st18" points="398.4,277.1 422.6,291.1 446.7,277.1 422.6,263.2 				"/>
			</g>
		</g>
		<g>
			<g>
				<polygon class="st16" points="518.9,339.9 543,353.8 543,325.9 518.9,311.9 				"/>
				<polygon class="st17" points="567.2,339.9 543,353.8 543,325.9 567.2,311.9 				"/>
				<polygon class="st18" points="518.9,311.9 543,325.9 567.2,311.9 543,298 				"/>
			</g>
			<g>
				<polygon class="st16" points="518.9,305.1 543,319 543,291.1 518.9,277.1 				"/>
				<polygon class="st17" points="567.2,305.1 543,319 543,291.1 567.2,277.1 				"/>
				<polygon class="st18" points="518.9,277.1 543,291.1 567.2,277.1 543,263.2 				"/>
			</g>
			<g>
				<polygon class="st16" points="518.9,270.3 543,284.2 543,256.3 518.9,242.4 				"/>
				<polygon class="st17" points="567.2,270.3 543,284.2 543,256.3 567.2,242.4 				"/>
				<polygon class="st18" points="518.9,242.4 543,256.3 567.2,242.4 543,228.4 				"/>
			</g>
			<g>
				<polygon class="st16" points="518.9,235.5 543,249.5 543,221.5 518.9,207.6 				"/>
				<polygon class="st17" points="567.2,235.5 543,249.5 543,221.5 567.2,207.6 				"/>
				<polygon class="st18" points="518.9,207.6 543,221.5 567.2,207.6 543,193.6 				"/>
			</g>
		</g>
		<g>
			<g>
				<polygon class="st16" points="488.7,357.2 512.9,371.2 512.9,343.3 488.7,329.3 				"/>
				<polygon class="st17" points="537.1,357.2 512.9,371.2 512.9,343.3 537.1,329.3 				"/>
				<polygon class="st18" points="488.7,329.3 512.9,343.3 537.1,329.3 512.9,315.4 				"/>
			</g>
			<g>
				<polygon class="st16" points="488.7,322.5 512.9,336.4 512.9,308.5 488.7,294.5 				"/>
				<polygon class="st17" points="537.1,322.5 512.9,336.4 512.9,308.5 537.1,294.5 				"/>
				<polygon class="st18" points="488.7,294.5 512.9,308.5 537.1,294.5 512.9,280.6 				"/>
			</g>
			<g>
				<polygon class="st16" points="488.7,287.7 512.9,301.6 512.9,273.7 488.7,259.8 				"/>
				<polygon class="st17" points="537.1,287.7 512.9,301.6 512.9,273.7 537.1,259.8 				"/>
				<polygon class="st18" points="488.7,259.8 512.9,273.7 537.1,259.8 512.9,245.8 				"/>
			</g>
			<g>
				<polygon class="st16" points="488.7,252.9 512.9,266.9 512.9,238.9 488.7,225 				"/>
				<polygon class="st17" points="537.1,252.9 512.9,266.9 512.9,238.9 537.1,225 				"/>
				<polygon class="st18" points="488.7,225 512.9,238.9 537.1,225 512.9,211 				"/>
			</g>
		</g>
		<g>
			<g>
				<polygon class="st16" points="458.6,374.6 482.8,388.6 482.8,360.7 458.6,346.7 				"/>
				<polygon class="st17" points="507,374.6 482.8,388.6 482.8,360.7 507,346.7 				"/>
				<polygon class="st18" points="458.6,346.7 482.8,360.7 507,346.7 482.8,332.8 				"/>
			</g>
			<g>
				<polygon class="st16" points="458.6,339.9 482.8,353.8 482.8,325.9 458.6,311.9 				"/>
				<polygon class="st17" points="507,339.9 482.8,353.8 482.8,325.9 507,311.9 				"/>
				<polygon class="st18" points="458.6,311.9 482.8,325.9 507,311.9 482.8,298 				"/>
			</g>
			<g>
				<polygon class="st16" points="458.6,305.1 482.8,319 482.8,291.1 458.6,277.1 				"/>
				<polygon class="st17" points="507,305.1 482.8,319 482.8,291.1 507,277.1 				"/>
				<polygon class="st18" points="458.6,277.1 482.8,291.1 507,277.1 482.8,263.2 				"/>
			</g>
			<g>
				<polygon class="st16" points="458.6,270.3 482.8,284.2 482.8,256.3 458.6,242.4 				"/>
				<polygon class="st17" points="507,270.3 482.8,284.2 482.8,256.3 507,242.4 				"/>
				<polygon class="st18" points="458.6,242.4 482.8,256.3 507,242.4 482.8,228.4 				"/>
			</g>
		</g>
		<g>
			<g>
				<polygon class="st16" points="428.5,392 452.7,406 452.7,378.1 428.5,364.1 				"/>
				<polygon class="st17" points="476.9,392 452.7,406 452.7,378.1 476.9,364.1 				"/>
				<polygon class="st18" points="428.5,364.1 452.7,378.1 476.9,364.1 452.7,350.1 				"/>
			</g>
			<g>
				<polygon class="st16" points="428.5,357.2 452.7,371.2 452.7,343.3 428.5,329.3 				"/>
				<polygon class="st17" points="476.9,357.2 452.7,371.2 452.7,343.3 476.9,329.3 				"/>
				<polygon class="st18" points="428.5,329.3 452.7,343.3 476.9,329.3 452.7,315.4 				"/>
			</g>
			<g>
				<polygon class="st16" points="428.5,322.5 452.7,336.4 452.7,308.5 428.5,294.5 				"/>
				<polygon class="st17" points="476.9,322.5 452.7,336.4 452.7,308.5 476.9,294.5 				"/>
				<polygon class="st18" points="428.5,294.5 452.7,308.5 476.9,294.5 452.7,280.6 				"/>
			</g>
		</g>
		<g>
			<g>
				<polygon class="st16" points="549,357.2 573.2,371.2 573.2,343.3 549,329.3 				"/>
				<polygon class="st17" points="597.3,357.2 573.2,371.2 573.2,343.3 597.3,329.3 				"/>
				<polygon class="st18" points="549,329.3 573.2,343.3 597.3,329.3 573.2,315.4 				"/>
			</g>
			<g>
				<polygon class="st16" points="549,322.5 573.2,336.4 573.2,308.5 549,294.5 				"/>
				<polygon class="st17" points="597.3,322.5 573.2,336.4 573.2,308.5 597.3,294.5 				"/>
				<polygon class="st18" points="549,294.5 573.2,308.5 597.3,294.5 573.2,280.6 				"/>
			</g>
			<g>
				<polygon class="st16" points="549,287.7 573.2,301.6 573.2,273.7 549,259.8 				"/>
				<polygon class="st17" points="597.3,287.7 573.2,301.6 573.2,273.7 597.3,259.8 				"/>
				<polygon class="st18" points="549,259.8 573.2,273.7 597.3,259.8 573.2,245.8 				"/>
			</g>
			<g>
				<polygon class="st16" points="549,252.9 573.2,266.9 573.2,238.9 549,225 				"/>
				<polygon class="st17" points="597.3,252.9 573.2,266.9 573.2,238.9 597.3,225 				"/>
				<polygon class="st18" points="549,225 573.2,238.9 597.3,225 573.2,211 				"/>
			</g>
		</g>
		<g>
			<g>
				<polygon class="st16" points="518.9,374.6 543,388.6 543,360.7 518.9,346.7 				"/>
				<polygon class="st17" points="567.2,374.6 543,388.6 543,360.7 567.2,346.7 				"/>
				<polygon class="st18" points="518.9,346.7 543,360.7 567.2,346.7 543,332.8 				"/>
			</g>
			<g>
				<polygon class="st16" points="518.9,339.9 543,353.8 543,325.9 518.9,311.9 				"/>
				<polygon class="st17" points="567.2,339.9 543,353.8 543,325.9 567.2,311.9 				"/>
				<polygon class="st18" points="518.9,311.9 543,325.9 567.2,311.9 543,298 				"/>
			</g>
			<g>
				<polygon class="st16" points="518.9,305.1 543,319 543,291.1 518.9,277.1 				"/>
				<polygon class="st17" points="567.2,305.1 543,319 543,291.1 567.2,277.1 				"/>
				<polygon class="st18" points="518.9,277.1 543,291.1 567.2,277.1 543,263.2 				"/>
			</g>
			<g>
				<polygon class="st16" points="518.9,270.3 543,284.2 543,256.3 518.9,242.4 				"/>
				<polygon class="st17" points="567.2,270.3 543,284.2 543,256.3 567.2,242.4 				"/>
				<polygon class="st18" points="518.9,242.4 543,256.3 567.2,242.4 543,228.4 				"/>
			</g>
		</g>
		<g>
			<g>
				<polygon class="st16" points="488.7,392 512.9,406 512.9,378.1 488.7,364.1 				"/>
				<polygon class="st17" points="537.1,392 512.9,406 512.9,378.1 537.1,364.1 				"/>
				<polygon class="st18" points="488.7,364.1 512.9,378.1 537.1,364.1 512.9,350.1 				"/>
			</g>
			<g>
				<polygon class="st16" points="488.7,357.2 512.9,371.2 512.9,343.3 488.7,329.3 				"/>
				<polygon class="st17" points="537.1,357.2 512.9,371.2 512.9,343.3 537.1,329.3 				"/>
				<polygon class="st18" points="488.7,329.3 512.9,343.3 537.1,329.3 512.9,315.4 				"/>
			</g>
			<g>
				<polygon class="st16" points="488.7,322.5 512.9,336.4 512.9,308.5 488.7,294.5 				"/>
				<polygon class="st17" points="537.1,322.5 512.9,336.4 512.9,308.5 537.1,294.5 				"/>
				<polygon class="st18" points="488.7,294.5 512.9,308.5 537.1,294.5 512.9,280.6 				"/>
			</g>
			<g>
				<polygon class="st16" points="488.7,287.7 512.9,301.6 512.9,273.7 488.7,259.8 				"/>
				<polygon class="st17" points="537.1,287.7 512.9,301.6 512.9,273.7 537.1,259.8 				"/>
				<polygon class="st18" points="488.7,259.8 512.9,273.7 537.1,259.8 512.9,245.8 				"/>
			</g>
		</g>
		<g>
			<g>
				<polygon class="st16" points="458.6,409.4 482.8,423.4 482.8,395.5 458.6,381.5 				"/>
				<polygon class="st17" points="507,409.4 482.8,423.4 482.8,395.5 507,381.5 				"/>
				<polygon class="st18" points="458.6,381.5 482.8,395.5 507,381.5 482.8,367.5 				"/>
			</g>
			<g>
				<polygon class="st16" points="458.6,374.6 482.8,388.6 482.8,360.7 458.6,346.7 				"/>
				<polygon class="st17" points="507,374.6 482.8,388.6 482.8,360.7 507,346.7 				"/>
				<polygon class="st18" points="458.6,346.7 482.8,360.7 507,346.7 482.8,332.8 				"/>
			</g>
			<g>
				<polygon class="st16" points="458.6,339.9 482.8,353.8 482.8,325.9 458.6,311.9 				"/>
				<polygon class="st17" points="507,339.9 482.8,353.8 482.8,325.9 507,311.9 				"/>
				<polygon class="st18" points="458.6,311.9 482.8,325.9 507,311.9 482.8,298 				"/>
			</g>
			<g>
				<polygon class="st16" points="458.6,305.1 482.8,319 482.8,291.1 458.6,277.1 				"/>
				<polygon class="st17" points="507,305.1 482.8,319 482.8,291.1 507,277.1 				"/>
				<polygon class="st18" points="458.6,277.1 482.8,291.1 507,277.1 482.8,263.2 				"/>
			</g>
		</g>
		<g>
			<g>
				<polygon class="st16" points="579.1,374.6 603.3,388.6 603.3,360.7 579.1,346.7 				"/>
				<polygon class="st17" points="627.5,374.6 603.3,388.6 603.3,360.7 627.5,346.7 				"/>
				<polygon class="st18" points="579.1,346.7 603.3,360.7 627.5,346.7 603.3,332.8 				"/>
			</g>
			<g>
				<polygon class="st16" points="579.1,339.9 603.3,353.8 603.3,325.9 579.1,311.9 				"/>
				<polygon class="st17" points="627.5,339.9 603.3,353.8 603.3,325.9 627.5,311.9 				"/>
				<polygon class="st18" points="579.1,311.9 603.3,325.9 627.5,311.9 603.3,298 				"/>
			</g>
			<g>
				<polygon class="st16" points="579.1,305.1 603.3,319 603.3,291.1 579.1,277.1 				"/>
				<polygon class="st17" points="627.5,305.1 603.3,319 603.3,291.1 627.5,277.1 				"/>
				<polygon class="st18" points="579.1,277.1 603.3,291.1 627.5,277.1 603.3,263.2 				"/>
			</g>
			<g>
				<polygon class="st16" points="579.1,270.3 603.3,284.2 603.3,256.3 579.1,242.4 				"/>
				<polygon class="st17" points="627.5,270.3 603.3,284.2 603.3,256.3 627.5,242.4 				"/>
				<polygon class="st18" points="579.1,242.4 603.3,256.3 627.5,242.4 603.3,228.4 				"/>
			</g>
		</g>
		<g>
			<g>
				<polygon class="st16" points="549,392 573.2,406 573.2,378.1 549,364.1 				"/>
				<polygon class="st17" points="597.3,392 573.2,406 573.2,378.1 597.3,364.1 				"/>
				<polygon class="st18" points="549,364.1 573.2,378.1 597.3,364.1 573.2,350.1 				"/>
			</g>
			<g>
				<polygon class="st16" points="549,357.2 573.2,371.2 573.2,343.3 549,329.3 				"/>
				<polygon class="st17" points="597.3,357.2 573.2,371.2 573.2,343.3 597.3,329.3 				"/>
				<polygon class="st18" points="549,329.3 573.2,343.3 597.3,329.3 573.2,315.4 				"/>
			</g>
			<g>
				<polygon class="st16" points="549,322.5 573.2,336.4 573.2,308.5 549,294.5 				"/>
				<polygon class="st17" points="597.3,322.5 573.2,336.4 573.2,308.5 597.3,294.5 				"/>
				<polygon class="st18" points="549,294.5 573.2,308.5 597.3,294.5 573.2,280.6 				"/>
			</g>
		</g>
		<g>
			<g>
				<polygon class="st16" points="518.9,409.4 543,423.4 543,395.5 518.9,381.5 				"/>
				<polygon class="st17" points="567.2,409.4 543,423.4 543,395.5 567.2,381.5 				"/>
				<polygon class="st18" points="518.9,381.5 543,395.5 567.2,381.5 543,367.5 				"/>
			</g>
			<g>
				<polygon class="st16" points="518.9,374.6 543,388.6 543,360.7 518.9,346.7 				"/>
				<polygon class="st17" points="567.2,374.6 543,388.6 543,360.7 567.2,346.7 				"/>
				<polygon class="st18" points="518.9,346.7 543,360.7 567.2,346.7 543,332.8 				"/>
			</g>
			<g>
				<polygon class="st16" points="518.9,339.9 543,353.8 543,325.9 518.9,311.9 				"/>
				<polygon class="st17" points="567.2,339.9 543,353.8 543,325.9 567.2,311.9 				"/>
				<polygon class="st18" points="518.9,311.9 543,325.9 567.2,311.9 543,298 				"/>
			</g>
		</g>
		<g>
			<g>
				<polygon class="st16" points="488.7,426.8 512.9,440.8 512.9,412.9 488.7,398.9 				"/>
				<polygon class="st17" points="537.1,426.8 512.9,440.8 512.9,412.9 537.1,398.9 				"/>
				<polygon class="st18" points="488.7,398.9 512.9,412.9 537.1,398.9 512.9,384.9 				"/>
			</g>
			<g>
				<polygon class="st16" points="488.7,392 512.9,406 512.9,378.1 488.7,364.1 				"/>
				<polygon class="st17" points="537.1,392 512.9,406 512.9,378.1 537.1,364.1 				"/>
				<polygon class="st18" points="488.7,364.1 512.9,378.1 537.1,364.1 512.9,350.1 				"/>
			</g>
			<g>
				<polygon class="st16" points="488.7,357.2 512.9,371.2 512.9,343.3 488.7,329.3 				"/>
				<polygon class="st17" points="537.1,357.2 512.9,371.2 512.9,343.3 537.1,329.3 				"/>
				<polygon class="st18" points="488.7,329.3 512.9,343.3 537.1,329.3 512.9,315.4 				"/>
			</g>
		</g>
	</g>
</g>
</svg>
