<?xml version="1.0" encoding="utf-8"?>
<!-- Generator: Adobe Illustrator 24.1.0, SVG Export Plug-In . SVG Version: 6.00 Build 0)  -->
<svg version="1.1" id="Layer_1" xmlns="http://www.w3.org/2000/svg" xmlns:xlink="http://www.w3.org/1999/xlink" x="0px" y="0px"
	 viewBox="0 0 1000 562.5" style="enable-background:new 0 0 1000 562.5;" xml:space="preserve">
<style type="text/css">
	.st0{clip-path:url(#SVGID_2_);}
	.st1{fill:none;stroke:#E6E6E6;stroke-width:4;stroke-miterlimit:10;}
	.st2{fill:none;stroke:#FF6F00;stroke-width:4;stroke-miterlimit:10;}
	.st3{clip-path:url(#SVGID_4_);}
	.st4{fill:#E6E6E6;}
	.st5{fill:none;stroke:#3A485F;stroke-width:4;stroke-miterlimit:10;}
	.st6{fill:#425066;}
	.st7{fill:#FFFFFF;}
	.st8{fill:#FF6F00;}
	.st9{clip-path:url(#SVGID_6_);}
	.st10{fill:#EEEEEE;}
	.st11{fill:#B8BABA;}
	.st12{fill:#CED0D1;}
	.st13{fill:#E5E6E8;}
	.st14{opacity:0.1;fill:#425066;enable-background:new    ;}
	.st15{fill:#3A485F;}
	.st16{fill:#697587;}
	.st17{fill:#CCCCCC;}
	.st18{fill:none;stroke:#E5E6E8;stroke-width:1.54;stroke-linecap:round;stroke-miterlimit:10;}
	.st19{fill:none;stroke:#E5E6E8;stroke-width:1.56;stroke-linecap:round;stroke-miterlimit:10;}
	.st20{fill:#9FA1A2;}
	.st21{fill:#FFFFFF;stroke:#425066;stroke-linecap:round;stroke-linejoin:round;}
	.st22{fill:#425066;stroke:#425066;stroke-linecap:round;stroke-linejoin:round;}
	.st23{fill:#697587;stroke:#425066;stroke-linecap:round;stroke-linejoin:round;}
	.st24{fill:none;stroke:#425066;stroke-linecap:round;stroke-linejoin:round;}
	.st25{fill:#6F7071;stroke:#425066;stroke-linecap:round;stroke-linejoin:round;}
	.st26{fill:#B8BABA;stroke:#425066;stroke-linecap:round;stroke-linejoin:round;}
	.st27{fill:#9FA1A2;stroke:#425066;stroke-linecap:round;stroke-linejoin:round;}
</style>
<g>
	<g id="Footer">
		<g>
			<defs>
				<rect id="SVGID_1_" x="1000" width="1000" height="562.5"/>
			</defs>
			<clipPath id="SVGID_2_">
				<use xlink:href="#SVGID_1_"  style="overflow:visible;"/>
			</clipPath>
			<g class="st0">
				<g>
					<path class="st1" d="M1242.5-104.2l-329.1,190c-7.1,4.1-7.1,10.8,0.1,14.9l116.4,67.2c7.2,4.1,7.2,10.8,0.1,14.9L762.1,337.5"
						/>
					<path class="st2" d="M924.9,373.1L1115.6,263c14.4-8.3,37.9-8.2,52.2,0.3l154,91.5"/>
				</g>
			</g>
		</g>
		<g>
			<defs>
				<rect id="SVGID_3_" width="1000" height="562.5"/>
			</defs>
			<clipPath id="SVGID_4_">
				<use xlink:href="#SVGID_3_"  style="overflow:visible;"/>
			</clipPath>
			<g class="st3">
				<g>
					<path class="st1" d="M-43,186.3L148.7,297c14.4,8.3,37.5,8.3,51.8,0.1l85.4-49.3c14.3-8.2,37.5-8.2,51.8,0.1l34.9,20.2"/>
					<path class="st1" d="M348.1-110.3L663.6,71.9c14.3,8.3,37.5,8.3,51.8,0.1l85.4-49.3c14.3-8.2,37.5-8.2,51.8,0.1l34.9,20.2"/>
					<circle class="st4" cx="887.6" cy="42.9" r="11.5"/>
					<path class="st5" d="M56.9-17.7L247.7,92.5c7.2,4.1,7.2,10.8,0.1,14.9l-72.5,41.9c-7.1,4.1-7.1,10.8,0.1,14.9l90.5,52.3"/>
					<path class="st5" d="M826.6,116.2l-80.9,46.7c-7.1,4.1-7.1,10.8,0.1,14.9l76.8,44.3c7.2,4.1,7.2,10.8,0.1,14.9L649.3,337.2"/>
					<path class="st2" d="M1134.9,251.7l-271,156.4c-13.4,7.7-35.1,7.7-48.6-0.1l0,0c-13.5-7.8-35.2-7.8-48.6-0.1l-42.4,24.5"/>
					<line class="st1" x1="656" y1="495.2" x2="835.6" y2="598.9"/>
					<path class="st2" d="M580.4,442.6L341.7,304.8c-14.4-8.3-37.5-8.3-51.8-0.1L-57.9,505.5"/>
					<path class="st2" d="M494.4,271.6l-79.3,45.8c-14.3,8.2-37.5,8.2-51.8-0.1l-21.6-12.5"/>
					<circle class="st6" cx="265.9" cy="216.6" r="11.5"/>
					<g>
						<circle class="st7" cx="372.6" cy="268" r="9.5"/>
						<path class="st4" d="M372.6,260.5c4.1,0,7.5,3.4,7.5,7.5s-3.4,7.5-7.5,7.5s-7.5-3.4-7.5-7.5S368.5,260.5,372.6,260.5
							 M372.6,256.5c-6.4,0-11.5,5.1-11.5,11.5s5.1,11.5,11.5,11.5s11.5-5.1,11.5-11.5S379,256.5,372.6,256.5L372.6,256.5z"/>
					</g>
					<circle class="st8" cx="494.3" cy="271.6" r="11.5"/>
					<path class="st1" d="M1242.9-104.7l-329.1,190c-7.1,4.1-7.1,10.8,0.1,14.9l116.4,67.2c7.2,4.1,7.2,10.8,0.1,14.9L762.5,337"/>
					<g>
						<circle class="st7" cx="762.4" cy="336.9" r="9.5"/>
						<path class="st4" d="M762.4,329.4c4.1,0,7.5,3.4,7.5,7.5s-3.4,7.5-7.5,7.5s-7.5-3.4-7.5-7.5S758.2,329.4,762.4,329.4
							 M762.4,325.4c-6.3,0-11.5,5.1-11.5,11.5s5.2,11.5,11.5,11.5s11.5-5.1,11.5-11.5S768.7,325.4,762.4,325.4L762.4,325.4z"/>
					</g>
					<circle class="st6" cx="826.6" cy="116.2" r="11.5"/>
					<path class="st1" d="M715.7,450.4l82.2,47.4c7.2,4.1,7.2,10.8,0.1,14.9l-42.8,24.7c-7.1,4.1-7.1,10.8,0.1,15l64,37"/>
				</g>
			</g>
		</g>
		<g>
			<defs>
				<rect id="SVGID_5_" x="-1000" width="1000" height="562.5"/>
			</defs>
			<clipPath id="SVGID_6_">
				<use xlink:href="#SVGID_5_"  style="overflow:visible;"/>
			</clipPath>
			<g class="st9">
				<g>
					<path class="st1" d="M74,253.9l-80.3-46.3c-14.4-8.3-37.5-8.3-51.8-0.1l-60.6,35"/>
					<path class="st2" d="M122.5,323.2L18.9,383c-7.1,4.1-7.1,10.8,0.1,15l41.6,24c7.2,4.1,7.2,10.8,0.1,15l-101.1,58.4
						c-14.3,8.2-37.4,8.2-51.8-0.1l-90.2-52c-14.4-8.3-37.5-8.3-51.8-0.1l-82.4,47.5c-14.3,8.2-37.5,8.2-51.8-0.1L-546.1,388"/>
				</g>
			</g>
		</g>
	</g>
	<g id="Main">
		
			<ellipse transform="matrix(5.410451e-03 -1 1 5.410451e-03 71.5266 1097.6215)" class="st10" cx="587.6" cy="512.9" rx="19.9" ry="34.4"/>
		<g>
			<polygon class="st11" points="518.3,450 518.3,456.5 646.2,530.3 646.2,523.8 			"/>
			<polygon class="st12" points="646.2,523.8 646.2,530.3 774.1,456.5 774.1,450 			"/>
			<polygon class="st13" points="646.2,523.8 518.3,450 646.2,376.2 774.1,450 			"/>
		</g>
		
			<ellipse transform="matrix(5.410451e-03 -1 1 5.410451e-03 196.6874 1089.7598)" class="st14" cx="646.2" cy="446" rx="44.6" ry="77.2"/>
		<g>
			<path class="st15" d="M646.2,356.1c-41.3,0-75,45.6-77.2,103c-0.1,1.5,1.1,2.8,2.7,2.8c1.4,0,2.6-1.1,2.7-2.6
				c0.3-10.4,7.3-20.7,21-28.6c14.1-8.1,32.6-12.2,51.1-12.2v-62.4C646.4,356.1,646.3,356.1,646.2,356.1L646.2,356.1z"/>
			<path class="st16" d="M646.5,356.1v62.4c18.3,0,36.6,4.1,50.6,12.2c13.7,7.9,20.7,18.2,21,28.6c0,1.4,1.2,2.6,2.7,2.6l0,0
				c1.5,0,2.7-1.3,2.7-2.8C721.2,401.8,687.6,356.2,646.5,356.1z"/>
			<path class="st17" d="M691.2,386.1c-1.5,14.8-3.6,28.6-6.3,41.5c0,0.2-0.1,0.5-0.2,0.7c-1.4,6.4-5.3,12.1-11,15.4
				c0,0-0.1,0.1-0.1,0.1c-15.1,8.7-39.6,8.7-54.7,0c0,0-0.1-0.1-0.1-0.1c-5.7-3.3-9.7-9-11-15.4c0-0.2-0.1-0.5-0.2-0.7
				c-2.7-12.9-4.8-26.7-6.3-41.5c-7.5-73.1,2.5-137.4,25.5-187.8c-1.3,3.7,0.5,7.7,5.4,10.5c7.8,4.5,20.4,4.5,28.2,0
				c5-2.9,6.8-6.9,5.4-10.5C688.7,248.6,698.7,313,691.2,386.1L691.2,386.1z"/>
			<path class="st6" d="M660.3,208.8c-7.8,4.5-20.4,4.5-28.2,0c-5-2.9-6.8-6.9-5.4-10.5c0.2-0.4,0.3-0.7,0.5-1.1c0,0,0,0,0-0.1
				c5.6-12.1,11.9-23.3,19-33.7c7,10.4,13.4,21.6,19,33.7c0,0,0,0,0,0.1c0.2,0.4,0.3,0.7,0.5,1.1C667,201.9,665.2,205.9,660.3,208.8
				L660.3,208.8z"/>
			<path class="st18" d="M599.3,321.3c0,6.9,4.6,13.9,13.7,19.2c18.3,10.6,48,10.6,66.4,0c9.2-5.3,13.7-12.2,13.7-19.2"/>
			<path class="st19" d="M598.7,338.2c0,7,4.6,14,13.9,19.4c18.5,10.7,48.6,10.7,67.2,0c9.3-5.4,13.9-12.4,13.9-19.4"/>
			<path class="st6" d="M650.7,480.1c-1,2.9-2.5,6.9-4.5,10.8c-2-3.9-3.4-7.9-4.5-10.8c-6.4-17.9-7.3-36.8-5.4-55.6
				c0.8-7.6,2.2-19.8,9.9-23.5c7.7,3.6,9.2,15.9,9.9,23.5C658,443.3,657.1,462.3,650.7,480.1z"/>
			<circle class="st20" cx="646.2" cy="285.7" r="22.8"/>
			<circle class="st7" cx="646.2" cy="285.7" r="17.8"/>
			<path class="st14" d="M615.3,420.6c0.8,7.7,1.7,15.2,2.7,22.6c-5.3-3.4-9-8.8-10.3-15c0-0.2-0.1-0.5-0.2-0.7
				c-2.7-12.9-4.8-26.7-6.3-41.5c-7.5-73.1,2.5-137.4,25.5-187.8c0.2-0.4,0.3-0.7,0.5-1.1c0,0,0,0,0-0.1c5.6-12.1,11.9-23.3,19-33.7
				c0,0.1,0.1,0.1,0.2,0.2C617.3,233.9,605.1,321.7,615.3,420.6L615.3,420.6z"/>
		</g>
		<g>
			<polygon class="st21" points="579.3,360.5 573.8,392.3 586.6,384.9 592.1,364.7 			"/>
			<path class="st21" d="M612.8,370.7l-3.5,9.8l-26.6-15.4l2.3-9.5c0,0,0.7-4.9,6.5-6h5.2l11.1,6.8
				C612.6,359.3,614.7,365.3,612.8,370.7z"/>
			<path class="st21" d="M574.3,370.4c0,0,4.2,6,10,4l6.6-24.7c0,0-4.8-0.6-9.2,3.6c-2,1.9-3.4,4.3-4.2,6.9L574.3,370.4L574.3,370.4
				z"/>
			<path class="st22" d="M604.4,498.6c0,0-1.6,4.3-2.1,8.6c-0.2,1.5-0.5,3-1,4.5l-2.5,7.2c-0.3,1,0.3,2.1,1.4,2.2c0,0,0.7,0,1.6,0
				c3.7-0.1,7.1-1.9,9.2-5l4.8-6.9l4.2-6c0,0-0.4-6.1-5.1-10.2L604.4,498.6L604.4,498.6z"/>
			<path class="st22" d="M568.6,497.5c0,0-3.2,3.4-5.3,7c-0.8,1.3-1.6,2.6-2.7,3.8l-5.1,5.7c-0.7,0.8-0.5,2.1,0.4,2.6l2.3,1.3
				c0.4,0.2,0.8,0.2,1.2,0.2l5.5-1.3c2.4-0.6,4.5-1.8,6.3-3.5l0.7-0.7c1.3-1.3,2.9-2.3,4.7-3l4.5-1.7c0,0,2-5.8-0.7-11.4
				L568.6,497.5L568.6,497.5z"/>
			<path class="st23" d="M583.2,384v15.9l-16.5,98.7c0,0,13.7,6.5,17.8,0l17.7-96.6L583.2,384L583.2,384z"/>
			<path class="st21" d="M612.8,370.7l-3.5,9.8l-2.2,6.2c-0.3,1-0.6,2-0.7,3c-0.9-0.7-1.7-1.6-2.4-2.7c-1.9-3.1-2.4-7.1-2.4-10.9
				l0,0c0-1.8,0.1-3.5,0.3-5.1c0.3-3.7,1-7.6,2.7-10.9c0.7-1.4,2-2.8,3.4-3.5C612.7,359.6,614.7,365.4,612.8,370.7L612.8,370.7z"/>
			<path class="st23" d="M583.2,384c0,0-5.1-2.5-1.4-14.8l1-4.1l1.5,0.9c0-1.8,0.1-3.5,0.3-5.1c0.2-2.5,0.6-5.1,1.4-7.6
				c0.5-1.6,0.5-1.6,0,0c-0.8,2.4,0,0,0,0c0.3-0.5,0.8-1.1,1.3-1.7c0.1-0.1,0.3-0.3,0.5-0.4c0,0,0.1-0.1,0.1-0.1
				c0.1-0.1,0.2-0.2,0.4-0.2c0.1,0,0.1-0.1,0.2-0.1c0.1-0.1,0.2-0.1,0.3-0.2c0.1-0.1,0.3-0.2,0.5-0.2c0.1,0,0.2-0.1,0.3-0.1
				c0.1-0.1,0.3-0.1,0.5-0.2c0.2-0.1,0.3-0.1,0.5-0.1c0.2-0.1,0.3-0.1,0.5-0.1c0.2,0,0.3-0.1,0.5-0.1h1.5c-0.8,0.7-1.5,1.6-2,2.6
				c-1.8,3.3-2.4,7.2-2.8,10.9c-0.2,1.6-0.3,3.3-0.3,5l10,5.8c0-1.8,0.1-3.5,0.3-5c0.3-3.7,1-7.6,2.8-10.9c0.8-1.4,2-2.9,3.6-3.5
				l3.3,2c0.1,0.1,0.2,0.1,0.3,0.2c-1.5,0.7-2.7,2.1-3.4,3.5c-1.8,3.3-2.4,7.2-2.7,10.9c-0.2,1.6-0.3,3.3-0.3,5l0,0
				c0,3.9,0.5,7.8,2.4,11c0.6,1,1.4,1.9,2.4,2.7c-0.4,3.2,0.4,6.5,2.3,9.3l3.6,5.3c4,6,5.1,13.5,2.9,20.3L603,462.7
				c0,0,5.9,9.9,8.1,20.2c0,0,3.8,10,5.9,11.4c0,0-7.9,9.6-15.3,8.7l-16.3-33.7c-1.4-3-1.8-6.4-1-9.6l9.2-38.3"/>
			<line class="st24" x1="607.1" y1="380.9" x2="597.1" y2="386.6"/>
			<line class="st24" x1="585.1" y1="373.9" x2="595" y2="379.6"/>
			<polygon class="st25" points="581.4,410.4 561.2,398.7 555.4,369.9 575.7,381.6 			"/>
			<polygon class="st26" points="575.7,381.6 555.4,369.9 556.7,369.2 576.9,380.9 			"/>
			<polygon class="st27" points="575.7,381.6 581.4,410.4 582.7,409.6 576.9,380.9 			"/>
			<path class="st21" d="M561.6,394.4l-2.8-1.8c-0.4-0.3-0.5-0.8-0.3-1.2l0,0c0.3-0.4,0.9-0.5,1.3-0.2l2.6,2.1
				c0.3,0.2,0.3,0.6,0.2,0.9l0,0C562.4,394.5,562,394.6,561.6,394.4L561.6,394.4z"/>
			<path class="st21" d="M561.5,392.8l-3.1-2c-0.5-0.3-0.6-0.9-0.3-1.3l0,0c0.3-0.5,1-0.6,1.4-0.2l2.9,2.3c0.3,0.2,0.4,0.7,0.2,1
				l0,0C562.3,392.9,561.8,393,561.5,392.8L561.5,392.8z"/>
			<path class="st21" d="M561.3,391l-3.3-2.1c-0.5-0.3-0.6-0.9-0.3-1.4l0,0c0.3-0.5,1-0.6,1.5-0.2l3.1,2.5c0.3,0.3,0.4,0.7,0.2,1
				l0,0C562.2,391.2,561.7,391.3,561.3,391L561.3,391z"/>
			<path class="st21" d="M560.5,388.9l-3.1-2c-0.5-0.3-0.6-0.9-0.3-1.3l0,0c0.3-0.5,1-0.6,1.4-0.2l2.9,2.3c0.3,0.2,0.4,0.7,0.2,1
				l0,0C561.3,389,560.9,389.1,560.5,388.9L560.5,388.9z"/>
			<path class="st21" d="M591.6,346.5l-0.8,10.8c-0.1,1.7,1.5,3,3.1,2.5c1.9-0.5,4.1-1.4,5.6-2.7c0.9-0.8,1.3-2,1.2-3.2l-0.9-16.4
				L591.6,346.5L591.6,346.5z"/>
			<path class="st21" d="M582.9,331.5c0,0-1.1,19.6,2.1,20.7h6.8c1.6,0,3.2-0.5,4.5-1.4l0,0c1.5-1.1,2.6-2.7,3-4.5l0.8-3.3v-11.5
				L582.9,331.5L582.9,331.5z"/>
			
				<ellipse transform="matrix(0.8633 -0.5047 0.5047 0.8633 -93.0294 343.2557)" class="st23" cx="587.1" cy="343.4" rx="1.9" ry="3.3"/>
			
				<ellipse transform="matrix(0.8633 -0.5047 0.5047 0.8633 -92.0667 339.6227)" class="st23" cx="580.9" cy="339.8" rx="1.9" ry="3.3"/>
			<path class="st21" d="M583.2,340.2c0,0,0.8,0.1,1.7,1"/>
			<line class="st24" x1="589.5" y1="344.7" x2="601.3" y2="338"/>
			<path class="st25" d="M597.1,336c0,0-1.7,6.5-0.4,10.9l0.4-3.5c0,0,0.1,1.5,1,2.7v-3.2c0,0,1.2-2.7,2.4-3.1l-0.3,5.7l0.3,5.5
				l0.7-2.8c0.3-1.1,0.8-2.2,1.5-3.1l0.7-0.8c0.2-0.2,0.4-0.4,0.6-0.6c1.3-1.2,6-6.5,2.3-12.1C606.3,331.5,602.2,332.4,597.1,336
				L597.1,336z"/>
			<path class="st25" d="M579.1,327.9c0.7,2.9,1.1,6,6.9,8.4c0,0-1.8-1.6-1.9-3.2c0,0,3.1,3.6,8.7,3.5l-2.6-1.5c0,0,6.3,2.8,7.1,0.9
				l9.2-4.5c0,0,4.1-4.2-4.2-2c0,0-2.6-10.5-14-7.2c-3.4,1-6.2,3.5-7.5,6.8l0,0.1L579.1,327.9L579.1,327.9z"/>
			<path class="st21" d="M584,339.8v1.2c0,0.7-0.2,1.5-0.4,2.2l-1,2.5c-0.3,0.7,0.3,1.4,1,1.2l1.8-0.4"/>
			<line class="st24" x1="600.7" y1="409.6" x2="607.6" y2="418.6"/>
			<path class="st21" d="M571.7,396.5l5.5-4.1c0.6-0.4,1.4-0.4,2,0l5.3,4l4.6-0.5c1.4-0.1,2.8-0.5,4.2-0.9c2.7-0.9,7.8-2.2,11.7-1
				v-11l12.1,2l-2.1,17.1c-0.1,0.8-0.8,1.4-1.6,1.4c-4.5,0-19,0-29-1.5l-3,0.7c-0.6,0.1-1.2,0-1.6-0.4l-3.8-3
				c-0.4-0.4-0.7-0.9-0.7-1.4l-0.1-1.9l-2.2,1.1C572.3,397.5,571.7,397.1,571.7,396.5L571.7,396.5L571.7,396.5z"/>
			<path class="st21" d="M604.1,371.4l-1.2,13.5c0,0,6.8,7.1,15.2,3l-2-21.3c-0.3-3.5-2.3-6.7-5.4-8.5l-2.9-1.8"/>
			<line class="st24" x1="611" y1="402.3" x2="613.5" y2="400.4"/>
			<path class="st21" d="M598.2,341.7c0-2.1,1.1-3.7,2.4-3.7s2.4,1.3,2.4,3.7c0,2.1-2.4,3.7-3.7,3.7"/>
		</g>
	</g>
</g>
</svg>
