<?xml version="1.0" encoding="UTF-8"?><svg xmlns="http://www.w3.org/2000/svg" xmlns:xlink="http://www.w3.org/1999/xlink" viewBox="0 0 1000 562.5"><defs><style>.cls-1,.cls-2,.cls-3,.cls-4,.cls-5{fill:none;}.cls-2,.cls-3,.cls-4{stroke-width:3.64px;}.cls-2,.cls-3,.cls-4,.cls-6,.cls-7,.cls-8,.cls-9,.cls-10,.cls-11,.cls-5{stroke-miterlimit:10;}.cls-2,.cls-6,.cls-7,.cls-8,.cls-9,.cls-11,.cls-5,.cls-12,.cls-13{stroke:#425066;}.cls-3{stroke:#e5e6e8;}.cls-4{stroke:#ff6f00;}.cls-14{fill:#3a485f;opacity:.05;}.cls-15{fill:url(#linear-gradient);}.cls-16,.cls-6{fill:#fff;}.cls-17,.cls-7{fill:#e5e6e8;}.cls-18,.cls-12{fill:#ff6f00;}.cls-19,.cls-9,.cls-10{fill:#b8baba;}.cls-20{fill:#ced0d1;}.cls-21{fill:#ccc;}.cls-22,.cls-11{fill:#425066;}.cls-23{fill:url(#linear-gradient-3);}.cls-24{fill:url(#linear-gradient-2);}.cls-6,.cls-7,.cls-8,.cls-9,.cls-10,.cls-11,.cls-5,.cls-12,.cls-13{stroke-linecap:round;stroke-width:.75px;}.cls-8,.cls-13{fill:#697587;}.cls-10{stroke:#b8baba;}.cls-12,.cls-13{stroke-linejoin:round;}</style><linearGradient id="linear-gradient" x1="563.94" y1="267.97" x2="474.73" y2="319.47" gradientTransform="matrix(1, 0, 0, 1, 0, 0)" gradientUnits="userSpaceOnUse"><stop offset="0" stop-color="#e5e6e8"/><stop offset="1" stop-color="#b8baba"/></linearGradient><linearGradient id="linear-gradient-2" x1="641.62" y1="95.88" x2="500.45" y2="177.39" xlink:href="#linear-gradient"/><linearGradient id="linear-gradient-3" x1="531.19" y1="369.29" x2="583.16" y2="279.28" xlink:href="#linear-gradient"/></defs><g id="Footer"><g><path class="cls-3" d="M192.91,413.42c-4.47-42.9,17.84-86.54,66.95-121.86m118.24,40.58l-10.66-6.17c-.81-.46-1.48-1.15-1.91-1.98-1.26-2.39-.33-5.35,2.06-6.61,77.95-40.5,198.06-39.09,273.09,4.22,36.38,21.1,55.69,48.16,57.93,75.66"/><path class="cls-3" d="M663.56,308.37l46.85-27.03c.8-.46,1.45-1.13,1.88-1.94,1.28-2.39,.38-5.37-2.01-6.65-118.22-63.66-302.01-63.66-420.14,0-.81,.44-1.48,1.09-1.93,1.88-1.35,2.35-.53,5.35,1.82,6.7l93.96,54.25c.65,.38,1.2,.9,1.62,1.52,1.5,2.26,.9,5.31-1.36,6.81-53.29,34.98-51,88.32,6.86,121.71,60.24,34.77,157.91,34.77,218.14,0,32.5-18.77,47.47-43.81,44.89-68.39"/><path class="cls-2" d="M228.11,214.1l130.24,75.19c.89,.52,1.6,1.3,2.02,2.24,1.11,2.48,0,5.38-2.47,6.49-8.18,3.7-16.14,7.88-23.84,12.49-83.83,50.36-83.05,135.08,1.05,184.95,45.27,26.85,105.14,40.25,165.16,40.25"/><path class="cls-4" d="M799.64,481.24l-71.88-41.47c-6.08-3.51-13.57-3.51-19.64,0l-62.02,35.79c-6.08,3.51-13.57,3.51-19.64,0l-37.52-21.66c-.65-.37-1.2-.88-1.62-1.5-1.52-2.24-.93-5.28,1.31-6.79,38.27-26.21,36.01-65.44-6.73-90.12-45.2-26.04-118.29-26.04-163.42,0-42.76,24.64-44.94,63.91-6.75,90.12,.62,.42,1.13,.97,1.5,1.61,1.35,2.34,.55,5.33-1.79,6.68l-46.49,26.85"/><g><path class="cls-16" d="M500.27,540.44c-2.61,0-4.73-2.12-4.73-4.73s2.12-4.73,4.73-4.73,4.73,2.12,4.73,4.73-2.12,4.73-4.73,4.73Z"/><path class="cls-22" d="M500.27,532.8c1.6,0,2.91,1.31,2.91,2.91s-1.31,2.91-2.91,2.91-2.91-1.31-2.91-2.91,1.31-2.91,2.91-2.91m0-3.64c-3.62,0-6.55,2.93-6.55,6.55s2.93,6.55,6.55,6.55,6.55-2.93,6.55-6.55-2.93-6.55-6.55-6.55h0Z"/></g><circle class="cls-18" cx="365.04" cy="480.75" r="6.55"/><g><path class="cls-16" d="M799.67,485.97c-2.61,0-4.73-2.12-4.73-4.73s2.12-4.73,4.73-4.73,4.73,2.12,4.73,4.73-2.12,4.73-4.73,4.73Z"/><path class="cls-18" d="M799.67,478.33c1.6,0,2.91,1.31,2.91,2.91s-1.31,2.91-2.91,2.91-2.91-1.31-2.91-2.91,1.31-2.91,2.91-2.91m0-3.64c-3.62,0-6.55,2.93-6.55,6.55s2.93,6.55,6.55,6.55,6.55-2.93,6.55-6.55-2.93-6.55-6.55-6.55h0Z"/></g><g><path class="cls-16" d="M654.23,401.98c-2.61,0-4.73-2.12-4.73-4.73s2.12-4.73,4.73-4.73,4.73,2.12,4.73,4.73-2.12,4.73-4.73,4.73Z"/><path class="cls-17" d="M654.23,394.34c1.6,0,2.91,1.31,2.91,2.91s-1.31,2.91-2.91,2.91-2.91-1.31-2.91-2.91,1.31-2.91,2.91-2.91m0-3.64c-3.62,0-6.55,2.93-6.55,6.55s2.93,6.55,6.55,6.55,6.55-2.93,6.55-6.55-2.93-6.55-6.55-6.55h0Z"/></g><circle class="cls-17" cx="664.43" cy="309.26" r="6.55"/><circle class="cls-17" cx="259.86" cy="291.56" r="6.55"/><circle class="cls-17" cx="192.91" cy="413.4" r="6.55"/></g><circle class="cls-22" cx="228.11" cy="214.1" r="6.55"/><circle class="cls-17" cx="698.61" cy="397.27" r="6.55"/><path class="cls-3" d="M758.54,229.17l-62.77,36.24"/><g><path class="cls-16" d="M758.54,233.72c-2.61,0-4.73-2.12-4.73-4.73s2.12-4.73,4.73-4.73,4.73,2.12,4.73,4.73-2.12,4.73-4.73,4.73Z"/><path class="cls-17" d="M758.54,226.08c1.6,0,2.91,1.31,2.91,2.91s-1.31,2.91-2.91,2.91-2.91-1.31-2.91-2.91,1.31-2.91,2.91-2.91m0-3.64c-3.62,0-6.55,2.93-6.55,6.55s2.93,6.55,6.55,6.55,6.55-2.93,6.55-6.55-2.93-6.55-6.55-6.55h0Z"/></g><path class="cls-21" d="M806.65,227.37c-1.2,.7-2.23,.8-3.08,.32s-1.28-1.42-1.28-2.8c0-.57,.11-1.22,.32-1.95s.53-1.47,.96-2.2l19.66-33.91-2.23-1.27-19.66,33.91c-.43,.73-.89,1.37-1.38,1.9-.5,.53-1.03,.96-1.59,1.29-1.2,.7-2.21,.81-3.03,.35-.81-.46-1.22-1.39-1.22-2.77,0-.81,.11-1.55,.32-2.2s.5-1.28,.85-1.89l19.66-33.91-2.23-1.27-19.66,33.79c-.43,.73-.89,1.36-1.38,1.9s-1.06,.98-1.7,1.35c-1.13,.65-2.13,.74-2.98,.25s-1.28-1.38-1.28-2.68c0-.65,.11-1.32,.32-2.01,.21-.69,.53-1.4,.96-2.14l19.66-33.91-2.23-1.27-19.56,33.85c-.35,.61-.78,1.18-1.28,1.71s-1.1,1-1.81,1.41c-1.2,.7-2.21,.83-3.03,.41-.81-.42-1.22-1.33-1.22-2.71,0-.65,.11-1.32,.32-2.01,.21-.69,.53-1.4,.96-2.14l23.7-40.88,13.5,7.7c.78,.44,1.65,.7,2.6,.75s2.11-.3,3.45-1.08c2.27-1.31,4.18-3.25,5.74-5.81s2.34-5.27,2.34-8.12c0-1.14-.19-2.14-.58-3.02-.39-.87-1.05-1.57-1.97-2.1l-19.02-10.85,.64-1.22c1.2-2,2.55-3.77,4.04-5.32,1.49-1.55,2.98-2.75,4.46-3.61,1.84-1.06,3.54-1.7,5.1-1.91,1.56-.21,2.98,.05,4.25,.78l17.96,10.36c1.28,.73,2.21,1.81,2.82,3.25s.9,3.34,.9,5.7c0,1.63-.32,3.46-.96,5.49-.64,2.03-1.56,4.09-2.76,6.17l-35.39,61.16c-.57,.98-1.06,1.67-1.49,2.08s-.92,.78-1.49,1.1Zm-33.48-16.28l-5.74-3.27c-1.2-.61-2.13-1.62-2.76-3.04-.64-1.42-.96-3.11-.96-5.06s.35-4.27,1.06-6.47,1.59-4.21,2.66-6.05l17.96-31.1c1.13-1.96,2.48-3.77,4.04-5.44,1.56-1.67,3.08-2.94,4.57-3.8,1.91-1.1,3.61-1.78,5.1-2.03,1.49-.25,2.94,.03,4.36,.84l21.79,12.42c.64,.36,1.08,.8,1.33,1.31,.25,.51,.37,1.09,.37,1.74,0,1.63-.46,3.23-1.38,4.82s-2.09,2.79-3.51,3.61c-.64,.37-1.29,.56-1.97,.59s-1.33-.15-1.97-.51l-15.73-8.97-29.23,50.41Z"/><path class="cls-21" d="M195.08,205.24v-34.39l-40.49,1.62-46.66-56.21,46.66-2.33,46.87,56.33v38.66l-6.38-3.68Zm-40.49-3.5l-30.82-37.18v-25.61l30.82,37.18,30.82-1.6v25.61l-30.82,1.6Z"/><path class="cls-21" d="M832.15,470.43l-18.49-10.68c-1.7-.98-3.19-2.59-4.46-4.83-1.28-2.24-1.91-4.42-1.91-6.53v-21.46c3.12,1.39,5.79,1.54,8.02,.43,2.23-1.11,3.35-3.41,3.35-6.91,0-3.5-1.12-7.09-3.35-10.77-2.23-3.69-4.91-6.63-8.02-8.84v-21.46c0-1.87,.64-3.19,1.91-3.96,1.28-.77,2.76-.66,4.46,.32l18.7,10.8c.78-2.8,2.13-4.69,4.04-5.66,1.91-.97,4.29-.63,7.12,1s5.24,4.06,7.44,7.4c2.2,3.34,3.68,6.86,4.46,10.57l18.7,10.8c1.63,.94,3.1,2.54,4.41,4.8s1.97,4.33,1.97,6.2v21.46c2.83,2.53,5.15,5.58,6.96,9.14,1.81,3.56,2.71,6.93,2.71,10.1s-.9,5.45-2.71,6.61c-1.81,1.15-4.13,1.36-6.96,.62v21.46c0,1.95-.66,3.28-1.97,3.99-1.31,.71-2.78,.59-4.41-.35l-18.49-10.68c-.35-4.11-1.7-8.03-4.04-11.78-2.34-3.75-5.03-6.5-8.08-8.26-2.69-1.55-5.17-1.79-7.44-.7-2.27,1.09-3.58,3.48-3.93,7.18Z"/></g><g id="Main"><g><ellipse class="cls-14" cx="500.27" cy="402.67" rx="81.52" ry="47.07"/><g><path class="cls-19" d="M654.09,198.26c0-.36-.03-.71-.04-1.06-.03-.89-.06-1.79-.1-2.67-.02-.39-.04-.77-.07-1.15-.05-.85-.1-1.7-.16-2.53-.03-.36-.06-.72-.09-1.08-.07-.87-.15-1.73-.23-2.58-.03-.3-.06-.6-.09-.9-.1-.92-.21-1.84-.32-2.75-.03-.22-.06-.43-.09-.65-.14-1.02-.28-2.02-.44-3.02-.02-.1-.03-.2-.05-.3-4.28-26.59-16.37-45.62-33.7-55.63-.14-.08-.29-.17-.43-.25-.14-.08-.29-.17-.43-.25-.14-.08-.29-.17-.43-.25-.14-.08-.29-.17-.43-.25-.14-.08-.29-.17-.43-.25-.14-.08-.29-.17-.43-.25-.14-.08-.29-.17-.43-.25-.14-.08-.29-.17-.43-.25-.14-.08-.29-.17-.43-.25-.14-.08-.29-.17-.43-.25-.14-.08-.29-.17-.43-.25-.14-.08-.29-.17-.43-.25-.14-.08-.29-.17-.43-.25-.14-.08-.29-.17-.43-.25-.14-.08-.29-.17-.43-.25-.14-.08-.29-.17-.43-.25-.14-.08-.29-.17-.43-.25-.14-.08-.29-.17-.43-.25-.14-.08-.29-.17-.43-.25-.14-.08-.29-.17-.43-.25-.14-.08-.29-.17-.43-.25-.14-.08-.29-.17-.43-.25-.14-.08-.29-.17-.43-.25-.14-.08-.29-.17-.43-.25-.14-.08-.29-.17-.43-.25-.14-.08-.29-.17-.43-.25-.14-.08-.29-.17-.43-.25-.14-.08-.29-.17-.43-.25-.14-.08-.29-.17-.43-.25-.14-.08-.29-.17-.43-.25-.14-.08-.29-.17-.43-.25-.14-.08-.29-.17-.43-.25-.14-.08-.29-.17-.43-.25-.14-.08-.29-.17-.43-.25-.14-.08-.29-.17-.43-.25-.14-.08-.29-.17-.43-.25-.14-.08-.29-.17-.43-.25-.14-.08-.29-.17-.43-.25-.14-.08-.29-.17-.43-.25-22.1-13.02-52.85-11.26-86.86,8.37-1.07,.62-2.13,1.25-3.19,1.89-.31,.19-.61,.38-.92,.57-.75,.46-1.51,.93-2.26,1.41-.34,.22-.69,.45-1.03,.67-.71,.46-1.43,.92-2.13,1.39-.34,.23-.67,.46-1.01,.69-.71,.48-1.43,.96-2.14,1.46-.31,.22-.62,.44-.93,.66-.74,.52-1.47,1.04-2.21,1.57-.28,.2-.55,.41-.82,.61-.77,.56-1.53,1.13-2.29,1.7-.24,.18-.48,.37-.72,.56-.79,.61-1.59,1.22-2.38,1.84-.2,.16-.39,.32-.59,.47-.83,.66-1.66,1.33-2.49,2-.15,.13-.31,.26-.46,.38-.87,.72-1.74,1.44-2.6,2.17-.1,.09-.21,.18-.31,.27-.92,.78-1.83,1.57-2.74,2.37-.05,.04-.1,.09-.15,.13-50.68,44.72-88.37,118.47-90.37,182.08,0,.19-.01,.39-.02,.58-.04,1.57-.07,3.14-.07,4.69h0c0,38.7,13.71,65.82,35.85,78.35,.14,.08,.29,.17,.43,.25,.14,.08,.29,.17,.43,.25,.14,.08,.29,.17,.43,.25,.14,.08,.29,.17,.43,.25,.14,.08,.29,.17,.43,.25,.14,.08,.29,.17,.43,.25,.14,.08,.29,.17,.43,.25,.14,.08,.29,.17,.43,.25,.14,.08,.29,.17,.43,.25,.14,.08,.29,.17,.43,.25,.14,.08,.29,.17,.43,.25,.14,.08,.29,.17,.43,.25,.14,.08,.29,.17,.43,.25,.14,.08,.29,.17,.43,.25,.14,.08,.29,.17,.43,.25,.14,.08,.29,.17,.43,.25,.14,.08,.29,.17,.43,.25,.14,.08,.29,.17,.43,.25,.14,.08,.29,.17,.43,.25,.14,.08,.29,.17,.43,.25,.14,.08,.29,.17,.43,.25,.14,.08,.29,.17,.43,.25,.14,.08,.29,.17,.43,.25,.14,.08,.29,.17,.43,.25,.14,.08,.29,.17,.43,.25,.14,.08,.29,.17,.43,.25,.14,.08,.29,.17,.43,.25,.14,.08,.29,.17,.43,.25,.14,.08,.29,.17,.43,.25,.14,.08,.29,.17,.43,.25,.14,.08,.29,.17,.43,.25,.14,.08,.29,.17,.43,.25,.14,.08,.29,.17,.43,.25,.14,.08,.29,.17,.43,.25,.14,.08,.29,.17,.43,.25,.14,.08,.29,.17,.43,.25,.14,.08,.29,.17,.43,.25,.14,.08,.29,.17,.43,.25,.14,.08,.29,.17,.43,.25,22.07,12.74,52.64,10.88,86.43-8.63,45.77-26.43,85.65-78.42,106.47-133.27l.03-.09c.41-1.07,.8-2.14,1.19-3.21,.03-.09,.07-.18,.1-.27,.38-1.04,.75-2.09,1.12-3.14,.03-.09,.06-.17,.09-.26,1.85-5.31,3.52-10.64,5-15.97,.09-.31,.18-.62,.26-.94,.21-.77,.42-1.55,.62-2.32,.11-.43,.23-.86,.34-1.29,.18-.72,.36-1.44,.54-2.15,.12-.49,.24-.98,.36-1.47,.16-.68,.32-1.36,.48-2.04,.12-.53,.24-1.06,.36-1.58,.15-.65,.29-1.3,.43-1.96,.12-.56,.23-1.12,.35-1.68,.13-.62,.26-1.25,.38-1.87,.12-.61,.23-1.22,.35-1.83,.11-.58,.22-1.15,.32-1.73,.15-.83,.29-1.67,.43-2.5,.11-.66,.22-1.31,.32-1.97,.13-.85,.26-1.69,.39-2.54,.07-.49,.13-.97,.2-1.46,.1-.7,.19-1.41,.28-2.11,.06-.51,.12-1.02,.18-1.53,.08-.68,.16-1.35,.23-2.03,.06-.52,.11-1.03,.16-1.54,.07-.67,.13-1.34,.19-2.01,.04-.51,.09-1.01,.13-1.52,.05-.68,.1-1.36,.15-2.04,.03-.49,.07-.99,.1-1.48,.04-.7,.08-1.4,.11-2.1,.02-.46,.05-.93,.07-1.39,.03-.77,.05-1.53,.07-2.3,.01-.39,.03-.78,.03-1.17,.02-1.13,.04-2.26,.04-3.39v-.05c0-1.27-.02-2.53-.05-3.78Zm-66.61-24.53c.14,.08,.29,.17,.43,.25,.14,.08,.29,.17,.43,.25,.14,.08,.29,.17,.43,.25,.14,.08,.29,.17,.43,.25,.14,.08,.29,.17,.43,.25,.14,.08,.29,.17,.43,.25,.14,.08,.29,.17,.43,.25,.14,.08,.29,.17,.43,.25,.14,.08,.29,.17,.43,.25,.14,.08,.29,.17,.43,.25,.14,.08,.29,.17,.43,.25,.14,.08,.29,.17,.43,.25,.14,.08,.29,.17,.43,.25,.14,.08,.29,.17,.43,.25,.14,.08,.29,.17,.43,.25,.14,.08,.29,.17,.43,.25,.14,.08,.29,.17,.43,.25,.14,.08,.29,.17,.43,.25,2.24,1.31,4.86,1.98,7.78,1.93,4.22-.08,9.56-2.33,14.82-5.73,.57,2.36,1.05,4.81,1.46,7.33,.01,.09,.03,.17,.04,.26,.14,.87,.26,1.74,.38,2.62,.03,.19,.05,.38,.07,.56,.1,.79,.19,1.58,.28,2.39,.03,.26,.06,.52,.08,.78,.07,.74,.14,1.49,.2,2.24,.03,.31,.05,.62,.08,.93,.05,.73,.1,1.46,.14,2.2,.02,.33,.04,.67,.06,1,.04,.77,.06,1.54,.09,2.32,0,.31,.02,.61,.03,.92,.03,1.09,.04,2.18,.04,3.29v.04c0,.98-.01,1.96-.03,2.95,0,.34-.02,.68-.03,1.02-.02,.66-.04,1.33-.06,2-.02,.4-.04,.8-.06,1.21-.03,.61-.06,1.21-.1,1.82-.03,.43-.06,.86-.09,1.28-.04,.59-.08,1.18-.13,1.77-.04,.44-.07,.88-.11,1.32-.05,.58-.11,1.16-.16,1.75-.04,.45-.09,.89-.14,1.34-.06,.59-.13,1.17-.2,1.76-.05,.44-.1,.88-.16,1.33-.08,.61-.16,1.22-.24,1.83-.06,.42-.11,.84-.17,1.26-.11,.73-.22,1.47-.34,2.21-.09,.57-.18,1.14-.28,1.71-.12,.72-.24,1.45-.37,2.17-.09,.5-.19,1-.28,1.5-.1,.53-.2,1.06-.3,1.59-.11,.54-.22,1.08-.33,1.62-.1,.49-.2,.97-.3,1.46-.12,.57-.25,1.13-.37,1.7-.1,.46-.2,.92-.31,1.38-.14,.59-.27,1.18-.42,1.77-.1,.42-.21,.85-.31,1.27-.15,.62-.31,1.25-.47,1.87-.1,.37-.19,.75-.29,1.12-.18,.67-.35,1.34-.54,2.02-.07,.27-.15,.54-.23,.81-1.28,4.63-2.73,9.26-4.34,13.88-.03,.08-.05,.15-.08,.23-.32,.91-.64,1.82-.97,2.72-.03,.08-.06,.16-.09,.24-.34,.93-.69,1.86-1.04,2.79l-.03,.08c-9.93,26.14-24.84,51.53-42.84,72.92l9.89-29.25c1.02-2.56,1.69-5.15,1.94-7.58l3.56-33.41c.64-6.01-1.19-10.17-4.41-11.87-.14-.09-.29-.17-.43-.25-.14-.09-.29-.17-.43-.25-.14-.09-.29-.17-.43-.25-.14-.09-.29-.17-.43-.25-.14-.09-.29-.17-.43-.25-.14-.09-.29-.17-.43-.25-.14-.09-.29-.17-.43-.25-.14-.09-.29-.17-.43-.25-.14-.09-.29-.17-.43-.25-.14-.09-.29-.17-.43-.25-.14-.09-.29-.17-.43-.25-.14-.09-.29-.17-.43-.25-.14-.09-.29-.17-.43-.25-.14-.09-.29-.17-.43-.25-.14-.09-.29-.17-.43-.25-.14-.09-.29-.17-.43-.25-.14-.09-.29-.17-.43-.25-.14-.09-.29-.17-.43-.25-.14-.09-.29-.17-.43-.25-.14-.09-.29-.17-.43-.25-.14-.09-.29-.17-.43-.25-.14-.09-.29-.17-.43-.25-.14-.09-.29-.17-.43-.25-.14-.09-.29-.17-.43-.25-.14-.09-.29-.17-.43-.25-.14-.09-.29-.17-.43-.25-.14-.09-.29-.17-.43-.25-.14-.09-.29-.17-.43-.25-.14-.09-.29-.17-.43-.25-.14-.09-.29-.17-.43-.25-.14-.09-.29-.17-.43-.25-.14-.09-.29-.17-.43-.25-.14-.09-.29-.17-.43-.25-.14-.09-.29-.17-.43-.25-.14-.09-.29-.17-.43-.25-.14-.09-.29-.17-.43-.25-.14-.09-.29-.17-.43-.25-.14-.09-.29-.17-.43-.25-.14-.09-.29-.17-.43-.25-3.1-1.94-7.65-1.43-12.58,2.13l-9.88,7.15c-4.51,3.26-9.03,4.11-12.27,2.32l-4.75-2.64c-3.95-2.18-9.72-.42-14.98,4.59l-28.96,27.55c-4.17,3.96-7.36,9.34-8.99,14.65l-.04-.02-.08-.05c-.11-.08-.24-.13-.35-.2l-.08-.05c-.11-.08-.24-.13-.35-.2l-.08-.05c-.11-.08-.24-.13-.35-.2l-.08-.05c-.11-.08-.24-.13-.35-.2l-.08-.05c-.11-.08-.24-.13-.35-.2l-.08-.05c-.11-.08-.24-.13-.35-.2l-.08-.05c-.11-.08-.24-.13-.35-.2l-.08-.05c-.11-.08-.24-.13-.35-.2l-.08-.05c-.11-.08-.24-.13-.35-.2l-.08-.05c-.11-.08-.24-.13-.35-.2l-.08-.05c-.11-.08-.24-.13-.35-.2l-.08-.05c-.11-.08-.24-.13-.35-.2l-.08-.05c-.11-.08-.24-.13-.35-.2l-.08-.05c-.11-.08-.24-.13-.35-.2l-.08-.05c-.11-.08-.24-.13-.35-.2l-.08-.05c-.11-.08-.24-.13-.35-.2l-.08-.05c-.11-.08-.24-.13-.35-.2l-.08-.05c-1.54-1.05-3.62-1.06-5.86-.11,.34-1.78,.84-3.61,1.53-5.46l1.2-3.22c1.84-4.95,6.28-8.58,9.32-7.63l2.57,.82c1.58,.5,3.76-.65,5.45-2.86,2.17-2.84,2.84-6.52,1.5-8.28l-4.31-5.6s1.06-4.3,2.33-9.44c2.81-11.39,8.31-23,15.7-33.08l.4-.54c5.91-8.06,6.25-17.78,1.38-20.27-.14-.09-.28-.17-.43-.25-.14-.09-.28-.17-.43-.25-.14-.09-.28-.17-.43-.25-.14-.09-.28-.17-.43-.25-.14-.09-.28-.17-.43-.25-.14-.09-.28-.17-.43-.25-.14-.09-.28-.17-.43-.25-.14-.09-.28-.17-.43-.25-.14-.09-.28-.17-.43-.25-.14-.09-.28-.17-.43-.25-.14-.09-.28-.17-.43-.25-.14-.09-.28-.17-.43-.25-.14-.09-.28-.17-.43-.25-.14-.09-.28-.17-.43-.25-.14-.09-.28-.17-.43-.25-.14-.09-.28-.17-.43-.25-.14-.09-.28-.17-.43-.25-.14-.09-.28-.17-.43-.25-.14-.09-.28-.17-.43-.25-.14-.09-.28-.17-.43-.25-.14-.09-.28-.17-.43-.25-.14-.09-.28-.17-.43-.25-.14-.09-.28-.17-.43-.25-.14-.09-.28-.17-.43-.25-.14-.09-.28-.17-.43-.25-.12-.08-.25-.16-.38-.22,8.11-10.14,16.9-19.48,26.2-27.69,.04-.04,.09-.08,.13-.12,.79-.7,1.58-1.38,2.38-2.06,.09-.08,.18-.16,.27-.23,.75-.64,1.51-1.27,2.26-1.89,.13-.11,.27-.22,.4-.33,.72-.59,1.44-1.17,2.16-1.74,.17-.14,.34-.27,.51-.41,.69-.54,1.38-1.07,2.07-1.6,.21-.16,.42-.32,.63-.48,.66-.5,1.32-.99,1.99-1.48,.24-.18,.48-.35,.72-.53,.64-.46,1.28-.91,1.92-1.37,.27-.19,.54-.38,.81-.57,.62-.43,1.24-.85,1.86-1.27,.29-.2,.59-.4,.88-.6,.62-.41,1.24-.81,1.85-1.21,.3-.19,.59-.39,.89-.58,.65-.41,1.31-.82,1.96-1.22,.27-.16,.53-.33,.8-.5,.92-.56,1.85-1.11,2.77-1.64,.44-.26,.88-.5,1.32-.74,.08,.05,.16,.09,.24,.13,.14,.1,.28,.18,.43,.25,.14,.1,.28,.18,.43,.25,.14,.1,.28,.18,.43,.25,.14,.1,.28,.18,.43,.25,.14,.1,.28,.18,.43,.25,.14,.1,.28,.18,.43,.25,.14,.1,.28,.18,.43,.25,.14,.1,.28,.18,.43,.25,.14,.1,.28,.18,.43,.25,.14,.1,.28,.18,.43,.25,.14,.1,.28,.18,.43,.25,.14,.1,.28,.18,.43,.25,1.29,.93,3.28,.46,4.91,.19l21.8-3.65c.31-.05,.62-.09,.93-.12l5.15,11.43c1.5,3.34,3.75,5.82,6.55,7.31,.14,.08,.29,.17,.43,.25,.14,.08,.29,.17,.43,.25,.14,.08,.29,.17,.43,.25,.14,.08,.29,.17,.43,.25,.14,.08,.29,.17,.43,.25,.14,.08,.29,.17,.43,.25,.14,.08,.29,.17,.43,.25,.14,.08,.29,.17,.43,.25,.14,.08,.29,.17,.43,.25,.14,.08,.29,.17,.43,.25,.14,.08,.29,.17,.43,.25,.14,.08,.29,.17,.43,.25,.14,.08,.29,.17,.43,.25,.14,.08,.29,.17,.43,.25,.14,.08,.29,.17,.43,.25,.14,.08,.29,.17,.43,.25,.14,.08,.29,.17,.43,.25,.14,.08,.29,.17,.43,.25,.14,.08,.29,.17,.43,.25,.14,.08,.29,.17,.43,.25,.14,.08,.29,.17,.43,.25Zm-161.05,159.78h0c0-1.35,.03-2.71,.06-4.08,0-.05,0-.1,0-.15,.14,.08,.28,.17,.42,.24,.14,.09,.28,.17,.43,.25,.14,.09,.28,.17,.43,.25,.14,.09,.28,.17,.43,.25,.14,.09,.28,.17,.43,.25,.14,.09,.28,.17,.43,.25,.14,.09,.28,.17,.43,.25,.14,.09,.28,.17,.43,.25,.14,.09,.28,.17,.43,.25,.14,.09,.28,.17,.43,.25,.14,.09,.28,.17,.43,.25,.14,.09,.28,.17,.43,.25,.14,.09,.28,.17,.43,.25,.14,.09,.28,.17,.43,.25,.14,.09,.28,.17,.43,.25,.14,.09,.28,.17,.43,.25,.14,.09,.28,.17,.43,.25,.14,.09,.28,.17,.43,.25,.14,.09,.28,.17,.43,.25,.14,.09,.28,.17,.43,.25,.14,.09,.28,.17,.43,.25,.14,.09,.28,.17,.43,.25,.14,.09,.28,.17,.43,.25,.14,.09,.28,.17,.43,.25,.14,.09,.28,.17,.43,.25,3.14,1.9,7.69,1.24,12.37-2.13l10.23-7.38c2.21-1.3,4.39-2.21,6.48-2.75l2.98,22.12c.49,3.65,2.14,6.17,4.53,7.37,.14,.09,.28,.18,.43,.25,.14,.09,.28,.18,.43,.25,.14,.09,.28,.18,.43,.25,.14,.09,.28,.18,.43,.25,.14,.09,.28,.18,.43,.25,.14,.09,.28,.18,.43,.25,.14,.09,.28,.18,.43,.25,.14,.09,.28,.18,.43,.25,.14,.09,.28,.18,.43,.25,.14,.09,.28,.18,.43,.25,.14,.09,.28,.18,.43,.25,.14,.09,.28,.18,.43,.25,.14,.09,.28,.18,.43,.25,.14,.09,.28,.18,.43,.25,.14,.09,.28,.18,.43,.25,.14,.09,.28,.18,.43,.25,.14,.09,.28,.18,.43,.25,.14,.09,.28,.18,.43,.25,.14,.09,.28,.18,.43,.25,.14,.09,.28,.18,.43,.25,.14,.09,.28,.18,.43,.25,.14,.09,.28,.18,.43,.25,.14,.09,.28,.18,.43,.25,.14,.09,.28,.18,.43,.25,.14,.09,.28,.18,.43,.25,.14,.09,.28,.18,.43,.25,.14,.09,.28,.18,.43,.25,.14,.09,.28,.18,.43,.25,.14,.09,.28,.18,.43,.25,.14,.09,.28,.18,.43,.25,.14,.09,.28,.18,.43,.25,.14,.09,.28,.18,.43,.25,.14,.09,.28,.18,.43,.25,.14,.09,.28,.18,.43,.25,.14,.09,.28,.18,.43,.25,.14,.09,.28,.18,.43,.25,.14,.09,.28,.18,.43,.25,.14,.09,.28,.18,.43,.25,.14,.09,.28,.18,.43,.25,2.39,1.42,5.61,1.41,9.21-.29l12.66-5.98,7.84,22.49c.24,.45,.95,1.15,.95,1.15-2.15,1.39-4.31,2.72-6.48,3.98-24.93,14.39-47.85,17.73-65.94,11.62-14.15-12.48-22.6-33.66-22.6-61.97Z"/><path class="cls-15" d="M577.76,291.9l-58.52-33.79c-3.95-2.18-9.72-.42-14.98,4.59l-28.96,27.55c-4.17,3.96-7.35,9.33-8.99,14.64l31.8,18.36,78.66-22.12,.98-9.22Z"/><path class="cls-19" d="M546.71,135.18l-53.75,39.83,4.62,2.67c2.44-2.38,4.92-4.7,7.44-6.92,.04-.04,.09-.08,.13-.12,.79-.7,1.58-1.38,2.38-2.06,.09-.08,.18-.16,.27-.23,.75-.64,1.51-1.27,2.26-1.89,.13-.11,.27-.22,.4-.33,.72-.59,1.44-1.17,2.16-1.74,.17-.14,.34-.27,.51-.41,.69-.54,1.38-1.07,2.07-1.6,.21-.16,.42-.32,.63-.48,.66-.5,1.32-.99,1.99-1.48,.24-.18,.48-.35,.72-.53,.64-.46,1.28-.91,1.92-1.37,.27-.19,.54-.38,.81-.57,.62-.43,1.24-.85,1.86-1.27,.29-.2,.59-.4,.88-.6,.62-.41,1.24-.81,1.85-1.21,.3-.19,.59-.39,.89-.58,.65-.41,1.31-.82,1.96-1.22,.27-.16,.53-.33,.8-.5,.92-.56,1.85-1.11,2.77-1.64,.44-.26,.88-.5,1.32-.74,.08,.05,.16,.09,.24,.13,.14,.1,.28,.18,.43,.25,.14,.1,.28,.18,.43,.25,.14,.1,.28,.18,.43,.25,.14,.1,.28,.18,.43,.25,.14,.1,.28,.18,.43,.25,.14,.1,.28,.18,.43,.25,.14,.1,.28,.18,.43,.25,.14,.1,.28,.18,.43,.25,.14,.1,.28,.18,.43,.25,.14,.1,.28,.18,.43,.25,.14,.1,.28,.18,.43,.25,.14,.1,.28,.18,.43,.25,1.29,.93,3.28,.46,4.91,.19l21.8-3.65c.31-.05,.62-.09,.93-.12l5.15,11.43c1.5,3.34,3.75,5.82,6.55,7.31,.14,.08,.29,.17,.43,.25,.14,.08,.29,.17,.43,.25,.14,.08,.29,.17,.43,.25,.14,.08,.29,.17,.43,.25,.14,.08,.29,.17,.43,.25,.14,.08,.29,.17,.43,.25,.14,.08,.29,.17,.43,.25,.14,.08,.29,.17,.43,.25,.14,.08,.29,.17,.43,.25,.14,.08,.29,.17,.43,.25,.14,.08,.29,.17,.43,.25,.14,.08,.29,.17,.43,.25,.14,.08,.29,.17,.43,.25,.14,.08,.29,.17,.43,.25,.14,.08,.29,.17,.43,.25,.14,.08,.29,.17,.43,.25,.14,.08,.29,.17,.43,.25,.14,.08,.29,.17,.43,.25,.14,.08,.29,.17,.43,.25,.14,.08,.29,.17,.43,.25,.14,.08,.29,.17,.43,.25,.14,.08,.29,.17,.43,.25,.14,.08,.29,.17,.43,.25,.14,.08,.29,.17,.43,.25,.14,.08,.29,.17,.43,.25,.14,.08,.29,.17,.43,.25,.14,.08,.29,.17,.43,.25,.14,.08,.29,.17,.43,.25,.14,.08,.29,.17,.43,.25,.14,.08,.29,.17,.43,.25,.14,.08,.29,.17,.43,.25,.14,.08,.29,.17,.43,.25,.14,.08,.29,.17,.43,.25,.14,.08,.29,.17,.43,.25,.14,.08,.29,.17,.43,.25,.14,.08,.29,.17,.43,.25,.14,.08,.29,.17,.43,.25,.14,.08,.29,.17,.43,.25,.14,.08,.29,.17,.43,.25,2.24,1.31,4.86,1.98,7.78,1.93,.75-.01,1.54-.12,2.35-.26l23.05-29.98-81.74-14.75Z"/><path class="cls-24" d="M542.02,134.33l4.69,.85,3.12-2.31-3.12,2.31,81.74,14.75,7.92-10.3c-5-6.52-10.93-11.78-17.66-15.67-.14-.08-.29-.17-.43-.25-.14-.08-.29-.17-.43-.25-.14-.08-.29-.17-.43-.25-.14-.08-.29-.17-.43-.25-.14-.08-.29-.17-.43-.25-.14-.08-.29-.17-.43-.25-.14-.08-.29-.17-.43-.25-.14-.08-.29-.17-.43-.25-.14-.08-.29-.17-.43-.25-.14-.08-.29-.17-.43-.25-.14-.08-.29-.17-.43-.25-.14-.08-.29-.17-.43-.25-.14-.08-.29-.17-.43-.25-.14-.08-.29-.17-.43-.25-.14-.08-.29-.17-.43-.25-.14-.08-.29-.17-.43-.25-.14-.08-.29-.17-.43-.25-.14-.08-.29-.17-.43-.25-.14-.08-.29-.17-.43-.25-.14-.08-.29-.17-.43-.25-.14-.08-.29-.17-.43-.25-.14-.08-.29-.17-.43-.25-.14-.08-.29-.17-.43-.25-.14-.08-.29-.17-.43-.25-.14-.08-.29-.17-.43-.25-.14-.08-.29-.17-.43-.25-.14-.08-.29-.17-.43-.25-.14-.08-.29-.17-.43-.25-.14-.08-.29-.17-.43-.25-.14-.08-.29-.17-.43-.25-.14-.08-.29-.17-.43-.25-.14-.08-.29-.17-.43-.25-.14-.08-.29-.17-.43-.25-.14-.08-.29-.17-.43-.25-.14-.08-.29-.17-.43-.25-.14-.08-.29-.17-.43-.25-.14-.08-.29-.17-.43-.25-.14-.08-.29-.17-.43-.25-.14-.08-.29-.17-.43-.25-22.1-13.02-52.85-11.26-86.86,8.37-1.07,.62-2.13,1.25-3.19,1.89-.31,.19-.61,.38-.92,.57-.75,.46-1.51,.93-2.26,1.41-.34,.22-.69,.45-1.03,.67-.71,.46-1.43,.92-2.13,1.39-.34,.23-.67,.46-1.01,.69-.71,.48-1.43,.96-2.14,1.46-.31,.22-.62,.44-.93,.66-.74,.52-1.47,1.04-2.21,1.57-.28,.2-.55,.41-.82,.61-.77,.56-1.53,1.13-2.29,1.7-.24,.18-.48,.37-.72,.56-.79,.61-1.59,1.22-2.38,1.84-.2,.16-.39,.32-.59,.47-.83,.66-1.66,1.33-2.49,2-.15,.13-.31,.26-.46,.38-.87,.72-1.74,1.44-2.6,2.17-.1,.09-.21,.18-.31,.27-.92,.78-1.83,1.57-2.74,2.37-.05,.04-.1,.09-.15,.13-5.37,4.74-10.59,9.82-15.64,15.17l25.02,14.45,53.75-39.83-4.69-.85Z"/><path class="cls-17" d="M575.61,258.89c-.14-.09-.29-.17-.43-.25-.14-.09-.29-.17-.43-.25-.14-.09-.29-.17-.43-.25-.14-.09-.29-.17-.43-.25-.14-.09-.29-.17-.43-.25-.14-.09-.29-.17-.43-.25-.14-.09-.29-.17-.43-.25-.14-.09-.29-.17-.43-.25-.14-.09-.29-.17-.43-.25-.14-.09-.29-.17-.43-.25-.14-.09-.29-.17-.43-.25-.14-.09-.29-.17-.43-.25-.14-.09-.29-.17-.43-.25-.14-.09-.29-.17-.43-.25-.14-.09-.29-.17-.43-.25-.14-.09-.29-.17-.43-.25-.14-.09-.29-.17-.43-.25-.14-.09-.29-.17-.43-.25-.14-.09-.29-.17-.43-.25-.14-.09-.29-.17-.43-.25-.14-.09-.29-.17-.43-.25-.14-.09-.29-.17-.43-.25-.14-.09-.29-.17-.43-.25-.14-.09-.29-.17-.43-.25-.14-.09-.29-.17-.43-.25-.14-.09-.29-.17-.43-.25-.14-.09-.29-.17-.43-.25-.14-.09-.29-.17-.43-.25-.14-.09-.29-.17-.43-.25-.14-.09-.29-.17-.43-.25-.14-.09-.29-.17-.43-.25-.14-.09-.29-.17-.43-.25-.14-.09-.29-.17-.43-.25-.14-.09-.29-.17-.43-.25-.14-.09-.29-.17-.43-.25-.14-.09-.29-.17-.43-.25-.14-.09-.29-.17-.43-.25-.14-.09-.29-.17-.43-.25-.14-.09-.29-.17-.43-.25-3.1-1.94-7.65-1.43-12.58,2.13l-9.88,7.15c-4.51,3.26-9.03,4.11-12.27,2.32l-4.75-2.64,58.52,33.79,2.25-21.13c.64-6.01-1.19-10.17-4.41-11.87Z"/><path class="cls-19" d="M427.15,347.06l-33.94-19.59c0,.19-.01,.39-.02,.58-.04,1.57-.07,3.14-.07,4.69h0c0,38.7,13.71,65.82,35.85,78.35,.14,.08,.29,.17,.43,.25,.14,.08,.29,.17,.43,.25,.14,.08,.29,.17,.43,.25,.14,.08,.29,.17,.43,.25,.14,.08,.29,.17,.43,.25,.14,.08,.29,.17,.43,.25,.14,.08,.29,.17,.43,.25,.14,.08,.29,.17,.43,.25,.14,.08,.29,.17,.43,.25,.14,.08,.29,.17,.43,.25,.14,.08,.29,.17,.43,.25,.14,.08,.29,.17,.43,.25,.14,.08,.29,.17,.43,.25,.14,.08,.29,.17,.43,.25,.14,.08,.29,.17,.43,.25,.14,.08,.29,.17,.43,.25,.14,.08,.29,.17,.43,.25,.14,.08,.29,.17,.43,.25,.14,.08,.29,.17,.43,.25,.14,.08,.29,.17,.43,.25,.14,.08,.29,.17,.43,.25,.14,.08,.29,.17,.43,.25,.14,.08,.29,.17,.43,.25,.14,.08,.29,.17,.43,.25,.14,.08,.29,.17,.43,.25,.14,.08,.29,.17,.43,.25,.14,.08,.29,.17,.43,.25,.14,.08,.29,.17,.43,.25,.14,.08,.29,.17,.43,.25,.14,.08,.29,.17,.43,.25,.14,.08,.29,.17,.43,.25,.14,.08,.29,.17,.43,.25,.14,.08,.29,.17,.43,.25,.14,.08,.29,.17,.43,.25,.14,.08,.29,.17,.43,.25,.14,.08,.29,.17,.43,.25,.14,.08,.29,.17,.43,.25,.14,.08,.29,.17,.43,.25,.14,.08,.29,.17,.43,.25,.97,.56,1.95,1.08,2.95,1.58l-4.35-31.52c-9.23-10.39-15.34-25.2-17.31-43.85Z"/><path class="cls-17" d="M521.45,379.88c-2.14,1.39-4.3,2.72-6.48,3.98-24.93,14.4-47.85,17.73-65.94,11.62-1.6-1.41-3.12-2.94-4.57-4.58l4.35,31.52c21.81,10.96,51.17,8.44,83.48-10.21,7.1-4.1,14.05-8.81,20.82-14.06l-31.66-18.28Z"/><g><polygon class="cls-1" points="510.42 357.3 513.69 359.19 512.66 356.24 510.42 357.3"/><path class="cls-19" d="M466.31,304.89h-.04l-.08-.06c-.11-.08-.24-.13-.35-.2l-.08-.05c-.11-.08-.24-.13-.35-.2l-.08-.05c-.11-.08-.24-.13-.35-.2l-.08-.05c-.11-.08-.24-.13-.35-.2l-.08-.05c-.11-.08-.24-.13-.35-.2l-.08-.05c-.11-.08-.24-.13-.35-.2l-.08-.05c-.11-.08-.24-.13-.35-.2l-.08-.05c-.11-.08-.24-.13-.35-.2l-.08-.05c-.11-.08-.24-.13-.35-.2l-.08-.05c-.11-.08-.24-.13-.35-.2l-.08-.05c-.11-.08-.24-.13-.35-.2l-.08-.05c-.11-.08-.24-.13-.35-.2l-.08-.05c-.11-.08-.24-.13-.35-.2l-.08-.05c-.11-.08-.24-.13-.35-.2l-.08-.05c-.11-.08-.24-.13-.35-.2l-.08-.05c-.11-.08-.24-.13-.35-.2l-.08-.05c-.11-.08-.24-.13-.35-.2l-.08-.05c-1.54-1.05-3.62-1.06-5.86-.11,.34-1.78,.84-3.61,1.53-5.46l1.2-3.22c1.84-4.95,6.28-8.58,9.32-7.63l2.57,.82c1.58,.5,3.76-.65,5.45-2.86,2.17-2.84,2.84-6.52,1.5-8.28l-4.31-5.6s1.06-4.3,2.33-9.44c2.81-11.39,8.31-23,15.7-33.08l.4-.54c5.91-8.06,6.25-17.78,1.38-20.27-.14-.09-.28-.17-.43-.25-.14-.09-.28-.17-.43-.25-.14-.09-.28-.17-.43-.25-.14-.09-.28-.17-.43-.25-.14-.09-.28-.17-.43-.25-.14-.09-.28-.17-.43-.25-.14-.09-.28-.17-.43-.25-.14-.09-.28-.17-.43-.25-.14-.09-.28-.17-.43-.25-.14-.09-.28-.17-.43-.25-.14-.09-.28-.17-.43-.25-.14-.09-.28-.17-.43-.25-.14-.09-.28-.17-.43-.25-.14-.09-.28-.17-.43-.25-.14-.09-.28-.17-.43-.25-.14-.09-.28-.17-.43-.25-.14-.09-.28-.17-.43-.25-.14-.09-.28-.17-.43-.25-.14-.09-.28-.17-.43-.25-.14-.09-.28-.17-.43-.25-.14-.09-.28-.17-.43-.25-.14-.09-.28-.17-.43-.25-.14-.09-.28-.17-.43-.25-.14-.09-.28-.17-.43-.25-.14-.09-.28-.17-.43-.25-.12-.08-.25-.16-.38-.22,5.91-7.39,12.19-14.35,18.76-20.77l-29.64-17.11c-42.61,45.09-72.94,110.04-74.73,166.91l33.94,19.59c-.46-4.32-.71-8.83-.71-13.55,0-1.35,.03-2.71,.06-4.08,0-.05,0-.1,0-.15,.14,.08,.28,.17,.42,.24,.14,.09,.28,.17,.43,.25,.14,.09,.28,.17,.43,.25,.14,.09,.28,.17,.43,.25,.14,.09,.28,.17,.43,.25,.14,.09,.28,.17,.43,.25,.14,.09,.28,.17,.43,.25,.14,.09,.28,.17,.43,.25,.14,.09,.28,.17,.43,.25,.14,.09,.28,.17,.43,.25,.14,.09,.28,.17,.43,.25,.14,.09,.28,.17,.43,.25,.14,.09,.28,.17,.43,.25,.14,.09,.28,.17,.43,.25,.14,.09,.28,.17,.43,.25,.14,.09,.28,.17,.43,.25,.14,.09,.28,.17,.43,.25,.14,.09,.28,.17,.43,.25,.14,.09,.28,.17,.43,.25,.14,.09,.28,.17,.43,.25,.14,.09,.28,.17,.43,.25,.14,.09,.28,.17,.43,.25,.14,.09,.28,.17,.43,.25,.14,.09,.28,.17,.43,.25,.14,.09,.28,.17,.43,.25,3.14,1.9,7.69,1.24,12.37-2.13l10.23-7.38c2.21-1.3,4.39-2.21,6.48-2.75l2.98,22.12c.49,3.65,2.14,6.17,4.53,7.37,.14,.08,.28,.18,.43,.25,.14,.08,.28,.18,.43,.25,.14,.08,.28,.18,.43,.25,.14,.08,.28,.18,.43,.25,.14,.08,.28,.18,.43,.25,.14,.08,.28,.18,.43,.25,.14,.08,.28,.18,.43,.25,.14,.08,.28,.18,.43,.25,.14,.08,.28,.18,.43,.25,.14,.08,.28,.18,.43,.25,.14,.08,.28,.18,.43,.25,.14,.08,.28,.18,.43,.25,.14,.08,.28,.18,.43,.25,.14,.08,.28,.18,.43,.25,.14,.08,.28,.18,.43,.25,.14,.08,.28,.18,.43,.25,.14,.08,.28,.18,.43,.25,.14,.08,.28,.18,.43,.25,.14,.08,.28,.18,.43,.25,.14,.08,.28,.18,.43,.25,.14,.08,.28,.18,.43,.25,.14,.08,.28,.18,.43,.25,.14,.08,.28,.18,.43,.25,.14,.08,.28,.18,.43,.25,.14,.08,.28,.18,.43,.25,.14,.08,.28,.18,.43,.25,.14,.08,.28,.18,.43,.25,.14,.08,.28,.18,.43,.25,.14,.08,.28,.18,.43,.25,.14,.08,.28,.18,.43,.25,.14,.08,.28,.18,.43,.25,.14,.08,.28,.18,.43,.25,.14,.08,.28,.18,.43,.25,.14,.08,.28,.18,.43,.25,.14,.08,.28,.18,.43,.25,.14,.08,.28,.18,.43,.25,.14,.08,.28,.18,.43,.25,.14,.08,.28,.18,.43,.25,.14,.08,.28,.18,.43,.25,2.39,1.42,5.61,1.41,9.21-.29l10.42-4.92-14.06-8.12,14.06,8.12,2.24-1.06,1.03,2.95,26.35,15.21,12.21-19.9-85.94-49.62Z"/><path class="cls-23" d="M654.09,198.26c0-.36-.03-.71-.04-1.06-.03-.89-.06-1.79-.1-2.67-.02-.39-.04-.77-.07-1.15-.05-.85-.1-1.7-.16-2.53-.03-.36-.06-.72-.09-1.08-.07-.87-.15-1.73-.23-2.58-.03-.3-.06-.6-.09-.9-.1-.92-.21-1.84-.32-2.75-.03-.22-.06-.43-.09-.65-.14-1.02-.28-2.02-.44-3.02-.02-.1-.03-.2-.05-.3-2.62-16.26-8.17-29.68-16.05-39.96l-30.97,40.28c3.77-.67,8.14-2.67,12.47-5.47,.57,2.36,1.05,4.81,1.46,7.33,.01,.09,.03,.17,.04,.26,.14,.87,.26,1.74,.38,2.62,.03,.19,.05,.38,.07,.56,.1,.79,.19,1.58,.28,2.39,.03,.26,.06,.52,.08,.78,.07,.74,.14,1.49,.2,2.24,.03,.31,.05,.62,.08,.93,.05,.73,.1,1.46,.14,2.2,.02,.33,.04,.67,.06,1,.04,.77,.06,1.54,.09,2.32,0,.31,.02,.61,.03,.92,.03,1.09,.04,2.18,.04,3.29v.04c0,.98-.01,1.96-.03,2.95,0,.34-.02,.68-.03,1.02-.02,.66-.04,1.33-.06,2-.02,.4-.04,.8-.06,1.21-.03,.61-.06,1.21-.1,1.82-.03,.43-.06,.86-.09,1.28-.04,.59-.08,1.18-.13,1.77-.04,.44-.07,.88-.11,1.32-.05,.58-.11,1.16-.16,1.75-.04,.45-.09,.89-.14,1.34-.06,.59-.13,1.17-.2,1.76-.05,.44-.1,.88-.16,1.33-.08,.61-.16,1.22-.24,1.83-.06,.42-.11,.84-.17,1.26-.11,.73-.22,1.47-.34,2.21-.09,.57-.18,1.14-.28,1.71-.12,.72-.24,1.45-.37,2.17-.09,.5-.19,1-.28,1.5-.1,.53-.2,1.06-.3,1.59-.11,.54-.22,1.08-.33,1.62-.1,.49-.2,.97-.3,1.46-.12,.57-.25,1.13-.37,1.7-.1,.46-.2,.92-.31,1.38-.14,.59-.27,1.18-.42,1.77-.1,.42-.21,.85-.31,1.27-.15,.62-.31,1.25-.47,1.87-.1,.37-.19,.75-.29,1.12-.18,.67-.35,1.34-.54,2.02-.07,.27-.15,.54-.23,.81-1.28,4.63-2.73,9.26-4.34,13.88-.03,.08-.05,.15-.08,.23-.32,.91-.64,1.82-.97,2.72l-.09,.24c-.34,.93-.69,1.86-1.04,2.79l-.03,.08c-9.93,26.14-24.84,51.53-42.84,72.92l9.89-29.25c1.02-2.56,1.69-5.15,1.94-7.58l.33-3.05-78.66,22.12,54.14,31.26-12.21,19.9,24.54,14.17c5.93-5.29,11.69-10.98,17.23-17,24.14-26.28,44.15-58.9,56.95-92.62l.03-.09c.41-1.07,.8-2.14,1.19-3.21,.03-.09,.07-.18,.1-.27,.38-1.04,.75-2.09,1.12-3.14,.03-.09,.06-.17,.09-.26,1.85-5.31,3.52-10.64,5-15.97,.09-.31,.18-.62,.26-.94,.21-.77,.42-1.55,.62-2.32,.11-.43,.23-.86,.34-1.29,.18-.72,.36-1.44,.54-2.15,.12-.49,.24-.98,.36-1.47,.16-.68,.32-1.36,.48-2.04,.12-.53,.24-1.06,.36-1.58,.15-.65,.29-1.3,.43-1.96,.12-.56,.23-1.12,.35-1.68,.13-.62,.26-1.25,.38-1.87,.12-.61,.23-1.22,.35-1.83,.11-.58,.22-1.15,.32-1.73,.15-.83,.29-1.67,.43-2.5,.11-.66,.22-1.31,.32-1.97,.13-.85,.26-1.69,.39-2.54,.07-.49,.13-.97,.2-1.46,.1-.7,.19-1.41,.28-2.11,.06-.51,.12-1.02,.18-1.53,.08-.68,.16-1.35,.23-2.03,.06-.52,.11-1.03,.16-1.54,.07-.67,.13-1.34,.19-2.01,.04-.51,.09-1.01,.13-1.52,.05-.68,.1-1.36,.15-2.04,.03-.49,.07-.99,.1-1.48,.04-.7,.08-1.4,.11-2.1,.02-.46,.05-.93,.07-1.39,.03-.77,.05-1.53,.07-2.3,.01-.39,.03-.78,.03-1.17,.02-1.13,.04-2.26,.04-3.39v-.05c0-1.27-.02-2.53-.05-3.78Z"/><path class="cls-19" d="M513.69,359.19l6.81,19.54c.24,.45,.95,1.15,.95,1.15h0l31.66,18.28c3.71-2.87,7.35-5.91,10.93-9.09l-40.78-23.54,40.78,23.54c.18-.16,.37-.34,.55-.5l-50.9-29.38Z"/></g><path class="cls-20" d="M654.09,198.26c0-.36-.03-.71-.04-1.06-.03-.89-.06-1.79-.1-2.67-.02-.39-.04-.77-.07-1.15-.05-.85-.1-1.7-.16-2.53-.03-.36-.06-.72-.09-1.08-.07-.87-.15-1.73-.23-2.58-.03-.3-.06-.6-.09-.9-.1-.92-.21-1.84-.32-2.75-.03-.22-.06-.43-.09-.65-.14-1.02-.28-2.02-.44-3.02-.02-.1-.03-.2-.05-.3-9.72-60.44-59.8-81.84-120.13-47.01-1.07,.62-2.13,1.25-3.19,1.89-.31,.19-.61,.38-.92,.57-.75,.46-1.51,.93-2.26,1.41-.34,.22-.69,.45-1.03,.67-.71,.46-1.43,.92-2.13,1.39-.34,.23-.67,.46-1.01,.69-.71,.48-1.43,.96-2.14,1.46-.31,.22-.62,.44-.93,.66-.74,.52-1.47,1.04-2.21,1.57-.28,.2-.55,.41-.82,.61-.77,.56-1.53,1.13-2.29,1.7-.24,.18-.48,.37-.72,.56-.79,.61-1.59,1.22-2.38,1.84-.2,.16-.39,.32-.59,.47-.83,.66-1.66,1.33-2.49,2-.15,.13-.31,.26-.46,.38-.87,.72-1.74,1.44-2.6,2.17-.1,.09-.21,.18-.31,.27-.92,.78-1.83,1.57-2.74,2.37-.05,.04-.1,.09-.15,.13-50.68,44.72-88.37,118.47-90.37,182.08,0,.19-.01,.39-.02,.58-.04,1.57-.07,3.14-.07,4.69h0c0,77.22,54.55,108.33,121.85,69.47,45.77-26.43,85.65-78.42,106.47-133.27,.01-.03,.02-.06,.03-.09,.41-1.07,.8-2.14,1.19-3.21,.03-.09,.07-.18,.1-.27,.38-1.04,.75-2.09,1.12-3.14,.03-.09,.06-.17,.09-.26,1.85-5.31,3.52-10.64,5-15.97,.09-.31,.18-.62,.26-.94,.21-.77,.42-1.55,.62-2.32,.11-.43,.23-.86,.34-1.29,.18-.72,.36-1.44,.54-2.15,.12-.49,.24-.98,.36-1.47,.16-.68,.32-1.36,.48-2.04,.12-.53,.24-1.06,.36-1.58,.15-.65,.29-1.3,.43-1.96,.12-.56,.23-1.12,.35-1.68,.13-.62,.26-1.25,.38-1.87,.12-.61,.23-1.22,.35-1.83,.11-.58,.22-1.15,.32-1.73,.15-.83,.29-1.67,.43-2.5,.11-.66,.22-1.31,.32-1.97,.13-.85,.26-1.69,.39-2.54,.07-.49,.13-.97,.2-1.46,.1-.7,.19-1.41,.28-2.11,.06-.51,.12-1.02,.18-1.53,.08-.68,.16-1.35,.23-2.03,.06-.52,.11-1.03,.16-1.54,.07-.67,.13-1.34,.19-2.01,.04-.51,.09-1.01,.13-1.52,.05-.68,.1-1.36,.15-2.04,.03-.49,.07-.99,.1-1.48,.04-.7,.08-1.4,.11-2.1,.02-.46,.05-.93,.07-1.39,.03-.77,.05-1.53,.07-2.3,.01-.39,.03-.78,.03-1.17,.02-1.13,.04-2.26,.04-3.39v-.05c0-1.27-.02-2.53-.05-3.78Zm-227.66,135.25h0c0-1.35,.03-2.71,.06-4.08,0-.17,.01-.34,.02-.51,.13-4.01,.43-8.08,.88-12.17l6.87,15.21c2.52,5.58,8.84,6.16,15.42,1.42l10.23-7.38c6.43-3.78,12.6-4.36,17.05-1.61l6.27,5.33,3.46,25.66c.97,7.23,6.48,10.06,13.3,6.83l15.01-7.09c5.24-2.48,9.85-1.43,12.07,2.78l10.74,30.82c.24,.45,.95,1.15,.95,1.15-2.15,1.39-4.31,2.72-6.48,3.98-58.46,33.75-105.85,6.73-105.85-60.35Zm211.71-122.19c0,.98-.01,1.96-.03,2.95,0,.34-.02,.68-.03,1.02-.02,.66-.04,1.33-.06,2-.02,.4-.04,.8-.06,1.21-.03,.61-.06,1.21-.1,1.82-.03,.43-.06,.86-.08,1.28-.04,.59-.08,1.18-.13,1.77-.04,.44-.07,.88-.11,1.32-.05,.58-.11,1.16-.16,1.75-.04,.45-.09,.89-.14,1.34-.06,.59-.13,1.17-.2,1.76-.05,.44-.1,.88-.16,1.33-.08,.61-.16,1.22-.24,1.83-.06,.42-.11,.84-.17,1.26-.11,.73-.22,1.47-.34,2.21-.09,.57-.18,1.14-.28,1.71-.12,.72-.24,1.45-.37,2.17-.09,.5-.19,1-.28,1.5-.1,.53-.2,1.06-.3,1.59-.11,.54-.22,1.08-.33,1.62-.1,.49-.2,.97-.3,1.46-.12,.57-.25,1.13-.37,1.7-.1,.46-.2,.92-.31,1.38-.14,.59-.27,1.18-.42,1.77-.1,.42-.21,.85-.31,1.27-.15,.62-.31,1.25-.47,1.87-.1,.37-.19,.75-.29,1.12-.18,.67-.35,1.35-.54,2.02-.07,.27-.15,.54-.23,.81-1.28,4.63-2.73,9.26-4.34,13.88-.03,.08-.05,.15-.08,.23-.32,.91-.64,1.82-.97,2.72l-.09,.24c-.34,.93-.69,1.86-1.04,2.79l-.03,.08c-15.24,40.15-42.23,78.52-74.13,103.35l.47-.47,23.4-69.21c1.02-2.56,1.69-5.15,1.94-7.58l3.56-33.41c1.25-11.76-6.93-16.45-16.55-9.49l-9.88,7.15c-4.51,3.26-9.03,4.11-12.27,2.32l-4.75-2.64c-3.95-2.18-9.72-.42-14.98,4.59l-28.96,27.55c-4.32,4.11-7.61,9.74-9.18,15.24l-7.29-4.91c-1.83-1.25-4.42-1.05-7.13,.52l-4.44,2.57c-2.67,1.54-5.2,1.97-7.21,1.38-2.03-.59-3.56-2.2-4.28-4.74-1.19-4.17-.68-9.65,1.41-15.28l1.2-3.22c1.84-4.95,6.28-8.58,9.32-7.63l2.57,.82c1.58,.5,3.76-.65,5.45-2.86,2.17-2.84,2.84-6.52,1.5-8.28l-4.31-5.6s1.06-4.3,2.33-9.44c2.81-11.39,8.31-23,15.7-33.08l.4-.54c6.68-9.12,6.25-20.34-.79-20.86l-.67-.06c-5.39-.41-12.26,5.65-15.42,13.61l-.43,1.09c-2.79,7.02-8.53,12.69-13.68,13.53l-1.51,.24-.31-.18c13.23-23.49,30.15-45.01,49.19-61.82,.04-.04,.09-.08,.13-.12,.79-.7,1.58-1.38,2.38-2.06,.09-.08,.18-.16,.27-.23,.75-.64,1.51-1.27,2.26-1.89,.13-.11,.27-.22,.4-.33,.72-.59,1.44-1.17,2.16-1.74,.17-.14,.34-.27,.51-.41,.69-.54,1.38-1.07,2.07-1.6,.21-.16,.42-.32,.63-.48,.66-.5,1.32-.99,1.99-1.48,.24-.18,.48-.35,.72-.53,.64-.46,1.28-.91,1.92-1.37,.27-.19,.54-.38,.81-.57,.62-.43,1.24-.85,1.86-1.27,.29-.2,.59-.4,.88-.6,.62-.41,1.24-.81,1.85-1.21,.3-.19,.59-.39,.89-.58,.65-.41,1.31-.82,1.96-1.22,.27-.16,.53-.33,.8-.5,.92-.56,1.85-1.11,2.77-1.64,1.85-1.07,3.69-2.07,5.52-3.02v.09c-.75,7.09,3.28,5.98,6.14,5.51l21.8-3.65c8.17-1.37,14.73,2.02,18.01,9.34l5.4,11.97c2.66,5.9,7.61,9.09,13.9,8.99,7.14-.13,17.48-6.44,25.18-14.11l.15-.12c3.87,7.36,6.68,16,8.27,25.84,.01,.09,.03,.17,.04,.26,.14,.87,.26,1.74,.38,2.62,.03,.19,.05,.38,.07,.56,.1,.79,.19,1.58,.28,2.39,.03,.26,.06,.52,.08,.78,.07,.74,.14,1.49,.2,2.24,.03,.31,.05,.62,.08,.93,.05,.73,.1,1.46,.14,2.2,.02,.33,.04,.67,.06,1,.04,.77,.06,1.54,.09,2.32,0,.31,.02,.61,.03,.92,.03,1.09,.04,2.18,.04,3.29v.04Z"/></g></g><g><polygon class="cls-11" points="566.52 146.35 567.77 155.39 562.4 157.09 556.76 152.71 566.52 146.35"/><path class="cls-6" d="M561.04,154.05c1.55,.78,4.63,1.7,6.43-1.93,.17-.34,.62-.42,.91-.17l10.22,9.05c.44,.39,.47,1.06,.06,1.48-1.12,1.13-3.58,2.92-7.33,1.97,0,0-1.78-.95-3.01-2.28,0,0-1.84-1.5-4.07-1.78,0,0-2.97-.35-3.4-2.68l-.57-3.1c-.08-.42,.36-.76,.74-.57Z"/><path class="cls-6" d="M567.77,155.88s1.42-1.87,1.65-2.99"/><path class="cls-6" d="M568.79,156.89s1.42-1.87,1.65-2.99"/><path class="cls-6" d="M569.81,157.9s1.42-1.87,1.65-2.99"/><path class="cls-6" d="M513.08,110.65l-7.09-1.25-1.69,16.72-.06,.21-3.64,1.78c-.33,.16-.6,.43-.77,.76l-.7,1.37-.75,.32c-.21,.09-.4,.24-.53,.42l-.9,1.25c-.16,.22-.24,.48-.24,.75v.55l-.15,.21c-.39,.53-.35,1.23,.04,1.74l-.75,.55c-.46,.34-.16,1.06,.41,.99,3.47-.42,6.26-2.34,7.52-3.35v.85l-1.82,2.1s-.42,1.35,1.14,1.71l.94-1.31,1.68-1.6,.53-.28c.86-.46,1.49-1.25,1.74-2.2s.47-2.22,.47-3.91l2.81-7.27s2.75-7.27,1.82-11.12Z"/><polygon class="cls-6" points="548.92 90.69 556.11 109.61 549.68 106.78 542.66 91.95 548.92 90.69"/><path class="cls-7" d="M548.55,87.49l1.13,4.29s-1.28,2.76-7.55,2.42l-1.23-4.88,7.65-1.82Z"/><path class="cls-9" d="M532.39,62.88l3.65,1.48,9.29,17.02c.14,.26,.38,.47,.66,.57h0c.66,.25,.98,.99,.72,1.64l-.05,.12c-.18,.46-.08,.99,.27,1.35l.66,.68h1.07l.41,1.07c.1,.25,.11,.51,.05,.77-.32,1.19-1.98,4.36-10.68,4.79l-8.35-30.44,2.31,.95Z"/><path class="cls-6" d="M568.64,173.89c.08,1.65-1.37,2.99-3.02,2.99h-.81c-1.67,0-3.23-.84-4.16-2.23l-6.77-10.16c-.22-.33-.34-.72-.34-1.11v-2.15l1.25,.83c1.28,.84,2.99,.59,3.97-.59,.6-.72,1.46-1.08,2.31-1.08,.71,0,1.41,.25,1.97,.74h.01l5.44,11.99c.09,.25,.14,.51,.15,.77Z"/><path class="cls-11" d="M563.04,161.13c-.56-.49-1.26-.74-1.97-.74-.85,0-1.71,.36-2.31,1.08-.98,1.18-2.69,1.43-3.97,.59l-1.25-.83v-4.14l6.9-1.7,2.6,5.74Z"/><path class="cls-8" d="M545.04,103.11l21.56,12.65c1.87,1.1,2.86,3.24,2.47,5.38-1.25,6.85-3.57,21.74-1.19,27.18,0,0-2.78,5.73-9.94,2.69l-4.21-23.5-18.71-17.86,10.03-6.54Z"/><path class="cls-5" d="M559.09,149.75s3.88,1.45,6.09-.72"/><path class="cls-8" d="M536.8,106.78l-12.26,5.01-.81,9.67,22.56,13.07v3.27c0,2.17,.34,4.32,1,6.38l5,15.6s6.54,2.51,9.31-2.51l-2.35-26.7c-.16-1.78-.96-3.44-2.25-4.66l-13.03-12.35"/><path class="cls-5" d="M551.84,158.38c3.14,.78,5.28,1.4,8.6-1.28"/><line class="cls-6" x1="546.36" y1="115.84" x2="547.99" y2="111.26"/><path class="cls-6" d="M558.26,127.5s.92-2.37,2.89-3.62"/><line class="cls-6" x1="546.29" y1="134.53" x2="548.97" y2="131.58"/><path class="cls-6" d="M547.63,135.07c1.97-.63,2.42-.54,3.76-.54"/><path class="cls-6" d="M558.8,164.01c1.63-1.73,2.88-2.74,4.75-1.76"/><path class="cls-6" d="M559.53,165.79c1.63-1.73,2.88-2.74,4.75-1.76"/><path class="cls-6" d="M560.25,167.58c1.63-1.73,2.88-2.74,4.75-1.76"/><path class="cls-7" d="M506.51,103.38l-.79,6.59s4.15,2.95,7.63,1.34l1.53-4.42c-3.42,.49-6.58-.1-8.37-3.51Z"/><path class="cls-6" d="M522.03,109.11l6.32,3.48c2.6,1.43,5.79,1.28,8.25-.39l7.77-5.3c1.3-.89,2.26-2.19,2.73-3.7h0l-5.37-20.95-5.35-11.37c-2.01-4.28-5.72-7.52-10.23-8.95h0l-7.61,4.92,3.49,42.26Z"/><path class="cls-10" d="M526.15,61.93s13.36,3.92,20.21,43.19c0,0,2.07-.02,3.73,.95,0,0-5.39-13.79-9.18-29.23,0,0-2.81-10.21-14.76-14.91Z"/><path class="cls-5" d="M526.15,61.93s13.36,3.92,20.21,43.19c0,0,2.07-.02,3.73,.95,0,0-5.39-13.79-9.18-29.23"/><path class="cls-9" d="M528.7,122.3c1.37-6,4.43-26.14-7.52-54.44l-.2-5.93-1.1,.95-6.93,5.96c-1.12,.96-1.95,2.17-2.45,3.53-.24,.63-.41,1.3-.49,1.98l-3.33,23.11c-.32-.05-.65,.05-.89,.3-.37,.41-.33,1.04,.08,1.41,.18,.16,.34,.31,.49,.45l-.34,2.36c-.11,.78,.06,1.6,.55,2.22,1.97,2.5,5.29,3.12,8.31,2.69v-.02c.33-.51,.55-1.06,.73-1.63,.28-.04,.45-.07,.48-.08,.54-.11,.88-.64,.77-1.18-.09-.45-.48-.75-.91-.78,0-.29,.01-.58-.02-.88-.09-.89-.02-1.79,.21-2.65l.28-1.03c.57,1.46,1.19,2.85,1.86,4.1,0,0-.25,6.31-1.22,9.53-.46,1.53-.38,3.16,.36,4.58,1.33,2.57,4.42,6.28,11.51,9.26-.26-.74-.4-1.51-.4-2.29,0-.51,.06-1.02,.18-1.53Z"/><circle class="cls-13" cx="532.82" cy="80.48" r="4.17"/><path class="cls-6" d="M520.29,53.17l-.41,11.72s.41,6.3,6.24,4.47c0,0,3.58-.47,3.97-7.42l-2.37-8.76h-7.42Z"/><path class="cls-6" d="M536,57.69c-.12,.61-.27,1.25-.45,1.91-.19,.75-.43,1.53-.7,2.33-.41,1.22-.91,2.51-1.51,3.85l-.12,.02c-.85,.09-5.93,.38-9.98-5.37,0,0-1.48-2.13-.62-6.33l-1.21-.49,2.16-8.83,12.41,2.07s.3,.85,.49,2.42c.22,1.85,.29,4.72-.47,8.42Z"/><path class="cls-5" d="M506.67,97.47s1.42,2.43,5.89,3.11"/><path class="cls-5" d="M510.3,102.4s1.59,1.25,5.64,.81"/><path class="cls-5" d="M507.33,102.4s1.74,2.2,5.23,2.12"/><path class="cls-6" d="M523.73,71.39c2.1,.08,5.32-1.15,6.36-3.41"/><path class="cls-12" d="M538.96,45.24c.01,.92-.31,1.83-.88,2.55-.37,.47-.9,1.02-1.61,1.48-1.63,1.07-4.23,1.69-8.11,.02,0,0-1.05-.74-2.09-.95-.85-.19-1.58,.62-1.38,1.47l.41,1.73c.09,.39-.01,.8-.28,1.09l-1.03,1.13c-.27,.3-.38,.72-.27,1.11,.28,1.07,1.04,3.13,2.78,3.77,.68,.24,1.42,.13,2.03-.25,.19-.13,.37-.27,.48-.43,.39-.54,2.16-2.28,6.99-.27-.48,2.37-1.31,5.08-2.66,8.09l-.12,.02c-.85,.09-5.93,.38-9.98-5.37,0,0-1.48-2.13-.62-6.33l-1.21-.49-1.12-.45s-1.02-4.59,.91-8.05c.83-1.49,2.59-2.17,4.26-1.83,1.86,.38,4.98,.57,9.24-.68,.72-.21,1.49-.28,2.21-.08,.96,.26,2.03,.95,2.05,2.72Z"/><ellipse class="cls-6" cx="520.65" cy="53.65" rx="1.9" ry="2.79" transform="translate(3.45 134.03) rotate(-14.72)"/><path class="cls-6" d="M535.55,59.6c-.19,.75-.43,1.53-.7,2.33h-.71l-.33-1.6h-.99l-.6,1.6c-1.79-.75-1.18-2.96-1.18-2.96,3.48-.8,4.51,.63,4.51,.63Z"/><path class="cls-6" d="M534.33,53.17l.41,2.64c.08,.51-.31,.96-.82,.98h-.69"/><path class="cls-6" d="M500.4,129.46l-.47,.45-1.54,.66c-.21,.09-.4,.24-.53,.42l-.9,1.25"/><polyline class="cls-5" points="501.96 129.46 497.23 132.84 496.56 133.75"/><line class="cls-6" x1="495.85" y1="136.04" x2="501.7" y2="131.7"/><line class="cls-6" x1="516.13" y1="99.68" x2="520.65" y2="83"/></g><path class="cls-5" d="M520.02,109.41s3.3,3.34,6.89,4.16"/></g></svg>