<svg height="96" viewBox="0 0 96 96" width="96" xmlns="http://www.w3.org/2000/svg"><g fill="none" fill-rule="evenodd"><g stroke-linecap="round" stroke-linejoin="round" stroke-width="1.5"><path d="m66.1865 21.5-31.177-18-5.196 3m31.1767 18 5.196-3v68l-5.196 3" stroke="#425066"/><path d="m54.062 60.5-17.32-10v-20l17.32 10zm-6.062-29.5-11.258-6.5v-4l11.258 6.5zm-11.2583 23.5 12.99 7.5m-16.4544.5 24.249 14" stroke="#ff6f00"/><path d="m60.9902 92.5-31.177-18v-68l31.177 18z" stroke="#425066"/><path d="m48 21v2l-5.196-3v-2l-9.527-5.5v56l24.249 14v-56z" stroke="#ff6f00"/><path d="m41.938 77.5 7.794 4.5" stroke="#425066"/></g><path d="m0 96h96v-96h-96z" fill="none"/></g></svg>