<svg height="96" viewBox="0 0 96 96" width="96" xmlns="http://www.w3.org/2000/svg"><g fill="none" fill-rule="evenodd"><path d="m0 96h96v-96h-96z" fill="none"/><path d="m77.4717 42.1147c0 .552-.388 1.224-.866 1.5-.479.276-.866.052-.866-.5s.387-1.224.866-1.5c.478-.276.866-.052.866.5m0 3.004c0 .552-.388 1.224-.866 1.5-.479.276-.866.052-.866-.5s.387-1.224.866-1.5c.478-.276.866-.052.866.5m0 2.9887c0 .552-.388 1.224-.866 1.5-.479.276-.866.052-.866-.5s.387-1.224.866-1.5c.478-.276.866-.052.866.5" fill="#425066"/><g stroke-linecap="round" stroke-linejoin="round" stroke-width="1.5"><path d="m45.7295 73.8638v-41.301m23.3408 13.4792-3.765-2.174v-4.351l1.883-1.087-17.693-10.218-1.883 1.087v4.351l-3.765-2.174v-4.351l13.178-7.608 25.224 14.566" stroke="#425066"/><path d="m43.8477 74.9507v4.348l25.223 14.565v-4.348l1.882-1.086v-43.475l-1.882 1.087v-4.351l13.178-7.608v52.173l-11.296 6.521-1.882 1.087v-4.348l-25.223-14.565 1.882-1.087" stroke="#425066"/><path d="m67.1885 55.8457-17.851-10.309m17.8549 3.7607-17.702-10.223m-.0002 13.1014 17.702 10.223m-17.702-3.6722 17.698 10.221m-17.698-3.6703 17.698 10.221m-17.698-3.6702 17.702 10.223" stroke="#ff6f00"/><path d="m15.6338 56.4829v-41.301m23.3408 13.4792-3.766-2.174v-4.35l1.883-1.087-17.693-10.219-1.882 1.087v4.351l-3.766-2.174v-4.351l13.179-7.608 25.223 14.566m-6.4231 55.8809-4.872 2.813-1.883 1.087v-4.347l-25.224-14.566 1.883-1.087" stroke="#425066"/><path d="m13.751 57.5698v4.348l25.224 14.566v-4.348l1.882-1.087v-43.475l-1.882 1.087v-4.35l13.177-7.609v5.628m-13.1774 1.9807-3.766-2.174m12.4037 7.1623-3.765-2.174m-26.3307-15.2063-3.766-2.174m51.5551 29.7726 3.765 2.174" stroke="#425066"/><path d="m37.0918 38.4648-17.851-10.309m17.8559 3.7607-17.702-10.223m-.0002 13.1014 17.702 10.223m-17.702-3.6722 17.697 10.221m-17.697-3.6702 17.697 10.221m-17.697-3.6702 17.702 10.223" stroke="#ff6f00"/></g></g></svg>