<svg height="96" width="96" xmlns="http://www.w3.org/2000/svg"><g fill="none" fill-rule="evenodd"><g stroke-linecap="round" stroke-linejoin="round" stroke-width="1.5"><path d="m88.8037 51.501 5.196-3v-8l-7.544-5.081c-.255-1.103-.59-2.209-.988-3.309l4.894-3.852-4.899-8.486-5.784 2.312c-.753-.894-1.544-1.737-2.371-2.51l-.628-9.074-6.928-4-5.197 3m20.6108 50.041 5.196-2.999-2.938-5.706m-25.3844-14.7901c-.593-1.521-.948-3.085-.948-4.546 0-4.418 3.102-6.209 6.928-4 3.827 2.209 6.928 7.582 6.928 12s-3.101 6.209-6.928 4c-1.263-.729-2.443-1.807-3.462-3.077" stroke="#ff6f00"/><path d="m64.5566 57.502 6.927 3.999.628-8.349c.827.183 1.618.253 2.371.228l5.784 8.991 4.899-2.828-4.894-9.505c.398-.64.733-1.359.988-2.167l7.544 3.63v-8l-7.544-5.081c-.255-1.103-.59-2.209-.988-3.309l4.894-3.852-4.899-8.486-5.784 2.312c-.753-.894-1.544-1.737-2.371-2.51l-.628-9.074-6.928-4-.629 8.349c-.827-.183-1.618-.253-2.37-.228l-5.785-8.991-4.899 2.828 4.894 9.505c-.398.64-.732 1.359-.988 2.167l-7.544-3.63v7.998" stroke="#ff6f00"/><path d="m64.5566 40.4238c1.02 1.271 2.2 2.348 3.462 3.077 3.293 1.901 6.043.834 6.748-2.312-.499-.157-1.017-.379-1.551-.688-3.826-2.209-6.929-7.582-6.929-12 0-.617.067-1.177.181-1.687-3.078-.963-5.377.885-5.377 4.687 0 1.462.356 3.025.948 4.546" stroke="#ff6f00"/><path d="m59.3608 40.5 5.196-3v52l-5.196 3m5.1958-55-57.355-33.114-5.196 3" stroke="#425066"/><path d="m53.3857 16.3389-.955.162-5.196 3m17.2057-8.4726-3.473-5.397-4.899 2.828-.296.172" stroke="#ff6f00"/><path d="m59.3608 40.5v52l-57.355-33.115v-51.999z" stroke="#425066"/></g><path d="m6.3359 12.8857c0 .552-.388.775-.866.5-.479-.276-.866-.948-.866-1.5 0-.553.387-.776.866-.5.478.275.866.947.866 1.5m2.5977 1.5c0 .552-.388.775-.866.5-.478-.276-.866-.948-.866-1.5 0-.553.388-.776.866-.5.478.275.866.947.866 1.5m2.5981 1.5c0 .552-.388.775-.866.5-.478-.276-.866-.948-.866-1.5 0-.553.388-.776.866-.5.478.275.866.947.866 1.5" fill="#425066"/><path d="m8.9336 25.3857 1.732 1m2.5986 1.5 27.91 16.114m-32.2406-12.614 1.732 1m2.5986 1.5 24.446 14.114m-28.7766-10.614 1.732 1m2.5986 1.5 19.25 11.114m-23.5806-7.614 1.732 1m2.5986 1.5 24.446 14.114m-28.7766-10.6149 1.732 1m2.5986 1.5 19.25 11.115m-23.5806-7.615 1.732 1m2.5986 1.5 8.857 5.115m25.9813-14.9998 4.33 2.5m-4.33 3.5 4.33 2.5m-4.33 3.5 4.33 2.5m-4.33 3.5 4.33 2.5" stroke="#ff6f00" stroke-linecap="round" stroke-linejoin="round" stroke-width="1.5"/><path d="m2.0054 13.3857 57.355 33.114" stroke="#425066" stroke-linecap="round" stroke-linejoin="round" stroke-width="1.5"/><path d="m71.4834 61.501 5.196-3 .115-1.527" stroke="#ff6f00" stroke-linecap="round" stroke-linejoin="round" stroke-width="1.5"/><path d="m0 96h96v-96h-96z" fill="none"/></g></svg>