<svg height="96" width="96" xmlns="http://www.w3.org/2000/svg"><g fill="none" fill-rule="evenodd"><path d="m0 96h96v-96h-96z" fill="none"/><g stroke-linecap="round" stroke-linejoin="round" stroke-width="1.5"><path d="m22.1133 27.7402.005.009c-.127-1.394-.198-2.775-.198-4.134 0-8.412 2.506-14.697 6.693-18.408-6.817 2.273-11.336 9.083-11.839 19.45m32.8575 56.8985c9.226 4.742 17.378 4.231 22.754-.533-5.308 1.77-12.004.798-19.289-3.408-1.173-.677-2.33-1.427-3.47-2.231l.005.008" stroke="#ff6f00"/><path d="m87.938 21.5v32l5.196-3v-32z" stroke="#425066"/><path d="m65.4214 2.5 27.713 16-5.196 3-27.713-16z" stroke="#425066"/></g><path d="m60.2251 5.5v5.192" fill="#fff"/><path d="m60.2251 5.5v5.192" stroke="#425066" stroke-linecap="round" stroke-linejoin="round" stroke-width="1.5"/><path d="m60.2251 18.7041v6.998" fill="#fff"/><path d="m60.2251 18.7041v6.998" stroke="#425066" stroke-linecap="round" stroke-linejoin="round" stroke-width="1.5"/><path d="m70.4512 43.4043 17.487 10.096" fill="#fff"/><path d="m70.4512 43.4043 17.487 10.096" stroke="#425066" stroke-linecap="round" stroke-linejoin="round" stroke-width="1.5"/><path d="m65.9282 35.5703 11.662 20.199-5.196 3m-24.4953-42.4265 5.196-3 12.243 21.205m-15.7109 37.3653 22.767-13.144-24.495-42.426-22.763 13.142" stroke="#425066" stroke-linecap="round" stroke-linejoin="round" stroke-width="1.5"/><path d="m51.5732 53.8193c.677 1.172 1.773 1.805 2.45 1.414.676-.391.676-1.656 0-2.828-.677-1.172-1.773-1.805-2.45-1.414-.676.39-.676 1.656 0 2.828m4.899-2.8281c.677 1.171 1.773 1.805 2.45 1.414.676-.391.676-1.657 0-2.828-.677-1.172-1.773-1.805-2.45-1.415-.676.391-.676 1.657 0 2.829m-4.899-8.4853c.677 1.172 1.773 1.805 2.45 1.414.676-.391.676-1.657 0-2.828-.677-1.172-1.773-1.805-2.45-1.414-.676.39-.676 1.656 0 2.828m-9.7978-5.6573c.676 1.172 1.773 1.805 2.45 1.414.676-.39.676-1.656 0-2.828-.677-1.172-1.774-1.805-2.45-1.414-.676.39-.676 1.657 0 2.828m4.8989-2.8281c.677 1.172 1.773 1.805 2.45 1.414.676-.391.676-1.656 0-2.828-.677-1.172-1.773-1.805-2.45-1.414-.676.39-.676 1.656 0 2.828" fill="#425066"/><path d="m84.1353 62.8564-2.729 2.947h-2.459l-.003-.005c-.668 8.233-3.961 14.078-8.957 16.985l.002.003 5.036-2.908-.005-.004c5.074-2.869 8.428-8.727 9.115-17.018z" stroke="#ff6f00" stroke-linecap="round" stroke-linejoin="round" stroke-width="1.5"/><path d="m44.4355 46.6279 5.196-3-41.569-24-5.196 3" stroke="#425066" stroke-linecap="round" stroke-linejoin="round" stroke-width="1.5"/><path d="m44.4355 94.6279 5.196-3v-48l-5.196 3m-41.5698-24v48l41.569 24v-48z" stroke="#425066" stroke-linecap="round" stroke-linejoin="round" stroke-width="1.5"/><path d="m11.5264 63.6279c0 1.104.775 2.447 1.732 3 .957.552 1.732.104 1.732-1s-.775-2.448-1.732-3c-.957-.553-1.732-.104-1.732 1m6.9282 4c0 1.104.775 2.447 1.732 3 .957.552 1.732.104 1.732-1s-.775-2.448-1.732-3c-.957-.553-1.732-.104-1.732 1m6.9282 4c0 1.104.775 2.447 1.732 3 .957.552 1.732.104 1.732-1s-.775-2.448-1.732-3c-.957-.553-1.732-.104-1.732 1m6.9282 4c0 1.104.775 2.447 1.732 3 .957.552 1.732.104 1.732-1s-.775-2.448-1.732-3c-.957-.553-1.732-.104-1.732 1m-20.7846-20c0 1.104.775 2.447 1.732 3 .957.552 1.732.104 1.732-1s-.775-2.448-1.732-3c-.957-.553-1.732-.104-1.732 1m6.9282 4c0 1.104.775 2.447 1.732 3 .957.552 1.732.104 1.732-1s-.775-2.448-1.732-3c-.957-.553-1.732-.104-1.732 1m6.9282 4c0 1.104.775 2.447 1.732 3 .957.552 1.732.104 1.732-1s-.775-2.448-1.732-3c-.957-.553-1.732-.104-1.732 1m6.9282 4c0 1.104.775 2.447 1.732 3 .957.552 1.732.104 1.732-1s-.775-2.448-1.732-3c-.957-.553-1.732-.104-1.732 1m-20.7846-20c0 1.104.775 2.447 1.732 3 .957.552 1.732.104 1.732-1s-.775-2.448-1.732-3c-.957-.553-1.732-.104-1.732 1m6.9282 4c0 1.104.775 2.447 1.732 3 .957.552 1.732.104 1.732-1s-.775-2.448-1.732-3c-.957-.553-1.732-.104-1.732 1m6.9282 4c0 1.104.775 2.447 1.732 3 .957.552 1.732.104 1.732-1s-.775-2.448-1.732-3c-.957-.553-1.732-.104-1.732 1m6.9282 4c0 1.104.775 2.447 1.732 3 .957.552 1.732.104 1.732-1s-.775-2.448-1.732-3c-.957-.553-1.732-.104-1.732 1m-20.7846-20c0 1.104.775 2.447 1.732 3 .957.552 1.732.104 1.732-1s-.775-2.448-1.732-3c-.957-.553-1.732-.104-1.732 1m6.9282 4c0 1.104.775 2.447 1.732 3 .957.552 1.732.104 1.732-1s-.775-2.448-1.732-3c-.957-.553-1.732-.104-1.732 1m6.9282 4c0 1.104.775 2.447 1.732 3 .957.552 1.732.104 1.732-1s-.775-2.448-1.732-3c-.957-.553-1.732-.104-1.732 1m6.9282 4c0 1.104.775 2.447 1.732 3 .957.552 1.732.104 1.732-1s-.775-2.448-1.732-3c-.957-.553-1.732-.104-1.732 1" fill="#425066"/><path d="m75.1299 28.8945c-5.641-9.769-13.427-18.298-22.035-23.268-8.682-5.012-16.532-5.443-22.185-2.094l-.007-.003-5.031 2.905c5.64-3.247 13.427-2.772 22.028 2.192 8.606 4.97 16.394 13.498 22.035 23.268l-5.186 2.994 13.493 7.79 2.095-16.79z" stroke="#ff6f00" stroke-linecap="round" stroke-linejoin="round" stroke-width="1.5"/></g></svg>