<svg height="96" width="96" xmlns="http://www.w3.org/2000/svg"><g fill="none" fill-rule="evenodd"><g stroke="#425066"><path d="m86.937 21.5117v32l5.196-3v-32z" stroke-linecap="round" stroke-linejoin="round" stroke-width="1.5"/><path d="m64.4204 2.5117 27.713 16-5.196 3-27.713-16z" stroke-linecap="round" stroke-linejoin="round" stroke-width="1.5"/><path d="m86.937 53.5117v-32l-27.712-16v17.937" stroke-linecap="round" stroke-linejoin="round" stroke-width="1.5"/></g><path d="m74.813 34.5117c0 1.104.775 2.448 1.732 3 .956.553 1.732.104 1.732-1s-.776-2.447-1.732-3c-.957-.552-1.732-.104-1.732 1m-6.9282-12c0 1.104.775 2.448 1.732 3 .956.553 1.732.104 1.732-1s-.776-2.447-1.732-3c-.957-.552-1.732-.104-1.732 1" fill="#ff6f00"/><path d="m74.813 26.5117c0 1.104.775 2.448 1.732 3 .956.553 1.732.104 1.732-1s-.776-2.447-1.732-3c-.957-.552-1.732-.104-1.732 1" fill="#425066"/><path d="m71.4141 38.4756 5.131-2.964m-12.068-9.0311 5.14-2.969" stroke="#ff6f00" stroke-linecap="round" stroke-linejoin="round" stroke-width="1.5"/><path d="m71.4141 30.4854-5.196 3-34.641-20 5.196-3zm-5.1958 43 5.196-3v-40l-5.196 3z" stroke="#425066" stroke-linecap="round" stroke-linejoin="round" stroke-width="1.5"/><path d="m66.2183 73.4854v-40l-34.641-20v18" stroke="#425066" stroke-linecap="round" stroke-linejoin="round" stroke-width="1.5"/><path d="m54.0938 54.4854c0 1.104.775 2.448 1.732 3 .956.553 1.732.104 1.732-1s-.776-2.447-1.732-3c-.957-.552-1.732-.104-1.732 1" fill="#425066"/><path d="m54.0938 46.4854c0 1.104.775 2.448 1.732 3 .956.553 1.732.104 1.732-1s-.776-2.447-1.732-3c-.957-.552-1.732-.104-1.732 1m-13.8565-16c0 1.104.775 2.448 1.732 3 .956.553 1.732.104 1.732-1s-.776-2.447-1.732-3c-.957-.552-1.732-.104-1.732 1m6.9282 4c0 1.104.775 2.448 1.732 3 .956.553 1.732.104 1.732-1s-.776-2.447-1.732-3c-.957-.552-1.732-.104-1.732 1" fill="#ff6f00"/><path d="m54.0938 38.4854c0 1.104.775 2.448 1.732 3 .956.553 1.732.104 1.732-1s-.776-2.447-1.732-3c-.957-.552-1.732-.104-1.732 1" fill="#425066"/><path d="m43.7017 38.4863 5.196-3.001m1.7346 14.9922 5.131-2.963m-18.9899-13.0282 5.196-3.001" stroke="#ff6f00" stroke-linecap="round" stroke-linejoin="round" stroke-width="1.5"/><path d="m9.0635 18.4883-5.196 3 41.569 24 5.196-3z" stroke="#425066" stroke-linecap="round" stroke-linejoin="round" stroke-width="1.5"/><path d="m50.6323 42.4883-5.196 3v47.999l5.196-3zm-46.7656-21v48l41.569 24v-48z" stroke="#425066" stroke-linecap="round" stroke-linejoin="round" stroke-width="1.5"/><path d="m12.5273 62.4883c0 1.104.775 2.447 1.732 3 .956.552 1.732.104 1.732-1 0-1.105-.776-2.448-1.732-3-.957-.553-1.732-.105-1.732 1" fill="#ff6f00"/><path d="m19.4556 66.4883c0 1.104.775 2.447 1.732 3 .956.552 1.732.104 1.732-1 0-1.105-.776-2.448-1.732-3-.957-.553-1.732-.105-1.732 1m6.9282 4c0 1.104.775 2.447 1.732 3 .956.552 1.732.104 1.732-1 0-1.105-.776-2.448-1.732-3-.957-.553-1.732-.105-1.732 1m6.9282 4c0 1.104.775 2.447 1.732 3 .956.552 1.732.104 1.732-1 0-1.105-.776-2.448-1.732-3-.957-.553-1.732-.105-1.732 1m-20.7847-20c0 1.104.775 2.447 1.732 3 .956.552 1.732.104 1.732-1s-.776-2.448-1.732-3c-.957-.553-1.732-.104-1.732 1" fill="#425066"/><path d="m19.4556 58.4883c0 1.104.775 2.447 1.732 3 .956.552 1.732.104 1.732-1s-.776-2.448-1.732-3c-.957-.553-1.732-.104-1.732 1" fill="#ff6f00"/><path d="m26.3838 62.4883c0 1.104.775 2.447 1.732 3 .956.552 1.732.104 1.732-1s-.776-2.448-1.732-3c-.957-.553-1.732-.104-1.732 1m6.9282 4c0 1.104.775 2.447 1.732 3 .956.552 1.732.104 1.732-1s-.776-2.448-1.732-3c-.957-.553-1.732-.104-1.732 1m-20.7847-20c0 1.104.775 2.447 1.732 3 .956.552 1.732.104 1.732-1s-.776-2.448-1.732-3c-.957-.553-1.732-.104-1.732 1m6.9283 4c0 1.104.775 2.447 1.732 3 .956.552 1.732.104 1.732-1s-.776-2.448-1.732-3c-.957-.553-1.732-.104-1.732 1m6.9282 4c0 1.104.775 2.447 1.732 3 .956.552 1.732.104 1.732-1s-.776-2.448-1.732-3c-.957-.553-1.732-.104-1.732 1" fill="#425066"/><path d="m33.312 58.4883c0 1.104.775 2.447 1.732 3 .956.552 1.732.104 1.732-1s-.776-2.448-1.732-3c-.957-.553-1.732-.104-1.732 1" fill="#ff6f00"/><path d="m12.5273 38.4883c0 1.104.775 2.447 1.732 3 .956.552 1.732.104 1.732-1s-.776-2.448-1.732-3c-.957-.553-1.732-.104-1.732 1" fill="#425066"/><path d="m19.4556 42.4883c0 1.104.775 2.447 1.732 3 .956.552 1.732.104 1.732-1s-.776-2.448-1.732-3c-.957-.553-1.732-.104-1.732 1m6.9282 4c0 1.104.775 2.447 1.732 3 .956.552 1.732.104 1.732-1s-.776-2.448-1.732-3c-.957-.553-1.732-.104-1.732 1" fill="#ff6f00"/><path d="m33.312 50.4883c0 1.104.775 2.447 1.732 3 .956.552 1.732.104 1.732-1s-.776-2.448-1.732-3c-.957-.553-1.732-.104-1.732 1" fill="#425066"/><path d="m66.2183 73.4854-15.586-8.998m36.3047-10.9757-15.523-8.962" stroke="#425066" stroke-linecap="round" stroke-linejoin="round" stroke-width="1.5"/><path d="m0 0h96v96h-96z" fill="none"/></g></svg>