<svg xmlns="http://www.w3.org/2000/svg" width="2500" height="2500" viewBox="0 0 2500 2500" version="1.1"><path d="M 150.212 872.166 L 150.500 881.332 169.240 887.586 C 186.031 893.189, 188.960 893.873, 197.393 894.157 L 206.805 894.474 207.293 901.987 C 207.967 912.366, 207.989 1564.720, 207.316 1568.750 L 206.773 1572 199.137 1572.057 C 192.754 1572.105, 188.462 1573.057, 173 1577.855 L 154.500 1583.597 154.213 1592.786 L 153.925 1601.975 294.713 1601.989 L 435.500 1602.003 450 1595.676 L 464.500 1589.350 465.261 1583.425 C 465.680 1580.166, 465.876 1576.150, 465.696 1574.500 L 465.370 1571.500 445.685 1571.229 C 431.998 1571.040, 426 1570.617, 426 1569.839 C 426 1569.224, 425.213 1568.145, 424.250 1567.441 C 422.611 1566.243, 422.481 1560.742, 422.195 1480.867 C 422.028 1433.954, 422.181 1394.430, 422.535 1393.036 L 423.179 1390.500 424.508 1393.500 C 425.239 1395.150, 425.874 1395.882, 425.919 1395.128 C 425.983 1394.047, 426.306 1394.009, 427.441 1394.951 C 428.233 1395.608, 428.667 1396.705, 428.404 1397.389 C 427.881 1398.753, 430.025 1403.482, 431.297 1403.772 C 432.923 1404.141, 510.571 1562.864, 511.150 1567 C 511.343 1568.375, 511.950 1569.831, 512.500 1570.235 C 513.050 1570.639, 511.475 1570.990, 509 1571.016 C 505.759 1571.049, 500.443 1572.815, 490 1577.327 L 475.500 1583.592 475.500 1592.546 L 475.500 1601.500 612.058 1601.754 L 748.616 1602.007 757.558 1595.710 L 766.500 1589.414 766.793 1581.042 C 767.004 1575.021, 766.723 1572.441, 765.793 1571.851 C 765.082 1571.400, 757.442 1571.024, 748.816 1571.015 L 733.133 1571 726.196 1557.750 C 715.775 1537.844, 650.764 1410.631, 608.017 1326.500 C 598.516 1307.800, 585.864 1283.010, 579.902 1271.410 L 569.062 1250.321 577.281 1243.358 C 581.802 1239.529, 596.036 1227.419, 608.914 1216.448 C 621.791 1205.477, 643.337 1187.162, 656.792 1175.750 L 681.257 1155 706.379 1154.857 C 727.169 1154.738, 743.330 1154.427, 747.250 1154.068 C 747.663 1154.031, 748 1150.184, 748 1145.519 C 748 1137.085, 747.985 1137.035, 745.250 1136.415 C 743.737 1136.072, 739.960 1135.163, 736.856 1134.396 C 732.220 1133.249, 713.686 1133, 633.106 1133 L 535 1133 535 1142 C 535 1146.950, 535.365 1151, 535.811 1151 C 536.257 1151, 543.037 1151.892, 550.878 1152.983 C 561.014 1154.393, 571.688 1155.028, 587.817 1155.180 C 600.293 1155.298, 609.255 1155.561, 607.733 1155.765 C 606.211 1155.969, 605.199 1156.513, 605.484 1156.974 C 605.769 1157.435, 606.902 1157.577, 608.001 1157.289 C 610.330 1156.680, 610.411 1157.004, 608.807 1160.525 C 607.834 1162.660, 607.880 1163.312, 609.057 1164.056 C 609.972 1164.635, 610.061 1164.975, 609.301 1164.985 C 608.641 1164.993, 606.841 1166.340, 605.301 1167.979 C 601.255 1172.282, 537.396 1225.792, 473.592 1278.344 C 460.342 1289.258, 443.977 1302.746, 437.226 1308.317 C 430.476 1313.889, 424.288 1318.819, 423.476 1319.273 C 422.177 1320.001, 422 1293.621, 422 1098.686 L 422 877.272 406.165 870.136 L 390.329 863 270.127 863 L 149.925 863 150.212 872.166 M 1013 903.119 C 938.418 908.549, 881.676 929.683, 844.636 965.827 C 830.171 979.942, 821.601 991.500, 813.484 1007.841 C 796.053 1042.933, 792.396 1088.974, 804.117 1125.759 C 819.819 1175.032, 863.865 1211.992, 927.860 1229.591 C 934.812 1231.503, 942.075 1233.315, 944 1233.618 C 947.932 1234.236, 950.278 1235.966, 948.209 1236.722 C 947.251 1237.072, 947.387 1237.620, 948.738 1238.847 C 949.739 1239.756, 950.524 1241.723, 950.483 1243.218 C 950.416 1245.631, 950.693 1245.869, 952.954 1245.339 C 954.644 1244.942, 955.164 1245.076, 954.500 1245.737 C 953.950 1246.284, 949.900 1247.285, 945.500 1247.961 C 937.257 1249.229, 935.780 1249.576, 915.537 1255.012 C 899.894 1259.213, 878.337 1267.628, 864.108 1275.089 C 802.900 1307.182, 774.259 1363.061, 779.622 1439.926 C 781.732 1470.167, 788.921 1494.139, 802.584 1516.500 C 820.860 1546.410, 849.551 1569.302, 888.371 1584.948 C 904.060 1591.271, 929.441 1598.671, 945 1601.457 C 950.225 1602.393, 957.875 1603.787, 962 1604.556 C 983.409 1608.545, 1019.940 1611.003, 1058.104 1611.024 C 1090.065 1611.041, 1107.446 1610.202, 1132 1607.459 C 1235.789 1595.862, 1298.295 1556.398, 1321.026 1488.112 C 1328.868 1464.556, 1331.540 1444.596, 1330.681 1416 C 1330.009 1393.599, 1327.329 1377.088, 1321.655 1360.376 C 1309.511 1324.610, 1283.067 1294.077, 1247.500 1274.753 C 1230.168 1265.337, 1201.928 1255.020, 1179.500 1249.911 C 1176.200 1249.159, 1174.287 1248.388, 1175.250 1248.199 C 1177.543 1247.746, 1177.459 1247.199, 1174.750 1244.961 L 1172.500 1243.102 1175.272 1240.491 C 1176.796 1239.054, 1177.785 1237.461, 1177.470 1236.951 C 1177.154 1236.441, 1177.621 1236.301, 1178.508 1236.641 C 1179.595 1237.058, 1180.291 1236.601, 1180.648 1235.237 C 1180.975 1233.987, 1182.315 1232.987, 1184.155 1232.619 C 1185.793 1232.291, 1186.872 1231.602, 1186.553 1231.086 C 1186.235 1230.571, 1188.568 1229.413, 1191.737 1228.514 C 1216.951 1221.356, 1246.643 1205.436, 1264 1189.767 C 1287.376 1168.664, 1303.213 1139.540, 1310.184 1104.834 C 1313.257 1089.534, 1313.528 1053.785, 1310.682 1039.150 C 1302.785 998.549, 1278.143 964.862, 1238.859 940.966 C 1204.204 919.886, 1157.272 907.176, 1098.813 903.039 C 1081.870 901.840, 1029.899 901.889, 1013 903.119 M 1045.401 936.893 C 1037.445 938.850, 1028.538 943.495, 1023.115 948.517 C 1012.731 958.130, 1005.705 978.758, 1001.320 1012.500 C 998.685 1032.770, 998.719 1131.835, 1001.368 1154.500 C 1005.353 1188.595, 1009.158 1200.607, 1019.515 1211.793 C 1033.642 1227.052, 1055.017 1232.283, 1079 1226.351 C 1095.989 1222.149, 1108.704 1210.900, 1115.807 1193.789 C 1122.486 1177.697, 1123.688 1164.613, 1124.470 1099.500 C 1125.039 1052.169, 1124.266 1022.235, 1121.978 1003 C 1119.683 983.708, 1114.856 963.423, 1110.603 955.198 C 1108.472 951.078, 1100.564 944.325, 1094 941.020 C 1082.072 935.014, 1060.491 933.182, 1045.401 936.893 M 1598.663 1124.042 C 1555.069 1127.680, 1521.951 1136.428, 1485.500 1153.934 C 1464.471 1164.034, 1449.293 1174.354, 1433.183 1189.510 C 1387.105 1232.857, 1364.809 1299.837, 1369.109 1382 C 1371.397 1425.724, 1378.799 1456.810, 1394.469 1488.500 C 1424.923 1550.093, 1468.749 1585.257, 1535.802 1601.900 C 1576.937 1612.111, 1629.625 1614.107, 1679 1607.325 C 1801.579 1590.490, 1866.013 1514.219, 1871.889 1379 C 1874.920 1309.249, 1862.562 1251.463, 1835.959 1211 C 1803.365 1161.422, 1752.981 1134.383, 1676.500 1125.426 C 1660.938 1123.603, 1613.936 1122.767, 1598.663 1124.042 M 2255 1123.640 C 2253.075 1123.894, 2241.150 1125.426, 2228.500 1127.043 C 2204.941 1130.056, 2191.888 1132.935, 2180.793 1137.564 C 2168.226 1142.809, 2153.324 1152.299, 2143.250 1161.475 L 2137 1167.168 2137 1150.084 L 2137 1133 2018.193 1133 C 1903.649 1133, 1898.995 1133.072, 1888.491 1135.002 C 1882.499 1136.102, 1877.217 1137.383, 1876.754 1137.846 C 1876.290 1138.310, 1876.043 1142.247, 1876.205 1146.595 L 1876.500 1154.500 1902.250 1154.767 L 1928 1155.034 1928.063 1197.267 C 1928.228 1308.166, 1928.244 1374.644, 1928.127 1468.750 L 1928 1571 1904.250 1571.014 C 1891.188 1571.021, 1879.487 1571.299, 1878.250 1571.630 C 1876.163 1572.190, 1876 1572.792, 1876 1579.962 C 1876 1589.187, 1875.555 1588.669, 1890.090 1596.385 L 1900.681 1602.006 2053.590 1601.753 L 2206.500 1601.500 2206.500 1592.606 L 2206.500 1583.713 2189.834 1577.911 L 2173.168 1572.110 2155.334 1571.805 L 2137.500 1571.500 2137.500 1437 C 2137.500 1293.323, 2137.537 1292.076, 2142.527 1268.217 C 2143.825 1262.011, 2146.522 1251.886, 2148.519 1245.717 C 2152.145 1234.522, 2162.325 1212.162, 2166.366 1206.521 C 2167.540 1204.882, 2168.959 1202.641, 2169.520 1201.540 C 2170.081 1200.440, 2171.551 1199.035, 2172.787 1198.419 C 2174.024 1197.802, 2175.365 1196.934, 2175.768 1196.489 C 2176.170 1196.044, 2175.879 1196.039, 2175.120 1196.479 C 2174.177 1197.026, 2173.887 1196.839, 2174.203 1195.889 C 2174.703 1194.388, 2179 1193.713, 2179 1195.137 C 2179 1195.611, 2178.550 1196, 2178 1196 C 2177.450 1196, 2177 1197.350, 2177 1199 C 2177 1200.650, 2177.377 1202, 2177.839 1202 C 2178.300 1202, 2178.637 1204.206, 2178.589 1206.902 C 2178.540 1209.598, 2178.252 1211.652, 2177.949 1211.466 C 2177.099 1210.945, 2174.732 1219.758, 2175.423 1220.875 C 2175.758 1221.418, 2175.582 1222.140, 2175.032 1222.480 C 2174.481 1222.821, 2174.075 1224.089, 2174.129 1225.300 C 2174.183 1226.510, 2173.686 1233.024, 2173.023 1239.777 C 2168.632 1284.554, 2193.072 1314.673, 2237.243 1318.916 C 2289.148 1323.902, 2309.814 1322.569, 2329.708 1312.951 C 2359.387 1298.604, 2374.229 1266.181, 2372.718 1219 C 2372.117 1200.248, 2369.725 1188.740, 2363.755 1175.881 C 2351.977 1150.515, 2326.447 1131.809, 2294.971 1125.483 C 2287.462 1123.973, 2261.528 1122.778, 2255 1123.640 M 1605.500 1145.921 C 1600.061 1146.833, 1592.799 1151.285, 1588.166 1156.549 C 1573.919 1172.735, 1567.410 1202.108, 1564.025 1265.500 C 1562.694 1290.414, 1562.704 1458.617, 1564.038 1485.546 C 1566.068 1526.543, 1569.295 1541.455, 1581.923 1568.182 C 1584.710 1574.079, 1585.531 1574.977, 1589.768 1576.757 C 1596.844 1579.729, 1599.469 1580.149, 1610.524 1580.082 C 1625.189 1579.992, 1633.661 1576.884, 1642.576 1568.321 C 1657.402 1554.082, 1663.177 1531.132, 1665.959 1475.395 C 1667.293 1448.683, 1667.335 1284.480, 1666.015 1260.500 C 1663.960 1223.175, 1660.015 1194.077, 1655.057 1179.665 C 1648.168 1159.643, 1636.407 1148.904, 1618.308 1146.110 C 1614.353 1145.500, 1610.753 1145.056, 1610.308 1145.125 C 1609.864 1145.194, 1607.700 1145.552, 1605.500 1145.921 M 1043.500 1254.482 C 1012.958 1261.217, 997.097 1280.760, 988.607 1322.119 C 978.380 1371.938, 978.314 1461.414, 988.467 1511 C 995.958 1547.585, 1009.134 1565.505, 1034.661 1573.825 C 1048.629 1578.378, 1072.761 1579.092, 1087.946 1575.403 C 1096.706 1573.274, 1109.421 1567.031, 1115.178 1562.030 C 1125.686 1552.904, 1130.930 1541.146, 1135.479 1516.515 C 1140.044 1491.799, 1141.175 1476.958, 1141.722 1434.607 C 1143.202 1319.979, 1128.785 1272.166, 1088.432 1257.876 C 1075.241 1253.205, 1055.913 1251.745, 1043.500 1254.482" stroke="none" fill="#d674bb" fill-rule="evenodd"/><path d="M 0 1250 L 0 2500.001 1250.250 2499.750 L 2500.500 2499.500 2500.750 1249.750 L 2501.001 0 1250.500 0 L 0 0 0 1250 M 0.498 1250.500 C 0.498 1938, 0.612 2219.100, 0.750 1875.167 C 0.888 1531.234, 0.888 968.734, 0.750 625.167 C 0.612 281.600, 0.498 563, 0.498 1250.500 M 150.212 872.166 L 150.500 881.332 169.240 887.586 C 186.031 893.189, 188.960 893.873, 197.393 894.157 L 206.805 894.474 207.293 901.987 C 207.967 912.366, 207.989 1564.720, 207.316 1568.750 L 206.773 1572 199.137 1572.057 C 192.754 1572.105, 188.462 1573.057, 173 1577.855 L 154.500 1583.597 154.213 1592.786 L 153.925 1601.975 294.713 1601.989 L 435.500 1602.003 450 1595.676 L 464.500 1589.350 465.261 1583.425 C 465.680 1580.166, 465.876 1576.150, 465.696 1574.500 L 465.370 1571.500 445.685 1571.229 C 431.998 1571.040, 426 1570.617, 426 1569.839 C 426 1569.224, 425.213 1568.145, 424.250 1567.441 C 422.611 1566.243, 422.481 1560.742, 422.195 1480.867 C 422.028 1433.954, 422.181 1394.430, 422.535 1393.036 L 423.179 1390.500 424.508 1393.500 C 425.239 1395.150, 425.874 1395.882, 425.919 1395.128 C 425.983 1394.047, 426.306 1394.009, 427.441 1394.951 C 428.233 1395.608, 428.667 1396.705, 428.404 1397.389 C 427.881 1398.753, 430.025 1403.482, 431.297 1403.772 C 432.923 1404.141, 510.571 1562.864, 511.150 1567 C 511.343 1568.375, 511.950 1569.831, 512.500 1570.235 C 513.050 1570.639, 511.475 1570.990, 509 1571.016 C 505.759 1571.049, 500.443 1572.815, 490 1577.327 L 475.500 1583.592 475.500 1592.546 L 475.500 1601.500 612.058 1601.754 L 748.616 1602.007 757.558 1595.710 L 766.500 1589.414 766.793 1581.042 C 767.004 1575.021, 766.723 1572.441, 765.793 1571.851 C 765.082 1571.400, 757.442 1571.024, 748.816 1571.015 L 733.133 1571 726.196 1557.750 C 715.775 1537.844, 650.764 1410.631, 608.017 1326.500 C 598.516 1307.800, 585.864 1283.010, 579.902 1271.410 L 569.062 1250.321 577.281 1243.358 C 581.802 1239.529, 596.036 1227.419, 608.914 1216.448 C 621.791 1205.477, 643.337 1187.162, 656.792 1175.750 L 681.257 1155 706.379 1154.857 C 727.169 1154.738, 743.330 1154.427, 747.250 1154.068 C 747.663 1154.031, 748 1150.184, 748 1145.519 C 748 1137.085, 747.985 1137.035, 745.250 1136.415 C 743.737 1136.072, 739.960 1135.163, 736.856 1134.396 C 732.220 1133.249, 713.686 1133, 633.106 1133 L 535 1133 535 1142 C 535 1146.950, 535.365 1151, 535.811 1151 C 536.257 1151, 543.037 1151.892, 550.878 1152.983 C 561.014 1154.393, 571.688 1155.028, 587.817 1155.180 C 600.293 1155.298, 609.255 1155.561, 607.733 1155.765 C 606.211 1155.969, 605.199 1156.513, 605.484 1156.974 C 605.769 1157.435, 606.902 1157.577, 608.001 1157.289 C 610.330 1156.680, 610.411 1157.004, 608.807 1160.525 C 607.834 1162.660, 607.880 1163.312, 609.057 1164.056 C 609.972 1164.635, 610.061 1164.975, 609.301 1164.985 C 608.641 1164.993, 606.841 1166.340, 605.301 1167.979 C 601.255 1172.282, 537.396 1225.792, 473.592 1278.344 C 460.342 1289.258, 443.977 1302.746, 437.226 1308.317 C 430.476 1313.889, 424.288 1318.819, 423.476 1319.273 C 422.177 1320.001, 422 1293.621, 422 1098.686 L 422 877.272 406.165 870.136 L 390.329 863 270.127 863 L 149.925 863 150.212 872.166 M 1013 903.119 C 938.418 908.549, 881.676 929.683, 844.636 965.827 C 830.171 979.942, 821.601 991.500, 813.484 1007.841 C 796.053 1042.933, 792.396 1088.974, 804.117 1125.759 C 819.819 1175.032, 863.865 1211.992, 927.860 1229.591 C 934.812 1231.503, 942.075 1233.315, 944 1233.618 C 947.932 1234.236, 950.278 1235.966, 948.209 1236.722 C 947.251 1237.072, 947.387 1237.620, 948.738 1238.847 C 949.739 1239.756, 950.524 1241.723, 950.483 1243.218 C 950.416 1245.631, 950.693 1245.869, 952.954 1245.339 C 954.644 1244.942, 955.164 1245.076, 954.500 1245.737 C 953.950 1246.284, 949.900 1247.285, 945.500 1247.961 C 937.257 1249.229, 935.780 1249.576, 915.537 1255.012 C 899.894 1259.213, 878.337 1267.628, 864.108 1275.089 C 802.900 1307.182, 774.259 1363.061, 779.622 1439.926 C 781.732 1470.167, 788.921 1494.139, 802.584 1516.500 C 820.860 1546.410, 849.551 1569.302, 888.371 1584.948 C 904.060 1591.271, 929.441 1598.671, 945 1601.457 C 950.225 1602.393, 957.875 1603.787, 962 1604.556 C 983.409 1608.545, 1019.940 1611.003, 1058.104 1611.024 C 1090.065 1611.041, 1107.446 1610.202, 1132 1607.459 C 1235.789 1595.862, 1298.295 1556.398, 1321.026 1488.112 C 1328.868 1464.556, 1331.540 1444.596, 1330.681 1416 C 1330.009 1393.599, 1327.329 1377.088, 1321.655 1360.376 C 1309.511 1324.610, 1283.067 1294.077, 1247.500 1274.753 C 1230.168 1265.337, 1201.928 1255.020, 1179.500 1249.911 C 1176.200 1249.159, 1174.287 1248.388, 1175.250 1248.199 C 1177.543 1247.746, 1177.459 1247.199, 1174.750 1244.961 L 1172.500 1243.102 1175.272 1240.491 C 1176.796 1239.054, 1177.785 1237.461, 1177.470 1236.951 C 1177.154 1236.441, 1177.621 1236.301, 1178.508 1236.641 C 1179.595 1237.058, 1180.291 1236.601, 1180.648 1235.237 C 1180.975 1233.987, 1182.315 1232.987, 1184.155 1232.619 C 1185.793 1232.291, 1186.872 1231.602, 1186.553 1231.086 C 1186.235 1230.571, 1188.568 1229.413, 1191.737 1228.514 C 1216.951 1221.356, 1246.643 1205.436, 1264 1189.767 C 1287.376 1168.664, 1303.213 1139.540, 1310.184 1104.834 C 1313.257 1089.534, 1313.528 1053.785, 1310.682 1039.150 C 1302.785 998.549, 1278.143 964.862, 1238.859 940.966 C 1204.204 919.886, 1157.272 907.176, 1098.813 903.039 C 1081.870 901.840, 1029.899 901.889, 1013 903.119 M 1045.401 936.893 C 1037.445 938.850, 1028.538 943.495, 1023.115 948.517 C 1012.731 958.130, 1005.705 978.758, 1001.320 1012.500 C 998.685 1032.770, 998.719 1131.835, 1001.368 1154.500 C 1005.353 1188.595, 1009.158 1200.607, 1019.515 1211.793 C 1033.642 1227.052, 1055.017 1232.283, 1079 1226.351 C 1095.989 1222.149, 1108.704 1210.900, 1115.807 1193.789 C 1122.486 1177.697, 1123.688 1164.613, 1124.470 1099.500 C 1125.039 1052.169, 1124.266 1022.235, 1121.978 1003 C 1119.683 983.708, 1114.856 963.423, 1110.603 955.198 C 1108.472 951.078, 1100.564 944.325, 1094 941.020 C 1082.072 935.014, 1060.491 933.182, 1045.401 936.893 M 1598.663 1124.042 C 1555.069 1127.680, 1521.951 1136.428, 1485.500 1153.934 C 1464.471 1164.034, 1449.293 1174.354, 1433.183 1189.510 C 1387.105 1232.857, 1364.809 1299.837, 1369.109 1382 C 1371.397 1425.724, 1378.799 1456.810, 1394.469 1488.500 C 1424.923 1550.093, 1468.749 1585.257, 1535.802 1601.900 C 1576.937 1612.111, 1629.625 1614.107, 1679 1607.325 C 1801.579 1590.490, 1866.013 1514.219, 1871.889 1379 C 1874.920 1309.249, 1862.562 1251.463, 1835.959 1211 C 1803.365 1161.422, 1752.981 1134.383, 1676.500 1125.426 C 1660.938 1123.603, 1613.936 1122.767, 1598.663 1124.042 M 2255 1123.640 C 2253.075 1123.894, 2241.150 1125.426, 2228.500 1127.043 C 2204.941 1130.056, 2191.888 1132.935, 2180.793 1137.564 C 2168.226 1142.809, 2153.324 1152.299, 2143.250 1161.475 L 2137 1167.168 2137 1150.084 L 2137 1133 2018.193 1133 C 1903.649 1133, 1898.995 1133.072, 1888.491 1135.002 C 1882.499 1136.102, 1877.217 1137.383, 1876.754 1137.846 C 1876.290 1138.310, 1876.043 1142.247, 1876.205 1146.595 L 1876.500 1154.500 1902.250 1154.767 L 1928 1155.034 1928.063 1197.267 C 1928.228 1308.166, 1928.244 1374.644, 1928.127 1468.750 L 1928 1571 1904.250 1571.014 C 1891.188 1571.021, 1879.487 1571.299, 1878.250 1571.630 C 1876.163 1572.190, 1876 1572.792, 1876 1579.962 C 1876 1589.187, 1875.555 1588.669, 1890.090 1596.385 L 1900.681 1602.006 2053.590 1601.753 L 2206.500 1601.500 2206.500 1592.606 L 2206.500 1583.713 2189.834 1577.911 L 2173.168 1572.110 2155.334 1571.805 L 2137.500 1571.500 2137.500 1437 C 2137.500 1293.323, 2137.537 1292.076, 2142.527 1268.217 C 2143.825 1262.011, 2146.522 1251.886, 2148.519 1245.717 C 2152.145 1234.522, 2162.325 1212.162, 2166.366 1206.521 C 2167.540 1204.882, 2168.959 1202.641, 2169.520 1201.540 C 2170.081 1200.440, 2171.551 1199.035, 2172.787 1198.419 C 2174.024 1197.802, 2175.365 1196.934, 2175.768 1196.489 C 2176.170 1196.044, 2175.879 1196.039, 2175.120 1196.479 C 2174.177 1197.026, 2173.887 1196.839, 2174.203 1195.889 C 2174.703 1194.388, 2179 1193.713, 2179 1195.137 C 2179 1195.611, 2178.550 1196, 2178 1196 C 2177.450 1196, 2177 1197.350, 2177 1199 C 2177 1200.650, 2177.377 1202, 2177.839 1202 C 2178.300 1202, 2178.637 1204.206, 2178.589 1206.902 C 2178.540 1209.598, 2178.252 1211.652, 2177.949 1211.466 C 2177.099 1210.945, 2174.732 1219.758, 2175.423 1220.875 C 2175.758 1221.418, 2175.582 1222.140, 2175.032 1222.480 C 2174.481 1222.821, 2174.075 1224.089, 2174.129 1225.300 C 2174.183 1226.510, 2173.686 1233.024, 2173.023 1239.777 C 2168.632 1284.554, 2193.072 1314.673, 2237.243 1318.916 C 2289.148 1323.902, 2309.814 1322.569, 2329.708 1312.951 C 2359.387 1298.604, 2374.229 1266.181, 2372.718 1219 C 2372.117 1200.248, 2369.725 1188.740, 2363.755 1175.881 C 2351.977 1150.515, 2326.447 1131.809, 2294.971 1125.483 C 2287.462 1123.973, 2261.528 1122.778, 2255 1123.640 M 1605.500 1145.921 C 1600.061 1146.833, 1592.799 1151.285, 1588.166 1156.549 C 1573.919 1172.735, 1567.410 1202.108, 1564.025 1265.500 C 1562.694 1290.414, 1562.704 1458.617, 1564.038 1485.546 C 1566.068 1526.543, 1569.295 1541.455, 1581.923 1568.182 C 1584.710 1574.079, 1585.531 1574.977, 1589.768 1576.757 C 1596.844 1579.729, 1599.469 1580.149, 1610.524 1580.082 C 1625.189 1579.992, 1633.661 1576.884, 1642.576 1568.321 C 1657.402 1554.082, 1663.177 1531.132, 1665.959 1475.395 C 1667.293 1448.683, 1667.335 1284.480, 1666.015 1260.500 C 1663.960 1223.175, 1660.015 1194.077, 1655.057 1179.665 C 1648.168 1159.643, 1636.407 1148.904, 1618.308 1146.110 C 1614.353 1145.500, 1610.753 1145.056, 1610.308 1145.125 C 1609.864 1145.194, 1607.700 1145.552, 1605.500 1145.921 M 1043.500 1254.482 C 1012.958 1261.217, 997.097 1280.760, 988.607 1322.119 C 978.380 1371.938, 978.314 1461.414, 988.467 1511 C 995.958 1547.585, 1009.134 1565.505, 1034.661 1573.825 C 1048.629 1578.378, 1072.761 1579.092, 1087.946 1575.403 C 1096.706 1573.274, 1109.421 1567.031, 1115.178 1562.030 C 1125.686 1552.904, 1130.930 1541.146, 1135.479 1516.515 C 1140.044 1491.799, 1141.175 1476.958, 1141.722 1434.607 C 1143.202 1319.979, 1128.785 1272.166, 1088.432 1257.876 C 1075.241 1253.205, 1055.913 1251.745, 1043.500 1254.482" stroke="none" fill="#a0bd42" fill-rule="evenodd"/></svg>