<svg height="96" viewBox="0 0 96 96" width="96" xmlns="http://www.w3.org/2000/svg"><g fill="none" fill-rule="evenodd"><g stroke-linecap="round" stroke-linejoin="round" stroke-width="1.5"><path d="m80.043 38.5v50l-5.196 3m-.0003-50 5.196-3-58.889-34-5.197 3" stroke="#425066"/><path d="m74.8467 41.5v50l-58.89-34v-50z" stroke="#425066"/><path d="m69.6509 50.5v32l-48.498-28v-32z" stroke="#ff6f00"/></g><path d="m20.2871 13c0 .552-.388.776-.866.5s-.866-.948-.866-1.5.388-.776.866-.5.866.948.866 1.5m2.5982 1.5c0 .552-.388.776-.866.5s-.866-.948-.866-1.5.388-.776.866-.5.866.948.866 1.5m2.5981 1.5c0 .552-.388.776-.866.5s-.866-.948-.866-1.5.388-.776.866-.5.866.948.866 1.5" fill="#425066"/><path d="m26.3491 31.5 1.732 1m2.5986 1.5 22.517 13m-26.8476-9.5 1.732 1m2.5986 1.5 19.052 11m-23.3826-7.5 1.732 1m2.5986 1.5 19.052 11m-23.3826-7.5 1.732 1m32.0434.5 4.33 2.5m-4.33 3.5 4.33 2.5m-4.33 3.5 4.33 2.5m-4.33 3.5 4.33 2.5m-33.7748-19.5 7.794 4.5" stroke="#ff6f00" stroke-linecap="round" stroke-linejoin="round" stroke-width="1.5"/><path d="m15.957 13.5 58.89 34" stroke="#425066" stroke-linecap="round" stroke-linejoin="round" stroke-width="1.5"/><path d="m0 96h96v-96h-96z" fill="none"/></g></svg>