<svg height="96" viewBox="0 0 96 96" width="96" xmlns="http://www.w3.org/2000/svg"><g fill="none" fill-rule="evenodd"><path d="m0 96h96v-96h-96z" fill="none"/><g stroke-linecap="round" stroke-linejoin="round" stroke-width="1.5"><path d="m52.0986 90.5483v4.452l25.702-14.839v-4.452m-66.1815-8.5321v4.452l40.479 23.371" stroke="#425066"/><path d="m28.9678 69.7744 12.851 7.419 12.85-7.419-12.85-7.419zm27.0166 3.709-10.28 5.936m2.5769 4.4517 17.991-10.387" stroke="#ff6f00"/><path d="m77.7998 75.7095-40.479-23.371-3.855 2.226-21.847 12.613 3.856 2.226 36.624 21.145 21.846-12.613z" stroke="#425066"/><path d="m52.0986 86.0967-32.769-18.919 6.428-3.711c1.418.818 3.717.818 5.135 0 1.417-.819 1.417-2.146 0-2.965l6.428-3.711 32.769 18.919z" stroke="#ff6f00"/><path d="m42.8599 5.4517-33.149 19.139-3.856 2.226.001 36.976 3.855-2.226 37.004-21.365v-36.976zm-37.0049 28.7841 40.86-23.591" stroke="#425066"/><path d="m12.2808 36.3857 2.57-1.483m2.5701-1.4842 20.298-11.72m-25.4381 20.6228 2.57-1.484m2.5701-1.4838 15.857-9.139m-20.9971 18.0423 2.57-1.484m2.5701-1.4837 20.298-11.72m-25.4381 20.6233 2.57-1.484m2.5701-1.4838 13.399-7.783" stroke="#ff6f00"/><path d="m5.855 63.793-3.855-2.226v-36.976m44.7148-21.3654-3.855-2.226-40.86 23.591 3.855 2.226" stroke="#425066"/></g><path d="m10.1855 28.0122c0 .552-.388 1.224-.866 1.5-.479.276-.866.052-.866-.5s.387-1.224.866-1.5c.478-.276.866-.052.866.5m2.5977-1.5c0 .552-.388 1.224-.866 1.5s-.866.052-.866-.5.388-1.224.866-1.5.866-.052.866.5m2.5981-1.5c0 .552-.388 1.224-.866 1.5s-.866.052-.866-.5.388-1.224.866-1.5.866-.052.866.5" fill="#425066"/><path d="m70.3574 62.3203v-34.129m-1.2851-.7416 7.71-4.452 17.218 9.943m-22.3577-4.0076-5.14-2.967" stroke="#425066" stroke-linecap="round" stroke-linejoin="round" stroke-width="1.5"/><path d="m83.7197 35.9082 1.285-.742-12.077-6.975-1.285.742m14.6469 8.4589-2.57-1.484m2.57 1.484 7.71-4.452v35.613l-6.425 3.71-1.285.742m1.2851-.7424v-35.613m-18.5024 26.4123 17.217 9.943" stroke="#425066" stroke-linecap="round" stroke-linejoin="round" stroke-width="1.5"/><path d="m83.7158 46.3096-9.5-5.486m9.5098 1.0201-9.513-5.494m.0032 8.9447 9.5 5.487m-9.5029-1.0172 9.503 5.488m-9.4161-.9661 9.416 5.438m-9.5029-1.0171 9.503 5.489m-17.2174-27.8288-9.5-5.487m9.5098 1.0207-9.513-5.494m.0032 8.9452 9.5 5.486m-9.5029-1.0163 9.503 5.488m-9.4156-.9661 9.416 5.438m-9.5034-1.0171 9.503 5.488" stroke="#ff6f00" stroke-linecap="round" stroke-linejoin="round" stroke-width="1.5"/><path d="m53.1401 52.3779v-34.129m-1.2851-.7421 7.71-4.452 17.218 9.943m-22.3577-4.0071-2.57-1.484" stroke="#425066" stroke-linecap="round" stroke-linejoin="round" stroke-width="1.5"/><path d="m66.5024 25.9658 1.285-.742-12.077-6.975-1.285.742m-2.5704 34.1288 1.285-.742m-1.285.742 17.217 9.942m.0003.0004 1.285-.742" stroke="#425066" stroke-linecap="round" stroke-linejoin="round" stroke-width="1.5"/></g></svg>