<svg height="320" viewBox="0 0 476 320" width="476" xmlns="http://www.w3.org/2000/svg"><g fill="none" fill-rule="evenodd"><path d="m-83 336h626v-352h-626z" fill="none"/><path d="m304.965 44.911c.839.28 95.099 54.368 125.06 71.566 4.01 2.303 4.013 8.084.007 10.396l-65.113 37.594c-4 2.31-4 8.083 0 10.392l24.255 14.004m-365.973-76.815 40.499 23.498c4.01 2.326 3.98 8.127-.055 10.411l-32.599 18.456c-4.035 2.284-4.065 8.087-.053 10.412l48.321 28.01c3.992 2.312 3.988 8.076-.008 10.384l-24.25 14.014" stroke="#e5e6e8" stroke-width="2"/><path d="m59.055 227.233a4 4 0 1 0 -8-.001 4 4 0 0 0 8 0" fill="#fff"/><path d="m59.055 227.233a4 4 0 1 0 -8-.001 4 4 0 0 0 8 0zm296.051-211.433 74.007 42.727c4.03 2.326 3.992 8.154-.067 10.43l-32.22 18.061c-4.06 2.275-4.097 8.103-.068 10.43l8.231 4.752" stroke="#e5e6e8" stroke-width="2"/><path d="m388.103 227.534-83.632-48.285-143.648 82.935a11.998 11.998 0 0 1 -12 0l-118.023-68.14c-4-2.308-4-8.082 0-10.391l31.883-18.408c4-2.31 4.001-8.083 0-10.392l-57.017-32.92" stroke="#ff6f00" stroke-width="2"/><path d="m55.055 35.248 40.884 23.604c4 2.31 4 8.083 0 10.393l-33.104 19.111c-4.01 2.316-3.997 8.108.023 10.406l232.545 132.904c4.02 2.298 4.033 8.09.022 10.406l-90.722 52.376" stroke="#425066" stroke-width="2"/><path d="m300.965 44.911a4 4 0 1 1 8 0 4 4 0 0 1 -8 0" fill="#fff"/><path d="m300.965 44.911a4 4 0 1 1 8 0 4 4 0 0 1 -8 0z" stroke="#e5e6e8" stroke-width="2"/><path d="m351.106 15.8a4 4 0 1 1 8 0 4 4 0 0 1 -8 0" fill="#fff"/><path d="m351.106 15.8a4 4 0 1 1 8 0 4 4 0 0 1 -8 0z" stroke="#e5e6e8" stroke-width="2"/><path d="m200.703 294.448a4 4 0 1 1 8 0 4 4 0 0 1 -8 0" fill="#fff"/><path d="m200.703 294.448a4 4 0 1 1 8 0 4 4 0 0 1 -8 0z" stroke="#425066" stroke-width="2"/><path d="m51.055 35.248a4 4 0 1 1 8 0 4 4 0 0 1 -8 0" fill="#425066"/><path d="m51.055 35.248a4 4 0 1 1 8 0 4 4 0 0 1 -8 0z" stroke="#425066" stroke-width="2"/><path d="m470.749 179.249-77.904-44.186a12.002 12.002 0 0 0 -11.921.046l-59.825 34.54" stroke="#ff6f00" stroke-width="2"/><path d="m466.749 179.249a4 4 0 1 1 8 0 4 4 0 0 1 -8 0" fill="#fff"/><path d="m466.749 179.249a4 4 0 1 1 8 0 4 4 0 0 1 -8 0z" stroke="#ff6f00" stroke-width="2"/><path d="m317.099 169.649a4 4 0 1 1 8 0 4 4 0 0 1 -8 0" fill="#ff6f00"/><path d="m317.099 169.649a4 4 0 1 1 8 0 4 4 0 0 1 -8 0z" stroke="#ff6f00" stroke-width="2"/><path d="m27.201 112.048a4 4 0 1 0 -8 0 4 4 0 0 0 8 0" fill="#fff"/><path d="m27.201 112.048a4 4 0 1 0 -8 0 4 4 0 0 0 8 0z" stroke="#e5e6e8" stroke-width="2"/><path d="m9.665 121.934a4 4 0 1 0 -8 0 4 4 0 0 0 8 0" fill="#fff"/><path d="m9.665 121.934a4 4 0 1 0 -8 0 4 4 0 0 0 8 0z" stroke="#ff6f00" stroke-width="2"/><path d="m393.174 188.863a4 4 0 1 0 -8-.001 4 4 0 0 0 8 0" fill="#e5e6e8"/><path d="m393.174 188.863a4 4 0 1 0 -8-.001 4 4 0 0 0 8 0z" stroke="#e5e6e8" stroke-width="2"/><path d="m392.103 227.534a4 4 0 1 0 -8 0 4 4 0 0 0 8 0" fill="#ff6f00"/><path d="m392.103 227.534a4 4 0 1 0 -8 0 4 4 0 0 0 8 0z" stroke="#ff6f00" stroke-width="2"/><path d="m119.205 202 203.69 117.6 8.313-4.8-203.69-117.6z" fill="#425066" fill-opacity=".05"/><path d="m119.205 5.2 8.313 24 195.376 93.6 8.314-4.8-203.69-117.6z" fill="#fff"/><path d="m331.208 290.8v-172.8l-8.313 4.8-8.315 14.4 8.315 158.4z" fill="#425066"/><path d="m135.833 168.4v-144l-16.628-19.2 8.314 168 5.935 6.693z" fill="#ced0d1"/><path d="m127.519 173.2 195.376 122.4v-19.2l-187.062-108z" fill="#ced0d1"/><path d="m127.519 29.2 187.062 108v144l-187.062-108zm-8.313-24v172.8l195.374 112.8 8.314 4.8v-172.8l-8.314-4.8-187.061-108z" fill="#ced0d1"/><path d="m311.463 125.8c0-1.988 1.396-2.794 3.117-1.8 1.723.994 3.118 3.412 3.118 5.4s-1.395 2.794-3.118 1.8c-1.721-.994-3.117-3.412-3.117-5.4m-10.393-6c0-1.988 1.396-2.794 3.118-1.8s3.117 3.412 3.117 5.4-1.395 2.794-3.117 1.8-3.118-3.412-3.118-5.4m-10.391-6c0-1.988 1.396-2.794 3.117-1.8 1.722.994 3.118 3.412 3.118 5.4s-1.396 2.794-3.118 1.8c-1.721-.994-3.117-3.412-3.117-5.4" fill="#ced0d1"/><path d="m314.47 281.2v-143.914l-186.951-107.936v143.914z" fill="#fff"/><path d="m139.982 82.118 4.154 2.398v-4.796l-4.154-2.399zm0-11.993 4.154 2.4v-4.798l-4.154-2.399zm8.31 16.79 27.003 15.591v-4.796l-27.004-15.59v4.796zm0-11.993 17.655 10.195v-4.797l-17.656-10.194v4.797zm19.733 11.394 33.235 19.188v-4.797l-33.235-19.189zm35.312 20.387 40.506 23.387v-4.797l-40.506-23.386zm69.587 52.17 24.927 14.391v-4.797l-24.927-14.39v4.795zm0-11.993 29.081 16.79v-4.797l-29.08-16.79v4.797zm-45.699-19.189-8.308-4.797v4.797l8.308 4.797zm-10.386-5.996-39.467-22.787v4.797l39.467 22.787zm-81.01-68.36 170.332 98.342v29.982l-170.333-98.342v-29.982zm178.64 83.95v9.595l-186.949-107.936v-9.594l186.95 107.936z" fill="#e5e6e8"/><path d="m302.006 187.656-29.081-16.79v-4.797l29.08 16.79v4.797zm0 23.985-29.081-16.79v-4.797l29.08 16.79v4.797zm-4.154 9.595-24.927-14.392v-4.797l24.927 14.392zm-54.008-55.167-35.313-20.39v-4.795l35.313 20.387zm-16.618 2.398-66.471-38.377v-4.797l66.47 38.377v4.797zm-14.54 3.598-10.387-5.996v-4.798l10.387 5.997zm-12.464-7.196-39.467-22.786v-4.798l39.467 22.787zm-27.004-44.373v4.797l-12.463-7.196v-4.797zm-17.656-22.187 39.467 22.786v4.797l-39.467-22.786zm-11.425-1.8-4.154-2.398v-4.797l4.154 2.399v4.797zm0 11.994-4.154-2.4v-4.796l4.154 2.399zm0 11.992-4.154-2.398v-4.797l4.154 2.398zm0 11.994-4.154-2.4v-4.796l4.154 2.398zm62.317 7.195v4.797l-31.16-17.99v-4.796zm-9.347-17.39 30.119 17.39v4.797l-30.12-17.39v-4.796zm75.818 55.767 24.927 14.392v4.797l-24.927-14.391zm-137.097-94.743v47.97l170.333 98.343v-47.972z" fill="#e5e6e8"/><path d="m242.806 213.44-25.966-14.991v-4.797l25.966 14.99zm-28.043-16.19-34.274-19.79v-4.796l34.274 19.789zm0 11.992-54.008-31.181v-4.797l54.008 31.18zm-36.352-37.777v4.797l-17.656-10.194v-4.797zm-30.12-29.382 51.93 29.982v4.797l-51.93-29.983zm-4.154 2.398-4.154-2.398v-4.798l4.154 2.399zm0 11.993-4.154-2.4v-4.796l4.154 2.399zm0 11.992-4.154-2.398v-4.797l4.154 2.398zm0 9.595-4.154-2.4v-4.796l4.154 2.399zm-8.31-46.772v46.772l170.334 98.34v-46.771l-170.333-98.341z" fill="#e5e6e8"/><path d="m203.741 82.078c0-5.523 4.477-10 10-10 5.522 0 10 4.477 10 10s-4.478 10-10 10c-5.523 0-10-4.477-10-10" fill="#ff6f00"/><g stroke-width="2"><path d="m211.652 35.836a47.23 47.23 0 0 0 -5.37-2.677" stroke="#ff6f00"/><path d="m198.951 30.947c-12.525-2.248-22.162 4.337-25.234 17.636" stroke="#ff6f00" stroke-dasharray="11.498 7.665"/><path d="m173.048 52.347a47.114 47.114 0 0 0 -.367 5.989m77.942 44.999a57.47 57.47 0 0 0 -.321-5.988" stroke="#ff6f00"/><path d="m248.963 89.344c-4.062-17.872-15.194-36.283-29.074-47.745" stroke="#ff6f00" stroke-dasharray="12.178 8.118"/><path d="m216.678 39.108a57.83 57.83 0 0 0 -5.025-3.272m-.001 89.999a47.207 47.207 0 0 0 5.37 2.677" stroke="#ff6f00"/><path d="m224.353 130.724c12.525 2.25 22.16-4.337 25.234-17.635" stroke="#ff6f00" stroke-dasharray="11.498 7.665"/><path d="m250.256 109.325c.242-1.887.367-3.885.367-5.99m-77.943-45c0 1.966.11 3.966.322 5.988" stroke="#ff6f00"/><path d="m174.34 72.328c4.062 17.872 15.195 36.283 29.074 47.745" stroke="#ff6f00" stroke-dasharray="12.178 8.118"/><path d="m206.626 122.564a57.694 57.694 0 0 0 5.026 3.272" stroke="#ff6f00"/></g><path d="m130.63 21.39c0-1.986-1.395-4.402-3.116-5.395-1.721-.994-3.115-.19-3.115 1.798 0 1.987 1.394 4.404 3.115 5.397 1.72.993 3.116.188 3.116-1.8m10.386 5.997c0-1.987-1.395-4.403-3.115-5.397-1.721-.993-3.116-.188-3.116 1.8 0 1.986 1.395 4.402 3.116 5.396 1.72.993 3.115.188 3.115-1.799m10.386 5.997c0-1.987-1.396-4.403-3.116-5.397s-3.115-.188-3.115 1.799 1.394 4.403 3.115 5.397c1.72.993 3.116.188 3.116-1.8" fill="#e5e6e8"/></g></svg>