<?xml version="1.0" encoding="UTF-8" standalone="no"?>
<!-- Created with Inkscape (http://www.inkscape.org/) -->

<svg
   version="1.1"
   id="svg2"
   width="3833.3333"
   height="5333.3335"
   viewBox="0 0 3833.3333 5333.3335"
   sodipodi:docname="vecteezy_color-icon-for-translation_26766937.eps"
   xmlns:inkscape="http://www.inkscape.org/namespaces/inkscape"
   xmlns:sodipodi="http://sodipodi.sourceforge.net/DTD/sodipodi-0.dtd"
   xmlns="http://www.w3.org/2000/svg"
   xmlns:svg="http://www.w3.org/2000/svg">
  <defs
     id="defs6" />
  <sodipodi:namedview
     id="namedview4"
     pagecolor="#ffffff"
     bordercolor="#000000"
     borderopacity="0.25"
     inkscape:showpageshadow="2"
     inkscape:pageopacity="0.0"
     inkscape:pagecheckerboard="0"
     inkscape:deskcolor="#d1d1d1" />
  <g
     id="g8"
     inkscape:groupmode="layer"
     inkscape:label="ink_ext_XXXXXX"
     transform="matrix(1.3333333,0,0,-1.3333333,0,5333.3333)">
    <g
       id="g10"
       transform="scale(0.1)">
      <path
         d="m 6250,33750 c -1378.11,0 -2500,1121.9 -2500,2500 0,1378.1 1121.89,2500 2500,2500 1378.12,0 2500,-1121.9 2500,-2500 0,-1378.1 -1121.88,-2500 -2500,-2500 m 0,6250 c -2068.75,0 -3750,-1681.2 -3750,-3750 0,-2068.7 1681.25,-3750 3750,-3750 2068.75,0 3750,1681.3 3750,3750 0,2068.8 -1681.25,3750 -3750,3750"
         style="fill:#2d4356;fill-opacity:1;fill-rule:nonzero;stroke:none"
         id="path12" />
      <path
         d="m 8750,36250 c 0,-1378.1 -1121.88,-2500 -2500,-2500 -1378.11,0 -2500,1121.9 -2500,2500 0,1378.1 1121.89,2500 2500,2500 1378.12,0 2500,-1121.9 2500,-2500"
         style="fill:#fc785e;fill-opacity:1;fill-rule:nonzero;stroke:none"
         id="path14" />
      <path
         d="m 17500,4375 c -1378.5,0 -2500,1121.5 -2500,2500 v 3705.1 l 8776.3,5162.7 c 1140.2,670.5 1848.7,1908.9 1848.7,3232.1 v 2006 c -205.2,-25.8 -412.9,-43.4 -625,-43.4 -212.1,0 -419.8,17.6 -625,43.4 v -2006 c 0,-882.2 -472.3,-1707.8 -1232.5,-2154.8 L 15000,12030.2 V 33125 c 0,2067.9 -1682.3,3750 -3750,3750 h -43.4 c 25.8,-205.2 43.4,-412.9 43.4,-625 0,-212.1 -17.6,-419.8 -43.4,-625 h 43.4 c 1378.5,0 2500,-1121.5 2500,-2500 V 29732.4 L 4973.75,24569.7 C 3833.47,23899.2 3125,22660.8 3125,21337.6 v -2006 c 205.23,25.8 412.9,43.4 625,43.4 212.1,0 419.77,-17.6 625,-43.4 v 2006 c 0,882.2 472.26,1707.8 1232.45,2154.8 L 13750,28282.3 V 6875 c 0,-2067.9 1682.3,-3750 3750,-3750 h 355.9 c -25.8,205.2 -43.4,412.9 -43.4,625 0,212.1 17.6,419.8 43.4,625 H 17500"
         style="fill:#2d4356;fill-opacity:1;fill-rule:nonzero;stroke:none"
         id="path16" />
      <path
         d="m 22812.5,1250 c -1378.1,0 -2500,1121.9 -2500,2500 0,1378.1 1121.9,2500 2500,2500 1378.1,0 2500,-1121.9 2500,-2500 0,-1378.1 -1121.9,-2500 -2500,-2500 m 0,6250 c -2068.8,0 -3750,-1681.3 -3750,-3750 0,-2068.8 1681.2,-3750 3750,-3750 2068.7,0 3750,1681.2 3750,3750 0,2068.7 -1681.3,3750 -3750,3750"
         style="fill:#2d4356;fill-opacity:1;fill-rule:nonzero;stroke:none"
         id="path18" />
      <path
         d="m 25312.5,3750 c 0,-1378.1 -1121.9,-2500 -2500,-2500 -1378.1,0 -2500,1121.9 -2500,2500 0,1378.1 1121.9,2500 2500,2500 1378.1,0 2500,-1121.9 2500,-2500"
         style="fill:#fc785e;fill-opacity:1;fill-rule:nonzero;stroke:none"
         id="path20" />
      <path
         d="m 3750,11875 c -1378.11,0 -2500,1121.9 -2500,2500 0,1378.1 1121.89,2500 2500,2500 1378.12,0 2500,-1121.9 2500,-2500 0,-1378.1 -1121.88,-2500 -2500,-2500 m 0,6250 C 1681.25,18125 0,16443.8 0,14375 c 0,-2068.8 1681.25,-3750 3750,-3750 2068.75,0 3750,1681.2 3750,3750 0,2068.8 -1681.25,3750 -3750,3750"
         style="fill:#2d4356;fill-opacity:1;fill-rule:nonzero;stroke:none"
         id="path22" />
      <path
         d="m 6250,14375 c 0,-1378.1 -1121.88,-2500 -2500,-2500 -1378.11,0 -2500,1121.9 -2500,2500 0,1378.1 1121.89,2500 2500,2500 1378.12,0 2500,-1121.9 2500,-2500"
         style="fill:#ffdb80;fill-opacity:1;fill-rule:nonzero;stroke:none"
         id="path24" />
      <path
         d="m 25000,23437.5 c -1378.1,0 -2500,1121.9 -2500,2500 0,1378.1 1121.9,2500 2500,2500 1378.1,0 2500,-1121.9 2500,-2500 0,-1378.1 -1121.9,-2500 -2500,-2500 m 0,6250 c -2068.7,0 -3750,-1681.2 -3750,-3750 0,-2068.7 1681.3,-3750 3750,-3750 2068.8,0 3750,1681.3 3750,3750 0,2068.8 -1681.2,3750 -3750,3750"
         style="fill:#2d4356;fill-opacity:1;fill-rule:nonzero;stroke:none"
         id="path26" />
      <path
         d="m 27500,25937.5 c 0,-1378.1 -1121.9,-2500 -2500,-2500 -1378.1,0 -2500,1121.9 -2500,2500 0,1378.1 1121.9,2500 2500,2500 1378.1,0 2500,-1121.9 2500,-2500"
         style="fill:#ffdb80;fill-opacity:1;fill-rule:nonzero;stroke:none"
         id="path28" />
      <path
         d="m 8731.25,35937.5 c -0.11,0.9 -0.24,1.9 -0.35,2.8 12.28,98.8 18.75,199.4 19.08,301.5 -0.31,-103.4 -6.54,-203.9 -18.73,-304.3 m -4962.5,0 c -12.17,100.4 -18.42,200.9 -18.74,304.2 0.33,-102.1 6.81,-202.6 19.09,-301.4 -0.11,-1 -0.23,-1.9 -0.35,-2.8 m 4981.24,305 c 0,1.1 0,2.1 0,3.1 0,-1 0,-2 0,-3.1 m -4999.98,0.3 c -0.01,0.9 -0.01,1.9 -0.01,2.8 0,-1 0,-1.8 0.01,-2.8"
         style="fill:#6b717d;fill-opacity:1;fill-rule:nonzero;stroke:none"
         id="path30" />
      <path
         d="M 8730.9,36559.7 C 8577.86,37792.4 7523.31,38750 6250,38750 c 1273.24,0 2327.76,-957.7 2480.9,-2190.3 v 0"
         style="fill:#6b717d;fill-opacity:1;fill-rule:nonzero;stroke:none"
         id="path32" />
      <path
         d="m 8671.11,36250 c -279.67,1076.9 -1259.08,1875 -2421.11,1875 -1162.03,0 -2141.44,-798.1 -2421.11,-1875 -26.21,100.9 -46.3,204.4 -59.79,309.8 153.15,1232.5 1207.68,2190.2 2480.9,2190.2 v 0 c 1273.31,0 2327.86,-957.6 2480.9,-2190.3 -13.5,-105.4 -33.57,-208.8 -59.79,-309.7"
         style="fill:#fb9683;fill-opacity:1;fill-rule:nonzero;stroke:none"
         id="path34" />
      <path
         d="m 8750,36250 c 0,1.5 0,2.9 -0.01,4.4 0.01,-1.5 0.01,-3 0.01,-4.4 v 0 0"
         style="fill:#fb9683;fill-opacity:1;fill-rule:nonzero;stroke:none"
         id="path36" />
      <path
         d="m 3750,36250 v 0 0 c 0,1.4 0,3 0,4.4 0,-1.5 0,-2.9 0,-4.4 m 0.01,7.2 c 0,0.4 0,0.8 0,1.1 0,-0.3 0,-0.7 0,-1.1 m 4999.98,0.3 c 0,0.2 -0.01,0.5 -0.01,0.8 0,-0.3 0.01,-0.6 0.01,-0.8"
         style="fill:#fb9683;fill-opacity:1;fill-rule:nonzero;stroke:none"
         id="path38" />
      <path
         d="m 6250,33750 c -1273.22,0 -2327.75,957.7 -2480.9,2190.3 v 0 C 3922.25,34707.7 4976.78,33750 6250,33750 c 1273.23,0 2327.75,957.7 2480.9,2190.3 v 0 C 8577.76,34707.7 7523.24,33750 6250,33750"
         style="fill:#69474a;fill-opacity:1;fill-rule:nonzero;stroke:none"
         id="path40" />
      <path
         d="m 6250,33750 c -1273.22,0 -2327.75,957.7 -2480.9,2190.3 13.49,105.3 33.58,208.8 59.79,309.7 279.67,-1076.9 1259.08,-1875 2421.11,-1875 1162.03,0 2141.44,798.1 2421.11,1875 26.22,-100.9 46.29,-204.3 59.79,-309.7 C 8577.75,34707.7 7523.23,33750 6250,33750"
         style="fill:#d0614e;fill-opacity:1;fill-rule:nonzero;stroke:none"
         id="path42" />
      <path
         d="m 3750.01,36241.7 c 0,0.3 0,0.8 0,1.1 0,-0.4 0,-0.8 0,-1.1"
         style="fill:#d0614e;fill-opacity:1;fill-rule:nonzero;stroke:none"
         id="path44" />
      <path
         d="m 8749.98,36241.8 c 0,0.2 0.01,0.5 0.01,0.7 0,-0.2 -0.01,-0.5 -0.01,-0.7"
         style="fill:#d0614e;fill-opacity:1;fill-rule:nonzero;stroke:none"
         id="path46" />
      <path
         d="m 3750,36245.6 c 0,1.4 0,3 0,4.4 v 0 c 0,-1.5 0,-2.9 0,-4.4"
         style="fill:#d0614e;fill-opacity:1;fill-rule:nonzero;stroke:none"
         id="path48" />
      <path
         d="m 8749.99,36245.6 c 0.01,1.5 0.01,3 0.01,4.4 v 0 c 0,-1.4 0,-2.9 -0.01,-4.4"
         style="fill:#d0614e;fill-opacity:1;fill-rule:nonzero;stroke:none"
         id="path50" />
      <path
         d="m 8749.99,36254.4 c 0,1 0,2 0,3.1 0,-1.1 0,-2.1 0,-3.1"
         style="fill:#69474a;fill-opacity:1;fill-rule:nonzero;stroke:none"
         id="path52" />
      <path
         d="m 3750,36254.4 c 0,0.9 0,1.9 0.01,2.8 -0.01,-1 -0.01,-1.8 -0.01,-2.8"
         style="fill:#69474a;fill-opacity:1;fill-rule:nonzero;stroke:none"
         id="path54" />
      <path
         d="m 8749.98,36258.3 c -0.08,25.4 -0.55,50.9 -1.39,76.2 -2.54,76 -8.48,151 -17.69,225.2 0.11,0.9 0.24,1.9 0.35,2.8 12.19,-100.4 18.42,-200.9 18.73,-304.2"
         style="fill:#69474a;fill-opacity:1;fill-rule:nonzero;stroke:none"
         id="path56" />
      <path
         d="m 3750.01,36258.3 c 0.32,103.4 6.57,203.8 18.74,304.2 0.12,-0.9 0.24,-1.8 0.35,-2.7 -12.28,-98.9 -18.76,-199.4 -19.09,-301.5"
         style="fill:#69474a;fill-opacity:1;fill-rule:nonzero;stroke:none"
         id="path58" />
      <path
         d="m 3769.1,35940.3 c -12.28,98.8 -18.76,199.3 -19.09,301.4 0,0.3 0,0.7 0,1.1 -0.01,1 -0.01,1.8 -0.01,2.8 0,1.5 0,2.9 0,4.4 0,1.5 0,2.9 0,4.4 0,1 0,1.8 0.01,2.8 0,0.4 0,0.8 0,1.1 0.33,102.1 6.81,202.6 19.09,301.5 13.49,-105.4 33.58,-208.9 59.79,-309.8 -26.21,-100.9 -46.3,-204.4 -59.79,-309.7"
         style="fill:#d07061;fill-opacity:1;fill-rule:nonzero;stroke:none"
         id="path60" />
      <path
         d="m 8730.9,35940.3 v 0 c 12.28,98.8 18.75,199.4 19.08,301.5 v 0 c -0.33,-102.1 -6.8,-202.7 -19.08,-301.5 m 17.69,394.2 c -2.54,75.9 -8.49,151.1 -17.69,225.2 v 0 c 9.21,-74.2 15.15,-149.2 17.69,-225.2"
         style="fill:#885e5e;fill-opacity:1;fill-rule:nonzero;stroke:none"
         id="path62" />
      <path
         d="m 8730.9,35940.3 c -13.5,105.4 -33.57,208.8 -59.79,309.7 26.22,100.9 46.29,204.3 59.79,309.7 9.2,-74.1 15.15,-149.3 17.69,-225.2 0.84,-25.3 1.31,-50.8 1.39,-76.2 0,-0.3 0.01,-0.6 0.01,-0.8 0,-1.1 0,-2.1 0,-3.1 0.01,-1.5 0.01,-2.9 0.01,-4.4 0,-1.4 0,-2.9 -0.01,-4.4 0,-1 0,-2 0,-3.1 0,-0.2 -0.01,-0.5 -0.01,-0.7 -0.33,-102.1 -6.8,-202.7 -19.08,-301.5"
         style="fill:#d07061;fill-opacity:1;fill-rule:nonzero;stroke:none"
         id="path64" />
      <path
         d="m 25293.7,3437.5 c -0.1,0.9 -0.2,1.8 -0.3,2.7 12.3,98.9 18.8,199.5 19.1,301.5 -0.3,-103.3 -6.6,-203.7 -18.8,-304.2 m -4962.5,0 c -12.1,100.4 -18.4,200.9 -18.7,304.2 0.3,-102.1 6.8,-202.6 19.1,-301.4 -0.1,-0.9 -0.2,-1.9 -0.4,-2.8 m 4981.3,305.1 c 0,1 0,2 0,3.1 0,-1.1 0,-2.1 0,-3.1 m -5000,0.2 c 0,0.9 0,1.9 0,2.8 0,-1 0,-1.8 0,-2.8 m 4980.9,317 C 25140.2,5292.3 24085.7,6250 22812.5,6250 c 1273.2,0 2327.8,-957.7 2480.9,-2190.2 v 0"
         style="fill:#6b717d;fill-opacity:1;fill-rule:nonzero;stroke:none"
         id="path66" />
      <path
         d="m 25233.6,3750 c -279.7,1076.9 -1259.1,1875 -2421.1,1875 -1162,0 -2141.4,-798.1 -2421.1,-1875 -26.2,100.9 -46.3,204.3 -59.8,309.7 153.1,1232.6 1207.7,2190.3 2480.9,2190.3 v 0 c 1273.2,0 2327.7,-957.7 2480.9,-2190.2 -13.5,-105.4 -33.6,-208.9 -59.8,-309.8 m 78.9,0 c 0,1.5 0,2.9 0,4.4 0,-1.5 0,-3 0,-4.4 v 0 0 m -5000,0 v 0 0 c 0,1.4 0,3 0,4.4 0,-1.5 0,-2.9 0,-4.4 m 0,7.2 c 0,0.3 0,0.8 0,1.1 0,-0.3 0,-0.7 0,-1.1 m 5000,0.2 c 0,0.3 0,0.6 0,0.9 0,-0.4 0,-0.5 0,-0.9"
         style="fill:#fb9683;fill-opacity:1;fill-rule:nonzero;stroke:none"
         id="path68" />
      <path
         d="m 22812.5,1250 c -1273.2,0 -2327.8,957.7 -2480.9,2190.3 v 0 C 20484.7,2207.7 21539.3,1250 22812.5,1250 c 1273.2,0 2327.7,957.7 2480.9,2190.2 v 0 C 25140.3,2207.7 24085.7,1250 22812.5,1250 m 2500,2504.4 c 0,1 0,2 0,3 0,-1 0,-2 0,-3 m -5000,0 c 0,0.9 0,1.9 0,2.8 0,-1 0,-1.8 0,-2.8 m 5000,3.9 c 0,9.3 -0.1,18.7 -0.3,28 -1.3,92.5 -7.6,183.6 -18.8,273.5 0.1,0.9 0.2,1.8 0.3,2.7 12.2,-100.4 18.5,-200.9 18.8,-304.2 m -5000,0 c 0.3,103.4 6.6,203.8 18.7,304.2 0.2,-0.9 0.3,-1.9 0.4,-2.8 -12.3,-98.8 -18.8,-199.3 -19.1,-301.4"
         style="fill:#69474a;fill-opacity:1;fill-rule:nonzero;stroke:none"
         id="path70" />
      <path
         d="m 22812.5,1250 c -1273.2,0 -2327.8,957.7 -2480.9,2190.3 13.5,105.4 33.6,208.8 59.8,309.7 279.7,-1076.9 1259.1,-1875 2421.1,-1875 1162,0 2141.4,798.1 2421.1,1875 26.2,-100.9 46.3,-204.4 59.8,-309.8 C 25140.2,2207.7 24085.7,1250 22812.5,1250 m -2500,2491.7 c 0,0.3 0,0.8 0,1.1 0,-0.4 0,-0.8 0,-1.1 m 5000,0 c 0,0.3 0,0.6 0,0.9 0,-0.3 0,-0.5 0,-0.9 m -5000,3.9 c 0,1.4 0,3 0,4.4 v 0 c 0,-1.5 0,-2.9 0,-4.4 m 5000,0.1 c 0,1.4 0,2.9 0,4.3 v 0 c 0,-1.4 0,-2.9 0,-4.3"
         style="fill:#d0614e;fill-opacity:1;fill-rule:nonzero;stroke:none"
         id="path72" />
      <path
         d="m 25293.4,3440.2 v 0 c 12.3,98.9 18.8,199.5 19.1,301.5 v 0 c -0.3,-102 -6.8,-202.6 -19.1,-301.5 m 18.8,346.1 c -1.3,92.5 -7.6,183.6 -18.8,273.5 v 0 c 11.2,-89.9 17.5,-181 18.8,-273.5"
         style="fill:#885e5e;fill-opacity:1;fill-rule:nonzero;stroke:none"
         id="path74" />
      <path
         d="m 25293.4,3440.2 c -13.5,105.4 -33.6,208.9 -59.8,309.8 26.2,100.9 46.3,204.4 59.8,309.8 11.2,-89.9 17.5,-181 18.8,-273.5 0.2,-9.3 0.3,-18.7 0.3,-28 0,-0.3 0,-0.6 0,-0.9 0,-1 0,-2 0,-3 0,-1.5 0,-2.9 0,-4.4 0,-1.4 0,-2.9 0,-4.3 0,-1.1 0,-2.1 0,-3.1 0,-0.3 0,-0.6 0,-0.9 -0.3,-102 -6.8,-202.6 -19.1,-301.5 m -4961.8,0.1 c -12.3,98.8 -18.8,199.3 -19.1,301.4 0,0.3 0,0.7 0,1.1 0,1 0,1.8 0,2.8 0,1.5 0,2.9 0,4.4 0,1.5 0,2.9 0,4.4 0,1 0,1.8 0,2.8 0,0.4 0,0.8 0,1.1 0.3,102.1 6.8,202.6 19.1,301.4 13.5,-105.4 33.6,-208.8 59.8,-309.7 -26.2,-100.9 -46.3,-204.3 -59.8,-309.7"
         style="fill:#d07061;fill-opacity:1;fill-rule:nonzero;stroke:none"
         id="path76" />
      <path
         d="m 6231.25,14062.5 c -0.11,0.9 -0.24,1.9 -0.35,2.8 12.28,98.8 18.75,199.4 19.08,301.5 -0.31,-103.4 -6.54,-203.8 -18.73,-304.3 m -4962.5,0 c -12.17,100.4 -18.42,200.9 -18.74,304.2 0.33,-102.1 6.81,-202.6 19.09,-301.5 -0.11,-0.9 -0.23,-1.8 -0.35,-2.7 m 4981.24,305 c 0,1.1 0,2.1 0,3.2 0,-1.1 0,-2.1 0,-3.2 m -4999.98,0.3 c -0.01,0.9 -0.01,1.9 -0.01,2.8 0,-1 0,-1.8 0.01,-2.8"
         style="fill:#939894;fill-opacity:1;fill-rule:nonzero;stroke:none"
         id="path78" />
      <path
         d="M 6230.9,14684.7 C 6077.86,15917.4 5023.31,16875 3750,16875 c 1273.24,0 2327.76,-957.7 2480.9,-2190.3 v 0"
         style="fill:#939894;fill-opacity:1;fill-rule:nonzero;stroke:none"
         id="path80" />
      <path
         d="m 6171.11,14375 c -279.67,1076.9 -1259.08,1875 -2421.11,1875 -1162.03,0 -2141.44,-798.1 -2421.11,-1875 -26.21,100.9 -46.3,204.4 -59.79,309.8 153.15,1232.5 1207.68,2190.2 2480.9,2190.2 v 0 c 1273.31,0 2327.86,-957.6 2480.9,-2190.3 -13.5,-105.4 -33.57,-208.8 -59.79,-309.7"
         style="fill:#fce4a9;fill-opacity:1;fill-rule:nonzero;stroke:none"
         id="path82" />
      <path
         d="m 6250,14375 c 0,1.5 0,2.9 -0.01,4.4 0.01,-1.5 0.01,-3 0.01,-4.4 v 0 0"
         style="fill:#fce4a9;fill-opacity:1;fill-rule:nonzero;stroke:none"
         id="path84" />
      <path
         d="m 1250,14375 v 0 0 c 0,1.4 0,3 0,4.4 0,-1.5 0,-2.9 0,-4.4 m 0.01,7.2 c 0,0.3 0,0.8 0,1.1 0,-0.3 0,-0.7 0,-1.1 m 4999.98,0.3 c -0.01,0.2 -0.01,0.5 -0.01,0.8 0,-0.3 0,-0.6 0.01,-0.8"
         style="fill:#fce4a9;fill-opacity:1;fill-rule:nonzero;stroke:none"
         id="path86" />
      <path
         d="m 3750,11875 c -1273.22,0 -2327.75,957.7 -2480.9,2190.2 v 0 C 1422.25,12832.7 2476.78,11875 3750,11875 c 1273.23,0 2327.75,957.7 2480.9,2190.3 v 0 C 6077.75,12832.7 5023.24,11875 3750,11875"
         style="fill:#676757;fill-opacity:1;fill-rule:nonzero;stroke:none"
         id="path88" />
      <path
         d="m 3750,11875 c -1273.22,0 -2327.75,957.7 -2480.9,2190.2 13.49,105.4 33.58,208.9 59.79,309.8 279.67,-1076.9 1259.08,-1875 2421.11,-1875 1162.03,0 2141.44,798.1 2421.11,1875 26.22,-100.9 46.29,-204.3 59.79,-309.7 C 6077.75,12832.7 5023.23,11875 3750,11875"
         style="fill:#dabb6e;fill-opacity:1;fill-rule:nonzero;stroke:none"
         id="path90" />
      <path
         d="m 1250.01,14366.7 c 0,0.3 0,0.8 0,1.1 0,-0.4 0,-0.8 0,-1.1"
         style="fill:#dabb6e;fill-opacity:1;fill-rule:nonzero;stroke:none"
         id="path92" />
      <path
         d="m 6249.98,14366.8 c 0,0.2 0,0.5 0.01,0.7 -0.01,-0.2 -0.01,-0.5 -0.01,-0.7"
         style="fill:#dabb6e;fill-opacity:1;fill-rule:nonzero;stroke:none"
         id="path94" />
      <path
         d="m 1250,14370.6 c 0,1.4 0,3 0,4.4 v 0 c 0,-1.5 0,-2.9 0,-4.4"
         style="fill:#dabb6e;fill-opacity:1;fill-rule:nonzero;stroke:none"
         id="path96" />
      <path
         d="m 6249.99,14370.7 c 0.01,1.4 0.01,2.9 0.01,4.3 v 0 c 0,-1.4 0,-2.9 -0.01,-4.3"
         style="fill:#dabb6e;fill-opacity:1;fill-rule:nonzero;stroke:none"
         id="path98" />
      <path
         d="m 6249.99,14379.4 c 0,1.1 0,2 0,3.1 0,-1.1 0,-2.1 0,-3.1"
         style="fill:#676757;fill-opacity:1;fill-rule:nonzero;stroke:none"
         id="path100" />
      <path
         d="m 1250,14379.4 c 0,0.9 0,1.9 0.01,2.8 -0.01,-1 -0.01,-1.8 -0.01,-2.8"
         style="fill:#676757;fill-opacity:1;fill-rule:nonzero;stroke:none"
         id="path102" />
      <path
         d="m 6249.98,14383.3 c -0.08,25.4 -0.55,50.9 -1.39,76.2 -2.54,76 -8.48,151 -17.69,225.2 0.11,0.9 0.24,1.9 0.35,2.8 12.19,-100.4 18.42,-200.9 18.73,-304.2"
         style="fill:#676757;fill-opacity:1;fill-rule:nonzero;stroke:none"
         id="path104" />
      <path
         d="m 1250.01,14383.3 c 0.32,103.4 6.57,203.8 18.74,304.2 0.12,-0.9 0.24,-1.8 0.35,-2.7 -12.28,-98.9 -18.76,-199.4 -19.09,-301.5"
         style="fill:#676757;fill-opacity:1;fill-rule:nonzero;stroke:none"
         id="path106" />
      <path
         d="m 1269.1,14065.2 c -12.28,98.9 -18.76,199.4 -19.09,301.5 0,0.3 0,0.7 0,1.1 -0.01,1 -0.01,1.8 -0.01,2.8 0,1.5 0,2.9 0,4.4 0,1.5 0,2.9 0,4.4 0,1 0,1.8 0.01,2.8 0,0.4 0,0.8 0,1.1 0.33,102.1 6.81,202.6 19.09,301.5 13.49,-105.4 33.58,-208.9 59.79,-309.8 -26.21,-100.9 -46.3,-204.4 -59.79,-309.8"
         style="fill:#d8bf85;fill-opacity:1;fill-rule:nonzero;stroke:none"
         id="path108" />
      <path
         d="m 6230.9,14065.3 v 0 c 12.28,98.8 18.75,199.4 19.08,301.5 v 0 c -0.33,-102.1 -6.8,-202.7 -19.08,-301.5 m 17.69,394.2 c -2.54,75.9 -8.49,151.1 -17.69,225.2 v 0 c 9.21,-74.2 15.15,-149.2 17.69,-225.2"
         style="fill:#9f9679;fill-opacity:1;fill-rule:nonzero;stroke:none"
         id="path110" />
      <path
         d="m 6230.9,14065.3 c -13.5,105.4 -33.57,208.8 -59.79,309.7 26.22,100.9 46.29,204.3 59.79,309.7 9.2,-74.1 15.15,-149.3 17.69,-225.2 0.84,-25.3 1.31,-50.8 1.39,-76.2 0,-0.3 0,-0.6 0.01,-0.8 0,-1.1 0,-2 0,-3.1 0.01,-1.5 0.01,-2.9 0.01,-4.4 0,-1.4 0,-2.9 -0.01,-4.3 0,-1.1 0,-2.1 0,-3.2 -0.01,-0.2 -0.01,-0.5 -0.01,-0.7 -0.33,-102.1 -6.8,-202.7 -19.08,-301.5"
         style="fill:#d8bf85;fill-opacity:1;fill-rule:nonzero;stroke:none"
         id="path112" />
      <path
         d="m 27481.3,25625 c -0.2,0.9 -0.3,1.9 -0.4,2.8 12.3,98.8 18.7,199.4 19.1,301.4 -0.3,-103.3 -6.6,-203.7 -18.7,-304.2 m -4962.5,0 c -12.2,100.4 -18.5,200.9 -18.8,304.2 0.3,-102.1 6.8,-202.6 19.1,-301.5 -0.1,-0.9 -0.2,-1.8 -0.3,-2.7 m 4981.2,305.1 c 0,1 0,2 0,3 0,-1 0,-2 0,-3 m -5000,0.2 c 0,0.9 0,1.9 0,2.8 0,-1 0,-1.8 0,-2.8"
         style="fill:#939894;fill-opacity:1;fill-rule:nonzero;stroke:none"
         id="path114" />
      <path
         d="m 27500,25937.5 c 0,1.5 0,2.9 0,4.4 0,-1.5 0,-3 0,-4.4 v 0 0"
         style="fill:#fce4a9;fill-opacity:1;fill-rule:nonzero;stroke:none"
         id="path116" />
      <path
         d="m 22500,25937.5 v 0 0 c 0,1.4 0,3 0,4.4 0,-1.5 0,-2.9 0,-4.4"
         style="fill:#fce4a9;fill-opacity:1;fill-rule:nonzero;stroke:none"
         id="path118" />
      <path
         d="m 27480.9,26247.2 c -153.1,1232.6 -1207.7,2190.3 -2480.9,2190.3 1273.2,0 2327.8,-957.7 2480.9,-2190.3 v 0"
         style="fill:#939894;fill-opacity:1;fill-rule:nonzero;stroke:none"
         id="path120" />
      <path
         d="m 27421.1,25937.5 c -279.7,1076.9 -1259.1,1875 -2421.1,1875 -1162,0 -2141.4,-798.1 -2421.1,-1875 -26.2,100.9 -46.3,204.4 -59.8,309.8 153.1,1232.5 1207.7,2190.2 2480.9,2190.2 v 0 c 1273.2,0 2327.8,-957.7 2480.9,-2190.3 -13.5,-105.4 -33.6,-208.8 -59.8,-309.7 m -4921.1,7.2 c 0,0.3 0,0.8 0,1.1 0,-0.3 0,-0.7 0,-1.1 m 5000,0.2 c 0,0.3 0,0.6 0,0.9 0,-0.4 0,-0.5 0,-0.9"
         style="fill:#fce4a9;fill-opacity:1;fill-rule:nonzero;stroke:none"
         id="path122" />
      <path
         d="m 25000,23437.5 c -1273.2,0 -2327.8,957.7 -2480.9,2190.2 v 0 c 153.1,-1232.5 1207.7,-2190.2 2480.9,-2190.2 1273.2,0 2327.8,957.7 2480.9,2190.3 v 0 C 27327.8,24395.2 26273.2,23437.5 25000,23437.5"
         style="fill:#676757;fill-opacity:1;fill-rule:nonzero;stroke:none"
         id="path124" />
      <path
         d="m 25000,23437.5 c -1273.2,0 -2327.8,957.7 -2480.9,2190.2 13.5,105.4 33.6,208.9 59.8,309.8 279.7,-1076.9 1259.1,-1875 2421.1,-1875 1162,0 2141.4,798.1 2421.1,1875 26.2,-100.9 46.3,-204.3 59.8,-309.7 -153.1,-1232.6 -1207.7,-2190.3 -2480.9,-2190.3"
         style="fill:#dabb6e;fill-opacity:1;fill-rule:nonzero;stroke:none"
         id="path126" />
      <path
         d="m 22500,25929.2 c 0,0.3 0,0.8 0,1.1 0,-0.4 0,-0.8 0,-1.1"
         style="fill:#dabb6e;fill-opacity:1;fill-rule:nonzero;stroke:none"
         id="path128" />
      <path
         d="m 27500,25929.2 c 0,0.3 0,0.6 0,0.9 0,-0.3 0,-0.5 0,-0.9"
         style="fill:#dabb6e;fill-opacity:1;fill-rule:nonzero;stroke:none"
         id="path130" />
      <path
         d="m 22500,25933.1 c 0,1.4 0,3 0,4.4 v 0 c 0,-1.5 0,-2.9 0,-4.4"
         style="fill:#dabb6e;fill-opacity:1;fill-rule:nonzero;stroke:none"
         id="path132" />
      <path
         d="m 27500,25933.1 c 0,1.5 0,2.9 0,4.4 v 0 c 0,-1.4 0,-2.9 0,-4.4"
         style="fill:#dabb6e;fill-opacity:1;fill-rule:nonzero;stroke:none"
         id="path134" />
      <path
         d="m 27500,25941.9 c 0,1 0,2 0,3 0,-1 0,-2 0,-3"
         style="fill:#676757;fill-opacity:1;fill-rule:nonzero;stroke:none"
         id="path136" />
      <path
         d="m 22500,25941.9 c 0,0.9 0,1.9 0,2.8 0,-1 0,-1.8 0,-2.8"
         style="fill:#676757;fill-opacity:1;fill-rule:nonzero;stroke:none"
         id="path138" />
      <path
         d="m 27500,25945.8 c -0.1,25.4 -0.6,50.9 -1.4,76.2 -2.5,76 -8.5,151 -17.7,225.2 0.1,0.9 0.2,1.9 0.4,2.8 12.1,-100.4 18.4,-200.9 18.7,-304.2"
         style="fill:#676757;fill-opacity:1;fill-rule:nonzero;stroke:none"
         id="path140" />
      <path
         d="m 22500,25945.8 c 0.3,103.4 6.6,203.8 18.8,304.2 0.1,-0.9 0.2,-1.8 0.3,-2.7 -12.3,-98.9 -18.8,-199.4 -19.1,-301.5"
         style="fill:#676757;fill-opacity:1;fill-rule:nonzero;stroke:none"
         id="path142" />
      <path
         d="m 22519.1,25627.7 c -12.3,98.9 -18.8,199.4 -19.1,301.5 0,0.3 0,0.7 0,1.1 0,1 0,1.8 0,2.8 0,1.5 0,2.9 0,4.4 0,1.5 0,2.9 0,4.4 0,1 0,1.8 0,2.8 0,0.4 0,0.8 0,1.1 0.3,102.1 6.8,202.6 19.1,301.5 13.5,-105.4 33.6,-208.9 59.8,-309.8 -26.2,-100.9 -46.3,-204.4 -59.8,-309.8"
         style="fill:#d8bf85;fill-opacity:1;fill-rule:nonzero;stroke:none"
         id="path144" />
      <path
         d="m 27480.9,25627.8 v 0 c 12.3,98.8 18.7,199.4 19.1,301.4 v 0 c -0.4,-102 -6.8,-202.6 -19.1,-301.4 m 17.7,394.2 c -2.5,76 -8.5,151 -17.7,225.2 v 0 c 9.2,-74.2 15.2,-149.2 17.7,-225.2"
         style="fill:#9f9679;fill-opacity:1;fill-rule:nonzero;stroke:none"
         id="path146" />
      <path
         d="m 27480.9,25627.8 c -13.5,105.4 -33.6,208.8 -59.8,309.7 26.2,100.9 46.3,204.3 59.8,309.7 9.2,-74.2 15.2,-149.2 17.7,-225.2 0.8,-25.3 1.3,-50.8 1.4,-76.2 0,-0.3 0,-0.6 0,-0.9 0,-1 0,-2 0,-3 0,-1.5 0,-2.9 0,-4.4 0,-1.5 0,-2.9 0,-4.4 0,-1 0,-2 0,-3 0,-0.3 0,-0.6 0,-0.9 -0.4,-102 -6.8,-202.6 -19.1,-301.4"
         style="fill:#d8bf85;fill-opacity:1;fill-rule:nonzero;stroke:none"
         id="path148" />
    </g>
  </g>
</svg>
