<?xml version="1.0" encoding="UTF-8" standalone="no" ?>
<!DOCTYPE svg PUBLIC "-//W3C//DTD SVG 1.1//EN" "http://www.w3.org/Graphics/SVG/1.1/DTD/svg11.dtd">
<svg xmlns="http://www.w3.org/2000/svg" xmlns:xlink="http://www.w3.org/1999/xlink" version="1.1" width="2000" height="562.5" viewBox="0 0 2000 562.5" xml:space="preserve">
<desc>Created with Fabric.js 5.3.0</desc>
<defs>
</defs>
<g transform="matrix(6.251758307 0 0 6.2517581227 976.7921536334 452.0223509386)" id="6fp7NGoW-qSnTCmxxQj6w"  >
<path style="stroke: none; stroke-width: 1; stroke-dasharray: none; stroke-linecap: butt; stroke-dashoffset: 0; stroke-linejoin: miter; stroke-miterlimit: 4; fill: rgb(0,0,0); fill-rule: nonzero; opacity: 1;"  transform=" translate(-15.9945, -17.024)" d="M 23.349 8.714 C 23.344 8.719000000000001 23.016000000000002 9.053 22.828 9.256 C 22.344 9.787 21.604 10.558 21.083 10.751000000000001 L 21.078 10.751000000000001 C 21.005 10.73 20.937 10.704 20.864 10.683000000000002 L 21.802 8.787000000000003 L 21.791999999999998 8.803000000000003 C 21.761 8.860000000000003 20.834 10.688000000000002 19.572999999999997 10.423000000000002 L 19.567999999999998 10.428000000000003 C 19.546999999999997 10.423000000000002 19.531999999999996 10.428000000000003 19.516 10.423000000000002 C 20.119999999999997 9.652000000000001 20.354999999999997 8.939000000000002 20.354999999999997 8.939000000000002 C 20.354999999999997 8.939000000000002 19.349999999999998 10.559000000000001 18.099999999999998 10.121000000000002 C 18.073999999999998 10.111000000000002 18.048 10.090000000000002 18.037 10.058000000000002 C 18.026999999999997 10.022000000000002 18.026999999999997 9.985000000000001 18.037 9.954000000000002 C 18.047 9.897000000000002 18.089 9.829000000000002 18.125999999999998 9.766000000000002 C 18.250999999999998 9.532000000000002 18.47 9.271000000000003 18.47 9.271000000000003 C 18.47 9.271000000000003 18.262 9.474000000000002 17.98 9.667000000000003 L 17.975 9.672000000000004 C 17.767000000000003 9.813000000000004 17.517000000000003 9.948000000000004 17.282 9.985000000000005 C 17.209 9.995000000000005 17.136 9.995000000000005 17.063 9.985000000000005 C 16.776999999999997 9.933000000000005 16.782 9.652000000000005 16.86 9.376000000000005 C 16.942999999999998 9.105000000000004 17.094 8.845000000000004 17.094 8.845000000000004 C 17.094 8.845000000000004 16.839000000000002 9.241000000000005 16.563000000000002 9.626000000000005 C 16.349000000000004 9.923000000000005 16.146 10.152000000000005 16.011000000000003 10.256000000000006 L 15.850000000000003 10.261000000000006 C 15.767000000000003 10.027000000000006 15.980000000000004 9.256000000000007 15.980000000000004 9.251000000000007 C 15.855000000000004 9.454000000000006 15.714000000000004 9.652000000000006 15.563000000000004 9.845000000000006 C 15.433000000000003 10.017000000000007 15.282000000000004 10.168000000000006 15.110000000000005 10.293000000000006 L 15.074000000000005 10.293000000000006 C 14.965000000000005 10.303000000000006 14.860000000000005 10.319000000000006 14.756000000000006 10.335000000000006 C 14.709000000000005 10.293000000000006 14.678000000000006 10.231000000000007 14.673000000000005 10.168000000000006 C 14.616000000000005 9.809000000000006 14.834000000000005 9.158000000000007 14.840000000000005 9.152000000000006 C 14.835000000000004 9.157000000000007 14.715000000000005 9.496000000000006 14.559000000000005 9.819000000000006 L 14.559000000000005 9.824000000000007 C 14.517000000000005 9.918000000000006 14.465000000000005 9.985000000000007 14.413000000000004 10.064000000000007 C 14.298000000000004 10.246000000000008 14.179000000000004 10.387000000000008 14.069000000000004 10.356000000000007 C 13.897000000000004 10.304000000000007 13.798000000000004 10.085000000000006 13.741000000000005 9.882000000000007 C 13.678000000000004 9.679000000000007 13.663000000000006 9.481000000000007 13.663000000000006 9.481000000000007 C 13.663000000000006 9.481000000000007 13.621000000000006 9.820000000000007 13.507000000000005 10.132000000000007 C 13.465000000000005 10.257000000000007 13.398000000000005 10.377000000000006 13.314000000000005 10.481000000000007 C 13.283000000000005 10.517000000000007 13.236000000000006 10.533000000000007 13.199000000000005 10.554000000000007 C 12.001000000000005 10.768000000000008 10.829000000000004 11.111000000000008 9.709000000000005 11.575000000000006 C 9.412000000000004 11.684000000000006 9.115000000000006 11.789000000000007 8.808000000000005 11.919000000000006 C 7.808000000000005 12.346000000000005 6.772000000000006 12.883000000000006 5.688000000000005 13.580000000000005 C 4.485000000000005 14.356000000000005 3.344000000000005 15.226000000000006 2.2710000000000052 16.174000000000007 C 1.6770000000000054 16.700000000000006 1.0630000000000053 17.268000000000008 0.4380000000000053 17.893000000000008 C 5.183000000000005 15.341000000000008 7.063000000000005 11.570000000000007 15.948000000000006 11.237000000000009 C 22.672000000000004 10.982000000000008 25.813000000000006 14.08600000000001 26.854000000000006 14.128000000000009 C 29.458000000000006 14.237000000000009 31.193000000000005 12.263000000000009 31.750000000000007 11.53400000000001 C 31.896000000000008 11.346000000000009 31.98400000000001 11.21600000000001 31.990000000000006 11.20600000000001 C 31.980000000000004 11.22200000000001 31.552000000000007 11.70600000000001 30.954000000000004 12.17000000000001 L 30.944000000000003 12.175000000000011 C 30.329000000000004 12.64400000000001 29.543000000000003 13.081000000000012 28.845000000000002 12.977000000000011 L 28.840000000000003 12.977000000000011 C 28.751000000000005 12.961000000000011 28.658000000000005 12.967000000000011 28.569000000000003 12.93000000000001 C 29.559 12.352000000000011 30.215000000000003 11.34700000000001 30.543000000000003 10.80500000000001 C 30.647000000000002 10.63800000000001 30.856 10.326000000000011 30.856 10.326000000000011 C 30.856 10.326000000000011 28.528000000000002 12.711000000000011 26.793000000000003 12.550000000000011 C 26.720000000000002 12.54500000000001 26.652000000000005 12.560000000000011 26.585000000000004 12.54500000000001 C 27.340000000000003 11.951000000000011 27.898000000000003 11.15400000000001 28.288000000000004 10.48200000000001 L 28.288000000000004 10.47700000000001 L 28.293000000000003 10.47700000000001 C 28.715000000000003 9.74800000000001 28.934000000000005 9.164000000000009 28.934000000000005 9.154000000000009 C 28.929000000000006 9.164000000000009 28.502000000000006 9.815000000000008 27.913000000000004 10.53400000000001 L 27.903000000000002 10.55000000000001 C 27.314000000000004 11.269000000000009 26.570000000000004 12.045000000000009 25.950000000000003 12.28400000000001 C 25.856 12.31500000000001 25.762000000000004 12.36700000000001 25.679000000000002 12.378000000000009 C 27.122000000000003 11.097000000000008 27.731 9.28400000000001 27.731 9.28400000000001 C 27.731 9.28400000000001 26.267000000000003 11.40900000000001 25.028000000000002 11.80000000000001 C 24.955000000000002 11.82100000000001 24.877000000000002 11.86300000000001 24.799000000000003 11.87300000000001 C 25.559000000000005 11.19100000000001 25.960000000000004 10.644000000000009 26.210000000000004 10.21700000000001 C 26.528000000000006 9.68100000000001 26.585000000000004 9.35200000000001 26.585000000000004 9.35200000000001 L 26.580000000000005 9.35700000000001 C 26.460000000000004 9.50800000000001 26.340000000000007 9.65400000000001 26.215000000000007 9.80000000000001 L 26.194000000000006 9.82100000000001 C 25.855000000000008 10.22200000000001 25.335000000000008 10.80000000000001 24.803000000000004 11.259000000000011 L 24.798000000000005 11.264000000000012 C 24.657000000000007 11.384000000000011 24.517000000000007 11.493000000000011 24.371000000000006 11.597000000000012 C 24.329000000000004 11.623000000000012 24.288000000000007 11.660000000000013 24.251000000000005 11.686000000000012 C 24.136000000000006 11.754000000000012 24.011000000000006 11.816000000000013 23.886000000000006 11.868000000000013 C 23.855000000000008 11.878000000000013 23.829000000000008 11.899000000000013 23.797000000000008 11.910000000000013 C 23.70800000000001 11.847000000000012 23.625000000000007 11.785000000000013 23.526000000000007 11.728000000000012 C 23.463000000000008 11.806000000000012 23.396000000000008 11.884000000000013 23.338000000000008 11.962000000000012 L 23.33300000000001 11.962000000000012 C 23.30700000000001 11.957000000000011 23.27600000000001 11.957000000000011 23.25000000000001 11.941000000000011 C 24.39600000000001 10.696000000000012 25.17200000000001 9.118000000000011 25.17200000000001 9.118000000000011 L 25.16200000000001 9.123000000000012 C 25.152000000000008 9.133000000000012 23.57300000000001 11.269000000000013 22.86000000000001 11.399000000000012 C 22.76600000000001 11.352000000000011 22.67200000000001 11.305000000000012 22.57400000000001 11.264000000000012 C 22.579000000000008 11.191000000000011 22.60000000000001 11.118000000000011 22.631000000000007 11.045000000000012 C 22.79200000000001 10.670000000000012 23.25100000000001 10.092000000000013 23.25100000000001 10.092000000000013 C 23.25100000000001 10.092000000000013 23.12600000000001 10.186000000000012 23.084000000000007 10.217000000000013 C 22.954000000000008 10.332000000000013 22.818000000000005 10.436000000000012 22.683000000000007 10.535000000000013 C 22.605000000000008 10.592000000000013 22.527000000000008 10.634000000000013 22.454000000000008 10.681000000000013 C 22.36500000000001 10.733000000000013 22.282000000000007 10.785000000000013 22.19900000000001 10.822000000000013 C 22.09500000000001 10.885000000000014 21.97500000000001 10.921000000000014 21.85000000000001 10.937000000000014 C 21.79300000000001 10.937000000000014 21.741000000000007 10.932000000000013 21.704000000000008 10.901000000000014 C 22.308000000000007 10.531000000000015 23.33900000000001 8.729000000000013 23.35000000000001 8.719000000000014 z M 16.958 11.599 C 16.552 11.594 16.145 11.594 15.743999999999998 11.609 C 15.358999999999998 11.625 15.009999999999998 11.651 14.649999999999999 11.682 C 14.274999999999999 11.849 13.921 12.041 13.602999999999998 12.297 C 13.633999999999999 12.365 13.649999999999999 12.443000000000001 13.649999999999999 12.521 C 13.649999999999999 12.610000000000001 13.628999999999998 12.693000000000001 13.586999999999998 12.771 L 14.768999999999998 13.63 L 14.799999999999999 13.609 L 14.315999999999999 11.921 L 15.149 13.411 C 15.174999999999999 13.401 15.206 13.389999999999999 15.232 13.379999999999999 L 15.206 11.733999999999998 L 15.737 13.285999999999998 L 16.367 11.749999999999998 L 16.393 13.442999999999998 C 16.398 13.447999999999999 16.403000000000002 13.452999999999998 16.409 13.452999999999998 L 17.357 12.113999999999997 L 16.872999999999998 13.738999999999997 L 16.883 13.748999999999997 L 18.274 12.826999999999996 L 17.264 14.227999999999996 L 17.264 14.237999999999996 L 18.53 13.784999999999997 C 18.546 13.758999999999997 18.572000000000003 13.742999999999997 18.587 13.716999999999997 C 18.274 13.331999999999997 18.629 12.768999999999997 19.113 12.877999999999997 C 19.269 12.549999999999997 19.394 12.205999999999996 19.472 11.851999999999997 C 18.639000000000003 11.705999999999996 17.8 11.622999999999998 16.962000000000003 11.596999999999996 z M 13.62 11.781 L 13.588999999999999 11.781 C 13.182999999999998 11.828000000000001 12.781999999999998 11.885 12.400999999999998 11.948 C 12.019999999999998 12.011000000000001 11.650999999999998 12.083 11.301999999999998 12.162 L 11.285999999999998 12.162 C 11.436999999999998 12.683000000000002 11.676999999999998 13.172 11.988999999999997 13.605 C 12.134999999999998 13.287 12.316999999999997 12.99 12.524999999999997 12.72 C 12.352999999999996 12.251000000000001 12.816999999999997 11.793000000000001 13.284999999999997 11.98 C 13.388999999999996 11.902000000000001 13.508999999999997 11.85 13.617999999999997 11.782 z M 19.563 11.901 C 19.541999999999998 12.276 19.468999999999998 12.645999999999999 19.349 13.004999999999999 C 19.734 13.354 19.422 13.988999999999999 18.911 13.911 C 18.703000000000003 14.218 18.458000000000002 14.504999999999999 18.177 14.75 L 19.057 14.797 L 17.733999999999998 15.110000000000001 C 17.697999999999997 15.136000000000001 17.671 15.167000000000002 17.634999999999998 15.188 C 18.389999999999997 15.308 19.098999999999997 15.626000000000001 19.686999999999998 16.11 C 20.113999999999997 15.344 20.358999999999998 14.463999999999999 20.358999999999998 13.520999999999999 C 20.358999999999998 12.806999999999999 20.040999999999997 12.286999999999999 19.566999999999997 11.901 z M 11.141 12.203 C 10.745 12.296999999999999 10.365 12.401 10.006 12.51 C 9.824 12.812 9.725 13.166 9.725 13.52 C 9.725 15.687 11.017 17.541 12.866 18.374 L 12.871 18.358 C 12.558 18.051000000000002 12.298 17.697 12.095 17.306 C 11.241000000000001 17.426000000000002 10.876000000000001 16.254 11.647 15.868 C 11.574 15.243 11.637 14.613 11.835 14.014 C 11.465000000000002 13.472 11.231000000000002 12.853 11.142000000000001 12.200999999999999 z M 21.313 12.24 C 21.500999999999998 12.787 21.615 13.36 21.615 13.964 C 21.615 17.214 18.677 19.855 15.052 19.855 C 11.431999999999999 19.855 8.495 17.214 8.495 13.964 C 8.495 13.646 8.526 13.339 8.578 13.037 C 7.542 13.475000000000001 6.645999999999999 13.98 5.811999999999999 14.521 C 5.526 15.037 5.385 15.578000000000001 5.4319999999999995 16.12 C 5.547 17.433 6.702999999999999 18.526 8.468 19.271 L 8.124 19.182000000000002 C 5.072000000000001 18.317000000000004 2.6500000000000004 19.849000000000004 -0.0009999999999994458 18.521 C 0.6140000000000005 19.005000000000003 1.3120000000000005 19.479 3.3270000000000004 19.485 C 4.015000000000001 19.485 6.207000000000001 19.375999999999998 6.613 19.735 C 7.014 20.084 5.248 21.750999999999998 5.248 21.750999999999998 C 5.248 21.750999999999998 8.238 19.22 8.524000000000001 20.083999999999996 C 8.706000000000001 20.619999999999997 7.670000000000001 22.052999999999997 7.670000000000001 22.052999999999997 C 7.670000000000001 22.052999999999997 8.712000000000002 20.641999999999996 9.488000000000001 20.339 C 10.019000000000002 20.131 10.467 20.157 10.853000000000002 20.692999999999998 C 11.103000000000002 21.041999999999998 9.639000000000001 22.761 9.639000000000001 22.761 C 9.639000000000001 22.761 11.608 20.843999999999998 11.957 20.942999999999998 C 12.311 21.041999999999998 11.957 22.761 11.957 22.761 C 11.957 22.761 12.686 21.021 13.072000000000001 20.891 C 13.603000000000002 20.714 11.858 24.933 11.858 24.933 C 11.858 24.933 13.988 21.032 14.384 20.942999999999998 C 15.066 20.791999999999998 15.519 23.666999999999998 15.519 23.666999999999998 C 15.519 23.666999999999998 15.186 21.150999999999996 15.545 20.99 C 17.805 19.968999999999998 16.503 25.334 16.503 25.334 C 16.503 25.334 17.982 21.692999999999998 17.076 20.886 C 19.472 22.474999999999998 19.18 25.334 19.18 25.334 C 19.18 25.334 19.805 23.975 18.039 20.625999999999998 C 18.997 20.578999999999997 20.44 23.116 20.44 23.116 C 20.44 23.116 18.872 20.34 19.935000000000002 20.288 C 22.039 20.189 22.253000000000004 23.976 22.253000000000004 23.976 C 22.253000000000004 23.976 22.888000000000005 23.445 21.196000000000005 19.735999999999997 C 22.274000000000004 19.042999999999996 24.878000000000004 23.162999999999997 24.878000000000004 23.162999999999997 C 24.878000000000004 23.162999999999997 22.477000000000004 19.141999999999996 22.862000000000002 18.870999999999995 C 23.247000000000003 18.604999999999997 24.659000000000002 20.151999999999994 24.659000000000002 20.151999999999994 C 24.659000000000002 20.151999999999994 23.586000000000002 18.672999999999995 23.867 18.521999999999995 C 24.153000000000002 18.370999999999995 27.018 21.464999999999996 27.018 21.464999999999996 C 27.018 21.464999999999996 24.492 18.438999999999997 24.929000000000002 18.063999999999997 C 25.367 17.693999999999996 27.215000000000003 19.110999999999997 27.215000000000003 19.110999999999997 C 27.215000000000003 19.110999999999997 24.371000000000002 17.246 24.929000000000002 16.955 C 25.700000000000003 16.554 27.908 17.912999999999997 27.908 17.912999999999997 C 27.908 17.912999999999997 26.580000000000002 16.818999999999996 26.799 16.553999999999995 C 27.018 16.282999999999994 29.627 18.267999999999994 29.627 18.267999999999994 C 29.627 18.267999999999994 27.32 16.449999999999992 27.2 15.996999999999993 C 27.085 15.543999999999993 29.018 16.147999999999993 29.018 16.147999999999993 C 29.018 16.147999999999993 26.883000000000003 15.157999999999992 26.851 14.871999999999993 C 26.814999999999998 14.585999999999993 28.262 15.189999999999992 28.262 15.189999999999992 C 28.262 15.189999999999992 26.278 13.559999999999992 25.788 14.887999999999993 C 25.679 15.101999999999993 25.538 15.288999999999993 25.413 15.486999999999993 C 25.533 15.127999999999993 25.59 14.762999999999993 25.559 14.392999999999994 C 25.543000000000003 14.267999999999994 25.523 14.142999999999994 25.486 14.022999999999994 C 24.580000000000002 13.532999999999994 23.22 12.777999999999995 21.309 12.241999999999994 z M 13.542 12.844 C 13.395999999999999 13.068 13.115 13.157 12.865 13.062999999999999 C 12.792 13.161999999999999 12.73 13.265999999999998 12.667 13.37 L 14.37 13.995 C 14.386 13.979 14.395999999999999 13.959 14.411999999999999 13.937999999999999 z M 12.661 13.37 C 12.536 13.578 12.421 13.792 12.338 14.026 C 12.498999999999999 14.193 12.687 14.339 12.863999999999999 14.479 L 14.093 14.443 L 14.098 14.437999999999999 z M 18.245 14.094 L 17.438000000000002 14.709 L 17.511000000000003 14.714 C 17.777 14.537 18.021000000000004 14.329 18.245000000000005 14.094000000000001 z M 12.198 14.479 C 12.198 14.495 12.193 14.51 12.188 14.526 C 12.094000000000001 14.948 12.073 15.379999999999999 12.125 15.807 C 12.438 15.870000000000001 12.677 16.12 12.724 16.437 L 13.974 15.635000000000002 C 13.859 15.593000000000002 13.745000000000001 15.557000000000002 13.641 15.510000000000002 L 12.24 15.406000000000002 L 13.089 15.218000000000002 C 12.761000000000001 15.015000000000002 12.464 14.765000000000002 12.198 14.478000000000002 z M 13.255 14.76 C 13.443000000000001 14.875 13.63 14.974 13.828000000000001 15.062 L 13.984000000000002 15.026 C 13.984000000000002 15.004999999999999 13.989000000000003 14.979 13.989000000000003 14.953 z M 17.417 15.672 L 18.641000000000002 16.87 L 17.042 16.25 L 17.98 17.688 L 16.548000000000002 16.579 L 16.532000000000004 16.584 L 16.996000000000002 18.291999999999998 L 16.199 16.775999999999996 L 16.074 18.546999999999997 L 15.532000000000002 16.781 L 14.907000000000002 18.462999999999997 L 15.058000000000002 16.65 L 15.037 16.639999999999997 L 13.954 18.176 L 14.350000000000001 16.697 C 13.886000000000001 17.14 13.527000000000001 17.680999999999997 13.293000000000001 18.285999999999998 C 13.418000000000001 18.421 13.553 18.546 13.694 18.671 C 15.913 19.249 18.251 18.343 19.496000000000002 16.416 C 18.991000000000003 16.067 18.423000000000002 15.822000000000001 17.819000000000003 15.697000000000001 z M 14.172 15.969 L 12.734 16.485 C 12.734 16.511 12.744 16.532 12.744 16.553 C 12.744 16.767 12.655 16.970000000000002 12.499 17.116 C 12.634 17.408 12.801 17.679 12.999 17.934 C 13.108 17.637 13.254000000000001 17.356 13.426 17.09 L 13.03 17.408 z M 19.016 19.688 C 18.766 19.750999999999998 18.520999999999997 19.817999999999998 18.266 19.869999999999997 C 18.520999999999997 19.817999999999998 18.766 19.749999999999996 19.016 19.688 z M 17.563 20 C 17.412 20.026 17.261 20.063 17.11 20.083 C 16.839 20.125 16.589 20.139999999999997 16.329 20.165999999999997 C 16.751 20.123999999999995 17.162 20.066999999999997 17.563000000000002 19.998999999999995 z M 15.76 20.229 C 15.613999999999999 20.239 15.474 20.233999999999998 15.328 20.244999999999997 C 15.479 20.234999999999996 15.613999999999999 20.24 15.76 20.229 z" stroke-linecap="round" />
</g>
<g transform="matrix(0.25 0 0 0.25 1333.606557377 394.17517)" id="c1nlROCkI0-shb0X7NExK"  >
<g style=""   >
		<g transform="matrix(0.78125 0 0 0.78125 0 0)" id="ZepKKOp1jt5wdX93Xrouv"  >
<path style="stroke: none; stroke-width: 1; stroke-dasharray: none; stroke-linecap: butt; stroke-dashoffset: 0; stroke-linejoin: miter; stroke-miterlimit: 4; fill: rgb(19,170,82); fill-rule: nonzero; opacity: 1;"  transform=" translate(-512, -512)" d="M 0 512 C 0 229.23021 229.23021 0 512 0 C 794.7697900000001 0 1024 229.23021 1024 512 C 1024 794.7697900000001 794.7697900000001 1024 512 1024 C 229.23021 1024 0 794.7697900000001 0 512 z" stroke-linecap="round" />
</g>
		<g transform="matrix(0.78125 0 0 0.78125 3.1340842845 0.00390625)" id="bWE1ZWRTJe8KnumYQQRsR"  >
<path style="stroke: none; stroke-width: 1; stroke-dasharray: none; stroke-linecap: butt; stroke-dashoffset: 0; stroke-linejoin: miter; stroke-miterlimit: 4; fill: rgb(255,255,255); fill-rule: nonzero; opacity: 1;"  transform=" translate(-516.0116278842, -512.005)" d="M 648.86 449.44 C 616.52 306.71000000000004 540.09 259.78 531.86 241.85 C 522.86 229.2 513.74 206.7 513.74 206.7 C 513.59 206.32 513.35 205.64999999999998 513.07 205 C 512.1400000000001 217.65 511.66 222.53 499.70000000000005 235.29 C 481.18000000000006 249.76999999999998 386.16 329.5 378.43000000000006 491.65999999999997 C 371.2200000000001 642.9 487.68000000000006 733.02 503.43000000000006 744.51 L 505.2200000000001 745.78 L 505.2200000000001 745.67 C 505.3200000000001 746.43 510.2200000000001 781.67 513.6600000000001 819.01 L 526 819.01 C 528.8953381239078 792.6154832267525 533.2351803973722 766.399497554817 539 740.4800000000002 L 540 739.83 C 547.045261857908 734.7785008323686 553.7621498958821 729.2840797371585 560.11 723.38 L 560.83 722.73 C 594.3100000000001 691.8000000000001 654.5 620.26 653.9100000000001 506.20000000000005 C 653.7853424281924 487.1735608461773 652.0963176547567 468.1895913134616 648.8600000000001 449.43999999999994 z M 512.35 659.12 C 512.35 659.12 512.35 447 519.35 447.03999999999996 C 524.8100000000001 447.03999999999996 531.88 720.65 531.88 720.65 C 522.16 719.48 512.35 675.62 512.35 659.12 z" stroke-linecap="round" />
</g>
</g>
</g>
<g transform="matrix(0.3401360544 0 0 0.3401360542 637.6118341801 394.17517)" id="IXoMgTR1xtCIkajNRiLLB"  >
<g style=""   >
		<g transform="matrix(1 0 0 1 -24.2296815678 -10.496638934)" id="zEU4rQkI6gvnCEeBqHGM8"  >
<path style="stroke: none; stroke-width: 1; stroke-dasharray: none; stroke-linecap: butt; stroke-dashoffset: 0; stroke-linejoin: miter; stroke-miterlimit: 4; fill: rgb(236,18,24); fill-rule: nonzero; opacity: 1;"  transform=" translate(-269.7703184322, -321.503361066)" d="M 1 344 C 1 329.312439 1 314.624878 1.379538 299.306854 C 3.928502 285.049438 5.227476 271.215881 8.404793 257.828125 C 34.269402 148.846603 125.082634 67.107552 236.030075 52.80492 C 289.134308 45.959057 340.249786 53.669884 387.793915 78.308731 C 478.317596 125.220901 528.245361 200.754593 537.407104 301.739227 C 543.586182 369.847717 524.395203 432.087433 482.472351 486.379608 C 433.819458 549.387512 369.330231 584.89801 289.968506 591.606873 C 238.366776 595.969055 189.087708 585.786804 143.627472 560.575745 C 64.700188 516.804749 18.290314 449.918549 3.854987 360.834198 C 2.94463 355.216125 1.953534 349.611084 1 344 M 136.65509 405.953857 C 161.410507 407.613556 186.146774 410.212036 210.925751 410.718048 C 250.383026 411.523865 289.895325 411.824799 329.333832 410.647858 C 359.413116 409.750244 389.466675 406.748779 419.432465 403.706085 C 441.099518 401.506042 452.430573 389.234894 452.651367 369.082367 C 453.03656 333.930267 453.091705 298.772461 452.989441 263.61792 C 452.942505 247.485291 441.290405 232.683334 425.431793 230.134598 C 410.859589 227.792572 395.991302 227.041229 381.217804 226.282211 C 369.273163 225.668518 365.218292 230.061478 365.206848 241.918488 C 365.18576 263.744812 365.207245 285.571167 365.19101 307.397491 C 365.189728 309.13913 365.033691 310.880615 364.988983 311.806702 C 301.784241 311.806702 239.240036 311.806702 176.404755 311.806702 C 176.35997 310.890778 176.241837 309.592346 176.24115 308.293854 C 176.229294 285.801056 176.301102 263.307953 176.200043 240.815613 C 176.154251 230.622803 171.548615 225.8349 161.507645 226.257172 C 147.71109 226.837387 133.879013 227.522217 120.174873 229.12558 C 100.384239 231.441086 88.472977 245.542328 88.462021 265.468567 C 88.446266 294.126038 88.43251 322.783569 88.475861 351.440979 C 88.48719 358.933441 88.310852 366.458679 88.924171 373.91095 C 90.181282 389.185699 100.891243 400.476776 115.993752 402.966431 C 122.561028 404.049072 129.16423 404.913788 136.65509 405.953857 z" stroke-linecap="round" />
</g>
		<g transform="matrix(1 0 0 1 0.9606325 0.9443635)" id="fONrAKp3ev-7VqP_4uKTc"  >
<path style="stroke: none; stroke-width: 1; stroke-dasharray: none; stroke-linecap: butt; stroke-dashoffset: 0; stroke-linejoin: miter; stroke-miterlimit: 4; fill: rgb(255,255,255); fill-rule: nonzero; opacity: 1;"  transform=" translate(-294.9606325, -332.9443635)" d="M 1 344.468658 C 1.953534 349.611084 2.94463 355.216125 3.854987 360.834198 C 18.290314 449.918549 64.700188 516.804749 143.627472 560.575745 C 189.087708 585.786804 238.366776 595.969055 289.968506 591.606873 C 369.330231 584.89801 433.819458 549.387512 482.472351 486.379608 C 524.395203 432.087433 543.586182 369.847717 537.407104 301.739227 C 528.245361 200.754593 478.317596 125.220901 387.793915 78.308731 C 340.249786 53.669884 289.134308 45.959057 236.030075 52.80492 C 125.082634 67.107552 34.269402 148.846603 8.404793 257.828125 C 5.227476 271.215881 3.928502 285.049438 1.379538 298.838196 C 1 199.684326 1 100.368645 1 1.026483 C 196.94751 1.026483 392.89502 1.026483 588.921265 1.026483 C 588.921265 222.24147 588.921265 443.482971 588.921265 664.862244 C 393.000061 664.862244 197.000046 664.862244 1 664.862244 C 1 558.232544 1 451.58493 1 344.468658 z" stroke-linecap="round" />
</g>
		<g transform="matrix(1 0 0 1 -23.2593460716 -13.1723361138)" id="DknCvbSYzORXU1PIHbtG4"  >
<path style="stroke: none; stroke-width: 1; stroke-dasharray: none; stroke-linecap: butt; stroke-dashoffset: 0; stroke-linejoin: miter; stroke-miterlimit: 4; fill: rgb(255,254,254); fill-rule: nonzero; opacity: 1;"  transform=" translate(-270.7406539284, -318.8276638862)" d="M 136.20311 405.915649 C 129.16423 404.913788 122.561028 404.049072 115.993752 402.966431 C 100.891243 400.476776 90.181282 389.185699 88.924171 373.91095 C 88.310852 366.458679 88.48719 358.933441 88.475861 351.440979 C 88.43251 322.783569 88.446266 294.126038 88.462021 265.468567 C 88.472977 245.542328 100.384239 231.441086 120.174873 229.12558 C 133.879013 227.522217 147.71109 226.837387 161.507645 226.257172 C 171.548615 225.8349 176.154251 230.622803 176.200043 240.815613 C 176.301102 263.307953 176.229294 285.801056 176.24115 308.293854 C 176.241837 309.592346 176.35997 310.890778 176.404755 311.806702 C 239.240036 311.806702 301.784241 311.806702 364.988983 311.806702 C 365.033691 310.880615 365.189728 309.13913 365.19101 307.397491 C 365.207245 285.571167 365.18576 263.744812 365.206848 241.918488 C 365.218292 230.061478 369.273163 225.668518 381.217804 226.282211 C 395.991302 227.041229 410.859589 227.792572 425.431793 230.134598 C 441.290405 232.683334 452.942505 247.485291 452.989441 263.61792 C 453.091705 298.772461 453.03656 333.930267 452.651367 369.082367 C 452.430573 389.234894 441.099518 401.506042 419.432465 403.706085 C 389.466675 406.748779 359.413116 409.750244 329.333832 410.647858 C 289.895325 411.824799 250.383026 411.523865 210.925751 410.718048 C 186.146774 410.212036 161.410507 407.613556 136.20311 405.915649 z" stroke-linecap="round" />
</g>
</g>
</g>
</svg>