<?xml version="1.0" encoding="UTF-8"?>
<svg xmlns="http://www.w3.org/2000/svg" xmlns:xlink="http://www.w3.org/1999/xlink" width="3001" height="2911" viewBox="0 0 3001 2911">
<path fill-rule="evenodd" fill="rgb(13.330078%, 14.109802%, 14.109802%)" fill-opacity="1" d="M 2400.308594 2570.113281 C 2394.269531 2570.113281 2388.359375 2568.671875 2382.738281 2565.503906 C 2365.890625 2555.710938 2360.28125 2534.183594 2369.859375 2517.40625 L 2882.570312 1629.289062 C 2892.359375 1612.441406 2913.820312 1606.820312 2930.660156 1616.328125 C 2947.511719 1626.050781 2953.128906 1647.570312 2943.628906 1664.429688 L 2430.839844 2552.542969 C 2424.289062 2563.777344 2412.339844 2570.113281 2400.308594 2570.113281 Z M 2400.308594 2570.113281 "/>
<path fill-rule="evenodd" fill="rgb(13.330078%, 14.109802%, 14.109802%)" fill-opacity="1" d="M 87.671875 1297.21875 C 81.769531 1297.21875 75.71875 1295.789062 70.105469 1292.621094 C 53.257812 1282.820312 47.640625 1261.371094 57.144531 1244.519531 L 569.207031 357.621094 C 578.929688 340.78125 600.457031 335.160156 617.304688 344.660156 C 634.078125 354.460938 639.769531 375.910156 630.191406 392.761719 L 118.199219 1279.660156 C 111.574219 1291.109375 99.839844 1297.21875 87.671875 1297.21875 Z M 87.671875 1297.21875 "/>
<path fill-rule="evenodd" fill="rgb(51.367188%, 51.367188%, 51.367188%)" fill-opacity="1" d="M 2697.460938 854.429688 L 2017.128906 854.429688 C 2138.519531 761.328125 2217 614.808594 2217 450.359375 C 2217 285.980469 2138.589844 139.460938 2017.199219 46.371094 L 2697.460938 46.371094 C 2785.800781 46.371094 2857.800781 118.371094 2857.800781 206.78125 L 2857.800781 693.789062 C 2857.800781 782.429688 2785.800781 854.429688 2697.460938 854.429688 Z M 2472.890625 585.359375 L 2316.859375 585.359375 C 2297.570312 585.359375 2281.730469 569.730469 2281.730469 550.21875 C 2281.730469 530.710938 2297.570312 515.089844 2316.859375 515.089844 L 2472.890625 515.089844 C 2492.109375 515.089844 2508.019531 530.710938 2508.019531 550.21875 C 2508.019531 569.730469 2492.398438 585.359375 2472.890625 585.359375 Z M 2628.839844 385.699219 L 2316.859375 385.699219 C 2297.570312 385.699219 2281.730469 370.078125 2281.730469 350.570312 C 2281.730469 330.980469 2297.570312 315.359375 2316.859375 315.359375 L 2628.839844 315.359375 C 2648.140625 315.359375 2663.980469 330.980469 2663.980469 350.570312 C 2663.980469 370.078125 2648.351562 385.699219 2628.839844 385.699219 Z M 2628.839844 385.699219 "/>
<path fill-rule="evenodd" fill="rgb(51.367188%, 51.367188%, 51.367188%)" fill-opacity="1" d="M 2176.96875 1859.179688 L 1496.789062 1859.179688 C 1618.179688 1766.089844 1696.511719 1619.640625 1696.511719 1455.191406 C 1696.511719 1290.738281 1618.109375 1144.300781 1496.710938 1051.199219 L 2176.96875 1051.199219 C 2265.378906 1051.199219 2337.378906 1123.199219 2337.378906 1211.539062 L 2337.378906 1698.550781 C 2337.378906 1787.179688 2265.378906 1859.179688 2176.96875 1859.179688 Z M 1951.179688 1590.191406 L 1795.148438 1590.191406 C 1775.859375 1590.191406 1760.019531 1574.351562 1760.019531 1555.058594 C 1760.019531 1535.761719 1775.859375 1519.921875 1795.148438 1519.921875 L 1951.179688 1519.921875 C 1970.46875 1519.921875 1986.308594 1535.761719 1986.308594 1555.058594 C 1986.308594 1574.351562 1970.691406 1590.191406 1951.179688 1590.191406 Z M 2107.128906 1390.539062 L 1795.148438 1390.539062 C 1775.859375 1390.539062 1760.019531 1374.910156 1760.019531 1355.328125 C 1760.019531 1335.820312 1775.859375 1320.191406 1795.148438 1320.191406 L 2107.128906 1320.191406 C 2126.429688 1320.191406 2142.339844 1335.820312 2142.339844 1355.328125 C 2142.339844 1374.910156 2126.710938 1390.539062 2107.128906 1390.539062 Z M 2107.128906 1390.539062 "/>
<path fill-rule="evenodd" fill="rgb(51.367188%, 51.367188%, 51.367188%)" fill-opacity="1" d="M 1582.03125 2864.015625 L 902.136719 2864.015625 C 1023.460938 2770.921875 1101.859375 2624.472656 1101.859375 2460.023438 C 1101.859375 2295.574219 1023.378906 2149.128906 901.992188 2055.960938 L 1582.03125 2055.960938 C 1670.449219 2055.960938 1742.449219 2127.960938 1742.449219 2216.375 L 1742.449219 2703.382812 C 1742.449219 2792.015625 1670.660156 2864.015625 1582.03125 2864.015625 Z M 1357.679688 2595.023438 L 1201.730469 2595.023438 C 1182.140625 2595.023438 1166.519531 2579.113281 1166.519531 2559.816406 C 1166.519531 2540.59375 1182.140625 2524.679688 1201.730469 2524.679688 L 1357.679688 2524.679688 C 1377.191406 2524.679688 1392.890625 2540.59375 1392.890625 2559.816406 C 1392.890625 2579.113281 1377.191406 2595.023438 1357.679688 2595.023438 Z M 1513.699219 2395.296875 L 1201.730469 2395.296875 C 1182.140625 2395.296875 1166.519531 2379.457031 1166.519531 2360.160156 C 1166.519531 2340.863281 1182.140625 2325.023438 1201.730469 2325.023438 L 1513.699219 2325.023438 C 1533 2325.023438 1548.839844 2340.863281 1548.839844 2360.160156 C 1548.839844 2379.457031 1533.210938 2395.296875 1513.699219 2395.296875 Z M 1513.699219 2395.296875 "/>
<path fill-rule="evenodd" fill="rgb(13.330078%, 14.109802%, 14.109802%)" fill-opacity="1" d="M 1708.03125 900.789062 C 1459.78125 900.789062 1257.601562 698.691406 1257.601562 450.359375 C 1257.601562 202.109375 1459.78125 0 1708.03125 0 C 1956.289062 0 2158.390625 202.109375 2158.390625 450.359375 C 2158.390625 698.691406 1956.289062 900.789062 1708.03125 900.789062 Z M 1751.449219 622.011719 C 1732.148438 622.011719 1716.308594 606.378906 1716.308594 586.871094 L 1716.308594 349.058594 L 1664.328125 349.058594 C 1645.03125 349.058594 1629.191406 333.429688 1629.191406 313.921875 C 1629.191406 294.410156 1645.03125 278.78125 1664.328125 278.78125 L 1751.449219 278.78125 C 1770.738281 278.78125 1786.589844 294.410156 1786.589844 313.921875 L 1786.589844 586.871094 C 1786.589844 606.378906 1770.960938 622.011719 1751.449219 622.011719 Z M 1751.449219 622.011719 "/>
<path fill-rule="evenodd" fill="rgb(13.330078%, 14.109802%, 14.109802%)" fill-opacity="1" d="M 1187.539062 1905.621094 C 939.289062 1905.621094 737.113281 1703.449219 737.113281 1455.191406 C 737.113281 1206.941406 939.289062 1004.761719 1187.539062 1004.761719 C 1435.800781 1004.761719 1637.980469 1206.941406 1637.980469 1455.191406 C 1637.980469 1703.449219 1436.089844 1905.621094 1187.539062 1905.621094 Z M 1299.359375 1702.011719 L 1045.199219 1702.011719 C 1031.089844 1702.011719 1018.128906 1693.441406 1012.730469 1680.269531 C 1007.398438 1667.089844 1010.28125 1651.96875 1020.359375 1641.960938 C 1066.011719 1596.308594 1112.089844 1551.101562 1158.019531 1505.949219 C 1195.609375 1469.089844 1232.980469 1432.511719 1270.339844 1395.359375 C 1293.238281 1372.679688 1300.078125 1349.710938 1290.789062 1327.539062 C 1279.128906 1299.171875 1244.210938 1279.441406 1209.5 1278.429688 C 1171.921875 1278.71875 1141.390625 1303.558594 1123.320312 1348.269531 C 1116.050781 1366.339844 1095.53125 1375.128906 1077.671875 1367.789062 C 1059.601562 1360.441406 1050.820312 1340.210938 1058.160156 1322.140625 C 1086.960938 1250.140625 1141.890625 1208.589844 1209.070312 1208.160156 C 1209.289062 1208.160156 1209.789062 1208.160156 1210.011719 1208.160156 C 1273.21875 1208.160156 1333.058594 1245.960938 1355.730469 1300.390625 C 1376.039062 1349.5 1363.078125 1402.199219 1319.878906 1445.179688 C 1282.511719 1482.269531 1244.929688 1519.128906 1207.339844 1555.988281 C 1181.710938 1581.121094 1156.078125 1606.320312 1130.449219 1631.660156 L 1299.359375 1631.660156 C 1318.871094 1631.660156 1334.5 1647.570312 1334.5 1666.871094 C 1334.5 1686.171875 1318.871094 1702.011719 1299.359375 1702.011719 Z M 1299.359375 1702.011719 "/>
<path fill-rule="evenodd" fill="rgb(13.330078%, 14.109802%, 14.109802%)" fill-opacity="1" d="M 592.824219 2910.382812 C 344.566406 2910.382812 142.464844 2708.28125 142.464844 2460.023438 C 142.464844 2211.769531 344.566406 2009.59375 592.824219 2009.59375 C 841.152344 2009.59375 1043.261719 2211.769531 1043.261719 2460.023438 C 1043.261719 2708.496094 841.152344 2910.382812 592.824219 2910.382812 Z M 592.824219 2717.0625 C 512.328125 2717.0625 446.878906 2651.617188 446.878906 2571.046875 C 446.878906 2551.824219 462.503906 2535.910156 482.015625 2535.910156 C 501.527344 2535.910156 517.152344 2551.824219 517.152344 2571.046875 C 517.152344 2612.808594 551.136719 2646.792969 592.824219 2646.792969 C 634.585938 2646.792969 668.566406 2612.808594 668.566406 2571.046875 C 668.566406 2529.359375 634.585938 2495.375 592.824219 2495.375 C 573.3125 2495.375 557.6875 2479.535156 557.6875 2460.238281 C 557.6875 2440.945312 573.3125 2425.105469 592.824219 2425.105469 C 634.585938 2425.105469 668.566406 2391.191406 668.566406 2349.433594 C 668.566406 2307.671875 634.585938 2273.761719 592.824219 2273.761719 C 551.136719 2273.761719 517.152344 2307.671875 517.152344 2349.433594 C 517.152344 2368.726562 501.527344 2384.566406 482.015625 2384.566406 C 462.503906 2384.566406 446.878906 2368.726562 446.878906 2349.433594 C 446.878906 2268.863281 512.328125 2203.414062 592.824219 2203.414062 C 673.390625 2203.414062 738.839844 2268.863281 738.839844 2349.433594 C 738.839844 2393.855469 719.039062 2433.382812 687.792969 2460.238281 C 719.039062 2487.097656 738.839844 2526.910156 738.839844 2571.046875 C 738.839844 2651.398438 673.175781 2717.0625 592.824219 2717.0625 Z M 592.824219 2717.0625 "/>
<path fill-rule="evenodd" fill="rgb(51.367188%, 51.367188%, 51.367188%)" fill-opacity="1" d="M 2964.789062 2042.785156 C 2947.441406 2042.785156 2549.789062 1813.820312 2542.441406 1795.75 C 2535.101562 1777.679688 2543.660156 1757.160156 2561.730469 1749.820312 L 2902.011719 1610.710938 C 2912.019531 1606.539062 2923.539062 1607.261719 2932.820312 1612.871094 C 2942.328125 1618.269531 2948.660156 1627.78125 2950.109375 1638.5 L 2999.710938 2002.753906 C 3002.378906 2022.046875 2988.910156 2039.617188 2969.621094 2042.28125 C 2967.960938 2042.566406 2966.230469 2042.785156 2964.789062 2042.785156 Z M 2964.789062 2042.785156 "/>
<path fill-rule="evenodd" fill="rgb(51.367188%, 51.367188%, 51.367188%)" fill-opacity="1" d="M 84.863281 1302.121094 C 78.742188 1302.121094 72.625 1300.679688 67.222656 1297.511719 C 57.71875 1292.109375 51.382812 1282.609375 49.945312 1271.878906 L 0.335938 907.410156 C -2.328125 888.121094 11.136719 870.550781 30.433594 867.820312 C 49.441406 865.148438 450.550781 1096.628906 457.824219 1114.628906 C 465.167969 1132.699219 456.671875 1153.21875 438.601562 1160.570312 L 98.257812 1299.671875 C 93.863281 1301.398438 89.472656 1302.121094 84.863281 1302.121094 Z M 84.863281 1302.121094 "/>
</svg>
