<?xml version="1.0" encoding="UTF-8"?>
<svg xmlns="http://www.w3.org/2000/svg" xmlns:xlink="http://www.w3.org/1999/xlink" width="2834.88" height="2834.88" viewBox="0 0 2834.88 2834.88">
<path fill-rule="evenodd" fill="rgb(0%, 0%, 0%)" fill-opacity="1" d="M 881.898438 2242.265625 L 793.707031 2351.34375 C 786.449219 2360.320312 775.523438 2365.535156 763.980469 2365.535156 C 752.4375 2365.535156 741.511719 2360.320312 734.253906 2351.34375 L 411.871094 1952.605469 C 402.609375 1941.152344 400.753906 1925.394531 407.101562 1912.101562 C 413.449219 1898.808594 426.867188 1890.34375 441.597656 1890.34375 L 547.59375 1890.34375 L 547.59375 1504.390625 C 547.59375 1483.269531 564.710938 1466.160156 585.824219 1466.160156 L 723.75 1466.160156 L 723.75 644.78125 C 723.75 548 802.207031 469.539062 898.988281 469.539062 L 1748.160156 469.539062 C 1753.480469 469.539062 1758.550781 470.628906 1763.148438 472.589844 C 1767.761719 474.550781 1772.050781 477.449219 1775.730469 481.289062 L 2237.941406 962.460938 C 2241.429688 966.101562 2244.058594 970.25 2245.839844 974.671875 C 2247.621094 979.078125 2248.589844 983.898438 2248.589844 988.941406 L 2248.589844 1343.789062 L 2256.039062 1343.789062 C 2302.511719 1343.789062 2347.089844 1362.25 2379.949219 1395.121094 C 2412.808594 1427.980469 2431.269531 1472.550781 2431.269531 1519.03125 L 2431.269531 1727.808594 C 2431.269531 1774.28125 2412.808594 1818.851562 2379.949219 1851.71875 C 2347.089844 1884.582031 2302.511719 1903.042969 2256.039062 1903.042969 L 2248.589844 1903.042969 L 2248.589844 2067.070312 C 2248.589844 2163.851562 2170.140625 2242.304688 2073.359375 2242.304688 L 883.664062 2242.304688 C 883.070312 2242.304688 882.484375 2242.292969 881.898438 2242.265625 Z M 800.207031 1466.160156 L 942.140625 1466.160156 C 963.253906 1466.160156 980.367188 1483.269531 980.367188 1504.390625 L 980.367188 1890.34375 L 1086.359375 1890.34375 C 1101.089844 1890.34375 1114.511719 1898.808594 1120.859375 1912.101562 C 1127.210938 1925.394531 1125.351562 1941.152344 1116.089844 1952.605469 L 943.679688 2165.851562 L 2073.359375 2165.851562 C 2127.910156 2165.851562 2172.140625 2121.625 2172.140625 2067.070312 L 2172.140625 1903.042969 L 1473.121094 1903.042969 C 1426.648438 1903.042969 1382.078125 1884.582031 1349.210938 1851.71875 C 1316.351562 1818.851562 1297.890625 1774.28125 1297.890625 1727.808594 L 1297.890625 1519.03125 C 1297.890625 1472.550781 1316.351562 1427.980469 1349.210938 1395.121094 C 1382.078125 1362.25 1426.648438 1343.789062 1473.121094 1343.789062 L 2172.140625 1343.789062 L 2172.140625 1062.421875 L 1861.691406 1062.421875 C 1764.910156 1062.421875 1686.460938 983.96875 1686.460938 887.191406 L 1686.460938 545.988281 L 898.988281 545.988281 C 844.433594 545.988281 800.207031 590.21875 800.207031 644.78125 Z M 2154.511719 985.96875 L 1762.910156 578.300781 L 1762.910156 887.191406 C 1762.910156 941.738281 1807.140625 985.96875 1861.691406 985.96875 Z M 2354.820312 1519.03125 C 2354.820312 1492.828125 2344.410156 1467.699219 2325.890625 1449.179688 C 2307.359375 1430.648438 2282.238281 1420.25 2256.039062 1420.25 L 1473.121094 1420.25 C 1446.929688 1420.25 1421.800781 1430.648438 1403.269531 1449.179688 C 1384.75 1467.699219 1374.339844 1492.828125 1374.339844 1519.03125 L 1374.339844 1727.808594 C 1374.339844 1754 1384.75 1779.128906 1403.269531 1797.660156 C 1421.800781 1816.179688 1446.929688 1826.589844 1473.121094 1826.589844 L 2256.039062 1826.589844 C 2282.238281 1826.589844 2307.359375 1816.179688 2325.890625 1797.660156 C 2344.410156 1779.128906 2354.820312 1754 2354.820312 1727.808594 Z M 1527.921875 1738.710938 L 1527.921875 1508.121094 L 1610.949219 1508.121094 C 1642.410156 1508.121094 1662.921875 1509.28125 1672.480469 1511.578125 C 1687.160156 1515.039062 1699.460938 1522.570312 1709.359375 1534.148438 C 1719.269531 1545.738281 1724.21875 1560.710938 1724.21875 1579.058594 C 1724.21875 1593.21875 1721.359375 1605.121094 1715.648438 1614.769531 C 1709.941406 1624.410156 1702.691406 1631.988281 1693.890625 1637.5 C 1685.089844 1643 1676.148438 1646.640625 1667.058594 1648.429688 C 1654.710938 1650.628906 1636.820312 1651.730469 1613.398438 1651.730469 L 1579.660156 1651.730469 L 1579.660156 1738.710938 Z M 1579.660156 1547.128906 L 1579.660156 1612.570312 L 1607.980469 1612.570312 C 1628.371094 1612.570312 1642.011719 1611.359375 1648.878906 1608.949219 C 1655.761719 1606.539062 1661.148438 1602.761719 1665.050781 1597.621094 C 1668.949219 1592.480469 1670.910156 1586.511719 1670.910156 1579.691406 C 1670.910156 1571.300781 1668.171875 1564.378906 1662.691406 1558.929688 C 1657.210938 1553.46875 1650.28125 1550.070312 1641.890625 1548.699219 C 1635.710938 1547.648438 1623.300781 1547.128906 1604.660156 1547.128906 Z M 1766.519531 1508.121094 L 1861.089844 1508.121094 C 1882.410156 1508.121094 1898.671875 1509.589844 1909.851562 1512.53125 C 1924.890625 1516.511719 1937.761719 1523.589844 1948.480469 1533.761719 C 1959.199219 1543.929688 1967.359375 1556.390625 1972.960938 1571.121094 C 1978.550781 1585.851562 1981.351562 1604.019531 1981.351562 1625.621094 C 1981.351562 1644.601562 1978.71875 1660.960938 1973.480469 1674.699219 C 1967.070312 1691.46875 1957.921875 1705.050781 1946.039062 1715.441406 C 1937.058594 1723.300781 1924.941406 1729.429688 1909.679688 1733.839844 C 1898.261719 1737.089844 1882.988281 1738.710938 1863.878906 1738.710938 L 1766.519531 1738.710938 Z M 1818.261719 1547.128906 L 1818.261719 1699.859375 L 1856.890625 1699.859375 C 1871.339844 1699.859375 1881.769531 1699.128906 1888.179688 1697.660156 C 1896.570312 1695.769531 1903.53125 1692.570312 1909.070312 1688.070312 C 1914.601562 1683.558594 1919.121094 1676.140625 1922.609375 1665.808594 C 1926.109375 1655.480469 1927.859375 1641.398438 1927.859375 1623.578125 C 1927.859375 1605.75 1926.109375 1592.058594 1922.609375 1582.519531 C 1919.121094 1572.980469 1914.21875 1565.53125 1907.929688 1560.191406 C 1901.640625 1554.839844 1893.660156 1551.21875 1883.980469 1549.328125 C 1876.761719 1547.871094 1862.601562 1547.128906 1841.511719 1547.128906 Z M 2025.570312 1738.710938 L 2025.570312 1508.121094 L 2201.238281 1508.121094 L 2201.238281 1547.128906 L 2077.308594 1547.128906 L 2077.308594 1601.710938 L 2184.28125 1601.710938 L 2184.28125 1640.71875 L 2077.308594 1640.71875 L 2077.308594 1738.710938 Z M 585.824219 1966.800781 L 521.664062 1966.800781 L 763.980469 2266.507812 L 1006.300781 1966.800781 L 942.140625 1966.800781 C 921.027344 1966.800781 903.914062 1949.683594 903.914062 1928.570312 L 903.914062 1542.609375 L 624.050781 1542.609375 L 624.050781 1928.570312 C 624.050781 1949.683594 606.933594 1966.800781 585.824219 1966.800781 "/>
</svg>
