<?xml version="1.0" encoding="UTF-8" standalone="no"?>
<!-- Created with Inkscape (http://www.inkscape.org/) -->

<svg
   version="1.1"
   id="svg2"
   width="3266.6667"
   height="3266.6667"
   viewBox="0 0 3266.6667 3266.6667"
   sodipodi:docname="vecteezy_graphic-monitoring-digital-processing-glyph-icon-vector_10315683.eps"
   xmlns:inkscape="http://www.inkscape.org/namespaces/inkscape"
   xmlns:sodipodi="http://sodipodi.sourceforge.net/DTD/sodipodi-0.dtd"
   xmlns="http://www.w3.org/2000/svg"
   xmlns:svg="http://www.w3.org/2000/svg">
  <defs
     id="defs6" />
  <sodipodi:namedview
     id="namedview4"
     pagecolor="#ffffff"
     bordercolor="#000000"
     borderopacity="0.25"
     inkscape:showpageshadow="2"
     inkscape:pageopacity="0.0"
     inkscape:pagecheckerboard="0"
     inkscape:deskcolor="#d1d1d1" />
  <g
     id="g8"
     inkscape:groupmode="layer"
     inkscape:label="ink_ext_XXXXXX"
     transform="matrix(1.3333333,0,0,-1.3333333,0,3266.6667)">
    <g
       id="g10"
       transform="scale(0.1)">
      <path
         d="m 3716.48,5230.7 v -640.6 c 0,-347.9 1207.78,-873.7 3027.98,-873.7 1820.2,0 3028.1,525.8 3028.1,873.7 v 640.6 C 9104.05,4816 7919.75,4602.1 6744.46,4602.1 c -1175.17,0 -2359.47,213.7 -3027.98,628.6 z m 3027.98,2243.9 c -757.44,0 -1518.51,89.1 -2143.21,263.3 -344.42,96.1 -647.2,217.9 -884.77,365.3 v -365.3 -275.3 0 c 0,-84.6 72.64,-179.8 206.97,-275.3 417.88,-297.2 1443.45,-598.6 2821.01,-598.6 1377.53,0 2403.13,301.4 2821.12,598.6 134.21,95.5 206.83,190.7 206.98,275.3 v 0 275.3 365.3 C 9534.98,7955.8 9232.07,7834 8887.64,7737.9 8263.09,7563.7 7502.02,7474.6 6744.46,7474.6 Z m 0,-1436.3 c -757.44,0 -1518.51,89.1 -2143.21,263.3 -344.28,96.1 -647.2,217.9 -884.77,365.3 v -365.3 -275.3 0 c 0,-84.6 72.64,-179.8 206.97,-275.3 418,-297.3 1443.45,-598.4 2821.01,-598.4 1377.53,0 2403.13,301.1 2821.12,598.4 134.34,95.5 206.98,190.7 206.98,275.3 v 0 275.3 365.3 C 9534.98,6519.5 9232.07,6397.7 8887.64,6301.6 8262.94,6127.4 7502.02,6038.3 6744.46,6038.3 Z m 2821.12,3135.8 c -417.99,297.2 -1443.59,598.4 -2821.12,598.4 -1377.56,0 -2403.13,-301.2 -2821.01,-598.4 -134.33,-95.6 -206.97,-190.7 -206.97,-275.3 v 0 c 0,-84.7 72.64,-179.8 206.97,-275.2 418,-297.3 1443.45,-598.4 2821.01,-598.4 1377.53,0 2403.13,301.1 2821.12,598.4 134.21,95.4 206.98,190.5 206.98,275.2 v 0 c 0,84.6 -72.64,179.7 -206.98,275.3 z m -343.61,4452.2 c 550.59,0 0,0 550.59,0 v 550.6 h -550.59 z m 0,6606.7 c 550.59,0 0,0 550.59,0 v 550.6 h -550.59 z m 0,-3303.4 c 550.59,0 0,0 550.59,0 v 550.6 H 9221.97 Z M 6469.15,14176.9 h -550.44 v -550.6 c 550.44,0 0,0 550.44,0 z M 4267.07,10970 h 550.46 v 7886.5 h 351.43 l -626.73,1096.9 -626.59,-1096.9 h 351.43 z m 4404.31,6510.2 h -550.46 v -550.6 c 550.46,0 0,0 550.46,0 z M 7570.33,20783.6 H 7019.74 V 20233 c 550.59,0 0,0 550.59,0 z m 1101.05,-6606.7 h -550.46 v -550.6 c 550.46,0 0,0 550.46,0 z M 10323,13626.3 c 550.6,0 0,0 550.6,0 v 550.6 H 10323 Z m -2752.67,550.6 h -550.59 v -550.6 c 550.59,0 0,0 550.59,0 z m 0,3303.3 h -550.59 v -550.6 c 550.59,0 0,0 550.59,0 z m -1101.18,0 h -550.44 v -550.6 c 550.44,0 0,0 550.44,0 z M 20232.9,20783.6 V 20233 c 550.6,0 0,0 550.6,0 v 550.6 z m 0,-4955.1 c 550.6,0 0,0 550.6,0 v 550.7 h -550.6 z m 0,-1101 c 550.6,0 0,0 550.6,0 v 550.5 h -550.6 z m 0,-1101.2 c 550.6,0 0,0 550.6,0 v 550.6 h -550.6 z m 0,4404.5 c 550.6,0 0,0 550.6,0 v 550.6 h -550.6 z M 8671.38,20783.6 H 8120.92 V 20233 c 550.46,0 0,0 550.46,0 z m 11561.52,-3854 c 550.6,0 0,0 550.6,0 v 550.6 h -550.6 z m 0,2202.2 c 550.6,0 0,0 550.6,0 v 550.6 h -550.6 z m 0,-6606.5 c 550.6,0 0,0 550.6,0 v 550.4 h -550.6 z m 0,-1101.2 c 550.6,0 0,0 550.6,0 v 550.6 h -550.6 z m 0,-5505.5 c 550.6,0 0,0 550.6,0 v 550.6 h -550.6 z m -1376.3,-1101 H 11273.3 V 4267 h 7583.3 v -351.6 l 1096.9,626.9 -1096.9,626.7 z m -8533.6,12112 c 550.6,0 0,0 550.6,0 v 550.6 H 10323 Z m 0,3303.4 c 550.6,0 0,0 550.6,0 v 550.6 H 10323 Z m 9909.9,-9909.9 c 550.6,0 0,0 550.6,0 v 550.6 h -550.6 z m 0,-2202.3 c 550.6,0 0,0 550.6,0 v 550.7 h -550.6 z m 0,-1101.1 c 550.6,0 0,0 550.6,0 v 550.6 h -550.6 z m 0,2202.2 c 550.6,0 0,0 550.6,0 v 550.6 h -550.6 z M 15278,20783.6 h -550.6 V 20233 c 550.6,0 0,0 550.6,0 z M 17480.3,8671.5 h -550.6 v -550.7 c 550.6,0 0,0 550.6,0 z m 0,1101 h -550.6 v -550.6 c 550.6,0 0,0 550.6,0 z m 0,1101.2 h -550.6 v -550.6 c 550.6,0 0,0 550.6,0 z m -1101.2,6606.5 h -550.5 v -550.6 c 550.5,0 0,0 550.5,0 z m 0,3303.4 h -550.5 V 20233 c 550.5,0 0,0 550.5,0 z M 17480.3,7570.3 h -550.6 v -550.6 c 550.6,0 0,0 550.6,0 z m 0,4404.4 h -550.6 v -550.6 c 550.6,0 0,0 550.6,0 z m -5505.5,2202.2 h -550.6 v -550.6 c 550.6,0 0,0 550.6,0 z m 6606.5,6606.7 h -550.5 V 20233 c 550.5,0 0,0 550.5,0 z m -1101,0 h -550.6 V 20233 c 550.6,0 0,0 550.6,0 z m 2202.2,0 h -550.6 V 20233 c 550.6,0 0,0 550.6,0 z M 17480.3,15278 h -550.6 v -550.5 c 550.6,0 0,0 550.6,0 z m 0,2202.2 h -550.6 v -550.6 c 550.6,0 0,0 550.6,0 z m 0,-3303.3 h -550.6 v -550.6 c 550.6,0 0,0 550.6,0 z m 0,2202.3 h -550.6 v -550.7 c 550.6,0 0,0 550.6,0 z m 0,-3303.5 h -550.6 v -550.4 c 550.6,0 0,0 550.6,0 z m 0,-6606.5 h -550.6 v -550.6 c 550.6,0 0,0 550.6,0 z m -4404.5,14314.4 h -550.6 V 20233 c 550.6,0 0,0 550.6,0 z M 14176.9,8671.5 h -550.5 v -550.7 c 550.5,0 0,0 550.5,0 z m 0,-2202.3 h -550.5 v -550.6 c 550.5,0 0,0 550.5,0 z m -1101.1,11011 h -550.6 v -550.6 c 550.6,0 0,0 550.6,0 z m -1101,0 h -550.6 v -550.6 c 550.6,0 0,0 550.6,0 z m 0,3303.4 h -550.6 V 20233 c 550.6,0 0,0 550.6,0 z m 1101,-6606.7 h -550.6 v -550.6 c 550.6,0 0,0 550.6,0 z m 1101.1,-6606.6 h -550.5 v -550.6 c 550.5,0 0,0 550.5,0 z m 0,9909.9 h -550.5 v -550.6 c 550.5,0 0,0 550.5,0 z m 1101.1,0 h -550.6 v -550.6 c 550.6,0 0,0 550.6,0 z m -1101.1,-3303.3 h -550.5 v -550.6 c 550.5,0 0,0 550.5,0 z m 0,6606.7 h -550.5 V 20233 c 550.5,0 0,0 550.5,0 z m 0,-8808.9 h -550.5 v -550.6 c 550.5,0 0,0 550.5,0 z m 0,1101 h -550.5 v -550.4 c 550.5,0 0,0 550.5,0 z m 0,-2202 h -550.5 v -550.6 c 550.5,0 0,0 550.5,0 z m 0,-1651.8 c -550.5,0 0,0 -550.5,0 v 550.6 h 550.5 v -550.6"
         style="fill:#000000;fill-opacity:1;fill-rule:nonzero;stroke:none"
         id="path12" />
    </g>
  </g>
</svg>
