<svg version="1.1" id="Layer_1" xmlns="http://www.w3.org/2000/svg" xmlns:xlink="http://www.w3.org/1999/xlink" x="0px" y="0px"
	 width="100%" viewBox="0 0 1024 512" enable-background="new 0 0 1024 512" xml:space="preserve">
<path fill="#000000" opacity="1.000000" stroke="none" 
	d="
M394.480591,168.370453 
	C389.947693,150.398895 385.163269,132.866714 384.420715,114.621956 
	C383.831177,100.137405 385.507996,85.965347 392.823364,73.099922 
	C401.783600,57.341694 416.125275,49.890778 433.597351,47.687969 
	C449.751801,45.651279 465.442261,48.181282 480.865997,52.868679 
	C483.510010,53.672222 485.954254,54.072556 488.587219,52.779209 
	C501.406281,46.482288 515.114929,44.640152 528.967896,46.949886 
	C538.006775,48.456955 546.048584,45.338444 554.530762,44.279705 
	C582.415283,40.799213 607.451111,46.394981 628.211731,66.608231 
	C636.648010,74.822044 640.315796,84.687004 640.265991,96.220436 
	C640.165588,119.468102 633.348633,141.163544 624.882690,162.456284 
	C621.002075,172.216492 616.239624,181.573120 611.236572,190.804657 
	C610.703735,191.787888 610.302246,192.842316 609.684631,194.206711 
	C614.127319,194.971130 617.964417,193.771591 621.800110,193.116333 
	C630.133362,191.692764 636.330017,193.952087 639.604614,199.870255 
	C642.874817,205.780487 641.608704,212.416733 635.629700,218.420670 
	C624.808350,229.287186 611.220276,233.601181 596.281860,234.260696 
	C587.671631,234.640823 587.566956,234.473892 587.402588,243.332184 
	C587.175476,255.569641 585.436584,267.525024 581.360779,279.104065 
	C574.232117,299.356140 551.011292,312.433685 529.995300,307.869629 
	C519.741943,305.642914 513.019836,299.215515 509.076477,289.613098 
	C504.513672,278.502319 502.777496,266.899719 502.649933,254.970612 
	C502.607605,251.012253 503.017914,246.974457 501.381287,243.130859 
	C499.291687,242.179504 497.443604,243.358704 495.567230,243.713623 
	C483.181549,246.056274 471.328369,245.190384 460.569305,237.934586 
	C458.693634,236.669678 457.174652,236.303894 455.130524,237.526993 
	C441.742828,245.537476 429.283234,239.664871 421.087036,229.750320 
	C413.218353,220.231949 408.289917,209.134033 403.900146,197.758362 
	C400.240631,188.275116 397.316528,178.548050 394.480591,168.370453 
M625.158447,134.779541 
	C628.745850,123.121490 631.050842,111.212692 631.486328,99.021675 
	C631.761780,91.311440 631.307251,83.581314 626.097107,77.210945 
	C621.327942,71.379776 615.889893,66.241455 609.377808,62.334274 
	C588.435425,49.769085 566.105957,49.662998 543.230042,55.130268 
	C539.284424,56.073250 535.614563,56.553463 531.499756,55.745560 
	C516.866028,52.872364 502.660553,54.117176 489.520844,61.810986 
	C487.139893,63.205120 485.173431,62.623772 482.909790,61.859173 
	C468.424866,56.966457 453.570587,54.223148 438.248383,55.377724 
	C421.908051,56.609013 408.403351,62.857430 400.028320,77.910469 
	C392.422882,91.580315 392.001312,106.457253 393.658691,121.197273 
	C396.267761,144.401352 402.359283,166.930923 410.143524,188.947433 
	C414.591980,201.529175 419.514618,213.963470 428.327515,224.286514 
	C437.181000,234.657074 447.340271,234.611572 456.328003,224.444229 
	C462.394867,217.581161 468.461548,210.717896 474.550751,203.874695 
	C475.880920,202.379868 477.238007,200.658493 479.610992,201.781921 
	C483.534607,203.639450 487.754242,204.438385 493.047791,205.321091 
	C489.984772,210.073959 487.255341,213.940063 482.045685,215.392471 
	C477.243652,216.731247 472.322968,217.787033 467.702972,219.600327 
	C461.838745,221.901947 461.444397,227.457565 466.611481,231.154861 
	C467.820099,232.019669 469.133667,232.882675 470.532318,233.314102 
	C481.941528,236.833389 493.112091,237.240326 503.685913,230.510956 
	C505.163574,229.570587 506.456085,228.052811 508.533691,228.353027 
	C509.740906,229.843597 509.310730,231.568939 509.286682,233.159836 
	C509.082458,246.663696 509.692993,260.144043 511.351776,273.528229 
	C512.756165,284.859467 517.496582,294.533051 528.930542,298.802429 
	C547.367249,305.686493 570.035156,293.627014 574.615051,274.591492 
	C578.122131,260.014679 578.756531,244.992996 580.622986,230.165817 
	C581.154297,225.944717 582.229248,224.190323 587.053772,224.642349 
	C601.189148,225.966797 614.707275,223.935165 626.191406,214.651703 
	C629.483154,211.990768 634.047119,209.093094 631.874756,204.182938 
	C629.741638,199.361389 624.693726,201.105316 620.702698,201.822754 
	C614.276367,202.977966 607.845337,203.822281 601.339783,203.020264 
	C595.099182,202.250946 594.516541,200.769592 597.880310,195.443985 
	C609.691711,176.744095 618.632324,156.744949 625.158447,134.779541 
z"/>
<path fill="#000000" opacity="1.000000" stroke="none" 
	d="
M743.516663,392.194214 
	C739.320129,373.346954 741.072998,355.930328 753.348877,340.771667 
	C762.219299,329.818146 774.236450,323.946747 787.892334,321.355927 
	C806.698242,317.788086 825.330750,318.062805 843.317627,325.339661 
	C884.474487,341.990295 884.731873,396.900696 858.777039,416.805145 
	C858.114990,417.312866 857.348267,417.684174 855.970764,418.518402 
	C862.630615,423.198853 868.404602,427.256714 874.243286,431.360046 
	C872.912659,435.089355 869.897278,436.776855 867.564087,439.022858 
	C865.940125,440.586212 864.503723,439.308594 863.125488,438.374329 
	C858.576111,435.290466 853.945007,432.317993 849.513550,429.072968 
	C847.144165,427.338074 845.225281,427.174957 842.284058,428.133911 
	C820.579651,435.210297 798.651062,435.441833 777.157715,427.736908 
	C760.410034,421.733215 748.840088,409.994690 743.516663,392.194214 
M816.238159,329.243713 
	C811.741638,329.238434 807.235535,329.039581 802.750122,329.259979 
	C778.051453,330.473816 754.141846,346.097046 755.921143,378.870789 
	C756.881104,396.553253 765.138245,408.978882 780.494812,417.167267 
	C792.191101,423.403961 804.823853,423.843109 817.513550,422.693604 
	C850.441223,419.710815 867.034241,395.501251 860.973267,365.148132 
	C856.874451,344.621246 840.185974,331.486877 816.238159,329.243713 
z"/>
<path fill="#000000" opacity="1.000000" stroke="none" 
	d="
M693.981995,319.701355 
	C703.463684,320.464325 712.274170,322.048920 720.279968,326.571472 
	C728.741455,331.351318 733.259583,338.704041 734.308838,348.311615 
	C734.700745,351.900513 733.466370,353.748230 729.629883,353.302307 
	C728.807800,353.206818 727.946716,353.170837 727.135559,353.303345 
	C722.160706,354.116180 719.549988,352.511444 718.916443,347.039917 
	C718.069519,339.725403 713.172119,334.975220 706.545105,332.617096 
	C691.136414,327.134155 675.455200,327.370636 659.999084,332.324127 
	C652.714844,334.658691 649.016418,341.342804 649.314453,349.211121 
	C649.586975,356.405853 653.355469,361.216614 660.974670,363.679199 
	C673.858154,367.843140 687.337402,369.124207 700.551453,371.693390 
	C708.218384,373.184052 715.891724,374.641876 723.154907,377.738281 
	C732.293945,381.634369 737.550293,388.356689 738.180115,398.288544 
	C738.881042,409.339447 735.518494,418.652130 725.705322,424.856934 
	C718.630493,429.330383 710.671204,431.071350 702.558289,432.178772 
	C688.572754,434.087891 674.653015,433.331543 660.906860,430.269257 
	C645.609436,426.861420 634.269226,419.015717 631.389832,402.398804 
	C630.924011,399.710876 629.452087,395.959015 632.308716,394.584442 
	C635.985779,392.815033 640.462341,393.294525 644.501831,394.449097 
	C645.822205,394.826477 645.819763,396.670837 645.932678,397.970795 
	C647.023804,410.527740 654.693481,417.597260 666.085632,420.515411 
	C680.808777,424.286804 695.785278,424.556213 710.414124,419.827942 
	C720.545837,416.553192 725.086548,407.728516 722.886536,397.332306 
	C721.216187,389.438751 715.317261,386.162933 708.386108,384.667969 
	C697.180176,382.250946 685.865662,380.319092 674.565918,378.361420 
	C667.017761,377.053741 659.507507,375.654053 652.236572,373.188324 
	C640.810669,369.313507 635.194580,361.745026 634.797180,349.711792 
	C634.413086,338.081421 639.882568,329.113312 650.253723,324.598663 
	C657.515503,321.437500 665.231628,320.099609 673.069763,319.762482 
	C679.874512,319.469818 686.701721,319.698120 693.981995,319.701355 
z"/>
<path fill="#000000" opacity="1.000000" stroke="none" 
	d="
M457.370483,365.494995 
	C458.710266,366.727783 459.802734,367.718719 460.883728,368.699249 
	C462.589508,367.694153 462.034760,366.171600 461.974396,365.001434 
	C461.735657,360.372803 463.497345,358.398895 468.399567,358.689148 
	C474.599915,359.056244 475.028320,359.127716 475.031219,365.161011 
	C475.040680,384.820343 475.083008,404.480072 474.959930,424.138672 
	C474.935059,428.110840 474.666901,432.176697 473.780212,436.031281 
	C470.473480,450.406464 459.793854,456.453278 446.514038,458.862915 
	C434.439087,461.053925 422.272278,460.536530 410.248688,458.213226 
	C399.390259,456.115051 391.634491,450.352448 389.257782,438.910095 
	C389.097321,438.137543 389.236847,437.302673 389.236847,436.436829 
	C392.422577,435.144501 395.598480,435.800629 398.718475,435.796387 
	C400.275055,435.794281 401.143036,436.786011 401.553589,438.172760 
	C404.458649,447.985687 412.273041,450.778778 421.194489,451.481354 
	C429.657257,452.147797 438.221954,452.508301 446.479553,449.958557 
	C457.905548,446.430450 463.283600,437.492554 462.541718,423.808624 
	C462.443237,421.992340 462.173492,420.185333 461.901031,417.593903 
	C454.807983,424.426300 446.452515,427.670746 437.277435,428.744995 
	C425.538391,430.119385 414.009979,429.418121 403.048615,424.392700 
	C390.513580,418.645752 385.457062,408.091736 384.817017,395.118500 
	C384.170898,382.022278 387.849396,370.387146 399.939941,363.555542 
	C415.841003,354.570770 432.669373,354.582703 449.684021,360.314301 
	C452.562439,361.283875 454.964935,363.121613 457.370483,365.494995 
M407.816101,371.260742 
	C406.921814,372.004791 405.979309,372.698425 405.140411,373.500397 
	C390.625031,387.376984 396.313049,412.679382 415.406952,418.738007 
	C424.143738,421.510193 433.131836,421.627930 441.996490,419.438232 
	C454.335846,416.390320 461.661011,407.201721 462.541138,394.288635 
	C463.358124,382.302521 457.177399,371.772400 445.989227,367.972198 
	C433.227112,363.637390 420.481018,363.899139 407.816101,371.260742 
z"/>
<path fill="#000000" opacity="1.000000" stroke="none" 
	d="
M73.009399,321.914185 
	C90.333611,321.851013 107.160408,321.700104 123.986465,321.758972 
	C132.814819,321.789856 141.317856,323.440735 148.244461,329.418030 
	C158.354462,338.142456 160.004990,349.509705 157.269562,361.768738 
	C154.559265,373.915131 145.609528,379.901947 134.411911,383.079529 
	C127.953445,384.912262 121.211952,384.780121 114.568069,384.881409 
	C103.408478,385.051514 92.244156,384.915527 81.081833,384.900787 
	C72.900299,384.889984 72.887627,384.884613 72.908752,393.280273 
	C72.934319,403.442963 73.016441,413.605560 73.011765,423.768219 
	C73.008766,430.284363 72.866478,430.366608 65.660995,430.364136 
	C58.753311,430.361755 58.713917,430.361786 58.710964,424.023438 
	C58.696060,392.035797 58.779366,360.047791 58.616344,328.060974 
	C58.593399,323.559204 59.865875,321.532806 64.518867,321.924408 
	C67.164093,322.147064 69.846191,321.931671 73.009399,321.914185 
M143.571335,347.264984 
	C141.576874,337.981842 135.190781,333.522644 126.370613,332.316742 
	C109.797577,330.050873 93.107315,332.616791 76.492210,331.455414 
	C74.256233,331.299133 73.084877,332.449768 73.086502,334.742584 
	C73.095093,346.904572 73.099388,359.066589 73.092377,371.228577 
	C73.090973,373.672638 74.215546,374.948761 76.716011,374.934265 
	C92.873848,374.840790 109.063866,375.347321 125.179352,374.475006 
	C137.898453,373.786560 144.408798,365.362732 143.997482,352.609558 
	C143.949188,351.112244 143.786148,349.618622 143.571335,347.264984 
z"/>
<path fill="#000000" opacity="1.000000" stroke="none" 
	d="
M534.245850,379.527924 
	C538.538818,369.547455 545.828308,363.123169 555.572327,359.954620 
	C570.227722,355.188934 585.096924,355.027161 599.655640,360.490356 
	C614.059692,365.895538 620.453552,377.286163 622.134094,391.952179 
	C622.621216,396.202423 620.772278,397.386322 616.706726,397.359802 
	C594.559570,397.215149 572.411011,397.284912 550.262939,397.297913 
	C543.957947,397.301605 543.450073,398.118958 545.135681,404.386566 
	C547.448425,412.985962 553.100708,418.547424 561.175720,421.563110 
	C570.793030,425.154877 580.706665,425.372467 590.592590,422.627319 
	C596.362122,421.025269 601.215454,417.933105 604.587891,412.796936 
	C609.021362,406.044769 611.314514,405.241547 620.049683,407.494049 
	C619.740417,412.369293 617.069458,416.155121 614.031006,419.629456 
	C608.311157,426.169983 600.717407,429.422577 592.420471,431.257751 
	C581.158691,433.748627 569.926270,433.408112 558.879578,430.247009 
	C536.727356,423.907959 526.512085,402.995178 534.245850,379.527924 
M553.578796,372.046204 
	C548.559570,376.681396 545.389465,382.186646 545.026855,389.350250 
	C566.540527,389.350250 587.587219,389.350250 608.606079,389.350250 
	C608.974548,384.368500 607.805908,381.476471 604.802734,377.150909 
	C594.287231,362.005035 566.361694,361.527069 553.578796,372.046204 
z"/>
<path fill="#000000" opacity="1.000000" stroke="none" 
	d="
M302.968811,423.911072 
	C306.260345,423.666199 308.962067,422.865997 311.558868,421.682007 
	C317.143646,419.135620 319.276611,415.792664 318.742065,410.449677 
	C318.275421,405.785736 314.623138,402.160980 308.946442,401.288513 
	C297.443726,399.520599 285.902985,398.001160 274.393127,396.277740 
	C271.110168,395.786133 267.806610,395.183716 264.639465,394.216461 
	C256.981262,391.877655 252.843872,386.599701 252.333557,378.988861 
	C251.820587,371.338562 255.371002,364.538300 262.415009,361.563965 
	C277.212341,355.315765 292.600708,355.677032 308.085114,358.433533 
	C312.591736,359.235779 316.645813,361.165344 320.409668,363.686798 
	C324.976044,366.745850 327.342346,371.235382 328.216400,376.541504 
	C328.690186,379.417542 327.977753,381.248383 324.403107,381.375214 
	C319.608337,381.545410 315.872803,381.501343 314.767548,375.217438 
	C313.981415,370.748047 309.823273,368.247986 305.434570,367.033478 
	C295.102539,364.174133 284.715607,364.334442 274.345673,366.867065 
	C273.068268,367.179016 271.844604,367.773529 270.649414,368.348175 
	C266.652679,370.269714 264.455872,373.647736 264.561462,377.911530 
	C264.674896,382.490601 268.015198,385.022705 272.069885,386.257416 
	C278.782104,388.301331 285.802704,388.713898 292.715851,389.674164 
	C301.273560,390.862854 310.012329,391.045441 318.286255,393.843475 
	C329.039490,397.479950 333.762726,405.613098 331.252869,415.819824 
	C330.167419,420.234039 327.640686,423.586517 323.832489,426.078705 
	C318.378540,429.648010 312.260284,431.328400 305.926178,431.793182 
	C292.472015,432.780518 278.947723,433.591980 265.830200,429.296234 
	C255.778320,426.004456 250.244125,418.373901 250.364624,408.389252 
	C253.521301,407.043976 256.875214,407.823730 260.149017,407.728607 
	C261.983856,407.675262 262.857880,408.897400 263.082794,410.530457 
	C264.108093,417.975189 269.296875,421.188354 275.797791,422.874207 
	C284.611633,425.159851 293.556824,425.322113 302.968811,423.911072 
z"/>
<path fill="#000000" opacity="1.000000" stroke="none" 
	d="
M240.151947,374.006592 
	C255.390793,400.557098 239.976517,429.351532 209.477753,432.347504 
	C200.434082,433.235870 191.556351,433.003174 182.750122,430.923645 
	C165.578629,426.868713 155.106613,413.926361 154.534760,396.240021 
	C153.941559,377.894196 163.168243,364.191528 180.235886,359.164917 
	C193.792801,355.172241 207.527832,355.421051 221.053558,359.706726 
	C228.904709,362.194397 235.287445,366.827240 240.151947,374.006592 
M210.236404,366.235138 
	C202.096680,364.679993 194.011887,364.763428 186.039734,367.191650 
	C173.336868,371.060822 166.884293,380.933258 167.124664,396.025482 
	C167.340744,409.591431 174.578110,419.306671 186.954437,422.659088 
	C193.162033,424.340607 199.476425,424.156403 205.803574,423.763550 
	C221.001343,422.819977 231.438736,413.826019 232.705414,400.586792 
	C234.599213,380.792877 228.095566,370.500183 210.236404,366.235138 
z"/>
<path fill="#000000" opacity="1.000000" stroke="none" 
	d="
M909.999878,430.372375 
	C902.506348,430.368164 895.510925,430.263123 888.520325,430.402954 
	C885.089111,430.471558 883.786621,429.107147 883.793518,425.694061 
	C883.860168,392.725006 883.874573,359.755646 883.794861,326.786682 
	C883.785889,323.078064 885.294983,321.590363 888.846741,321.808228 
	C889.675476,321.859039 890.511169,321.792511 891.343689,321.786102 
	C898.002930,321.734863 898.104858,321.805115 898.109924,328.371979 
	C898.131714,356.845367 898.134338,385.318787 898.143799,413.792175 
	C898.144470,415.756561 898.143860,417.720917 898.143860,419.653992 
	C902.259888,420.997864 905.900024,420.118042 909.501038,420.119904 
	C930.481445,420.130829 951.462219,420.198547 972.441956,420.077545 
	C976.788879,420.052490 978.356140,421.628204 978.080566,425.997101 
	C977.828064,430.000885 975.655334,430.396423 972.442017,430.386047 
	C951.794861,430.319397 931.147278,430.364197 909.999878,430.372375 
z"/>
<path fill="#000000" opacity="1.000000" stroke="none" 
	d="
M379.184570,424.526978 
	C380.097443,429.588623 377.774933,431.360504 373.455627,431.309235 
	C369.960449,431.267700 366.431915,431.507324 362.976532,431.112183 
	C352.335693,429.895386 347.978333,425.090118 347.863556,414.351532 
	C347.721100,401.029083 347.821686,387.704071 347.802612,374.380188 
	C347.792633,367.392761 347.776428,367.477936 340.586273,367.304077 
	C337.714294,367.234650 333.828918,368.626068 333.730225,363.339478 
	C333.672058,360.224335 334.756836,358.874725 338.021332,358.709900 
	C347.746399,358.218994 347.740997,358.111938 347.800446,348.273773 
	C347.811493,346.441772 347.814545,344.609680 347.834961,342.777802 
	C347.913269,335.760010 348.196472,335.693939 355.219421,335.645721 
	C359.268829,335.617889 360.459442,337.327423 360.293274,341.062317 
	C360.101013,345.383636 360.394653,349.725830 360.228027,354.049316 
	C360.098206,357.418060 361.277222,358.985626 364.815552,358.797668 
	C368.302887,358.612427 371.810120,358.839752 375.305084,358.749481 
	C378.362640,358.670532 379.333618,360.165283 379.341675,363.045349 
	C379.349579,365.863007 378.599792,367.481445 375.427765,367.367706 
	C371.768494,367.236511 368.098938,367.410431 364.437531,367.313660 
	C361.444397,367.234589 360.256256,368.615723 360.266968,371.530579 
	C360.319427,385.853180 360.189911,400.177460 360.368317,414.498108 
	C360.439056,420.174438 363.001526,422.078735 368.869293,422.860352 
	C372.283569,423.315125 376.077576,420.889801 379.184570,424.526978 
z"/>
<path fill="#000000" opacity="1.000000" stroke="none" 
	d="
M509.047821,369.945129 
	C501.433105,374.525177 498.633209,381.549530 498.309174,389.489105 
	C497.841339,400.952118 498.012909,412.440674 497.874664,423.917908 
	C497.804535,429.741882 492.783752,432.605804 487.394165,430.014648 
	C485.655182,429.178589 485.702454,427.670441 485.699677,426.205994 
	C485.659515,405.076019 485.693207,383.945801 485.598511,362.816132 
	C485.580627,358.820709 488.040283,358.561829 490.888519,358.837128 
	C493.685516,359.107513 497.765137,357.343811 497.714142,362.754974 
	C497.700256,364.227234 497.992371,365.702362 498.261719,368.319885 
	C506.130310,356.315582 517.707031,356.761078 529.213196,356.575348 
	C534.466309,356.490570 534.092224,359.699402 534.119568,363.140137 
	C534.151794,367.196228 531.808228,367.015656 528.775452,366.670288 
	C522.064270,365.906006 515.486084,366.538147 509.047821,369.945129 
z"/>
<path fill="#000000" opacity="1.000000" stroke="none" 
	d="
M502.573303,190.701996 
	C506.684448,180.301468 511.508392,170.570099 512.259338,159.488007 
	C513.058044,147.700531 511.654877,136.165375 507.765594,125.133827 
	C504.797577,116.715294 495.736206,112.937912 485.752960,114.639725 
	C479.512909,115.703430 473.560852,117.682320 467.785614,120.573669 
	C465.736816,117.191978 467.294769,114.324432 467.639069,111.495544 
	C468.674652,102.986557 471.250946,94.898956 474.901367,87.190338 
	C484.125153,67.712593 503.029266,57.920456 525.775146,60.981136 
	C555.406494,64.968330 574.960449,82.070969 587.024231,108.683685 
	C587.550171,109.843918 588.314209,111.078171 587.548218,112.718445 
	C584.485229,113.893829 581.134827,113.104263 577.877563,113.248207 
	C563.243164,113.894943 555.157471,124.043182 557.717224,138.521881 
	C559.300903,147.479340 562.471558,155.890839 566.665405,163.858322 
	C572.927795,175.755585 578.404541,188.104980 586.582336,198.870331 
	C584.875916,201.542633 581.797913,201.780441 580.100159,203.869690 
	C577.937500,206.530945 576.555359,209.464035 576.294189,212.916306 
	C574.863525,231.831863 571.670410,250.533737 569.453003,269.352844 
	C567.049866,289.748352 549.597473,294.826447 534.901733,293.954895 
	C526.242004,293.441315 519.567200,285.278564 517.796692,274.833527 
	C516.572754,267.612946 515.837769,260.314178 515.763916,252.985397 
	C515.651428,241.820877 515.665894,230.654404 515.713013,219.489120 
	C515.767700,206.533585 512.787598,202.574432 500.235718,199.495468 
	C499.965210,196.459030 501.614868,193.858078 502.573303,190.701996 
z"/>
<path fill="#000000" opacity="1.000000" stroke="none" 
	d="
M469.798096,83.767212 
	C462.052490,99.717361 459.100708,116.216385 460.116119,133.501846 
	C460.732880,144.001724 460.102905,154.472366 459.120941,164.930588 
	C458.045258,176.386398 461.538269,186.330124 469.488892,194.594025 
	C471.612915,196.801743 471.481262,198.229965 469.491394,200.412750 
	C463.433746,207.057556 457.596710,213.903183 451.657043,220.655930 
	C445.339508,227.838257 439.653076,227.847229 433.286438,220.576370 
	C425.214203,211.357697 420.766052,200.178726 416.721802,188.876190 
	C408.456482,165.776917 402.521149,142.054321 399.286896,117.736053 
	C397.797211,106.535156 399.369049,95.452324 403.545868,84.885025 
	C408.909637,71.314789 419.572113,64.482384 433.458649,62.098209 
	C448.982605,59.432922 463.911591,62.676113 478.689880,67.042030 
	C479.106903,67.165230 479.412781,67.664673 480.393951,68.553452 
	C476.515625,73.216988 472.522400,77.871315 469.798096,83.767212 
z"/>
<path fill="#000000" opacity="1.000000" stroke="none" 
	d="
M608.239014,163.084991 
	C603.061646,173.588837 598.672852,184.116226 591.699646,193.124390 
	C589.561157,192.066223 589.935364,190.875198 590.501404,189.856827 
	C596.156616,179.682449 595.857361,168.668198 594.505066,157.726913 
	C593.414001,148.899399 592.793396,140.129349 594.743164,131.467041 
	C599.216187,111.594048 589.575134,96.682388 577.914429,82.509300 
	C571.082764,74.205696 562.810791,67.523430 553.153748,62.651203 
	C552.293579,62.217224 551.236694,61.971825 550.865051,60.488197 
	C554.503662,57.838009 559.039185,58.337765 563.059143,58.113148 
	C580.605957,57.132698 596.953308,60.523258 611.555908,71.329849 
	C623.259644,79.991158 626.858887,91.184372 625.070740,104.964500 
	C622.460144,125.082870 616.547119,144.229843 608.239014,163.084991 
z"/>
<path fill="#000000" opacity="1.000000" stroke="none" 
	d="
M499.940186,124.072624 
	C503.477844,128.275711 503.851562,133.177689 504.709503,137.900986 
	C507.323883,152.294540 506.975525,166.350220 500.372528,179.844177 
	C498.186066,184.312485 496.220581,188.992859 494.977966,193.789703 
	C493.746490,198.543594 490.923157,199.005936 487.151886,197.966003 
	C475.165283,194.660751 468.645050,186.329361 465.702057,174.605576 
	C464.442230,169.586929 465.132355,164.627319 465.840149,159.753082 
	C467.143127,150.780258 466.586914,141.812714 466.528839,132.840271 
	C466.513885,130.525467 466.657593,128.521301 468.871826,127.250923 
	C475.738861,123.311050 482.902039,120.331657 491.017090,120.506668 
	C494.282288,120.577080 497.251343,121.489304 499.940186,124.072624 
M498.303436,128.763535 
	C495.901733,125.600204 492.457184,125.951057 489.186951,126.318138 
	C486.285126,126.643837 486.144745,128.449295 487.687042,130.563644 
	C490.767853,134.787155 495.098938,134.321564 498.303436,128.763535 
z"/>
<path fill="#000000" opacity="1.000000" stroke="none" 
	d="
M583.576172,119.323181 
	C588.961609,119.058601 590.043274,121.811630 589.120728,125.971077 
	C586.156311,139.336349 587.118591,152.690247 588.983337,166.077179 
	C589.872925,172.463257 588.394409,178.516220 586.098328,184.395981 
	C585.283752,184.208282 584.792969,184.238083 584.686890,184.050369 
	C576.768311,170.044708 568.114197,156.343674 564.620361,140.341522 
	C561.310120,125.180275 567.326233,118.462921 583.576172,119.323181 
M580.603821,124.961494 
	C578.982056,123.797447 577.139648,124.230072 575.370972,124.292686 
	C573.516663,124.358315 571.716370,124.770912 570.866882,126.668961 
	C570.506714,127.473724 571.061829,128.264603 571.709839,128.814468 
	C573.282959,130.149475 575.025879,131.044464 577.106018,130.101990 
	C579.088074,129.203964 580.901733,128.077713 580.603821,124.961494 
z"/>
<path fill="#000000" opacity="1.000000" stroke="none" 
	d="
M473.562134,223.947479 
	C483.712219,222.463608 492.061584,218.704071 497.667267,210.015182 
	C499.681915,206.892426 502.688721,205.319962 506.120972,208.022980 
	C509.347992,210.564377 510.429443,214.000977 508.261688,217.753494 
	C506.048584,221.584427 502.736816,224.382111 498.774963,226.345871 
	C489.522400,230.931992 480.279816,230.148117 471.157562,226.920059 
	C470.779022,224.489456 472.220306,224.490082 473.562134,223.947479 
z"/>
<path fill="#000000" opacity="1.000000" stroke="none" 
	d="
M617.204773,213.338623 
	C608.328613,218.170181 599.090759,219.625381 589.516479,219.091675 
	C587.174316,218.961121 584.021606,218.996124 583.169128,216.183823 
	C582.291199,213.287659 582.840515,210.125427 585.249634,207.922012 
	C587.464783,205.895996 590.000793,205.309891 593.016663,206.773132 
	C601.365967,210.824081 610.113098,209.744095 618.836914,208.341949 
	C619.963684,208.160843 621.061584,207.593491 622.472595,208.442047 
	C622.019653,211.235275 619.304565,211.746185 617.204773,213.338623 
M588.565430,210.282089 
	C586.525146,210.826050 583.424805,211.506287 585.273071,214.110184 
	C587.301941,216.968460 590.410156,214.945465 593.024414,213.909378 
	C592.678040,211.401596 591.076599,210.734879 588.565430,210.282089 
z"/>
</svg>