<svg id="Layer_1" data-name="Layer 1" xmlns="http://www.w3.org/2000/svg" viewBox="0 0 596.62 502.71"><g id="Layer_2" data-name="Layer 2"><g id="Layer_1-2" data-name="Layer 1-2"><g id="Layer_2-2" data-name="Layer 2-2"><g id="Layer_1-2-2" data-name="Layer 1-2-2"><g id="Main"><path d="M475.14,101c-1.39,0-2.3-3.33-3.65-3.74s-4,1.72-5.14.93-.09-4.16-1-5.16-4.29-.4-5-1.61,1.57-3.82,1.1-5.14-3.9-1.84-4.15-3.21c-.82-4.25,1.13-8.83-.11-12.12-1.53-4-6.14-6-8-9.13-2.17-3.62-1.71-8.43-3.7-11.49-2.19-3.38-6.93-5.31-8.12-9.06-1.07-3.35,1.55-7.41,2-11.92.3-3.32-2-7.71-.54-12,.87-2.66,4.94-3.45,6.75-5.54s2-6.22,4.37-7.54,6,.66,8.75.11,5.3-3.85,8-3.57,4.57,4.05,6.93,5.25,6.5.44,8.31,2.62c2.36,2.77,1.82,7.27,3.48,9.52,2.24,3,6.59,3.93,7.91,6.34,1.72,3.15-.08,7.22.68,10.09s4.38,5.17,5,8.76c.48,2.77-2.12,6.41-1.39,10.06.56,2.77,4.32,5.21,5.18,8.71.54,2.22-2.77,4.78-3.5,7.57-.63,2.3,1.27,5.87,0,8.31s-5.29,2.67-6.93,4.71-1,6.11-2.77,7.83-5.92.9-8,2.09c-2.48,1.39-4.16,5.24-6.46,5.24,0,0-1.58-1.39-1.58-1.07s3.18.35,3.18.54-3.18.36-3.18.54,3.18.35,3.18.53-3.18.36-3.18.52a12.1,12.1,0,0,0,1.58,2.11Z" transform="translate(0 0)" style="fill:#425066"/><path d="M475.14,101c-1.39,0-2.3-3.33-3.65-3.74s-4,1.72-5.14.93-.09-4.16-1-5.16-4.29-.4-5-1.61,1.57-3.82,1.1-5.14-3.9-1.84-4.15-3.21c-.82-4.25,1.13-8.83-.11-12.12-1.53-4-6.14-6-8-9.13-2.17-3.62-1.71-8.43-3.7-11.49-2.19-3.38-6.93-5.31-8.12-9.06-1.07-3.35,1.55-7.41,2-11.92.3-3.32-2-7.71-.54-12,.87-2.66,4.94-3.45,6.75-5.54s2-6.22,4.37-7.54,6,.66,8.75.11,5.3-3.85,8-3.57,4.57,4.05,6.93,5.25,6.5.44,8.31,2.62c2.36,2.77,1.82,7.27,3.48,9.52,2.24,3,6.59,3.93,7.91,6.34,1.72,3.15-.08,7.22.68,10.09s4.38,5.17,5,8.76c.48,2.77-2.12,6.41-1.39,10.06.56,2.77,4.32,5.21,5.18,8.71.54,2.22-2.77,4.78-3.5,7.57-.63,2.3,1.27,5.87,0,8.31s-5.29,2.67-6.93,4.71-1,6.11-2.77,7.83-5.92.9-8,2.09c-2.48,1.39-4.16,5.24-6.46,5.24,0,0-1.58-1.39-1.58-1.07s3.18.35,3.18.54-3.18.36-3.18.54,3.18.35,3.18.53-3.18.36-3.18.52a12.1,12.1,0,0,0,1.58,2.11Z" transform="translate(0 0)" style="fill:none;stroke:#425066;stroke-linecap:round;stroke-linejoin:round;stroke-width:1.586618185043335px"/><polygon points="363.06 477.61 395.04 496.08 395.04 459.16 363.06 440.69 363.06 477.61" style="fill:#b8baba"/><polygon points="427 477.61 395.04 496.08 395.04 459.16 427 440.69 427 477.61" style="fill:#ced0d1"/><polygon points="363.06 440.69 395.04 459.16 427 440.69 395.04 422.25 363.06 440.69" style="fill:#e5e6e8"/><ellipse cx="453.7" cy="312.88" rx="54.63" ry="31.55" transform="translate(-3.11 4.55) rotate(-0.57)"/><path d="M436.91,61.55,421.12,80l16.21,13.37,21.2-20.48c5-4.83,6.63-14.57,1.49-19.25h0c-5-4.58-18.67,2.77-23.08,7.89Z" transform="translate(0 0)" style="fill:#fff;stroke:#425066;stroke-linecap:round;stroke-linejoin:round;stroke-width:1.586618185043335px"/><path d="M477.18,295.22l-14.93-5v15.49a17,17,0,0,1-2,8h0a16.85,16.85,0,0,0-2,6.93l-.36,5.66a5.77,5.77,0,0,0,10.7,3.33h0a22,22,0,0,0,7.55-11.56,33.33,33.33,0,0,0,1-4.51v-18.4Z" transform="translate(0 0)" style="fill:#697587;stroke:#425066;stroke-linecap:round;stroke-linejoin:round;stroke-width:1.586618185043335px"/><path d="M444.24,279.66l-14-3.38-2.32,10.31L412.5,303.05a3.37,3.37,0,0,0-.93,2.33h0a3.41,3.41,0,0,0,3.41,3.4h.41l12-1.49a6.32,6.32,0,0,0,4.75-3.11h0a6.34,6.34,0,0,1,2.78-2.52l9.4-4.6V279.65Z" transform="translate(0 0)" style="fill:#697587;stroke:#425066;stroke-linecap:round;stroke-linejoin:round;stroke-width:1.586618185043335px"/><path d="M431.23,120h28.94l-9.38,168a23.75,23.75,0,0,1-25.1-2.92l5.54-165Z" transform="translate(0 0)" style="fill:#e6e6e6;stroke:#425066;stroke-linecap:round;stroke-linejoin:round;stroke-width:1.586618185043335px"/><path d="M444.24,157.29,458,293.5c8.16,16.3,21.85,8.81,21.85,8.81l4-57.08-4.33-17.94L482.44,166c4.75-21.38-4.36-43.77-4.36-43.77H440.67" transform="translate(0 0)" style="fill:#e6e6e6;stroke:#425066;stroke-linecap:round;stroke-linejoin:round;stroke-width:1.586618185043335px"/><path d="M489.28,65.78l-11,49.88,1.65,5c-41.29,15.46-49.88,2.32-49.88,2.32l3.9-19a31.59,31.59,0,0,0,0-12.33l-.43-2.09A31.13,31.13,0,0,1,437,68.22l4-7.06a22.39,22.39,0,0,1,8.31-8.31l12.11-6.93,6.93,3.19a9.87,9.87,0,0,1,3.89,3.27l1.82,2.6a9.76,9.76,0,0,0,4.53,3.54l4.78,1.78a9.9,9.9,0,0,1,4.56,3.57l1.38,2Z" transform="translate(0 0)" style="fill:#6f7071;stroke:#425066;stroke-linecap:round;stroke-linejoin:round;stroke-width:1.586618185043335px"/><polygon points="436.87 84.95 404.89 103.42 404.89 140.35 436.87 121.88 436.87 84.95" style="fill:#b8baba"/><polygon points="372.9 84.95 404.89 103.42 404.89 140.35 372.9 121.88 372.9 84.95" style="fill:#ced0d1"/><polygon points="404.89 66.5 372.9 84.95 404.89 103.42 436.87 84.95 404.89 66.5" style="fill:#e5e6e8"/><path d="M466.94,93.71c-3.84-23.07,9-31.15,9-31.15" transform="translate(0 0)" style="fill:none;stroke:#425066;stroke-linecap:round;stroke-linejoin:round;stroke-width:1.586618185043335px"/><path d="M461.38,139.39c.4,6.93.44,10.93,8.6,15.86" transform="translate(0 0)" style="fill:none;stroke:#425066;stroke-linecap:round;stroke-linejoin:round;stroke-width:1.586618185043335px"/><path d="M438.23,111.51l-6.69-1.17c-4.55-1-6.47-2.57-7.26-3.86a1.37,1.37,0,0,1,.68-1.81h0a1.33,1.33,0,0,1,.68-.12l8.94,1.75a3,3,0,0,1,2.23,1.86l1.38,3.38Z" transform="translate(0 0)" style="fill:#9fa1a2;stroke:#425066;stroke-linecap:round;stroke-linejoin:round;stroke-width:1.586618185043335px"/><path d="M436.94,125.29l5.18-4.47-3.91-9.29c-4.64-3.69-16.86-3.36-22-3a2.57,2.57,0,0,0-2.4,2.55v1.27l3,2v4a2.34,2.34,0,0,0,1.64,2.22l13.64,4.3,4.92.48Z" transform="translate(0 0)" style="fill:#9fa1a2;stroke:#9fa1a2;stroke-miterlimit:10;stroke-width:0.39665454626083374px"/><path d="M432.91,109.28a66.58,66.58,0,0,0-16.74-.79,2.56,2.56,0,0,0-2.38,2.55v1.28l3,2v4a2.34,2.34,0,0,0,1.63,2.23l9.51,3a41.09,41.09,0,0,0,8.43,1.72l.61.07,5.19-4.47-3.91-9.29" transform="translate(0 0)" style="fill:#9fa1a2;stroke:#425066;stroke-linecap:round;stroke-linejoin:round;stroke-width:1.586618185043335px"/><path d="M427.52,118.77a63.88,63.88,0,0,1-12.47-1.63c-1.15-.25-2-.65-2-1.83h0c0-2.33,4.27-.85,5.45-.65,3,.51,5.26.53,8.31,1" transform="translate(0 0)" style="fill:#9fa1a2;stroke:#425066;stroke-linecap:round;stroke-linejoin:round;stroke-width:1.586618185043335px"/><path d="M474.93,215.52c.53,6.2,5,13.64,5,13.64" transform="translate(0 0)" style="fill:#fff;stroke:#425066;stroke-linecap:round;stroke-linejoin:round;stroke-width:1.586618185043335px"/><path d="M465.69,221a14.17,14.17,0,0,1,9.24,4.06" transform="translate(0 0)" style="fill:#fff;stroke:#425066;stroke-linecap:round;stroke-linejoin:round;stroke-width:1.586618185043335px"/><path d="M492.35,79.3c1.38-6.83-2.77-15.75-9.7-16.63h0c-6.72-.88-13.86,12.89-14.48,19.65l-2.9,28-11.76-3a5.45,5.45,0,0,0-4.81,1.06l-3.92,3.2-1.55,14,2.62,3.94a5.54,5.54,0,0,0,4.28,2.44l24.33,1.27a8.21,8.21,0,0,0,8.45-6.57l9.41-47.38Z" transform="translate(0 0)" style="fill:#fff;stroke:#425066;stroke-linecap:round;stroke-linejoin:round;stroke-width:1.586618185043335px"/><path d="M444.89,123.94c3.47,5.13,15.24,4.3,15.24,4.3" transform="translate(0 0)" style="fill:#fff;stroke:#425066;stroke-linecap:round;stroke-linejoin:round;stroke-width:1.586618185043335px"/><path d="M444.73,111.53c1.81,12.19-1.56,14-1.56,14l-6.22-.24c2.86-4.69,1.28-13.76,1.28-13.76Z" transform="translate(0 0)" style="fill:#fff;stroke:#425066;stroke-linecap:round;stroke-linejoin:round;stroke-width:1.586618185043335px"/><polygon points="452.98 57.98 456.39 34.99 471.97 34.99 468.1 55.48 450.78 72.87 452.98 57.98" style="fill:#9fa1a2;stroke:#425066;stroke-linecap:round;stroke-linejoin:round;stroke-width:1.586618185043335px"/><path d="M453,58l3.43-23,9,12.14h0a4.22,4.22,0,0,1-1.63,2.77L453.52,57.6a3.77,3.77,0,0,1-.54.34Z" transform="translate(0 0)" style="fill:#425066;stroke:#425066;stroke-linecap:round;stroke-linejoin:round;stroke-width:1.586618185043335px"/><path d="M465.38,47.14a4.18,4.18,0,0,1-2.28,2.26l-11.93,4.84A4.17,4.17,0,0,1,446,52.59c-7.24-12.11-3.78-27.21-1.22-34.92a5,5,0,0,1,6.32-3.14,2.67,2.67,0,0,1,.36.14l12.36,5.14a11.82,11.82,0,0,1,6.4,15.44h0" transform="translate(0 0)" style="fill:#9fa1a2;stroke:#425066;stroke-linecap:round;stroke-linejoin:round;stroke-width:1.586618185043335px"/><path d="M481.26,37c0,.45-1.74,2.44-2.93,2-.71-.26-.56-2.77-1.25-3.11-1.19-.56-3.59,1.38-3.81.23-.43-2.14,2.34-2.41,2.34-4.58s-2.36-2.19-2.36-4.37,2.78-2.52,2.33-4.63c-.36-1.49-3-.37-3.82-1.67s1.16-2.58.32-3.88-2-.13-3.3-.94c-2.41-1.49-1.72-3-4.39-3.9s-3.45,1.39-6.13.49-2.1-3.87-4.92-4.08c-1.58-.11-1.12,2.86-2.57,3.43s-2.37-1.62-3.76-1.07-.52,2.51-1.9,3.27c-.23.15-1.78-1-1.85-.72s2.26.8,2.19,1.09-2.37-.26-2.44,0c-.14.6,1.38,2.22,1.05,2.51s-2.16-1.54-2.55-1.38.63.77,1.61,1.38c.29.42-2.07,1.39-2,1.84s2.41.13,2.49.6-1.65,2.27-1.16,2.34c2.39-.66,5.11-3,7.35-2.64,2.47.38,4.05,3.49,6,4.43a15.55,15.55,0,0,0,6.83,1.58c2.18.65,1.13,2.15.84,3s.72,2.87.12,3.92-2,2.57-.37,3.59c2.77.86,3.47-1.7,6.37-1.11s2.45,2.91,5.33,3.51,3.51-1.93,6.35-1.14Z" transform="translate(0 0)" style="fill:#425066"/><path d="M463.64,35.16c.84-3.06,3.3-5.06,5.54-4.46s3.3,3.58,2.45,6.65-3.29,5-5.54,4.46" transform="translate(0 0)" style="fill:#9fa1a2;stroke:#425066;stroke-linecap:round;stroke-linejoin:round;stroke-width:1.586618185043335px"/><path d="M447.87,43.59h-1.56a1.9,1.9,0,0,1-1.92-1.88h0a2,2,0,0,1,0-.35l1.39-7.71" transform="translate(0 0)" style="fill:#9fa1a2;stroke:#425066;stroke-linecap:round;stroke-linejoin:round;stroke-width:1.586618185043335px"/><path d="M426.8,115.64A63.14,63.14,0,0,1,414.33,114c-1.17-.25-2-.64-2-1.82h0c0-1.11.86-1.24,2.15-1l12.29,1.62" transform="translate(0 0)" style="fill:#9fa1a2;stroke:#425066;stroke-linecap:round;stroke-linejoin:round;stroke-width:1.586618185043335px"/><g style="opacity:0.05000000074505806"><polygon points="596.62 421.7 564.64 440.15 532.68 421.7 564.64 403.24 596.62 421.7" style="fill:#3a485f"/></g><g style="opacity:0.05000000074505806"><polygon points="557.72 444.68 525.73 463.15 493.76 444.68 525.74 426.24 557.72 444.68" style="fill:#3a485f"/></g><polygon points="119.49 246.21 151.45 264.67 151.45 227.75 119.49 209.29 119.49 246.21" style="fill:#b8baba"/><polygon points="183.43 246.21 151.45 264.67 151.45 227.75 183.43 209.29 183.43 246.21" style="fill:#ced0d1"/><polygon points="119.49 209.29 151.45 227.75 183.43 209.29 151.45 190.82 119.49 209.29" style="fill:#e5e6e8"/><polygon points="119.49 200.22 151.45 218.68 151.45 181.76 119.49 163.3 119.49 200.22" style="fill:#b8baba"/><polygon points="183.43 200.22 151.45 218.68 151.45 181.76 183.43 163.3 183.43 200.22" style="fill:#ced0d1"/><polygon points="119.49 163.3 151.45 181.76 183.43 163.3 151.45 144.85 119.49 163.3" style="fill:#e5e6e8"/><polygon points="119.49 154.24 151.45 172.68 151.45 135.77 119.49 117.32 119.49 154.24" style="fill:#b8baba"/><polygon points="183.43 154.24 151.45 172.68 151.45 135.77 183.43 117.32 183.43 154.24" style="fill:#ced0d1"/><polygon points="119.49 117.32 151.45 135.77 183.43 117.32 151.45 98.85 119.49 117.32" style="fill:#e5e6e8"/><polygon points="119.49 108.24 151.45 126.7 151.45 89.78 119.49 71.32 119.49 108.24" style="fill:#b8baba"/><polygon points="183.43 108.24 151.45 126.7 151.45 89.78 183.43 71.32 183.43 108.24" style="fill:#ced0d1"/><polygon points="119.49 71.32 151.45 89.78 183.43 71.32 151.45 52.86 119.49 71.32" style="fill:#e5e6e8"/><polygon points="79.67 269.2 111.63 287.65 111.63 250.73 79.67 232.29 79.67 269.2" style="fill:#b8baba"/><polygon points="143.61 269.2 111.63 287.65 111.63 250.73 143.61 232.29 143.61 269.2" style="fill:#ced0d1"/><polygon points="79.67 232.29 111.63 250.73 143.61 232.29 111.63 213.84 79.67 232.29" style="fill:#e5e6e8"/><polygon points="79.67 223.22 111.63 241.68 111.63 204.76 79.67 186.29 79.67 223.22" style="fill:#b8baba"/><polygon points="143.61 223.22 111.63 241.68 111.63 204.76 143.61 186.29 143.61 223.22" style="fill:#ced0d1"/><polygon points="79.67 186.29 111.63 204.76 143.61 186.29 111.63 167.84 79.67 186.29" style="fill:#e5e6e8"/><polygon points="79.67 177.23 111.63 195.68 111.63 158.76 79.67 140.31 79.67 177.23" style="fill:#b8baba"/><polygon points="143.61 177.23 111.63 195.68 111.63 158.76 143.61 140.31 143.61 177.23" style="fill:#ced0d1"/><polygon points="79.67 140.31 111.63 158.76 143.61 140.31 111.63 121.84 79.67 140.31" style="fill:#e5e6e8"/><polygon points="79.67 131.23 111.63 149.7 111.63 112.79 79.67 94.32 79.67 131.23" style="fill:#b8baba"/><polygon points="143.61 131.23 111.63 149.7 111.63 112.79 143.61 94.32 143.61 131.23" style="fill:#ced0d1"/><polygon points="79.67 94.32 111.63 112.79 143.61 94.32 111.63 75.86 79.67 94.32" style="fill:#e5e6e8"/><polygon points="39.82 292.2 71.81 310.67 71.81 273.75 39.82 255.28 39.82 292.2" style="fill:#b8baba"/><polygon points="103.78 292.2 71.81 310.67 71.81 273.75 103.78 255.28 103.78 292.2" style="fill:#ced0d1"/><polygon points="39.82 255.28 71.81 273.75 103.78 255.28 71.81 236.82 39.82 255.28" style="fill:#e5e6e8"/><polygon points="39.82 246.21 71.81 264.67 71.81 227.75 39.82 209.29 39.82 246.21" style="fill:#b8baba"/><polygon points="103.78 246.21 71.81 264.67 71.81 227.75 103.78 209.29 103.78 246.21" style="fill:#ced0d1"/><polygon points="39.82 209.29 71.81 227.75 103.78 209.29 71.81 190.82 39.82 209.29" style="fill:#e5e6e8"/><polygon points="39.82 200.22 71.81 218.68 71.81 181.76 39.82 163.3 39.82 200.22" style="fill:#b8baba"/><polygon points="103.78 200.22 71.81 218.68 71.81 181.76 103.78 163.3 103.78 200.22" style="fill:#ced0d1"/><polygon points="39.82 163.3 71.81 181.76 103.78 163.3 71.81 144.85 39.82 163.3" style="fill:#e5e6e8"/><polygon points="39.82 154.24 71.81 172.68 71.81 135.77 39.82 117.32 39.82 154.24" style="fill:#b8baba"/><polygon points="103.78 154.24 71.81 172.68 71.81 135.77 103.78 117.32 103.78 154.24" style="fill:#ced0d1"/><polygon points="39.82 117.32 71.81 135.77 103.78 117.32 71.81 98.85 39.82 117.32" style="fill:#e5e6e8"/><polygon points="0 315.2 31.96 333.65 31.96 296.73 0 278.27 0 315.2" style="fill:#b8baba"/><polygon points="63.96 315.2 31.96 333.65 31.96 296.73 63.96 278.27 63.96 315.2" style="fill:#ced0d1"/><polygon points="0 278.27 31.96 296.73 63.96 278.27 31.96 259.82 0 278.27" style="fill:#e5e6e8"/><polygon points="0 269.2 31.96 287.65 31.96 250.73 0 232.29 0 269.2" style="fill:#b8baba"/><polygon points="63.96 269.2 31.96 287.65 31.96 250.73 63.96 232.29 63.96 269.2" style="fill:#ced0d1"/><polygon points="0 232.29 31.96 250.73 63.96 232.29 31.96 213.84 0 232.29" style="fill:#e5e6e8"/><polygon points="0 223.22 31.96 241.68 31.96 204.76 0 186.29 0 223.22" style="fill:#b8baba"/><polygon points="63.96 223.22 31.96 241.68 31.96 204.76 63.96 186.29 63.96 223.22" style="fill:#ced0d1"/><polygon points="0 186.29 31.96 204.76 63.96 186.29 31.96 167.84 0 186.29" style="fill:#e5e6e8"/><polygon points="159.31 269.2 191.29 287.65 191.29 250.73 159.31 232.29 159.31 269.2" style="fill:#b8baba"/><polygon points="223.26 269.2 191.29 287.65 191.29 250.73 223.26 232.29 223.26 269.2" style="fill:#ced0d1"/><polygon points="159.31 232.29 191.29 250.73 223.26 232.29 191.29 213.84 159.31 232.29" style="fill:#e5e6e8"/><polygon points="159.31 223.22 191.29 241.68 191.29 204.76 159.31 186.29 159.31 223.22" style="fill:#b8baba"/><polygon points="223.26 223.22 191.29 241.68 191.29 204.76 223.26 186.29 223.26 223.22" style="fill:#ced0d1"/><polygon points="159.31 186.29 191.29 204.76 223.26 186.29 191.29 167.84 159.31 186.29" style="fill:#e5e6e8"/><polygon points="159.31 177.23 191.29 195.68 191.29 158.76 159.31 140.31 159.31 177.23" style="fill:#b8baba"/><polygon points="223.26 177.23 191.29 195.68 191.29 158.76 223.26 140.31 223.26 177.23" style="fill:#ced0d1"/><polygon points="159.31 140.31 191.29 158.76 223.26 140.31 191.29 121.84 159.31 140.31" style="fill:#e5e6e8"/><polygon points="159.31 131.23 191.29 149.7 191.29 112.79 159.31 94.32 159.31 131.23" style="fill:#b8baba"/><polygon points="223.26 131.23 191.29 149.7 191.29 112.79 223.26 94.32 223.26 131.23" style="fill:#ced0d1"/><polygon points="159.31 94.32 191.29 112.79 223.26 94.32 191.29 75.86 159.31 94.32" style="fill:#e5e6e8"/><polygon points="119.49 292.2 151.45 310.67 151.45 273.75 119.49 255.28 119.49 292.2" style="fill:#b8baba"/><polygon points="183.43 292.2 151.45 310.67 151.45 273.75 183.43 255.28 183.43 292.2" style="fill:#ced0d1"/><polygon points="119.49 255.28 151.45 273.75 183.43 255.28 151.45 236.82 119.49 255.28" style="fill:#e5e6e8"/><polygon points="119.49 246.21 151.45 264.67 151.45 227.75 119.49 209.29 119.49 246.21" style="fill:#b8baba"/><polygon points="183.43 246.21 151.45 264.67 151.45 227.75 183.43 209.29 183.43 246.21" style="fill:#ced0d1"/><polygon points="119.49 209.29 151.45 227.75 183.43 209.29 151.45 190.82 119.49 209.29" style="fill:#e5e6e8"/><polygon points="119.49 200.22 151.45 218.68 151.45 181.76 119.49 163.3 119.49 200.22" style="fill:#b8baba"/><polygon points="183.43 200.22 151.45 218.68 151.45 181.76 183.43 163.3 183.43 200.22" style="fill:#ced0d1"/><polygon points="119.49 163.3 151.45 181.76 183.43 163.3 151.45 144.85 119.49 163.3" style="fill:#e5e6e8"/><polygon points="119.49 154.24 151.45 172.68 151.45 135.77 119.49 117.32 119.49 154.24" style="fill:#b8baba"/><polygon points="183.43 154.24 151.45 172.68 151.45 135.77 183.43 117.32 183.43 154.24" style="fill:#ced0d1"/><polygon points="119.49 117.32 151.45 135.77 183.43 117.32 151.45 98.85 119.49 117.32" style="fill:#e5e6e8"/><polygon points="79.67 315.2 111.63 333.65 111.63 296.73 79.67 278.27 79.67 315.2" style="fill:#b8baba"/><polygon points="143.61 315.2 111.63 333.65 111.63 296.73 143.61 278.27 143.61 315.2" style="fill:#ced0d1"/><polygon points="79.67 278.27 111.63 296.73 143.61 278.27 111.63 259.82 79.67 278.27" style="fill:#e5e6e8"/><polygon points="79.67 269.2 111.63 287.65 111.63 250.73 79.67 232.29 79.67 269.2" style="fill:#b8baba"/><polygon points="143.61 269.2 111.63 287.65 111.63 250.73 143.61 232.29 143.61 269.2" style="fill:#ced0d1"/><polygon points="79.67 232.29 111.63 250.73 143.61 232.29 111.63 213.84 79.67 232.29" style="fill:#e5e6e8"/><polygon points="79.67 223.22 111.63 241.68 111.63 204.76 79.67 186.29 79.67 223.22" style="fill:#b8baba"/><polygon points="143.61 223.22 111.63 241.68 111.63 204.76 143.61 186.29 143.61 223.22" style="fill:#ced0d1"/><polygon points="79.67 186.29 111.63 204.76 143.61 186.29 111.63 167.84 79.67 186.29" style="fill:#e5e6e8"/><polygon points="79.67 177.23 111.63 195.68 111.63 158.76 79.67 140.31 79.67 177.23" style="fill:#b8baba"/><polygon points="143.61 177.23 111.63 195.68 111.63 158.76 143.61 140.31 143.61 177.23" style="fill:#ced0d1"/><polygon points="79.67 140.31 111.63 158.76 143.61 140.31 111.63 121.84 79.67 140.31" style="fill:#e5e6e8"/><polygon points="39.82 338.19 71.81 356.64 71.81 319.73 39.82 301.27 39.82 338.19" style="fill:#b8baba"/><polygon points="103.78 338.19 71.81 356.64 71.81 319.73 103.78 301.27 103.78 338.19" style="fill:#ced0d1"/><polygon points="39.82 301.27 71.81 319.73 103.78 301.27 71.81 282.81 39.82 301.27" style="fill:#e5e6e8"/><polygon points="39.82 292.2 71.81 310.67 71.81 273.75 39.82 255.28 39.82 292.2" style="fill:#b8baba"/><polygon points="103.78 292.2 71.81 310.67 71.81 273.75 103.78 255.28 103.78 292.2" style="fill:#ced0d1"/><polygon points="39.82 255.28 71.81 273.75 103.78 255.28 71.81 236.82 39.82 255.28" style="fill:#e5e6e8"/><polygon points="39.82 246.21 71.81 264.67 71.81 227.75 39.82 209.29 39.82 246.21" style="fill:#b8baba"/><polygon points="103.78 246.21 71.81 264.67 71.81 227.75 103.78 209.29 103.78 246.21" style="fill:#ced0d1"/><polygon points="39.82 209.29 71.81 227.75 103.78 209.29 71.81 190.82 39.82 209.29" style="fill:#e5e6e8"/><polygon points="199.14 292.2 231.12 310.67 231.12 273.75 199.14 255.28 199.14 292.2" style="fill:#b8baba"/><polygon points="263.1 292.2 231.12 310.67 231.12 273.75 263.1 255.28 263.1 292.2" style="fill:#ced0d1"/><polygon points="199.14 255.28 231.12 273.75 263.1 255.28 231.12 236.82 199.14 255.28" style="fill:#e5e6e8"/><polygon points="199.14 246.21 231.12 264.67 231.12 227.75 199.14 209.29 199.14 246.21" style="fill:#b8baba"/><polygon points="263.1 246.21 231.12 264.67 231.12 227.75 263.1 209.29 263.1 246.21" style="fill:#ced0d1"/><polygon points="199.14 209.29 231.12 227.75 263.1 209.29 231.12 190.82 199.14 209.29" style="fill:#e5e6e8"/><polygon points="199.14 200.22 231.12 218.68 231.12 181.76 199.14 163.3 199.14 200.22" style="fill:#b8baba"/><polygon points="263.1 200.22 231.12 218.68 231.12 181.76 263.1 163.3 263.1 200.22" style="fill:#ced0d1"/><polygon points="199.14 163.3 231.12 181.76 263.1 163.3 231.12 144.85 199.14 163.3" style="fill:#e5e6e8"/><polygon points="199.14 154.24 231.12 172.68 231.12 135.77 199.14 117.32 199.14 154.24" style="fill:#b8baba"/><polygon points="263.1 154.24 231.12 172.68 231.12 135.77 263.1 117.32 263.1 154.24" style="fill:#ced0d1"/><polygon points="199.14 117.32 231.12 135.77 263.1 117.32 231.12 98.85 199.14 117.32" style="fill:#e5e6e8"/><polygon points="159.31 315.2 191.29 333.65 191.29 296.73 159.31 278.27 159.31 315.2" style="fill:#b8baba"/><polygon points="223.26 315.2 191.29 333.65 191.29 296.73 223.26 278.27 223.26 315.2" style="fill:#ced0d1"/><polygon points="159.31 278.27 191.29 296.73 223.26 278.27 191.29 259.82 159.31 278.27" style="fill:#e5e6e8"/><polygon points="159.31 269.2 191.29 287.65 191.29 250.73 159.31 232.29 159.31 269.2" style="fill:#b8baba"/><polygon points="223.26 269.2 191.29 287.65 191.29 250.73 223.26 232.29 223.26 269.2" style="fill:#ced0d1"/><polygon points="159.31 232.29 191.29 250.73 223.26 232.29 191.29 213.84 159.31 232.29" style="fill:#e5e6e8"/><polygon points="159.31 223.22 191.29 241.68 191.29 204.76 159.31 186.29 159.31 223.22" style="fill:#b8baba"/><polygon points="223.26 223.22 191.29 241.68 191.29 204.76 223.26 186.29 223.26 223.22" style="fill:#ced0d1"/><polygon points="159.31 186.29 191.29 204.76 223.26 186.29 191.29 167.84 159.31 186.29" style="fill:#e5e6e8"/><polygon points="159.31 177.23 191.29 195.68 191.29 158.76 159.31 140.31 159.31 177.23" style="fill:#b8baba"/><polygon points="223.26 177.23 191.29 195.68 191.29 158.76 223.26 140.31 223.26 177.23" style="fill:#ced0d1"/><polygon points="159.31 140.31 191.29 158.76 223.26 140.31 191.29 121.84 159.31 140.31" style="fill:#e5e6e8"/><polygon points="119.49 338.19 151.45 356.64 151.45 319.73 119.49 301.27 119.49 338.19" style="fill:#b8baba"/><polygon points="183.43 338.19 151.45 356.64 151.45 319.73 183.43 301.27 183.43 338.19" style="fill:#ced0d1"/><polygon points="119.49 301.27 151.45 319.73 183.43 301.27 151.45 282.81 119.49 301.27" style="fill:#e5e6e8"/><polygon points="119.49 292.2 151.45 310.67 151.45 273.75 119.49 255.28 119.49 292.2" style="fill:#b8baba"/><polygon points="183.43 292.2 151.45 310.67 151.45 273.75 183.43 255.28 183.43 292.2" style="fill:#ced0d1"/><polygon points="119.49 255.28 151.45 273.75 183.43 255.28 151.45 236.82 119.49 255.28" style="fill:#e5e6e8"/><polygon points="119.49 246.21 151.45 264.67 151.45 227.75 119.49 209.29 119.49 246.21" style="fill:#b8baba"/><polygon points="183.43 246.21 151.45 264.67 151.45 227.75 183.43 209.29 183.43 246.21" style="fill:#ced0d1"/><polygon points="119.49 209.29 151.45 227.75 183.43 209.29 151.45 190.82 119.49 209.29" style="fill:#e5e6e8"/><polygon points="119.49 200.22 151.45 218.68 151.45 181.76 119.49 163.3 119.49 200.22" style="fill:#b8baba"/><polygon points="183.43 200.22 151.45 218.68 151.45 181.76 183.43 163.3 183.43 200.22" style="fill:#ced0d1"/><polygon points="119.49 163.3 151.45 181.76 183.43 163.3 151.45 144.85 119.49 163.3" style="fill:#e5e6e8"/><polygon points="79.67 361.19 111.63 379.65 111.63 342.73 79.67 324.26 79.67 361.19" style="fill:#b8baba"/><polygon points="143.61 361.19 111.63 379.65 111.63 342.73 143.61 324.26 143.61 361.19" style="fill:#ced0d1"/><polygon points="79.67 324.26 111.63 342.73 143.61 324.26 111.63 305.81 79.67 324.26" style="fill:#e5e6e8"/><polygon points="79.67 315.2 111.63 333.65 111.63 296.73 79.67 278.27 79.67 315.2" style="fill:#b8baba"/><polygon points="143.61 315.2 111.63 333.65 111.63 296.73 143.61 278.27 143.61 315.2" style="fill:#ced0d1"/><polygon points="79.67 278.27 111.63 296.73 143.61 278.27 111.63 259.82 79.67 278.27" style="fill:#e5e6e8"/><polygon points="79.67 269.2 111.63 287.65 111.63 250.73 79.67 232.29 79.67 269.2" style="fill:#b8baba"/><polygon points="143.61 269.2 111.63 287.65 111.63 250.73 143.61 232.29 143.61 269.2" style="fill:#ced0d1"/><polygon points="79.67 232.29 111.63 250.73 143.61 232.29 111.63 213.84 79.67 232.29" style="fill:#e5e6e8"/><polygon points="79.67 223.22 111.63 241.68 111.63 204.76 79.67 186.29 79.67 223.22" style="fill:#b8baba"/><polygon points="143.61 223.22 111.63 241.68 111.63 204.76 143.61 186.29 143.61 223.22" style="fill:#ced0d1"/><polygon points="79.67 186.29 111.63 204.76 143.61 186.29 111.63 167.84 79.67 186.29" style="fill:#e5e6e8"/><polygon points="238.98 315.2 270.95 333.65 270.95 296.73 238.98 278.27 238.98 315.2" style="fill:#b8baba"/><polygon points="302.92 315.2 270.95 333.65 270.95 296.73 302.92 278.27 302.92 315.2" style="fill:#ced0d1"/><polygon points="238.98 278.27 270.95 296.73 302.92 278.27 270.95 259.82 238.98 278.27" style="fill:#e5e6e8"/><polygon points="238.98 269.2 270.95 287.65 270.95 250.73 238.98 232.29 238.98 269.2" style="fill:#b8baba"/><polygon points="302.92 269.2 270.95 287.65 270.95 250.73 302.92 232.29 302.92 269.2" style="fill:#ced0d1"/><polygon points="238.98 232.29 270.95 250.73 302.92 232.29 270.95 213.84 238.98 232.29" style="fill:#e5e6e8"/><polygon points="238.98 223.22 270.95 241.68 270.95 204.76 238.98 186.29 238.98 223.22" style="fill:#b8baba"/><polygon points="302.92 223.22 270.95 241.68 270.95 204.76 302.92 186.29 302.92 223.22" style="fill:#ced0d1"/><polygon points="238.98 186.29 270.95 204.76 302.92 186.29 270.95 167.84 238.98 186.29" style="fill:#e5e6e8"/><polygon points="199.14 338.19 231.12 356.64 231.12 319.73 199.14 301.27 199.14 338.19" style="fill:#b8baba"/><polygon points="263.1 338.19 231.12 356.64 231.12 319.73 263.1 301.27 263.1 338.19" style="fill:#ced0d1"/><polygon points="199.14 301.27 231.12 319.73 263.1 301.27 231.12 282.81 199.14 301.27" style="fill:#e5e6e8"/><polygon points="199.14 292.2 231.12 310.67 231.12 273.75 199.14 255.28 199.14 292.2" style="fill:#b8baba"/><polygon points="263.1 292.2 231.12 310.67 231.12 273.75 263.1 255.28 263.1 292.2" style="fill:#ced0d1"/><polygon points="199.14 255.28 231.12 273.75 263.1 255.28 231.12 236.82 199.14 255.28" style="fill:#e5e6e8"/><polygon points="199.14 246.21 231.12 264.67 231.12 227.75 199.14 209.29 199.14 246.21" style="fill:#b8baba"/><polygon points="263.1 246.21 231.12 264.67 231.12 227.75 263.1 209.29 263.1 246.21" style="fill:#ced0d1"/><polygon points="199.14 209.29 231.12 227.75 263.1 209.29 231.12 190.82 199.14 209.29" style="fill:#e5e6e8"/><polygon points="159.31 361.19 191.29 379.65 191.29 342.73 159.31 324.26 159.31 361.19" style="fill:#b8baba"/><polygon points="223.26 361.19 191.29 379.65 191.29 342.73 223.26 324.26 223.26 361.19" style="fill:#ced0d1"/><polygon points="159.31 324.26 191.29 342.73 223.26 324.26 191.29 305.81 159.31 324.26" style="fill:#e5e6e8"/><polygon points="159.31 315.2 191.29 333.65 191.29 296.73 159.31 278.27 159.31 315.2" style="fill:#b8baba"/><polygon points="223.26 315.2 191.29 333.65 191.29 296.73 223.26 278.27 223.26 315.2" style="fill:#ced0d1"/><polygon points="159.31 278.27 191.29 296.73 223.26 278.27 191.29 259.82 159.31 278.27" style="fill:#e5e6e8"/><polygon points="159.31 269.2 191.29 287.65 191.29 250.73 159.31 232.29 159.31 269.2" style="fill:#b8baba"/><polygon points="223.26 269.2 191.29 287.65 191.29 250.73 223.26 232.29 223.26 269.2" style="fill:#ced0d1"/><polygon points="159.31 232.29 191.29 250.73 223.26 232.29 191.29 213.84 159.31 232.29" style="fill:#e5e6e8"/><polygon points="119.49 384.17 151.45 402.64 151.45 365.72 119.49 347.25 119.49 384.17" style="fill:#b8baba"/><polygon points="183.43 384.17 151.45 402.64 151.45 365.72 183.43 347.25 183.43 384.17" style="fill:#ced0d1"/><polygon points="119.49 347.25 151.45 365.72 183.43 347.25 151.45 328.79 119.49 347.25" style="fill:#e5e6e8"/><polygon points="119.49 338.19 151.45 356.64 151.45 319.73 119.49 301.27 119.49 338.19" style="fill:#b8baba"/><polygon points="183.43 338.19 151.45 356.64 151.45 319.73 183.43 301.27 183.43 338.19" style="fill:#ced0d1"/><polygon points="119.49 301.27 151.45 319.73 183.43 301.27 151.45 282.81 119.49 301.27" style="fill:#e5e6e8"/><polygon points="446.09 426.24 478.05 444.68 478.05 407.76 446.09 389.32 446.09 426.24" style="fill:#b8baba"/><polygon points="510.04 426.24 478.05 444.68 478.05 407.76 510.04 389.32 510.04 426.24" style="fill:#ced0d1"/><polygon points="446.09 389.32 478.05 407.76 510.04 389.32 478.05 370.85 446.09 389.32" style="fill:#e5e6e8"/><polygon points="525.73 426.24 557.72 444.68 557.72 407.76 525.73 389.32 525.73 426.24" style="fill:#b8baba"/><polygon points="589.68 426.24 557.72 444.68 557.72 407.76 589.68 389.32 589.68 426.24" style="fill:#ced0d1"/><polygon points="525.73 389.32 557.72 407.76 589.68 389.32 557.72 370.85 525.73 389.32" style="fill:#e5e6e8"/><polygon points="525.73 380.24 557.72 398.71 557.72 361.79 525.73 343.32 525.73 380.24" style="fill:#b8baba"/><polygon points="588.68 380.24 556.72 398.71 556.72 361.79 588.68 343.32 588.68 380.24" style="fill:#ced0d1"/><polygon points="524.73 343.32 556.72 361.79 588.68 343.32 556.72 324.86 524.73 343.32" style="fill:#e5e6e8"/><polygon points="85.73 484.26 117.72 502.71 117.72 465.79 85.73 447.33 85.73 484.26" style="fill:#b8baba"/><polygon points="149.68 484.26 117.72 502.71 117.72 465.79 149.68 447.33 149.68 484.26" style="fill:#ced0d1"/><polygon points="85.73 447.33 117.72 465.79 149.68 447.33 117.72 428.88 85.73 447.33" style="fill:#e5e6e8"/><polygon points="485.91 449.23 517.87 467.7 517.87 430.77 485.91 412.3 485.91 449.23" style="fill:#b8baba"/><polygon points="549.86 449.23 517.88 467.7 517.88 430.77 549.86 412.3 549.86 449.23" style="fill:#ced0d1"/><polygon points="485.91 412.3 517.88 430.77 549.86 412.3 517.87 393.85 485.91 412.3" style="fill:#e5e6e8"/><polygon points="485.91 403.24 517.87 421.7 517.87 384.77 485.91 366.32 485.91 403.24" style="fill:#b8baba"/><polygon points="549.86 403.24 517.88 421.7 517.88 384.77 549.86 366.32 549.86 403.24" style="fill:#ced0d1"/><polygon points="485.91 366.32 517.88 384.77 549.86 366.32 517.87 347.86 485.91 366.32" style="fill:#e5e6e8"/><polygon points="0.32 177.34 32.31 195.79 32.31 158.87 0.32 140.42 0.32 177.34" style="fill:#b8baba"/><polygon points="64.28 177.34 32.31 195.79 32.31 158.87 64.28 140.42 64.28 177.34" style="fill:#ced0d1"/><polygon points="0.32 140.42 32.31 158.87 64.28 140.42 32.31 121.95 0.32 140.42" style="fill:#e5e6e8"/></g></g></g></g></g></svg>