<svg version="1.1" id="Layer_1" xmlns="http://www.w3.org/2000/svg" xmlns:xlink="http://www.w3.org/1999/xlink" x="0px" y="0px"
	 width="100%" viewBox="0 0 830 370" enable-background="new 0 0 830 370" xml:space="preserve">
<path fill="#FFFFFF" opacity="1.000000" stroke="none" 
	d="
M497.000000,371.000000 
	C331.333344,371.000000 166.166672,371.000000 1.000000,371.000000 
	C1.000000,247.666672 1.000000,124.333336 1.000000,1.000000 
	C277.666656,1.000000 554.333313,1.000000 831.000000,1.000000 
	C831.000000,124.333336 831.000000,247.666672 831.000000,371.000000 
	C719.833313,371.000000 608.666687,371.000000 497.000000,371.000000 
M143.567749,66.115532 
	C139.746704,66.380173 135.915848,66.545937 132.106064,66.924141 
	C63.267735,73.757866 12.615695,141.499710 25.482298,209.492722 
	C38.233173,276.874176 98.767342,319.594208 166.666412,309.128815 
	C233.524460,298.823883 280.289062,231.266403 266.401245,165.048965 
	C254.017685,106.003815 204.908020,66.128006 143.567749,66.115532 
M482.926453,183.666229 
	C482.418335,184.269089 481.910248,184.871948 481.114746,185.815857 
	C478.357880,181.106827 475.093903,176.707108 469.486176,177.578613 
	C464.822845,178.303375 460.426392,180.745346 455.995758,182.395386 
	C455.825958,178.082993 452.878845,177.178879 448.437561,178.584625 
	C448.437561,194.129654 448.437561,209.369095 448.437561,224.712723 
	C451.214508,224.712723 453.638031,224.712723 456.589417,224.712723 
	C456.589417,222.824402 456.591125,221.191711 456.589142,219.559036 
	C456.578369,210.728485 456.515564,201.897583 456.576721,193.067535 
	C456.607330,188.649399 460.849762,184.592758 465.643677,184.161331 
	C470.917969,183.686676 474.541534,186.161346 475.142914,191.463028 
	C475.703369,196.403732 475.541656,201.432297 475.592712,206.423279 
	C475.654968,212.514313 475.607483,218.606476 475.607483,224.644440 
	C478.758545,224.644440 481.168427,224.644440 483.986145,224.644440 
	C483.986145,219.847336 483.974609,215.378922 483.989075,210.910599 
	C484.007935,205.079849 483.783630,199.232452 484.152161,193.423187 
	C484.520935,187.610519 489.010773,183.835953 494.480743,184.086395 
	C499.702698,184.325470 502.756866,187.690933 503.105255,193.776413 
	C503.257416,196.434341 503.180939,199.106140 503.183624,201.771667 
	C503.191315,209.381500 503.186310,216.991348 503.186310,224.712677 
	C506.275177,224.712677 508.695312,224.712677 511.540314,224.712677 
	C511.540314,213.993988 511.784943,203.529495 511.450592,193.083542 
	C511.242767,186.590088 508.792084,180.815918 502.043793,178.500244 
	C495.014801,176.088242 488.563782,177.315628 482.926453,183.666229 
M326.424194,200.124084 
	C328.733368,199.858582 331.097351,199.823135 333.342438,199.288513 
	C344.108978,196.724686 350.129089,189.068115 349.829895,178.540878 
	C349.533905,168.126480 343.471954,160.785889 332.305481,159.520447 
	C323.645203,158.539017 314.784698,159.324371 305.822815,159.324371 
	C305.822815,181.104385 305.822815,202.852386 305.822815,224.607788 
	C308.843048,224.607788 311.572449,224.607788 314.929321,224.607788 
	C314.929321,216.368729 314.929321,208.487946 314.929321,200.135544 
	C318.870972,200.135544 322.174530,200.135544 326.424194,200.124084 
M606.717407,158.133820 
	C606.717407,180.245270 606.717407,202.356720 606.717407,224.591171 
	C609.586792,224.591171 612.115356,224.591171 614.958374,224.591171 
	C614.958374,214.067871 614.811768,203.929565 615.083618,193.802475 
	C615.137207,191.806244 616.326721,189.322556 617.817932,187.982391 
	C621.879761,184.332108 626.819092,182.652313 632.112915,185.080322 
	C637.263184,187.442505 637.193298,192.383698 637.188782,197.128922 
	C637.180054,206.240936 637.186218,215.352951 637.186218,224.582092 
	C640.276062,224.582092 642.795532,224.582092 645.415405,224.582092 
	C645.415405,213.553925 646.073120,202.875122 645.250244,192.311630 
	C644.203491,178.873871 631.460876,173.134171 619.924622,180.257996 
	C618.458862,181.163071 617.040466,182.144684 614.869141,183.570999 
	C614.869141,174.266754 614.869141,165.861023 614.869141,156.882019 
	C611.960449,157.055954 609.539673,157.200699 606.717407,158.133820 
M549.964417,217.901947 
	C540.066345,221.890518 527.873108,216.197815 529.599487,201.726593 
	C538.670227,201.726593 547.800598,201.568146 556.921082,201.798752 
	C560.996094,201.901779 562.145203,200.319153 561.882812,196.485626 
	C561.240173,187.095993 556.041199,180.146057 547.738708,178.038528 
	C538.293030,175.640823 528.632263,179.436691 523.949402,187.474655 
	C519.936462,194.362671 519.718262,201.760025 521.622986,209.239090 
	C523.775391,217.691071 529.017273,223.402451 537.773682,225.031693 
	C546.496887,226.654724 554.467163,224.992889 561.035706,218.653046 
	C557.790894,211.386963 554.126648,216.778366 549.964417,217.901947 
M669.174927,216.564316 
	C664.513489,212.862457 662.893494,207.961349 663.129700,201.725311 
	C672.787537,201.725311 682.079834,201.619003 691.367554,201.779434 
	C694.910950,201.840668 696.018982,200.452759 695.902039,197.039108 
	C695.577576,187.567551 690.232056,180.218857 681.787109,178.050354 
	C672.363708,175.630585 662.459900,179.308990 658.023193,187.458710 
	C652.747131,197.150131 653.039246,207.138702 658.839722,216.434708 
	C666.134888,228.125900 686.088074,228.918015 694.826965,218.193497 
	C693.349243,214.730927 691.342346,213.973282 687.844177,216.038635 
	C682.114868,219.421158 676.025696,220.444977 669.174927,216.564316 
M404.624084,222.994232 
	C420.274567,229.846359 435.103394,223.018250 437.459351,207.284683 
	C438.241486,202.061508 437.590027,196.277939 436.161285,191.149719 
	C433.966248,183.271072 427.930450,178.919678 419.801941,177.772095 
	C411.355530,176.579636 403.933624,178.499588 398.371246,185.406723 
	C391.230988,194.273224 390.824249,214.925354 404.624084,222.994232 
M736.106628,178.910965 
	C736.017944,188.715958 735.925354,198.520920 735.842102,208.325958 
	C735.792786,214.138153 730.754761,218.657593 723.928528,218.997543 
	C717.653809,219.309998 713.950073,216.218811 713.644287,209.519073 
	C713.280518,201.551468 713.510925,193.556625 713.487793,185.573593 
	C713.480835,183.169510 713.486755,180.765396 713.486755,178.463364 
	C710.242493,178.463364 707.840881,178.463364 705.229248,178.463364 
	C705.229248,189.603577 704.702881,200.419571 705.376709,211.160294 
	C706.055298,221.977264 714.499634,227.721283 725.044006,225.012817 
	C728.878662,224.027847 732.334839,221.569641 735.938110,219.796219 
	C737.844360,225.445236 737.844360,225.445236 743.650269,224.370239 
	C743.650269,209.027420 743.650269,193.683075 743.650269,178.286087 
	C741.081543,178.286087 738.933777,178.286087 736.106628,178.910965 
M756.716797,184.472366 
	C752.882812,193.051849 755.171265,199.060394 763.722046,202.500275 
	C767.421021,203.988327 771.484009,204.770020 774.878052,206.740128 
	C776.784424,207.846664 778.943604,210.907974 778.677307,212.755432 
	C778.352600,215.008759 775.782532,218.422028 773.860657,218.653595 
	C769.824341,219.139877 765.314087,218.581223 761.481445,217.154083 
	C756.451538,215.281036 755.942078,215.034042 754.259949,220.263580 
	C762.002075,226.476288 772.842163,227.572723 780.333130,222.838364 
	C785.151794,219.792923 787.244751,215.251877 786.881592,209.682480 
	C786.548767,204.578125 783.237549,201.642944 778.770203,199.891785 
	C774.899597,198.374557 770.715698,197.472168 767.139160,195.463242 
	C765.220093,194.385284 763.019714,191.386093 763.255310,189.550323 
	C763.509888,187.567596 766.292419,184.676727 768.267151,184.416092 
	C771.858948,183.942001 775.979980,184.386368 779.307495,185.797653 
	C783.296204,187.489380 784.743225,186.323563 785.763489,182.873856 
	C776.932373,175.095276 764.664490,175.554169 756.716797,184.472366 
M570.743652,185.071976 
	C574.038086,184.563873 575.052979,185.989197 574.967834,189.249847 
	C574.768127,196.903061 574.972351,204.565857 574.901733,212.223740 
	C574.852966,217.511200 575.737183,222.298798 581.172119,224.724457 
	C586.234253,226.983704 592.792847,225.463028 597.198547,221.162231 
	C596.202454,217.852966 594.921509,216.061157 590.866455,218.146622 
	C586.976501,220.147141 583.432495,218.152756 583.299866,213.985443 
	C582.999695,204.555115 583.205444,195.108688 583.205444,185.016846 
	C587.924194,185.016846 592.138367,185.016846 596.707520,185.016846 
	C596.575073,182.619507 596.481018,180.918167 596.361206,178.750549 
	C591.685303,178.750549 587.608887,178.750549 583.094238,178.750549 
	C583.094238,173.324646 583.094238,168.390060 583.094238,163.365662 
	C579.270142,162.542587 576.755920,162.786301 576.684143,167.236099 
	C576.649475,169.384766 576.019470,171.519394 575.919800,173.672455 
	C575.754578,177.242233 574.719482,179.689301 570.479614,179.629105 
	C569.493408,179.615112 568.489502,180.851471 567.493713,181.512527 
	C568.301636,182.692810 569.109558,183.873093 570.743652,185.071976 
M368.032074,209.504211 
	C368.029694,205.681305 367.974152,201.857544 368.036133,198.035690 
	C368.160919,190.340393 373.997986,185.071228 381.700562,185.655228 
	C383.309998,185.777267 384.913635,185.976288 386.348297,186.122375 
	C390.239868,178.190491 386.481750,176.266129 379.654175,177.780609 
	C375.358978,178.733353 371.633759,182.255585 367.647034,184.628586 
	C367.024628,181.360626 367.118103,175.855774 360.116882,178.774384 
	C360.116882,194.066513 360.116882,209.279984 360.116882,224.656891 
	C362.805969,224.656891 365.192078,224.656891 368.032104,224.656891 
	C368.032104,219.737518 368.032104,215.118622 368.032074,209.504211 
z"/>
<path fill="#E6542E" opacity="1.000000" stroke="none" 
	d="
M144.055878,66.109741 
	C204.908020,66.128006 254.017685,106.003815 266.401245,165.048965 
	C280.289062,231.266403 233.524460,298.823883 166.666412,309.128815 
	C98.767342,319.594208 38.233173,276.874176 25.482298,209.492722 
	C12.615695,141.499710 63.267735,73.757866 132.106064,66.924141 
	C135.915848,66.545937 139.746704,66.380173 144.055878,66.109741 
M91.914894,225.296875 
	C127.576485,225.297562 163.238129,225.317230 198.899567,225.245407 
	C200.773636,225.241638 203.304428,225.094360 204.413620,223.940872 
	C212.221252,215.821304 218.069901,206.459061 221.652359,194.642776 
	C208.421738,197.244690 195.950378,199.697281 183.474228,202.150818 
	C183.395905,201.636353 183.312714,201.460007 183.359512,201.330658 
	C183.524292,200.875092 183.667557,200.390686 183.935699,199.996628 
	C196.720200,181.207764 195.783539,161.600830 186.336594,142.135345 
	C180.031235,129.143066 172.345505,116.823372 175.515152,101.262939 
	C163.677795,115.360306 163.320557,132.858658 160.492523,149.657852 
	C159.798035,148.168869 159.300156,146.734894 159.289413,145.297272 
	C159.178696,130.476547 154.422028,116.850174 148.759033,103.426384 
	C145.770142,96.341454 143.049515,89.162872 145.805038,80.873405 
	C143.335831,82.061401 141.079788,83.346512 139.514236,85.211296 
	C134.498917,91.185257 132.419785,98.323883 132.260269,106.025284 
	C132.037140,116.798004 130.171860,127.220894 125.880890,137.140778 
	C125.165436,138.794769 124.095352,140.295349 122.667076,142.772141 
	C119.720810,119.527122 116.337799,111.428505 108.728195,109.301254 
	C111.301170,119.384354 107.847679,128.466263 104.702194,137.603668 
	C102.590004,143.739410 100.312561,149.829514 98.491028,156.051849 
	C93.906219,171.713577 95.983887,186.373047 105.644760,199.753647 
	C106.059784,200.328476 106.278084,201.045334 106.919441,202.391830 
	C94.578941,199.757126 82.963211,197.277161 70.743813,194.668320 
	C74.286285,206.470535 80.737656,215.506729 87.938812,224.075928 
	C88.563828,224.819687 89.975143,224.902679 91.914894,225.296875 
M177.500000,236.086975 
	C148.082733,236.086975 118.665474,236.086975 89.158447,236.086975 
	C89.158447,243.343460 89.158447,250.023895 89.158447,256.694519 
	C127.479759,256.694519 165.363495,256.694519 203.370178,256.694519 
	C203.370178,249.713577 203.370178,243.025208 203.370178,236.087006 
	C194.797440,236.087006 186.648727,236.087006 177.500000,236.086975 
M148.500061,266.385376 
	C136.239563,266.385376 123.979050,266.385376 111.208115,266.385376 
	C112.049797,277.965698 117.737610,285.528961 126.981064,290.313965 
	C141.134384,297.640656 155.287170,297.099854 168.661926,288.297699 
	C176.197464,283.338409 180.638596,276.240723 181.022079,266.385742 
	C170.100388,266.385742 159.800232,266.385742 148.500061,266.385376 
z"/>
<path fill="#E75B37" opacity="1.000000" stroke="none" 
	d="
M483.145233,183.356598 
	C488.563782,177.315628 495.014801,176.088242 502.043793,178.500244 
	C508.792084,180.815918 511.242767,186.590088 511.450592,193.083542 
	C511.784943,203.529495 511.540314,213.993988 511.540314,224.712677 
	C508.695312,224.712677 506.275177,224.712677 503.186310,224.712677 
	C503.186310,216.991348 503.191315,209.381500 503.183624,201.771667 
	C503.180939,199.106140 503.257416,196.434341 503.105255,193.776413 
	C502.756866,187.690933 499.702698,184.325470 494.480743,184.086395 
	C489.010773,183.835953 484.520935,187.610519 484.152161,193.423187 
	C483.783630,199.232452 484.007935,205.079849 483.989075,210.910599 
	C483.974609,215.378922 483.986145,219.847336 483.986145,224.644440 
	C481.168427,224.644440 478.758545,224.644440 475.607483,224.644440 
	C475.607483,218.606476 475.654968,212.514313 475.592712,206.423279 
	C475.541656,201.432297 475.703369,196.403732 475.142914,191.463028 
	C474.541534,186.161346 470.917969,183.686676 465.643677,184.161331 
	C460.849762,184.592758 456.607330,188.649399 456.576721,193.067535 
	C456.515564,201.897583 456.578369,210.728485 456.589142,219.559036 
	C456.591125,221.191711 456.589417,222.824402 456.589417,224.712723 
	C453.638031,224.712723 451.214508,224.712723 448.437561,224.712723 
	C448.437561,209.369095 448.437561,194.129654 448.437561,178.584625 
	C452.878845,177.178879 455.825958,178.082993 455.995758,182.395386 
	C460.426392,180.745346 464.822845,178.303375 469.486176,177.578613 
	C475.093903,176.707108 478.357880,181.106827 481.114746,185.815857 
	C481.910248,184.871948 482.418335,184.269089 483.145233,183.356598 
z"/>
<path fill="#E75935" opacity="1.000000" stroke="none" 
	d="
M325.951141,200.129822 
	C322.174530,200.135544 318.870972,200.135544 314.929321,200.135544 
	C314.929321,208.487946 314.929321,216.368729 314.929321,224.607788 
	C311.572449,224.607788 308.843048,224.607788 305.822815,224.607788 
	C305.822815,202.852386 305.822815,181.104385 305.822815,159.324371 
	C314.784698,159.324371 323.645203,158.539017 332.305481,159.520447 
	C343.471954,160.785889 349.533905,168.126480 349.829895,178.540878 
	C350.129089,189.068115 344.108978,196.724686 333.342438,199.288513 
	C331.097351,199.823135 328.733368,199.858582 325.951141,200.129822 
M325.254028,165.959702 
	C321.827820,165.959702 318.401611,165.959702 314.976379,165.959702 
	C314.976379,175.326752 314.976379,183.916595 314.976379,192.450821 
	C330.431335,195.069382 339.568024,190.903564 340.764313,180.876022 
	C341.802185,172.176453 336.476837,166.733612 325.254028,165.959702 
z"/>
<path fill="#E75A36" opacity="1.000000" stroke="none" 
	d="
M606.918213,157.739639 
	C609.539673,157.200699 611.960449,157.055954 614.869141,156.882019 
	C614.869141,165.861023 614.869141,174.266754 614.869141,183.570999 
	C617.040466,182.144684 618.458862,181.163071 619.924622,180.257996 
	C631.460876,173.134171 644.203491,178.873871 645.250244,192.311630 
	C646.073120,202.875122 645.415405,213.553925 645.415405,224.582092 
	C642.795532,224.582092 640.276062,224.582092 637.186218,224.582092 
	C637.186218,215.352951 637.180054,206.240936 637.188782,197.128922 
	C637.193298,192.383698 637.263184,187.442505 632.112915,185.080322 
	C626.819092,182.652313 621.879761,184.332108 617.817932,187.982391 
	C616.326721,189.322556 615.137207,191.806244 615.083618,193.802475 
	C614.811768,203.929565 614.958374,214.067871 614.958374,224.591171 
	C612.115356,224.591171 609.586792,224.591171 606.717407,224.591171 
	C606.717407,202.356720 606.717407,180.245270 606.918213,157.739639 
z"/>
<path fill="#E85D3A" opacity="1.000000" stroke="none" 
	d="
M550.335938,217.772339 
	C554.126648,216.778366 557.790894,211.386963 561.035706,218.653046 
	C554.467163,224.992889 546.496887,226.654724 537.773682,225.031693 
	C529.017273,223.402451 523.775391,217.691071 521.622986,209.239090 
	C519.718262,201.760025 519.936462,194.362671 523.949402,187.474655 
	C528.632263,179.436691 538.293030,175.640823 547.738708,178.038528 
	C556.041199,180.146057 561.240173,187.095993 561.882812,196.485626 
	C562.145203,200.319153 560.996094,201.901779 556.921082,201.798752 
	C547.800598,201.568146 538.670227,201.726593 529.599487,201.726593 
	C527.873108,216.197815 540.066345,221.890518 550.335938,217.772339 
M543.293823,183.709991 
	C533.923767,184.474869 529.639954,188.408646 530.085266,195.980011 
	C537.970886,195.980011 545.862366,195.980011 553.737061,195.980011 
	C554.115234,188.954559 551.134033,185.239273 543.293823,183.709991 
z"/>
<path fill="#E85D3A" opacity="1.000000" stroke="none" 
	d="
M669.500488,216.768448 
	C676.025696,220.444977 682.114868,219.421158 687.844177,216.038635 
	C691.342346,213.973282 693.349243,214.730927 694.826965,218.193497 
	C686.088074,228.918015 666.134888,228.125900 658.839722,216.434708 
	C653.039246,207.138702 652.747131,197.150131 658.023193,187.458710 
	C662.459900,179.308990 672.363708,175.630585 681.787109,178.050354 
	C690.232056,180.218857 695.577576,187.567551 695.902039,197.039108 
	C696.018982,200.452759 694.910950,201.840668 691.367554,201.779434 
	C682.079834,201.619003 672.787537,201.725311 663.129700,201.725311 
	C662.893494,207.961349 664.513489,212.862457 669.500488,216.768448 
M682.133362,184.854431 
	C671.918274,181.455460 663.637085,186.479355 664.047241,195.986816 
	C671.942017,195.986816 679.841980,195.986816 687.885193,195.986816 
	C688.489075,191.118774 686.412415,187.825073 682.133362,184.854431 
z"/>
<path fill="#E75A36" opacity="1.000000" stroke="none" 
	d="
M404.297913,222.818665 
	C390.824249,214.925354 391.230988,194.273224 398.371246,185.406723 
	C403.933624,178.499588 411.355530,176.579636 419.801941,177.772095 
	C427.930450,178.919678 433.966248,183.271072 436.161285,191.149719 
	C437.590027,196.277939 438.241486,202.061508 437.459351,207.284683 
	C435.103394,223.018250 420.274567,229.846359 404.297913,222.818665 
M404.411133,212.841370 
	C408.399750,218.265549 413.390533,220.242172 419.528259,218.719833 
	C425.531464,217.230865 428.378632,212.749573 428.875641,207.148514 
	C429.292633,202.448608 429.134186,197.478485 428.035156,192.915939 
	C426.487091,186.489014 422.058105,183.852432 415.419769,183.998016 
	C409.118805,184.136230 404.786285,187.423950 403.110779,193.613068 
	C401.418671,199.863480 401.502411,206.081558 404.411133,212.841370 
z"/>
<path fill="#E75833" opacity="1.000000" stroke="none" 
	d="
M736.446350,178.598526 
	C738.933777,178.286087 741.081543,178.286087 743.650269,178.286087 
	C743.650269,193.683075 743.650269,209.027420 743.650269,224.370239 
	C737.844360,225.445236 737.844360,225.445236 735.938110,219.796219 
	C732.334839,221.569641 728.878662,224.027847 725.044006,225.012817 
	C714.499634,227.721283 706.055298,221.977264 705.376709,211.160294 
	C704.702881,200.419571 705.229248,189.603577 705.229248,178.463364 
	C707.840881,178.463364 710.242493,178.463364 713.486755,178.463364 
	C713.486755,180.765396 713.480835,183.169510 713.487793,185.573593 
	C713.510925,193.556625 713.280518,201.551468 713.644287,209.519073 
	C713.950073,216.218811 717.653809,219.309998 723.928528,218.997543 
	C730.754761,218.657593 735.792786,214.138153 735.842102,208.325958 
	C735.925354,198.520920 736.017944,188.715958 736.446350,178.598526 
z"/>
<path fill="#E75B37" opacity="1.000000" stroke="none" 
	d="
M756.922485,184.151917 
	C764.664490,175.554169 776.932373,175.095276 785.763489,182.873856 
	C784.743225,186.323563 783.296204,187.489380 779.307495,185.797653 
	C775.979980,184.386368 771.858948,183.942001 768.267151,184.416092 
	C766.292419,184.676727 763.509888,187.567596 763.255310,189.550323 
	C763.019714,191.386093 765.220093,194.385284 767.139160,195.463242 
	C770.715698,197.472168 774.899597,198.374557 778.770203,199.891785 
	C783.237549,201.642944 786.548767,204.578125 786.881592,209.682480 
	C787.244751,215.251877 785.151794,219.792923 780.333130,222.838364 
	C772.842163,227.572723 762.002075,226.476288 754.259949,220.263580 
	C755.942078,215.034042 756.451538,215.281036 761.481445,217.154083 
	C765.314087,218.581223 769.824341,219.139877 773.860657,218.653595 
	C775.782532,218.422028 778.352600,215.008759 778.677307,212.755432 
	C778.943604,210.907974 776.784424,207.846664 774.878052,206.740128 
	C771.484009,204.770020 767.421021,203.988327 763.722046,202.500275 
	C755.171265,199.060394 752.882812,193.051849 756.922485,184.151917 
z"/>
<path fill="#E75833" opacity="1.000000" stroke="none" 
	d="
M570.330566,185.062683 
	C569.109558,183.873093 568.301636,182.692810 567.493713,181.512512 
	C568.489502,180.851471 569.493408,179.615112 570.479614,179.629105 
	C574.719482,179.689301 575.754578,177.242233 575.919800,173.672455 
	C576.019470,171.519394 576.649475,169.384766 576.684143,167.236099 
	C576.755920,162.786301 579.270142,162.542587 583.094238,163.365662 
	C583.094238,168.390060 583.094238,173.324646 583.094238,178.750549 
	C587.608887,178.750549 591.685303,178.750549 596.361206,178.750549 
	C596.481018,180.918167 596.575073,182.619507 596.707520,185.016846 
	C592.138367,185.016846 587.924194,185.016846 583.205444,185.016846 
	C583.205444,195.108688 582.999695,204.555115 583.299866,213.985443 
	C583.432495,218.152756 586.976501,220.147141 590.866455,218.146622 
	C594.921509,216.061157 596.202454,217.852966 597.198547,221.162231 
	C592.792847,225.463028 586.234253,226.983704 581.172119,224.724457 
	C575.737183,222.298798 574.852966,217.511200 574.901733,212.223740 
	C574.972351,204.565857 574.768127,196.903061 574.967834,189.249847 
	C575.052979,185.989197 574.038086,184.563873 570.330566,185.062683 
z"/>
<path fill="#E75934" opacity="1.000000" stroke="none" 
	d="
M368.032104,210.001968 
	C368.032104,215.118622 368.032104,219.737518 368.032104,224.656891 
	C365.192078,224.656891 362.805969,224.656891 360.116882,224.656891 
	C360.116882,209.279984 360.116882,194.066513 360.116882,178.774384 
	C367.118103,175.855774 367.024628,181.360626 367.647034,184.628586 
	C371.633759,182.255585 375.358978,178.733353 379.654175,177.780609 
	C386.481750,176.266129 390.239868,178.190491 386.348297,186.122375 
	C384.913635,185.976288 383.309998,185.777267 381.700562,185.655228 
	C373.997986,185.071228 368.160919,190.340393 368.036133,198.035690 
	C367.974152,201.857544 368.029694,205.681305 368.032104,210.001968 
z"/>
<path fill="#FFFDFD" opacity="1.000000" stroke="none" 
	d="
M91.468056,225.294739 
	C89.975143,224.902679 88.563828,224.819687 87.938812,224.075928 
	C80.737656,215.506729 74.286285,206.470535 70.743813,194.668320 
	C82.963211,197.277161 94.578941,199.757126 106.919441,202.391830 
	C106.278084,201.045334 106.059784,200.328476 105.644760,199.753647 
	C95.983887,186.373047 93.906219,171.713577 98.491028,156.051849 
	C100.312561,149.829514 102.590004,143.739410 104.702194,137.603668 
	C107.847679,128.466263 111.301170,119.384354 108.728195,109.301254 
	C116.337799,111.428505 119.720810,119.527122 122.667076,142.772141 
	C124.095352,140.295349 125.165436,138.794769 125.880890,137.140778 
	C130.171860,127.220894 132.037140,116.798004 132.260269,106.025284 
	C132.419785,98.323883 134.498917,91.185257 139.514236,85.211296 
	C141.079788,83.346512 143.335831,82.061401 145.805038,80.873405 
	C143.049515,89.162872 145.770142,96.341454 148.759033,103.426384 
	C154.422028,116.850174 159.178696,130.476547 159.289413,145.297272 
	C159.300156,146.734894 159.798035,148.168869 160.492523,149.657852 
	C163.320557,132.858658 163.677795,115.360306 175.515152,101.262939 
	C172.345505,116.823372 180.031235,129.143066 186.336594,142.135345 
	C195.783539,161.600830 196.720200,181.207764 183.935699,199.996628 
	C183.667557,200.390686 183.524292,200.875092 183.359512,201.330658 
	C183.312714,201.460007 183.395905,201.636353 183.474228,202.150818 
	C195.950378,199.697281 208.421738,197.244690 221.652359,194.642776 
	C218.069901,206.459061 212.221252,215.821304 204.413620,223.940872 
	C203.304428,225.094360 200.773636,225.241638 198.899567,225.245407 
	C163.238129,225.317230 127.576485,225.297562 91.468056,225.294739 
z"/>
<path fill="#FEFCFB" opacity="1.000000" stroke="none" 
	d="
M178.000000,236.086990 
	C186.648727,236.087006 194.797440,236.087006 203.370178,236.087006 
	C203.370178,243.025208 203.370178,249.713577 203.370178,256.694519 
	C165.363495,256.694519 127.479759,256.694519 89.158447,256.694519 
	C89.158447,250.023895 89.158447,243.343460 89.158447,236.086975 
	C118.665474,236.086975 148.082733,236.086975 178.000000,236.086990 
z"/>
<path fill="#FEFAF9" opacity="1.000000" stroke="none" 
	d="
M149.000061,266.385559 
	C159.800232,266.385742 170.100388,266.385742 181.022079,266.385742 
	C180.638596,276.240723 176.197464,283.338409 168.661926,288.297699 
	C155.287170,297.099854 141.134384,297.640656 126.981064,290.313965 
	C117.737610,285.528961 112.049797,277.965698 111.208115,266.385376 
	C123.979050,266.385376 136.239563,266.385376 149.000061,266.385559 
z"/>
<path fill="#FFFCFC" opacity="1.000000" stroke="none" 
	d="
M325.714691,165.962402 
	C336.476837,166.733612 341.802185,172.176453 340.764313,180.876022 
	C339.568024,190.903564 330.431335,195.069382 314.976379,192.450821 
	C314.976379,183.916595 314.976379,175.326752 314.976379,165.959702 
	C318.401611,165.959702 321.827820,165.959702 325.714691,165.962402 
z"/>
<path fill="#FEFBFA" opacity="1.000000" stroke="none" 
	d="
M543.720154,183.728241 
	C551.134033,185.239273 554.115234,188.954559 553.737061,195.980011 
	C545.862366,195.980011 537.970886,195.980011 530.085266,195.980011 
	C529.639954,188.408646 533.923767,184.474869 543.720154,183.728241 
z"/>
<path fill="#FEFBFA" opacity="1.000000" stroke="none" 
	d="
M682.488403,185.040771 
	C686.412415,187.825073 688.489075,191.118774 687.885193,195.986816 
	C679.841980,195.986816 671.942017,195.986816 664.047241,195.986816 
	C663.637085,186.479355 671.918274,181.455460 682.488403,185.040771 
z"/>
<path fill="#FEFBFA" opacity="1.000000" stroke="none" 
	d="
M404.237366,212.491852 
	C401.502411,206.081558 401.418671,199.863480 403.110779,193.613068 
	C404.786285,187.423950 409.118805,184.136230 415.419769,183.998016 
	C422.058105,183.852432 426.487091,186.489014 428.035156,192.915939 
	C429.134186,197.478485 429.292633,202.448608 428.875641,207.148514 
	C428.378632,212.749573 425.531464,217.230865 419.528259,218.719833 
	C413.390533,220.242172 408.399750,218.265549 404.237366,212.491852 
z"/>
</svg>