<?xml version="1.0" encoding="UTF-8" standalone="no"?>
<!-- Created with Inkscape (http://www.inkscape.org/) -->

<svg
   version="1.1"
   id="svg2"
   width="3570.72"
   height="2666.6667"
   viewBox="0 0 3570.72 2666.6667"
   sodipodi:docname="vecteezy_man-and-a-woman-stood-over-their-heads-questions-and-answers_34346726.eps"
   xmlns:inkscape="http://www.inkscape.org/namespaces/inkscape"
   xmlns:sodipodi="http://sodipodi.sourceforge.net/DTD/sodipodi-0.dtd"
   xmlns="http://www.w3.org/2000/svg"
   xmlns:svg="http://www.w3.org/2000/svg">
  <defs
     id="defs6" />
  <sodipodi:namedview
     id="namedview4"
     pagecolor="#ffffff"
     bordercolor="#000000"
     borderopacity="0.25"
     inkscape:showpageshadow="2"
     inkscape:pageopacity="0.0"
     inkscape:pagecheckerboard="0"
     inkscape:deskcolor="#d1d1d1" />
  <g
     id="g8"
     inkscape:groupmode="layer"
     inkscape:label="ink_ext_XXXXXX"
     transform="matrix(1.3333333,0,0,-1.3333333,0,2666.6667)">
    <g
       id="g10"
       transform="scale(0.1)">
      <path
         d="M 0,0 H 26780.4 V 20000 H 0 Z"
         style="fill:#ffffff;fill-opacity:1;fill-rule:nonzero;stroke:none"
         id="path12" />
      <path
         d="m 16113,2740.5 h -4757 c -272.5,12.7 -531.2,29.8 -776.7,51.1 -5.9,37.1 -18,72.1 -35.3,104 3.2,5.8 5.5,12.1 6.9,18.8 4.9,23.5 -2.5,46.8 -19.8,62.4 -27.8,25.9 -58.3,50.5 -98.9,79.7 l -0.4,0.2 c -77.4,53.9 -164.4,101 -266,143.8 l -0.6,0.3 c -63.6,25.2 -126.7,47.1 -189.43,65.7 l -14.38,163.7 c 76.61,17 153.61,32.4 229.81,44.4 28,4.5 74.5,10.5 108.6,14.8 l 10.3,1.1 c 16.7,1.7 34,3.5 52.2,6.3 22.4,3.1 41.4,17.5 50.9,38.7 9.6,21.4 7.7,45.4 -5.2,64.3 -68.1,98.3 -161.7,179.5 -279.2,242.4 l 21.9,2025.8 -635.84,1771 c 146.2,-18.8 232.13,-48.4 232.13,-48.4 36.95,324 6.47,1067.9 -34.6,1746.8 650.81,-1091.2 1820.61,-1055.6 2184.41,-1232.9 208.5,-101.6 423.9,-130.3 600.7,-130.3 114,0 212,11.9 281.7,23.9 66.9,11.5 118.9,64.6 129.4,131.6 l 7.5,47.6 c 33.1,0 61.1,24.3 65.9,57.1 l 18.7,129.7 c 61.6,0 111.6,49.9 111.6,111.5 v 12.2 c 0,39.6 -21,76.2 -55.2,96.3 l -32.5,19 v 65.3 c 0,57.2 -37,107.7 -91.5,124.9 l -451,142.7 c 0,0 539.7,283.8 219.2,283.8 -320.4,0 -742.1,-455.4 -742.1,-455.4 -1110.4,0 -1359.5,1145.2 -1431.8,1736.1 v 0 0 0 l -17.9,177 c 52.7,12 80.1,22.2 80.1,22.2 -8.4,60.2 -18.7,117.9 -30.8,173.4 l -2.4,12 c -0.1,0 -0.1,0 -0.2,0 -255.8,1141.3 -1267.86,1282.8 -1687.99,1291.3 -0.02,0.4 -0.05,0.8 -0.08,1.2 l -13.52,-1 c -10.19,0.2 -20,0.2 -29.41,0.2 -88.34,0 -141.34,-5.6 -141.34,-5.6 0,0 2.09,-9.8 4.2,-26.6 -16.49,4.6 -33.83,9 -52.03,13.3 4.58,8.7 7.06,13.3 7.06,13.3 0,0 282.39,706.1 187.87,1093.3 26.75,259.2 33.97,733.7 -271.36,733.7 -84.05,0 -191.71,-35.9 -329.26,-122.1 0,0 -383.73,156.1 -726.86,156.1 -251.96,0 -482.03,-84.2 -522.23,-376.3 -1.58,-11.4 -2.98,-22.8 -4.48,-34 -70.08,-527.7 -337.56,-1008.9 -746.52,-1349.7 -102.82,-85.6 -192.35,-209 -225.19,-385.8 -31.65,-170.5 -99.98,-339.3 -176.81,-488.2 -129.13,-250.4 -309.8,-470.1 -525.45,-651.4 -184.4,-154.9 -430.68,-422.5 -373.53,-711.5 1.39,-7.1 2.87,-14.1 4.42,-21 70.53,-312.9 352.43,-526.2 664.66,-526.2 35.81,0 72.03,2.8 108.37,8.6 110.18,17.5 240.21,32.8 359.92,33.2 245.15,-611.7 628.1,-957 1020.07,-1165.9 37.92,-658.7 78.58,-1186.9 78.58,-1186.9 64.57,0 134.71,6.8 209.05,18.9 l 136.29,-1725.1 -31.8,-113.1 c -69.22,87.3 -144.25,161 -227.15,223.2 l -0.38,0.3 c -18.46,13.4 -40.13,20 -61.72,20 -25.94,0 -51.76,-9.5 -71.81,-28.3 -37.97,-35.5 -67.24,-69.7 -88.46,-95.6 -47.66,-57.7 -89.91,-118.8 -129.24,-186.7 -122.2,-213.2 -187.53,-452.2 -174.73,-639.9 1.28,-16.2 3.2,-32.3 5.65,-48.3 -1.64,3.7 -3.3,7.4 -4.95,11.1 -42.94,95.6 -96.42,182 -158.93,257 -39.15,47 -87.21,95.9 -142.79,145.2 -123.28,110 -257.6,195.8 -399.24,255.1 l -0.37,0.1 c -102.44,41.4 -188.16,63.5 -277.69,71.9 -2.41,0.2 -4.83,0.3 -7.22,0.3 -15.3,0 -30.06,-4.8 -42.43,-14 -338.36,588.3 -625.22,1254.1 -1013.35,1974.6 -1875.74,3481.8 -2717.11,7891.2 2100.11,8654.9 0,0 377.68,76.8 984.49,76.8 1157.21,0 3147.68,-279.6 4941.38,-1905.3 706.2,-640.1 1467.5,-877.5 2208.2,-877.5 2127,0 4084.6,1957.3 4084.6,1957.3 0,0 805.2,799.6 1855.5,799.6 525.2,0 1111.6,-199.8 1689.6,-799.6 879.1,-912.3 1589.7,-4946.6 411.9,-7910 -461.2,-1160.4 -697.5,-2069.9 -1145.6,-2762.3 -52.2,18.2 -106,32.2 -164.1,42.6 -78.4,14 -159.6,20.8 -241.2,20.8 -249.5,0 -503.8,-63.6 -702.6,-180.7 -90.6,-53.9 -174.8,-118.1 -256,-183.2 37.6,41.2 73.9,83.9 105.5,129 31.7,44 61.5,93.1 93.9,154.6 78,150.6 144.8,315.1 193.2,475.8 13.8,43.9 29.2,99.8 41.1,149.3 7.5,29.4 17,68.9 23.5,113.6 3.5,22 -3.4,44.2 -19,60.7 -14,14.9 -32.9,23 -52.6,23 -2.4,0 -4.8,-0.1 -7.2,-0.3 -89.6,-8.4 -175.3,-30.5 -277.7,-71.9 l -0.4,-0.1 c -141.6,-59.3 -276,-145.1 -399.2,-255.1 -55.6,-49.3 -103.7,-98.2 -142.8,-145.2 -23.3,-28 -45.4,-57.5 -66.1,-88.5 l -212.2,754.8 138.6,1754.3 c 76.1,-4.5 148.1,-7 215.1,-7 0,0 41.6,541 80.5,1215.6 561,299 1103.9,870.6 1268.9,2078.8 1,0.1 2.1,0.2 3.1,0.3 4.8,34.5 8,65.7 8,86.6 v 0 0 0 c 0,0 -0.1,0 -0.2,0 50.7,-1.2 101,-1.8 150.8,-1.8 v 0 0 c 0,0 -14.9,90.8 -57.4,231 l 1,13.9 h -0.1 l -0.9,-13.8 c -135.7,448.2 -553,1400.3 -1666.6,1501.3 l 2.1,13.7 -15.3,-9.5 c -0.1,-0.2 -0.4,-1.2 -1,-3 -58.8,4.9 -119.6,7.5 -182.3,7.5 0,0 -5.6,-21.5 -19.1,-55.8 -124.1,30.1 -239.6,50.8 -346.8,63.9 v 153.5 0 l 5.7,41.7 c 399.4,183.1 330.2,679.9 330.2,679.9 l -6.6,80 c 80.4,99.7 124.3,227.6 117.9,361.7 -19.7,417 -172.6,528.3 -330.3,528.3 -177.3,0 -360.7,-140.7 -367.8,-146.2 7.3,5.7 196.4,155.9 -131.1,155.9 -52.5,0 -118.2,-3.9 -200,-12.8 -602.5,-65.7 -388.5,-859.8 -388.5,-859.8 28.1,84.3 96.2,86.7 104,86.7 0.5,0 0.7,0 0.7,0 -12.7,-73.3 -7,-171.5 -2.9,-220.3 -1.7,-318 81.2,-671.4 446.6,-715.4 l -1.1,-20.7 -6.9,-97.1 c -144.2,-8.7 -262.1,-31.2 -354.2,-56.5 2.2,17.2 4.3,27.2 4.3,27.2 0,0 -54.2,5.8 -144.7,5.8 -9.6,0 -19.7,0 -30.1,-0.2 l -13.9,1 c 0,-0.4 0,-0.8 -0.1,-1.2 -430.2,-8.7 -1466.7,-153.6 -1728.7,-1322.6 -0.1,0.1 -0.2,0.1 -0.2,0.1 l -2.6,-12.9 c -12.4,-56.6 -22.9,-115.5 -31.5,-177 0,0 64.6,-24.1 186.1,-42 l -18.4,-55.7 c 0.3,-0.2 0.7,-0.4 1.1,-0.6 -106.6,-335.8 -705.5,-2059.4 -1765.8,-2059.4 0,0 -431.8,466.4 -760,466.4 -328.2,0 224.5,-290.6 224.5,-290.6 L 13982.5,8764 c -55.8,-17.7 -93.7,-69.4 -93.7,-127.9 v -66.9 l -33.3,-19.5 c -35,-20.5 -56.5,-58.1 -56.5,-98.6 v -12.5 c 0,-63.1 51.2,-114.2 114.3,-114.2 l 19.2,-132.9 c 4.8,-33.5 33.6,-58.4 67.5,-58.4 l 7.6,-48.8 c 10.8,-68.6 64,-122.9 132.5,-134.7 71.5,-12.3 171.8,-24.5 288.5,-24.5 181.1,0 401.7,29.3 615.2,133.4 416.5,203 1864.6,133.6 2448.6,1708.2 -49.7,-757.3 -95.3,-1683.5 -52.5,-2058.9 0,0 75.6,-18.1 203.1,-46.8 l -616.6,-1717.5 14.8,-1360 c -6.3,-1 -12.5,-2 -18.7,-3.1 -61.4,-11.1 -117.8,-26 -172.7,-45.7 -37.8,-12.9 -76,-29.7 -113.5,-49.7 -8,-4.4 -15.1,-10.2 -20.6,-17.1 -11.5,-14.2 -16.6,-32.1 -14.4,-50.4 2.3,-18 11.8,-34.5 26.2,-45.4 39.5,-31.3 76.6,-56.3 115.8,-82.7 8,-5.4 16,-10.8 24.1,-16.3 56.9,-38 116.4,-76.4 178.4,-115.1 l 1.8,-171.5 c -123.1,-2.7 -297,-20.7 -471.7,-86.3 -179.5,-67.3 -316.8,-168.4 -408.2,-300.4 -12.9,-18.9 -14.9,-42.9 -5.3,-64.3 9.6,-21.2 28.6,-35.6 50.9,-38.7 18.3,-2.8 35.6,-4.6 52.3,-6.3 l 10.2,-1.1 c 34.2,-4.3 80.7,-10.3 108.7,-14.8 157,-24.6 317,-63.9 471.7,-101.9 44.4,-10.9 89.7,-22 135.1,-32.8 -188.2,-14 -382.6,-60.5 -580.8,-139.1 l -0.7,-0.3 c -101.6,-42.8 -188.6,-89.9 -265.9,-143.8 l -0.4,-0.2 c -40.6,-29.2 -71.2,-53.8 -98.9,-79.7 -17.3,-15.6 -24.8,-38.9 -19.9,-62.4 4.9,-23.2 21.3,-42.1 43,-49.5 72.2,-27.5 143.8,-47.2 212.9,-66.3 l 12,-3.3 c 55.9,-14.8 112.7,-28.8 169.5,-41.6 -114.1,-4.8 -230.1,-9.3 -349.1,-13.2 m 474.6,52.9 c -22.9,4.4 -45.7,9 -68.3,13.8 -70.3,15.1 -140.9,32 -209.8,50.4 l -11.7,3.2 c -71.1,19.6 -138.2,38.1 -207.7,64.6 l -1.5,0.5 -0.7,3.2 0.5,0.3 c 25.6,24 54.2,47 92.5,74.5 73.5,51.2 156.5,96 253.7,137 233.1,92.4 460.4,139 677.4,139 31.4,0 62.5,-1 93.4,-2.9 l -17.8,-203.4 h -271 c -166,0 -303.7,-121.4 -329,-280.2 m 934.8,24.2 v 153.1 c 83.4,-7.3 166.9,-13.7 250.4,-19.3 l 0.3,-0.3 0.2,0.2 c 47.9,-3.2 95.8,-6.2 143.7,-8.9 l -94.9,-98.6 c -97.4,-9.3 -197.6,-18 -299.7,-26.2 m 318.1,27.9 123.3,94.4 c 123.9,-6.6 247.9,-11.4 371.9,-14.5 l -24.7,-28.7 c -150.6,-18.6 -307,-35.6 -470.5,-51.2 m -8174.03,53.4 c -273.42,41.6 -527.14,89.9 -763.4,144.7 l 113.73,104.7 -139.25,-98.7 c -100.81,23.7 -198.34,48.5 -292.84,74.6 l 17.92,24.9 c 81.51,14.6 162.65,28.3 242.84,40.5 l 0.4,0.1 c 60.07,9.9 120.75,21.9 179.44,33.5 100.32,19.8 204.05,40.3 306.5,50.8 43.5,3.9 87.49,5.9 131.89,5.9 51.74,0 104.08,-2.7 156.93,-7.9 l 45.84,-206.2 v -166.9 m 8691.53,3.6 25.4,21.9 c 41.7,-0.9 83.5,-1.6 125.3,-2.1 -49.5,-6.8 -99.8,-13.4 -150.7,-19.8 m 248.3,33.5 c -152.1,12.6 -304.4,22.5 -456.8,29.8 l -174.6,183 c 100.6,-18.1 201.9,-37.8 303,-59.3 2.2,-0.4 4.5,-0.7 6.7,-0.7 14.5,0 27.6,9.9 31.3,24.5 4.2,16.8 -5.7,34 -22.4,38.8 -163.3,46.9 -325.7,89.4 -482.7,126.4 -77.2,18.6 -155.9,30.2 -234.1,39.3 l 32.1,144.4 c 55.1,3.4 112.1,9.1 170.1,17.9 1.9,-0.6 3.9,-1.2 5.9,-1.9 l 0.2,-0.3 0.3,0.2 c 45.7,-14.6 91.5,-29 137.3,-43.1 l -170.9,-107.9 215.8,94.3 c 118.7,-36.1 237.9,-70.5 357.6,-103.1 l -174.7,-124.5 220.7,112.1 c 123.5,-33.3 247.4,-64.8 371.7,-94.4 v 0 0 c -194.8,68.1 -391.1,131.6 -588.8,190.6 l -130.1,227 c 228.3,-101.1 460.6,-223.8 692.1,-365.8 49.9,-30.8 99.7,-62.2 148,-93.3 5.4,-3.5 11.5,-5.2 17.4,-5.2 10.4,0 20.5,5 26.7,14.1 9.9,14.5 6.4,34.2 -7.8,44.4 -137.2,98.5 -278.6,192.7 -420.3,279.8 l -25.1,15.2 215.1,32 c 106.6,-70.6 214.1,-139.7 322.7,-207.2 v 0 0 c -163.2,126.2 -329.3,248.7 -498.2,367.2 l -51.7,257.2 13.7,-230.6 c -83.3,58 -167.2,115 -251.7,171 l -112,272.2 64.9,-241.1 c -61.8,40.7 -124,80.8 -186.5,120.3 l 44.6,252.7 c 80.9,-55.6 158.1,-118.3 233.3,-179.5 37.9,-30.8 77.1,-62.7 116.2,-93.2 39.5,-31.1 79.3,-63.7 121.6,-99.7 6,-5.2 13.5,-7.8 20.9,-7.8 8.1,0 16.1,3 22.3,9 11.9,11.4 13.3,30 3.2,43.1 -45.4,58.5 -87.2,108.5 -127.8,152.8 -20.3,22 -41.5,44.2 -62,65.7 -61.2,64.1 -124.5,130.4 -174,201 l -0.3,0.4 c -29.9,41.5 -58.3,88.2 -89.3,147 -5.5,10.6 -10.9,21.3 -16.3,32 l 105.3,595.8 c 108.7,-53.8 212.5,-124.6 309.4,-210.9 53.2,-47.3 99,-93.9 136.1,-138.4 58.8,-70.5 109.2,-151.9 149.7,-242.2 24.5,-54.3 47.9,-112 70.6,-167.9 16.3,-40.2 33.1,-81.7 50.3,-121.9 5.2,-12.1 17.1,-19.6 29.7,-19.6 3.1,0 6.2,0.5 9.3,1.4 15.7,4.7 25.4,20.5 22.4,36.6 -3.5,19.9 -6.8,36.3 -10.1,51.8 -4.1,19.5 -8.5,39.4 -12.8,58.6 -21,93.9 -42.8,191.1 -37.6,285.1 1.4,26.9 4.6,53.6 9.3,80.2 l 589.6,-1294.6 c 0,0 43.6,-9.4 116.8,-18.9 -41.7,-77.3 -83,-154.8 -123.7,-232.6 47.7,76.5 94.9,153.2 141.7,230.3 25.2,-3.1 53.4,-6.1 84.1,-8.7 l 35,-125.3 c -27.6,-23.2 -55.1,-46.4 -82.6,-69.7 28.3,20.6 56.5,41.2 84.8,61.9 l 30.9,-110.8 c -13.8,-10.4 -17.1,-29.8 -7.4,-44.1 2,-2.9 4.4,-5.4 7,-7.4 -336.3,-93.4 -721,-171.6 -1165.1,-235.5 m -503.2,32 c -101.3,4.5 -202.7,7.9 -304.1,10.1 l -240.1,170.2 183.7,-169.1 c -73.4,1.3 -146.8,1.9 -220.2,2 v 92.4 l 33,148.6 c 57.1,-11.3 116.1,-22.9 174.4,-32.5 l 0.4,-0.1 c 80.2,-12.2 161.3,-25.9 242.8,-40.5 l 130.1,-181.1 m -7802.3,95 c -14,1.8 -28.3,2.8 -42.8,2.8 h -264.61 l -11.54,131.4 c 52.75,-16.3 105.85,-35.1 159.25,-56.3 58,-24.4 110.8,-50.2 159.7,-77.9 m -1721.96,62.8 c -13.91,3.8 -27.3,7.6 -41.07,11.5 21.02,3.9 42.04,7.7 63.03,11.5 l -21.96,-23 m -191.75,55.8 c -99.8,30.7 -196.06,62.7 -288.78,96.1 35.45,9.3 70.86,18.6 106.24,28.2 l 220.76,-112.1 -174.77,124.5 c 119.71,32.6 238.94,67 357.67,103.1 l 215.81,-94.3 -170.97,107.9 c 45.86,14.1 91.63,28.5 137.33,43.1 l 0.29,-0.2 0.2,0.3 c 115.14,36.8 229.79,75.1 343.88,115 -107.41,-25.5 -214.47,-52.5 -321.19,-80.7 l 137.91,208.1 -192.39,-222.7 c -97.95,-26.4 -195.6,-53.9 -292.91,-82.6 l 85.75,213.9 c 28.75,12.7 57.47,25.2 86.08,37.3 41.82,17.8 84.15,36.4 125.09,54.5 157.59,69.6 318.82,140.7 488.16,177.1 l 74.02,-419.1 c 87.53,-18.3 174.4,-28.7 256.84,-33.8 l 8.35,-37.6 c -43.36,-10.4 -86.83,-20.6 -129.69,-30 -108.76,-24.5 -222.91,-35.7 -333.32,-46.5 -119.4,-11.7 -242.86,-23.7 -362.62,-52.6 -123.31,-29 -249.94,-61.5 -377.74,-96.9 m 11726.61,95.9 -12.2,72.1 c 212.5,122.9 424.9,229.2 633.3,316.8 41.9,17.9 84.2,36.5 125.2,54.6 115.8,51.1 233.5,103.1 355,141.5 -285.9,-232.4 -641.4,-426.5 -1101.3,-585 m -12049.32,12.6 c -33.13,12.1 -66.06,24.6 -98.33,37.1 196.18,115.2 392.42,216.3 585.75,301.9 l -130.14,-227 c -119.61,-35.7 -238.71,-73 -357.28,-112 m 1541.54,48 c -7.18,0.7 -14.35,1.2 -21.5,1.8 6.68,1.6 13.36,3.2 20.04,4.8 l 1.46,-6.6 m 7606.68,20.9 c -32.9,5.2 -65.5,11.3 -97.7,18.6 -80.6,17.8 -163.3,38.1 -243.4,57.8 -156,38.3 -317.3,77.9 -476.9,102.9 -28.9,4.6 -76.4,10.8 -111.1,15.1 l -0.5,0.1 -10.7,1.1 c -16,1.7 -32.6,3.4 -49.5,6 l -0.8,0.2 -1.1,2.5 c 83.8,120.9 210.8,214 377.7,276.5 166,62.3 331.9,79.6 449.7,82.2 l 4.6,-425.2 c 0,0 64.9,-14 169.6,-25.2 l -9.9,-112.6 m -9335.9,3.7 c -53.26,21.8 -105.58,44.2 -156.46,66.9 62.15,39.7 123.96,79.9 185.45,120.7 l 215.11,-32 -25.16,-15.2 c -73.24,-45 -146.4,-91.9 -218.94,-140.4 m 10232.8,52.6 c -88.8,26.2 -177.9,51.3 -267.2,75.6 9.8,1.9 19.7,3.8 29.5,5.9 l 32.5,184 c 11.2,-4.8 22.3,-9.6 33.4,-14.3 28.6,-12.1 57.3,-24.6 86.1,-37.3 l 85.7,-213.9 m -10404.43,21.1 c -18.86,8.5 -37.57,17.1 -56.12,25.7 63.85,8.7 101.36,16.9 101.36,16.9 l 801.45,1759.4 c 65.52,21.8 125.1,34.6 186.51,40.3 0.21,0 0.43,0 0.63,0 2.82,0 4.92,-1.8 5.72,-2.7 0.85,-0.9 2.8,-3.4 2.29,-6.4 l -0.07,-0.5 c -6.15,-42 -15.14,-79.5 -22.29,-107.5 l -0.11,-0.4 c -11.41,-47.5 -26.75,-103.3 -40.15,-146 -47.32,-156.9 -112.55,-317.6 -188.54,-464.4 -30.97,-58.8 -59.36,-105.5 -89.32,-147 l -0.27,-0.4 c -49.48,-70.6 -112.77,-136.9 -173.98,-201 -20.51,-21.5 -41.71,-43.7 -62.01,-65.7 -40.59,-44.3 -82.4,-94.3 -127.81,-152.8 -10.13,-13.1 -8.74,-31.7 3.22,-43.1 6.22,-6 14.24,-9 22.28,-9 7.44,0 14.88,2.6 20.92,7.8 42.25,36 82.06,68.6 121.61,99.7 39.09,30.5 78.29,62.4 116.2,93.2 100.29,81.5 203.99,165.9 315.51,232.3 143.77,84.7 318.27,140 498.17,161.6 l 84.12,-476.3 c -31.17,-17.9 -62.79,-35.9 -94.85,-53.9 -57.24,-31.8 -110.52,-58.8 -162.92,-82.4 -67.81,-30.7 -140.3,-56.4 -210.41,-81.2 -46.68,-16.5 -94.95,-33.6 -142.04,-52.2 -171.43,-67.6 -330.18,-163.5 -483.71,-256.3 l -4.51,-2.7 -180.57,55.2 c 103.21,68.9 205.42,139.3 306.64,211 l 234.55,-21.1 -196.33,48.2 c 39.04,27.9 77.89,56.1 116.62,84.4 l 0.33,-0.1 0.1,0.4 c 97.57,71.3 194.2,143.9 289.77,218 -93.79,-58.3 -186.82,-117.8 -279.09,-178.4 l 64.91,241.1 -111.98,-272.2 c -84.55,-56 -168.47,-113 -251.7,-171 l 13.65,230.6 -51.69,-257.2 c -126.94,-89.1 -252.33,-180.4 -376.09,-273.9 m 12381.63,0.3 -4.8,28.5 c 19.4,1.6 39,3.5 58.7,5.7 -18,-11.3 -35.9,-22.7 -53.9,-34.2 m -1637,84.7 -4.5,2.7 c -153.5,92.8 -312.3,188.7 -483.7,256.3 -12.3,4.9 -24.6,9.6 -37.1,14.3 l 44.8,253.2 c 65.9,-50.1 132.3,-99.6 199.2,-148.5 l 0.1,-0.4 0.3,0.1 c 38.7,-28.3 77.6,-56.5 116.6,-84.4 l -196.3,-48.2 234.6,21.1 c 101.2,-71.7 203.4,-142.1 306.6,-211 l -180.6,-55.2 m -8324.3,7.6 2.6,239.7 c 94.5,-55.3 170.4,-124 226.7,-205.4 l -1,-2.5 -0.9,-0.2 c -16.8,-2.6 -33.4,-4.3 -49.5,-6 l -10.6,-1.1 -0.6,-0.1 c -34.6,-4.3 -82.1,-10.5 -111,-15.1 -18.6,-2.9 -37.1,-6 -55.7,-9.3 m 10160.7,30.6 -43.1,153.6 c 12.4,9.6 24.7,19.3 37.1,28.9 l 291.9,16.4 -245.4,19.8 c 100.8,79 200.8,159 300.2,239.7 l 337,77.7 -281.5,-32.7 c 108,88.2 215.2,177.4 321.5,267.5 -123.4,-89.6 -245.9,-180.7 -367.6,-272.8 l -0.5,-0.1 -0.2,-0.5 c -48.3,-36.6 -96.4,-73.2 -144.4,-110.2 l 46.3,213.9 -93.2,-250.4 c -70.5,-54.5 -140.6,-109.5 -210.3,-164.9 l -53.5,190.4 c 1.8,1 3.6,2.2 5.3,3.7 42.2,36 82,68.7 121.7,99.8 39,30.4 78.2,62.3 116.1,93.1 100.3,81.5 204,165.8 315.6,232.4 189,111.3 431.2,171.8 669.1,171.8 78,0 155.5,-6.5 230.6,-19.9 48.9,-8.7 94.5,-20.2 138.6,-34.7 -69.8,-103.4 -144.7,-201.7 -226.4,-295.2 -102.1,-62.9 -210.6,-126.7 -324.7,-190.8 -57.1,-31.7 -110.4,-58.7 -162.7,-82.3 -67.9,-30.7 -140.4,-56.4 -210.5,-81.2 -46.7,-16.5 -95,-33.6 -142.1,-52.2 -149.6,-59 -289.6,-139.6 -424.9,-220.8 M 7042.25,3804.7 c -586.62,399 -975.63,894.5 -1310.43,1465.2 -0.3,2.9 1.52,5.2 2.35,6.1 0.8,0.9 2.84,2.7 5.86,2.7 0.24,0 0.49,0 0.75,0 83.21,-7.8 163.28,-28.6 259.56,-67.4 134.96,-56.5 263.16,-138.5 381.09,-243.7 53.23,-47.2 99.02,-93.8 136.13,-138.3 58.76,-70.5 109.1,-151.9 149.66,-242.2 24.47,-54.2 47.9,-112 70.55,-167.9 25.91,-63.8 52.69,-129.9 81.56,-192.1 20.51,-44.4 41.13,-90.5 61.31,-136.9 5.24,-12.1 17.06,-19.4 29.58,-19.4 3.36,0 6.77,0.5 10.12,1.6 15.84,5.2 25.08,21.7 21.3,37.9 l -3.23,13.8 c -1.7,7.2 -3.38,14.4 -5.04,21.6 -15.63,74.5 -41.7,147.5 -66.92,218.1 -35.48,99.3 -68.99,193.1 -76.78,291.8 -11.94,175 50.24,400.5 166.29,602.9 37.47,64.7 77.74,122.9 123.15,177.9 20.01,24.4 47.5,56.6 82.71,89.5 7.74,7.2 17.72,10.9 27.73,10.9 8.26,0 16.54,-2.5 23.61,-7.6 89.87,-67.5 170.19,-149.4 243.86,-249 l -198.13,-704.8 c -3.76,36.3 -7.65,72.5 -11.66,108.8 0.34,-48.2 0.89,-96.3 1.66,-144.4 l -57.88,-205.9 -152.57,160.8 142.9,-195.2 -99.35,-353.4 -44.99,31.3 42.68,-39.6 -37.43,-133.1 M 9170.11,3945 c 22.29,12.5 44.35,25.1 66.21,37.6 l 3.68,-20.8 c -23.48,-5 -46.77,-10.7 -69.89,-16.8 m 12096.89,0 c 39.8,22.4 78.9,44.8 117.4,67.1 -18.4,-17.7 -36.8,-34.9 -55.9,-52.1 -20.6,-4.6 -41.1,-9.6 -61.5,-15 m -1107.4,64.8 -75.1,267 c 4.5,8.2 9,16.3 13.5,24.5 l 283,198.2 -248.6,-135.8 c 67,122.3 132.8,245.1 197.5,368.6 -80.8,-129.5 -160.2,-259.9 -238.4,-391 l -0.4,-0.2 v -0.3 c -5.5,-9.4 -11.1,-18.7 -16.7,-28.1 l -108.4,385.7 c 27.8,46.9 58.6,90.7 92.1,130.9 37.1,44.5 82.9,91.1 136.1,138.3 118,105.2 246.2,187.2 381.1,243.7 96.3,38.8 176.4,59.6 259.6,67.4 0.3,0 0.5,0 0.8,0 3,0 5,-1.8 5.8,-2.7 0.9,-0.9 2.8,-3.4 2.3,-6.4 l -0.1,-0.5 c -6.1,-41.9 -15.1,-79.5 -22.3,-107.5 l -0.1,-0.4 c -11.4,-47.5 -26.7,-103.3 -40,-145.6 -47.4,-157.3 -112.7,-318 -188.8,-465 -30.8,-58.6 -59.2,-105.3 -89.2,-146.8 l -0.2,-0.4 c -49.5,-70.6 -112.8,-136.9 -174,-201 -20.5,-21.5 -41.7,-43.7 -62,-65.6 -34.5,-37.7 -69.8,-79.4 -107.5,-127 m -3114.7,224.9 c -48.8,30.9 -96,61.5 -141.5,91.9 -7.9,5.4 -16,10.8 -24,16.2 -38.3,25.9 -74.5,50.3 -112.2,80.1 l -0.7,0.6 -1.2,2 c -0.1,1 0.4,1.6 0.5,1.8 l 1.1,0.9 c 34.4,18.4 69.4,33.7 103.9,45.5 l 0.5,0.2 c 51.6,18.5 104.7,32.6 162.5,42.9 2.7,0.5 5.4,1 8.1,1.5 l 3,-283.6 m 1177.3,2.5 c -62.4,50 -126.6,99.6 -194.1,144.3 l 17.3,97.8 c 24,-42.9 47.2,-79.5 71.4,-113.1 31.6,-45.1 67.8,-87.8 105.4,-129 m -9868.77,0 c 37.59,41.2 73.84,83.9 105.43,129 31.73,44 61.59,93.1 94.06,154.8 77.9,150.4 144.69,314.9 193.02,475.3 13.89,44.2 29.27,100.1 41.16,149.5 7.52,29.5 16.96,69 23.52,113.7 3.51,22 -3.43,44.2 -19.06,60.7 -13.99,14.9 -32.84,23.1 -52.4,23.1 -2.37,0 -4.75,-0.2 -7.14,-0.4 -48.31,-4.5 -95.46,-13 -144.66,-26.3 l 107.76,236.6 77.81,451.1 167.96,-348.9 188.18,-1065.5 c -187.62,-23.1 -369.56,-81.1 -519.85,-169.6 -90.4,-53.9 -174.6,-118 -255.79,-183.1 m 10470.97,373.1 c -0.5,1.1 -1,2.2 -1.5,3.3 -42.9,95.6 -96.4,182 -158.9,257 -39.1,47 -87.2,95.9 -142.8,145.3 -106.2,94.6 -220.5,171.4 -340.7,228.7 l 85,481.2 172,357.4 79.7,-462.1 333.9,-732.9 c -15.7,-56.3 -26.4,-114.6 -29.7,-173.4 -1.9,-35.1 -0.5,-69.9 3,-104.5 m 233.2,9501.3 v 0 0"
         style="fill:#e5f4ff;fill-opacity:1;fill-rule:nonzero;stroke:none"
         id="path14" />
      <path
         d="m 7537.55,3697.6 -202.81,-179.9 c -6.24,156.7 -14.73,313.2 -25.38,469.6 l 177.29,238.9 -181.34,-179.9 c -4.33,60.5 -9.05,120.9 -14.04,181.3 l 0.27,0.3 -0.33,0.4 c -12.58,152.1 -27.19,304.1 -43.98,455.9 0.98,-139.5 3.77,-278.9 8.27,-418.3 l -217.06,228.8 219.57,-300 c 4.7,-128.1 10.84,-256.1 18.48,-384 L 7037,3977.4 7280.13,3752.2 c 16.46,-260.1 38.94,-519.8 67.5,-778.9 -1.21,161.5 -4.81,322.9 -10.66,484.3 l 200.58,240"
         style="fill:#b2cce8;fill-opacity:1;fill-rule:nonzero;stroke:none"
         id="path16" />
      <path
         d="m 6890.79,3946.7 -51.51,-222.3 c -76.06,137 -153.56,273.3 -232.41,408.7 l 7.51,266.9 -37.31,-215.7 c -30.62,52.3 -61.49,104.4 -92.53,156.5 l 0.03,0.3 -0.37,0.2 c -78.19,131.2 -157.66,261.5 -238.46,391 64.69,-123.5 130.57,-246.3 197.56,-368.6 l -248.6,135.8 282.97,-198.2 c 61.91,-112.2 124.75,-223.9 188.55,-335 l -234.87,73.7 264.16,-124.5 c 130.32,-225.7 264.45,-449.2 402.3,-670.2 -74.95,142.9 -151.47,285 -229.44,426.4 l 22.42,275"
         style="fill:#b2cce8;fill-opacity:1;fill-rule:nonzero;stroke:none"
         id="path18" />
      <path
         d="m 6464.55,3844.4 35.71,-225.8 c -121.92,98.5 -244.82,195.8 -368.75,291.8 l -93.24,250.4 46.34,-213.9 c -47.98,37 -96.18,73.6 -144.45,110.2 l -0.15,0.5 -0.55,0.1 c -121.65,92.1 -244.14,183.2 -367.58,272.8 106.29,-90.1 213.48,-179.3 321.46,-267.5 l -281.45,32.7 337,-77.7 c 99.41,-80.7 199.43,-160.7 300.2,-239.7 l -245.43,-19.8 291.89,-16.3 c 205.41,-160.3 413.42,-317.2 624.05,-470.3 -123.04,104.3 -247.33,207.2 -372.59,308.9 l -82.46,263.6"
         style="fill:#b2cce8;fill-opacity:1;fill-rule:nonzero;stroke:none"
         id="path20" />
      <path
         d="m 6079.94,3548.4 116.98,-195.9 c -149.81,46 -300.12,90.5 -450.86,133.5 l -179.55,197.5 122.62,-181.3 c -58.32,16.4 -116.72,32.6 -175.17,48.6 l -0.22,0.3 -0.41,-0.1 c -147.25,40.3 -294.88,79.2 -442.87,116.5 132.2,-44.2 264.85,-87 397.89,-128.7 l -273.35,-74.5 341.39,53.3 c 122.38,-37.9 245.08,-74.9 368.1,-110.7 l -220.39,-109.7 276.73,93.3 c 250.36,-72.3 501.95,-140.4 754.51,-204.1 -153.07,51 -306.75,100.4 -460.94,148.3 l -174.46,213.7"
         style="fill:#b2cce8;fill-opacity:1;fill-rule:nonzero;stroke:none"
         id="path22" />
      <path
         d="m 5861.32,3134.7 151.52,-170.6 c -155.77,17.2 -311.75,32.8 -467.86,46.9 l -213.3,160.5 154.34,-155.2 c -60.37,5.2 -120.76,10.2 -181.17,15 l -0.28,0.3 -0.38,-0.2 c -152.19,12.1 -304.48,22.6 -456.82,31.6 138.11,-18.6 276.44,-36 414.93,-52 l -254.64,-124.2 325.43,116.1 c 127.31,-14.4 254.76,-27.8 382.31,-40 l -196.02,-149 254.41,143.4 c 259.48,-24.2 519.35,-44.1 779.37,-59.5 -159.91,21.5 -320.11,41.3 -480.52,59.5 l -211.32,177.4"
         style="fill:#b2cce8;fill-opacity:1;fill-rule:nonzero;stroke:none"
         id="path24" />
      <path
         d="m 7831.67,3676.9 -210.66,-40.7 c 58.91,109.2 116.25,219.3 172.07,330.1 l 217.11,91.2 -196.05,-49.4 c 21.43,43 42.58,86 63.54,129.2 l 0.3,0.1 -0.08,0.3 c 52.8,108.8 104.15,218.2 153.92,328.4 -55.58,-95.4 -109.92,-191.5 -163.06,-288.3 l -55.57,243.4 28.57,-292.9 c -48.46,-89.2 -95.9,-178.8 -142.27,-269 l -95.94,210.1 74.8,-251.5 c -93.67,-183.8 -183.1,-369.8 -268.12,-557.7 64.3,110.4 126.95,221.9 188.04,334.1 l 233.4,82.6"
         style="fill:#b2cce8;fill-opacity:1;fill-rule:nonzero;stroke:none"
         id="path26" />
      <path
         d="m 16936.1,2740.5 c -19,1.9 -38.5,4.1 -58.8,6.7 -121.4,15.2 -241.9,35.5 -358,60 -70.3,15.1 -140.9,32 -209.8,50.4 l -11.7,3.2 c -71.1,19.6 -138.2,38.1 -207.7,64.6 l -1.5,0.5 -0.7,3.2 0.5,0.3 c 25.6,24 54.2,47 92.5,74.5 73.5,51.2 156.5,96 253.7,137 280.9,111.3 553.2,156.1 809.3,133.1 102.4,-10.5 206.1,-31 306.5,-50.8 58.7,-11.6 119.3,-23.6 179.4,-33.5 l 0.4,-0.1 c 80.2,-12.2 161.3,-25.9 242.8,-40.5 l 130.1,-181.1 c -101.3,4.5 -202.7,7.9 -304.1,10.1 l -240.1,170.2 183.7,-169.1 c -110.4,1.9 -220.8,2.4 -331.2,1.6 120.3,-11.5 240.8,-21.3 361.4,-29.4 l 0.3,-0.3 0.2,0.2 c 47.9,-3.2 95.8,-6.2 143.7,-8.9 l -140.2,-145.7 187,143.2 c 123.9,-6.6 247.9,-11.4 371.9,-14.5 l -139.9,-162.7 187.6,161.7 c 127.7,-2.7 255.6,-3.7 383.4,-2.7 -205.4,19.5 -411.2,34.2 -617.3,44.1 l -174.6,183 c 100.6,-18.1 201.9,-37.8 303,-59.3 16.9,-3.6 33.7,6.9 38,23.8 4.2,16.8 -5.7,34 -22.4,38.8 -163.3,46.9 -325.7,89.4 -482.7,126.4 -119.7,28.9 -243.2,40.9 -362.6,52.6 -110.4,10.8 -224.5,22 -333.3,46.5 -80.6,17.8 -163.3,38.1 -243.4,57.8 -156,38.3 -317.3,77.9 -476.9,102.9 -28.9,4.6 -76.4,10.8 -111.1,15.1 l -0.5,0.1 -10.7,1.1 c -16,1.7 -32.6,3.4 -49.5,6 l -0.8,0.2 -1.1,2.5 c 83.8,120.9 210.8,214 377.7,276.5 179.2,67.3 358.2,82 476.9,82.6 h 0.7 c 263,7.5 503.7,-98.7 736.4,-201.4 40.9,-18.1 83.3,-36.7 125.1,-54.5 28.6,-12.1 57.3,-24.6 86.1,-37.3 l 85.7,-213.9 c -97.3,28.7 -195,56.2 -292.9,82.6 l -192.4,222.7 137.9,-208.1 c -106.7,28.2 -213.8,55.2 -321.2,80.7 114.1,-39.9 228.8,-78.2 343.9,-115 l 0.2,-0.3 0.3,0.2 c 45.7,-14.6 91.5,-29 137.3,-43.1 l -170.9,-107.9 215.8,94.3 c 118.7,-36.1 237.9,-70.5 357.6,-103.1 l -174.7,-124.5 220.7,112.1 c 123.5,-33.3 247.4,-64.8 371.7,-94.4 -194.8,68.1 -391.1,131.6 -588.8,190.6 l -130.1,227 c 228.3,-101.1 460.6,-223.8 692.1,-365.8 49.9,-30.8 99.7,-62.2 148,-93.3 14.7,-9.5 34.3,-5.5 44.1,8.9 9.9,14.5 6.4,34.2 -7.8,44.4 -137.2,98.5 -278.6,192.7 -420.3,279.8 l -25.1,15.2 215.1,32 c 106.6,-70.6 214.1,-139.7 322.7,-207.2 -163.2,126.2 -329.3,248.7 -498.2,367.2 l -51.7,257.2 13.7,-230.6 c -83.3,58 -167.2,115 -251.7,171 l -112,272.2 64.9,-241.1 c -92.3,60.6 -185.3,120.1 -279.1,178.4 95.6,-74.1 192.2,-146.7 289.8,-218 l 0.1,-0.4 0.3,0.1 c 38.7,-28.3 77.6,-56.5 116.6,-84.4 l -196.3,-48.2 234.6,21.1 c 101.2,-71.7 203.4,-142.1 306.6,-211 l -180.6,-55.2 -4.5,2.7 c -153.5,92.8 -312.3,188.7 -483.7,256.3 -47.1,18.6 -95.4,35.7 -142,52.2 -70.1,24.8 -142.6,50.5 -210.4,81.2 -52.4,23.6 -105.7,50.6 -163,82.4 -199.3,111.9 -382,223.1 -542.7,330.4 -7.9,5.4 -16,10.8 -24,16.2 -38.3,25.9 -74.5,50.3 -112.2,80.1 l -0.7,0.6 -1.2,2 c -0.1,1 0.4,1.6 0.5,1.8 l 1.1,0.9 c 34.4,18.4 69.4,33.7 103.9,45.5 l 0.5,0.2 c 51.6,18.5 104.7,32.6 162.5,42.9 303.9,54.2 648.7,-4.1 899.8,-152 111.5,-66.4 215.2,-150.8 315.5,-232.3 37.9,-30.8 77.1,-62.7 116.2,-93.2 39.5,-31.1 79.3,-63.7 121.6,-99.7 12.6,-10.8 31.2,-10.2 43.2,1.2 11.9,11.4 13.3,30 3.2,43.1 -45.4,58.5 -87.2,108.5 -127.8,152.8 -20.3,22 -41.5,44.2 -62,65.7 -61.2,64.1 -124.5,130.4 -174,201 l -0.3,0.4 c -29.9,41.5 -58.3,88.2 -89.3,147 -76,146.8 -141.2,307.5 -188.5,464.4 -13.4,42.7 -28.8,98.5 -40.2,146 l -0.1,0.4 c -7.1,28 -16.1,65.5 -22.3,107.5 v 0.5 c -0.5,3 1.4,5.5 2.3,6.4 0.8,0.9 3.2,3 6.3,2.7 83.5,-7.8 163.5,-28.6 259.8,-67.4 135,-56.5 263.2,-138.5 381.1,-243.6 53.2,-47.3 99,-93.9 136.1,-138.4 58.8,-70.5 109.2,-151.9 149.7,-242.2 24.5,-54.3 47.9,-112 70.6,-167.9 16.3,-40.2 33.1,-81.7 50.3,-121.9 6.5,-15.1 23.3,-22.9 39,-18.2 15.7,4.7 25.4,20.5 22.4,36.6 -3.5,19.9 -6.8,36.3 -10.1,51.8 -4.1,19.5 -8.5,39.4 -12.8,58.6 -21,93.9 -42.8,191.1 -37.6,285.1 10.4,188.1 104.8,373.6 182.2,496.2 87.2,133.3 183.5,238.6 294.4,321.8 15.7,11.3 37.2,9.9 51.4,-3.3 35.2,-32.9 62.7,-65.1 82.7,-89.5 45.4,-55 85.6,-113.2 123.1,-177.9 116.1,-202.4 178.3,-427.9 166.3,-602.9 -7.8,-98.7 -41.3,-192.5 -76.8,-291.8 -25.2,-70.6 -51.3,-143.6 -66.9,-218.1 -1.6,-7.2 -3.3,-14.4 -5,-21.6 l -3.3,-13.8 c -3.7,-16.2 5.5,-32.7 21.3,-37.9 15.9,-5.2 33.1,2.5 39.7,17.8 20.2,46.4 40.8,92.5 61.3,136.9 28.9,62.2 55.7,128.3 81.6,192.1 22.7,55.9 46.1,113.7 70.6,167.9 40.5,90.3 90.9,171.7 149.6,242.2 37.1,44.5 82.9,91.1 136.1,138.3 118,105.2 246.2,187.2 381.1,243.7 96.3,38.8 176.4,59.6 259.6,67.4 3.4,0.3 5.7,-1.8 6.6,-2.7 0.9,-0.9 2.8,-3.4 2.3,-6.4 l -0.1,-0.5 c -6.1,-41.9 -15.1,-79.5 -22.3,-107.5 l -0.1,-0.4 c -11.4,-47.5 -26.7,-103.3 -40,-145.6 -47.4,-157.3 -112.7,-318 -188.8,-465 -30.8,-58.6 -59.2,-105.3 -89.2,-146.8 l -0.2,-0.4 c -49.5,-70.6 -112.8,-136.9 -174,-201 -20.5,-21.5 -41.7,-43.7 -62,-65.6 -40.6,-44.4 -82.4,-94.4 -127.9,-152.9 -10.1,-13.1 -8.7,-31.7 3.3,-43.1 11.9,-11.5 30.6,-12 43.2,-1.2 42.2,36 82,68.7 121.7,99.8 39,30.4 78.2,62.3 116.1,93.1 100.3,81.5 204,165.8 315.6,232.4 251,147.8 595.8,206.1 899.7,151.9 57.7,-10.3 110.9,-24.4 162.5,-42.9 l 0.4,-0.2 c 34.6,-11.8 69.6,-27.1 104.1,-45.6 l 0.9,-0.7 c 0.2,-0.3 0.7,-0.9 0.5,-1.9 l -1.1,-2 -0.7,-0.6 c -37.8,-29.8 -73.9,-54.2 -112.2,-80.1 -8,-5.4 -16.1,-10.8 -24.3,-16.4 -160.5,-107.1 -343.1,-218.3 -542.6,-330.3 -57.1,-31.7 -110.4,-58.7 -162.7,-82.3 -67.9,-30.7 -140.4,-56.4 -210.5,-81.2 -46.7,-16.5 -95,-33.6 -142.1,-52.2 -171.4,-67.6 -330.1,-163.5 -483.7,-256.3 l -34.5,-20.8 c -141.9,-87.3 -283.3,-181.5 -420.5,-280 -14.2,-10.2 -17.7,-29.9 -7.9,-44.4 9.9,-14.4 29.4,-18.4 44.2,-8.9 48.2,31.1 98,62.5 148,93.3 260.6,159.9 522.5,295.6 778.2,403.1 41.9,17.9 84.2,36.5 125.2,54.6 232.7,102.7 473.3,208.9 736.3,201.4 h 0.8 c 118.6,-0.6 297.7,-15.3 476.9,-82.6 166.9,-62.5 293.9,-155.6 377.6,-276.5 l -1.2,-2.6 -0.7,-0.1 c -16.8,-2.6 -33.4,-4.3 -49.5,-6 l -10.6,-1.1 -0.6,-0.1 c -34.7,-4.3 -82.1,-10.5 -111.1,-15.1 -159.6,-25 -320.9,-64.6 -476.9,-102.9 -80,-19.7 -162.8,-40 -243.2,-57.8 -108.9,-24.5 -223.1,-35.7 -333.5,-46.5 -119.4,-11.7 -242.8,-23.7 -362.7,-52.6 -156.8,-37 -319.2,-79.5 -482.5,-126.4 -16.7,-4.8 -26.6,-22 -22.4,-38.8 4.2,-16.9 21,-27.4 38,-23.8 183.6,39 367.9,72.7 547.7,100.1 l 0.4,0.1 c 60,9.9 120.7,21.9 179.4,33.5 100.3,19.8 204.1,40.3 306.5,50.8 256.1,23 528.4,-21.8 809.3,-133.1 97.2,-40.9 180.1,-85.8 253.6,-137 38.4,-27.5 66.9,-50.5 92.6,-74.5 l 0.6,-0.5 -0.9,-3 -1.4,-0.5 c -69.6,-26.5 -136.7,-45 -207.7,-64.6 l -12,-3.3 c -68.6,-18.3 -139.2,-35.2 -209.6,-50.3 -116.1,-24.5 -236.6,-44.8 -358,-60 -20.2,-2.6 -39.7,-4.8 -58.8,-6.7 h -3414.7 -1385.6 m -8682.11,0 H 4839.22 c -19.06,1.9 -38.54,4.1 -58.74,6.7 -121.44,15.2 -241.93,35.5 -358.02,60 -70.34,15.1 -140.94,32 -209.56,50.3 l -11.99,3.3 c -71.05,19.6 -138.16,38.1 -207.75,64.6 l -1.39,0.5 -0.9,3 0.61,0.5 c 25.67,24 54.24,47 92.6,74.5 73.48,51.2 156.43,96.1 253.59,137 280.91,111.3 553.2,156.1 809.3,133.1 102.45,-10.5 206.18,-31 306.51,-50.8 58.68,-11.6 119.37,-23.6 179.43,-33.5 l 0.41,-0.1 c 179.79,-27.4 364.05,-61.1 547.65,-100.1 16.99,-3.6 33.79,6.9 37.99,23.8 4.2,16.8 -5.69,34 -22.39,38.8 -163.28,46.9 -325.67,89.4 -482.48,126.4 -119.89,28.9 -243.36,40.9 -362.76,52.6 -110.4,10.8 -224.56,22 -333.43,46.5 -80.45,17.8 -163.21,38.1 -243.24,57.8 -156.01,38.3 -317.33,77.9 -476.89,102.9 -28.99,4.6 -76.43,10.8 -111.12,15.1 l -0.57,0.1 -10.64,1.1 c -16.07,1.7 -32.69,3.4 -49.48,6 l -0.66,0.1 -1.25,2.6 c 83.72,120.9 210.78,214 377.65,276.5 179.22,67.3 358.25,82 476.88,82.6 h 0.77 c 263,7.5 503.64,-98.7 736.35,-201.4 40.93,-18.1 83.27,-36.7 125.2,-54.6 255.71,-107.5 517.55,-243.2 778.18,-403.1 49.94,-30.8 99.76,-62.2 148.03,-93.3 14.72,-9.5 34.3,-5.5 44.14,8.9 9.85,14.5 6.37,34.2 -7.83,44.4 -137.2,98.5 -278.6,192.7 -420.52,280 l -34.55,20.8 c -153.53,92.8 -312.29,188.7 -483.71,256.3 -47.11,18.6 -95.38,35.7 -142.06,52.2 -70.11,24.8 -142.6,50.5 -210.46,81.2 -52.36,23.6 -105.63,50.6 -162.75,82.3 -199.49,112 -382.12,223.2 -542.59,330.3 -8.18,5.6 -16.26,11 -24.29,16.4 -38.29,25.9 -74.46,50.3 -112.19,80.1 l -0.73,0.6 -1.11,2 c -0.14,1 0.32,1.6 0.55,1.9 l 0.83,0.7 c 34.55,18.5 69.58,33.8 104.11,45.6 l 0.47,0.2 c 51.57,18.5 104.73,32.6 162.47,42.9 303.9,54.2 648.67,-4.1 899.65,-151.9 111.67,-66.6 215.38,-150.9 315.67,-232.4 37.9,-30.8 77.09,-62.7 116.09,-93.1 39.63,-31.1 79.44,-63.8 121.7,-99.8 12.58,-10.8 31.24,-10.3 43.2,1.2 11.96,11.4 13.35,30 3.22,43.1 -45.4,58.5 -87.21,108.5 -127.88,152.9 -20.23,21.9 -41.42,44.1 -61.93,65.6 -61.21,64.1 -124.51,130.4 -173.98,201 l -0.28,0.4 c -29.96,41.5 -58.34,88.2 -89.21,146.8 -76.1,147 -141.33,307.7 -188.76,465 -13.28,42.3 -28.63,98.1 -40.04,145.6 l -0.11,0.4 c -7.14,28 -16.14,65.6 -22.29,107.5 l -0.07,0.5 c -0.5,3 1.44,5.5 2.3,6.4 0.86,0.9 3.18,3 6.61,2.7 83.21,-7.8 163.28,-28.6 259.56,-67.4 134.96,-56.5 263.16,-138.5 381.09,-243.7 53.23,-47.2 99.02,-93.8 136.13,-138.3 58.76,-70.5 109.1,-151.9 149.66,-242.2 24.47,-54.2 47.9,-112 70.55,-167.9 25.91,-63.8 52.69,-129.9 81.56,-192.1 20.51,-44.4 41.13,-90.5 61.31,-136.9 6.65,-15.3 23.86,-23 39.7,-17.8 15.84,5.2 25.08,21.7 21.3,37.9 l -3.23,13.8 c -1.7,7.2 -3.38,14.4 -5.04,21.6 -15.63,74.5 -41.7,147.5 -66.92,218.1 -35.48,99.3 -68.99,193.1 -76.78,291.8 -11.94,175 50.24,400.5 166.29,602.9 37.47,64.7 77.74,122.9 123.15,177.9 20.01,24.4 47.5,56.6 82.71,89.5 14.12,13.2 35.68,14.6 51.34,3.3 110.88,-83.2 207.21,-188.5 294.47,-321.8 77.4,-122.6 171.76,-308.1 182.2,-496.2 5.11,-94 -16.61,-191.2 -37.62,-285.1 -4.3,-19.2 -8.74,-39.1 -12.88,-58.6 -3.3,-15.5 -6.51,-31.9 -10.09,-51.8 -2.92,-16.1 6.75,-31.9 22.47,-36.6 15.7,-4.7 32.46,3.1 38.91,18.2 17.24,40.2 34.08,81.7 50.38,121.9 22.66,55.9 46.09,113.6 70.59,167.9 40.53,90.3 90.88,171.7 149.66,242.2 37.08,44.5 82.88,91.1 136.16,138.4 117.87,105.1 246.07,187.1 381.04,243.6 96.27,38.8 176.34,59.6 259.82,67.4 3.13,0.3 5.49,-1.8 6.35,-2.7 0.85,-0.9 2.8,-3.4 2.29,-6.4 l -0.07,-0.5 c -6.15,-42 -15.14,-79.5 -22.29,-107.5 l -0.11,-0.4 c -11.41,-47.5 -26.75,-103.3 -40.15,-146 -47.32,-156.9 -112.55,-317.6 -188.54,-464.4 -30.97,-58.8 -59.36,-105.5 -89.32,-147 l -0.27,-0.4 c -49.48,-70.6 -112.77,-136.9 -173.98,-201 -20.51,-21.5 -41.71,-43.7 -62.01,-65.7 -40.59,-44.3 -82.4,-94.3 -127.81,-152.8 -10.13,-13.1 -8.74,-31.7 3.22,-43.1 11.97,-11.4 30.63,-12 43.2,-1.2 42.25,36 82.06,68.6 121.61,99.7 39.09,30.5 78.29,62.4 116.2,93.2 100.29,81.5 203.99,165.9 315.51,232.3 251.13,147.9 595.9,206.2 899.74,152 57.79,-10.3 110.95,-24.4 162.52,-42.9 l 0.47,-0.2 c 34.54,-11.8 69.56,-27.1 103.97,-45.5 l 1.04,-0.9 c 0.16,-0.2 0.62,-0.8 0.49,-1.8 l -1.12,-2 -0.73,-0.6 c -37.73,-29.8 -73.89,-54.2 -112.19,-80.1 -8.02,-5.4 -16.11,-10.8 -24.06,-16.2 -160.7,-107.3 -343.33,-218.5 -542.69,-330.4 -57.24,-31.8 -110.52,-58.8 -162.92,-82.4 -67.81,-30.7 -140.3,-56.4 -210.41,-81.2 -46.68,-16.5 -94.95,-33.6 -142.04,-52.2 -171.43,-67.6 -330.18,-163.5 -483.71,-256.3 l -4.51,-2.7 -180.57,55.2 c 103.21,68.9 205.42,139.3 306.64,211 l 234.55,-21.1 -196.33,48.2 c 39.04,27.9 77.89,56.1 116.62,84.4 l 0.33,-0.1 0.1,0.4 c 97.57,71.3 194.2,143.9 289.77,218 -93.79,-58.3 -186.82,-117.8 -279.09,-178.4 l 64.91,241.1 -111.98,-272.2 c -84.55,-56 -168.47,-113 -251.7,-171 l 13.65,230.6 -51.69,-257.2 c -168.86,-118.5 -334.97,-241 -498.15,-367.2 108.56,67.5 216.11,136.6 322.68,207.2 l 215.11,-32 -25.16,-15.2 c -141.68,-87.1 -283.08,-181.3 -420.27,-279.8 -14.21,-10.2 -17.68,-29.9 -7.84,-44.4 9.85,-14.4 29.44,-18.4 44.14,-8.9 48.29,31.1 98.1,62.5 147.97,93.3 231.5,142 463.87,264.7 692.16,365.8 l -130.14,-227 c -197.69,-59 -394.02,-122.5 -588.77,-190.6 124.34,29.6 248.22,61.1 371.66,94.4 l 220.76,-112.1 -174.77,124.5 c 119.71,32.6 238.94,67 357.67,103.1 l 215.81,-94.3 -170.97,107.9 c 45.86,14.1 91.63,28.5 137.33,43.1 l 0.29,-0.2 0.2,0.3 c 115.14,36.8 229.79,75.1 343.88,115 -107.41,-25.5 -214.47,-52.5 -321.19,-80.7 l 137.91,208.1 -192.39,-222.7 c -97.95,-26.4 -195.6,-53.9 -292.91,-82.6 l 85.75,213.9 c 28.75,12.7 57.47,25.2 86.08,37.3 41.82,17.8 84.15,36.4 125.09,54.5 232.71,102.7 473.4,208.9 736.34,201.4 h 0.77 c 118.63,-0.6 297.66,-15.3 476.89,-82.6 166.91,-62.5 293.91,-155.6 377.61,-276.5 l -1,-2.5 -0.9,-0.2 c -16.8,-2.6 -33.4,-4.3 -49.5,-6 l -10.6,-1.1 -0.6,-0.1 c -34.6,-4.3 -82.1,-10.5 -111,-15.1 -159.7,-25 -320.97,-64.6 -476.97,-102.9 -80.03,-19.7 -162.79,-40 -243.36,-57.8 -108.76,-24.5 -222.91,-35.7 -333.32,-46.5 -119.4,-11.7 -242.86,-23.7 -362.62,-52.6 -156.96,-37 -319.34,-79.5 -482.62,-126.4 -16.69,-4.8 -26.58,-22 -22.39,-38.8 4.21,-16.9 21.01,-27.4 38,-23.8 101.1,21.5 202.33,41.2 302.98,59.3 l -174.65,-183 c -206.06,-9.9 -411.89,-24.6 -617.27,-44.1 127.81,-1 255.64,0 383.43,2.7 l 187.54,-161.7 -139.91,162.7 c 124.05,3.1 248.05,7.9 371.96,14.5 l 186.96,-143.2 -140.17,145.7 c 47.9,2.7 95.78,5.7 143.65,8.9 l 0.25,-0.2 0.26,0.3 c 120.6,8.1 241.09,17.9 361.41,29.4 -110.39,0.8 -220.8,0.3 -331.18,-1.6 l 183.72,169.1 -240.12,-170.2 c -101.41,-2.2 -202.81,-5.6 -304.15,-10.1 l 130.1,181.1 c 81.51,14.6 162.65,28.3 242.84,40.5 l 0.4,0.1 c 60.07,9.9 120.75,21.9 179.44,33.5 100.32,19.8 204.05,40.3 306.5,50.8 256.12,23 528.4,-21.8 809.29,-133.1 97.2,-41 180.2,-85.8 253.6,-137 38.4,-27.5 66.9,-50.5 92.6,-74.5 l 0.5,-0.3 -0.7,-3.2 -1.5,-0.5 c -69.5,-26.5 -136.7,-45 -207.7,-64.6 l -11.7,-3.2 c -69,-18.4 -139.6,-35.3 -209.8,-50.4 -116.16,-24.5 -236.65,-44.8 -358.06,-60 -20.23,-2.6 -39.72,-4.8 -58.78,-6.7 H 8253.99 m 14348.11,0 h -453.7 c 6.1,1.2 12.2,2.3 18.3,3.6 71.4,15.3 143,32.5 212.9,51.1 l 12.3,3.4 c 69.2,19.1 140.7,38.8 213,66.3 21.7,7.4 38.1,26.3 42.9,49.5 4.9,23.5 -2.5,46.8 -19.8,62.4 -27.8,25.9 -58.3,50.5 -99,79.7 l -0.3,0.2 c -77.4,54 -164.4,101 -266,143.8 l -0.6,0.3 c -198.2,78.6 -392.6,125.1 -580.8,139.1 45.3,10.8 90.6,21.9 135.1,32.8 154.7,38 314.7,77.3 471.6,101.9 28.1,4.5 74.5,10.5 108.7,14.8 l 10.3,1.1 c 16.7,1.7 34,3.5 52.3,6.3 22.3,3.1 41.3,17.5 50.8,38.7 9.6,21.4 7.7,45.4 -5.2,64.1 -91.4,132.2 -228.7,233.3 -408.3,300.6 -188,70.5 -375,86.1 -498.9,86.7 -114.8,3.2 -224.6,-13.6 -330.7,-41.9 197.5,111.2 378.3,221.4 537.9,327.9 8.4,5.7 16.4,11.1 24.4,16.5 39.2,26.4 76.3,51.4 115.8,82.7 14.4,10.9 23.9,27.4 26.1,45.4 2.3,18.3 -2.8,36.2 -14.4,50.5 -5.5,6.8 -12.5,12.6 -20.4,16.9 -37.7,20.1 -75.8,36.9 -113.6,49.8 -54.9,19.7 -111.4,34.6 -172.7,45.6 -318.4,56.7 -680,-4.5 -943.8,-159.9 -90.6,-53.9 -174.8,-118.1 -256,-183.2 37.6,41.2 73.9,83.9 105.5,129 31.7,44 61.5,93.1 93.9,154.6 78,150.6 144.8,315.1 193.2,475.8 13.8,43.9 29.2,99.8 41.1,149.3 7.5,29.4 17,68.9 23.5,113.6 3.5,22 -3.4,44.2 -19,60.7 -15.7,16.7 -37.5,24.9 -59.8,22.7 -89.6,-8.4 -175.3,-30.5 -277.7,-71.9 l -0.4,-0.1 c -141.6,-59.3 -276,-145.1 -399.2,-255.1 -55.6,-49.3 -103.7,-98.2 -142.8,-145.2 -62.5,-75 -116,-161.4 -159,-257 -1.6,-3.7 -3.3,-7.4 -4.9,-11.1 2.4,16 4.4,32.1 5.6,48.3 12.8,187.7 -52.5,426.7 -174.7,639.9 -39.3,67.9 -81.6,129 -129.2,186.7 -21.3,25.9 -50.5,60.1 -88.5,95.6 -36.7,34.4 -92.9,37.8 -133.5,8.3 l -0.4,-0.3 c -117.1,-87.9 -218.5,-198.6 -310,-338.5 l -0.3,-0.4 c -81.5,-129.1 -181.1,-325.3 -192.3,-527.3 -1.9,-35.1 -0.5,-69.9 3,-104.5 -0.5,1.1 -1,2.2 -1.5,3.3 -42.9,95.6 -96.4,182 -158.9,257 -39.1,47 -87.2,95.9 -142.8,145.3 -123.3,109.9 -257.6,195.7 -399.2,255 l -0.4,0.1 c -102.4,41.4 -188.2,63.5 -277.9,71.9 -22.1,2.3 -43.9,-6 -59.6,-22.7 -15.6,-16.5 -22.6,-38.7 -19.1,-60.7 6.6,-44.7 16.1,-84.2 23.6,-113.7 11.9,-49.4 27.3,-105.3 41.1,-149.5 48.4,-160.4 115.2,-324.9 193,-475.3 32.5,-61.7 62.4,-110.8 94.1,-154.8 31.6,-45.1 67.8,-87.8 105.4,-129 -81.1,65.1 -165.3,129.2 -255.7,183.1 -264,155.5 -625.6,216.7 -944,160.1 -61.4,-11.1 -117.8,-26 -172.7,-45.7 -37.8,-12.9 -76,-29.7 -113.5,-49.7 -8,-4.4 -15.1,-10.2 -20.6,-17.1 -11.5,-14.2 -16.6,-32.1 -14.4,-50.4 2.3,-18 11.8,-34.5 26.2,-45.4 39.5,-31.3 76.6,-56.3 115.8,-82.7 8,-5.4 16,-10.8 24.1,-16.3 159.9,-106.7 340.8,-217 538.2,-328.1 -106.2,28.3 -215.9,45.1 -330.8,41.9 -123.9,-0.6 -310.9,-16.2 -498.9,-86.7 -179.5,-67.3 -316.8,-168.4 -408.2,-300.4 -12.9,-18.9 -14.9,-42.9 -5.3,-64.3 9.6,-21.2 28.6,-35.6 50.9,-38.7 18.3,-2.8 35.6,-4.6 52.3,-6.3 l 10.2,-1.1 c 34.2,-4.3 80.7,-10.3 108.7,-14.8 157,-24.6 317,-63.9 471.7,-101.9 44.4,-10.9 89.7,-22 135.1,-32.8 -188.2,-14 -382.6,-60.5 -580.8,-139.1 l -0.7,-0.3 c -101.6,-42.8 -188.6,-89.9 -265.9,-143.8 l -0.4,-0.2 c -40.6,-29.2 -71.2,-53.8 -98.9,-79.7 -17.3,-15.6 -24.8,-38.9 -19.9,-62.4 4.9,-23.2 21.3,-42.1 43,-49.5 72.2,-27.5 143.8,-47.2 212.9,-66.3 l 12,-3.3 c 70.3,-18.7 141.9,-35.9 213.2,-51.2 6.1,-1.3 12.3,-2.4 18.3,-3.6 h -6472.6 c 6.1,1.2 12.3,2.3 18.4,3.6 71.3,15.3 142.9,32.5 213.1,51.2 l 12,3.3 c 69.2,19.1 140.7,38.8 213,66.3 21.7,7.4 38.1,26.3 42.9,49.5 4.9,23.5 -2.5,46.8 -19.8,62.4 -27.8,25.9 -58.3,50.5 -98.9,79.7 l -0.4,0.2 c -77.4,53.9 -164.4,101 -266,143.8 l -0.6,0.3 c -198.24,78.6 -392.63,125.1 -580.78,139.1 45.34,10.8 90.64,21.9 135.09,32.8 154.69,38 314.69,77.3 471.69,101.9 28,4.5 74.5,10.5 108.6,14.8 l 10.3,1.1 c 16.7,1.7 34,3.5 52.2,6.3 22.4,3.1 41.4,17.5 50.9,38.7 9.6,21.4 7.7,45.4 -5.2,64.3 -91.4,132 -228.7,233.1 -408.26,300.4 -187.99,70.5 -374.99,86.1 -498.89,86.7 -114.88,3.2 -224.61,-13.6 -330.74,-41.9 197.37,111.1 378.32,221.4 538.15,328.1 8.11,5.5 16.14,10.9 24.1,16.3 39.24,26.4 76.32,51.4 115.87,82.7 14.38,10.9 23.88,27.4 26.11,45.4 2.28,18.3 -2.86,36.2 -14.36,50.4 -5.54,6.9 -12.61,12.7 -20.6,17.1 -37.53,20 -75.71,36.8 -113.45,49.7 -54.92,19.7 -111.41,34.6 -172.73,45.7 -318.38,56.6 -680.03,-4.6 -943.98,-160.1 -90.4,-53.9 -174.6,-118 -255.79,-183.1 37.59,41.2 73.84,83.9 105.43,129 31.73,44 61.59,93.1 94.06,154.8 77.9,150.4 144.69,314.9 193.02,475.3 13.89,44.2 29.27,100.1 41.16,149.5 7.52,29.5 16.96,69 23.52,113.7 3.51,22 -3.43,44.2 -19.06,60.7 -15.68,16.7 -37.48,25 -59.54,22.7 -89.78,-8.4 -175.5,-30.5 -277.94,-71.9 l -0.38,-0.1 c -141.64,-59.3 -275.96,-145.1 -399.18,-255 -55.64,-49.4 -103.69,-98.3 -142.83,-145.3 -62.53,-75 -116,-161.4 -158.92,-257 -0.5,-1.1 -1,-2.2 -1.5,-3.3 3.51,34.6 4.87,69.4 2.96,104.5 -11.21,202 -110.72,398.2 -192.23,527.3 l -0.28,0.4 c -91.51,139.9 -192.93,250.6 -310.04,338.5 l -0.38,0.3 c -40.64,29.5 -96.8,26.1 -133.53,-8.3 -37.97,-35.5 -67.24,-69.7 -88.46,-95.6 -47.66,-57.7 -89.91,-118.8 -129.24,-186.7 -122.2,-213.2 -187.53,-452.2 -174.73,-639.9 1.28,-16.2 3.2,-32.3 5.65,-48.3 -1.64,3.7 -3.3,7.4 -4.95,11.1 -42.94,95.6 -96.42,182 -158.93,257 -39.15,47 -87.21,95.9 -142.79,145.2 -123.28,110 -257.6,195.8 -399.24,255.1 l -0.37,0.1 c -102.44,41.4 -188.16,63.5 -277.69,71.9 -22.32,2.2 -44.12,-6 -59.8,-22.7 -15.63,-16.5 -22.57,-38.7 -19.06,-60.7 6.55,-44.7 16,-84.2 23.51,-113.6 11.9,-49.5 27.28,-105.4 41.06,-149.3 48.45,-160.7 115.23,-325.2 193.24,-475.8 32.36,-61.5 62.23,-110.6 93.96,-154.6 31.59,-45.1 67.83,-87.8 105.43,-129 -81.2,65.1 -165.42,129.3 -255.94,183.2 -263.81,155.4 -625.45,216.6 -943.88,159.9 -61.28,-11 -117.77,-25.9 -172.68,-45.6 -37.75,-12.9 -75.92,-29.7 -113.6,-49.8 -7.84,-4.3 -14.91,-10.1 -20.38,-16.9 -11.58,-14.3 -16.72,-32.2 -14.44,-50.5 2.23,-18 11.75,-34.5 26.14,-45.4 39.54,-31.3 76.61,-56.3 115.84,-82.7 7.97,-5.4 15.99,-10.8 24.33,-16.5 159.58,-106.5 340.46,-216.7 537.91,-327.9 -106.11,28.3 -215.85,45.1 -330.73,41.9 -123.9,-0.6 -310.9,-16.2 -498.89,-86.7 -179.54,-67.3 -316.88,-168.4 -408.31,-300.6 -12.85,-18.7 -14.78,-42.7 -5.18,-64.1 9.53,-21.2 28.52,-35.6 50.88,-38.7 18.24,-2.8 35.54,-4.6 52.28,-6.3 l 10.24,-1.1 c 34.18,-4.3 80.66,-10.3 108.75,-14.8 156.92,-24.6 316.88,-63.9 471.57,-101.9 44.47,-10.9 89.78,-22 135.1,-32.8 -188.14,-14 -382.57,-60.5 -580.79,-139.1 l -0.64,-0.3 C 4211.35,3157.7 4124.36,3110.7 4047,3056.7 l -0.37,-0.2 c -40.66,-29.2 -71.19,-53.8 -98.92,-79.7 -17.33,-15.6 -24.76,-38.9 -19.87,-62.4 4.82,-23.2 21.24,-42.1 42.95,-49.5 72.26,-27.5 143.81,-47.2 212.99,-66.3 l 12.25,-3.4 c 69.91,-18.6 141.53,-35.8 212.99,-51.1 6.02,-1.3 12.17,-2.4 18.21,-3.6 h -453.7 c -26.05,0 -47.16,-21.2 -47.16,-47.2 0,-26.1 21.11,-47.2 47.16,-47.2 h 3544.63 c 15.22,0 41.87,0 55.78,0 h 642.8 c 14.37,0 22.02,0 37.25,0 h 10067.71 37.2 642.8 55.8 3544.6 c 26.1,0 47.2,21.1 47.2,47.2 0,26 -21.1,47.2 -47.2,47.2"
         style="fill:#b2cce8;fill-opacity:1;fill-rule:nonzero;stroke:none"
         id="path28" />
      <path
         d="m 19228.1,2973.3 c 28.5,259.1 51,518.8 67.5,778.9 l 243.1,225.2 -239.5,-166.7 c 7.6,127.9 13.8,255.9 18.5,384 l 219.5,300 -217,-228.8 c 4.5,139.4 7.3,278.8 8.2,418.3 -16.7,-151.8 -31.4,-303.8 -43.9,-455.9 l -0.4,-0.4 0.3,-0.3 c -5,-60.4 -9.7,-120.8 -14,-181.3 l -181.4,179.9 177.3,-238.9 c -10.6,-156.4 -19.1,-312.9 -25.4,-469.6 l -202.8,179.9 200.6,-240 c -5.8,-161.4 -9.5,-322.8 -10.6,-484.3"
         style="fill:#b2cce8;fill-opacity:1;fill-rule:nonzero;stroke:none"
         id="path30" />
      <path
         d="m 19880.2,3915.5 264.1,124.5 -234.8,-73.7 c 63.8,111.1 126.6,222.8 188.5,335 l 283,198.2 -248.6,-135.8 c 67,122.3 132.8,245.1 197.5,368.6 -80.8,-129.5 -160.2,-259.9 -238.4,-391 l -0.4,-0.2 v -0.3 c -31,-52.1 -61.9,-104.2 -92.5,-156.5 l -37.3,215.7 7.5,-266.9 c -78.8,-135.4 -156.3,-271.7 -232.4,-408.7 l -51.5,222.3 22.4,-275 c -78,-141.4 -154.5,-283.5 -229.4,-426.4 137.8,221 271.9,444.5 402.3,670.2"
         style="fill:#b2cce8;fill-opacity:1;fill-rule:nonzero;stroke:none"
         id="path32" />
      <path
         d="m 20111.1,3844.4 -82.4,-263.6 c -125.3,-101.7 -249.6,-204.6 -372.6,-308.9 210.6,153.1 418.6,310 624,470.2 l 291.9,16.4 -245.4,19.8 c 100.8,79 200.8,159 300.2,239.7 l 337,77.7 -281.5,-32.7 c 108,88.2 215.2,177.4 321.5,267.5 -123.4,-89.6 -245.9,-180.7 -367.6,-272.8 l -0.5,-0.1 -0.2,-0.5 c -48.3,-36.6 -96.4,-73.2 -144.4,-110.2 l 46.3,213.9 -93.2,-250.4 c -124,-96 -246.9,-193.3 -368.8,-291.8 l 35.7,225.8"
         style="fill:#b2cce8;fill-opacity:1;fill-rule:nonzero;stroke:none"
         id="path34" />
      <path
         d="m 20891.6,3297.2 -220.4,109.7 c 123,35.8 245.7,72.8 368.1,110.7 l 341.4,-53.3 -273.4,74.5 c 133.1,41.7 265.7,84.5 397.9,128.7 -148,-37.3 -295.6,-76.2 -442.9,-116.5 l -0.4,0.1 -0.2,-0.3 c -58.4,-16 -116.8,-32.2 -175.2,-48.6 l 122.7,181.3 -179.6,-197.5 c -150.7,-43 -301,-87.5 -450.8,-133.5 l 116.9,195.9 -174.4,-213.7 c -154.2,-47.9 -307.9,-97.3 -461,-148.3 252.6,63.7 504.2,131.8 754.5,204.1 l 276.8,-93.3"
         style="fill:#b2cce8;fill-opacity:1;fill-rule:nonzero;stroke:none"
         id="path36" />
      <path
         d="m 20801.9,2957.3 254.4,-143.4 -196,149 c 127.5,12.2 255,25.6 382.3,40 l 325.4,-116.1 -254.6,124.2 c 138.5,16 276.8,33.4 414.9,52 -152.3,-9 -304.6,-19.5 -456.8,-31.6 l -0.4,0.2 -0.3,-0.3 c -60.4,-4.8 -120.8,-9.8 -181.1,-15 l 154.3,155.2 -213.3,-160.5 c -156.1,-14.1 -312.1,-29.7 -467.9,-46.9 l 151.6,170.6 -211.4,-177.4 c -160.4,-18.2 -320.6,-38 -480.5,-59.5 260,15.4 519.9,35.3 779.4,59.5"
         style="fill:#b2cce8;fill-opacity:1;fill-rule:nonzero;stroke:none"
         id="path38" />
      <path
         d="m 18897.3,3817.9 74.8,251.5 -95.9,-210.1 c -46.4,90.2 -93.8,179.8 -142.3,269 l 28.6,292.9 -55.6,-243.4 c -53.1,96.8 -107.5,192.9 -163,288.3 49.7,-110.2 101.1,-219.6 153.9,-328.4 l -0.1,-0.3 0.3,-0.1 c 21,-43.2 42.1,-86.2 63.5,-129.2 l -196,49.4 217.1,-91.2 c 55.8,-110.8 113.2,-220.9 172.1,-330.1 l -210.7,40.7 233.4,-82.6 c 61.1,-112.2 123.7,-223.7 188.1,-334.1 -85.1,187.9 -174.5,373.9 -268.2,557.7"
         style="fill:#b2cce8;fill-opacity:1;fill-rule:nonzero;stroke:none"
         id="path40" />
      <path
         d="m 10501.7,10753.6 c 36.7,-400.5 149.7,-1989.2 1457.5,-1989.2 0,0 421.7,455.4 742.1,455.4 320.5,0 -219.2,-283.8 -219.2,-283.8 l 451,-142.7 c 54.5,-17.2 91.5,-67.7 91.5,-124.9 v -65.3 l 32.5,-19 c 34.2,-20.1 55.2,-56.7 55.2,-96.3 v -12.2 c 0,-61.6 -50,-111.5 -111.6,-111.5 l -18.7,-129.7 c -4.8,-32.8 -32.8,-57.1 -65.9,-57.1 l -7.5,-47.6 c -10.5,-67 -62.5,-120.1 -129.4,-131.6 -178,-30.6 -539.5,-60.7 -882.4,106.4 -472.3,230.2 -2303.17,101.6 -2593.07,2545.5 127.07,3.1 168.42,108.2 305.84,118.6 170.8,13 366.18,3.4 534.63,-6.2 155.6,-8.8 288.3,-17.7 357.5,-8.8"
         style="fill:#ffb8a3;fill-opacity:1;fill-rule:nonzero;stroke:none"
         id="path42" />
      <path
         d="m 10527.4,10500.5 v 0 c -8.2,66.8 -14.1,126.6 -18.7,176.8 0.2,0.1 0.5,0.1 0.8,0.2 l 17.9,-177"
         style="fill:#dedbea;fill-opacity:1;fill-rule:nonzero;stroke:none"
         id="path44" />
      <path
         d="m 10527.4,10500.5 c -94.4,1.8 -512.1,9.9 -900.26,37 -8.3,102.8 -13.39,162.2 -13.39,162.2 55.18,-13 110.95,-23.3 167.13,-31 l 2.65,-0.3 c 134.92,-20.6 254.57,-28.1 357.77,-28.1 168.5,0 292.9,20.2 367.4,37 4.6,-50.2 10.5,-110 18.7,-176.8"
         style="fill:#f5a597;fill-opacity:1;fill-rule:nonzero;stroke:none"
         id="path46" />
      <path
         d="m 8808.14,13100.3 c 0,0 247.11,1293.1 -577.8,775.8 0,0 -1154.13,469.7 -1249.09,-220.2 -1.58,-11.4 -2.98,-22.8 -4.48,-34 -70.08,-527.7 -337.56,-1008.9 -746.52,-1349.7 -102.82,-85.6 -192.35,-209 -225.19,-385.8 -31.65,-170.5 -99.98,-339.3 -176.81,-488.2 -129.13,-250.4 -309.8,-470.1 -525.45,-651.4 -184.4,-154.9 -430.68,-422.5 -373.53,-711.5 1.39,-7.1 2.87,-14.1 4.42,-21 78.62,-348.8 419.88,-573.9 773.03,-517.6 265.63,42.2 646.3,71.5 720.9,-89.6 116.87,-252.4 981.38,125 981.38,125 0,0 816.55,778 782.59,1256.8 -33.95,478.8 451.5,1382.3 451.5,1382.3 0,0 483.75,1209.6 -26.98,1330.7 -510.73,121 192.03,-401.6 192.03,-401.6"
         style="fill:#000000;fill-opacity:1;fill-rule:nonzero;stroke:none"
         id="path48" />
      <path
         d="m 8345.8,12149.2 -39.56,562.1 -383.98,-73.3 v -680 l 423.54,191.2"
         style="fill:#ffb8a3;fill-opacity:1;fill-rule:nonzero;stroke:none"
         id="path50" />
      <path
         d="m 8335.57,12294.4 -1.42,20.3 c 0.08,0 0.18,0 0.26,0 l 1.16,-20.3 v 0 m -413.31,40.3 -5.49,40.7 c 1.81,-0.9 3.66,-1.7 5.49,-2.5 v -38.2"
         style="fill:#100005;fill-opacity:1;fill-rule:nonzero;stroke:none"
         id="path52" />
      <path
         d="m 8157.62,12271 c -76.22,0 -163.94,14 -235.36,63.7 v 0 38.2 c 87.2,-38.9 196.88,-62.6 334.76,-62.6 27.05,0 52.72,1.5 77.13,4.4 l 1.42,-20.3 c -0.14,0 -79.45,-23.4 -177.95,-23.4"
         style="fill:#f5a597;fill-opacity:1;fill-rule:nonzero;stroke:none"
         id="path54" />
      <path
         d="m 8928.18,12047.7 c 0,0 -491.06,325.7 -1492.39,35.2 0,0 471.65,-661.7 879.94,-661.7 408.3,0 612.45,626.5 612.45,626.5"
         style="fill:#ffb8a3;fill-opacity:1;fill-rule:nonzero;stroke:none"
         id="path56" />
      <path
         d="m 9666.47,2740.5 h 916.83 c 0,179.6 -145.7,325.3 -325.3,325.3 h -591.53 v -325.3"
         style="fill:#1a1a1a;fill-opacity:1;fill-rule:nonzero;stroke:none"
         id="path58" />
      <path
         d="m 9666.47,3065.8 -151.78,682.6 415.21,40.6 63.49,-723.2 h -326.92"
         style="fill:#ffb8a3;fill-opacity:1;fill-rule:nonzero;stroke:none"
         id="path60" />
      <path
         d="m 10124.9,3479 c 0,0 -392.64,-85 -799.63,0 L 8940.89,5655.4 7689.17,8255.9 9204.09,8504.7 10150.7,5868 10124.9,3479"
         style="fill:#b3002d;fill-opacity:1;fill-rule:nonzero;stroke:none"
         id="path62" />
      <path
         d="m 9377.01,5174.7 -8.34,42.6 26.65,5.2 8.33,-42.6 -26.64,-5.2 m -23.99,122.5 -15.66,79.9 26.64,5.3 15.66,-80 -26.64,-5.2 m -31.32,159.9 -15.66,79.9 26.64,5.2 15.66,-79.9 -26.64,-5.2 m -31.31,159.8 -15.66,80 26.64,5.2 15.66,-79.9 -26.64,-5.3 m -31.32,159.9 -15.66,79.9 26.65,5.2 15.65,-79.9 -26.64,-5.2 m -31.32,159.8 -6.27,32.1 -19.41,41 24.54,11.6 20.87,-44.1 6.91,-35.3 -26.64,-5.3 m -60.49,146.8 -34.81,73.6 24.54,11.6 34.81,-73.6 -24.54,-11.6 m -69.62,147.2 -34.82,73.7 24.55,11.6 34.8,-73.7 -24.53,-11.6 m -69.63,147.3 -34.81,73.6 24.54,11.6 34.81,-73.6 -24.54,-11.6 m -69.62,147.3 -34.81,73.6 24.55,11.6 34.8,-73.6 -24.54,-11.6 m -69.62,147.2 -0.47,1 8.03,46.6 16.98,-36 -24.54,-11.6"
         style="fill:#d16681;fill-opacity:1;fill-rule:nonzero;stroke:none"
         id="path64" />
      <path
         d="m 7102.48,3065.8 119.31,702.9 415.21,40.5 -207.61,-743.4 h -326.91"
         style="fill:#ffb8a3;fill-opacity:1;fill-rule:nonzero;stroke:none"
         id="path66" />
      <path
         d="m 7750.31,3479 c 0,0 -392.62,-85 -799.62,0 l 559.94,1991.9 -204.37,2586.8 1897.83,447 L 8695.12,5553.2 7750.31,3479"
         style="fill:#cd0039;fill-opacity:1;fill-rule:nonzero;stroke:none"
         id="path68" />
      <path
         d="m 8683.86,12171.2 c 0,0 1675.74,178.4 1905.74,-1471.5 0,0 -358.2,-133.8 -975.85,0 0,0 24.89,-290.6 54.39,-698.7 56.01,-775 128.63,-1973.9 78.85,-2410.4 0,0 -361.23,124.2 -863.36,26 -552.4,-108.1 -1269.1,-439.5 -1718.34,-439.5 0,0 -192.45,2499.8 -130.36,3405.1 0,0 -724.04,-105.4 -1345.06,-105.4 0,0 278.28,1700 1875.17,1700 0,0 132.49,-511 679.57,-511 547.08,0 439.25,505.4 439.25,505.4"
         style="fill:#ff2b6d;fill-opacity:1;fill-rule:nonzero;stroke:none"
         id="path70" />
      <path
         d="m 9783.53,10668.4 -2.65,0.3 c -56.18,7.7 -111.95,18 -167.13,31 v 0 c 59,-12.8 115.6,-23.1 169.78,-31.3"
         style="fill:#cd9095;fill-opacity:1;fill-rule:nonzero;stroke:none"
         id="path72" />
      <path
         d="m 9784.27,10668.3 -0.74,0.1 c -54.18,8.2 -110.78,18.5 -169.78,31.3 v 0 0 l -48.5,488.1 133.81,-317.4 c -10.25,1.3 -20.48,2.7 -30.63,4.1 l -3.78,-26.9 c 15.42,-2.1 31,-4.2 46.6,-6.1 l 73.02,-173.2"
         style="fill:#d52e74;fill-opacity:1;fill-rule:nonzero;stroke:none"
         id="path74" />
      <path
         d="m 7034.92,10582.2 c 0.01,0 0.01,0 0.01,0 v 0 c -0.02,0 0.01,0 -0.01,0"
         style="fill:#090c1d;fill-opacity:1;fill-rule:nonzero;stroke:none"
         id="path76" />
      <path
         d="m 6921.23,10568 45.94,177.3 79.55,3.7 -11.79,-166.8 v 0 c 0,0 0,0 -0.01,0 -30.47,-4 -68.95,-8.8 -113.69,-14.2 m 126.45,194.6 -0.63,13.6 -72.75,-3.4 101.91,393.3 -28.53,-403.5"
         style="fill:#d52e74;fill-opacity:1;fill-rule:nonzero;stroke:none"
         id="path78" />
      <path
         d="m 8295.2,11526.5 c -10.07,0 -20.47,0.2 -30.89,0.5 -17.27,0.6 -34.57,1.5 -51.4,2.8 l 2.04,27.1 c 16.45,-1.3 33.37,-2.2 50.25,-2.7 10.14,-0.4 20.27,-0.5 30.07,-0.6 l -0.07,-27.1 m 82.52,3.5 -2.45,27 c 27.31,2.5 53.85,6.4 78.88,11.6 l 5.54,-26.6 c -26.06,-5.4 -53.63,-9.4 -81.97,-12 m -246.61,8.9 c -27.35,4.1 -54.59,9.2 -80.97,15.2 l 6.06,26.5 c 25.69,-5.9 52.23,-10.9 78.9,-14.8 l -3.99,-26.9 m 408.65,25.5 -9.19,25.6 c 25.36,9.1 49.55,20.1 71.92,32.7 l 13.28,-23.7 c -23.67,-13.3 -49.25,-24.9 -76.01,-34.6 m -569.16,11.4 c -26.22,8.3 -52.3,17.8 -77.51,28.2 l 10.39,25.1 c 24.49,-10.1 49.83,-19.4 75.32,-27.5 l -8.2,-25.8 m -152.32,63.2 c -24.31,12.7 -48.35,26.6 -71.42,41.4 l 14.67,22.9 c 22.39,-14.4 45.72,-27.9 69.32,-40.3 l -12.57,-24 m 866.47,7.4 -17.39,20.9 c 20.03,16.7 38.65,35.5 55.37,55.9 l 20.99,-17.3 c -17.8,-21.6 -37.63,-41.7 -58.97,-59.5 m -1005.34,81.7 c -21.59,16.8 -42.79,34.8 -63.01,53.5 l 18.44,19.9 c 19.65,-18.2 40.24,-35.6 61.21,-51.9 l -16.64,-21.5 m 1111.4,47 -23.68,13.3 c 12.56,22.4 23.76,46.6 33.26,72 l 25.43,-9.5 c -9.99,-26.7 -21.77,-52.2 -35.01,-75.8 m -1232.57,65.1 c -18.39,20.2 -36.25,41.5 -53.09,63.3 l 21.5,16.6 c 16.37,-21.3 33.75,-42 51.65,-61.6 l -20.06,-18.3 m 1291.53,90.3 -26.44,6.2 c 5.87,25.2 10.5,51.7 13.76,78.8 l 26.96,-3.2 c -3.38,-28.1 -8.18,-55.6 -14.28,-81.8 m -1392.41,40.3 c -15.04,23.1 -29.26,47 -42.28,71 l 23.87,13 c 12.67,-23.4 26.52,-46.7 41.16,-69.1 l -22.75,-14.9"
         style="fill:#ff80a7;fill-opacity:1;fill-rule:nonzero;stroke:none"
         id="path80" />
      <path
         d="m 8868.21,12176.4 c -4.61,0.1 -9.13,0.2 -13.6,0.2 l 13.52,1 c 0.03,-0.4 0.06,-0.8 0.08,-1.2"
         style="fill:#eff8ff;fill-opacity:1;fill-rule:nonzero;stroke:none"
         id="path82" />
      <path
         d="m 8869.93,12094.9 -27.14,0.6 c 0.17,7.3 0.25,14.4 0.25,21.2 0,19.9 -0.67,39.7 -1.99,59 l 13.56,0.9 c 4.47,0 8.99,-0.1 13.6,-0.2 1.31,-19.5 1.97,-39.6 1.97,-59.7 0,-7 -0.08,-14.3 -0.25,-21.8"
         style="fill:#ff80a7;fill-opacity:1;fill-rule:nonzero;stroke:none"
         id="path84" />
      <path
         d="m 7373.16,12168.3 -2.09,13.4 15.03,-9.3 c 0.05,-0.2 0.36,-1.1 0.95,-2.9 -4.66,-0.4 -9.26,-0.8 -13.89,-1.2"
         style="fill:#666666;fill-opacity:1;fill-rule:nonzero;stroke:none"
         id="path86" />
      <path
         d="m 7378.78,12116.3 c -12.21,28.3 -17.94,45.9 -18.55,47.9 l 12.93,4.1 2.09,-13.4 -2.09,13.4 c 4.63,0.4 9.23,0.8 13.89,1.2 2.05,-6 7.42,-21.1 16.66,-42.4 l -24.93,-10.8"
         style="fill:#ff80a7;fill-opacity:1;fill-rule:nonzero;stroke:none"
         id="path88" />
      <path
         d="m 8001.96,6795 -9.21,25.5 c 23.61,8.6 46.05,21.2 66.7,37.5 l 16.85,-21.3 c -22.95,-18.1 -47.96,-32.2 -74.34,-41.7 m 133.09,102.6 -21.65,16.4 c 14.89,19.7 28.82,42.3 41.41,67.2 l 24.23,-12.2 c -13.32,-26.4 -28.13,-50.4 -43.99,-71.4 m 76.47,148 -25.59,9.1 c 8.55,24.1 16.27,50 22.95,76.9 l 26.35,-6.6 c -6.89,-27.7 -14.87,-54.4 -23.71,-79.4 m 40.32,160.5 -26.79,4.4 c 7.74,47.2 9.63,79.5 9.64,79.8 l 27.11,-1.5 c -0.07,-1.4 -1.96,-34 -9.96,-82.7"
         style="fill:#e16688;fill-opacity:1;fill-rule:nonzero;stroke:none"
         id="path90" />
      <path
         d="m 8040.52,5862.8 h -27.15 v 16.3 h 27.15 v -16.3 m 0,97.8 h -27.15 v 81.4 h 27.15 v -81.4 m 0,162.9 h -27.15 v 81.4 h 27.15 v -81.4 m 0,162.9 h -27.15 v 81.4 h 27.15 v -81.4 m -34.18,160.9 -9.32,80.9 26.97,3.1 9.32,-80.9 -26.97,-3.1 m -18.65,161.8 -9.32,80.9 26.96,3.1 9.33,-80.9 -26.97,-3.1 m -18.66,161.8 -9.32,81 26.97,3.1 9.33,-81 -26.98,-3.1 m -18.65,161.9 -9.33,80.9 26.97,3.1 9.33,-80.9 -26.97,-3.1 m -18.66,161.8 -9.33,80.9 26.97,3.1 9.33,-80.9 -26.97,-3.1"
         style="fill:#e16688;fill-opacity:1;fill-rule:nonzero;stroke:none"
         id="path92" />
      <path
         d="m 9525.44,3607.3 c -12.59,0 -24.86,0.1 -36.75,0.3 l 0.4,27.1 c 11.78,-0.2 23.94,-0.2 36.41,-0.2 14.53,0 29.47,0.1 44.71,0.3 l 0.36,-27.2 c -15.38,-0.2 -30.46,-0.3 -45.13,-0.3 m 126.89,2.1 -0.82,27.2 c 25.7,0.7 53.07,1.7 81.35,2.9 l 1.14,-27.1 c -28.39,-1.2 -55.87,-2.2 -81.67,-3 m -245.8,1.3 c -14.17,1 -26.9,2.3 -37.84,3.8 l 3.67,26.9 c 10.36,-1.4 22.51,-2.6 36.12,-3.6 l -1.95,-27.1 m 409.05,5.5 -1.39,27.1 c 28.5,1.5 55.88,3 81.32,4.5 l 1.6,-27.1 c -25.51,-1.5 -52.95,-3 -81.53,-4.5 m 163.03,9.6 -1.79,27.1 c 49.38,3.3 81.08,5.7 81.38,5.7 l 2,-27.1 c -0.3,0 -32.1,-2.4 -81.59,-5.7"
         style="fill:#d16681;fill-opacity:1;fill-rule:nonzero;stroke:none"
         id="path94" />
      <path
         d="m 7218.8,3607.3 c -12.59,0 -24.86,0.1 -36.75,0.3 l 0.39,27.1 c 11.78,-0.2 23.95,-0.2 36.42,-0.2 14.53,0 29.47,0.1 44.71,0.3 l 0.36,-27.2 c -15.39,-0.2 -30.47,-0.3 -45.13,-0.3 m 126.88,2.1 -0.81,27.2 c 25.69,0.7 53.07,1.7 81.35,2.9 l 1.13,-27.1 c -28.38,-1.2 -55.86,-2.2 -81.67,-3 m -245.8,1.3 c -14.17,1 -26.89,2.3 -37.83,3.8 l 3.66,26.9 c 10.37,-1.4 22.52,-2.6 36.13,-3.6 l -1.96,-27.1 m 409.05,5.5 -1.39,27.1 c 28.51,1.5 55.88,3 81.32,4.5 l 1.6,-27.1 c -25.5,-1.5 -52.95,-3 -81.53,-4.5 m 163.04,9.6 -1.8,27.1 c 49.34,3.3 81.04,5.7 81.35,5.7 l 2.08,-27.1 c -0.31,0 -32.14,-2.4 -81.63,-5.7"
         style="fill:#e16688;fill-opacity:1;fill-rule:nonzero;stroke:none"
         id="path96" />
      <path
         d="m 10191.3,2940.1 c 13.5,0 24.4,11 24.4,24.5 v 101.2 c 0,13.5 -10.9,24.4 -24.4,24.4 -13.5,0 -24.4,-10.9 -24.4,-24.4 v -101.2 c 0,-13.5 10.9,-24.5 24.4,-24.5"
         style="fill:#ffffff;fill-opacity:1;fill-rule:nonzero;stroke:none"
         id="path98" />
      <path
         d="m 10081.4,2940.1 c 13.5,0 24.4,11 24.4,24.5 v 101.2 c 0,13.5 -10.9,24.4 -24.4,24.4 -13.5,0 -24.4,-10.9 -24.4,-24.4 v -101.2 c 0,-13.5 10.9,-24.5 24.4,-24.5"
         style="fill:#ffffff;fill-opacity:1;fill-rule:nonzero;stroke:none"
         id="path100" />
      <path
         d="m 10477.2,2827.8 h -81.4 c -7.5,0 -13.6,6.1 -13.6,13.6 0,7.5 6.1,13.6 13.6,13.6 h 81.4 c 7.5,0 13.6,-6.1 13.6,-13.6 0,-7.5 -6.1,-13.6 -13.6,-13.6 m -162.9,0 h -81.4 c -7.5,0 -13.6,6.1 -13.6,13.6 0,7.5 6.1,13.6 13.6,13.6 h 81.4 c 7.5,0 13.6,-6.1 13.6,-13.6 0,-7.5 -6.1,-13.6 -13.6,-13.6 m -162.9,0 h -81.4 c -7.5,0 -13.6,6.1 -13.6,13.6 0,7.5 6.1,13.6 13.6,13.6 h 81.4 c 7.5,0 13.6,-6.1 13.6,-13.6 0,-7.5 -6.1,-13.6 -13.6,-13.6 m -162.88,0 h -81.45 c -7.5,0 -13.57,6.1 -13.57,13.6 0,7.5 6.07,13.6 13.57,13.6 h 81.45 c 7.5,0 13.58,-6.1 13.58,-13.6 0,-7.5 -6.08,-13.6 -13.58,-13.6 m -162.89,0 h -81.45 c -7.5,0 -13.58,6.1 -13.58,13.6 0,7.5 6.08,13.6 13.58,13.6 h 81.45 c 7.49,0 13.57,-6.1 13.57,-13.6 0,-7.5 -6.08,-13.6 -13.57,-13.6"
         style="fill:#8d8d8d;fill-opacity:1;fill-rule:nonzero;stroke:none"
         id="path102" />
      <path
         d="m 7102.48,2740.5 h 916.82 c 0,179.6 -145.66,325.3 -325.33,325.3 h -591.49 v -325.3"
         style="fill:#1a1a1a;fill-opacity:1;fill-rule:nonzero;stroke:none"
         id="path104" />
      <path
         d="m 7627.29,2940.1 c 13.5,0 24.43,11 24.43,24.5 v 101.2 c 0,13.5 -10.93,24.4 -24.43,24.4 -13.49,0 -24.44,-10.9 -24.44,-24.4 v -101.2 c 0,-13.5 10.95,-24.5 24.44,-24.5"
         style="fill:#ffffff;fill-opacity:1;fill-rule:nonzero;stroke:none"
         id="path106" />
      <path
         d="m 7517.42,2940.1 c 13.49,0 24.43,11 24.43,24.5 v 101.2 c 0,13.5 -10.94,24.4 -24.43,24.4 -13.5,0 -24.44,-10.9 -24.44,-24.4 v -101.2 c 0,-13.5 10.94,-24.5 24.44,-24.5"
         style="fill:#ffffff;fill-opacity:1;fill-rule:nonzero;stroke:none"
         id="path108" />
      <path
         d="m 7913.21,2827.8 h -81.44 c -7.51,0 -13.58,6.1 -13.58,13.6 0,7.5 6.07,13.6 13.58,13.6 h 81.44 c 7.5,0 13.57,-6.1 13.57,-13.6 0,-7.5 -6.07,-13.6 -13.57,-13.6 m -162.89,0 h -81.45 c -7.5,0 -13.58,6.1 -13.58,13.6 0,7.5 6.08,13.6 13.58,13.6 h 81.45 c 7.49,0 13.57,-6.1 13.57,-13.6 0,-7.5 -6.08,-13.6 -13.57,-13.6 m -162.9,0 h -81.45 c -7.5,0 -13.57,6.1 -13.57,13.6 0,7.5 6.07,13.6 13.57,13.6 h 81.45 c 7.5,0 13.57,-6.1 13.57,-13.6 0,-7.5 -6.07,-13.6 -13.57,-13.6 m -162.89,0 h -81.45 c -7.5,0 -13.58,6.1 -13.58,13.6 0,7.5 6.08,13.6 13.58,13.6 h 81.45 c 7.49,0 13.57,-6.1 13.57,-13.6 0,-7.5 -6.08,-13.6 -13.57,-13.6 m -162.9,0 h -81.45 c -7.5,0 -13.57,6.1 -13.57,13.6 0,7.5 6.07,13.6 13.57,13.6 h 81.45 c 7.5,0 13.57,-6.1 13.57,-13.6 0,-7.5 -6.07,-13.6 -13.57,-13.6"
         style="fill:#8d8d8d;fill-opacity:1;fill-rule:nonzero;stroke:none"
         id="path110" />
      <path
         d="m 7034.93,10582.2 c 36.61,-400.6 149.67,-1989.3 1457.47,-1989.3 0,0 421.66,455.4 742.13,455.4 320.47,0 -219.27,-283.8 -219.27,-283.8 l 451.06,-142.6 c 54.46,-17.3 91.47,-67.8 91.47,-124.9 v -65.3 l 32.53,-19.1 c 34.15,-20 55.12,-56.6 55.12,-96.2 v -12.2 c 0,-61.6 -49.94,-111.6 -111.56,-111.6 l -18.74,-129.7 c -4.73,-32.7 -32.8,-57 -65.88,-57 l -7.47,-47.6 c -10.51,-67.1 -62.51,-120.1 -129.4,-131.6 -178.01,-30.7 -539.51,-60.7 -882.39,106.4 -472.29,230.1 -2303.18,101.6 -2593.09,2545.5 430.83,10.3 993.41,77.3 1198.02,103.6"
         style="fill:#ffb8a3;fill-opacity:1;fill-rule:nonzero;stroke:none"
         id="path112" />
      <path
         d="m 7060.59,10329.1 v 0 c -12.86,105 -20.14,192.6 -25.66,253.1 l 25.66,-253.1"
         style="fill:#f52766;fill-opacity:1;fill-rule:nonzero;stroke:none"
         id="path114" />
      <path
         d="m 5847.75,10393.7 c -1.03,0.1 -2.06,0.2 -3.08,0.3 -4.62,33.7 -7.76,64.1 -7.76,84.6 v 0 c 3.39,-28.5 7.04,-57.1 10.84,-84.9"
         style="fill:#100005;fill-opacity:1;fill-rule:nonzero;stroke:none"
         id="path116" />
      <path
         d="m 5836.91,10478.6 v 0 0 c 0.02,-0.2 -0.01,0.1 0,0 v 0 m 0,0 c 0,0 273.86,12.8 575.55,35.7 -190.94,-17.1 -394.82,-31.4 -575.55,-35.7"
         style="fill:#f52766;fill-opacity:1;fill-rule:nonzero;stroke:none"
         id="path118" />
      <path
         d="m 7060.59,10329.1 c -120.97,2.3 -772.59,15 -1212.84,64.6 -3.8,27.8 -7.45,56.4 -10.84,84.9 -0.01,0.1 0.02,-0.2 0,0 v 0 c 180.73,4.3 384.61,18.6 575.55,35.7 226.46,17.3 468.59,40.2 622.47,67.9 v 0 c 5.52,-60.5 12.8,-148.1 25.65,-253.1"
         style="fill:#f5a597;fill-opacity:1;fill-rule:nonzero;stroke:none"
         id="path120" />
      <path
         d="m 8609.94,13100.3 c 0,-61.5 49.87,-111.4 111.4,-111.4 61.52,0 86.8,49.9 86.8,111.4 0,61.5 -25.28,111.4 -86.8,111.4 -61.53,0 -111.4,-49.9 -111.4,-111.4"
         style="fill:#ffb8a3;fill-opacity:1;fill-rule:nonzero;stroke:none"
         id="path122" />
      <path
         d="m 7658.01,13100.3 c 0,-61.5 -49.88,-111.4 -111.4,-111.4 -61.53,0 -86.81,49.9 -86.81,111.4 0,61.5 25.28,111.4 86.81,111.4 61.52,0 111.4,-49.9 111.4,-111.4"
         style="fill:#ffb8a3;fill-opacity:1;fill-rule:nonzero;stroke:none"
         id="path124" />
      <path
         d="m 8706.2,13523.7 c 0,0 315.02,-1213.4 -449.18,-1213.4 -764.2,0 -662.7,728.9 -662.7,728.9 l 50.74,613.6 826.1,26.5 235.04,-155.6"
         style="fill:#ffb8a3;fill-opacity:1;fill-rule:nonzero;stroke:none"
         id="path126" />
      <path
         d="m 8164.86,13150.2 c 0,-30.4 24.67,-55.1 55.1,-55.1 30.44,0 55.11,24.7 55.11,55.1 0,30.4 -24.67,55.1 -55.11,55.1 -30.43,0 -55.1,-24.7 -55.1,-55.1"
         style="fill:#000000;fill-opacity:1;fill-rule:nonzero;stroke:none"
         id="path128" />
      <path
         d="m 8503.34,13150.2 c 0,-30.4 24.67,-55.1 55.11,-55.1 30.43,0 55.1,24.7 55.1,55.1 0,30.4 -24.67,55.1 -55.1,55.1 -30.44,0 -55.11,-24.7 -55.11,-55.1"
         style="fill:#000000;fill-opacity:1;fill-rule:nonzero;stroke:none"
         id="path130" />
      <path
         d="m 8444.88,12784.9 c -1.82,0 -3.66,0.1 -5.5,0.3 -15.93,0.8 -30.07,7.4 -44.55,13.4 -1.45,0.6 -1.07,3 0.49,3.1 16.05,2 32.7,-0.1 48.04,4.7 26.69,8.4 44.85,32.5 47.42,59.5 1.85,15.3 -3.73,27.3 -10.08,42.1 l -19.83,46.3 c -18.83,45.1 -39.44,95 -57.27,140.1 -0.49,1.2 0.51,2.1 1.5,2.1 0.49,0 0.99,-0.2 1.28,-0.8 23.96,-42.3 49.69,-89.6 72.94,-132.6 l 23.58,-44.5 c 7.13,-12.9 16.36,-29.5 17.71,-45.7 6.98,-44.3 -31.81,-88 -75.73,-88"
         style="fill:#ec938b;fill-opacity:1;fill-rule:nonzero;stroke:none"
         id="path132" />
      <path
         d="m 8471.16,12596.9 c -37.55,5.6 -75.81,11.1 -101.14,40.9 -7.95,9.3 -14.85,20.4 -22.38,32.8 -10.82,-68.8 68.46,-107.4 123.52,-73.7"
         style="fill:#000000;fill-opacity:1;fill-rule:nonzero;stroke:none"
         id="path134" />
      <path
         d="m 8567.49,13173.1 c 0,-6.8 5.5,-12.3 12.28,-12.3 6.78,0 12.28,5.5 12.28,12.3 0,6.8 -5.5,12.3 -12.28,12.3 -6.78,0 -12.28,-5.5 -12.28,-12.3"
         style="fill:#ffffff;fill-opacity:1;fill-rule:nonzero;stroke:none"
         id="path136" />
      <path
         d="m 8229.01,13173.1 c 0,-6.8 5.49,-12.3 12.28,-12.3 6.78,0 12.28,5.5 12.28,12.3 0,6.8 -5.5,12.3 -12.28,12.3 -6.79,0 -12.28,-5.5 -12.28,-12.3"
         style="fill:#ffffff;fill-opacity:1;fill-rule:nonzero;stroke:none"
         id="path138" />
      <path
         d="m 5745.84,10702.4 -0.96,13.5 h 0.07 l 0.92,-13.4 c -0.01,-0.1 -0.02,-0.1 -0.03,-0.1"
         style="fill:#666666;fill-opacity:1;fill-rule:nonzero;stroke:none"
         id="path140" />
      <path
         d="m 5746.8,10688.8 -0.96,13.6 c 0.01,0 0.02,0 0.03,0.1 l 0.93,-13.7 m 81.1,3.8 -1.26,27.1 81.37,3.7 1.25,-27.1 -81.36,-3.7 m 162.73,7.5 -1.26,27.1 81.36,3.8 1.25,-27.1 -81.35,-3.8 m 162.72,7.5 -1.26,27.2 81.36,3.7 1.26,-27.1 -81.36,-3.8 m 162.71,7.6 -1.24,27.1 81.35,3.8 1.26,-27.2 -81.37,-3.7 m 162.73,7.5 -1.26,27.1 81.37,3.8 1.25,-27.1 -81.36,-3.8 m 162.71,7.5 -1.25,27.1 81.37,3.8 1.25,-27.1 -81.37,-3.8 m 162.72,7.6 -1.24,27.1 81.36,3.7 1.24,-27.1 -81.36,-3.7 m 162.73,7.5 -1.26,27.1 8.61,0.4 -7.13,-27.5 h -0.22 m 79.77,3.7 0.96,13.6 0.63,-13.5 -1.59,-0.1"
         style="fill:#ff80a7;fill-opacity:1;fill-rule:nonzero;stroke:none"
         id="path142" />
      <path
         d="m 6967.17,10745.3 7.13,27.5 72.75,3.4 0.63,-13.6 -0.96,-13.6 -79.55,-3.7"
         style="fill:#e682ac;fill-opacity:1;fill-rule:nonzero;stroke:none"
         id="path144" />
      <path
         d="m 10072.4,10818.9 c -27.1,0 -54.6,0.5 -81.77,1.3 l 0.8,27.1 c 26.97,-0.8 54.27,-1.2 81.07,-1.3 l -0.1,-27.1 m 81.8,0.8 -0.6,27.1 c 27,0.6 54.2,1.6 81.1,2.9 l 1.3,-27.1 c -27.1,-1.3 -54.6,-2.3 -81.8,-2.9 m -245.3,4 c -27.21,1.6 -54.67,3.5 -81.62,5.7 l 2.27,27.1 c 26.7,-2.2 53.91,-4.2 80.88,-5.7 l -1.53,-27.1 m 408.8,4.1 -2.1,27.1 c 27.2,2 54.3,4.5 80.7,7.3 l 2.9,-27 c -26.7,-2.8 -54.1,-5.3 -81.5,-7.4 m -571.86,9.6 c -11.5,1.3 -23.05,2.6 -34.59,4.1 l -12.19,28.9 c 16.58,-2.2 33.24,-4.2 49.8,-6 l -3.02,-27"
         style="fill:#ff80a7;fill-opacity:1;fill-rule:nonzero;stroke:none"
         id="path146" />
      <path
         d="m 9711.25,10841.5 c -15.6,1.9 -31.18,4 -46.6,6.1 l 3.78,26.9 c 10.15,-1.4 20.38,-2.8 30.63,-4.1 l 12.19,-28.9"
         style="fill:#e682ac;fill-opacity:1;fill-rule:nonzero;stroke:none"
         id="path148" />
      <path
         d="m 10558.8,10873.1 c -0.8,4 -1.7,8 -2.6,12 0.1,0 0.1,0 0.2,0 l 2.4,-12"
         style="fill:#eff8ff;fill-opacity:1;fill-rule:nonzero;stroke:none"
         id="path150" />
      <path
         d="m 10480.5,10845.2 -3.7,26.9 c 48.5,6.8 76.9,12.5 79.4,13 0.9,-4 1.8,-8 2.6,-12 l 3,-14.6 c -1.2,-0.2 -29.7,-6.1 -81.3,-13.3"
         style="fill:#ff80a7;fill-opacity:1;fill-rule:nonzero;stroke:none"
         id="path152" />
      <path
         d="m 7199.05,12744 c 0,0 1146.75,196.7 1136.52,963.5 -5.92,444.5 -1136.52,-216.3 -1136.52,-216.3 V 12744"
         style="fill:#000000;fill-opacity:1;fill-rule:nonzero;stroke:none"
         id="path154" />
      <path
         d="m 8275.07,13679.3 c 0,0 334.87,-579 548.26,-645 l -56.2,601.1 -244.33,268.6 -247.73,-224.7"
         style="fill:#000000;fill-opacity:1;fill-rule:nonzero;stroke:none"
         id="path156" />
      <path
         d="m 7882.55,9981.6 -354.06,106.9 v 556 l 726.89,26.7 v -563.1 l -372.83,-126.5 m 345.53,661.3 -672.3,-24.7 v -509.4 l 326.28,-98.5 346.02,117.4 v 515.2"
         style="fill:#ff80a7;fill-opacity:1;fill-rule:nonzero;stroke:none"
         id="path158" />
      <path
         d="m 8203.12,10763 -0.71,27.3 54.57,1.4 0.7,-27.3 -54.56,-1.4"
         style="fill:#ff80a7;fill-opacity:1;fill-rule:nonzero;stroke:none"
         id="path160" />
      <path
         d="m 7718.27,10750.4 -0.71,27.3 121.21,3.1 0.71,-27.3 -121.21,-3.1 m 242.43,6.3 -0.72,27.3 121.22,3.1 0.71,-27.2 -121.21,-3.2"
         style="fill:#ff80a7;fill-opacity:1;fill-rule:nonzero;stroke:none"
         id="path162" />
      <path
         d="m 7542.49,10745.8 -0.71,27.3 54.56,1.4 0.72,-27.3 -54.57,-1.4"
         style="fill:#ff80a7;fill-opacity:1;fill-rule:nonzero;stroke:none"
         id="path164" />
      <path
         d="m 18875,12376.5 40.5,575.7 393.2,-75.1 v -696.4 l -433.7,195.8"
         style="fill:#ffb8a3;fill-opacity:1;fill-rule:nonzero;stroke:none"
         id="path166" />
      <path
         d="m 18885.5,12525.4 1.1,20.7 c 0.1,-0.1 0.2,-0.1 0.3,-0.1 l -1.4,-20.6 m 423.2,41 v 39.2 c 1.9,0.8 3.8,1.7 5.7,2.5 l -5.7,-41.7 v 0"
         style="fill:#dedbea;fill-opacity:1;fill-rule:nonzero;stroke:none"
         id="path168" />
      <path
         d="m 19067.7,12501.3 c -101,0 -182.3,24 -182.3,24 l 0.1,0.1 1.4,20.6 c 25,-3 51.3,-4.5 79,-4.5 141.2,0 253.5,24.3 342.8,64.1 v -39.2 c -73.1,-50.8 -162.9,-65.1 -241,-65.1"
         style="fill:#f5a597;fill-opacity:1;fill-rule:nonzero;stroke:none"
         id="path170" />
      <path
         d="m 16763,10850 c 0,0 -608.4,-2115.7 -1783.1,-2115.7 0,0 -431.8,466.4 -760,466.4 -328.2,0 224.5,-290.6 224.5,-290.6 L 13982.5,8764 c -55.8,-17.7 -93.7,-69.4 -93.7,-127.9 v -66.9 l -33.3,-19.5 c -35,-20.5 -56.5,-58.1 -56.5,-98.6 v -12.5 c 0,-63.1 51.2,-114.2 114.3,-114.2 l 19.2,-132.9 c 4.8,-33.5 33.6,-58.4 67.5,-58.4 l 7.6,-48.8 c 10.8,-68.6 64,-122.9 132.5,-134.7 182.3,-31.4 552.6,-62.2 903.7,108.9 490.9,239.2 2414.8,100 2668,2720.1 l -219.4,274.2 -729.4,-202.8"
         style="fill:#ffb8a3;fill-opacity:1;fill-rule:nonzero;stroke:none"
         id="path172" />
      <path
         d="m 16745.7,10793.7 c -0.4,0.2 -0.8,0.4 -1.1,0.6 l 18.4,55.7 v 0 c -0.1,-0.3 -5.9,-20.3 -17.3,-56.3"
         style="fill:#dedbea;fill-opacity:1;fill-rule:nonzero;stroke:none"
         id="path174" />
      <path
         d="m 17553.7,10612.8 c -189.3,0.4 -517.1,27.1 -808,180.9 11.4,36 17.2,56 17.3,56.3 71.7,-10.5 163.3,-18.9 273.1,-18.9 105.7,0 228.3,7.8 366.6,28.8 l 2.5,0.4 c 57.6,7.8 114.7,18.4 171.2,31.7 0,0 -9.1,-105.6 -22.7,-279.2"
         style="fill:#f5a597;fill-opacity:1;fill-rule:nonzero;stroke:none"
         id="path176" />
      <path
         d="m 18278.5,12272.5 c 0,0 502.9,333.6 1528.5,36.1 0,0 -483.1,-677.7 -901.2,-677.7 -418.2,0 -627.3,641.6 -627.3,641.6"
         style="fill:#ffb8a3;fill-opacity:1;fill-rule:nonzero;stroke:none"
         id="path178" />
      <path
         d="m 17522.4,2740.5 h -939 c 0,184 149.2,333.1 333.2,333.1 h 605.8 v -333.1"
         style="fill:#1a1a1a;fill-opacity:1;fill-rule:nonzero;stroke:none"
         id="path180" />
      <path
         d="m 17522.4,3073.6 155.4,699.2 -425.2,41.5 -65,-740.7 h 334.8"
         style="fill:#ffb8a3;fill-opacity:1;fill-rule:nonzero;stroke:none"
         id="path182" />
      <path
         d="m 17052.9,3496.8 c 0,0 402.1,-87 818.9,0 l 393.7,2229 1282,2663.4 -1551.6,254.7 -969.5,-2700.4 26.5,-2446.7"
         style="fill:#004a89;fill-opacity:1;fill-rule:nonzero;stroke:none"
         id="path184" />
      <path
         d="m 17818.8,5233.5 -27.2,5.4 8.5,43.6 27.3,-5.4 -8.6,-43.6 m 24.6,125.5 -27.3,5.3 16.1,81.9 27.3,-5.4 -16.1,-81.8 m 32.1,163.7 -27.3,5.3 16,81.9 27.3,-5.3 -16,-81.9 m 32.1,163.7 -27.3,5.4 16,81.8 27.3,-5.3 -16,-81.9 m 32,163.7 -27.2,5.4 16,81.8 27.3,-5.3 -16.1,-81.9 m 32.1,163.8 -27.3,5.3 7.1,36.2 21.4,45.2 25.1,-11.9 -19.9,-42 -6.4,-32.8 m 62,150.2 -25.2,11.9 35.7,75.4 25.1,-11.9 -35.6,-75.4 m 71.3,150.9 -25.2,11.8 35.7,75.5 25.1,-11.9 -35.6,-75.4 m 71.3,150.8 -25.2,11.9 35.7,75.4 25.1,-11.9 -35.6,-75.4 m 71.3,150.8 -25.2,11.9 35.7,75.4 25.1,-11.9 -35.6,-75.4 m 71.3,150.8 -25.2,11.9 17.4,36.8 8.3,-47.7 -0.5,-1"
         style="fill:#6692b8;fill-opacity:1;fill-rule:nonzero;stroke:none"
         id="path186" />
      <path
         d="m 20148.3,3073.6 -122.2,719.9 -425.2,41.6 212.6,-761.5 h 334.8"
         style="fill:#ffb8a3;fill-opacity:1;fill-rule:nonzero;stroke:none"
         id="path188" />
      <path
         d="m 19484.8,3496.8 c 0,0 402.2,-87 819,0 l -573.5,2040.1 209.3,2649.2 -1943.7,457.8 521.3,-3022.8 967.6,-2124.3"
         style="fill:#0058a3;fill-opacity:1;fill-rule:nonzero;stroke:none"
         id="path190" />
      <path
         d="m 18528.7,12399 c 0,0 -1716.2,182.7 -1951.8,-1507 0,0 366.9,-137 999.5,0 0,0 -214.3,-2501.8 -136.5,-3184.2 0,0 1765.8,-423.6 2644.1,-423.6 0,0 197.1,2560.3 133.5,3487.4 0,0 741.5,-107.9 1377.6,-107.9 0,0 -285,1741.1 -1920.5,1741.1 0,0 -135.7,-523.3 -696,-523.3 -560.3,0 -449.9,517.5 -449.9,517.5"
         style="fill:#0196ff;fill-opacity:1;fill-rule:nonzero;stroke:none"
         id="path192" />
      <path
         d="m 19424.6,10102.3 -379.9,128.9 v 573.6 l 740.6,-27.1 v -566.5 l -360.7,-108.9 m -352.1,673.7 v -524.9 l 352.6,-119.6 332.4,100.4 v 519 l -685,25.1"
         style="fill:#67c0ff;fill-opacity:1;fill-rule:nonzero;stroke:none"
         id="path194" />
      <path
         d="m 19098,10898.4 -55.6,1.4 0.7,27.8 55.6,-1.4 -0.7,-27.8"
         style="fill:#67c0ff;fill-opacity:1;fill-rule:nonzero;stroke:none"
         id="path196" />
      <path
         d="m 19591.9,10885.5 -123.5,3.2 0.8,27.8 123.4,-3.2 -0.7,-27.8 m -247,6.4 -123.4,3.3 0.7,27.7 123.5,-3.2 -0.8,-27.8"
         style="fill:#67c0ff;fill-opacity:1;fill-rule:nonzero;stroke:none"
         id="path198" />
      <path
         d="m 19771,10880.8 -55.6,1.5 0.7,27.8 55.6,-1.5 -0.7,-27.8"
         style="fill:#67c0ff;fill-opacity:1;fill-rule:nonzero;stroke:none"
         id="path200" />
      <path
         d="m 17402.7,10859.9 c 55.4,8.5 113.3,19 173.7,32.1 v 0 c -56.5,-13.3 -113.6,-23.9 -171.2,-31.7 l -2.5,-0.4"
         style="fill:#cd9095;fill-opacity:1;fill-rule:nonzero;stroke:none"
         id="path202" />
      <path
         d="m 17401.7,10859.8 74.8,177.4 c 16,2 32,4.1 47.8,6.3 l -3.9,27.5 c -10.4,-1.4 -20.9,-2.8 -31.4,-4.2 l 137.1,325.1 -49.7,-499.9 v 0 0 c -60.4,-13.1 -118.3,-23.6 -173.7,-32.1 l -1,-0.1"
         style="fill:#0a84e9;fill-opacity:1;fill-rule:nonzero;stroke:none"
         id="path204" />
      <path
         d="m 20217.5,10771.6 v 0 0 0 0"
         style="fill:#c0cfe9;fill-opacity:1;fill-rule:nonzero;stroke:none"
         id="path206" />
      <path
         d="m 20333.9,10757.1 c -45.8,5.6 -85.2,10.5 -116.4,14.5 v 0 0 l -12.1,170.9 81.5,-3.8 47,-181.6 m -129.5,199.3 -29.2,413.3 104.4,-402.8 -74.5,3.4 -0.7,-13.9"
         style="fill:#0a84e9;fill-opacity:1;fill-rule:nonzero;stroke:none"
         id="path208" />
      <path
         d="m 18926.8,11738.7 -0.1,27.9 c 10.1,0 20.4,0.2 30.8,0.5 17.3,0.6 34.6,1.5 51.5,2.8 l 2.1,-27.8 c -17.3,-1.3 -35,-2.2 -52.7,-2.8 -10.6,-0.3 -21.3,-0.5 -31.6,-0.6 m -84.5,3.6 c -29.1,2.7 -57.3,6.8 -84,12.4 l 5.7,27.2 c 25.6,-5.4 52.8,-9.3 80.8,-11.9 l -2.5,-27.7 m 252.6,9.2 -4.1,27.5 c 27.3,4 54.5,9.1 80.8,15.1 l 6.2,-27 c -27,-6.2 -54.9,-11.5 -82.9,-15.6 m -418.6,26.1 c -27.4,9.9 -53.6,21.8 -77.8,35.4 l 13.6,24.2 c 22.9,-12.8 47.7,-24.1 73.6,-33.4 l -9.4,-26.2 m 582.9,11.6 -8.4,26.5 c 26.1,8.3 52.1,17.7 77.2,28.1 l 10.6,-25.6 c -25.8,-10.7 -52.5,-20.5 -79.4,-29 m 156,64.7 -12.8,24.7 c 24.1,12.6 48,26.5 71,41.2 l 15,-23.4 c -23.7,-15.1 -48.3,-29.4 -73.2,-42.5 m -887.4,7.7 c -21.8,18.2 -42.1,38.7 -60.4,60.9 l 21.5,17.7 c 17.2,-20.9 36.2,-40.2 56.7,-57.3 l -17.8,-21.3 m 1029.7,83.7 -17.1,21.9 c 21.5,16.7 42.6,34.6 62.7,53.2 l 18.9,-20.4 c -20.7,-19.2 -42.4,-37.6 -64.5,-54.7 m -1138.3,48.1 c -13.5,24.1 -25.6,50.2 -35.8,77.5 l 26,9.8 c 9.7,-26 21.2,-50.8 34.1,-73.7 l -24.3,-13.6 m 1262.4,66.6 -20.6,18.8 c 18.3,20.1 36.1,41.3 52.9,63 l 22,-17 c -17.2,-22.3 -35.5,-44.1 -54.3,-64.8 m -1322.8,92.5 c -6.2,26.8 -11.1,55 -14.6,83.7 l 27.6,3.4 c 3.3,-27.8 8.1,-54.9 14.1,-80.7 l -27.1,-6.4 m 1426.1,41.3 -23.3,15.2 c 15,23 29.2,46.8 42.1,70.8 l 24.5,-13.3 c -13.4,-24.6 -27.9,-49 -43.3,-72.7"
         style="fill:#67c0ff;fill-opacity:1;fill-rule:nonzero;stroke:none"
         id="path210" />
      <path
         d="m 18339.9,12404.4 c 0.1,0.4 0.1,0.8 0.1,1.2 l 13.9,-1 c -4.6,-0.1 -9.2,-0.1 -14,-0.2"
         style="fill:#eff8ff;fill-opacity:1;fill-rule:nonzero;stroke:none"
         id="path212" />
      <path
         d="m 18338.2,12320.9 c -0.2,7.6 -0.3,15.1 -0.3,22.3 0,20.6 0.7,41.2 2,61.2 4.8,0.1 9.4,0.1 14,0.2 l 13.9,-0.9 c -1.4,-19.8 -2.1,-40.1 -2.1,-60.5 0,-7 0.1,-14.2 0.3,-21.7 l -27.8,-0.6"
         style="fill:#67c0ff;fill-opacity:1;fill-rule:nonzero;stroke:none"
         id="path214" />
      <path
         d="m 19871.1,12396.1 c -4.7,0.4 -9.4,0.8 -14.2,1.2 0.6,1.8 0.9,2.8 1,3 l 15.3,9.5 -2.1,-13.7"
         style="fill:#eff8ff;fill-opacity:1;fill-rule:nonzero;stroke:none"
         id="path216" />
      <path
         d="m 19865.3,12342.8 -25.5,11 c 9.5,21.9 15,37.4 17.1,43.5 4.8,-0.4 9.5,-0.8 14.2,-1.2 l -2.1,-13.8 2.1,13.8 13.2,-4.3 c -0.6,-2 -6.4,-20 -19,-49"
         style="fill:#67c0ff;fill-opacity:1;fill-rule:nonzero;stroke:none"
         id="path218" />
      <path
         d="m 19227.1,6892.9 c -27,9.8 -52.6,24.2 -76.1,42.8 l 17.2,21.8 c 21.2,-16.8 44.2,-29.7 68.4,-38.4 l -9.5,-26.2 m -136.3,105.1 c -16.2,21.5 -31.4,46.1 -45,73.1 l 24.8,12.6 c 12.9,-25.6 27.1,-48.7 42.4,-68.9 l -22.2,-16.8 m -78.3,151.6 c -9.1,25.6 -17.2,52.9 -24.3,81.4 l 27,6.7 c 6.8,-27.6 14.7,-54.1 23.5,-78.8 l -26.2,-9.3 m -41.3,164.3 c -8.2,50 -10.1,83.3 -10.2,84.7 l 13.9,0.8 c 4.7,-0.7 9.3,-1.5 14.1,-2.3 0.6,-9.2 3.1,-38.7 9.6,-78.7 l -27.4,-4.5"
         style="fill:#669bc8;fill-opacity:1;fill-rule:nonzero;stroke:none"
         id="path220" />
      <path
         d="m 18989,7397.1 c -4.8,0.8 -9.4,1.6 -14.1,2.3 l 13.9,0.8 c 0,-0.1 0,-1.1 0.2,-3.1"
         style="fill:#67c0ff;fill-opacity:1;fill-rule:nonzero;stroke:none"
         id="path222" />
      <path
         d="m 19215.4,5938.2 h -27.8 v 16.8 h 27.8 v -16.8 m 0,100.2 h -27.8 v 83.4 h 27.8 v -83.4 m 0,166.8 h -27.8 v 83.4 h 27.8 v -83.4 m 0,166.8 h -27.8 v 83.4 h 27.8 V 6372 m 7.2,164.8 -27.6,3.2 9.6,82.9 27.6,-3.2 -9.6,-82.9 m 19.1,165.8 -27.6,3.2 9.6,82.8 27.6,-3.2 -9.6,-82.8 m 19.1,165.7 -27.6,3.2 9.6,82.9 27.6,-3.2 -9.6,-82.9 m 19.1,165.7 -27.6,3.2 9.6,82.9 27.6,-3.2 -9.6,-82.9 m 19.2,165.8 -27.7,3.2 9.6,82.8 27.6,-3.2 -9.5,-82.8"
         style="fill:#669bc8;fill-opacity:1;fill-rule:nonzero;stroke:none"
         id="path224" />
      <path
         d="m 17666.8,3628.2 c -15,0 -30.4,0.2 -46.2,0.4 l 0.4,27.8 c 15.6,-0.2 31,-0.3 45.9,-0.3 12.7,0 25.1,0 37.2,0.2 l 0.4,-27.8 c -12.2,-0.2 -24.8,-0.3 -37.7,-0.3 m -129.9,2.2 c -26.5,0.8 -54.6,1.8 -83.7,3 l 1.2,27.8 c 29,-1.2 57,-2.2 83.3,-3 l -0.8,-27.8 m 251.7,1.3 -2,27.8 c 13.9,1 26.4,2.2 37,3.7 l 3.8,-27.6 c -11.2,-1.5 -24.3,-2.8 -38.8,-3.9 m -418.9,5.6 c -29.3,1.5 -57.4,3.1 -83.5,4.7 l 1.6,27.7 c 26.1,-1.5 54.1,-3.1 83.3,-4.6 l -1.4,-27.8 m -167,9.9 c -50.7,3.3 -83.3,5.8 -83.6,5.9 l 2.1,27.7 c 0.4,0 32.8,-2.5 83.4,-5.9 l -1.9,-27.7"
         style="fill:#6692b8;fill-opacity:1;fill-rule:nonzero;stroke:none"
         id="path226" />
      <path
         d="m 20029.2,3628.2 c -15,0 -30.5,0.2 -46.2,0.4 l 0.3,27.8 c 15.7,-0.2 31,-0.3 45.9,-0.3 12.8,0 25.2,0 37.2,0.2 l 0.4,-27.8 c -12.1,-0.2 -24.7,-0.3 -37.6,-0.3 m -129.9,2.2 c -26.5,0.8 -54.6,1.8 -83.7,3 l 1.2,27.8 c 28.9,-1.2 57,-2.2 83.3,-3 l -0.8,-27.8 m 251.7,1.3 -2,27.8 c 13.9,1 26.4,2.2 37,3.7 l 3.7,-27.6 c -11.2,-1.5 -24.2,-2.8 -38.7,-3.9 m -418.9,5.6 c -29.3,1.5 -57.4,3.1 -83.5,4.7 l 1.6,27.7 c 26.1,-1.5 54.1,-3.1 83.3,-4.6 l -1.4,-27.8 m -167,9.9 c -50.7,3.3 -83.3,5.8 -83.6,5.9 l 2.1,27.7 c 0.3,0 32.8,-2.5 83.3,-5.9 l -1.8,-27.7"
         style="fill:#669bc8;fill-opacity:1;fill-rule:nonzero;stroke:none"
         id="path228" />
      <path
         d="m 16984.9,2944.9 c -13.8,0 -25,11.2 -25,25.1 v 103.6 c 0,13.9 11.2,25.1 25,25.1 13.8,0 25,-11.2 25,-25.1 V 2970 c 0,-13.9 -11.2,-25.1 -25,-25.1"
         style="fill:#ffffff;fill-opacity:1;fill-rule:nonzero;stroke:none"
         id="path230" />
      <path
         d="m 17097.4,2944.9 c -13.8,0 -25,11.2 -25,25.1 v 103.6 c 0,13.9 11.2,25.1 25,25.1 13.8,0 25,-11.2 25,-25.1 V 2970 c 0,-13.9 -11.2,-25.1 -25,-25.1"
         style="fill:#ffffff;fill-opacity:1;fill-rule:nonzero;stroke:none"
         id="path232" />
      <path
         d="m 17442.8,2829.9 h -83.4 c -7.7,0 -13.9,6.3 -13.9,13.9 0,7.7 6.2,13.9 13.9,13.9 h 83.4 c 7.7,0 13.9,-6.2 13.9,-13.9 0,-7.6 -6.2,-13.9 -13.9,-13.9 m -166.8,0 h -83.4 c -7.7,0 -13.9,6.3 -13.9,13.9 0,7.7 6.2,13.9 13.9,13.9 h 83.4 c 7.7,0 13.9,-6.2 13.9,-13.9 0,-7.6 -6.2,-13.9 -13.9,-13.9 m -166.9,0 h -83.4 c -7.6,0 -13.9,6.3 -13.9,13.9 0,7.7 6.3,13.9 13.9,13.9 h 83.4 c 7.7,0 14,-6.2 14,-13.9 0,-7.6 -6.3,-13.9 -14,-13.9 m -166.8,0 h -83.4 c -7.7,0 -13.9,6.3 -13.9,13.9 0,7.7 6.2,13.9 13.9,13.9 h 83.4 c 7.7,0 13.9,-6.2 13.9,-13.9 0,-7.6 -6.2,-13.9 -13.9,-13.9 m -166.8,0 h -83.4 c -7.7,0 -13.9,6.3 -13.9,13.9 0,7.7 6.2,13.9 13.9,13.9 h 83.4 c 7.7,0 13.9,-6.2 13.9,-13.9 0,-7.6 -6.2,-13.9 -13.9,-13.9"
         style="fill:#8d8d8d;fill-opacity:1;fill-rule:nonzero;stroke:none"
         id="path234" />
      <path
         d="m 20148.3,2740.5 h -938.9 c 0,184 149.1,333.1 333.1,333.1 h 605.8 v -333.1"
         style="fill:#1a1a1a;fill-opacity:1;fill-rule:nonzero;stroke:none"
         id="path236" />
      <path
         d="m 19610.8,2944.9 c -13.8,0 -25,11.2 -25,25.1 v 103.6 c 0,13.9 11.2,25.1 25,25.1 13.9,0 25.1,-11.2 25.1,-25.1 V 2970 c 0,-13.9 -11.2,-25.1 -25.1,-25.1"
         style="fill:#ffffff;fill-opacity:1;fill-rule:nonzero;stroke:none"
         id="path238" />
      <path
         d="m 19723.4,2944.9 c -13.9,0 -25.1,11.2 -25.1,25.1 v 103.6 c 0,13.9 11.2,25.1 25.1,25.1 13.8,0 25,-11.2 25,-25.1 V 2970 c 0,-13.9 -11.2,-25.1 -25,-25.1"
         style="fill:#ffffff;fill-opacity:1;fill-rule:nonzero;stroke:none"
         id="path240" />
      <path
         d="m 20068.7,2829.9 h -83.4 c -7.6,0 -13.9,6.3 -13.9,13.9 0,7.7 6.3,13.9 13.9,13.9 h 83.4 c 7.7,0 14,-6.2 14,-13.9 0,-7.6 -6.3,-13.9 -14,-13.9 m -166.8,0 h -83.4 c -7.7,0 -13.9,6.3 -13.9,13.9 0,7.7 6.2,13.9 13.9,13.9 h 83.4 c 7.7,0 13.9,-6.2 13.9,-13.9 0,-7.6 -6.2,-13.9 -13.9,-13.9 m -166.8,0 h -83.4 c -7.7,0 -13.9,6.3 -13.9,13.9 0,7.7 6.2,13.9 13.9,13.9 h 83.4 c 7.7,0 13.9,-6.2 13.9,-13.9 0,-7.6 -6.2,-13.9 -13.9,-13.9 m -166.8,0 h -83.5 c -7.6,0 -13.9,6.3 -13.9,13.9 0,7.7 6.3,13.9 13.9,13.9 h 83.5 c 7.6,0 13.9,-6.2 13.9,-13.9 0,-7.6 -6.3,-13.9 -13.9,-13.9 m -166.9,0 h -83.4 c -7.7,0 -13.9,6.3 -13.9,13.9 0,7.7 6.2,13.9 13.9,13.9 h 83.4 c 7.7,0 13.9,-6.2 13.9,-13.9 0,-7.6 -6.2,-13.9 -13.9,-13.9"
         style="fill:#8d8d8d;fill-opacity:1;fill-rule:nonzero;stroke:none"
         id="path242" />
      <path
         d="m 20217.5,10771.6 c -37.5,-410.2 -153.3,-2037.3 -1492.7,-2037.3 0,0 -431.8,466.4 -760,466.4 -328.2,0 224.5,-290.6 224.5,-290.6 L 17727.4,8764 c -55.8,-17.7 -93.7,-69.4 -93.7,-127.9 v -66.9 l -33.3,-19.5 c -35,-20.5 -56.5,-58.1 -56.5,-98.6 v -12.5 c 0,-63.1 51.2,-114.2 114.3,-114.2 l 19.2,-132.9 c 4.8,-33.5 33.6,-58.4 67.5,-58.4 l 7.6,-48.8 c 10.8,-68.6 64,-122.9 132.5,-134.7 182.3,-31.4 552.6,-62.2 903.7,108.9 483.7,235.8 2358.9,104.1 2655.8,2607 -441.3,10.6 -1017.4,79.2 -1227,106.1"
         style="fill:#ffb8a3;fill-opacity:1;fill-rule:nonzero;stroke:none"
         id="path244" />
      <path
         d="m 20191.2,10512.4 26.3,259.2 c -5.6,-61.9 -13.1,-151.6 -26.3,-259.2 v 0"
         style="fill:#1187ea;fill-opacity:1;fill-rule:nonzero;stroke:none"
         id="path246" />
      <path
         d="m 21433.4,10578.6 c 3.9,28.6 7.6,57.6 11.1,86.9 v 0 c 0,-20.9 -3.2,-52.1 -8,-86.6 -1,-0.1 -2.1,-0.2 -3.1,-0.3 m 11.1,86.9 c -3.8,0.1 -7.6,0.2 -11.3,0.3 3.7,-0.1 7.4,-0.2 11.1,-0.3 0.1,0 0.2,0 0.2,0"
         style="fill:#dedbea;fill-opacity:1;fill-rule:nonzero;stroke:none"
         id="path248" />
      <path
         d="m 21444.3,10665.5 c -3.7,0.1 -7.4,0.2 -11.1,0.3 -182.3,4.8 -386.6,19.2 -578.2,36.3 305.3,-23.2 582.7,-36.2 589.3,-36.6"
         style="fill:#1187ea;fill-opacity:1;fill-rule:nonzero;stroke:none"
         id="path250" />
      <path
         d="m 20191.2,10512.4 c 13.2,107.6 20.7,197.3 26.3,259.2 v 0 c 157.6,-28.3 405.6,-51.8 637.5,-69.5 191.6,-17.1 395.9,-31.5 578.2,-36.3 3.7,-0.1 7.5,-0.2 11.3,-0.3 v 0 c -3.5,-29.3 -7.2,-58.3 -11.1,-86.9 -450.9,-50.8 -1118.3,-63.9 -1242.2,-66.2"
         style="fill:#f5a597;fill-opacity:1;fill-rule:nonzero;stroke:none"
         id="path252" />
      <path
         d="m 18604.5,13350.6 c 0,-63.1 -51.1,-114.1 -114.1,-114.1 -63.1,0 -88.9,51 -88.9,114.1 0,63 25.8,114 88.9,114 63,0 114.1,-51 114.1,-114"
         style="fill:#ffb8a3;fill-opacity:1;fill-rule:nonzero;stroke:none"
         id="path254" />
      <path
         d="m 19579.4,13350.6 c 0,-63.1 51.1,-114.1 114.1,-114.1 63,0 88.9,51 88.9,114.1 0,63 -25.9,114 -88.9,114 -63,0 -114.1,-51 -114.1,-114"
         style="fill:#ffb8a3;fill-opacity:1;fill-rule:nonzero;stroke:none"
         id="path256" />
      <path
         d="m 18505.9,13784.2 c 0,0 -322.7,-1242.7 460,-1242.7 782.7,0 678.7,746.5 678.7,746.5 l -52,628.5 -1078.5,197.3 -8.2,-329.6"
         style="fill:#ffb8a3;fill-opacity:1;fill-rule:nonzero;stroke:none"
         id="path258" />
      <path
         d="m 19060.3,13401.7 c 0,-31.2 -25.3,-56.5 -56.5,-56.5 -31.1,0 -56.4,25.3 -56.4,56.5 0,31.1 25.3,56.4 56.4,56.4 31.2,0 56.5,-25.3 56.5,-56.4"
         style="fill:#000000;fill-opacity:1;fill-rule:nonzero;stroke:none"
         id="path260" />
      <path
         d="m 18713.6,13401.7 c 0,-31.2 -25.2,-56.5 -56.4,-56.5 -31.2,0 -56.5,25.3 -56.5,56.5 0,31.1 25.3,56.4 56.5,56.4 31.2,0 56.4,-25.3 56.4,-56.4"
         style="fill:#000000;fill-opacity:1;fill-rule:nonzero;stroke:none"
         id="path262" />
      <path
         d="m 18505.9,13658.2 c 0,0 -63,-298.5 -63,-427 0,0 -17.6,149.1 0,250.6 0,0 -74.9,2.8 -104.7,-86.7 0,0 -214,794.1 388.5,859.8 602.5,65.7 330.9,-143.3 330.9,-143.3 0,0 656,513.2 698.3,-381.9 10.8,-226.3 -121.6,-435 -331.3,-520.6 l -138,-56.4 c 0,0 197,776.8 -291.9,641.2 0,0 -419.5,100.4 -488.8,-135.7"
         style="fill:#000000;fill-opacity:1;fill-rule:nonzero;stroke:none"
         id="path264" />
      <path
         d="m 18773.5,13027.6 c -45,0 -84.7,44.7 -77.6,90.1 1.4,16.5 10.9,33.5 18.2,46.8 l 24.1,45.6 c 23.8,44 50.2,92.5 74.7,135.8 0.3,0.5 0.8,0.8 1.3,0.8 1,0 2.1,-0.9 1.6,-2.1 -18.3,-46.3 -39.4,-97.4 -58.7,-143.5 l -20.3,-47.5 c -6.5,-15.1 -12.2,-27.4 -10.3,-43.1 2.6,-27.6 21.2,-52.3 48.6,-60.9 15.7,-5 32.7,-2.8 49.2,-4.9 1.5,0 1.9,-2.5 0.5,-3.1 -14.9,-6.2 -29.4,-12.9 -45.7,-13.8 -1.9,-0.1 -3.7,-0.2 -5.6,-0.2"
         style="fill:#ec938b;fill-opacity:1;fill-rule:nonzero;stroke:none"
         id="path266" />
      <path
         d="m 18746.6,12835 c 38.4,5.8 77.6,11.4 103.6,41.9 8.1,9.5 15.2,20.9 22.9,33.6 11.1,-70.5 -70.1,-110 -126.5,-75.5"
         style="fill:#000000;fill-opacity:1;fill-rule:nonzero;stroke:none"
         id="path268" />
      <path
         d="m 18647.9,13425.1 c 0,-6.9 -5.6,-12.5 -12.6,-12.5 -6.9,0 -12.5,5.6 -12.5,12.5 0,7 5.6,12.6 12.5,12.6 7,0 12.6,-5.6 12.6,-12.6"
         style="fill:#ffffff;fill-opacity:1;fill-rule:nonzero;stroke:none"
         id="path270" />
      <path
         d="m 18994.6,13425.1 c 0,-6.9 -5.6,-12.5 -12.6,-12.5 -6.9,0 -12.6,5.6 -12.6,12.5 0,7 5.7,12.6 12.6,12.6 7,0 12.6,-5.6 12.6,-12.6"
         style="fill:#ffffff;fill-opacity:1;fill-rule:nonzero;stroke:none"
         id="path272" />
      <path
         d="m 21537.7,10894.7 c 0,0.1 0,0.1 0,0.1 l 0.9,13.8 h 0.1 l -1,-13.9"
         style="fill:#eff8ff;fill-opacity:1;fill-rule:nonzero;stroke:none"
         id="path274" />
      <path
         d="m 21536.8,10880.8 0.9,14 c 0,0 0,0 0,-0.1 l -0.9,-13.9 m -83.1,3.9 -83.3,3.8 1.3,27.8 83.3,-3.8 -1.3,-27.8 m -166.7,7.7 -83.3,3.9 1.3,27.7 83.3,-3.8 -1.3,-27.8 m -166.6,7.7 -83.3,3.9 1.3,27.7 83.3,-3.8 -1.3,-27.8 m -166.7,7.7 -83.3,3.9 1.3,27.7 83.3,-3.8 -1.3,-27.8 m -166.6,7.7 -83.3,3.9 1.2,27.8 83.4,-3.9 -1.3,-27.8 m -166.7,7.8 -83.3,3.8 1.3,27.8 83.3,-3.9 -1.3,-27.7 m -166.6,7.7 -83.3,3.8 1.2,27.8 83.4,-3.9 -1.3,-27.7 m -166.7,7.7 h -0.2 l -7.3,28.2 8.8,-0.5 -1.3,-27.7 m -81.7,3.8 h -1.6 l 0.6,13.9 1,-13.9"
         style="fill:#67c0ff;fill-opacity:1;fill-rule:nonzero;stroke:none"
         id="path276" />
      <path
         d="m 20286.9,10938.7 -81.5,3.8 -1,13.9 0.7,13.9 74.5,-3.4 7.3,-28.2"
         style="fill:#6cb5f2;fill-opacity:1;fill-rule:nonzero;stroke:none"
         id="path278" />
      <path
         d="m 17106.6,11014 -0.1,27.8 c 27.5,0.1 55.5,0.6 83.1,1.4 l 0.8,-27.8 c -27.9,-0.8 -56,-1.3 -83.8,-1.4 m -83.8,0.8 c -27.8,0.7 -56,1.7 -83.7,3.1 l 1.4,27.8 c 27.5,-1.4 55.4,-2.4 83,-3.1 l -0.7,-27.8 m 251.3,4.2 -1.6,27.8 c 27.7,1.5 55.5,3.5 82.9,5.8 l 2.3,-27.7 c -27.6,-2.4 -55.7,-4.3 -83.6,-5.9 m -418.7,4.2 c -28,2.1 -56.1,4.7 -83.5,7.6 l 3,27.7 c 27,-2.9 54.9,-5.5 82.7,-7.6 l -2.2,-27.7 m 585.7,9.8 -3.1,27.6 c 17,1.9 34,4 51,6.2 l -12.5,-29.6 c -11.8,-1.5 -23.6,-2.9 -35.4,-4.2"
         style="fill:#67c0ff;fill-opacity:1;fill-rule:nonzero;stroke:none"
         id="path280" />
      <path
         d="m 17476.5,11037.2 12.5,29.6 c 10.5,1.4 21,2.8 31.4,4.2 l 3.9,-27.5 c -15.8,-2.2 -31.8,-4.3 -47.8,-6.3"
         style="fill:#6cb5f2;fill-opacity:1;fill-rule:nonzero;stroke:none"
         id="path282" />
      <path
         d="m 16608.4,11069 2.6,12.9 c 0,0 0.1,0 0.2,-0.1 -1,-4.2 -1.9,-8.5 -2.8,-12.8"
         style="fill:#eff8ff;fill-opacity:1;fill-rule:nonzero;stroke:none"
         id="path284" />
      <path
         d="m 16688.7,11041 c -52.9,7.4 -82.1,13.4 -83.3,13.7 l 3,14.3 c 0.9,4.3 1.8,8.6 2.8,12.8 2.6,-0.5 31.6,-6.3 81.3,-13.2 l -3.8,-27.6"
         style="fill:#67c0ff;fill-opacity:1;fill-rule:nonzero;stroke:none"
         id="path286" />
      <path
         d="m 11744.1,16725.2 c 1164.5,0 2108.6,-944.1 2108.6,-2108.6 0,-1164.6 -944.1,-1201.5 -2108.6,-1201.5 -164.3,0 -324.2,0.7 -477.6,5.2 -266.5,2.6 -1156.8,-26.3 -1235.3,-525.2 0,0 -395.71,258.6 -395.71,1721.5 0,1164.5 944.01,2108.6 2108.61,2108.6"
         style="fill:#ff2b6d;fill-opacity:1;fill-rule:nonzero;stroke:none"
         id="path288" />
      <path
         d="m 15182.1,17353.9 c -1164.5,0 -2108.6,-944.1 -2108.6,-2108.6 0,-1164.6 944.1,-1201.5 2108.6,-1201.5 164.3,0 324.2,0.7 477.7,5.3 266.4,2.5 1156.7,-26.4 1235.2,-525.3 0,0 395.7,258.6 395.7,1721.5 0,1164.5 -944,2108.6 -2108.6,2108.6"
         style="fill:#ffc32f;fill-opacity:1;fill-rule:nonzero;stroke:none"
         id="path290" />
      <path
         d="m 11799,14828 c -40.8,0 -79.6,-15.8 -112.1,-45.7 -33.9,-31.2 -51.9,-70.3 -51.9,-113 0,-49.7 20.2,-90.7 58.4,-118.5 25.6,-18.7 69.6,-43.5 134.7,-75.8 10.8,-5.4 21.3,-10.8 31.5,-16.1 -17,-2.1 -33.7,-3.1 -50.2,-3.1 -139.9,0 -252.5,51.5 -344.2,157.7 -92.7,107.2 -139.7,265.3 -139.7,469.9 0,101.3 12.9,193.5 38.4,274 24.9,78.7 58.8,143.6 100.9,193 41.4,48.6 91.4,86.1 148.6,111.5 57.8,25.7 122,38.7 190.8,38.7 97,0 183.7,-23.6 257.7,-70 73.4,-46 131,-115.6 171.2,-206.7 41.7,-94.7 62.9,-209.3 62.9,-340.5 0,-105.1 -12.1,-198.1 -36,-276.6 -17.5,-57.7 -42.6,-109.9 -74.7,-155.9 -176.2,120.7 -299.7,177.1 -386.3,177.1 z m 1063.1,-625 c -26.4,25.8 -73,56.4 -146.7,96.1 -43.6,23.5 -85.2,47.6 -124.4,72.2 144.1,182.3 217.1,420.5 217.1,709.5 0,208.5 -39,393.4 -115.9,549.4 -78.2,158.7 -195,282.8 -347.3,369 -150.8,85.3 -332.7,128.5 -540.7,128.5 -153.2,0 -292.4,-24.5 -413.8,-72.8 -122.7,-48.7 -228.4,-120.3 -314.2,-212.6 -85.4,-91.9 -151.4,-204.5 -196.2,-334.6 -44.2,-128.5 -66.6,-271.2 -66.6,-424.3 0,-150.2 21.5,-291.4 63.7,-419.6 43,-130.1 107.9,-244.3 193.2,-339.2 85.8,-95.7 193.2,-169.9 319.2,-220.5 124.5,-50.1 266.7,-75.5 422.5,-75.5 176.9,0 331.2,29.3 459.1,87.3 57.6,-40.8 111.7,-77.5 161.3,-109.3 59.1,-37.9 111.8,-67.4 156.5,-87.7 50.5,-22.9 93.8,-34 132.3,-34 52.9,0 100.3,21.1 137.1,61 36,39.1 54.3,80.7 54.3,123.9 0,55.5 -17,100.3 -50.5,133.2"
         style="fill:#ffffff;fill-opacity:1;fill-rule:nonzero;stroke:none"
         id="path292" />
      <path
         d="m 15315.9,15586.5 h -402.6 l 199.4,556.2 z m 691.2,-435.2 -499.9,1234.8 c -23.3,61.2 -43,111.4 -58.5,149.2 -16.8,40.7 -37.7,79.4 -62.2,114.9 -27.3,39.6 -63.3,72.2 -107.2,97.1 -45,25.4 -100.4,38.4 -164.5,38.4 -63.2,0 -118.1,-13 -163.1,-38.5 -44.1,-24.9 -80.3,-58.2 -107.6,-98.9 -24.6,-36.5 -47.7,-82.4 -68.7,-136.2 -19.6,-50.1 -36.4,-93 -50.3,-128.5 l -489.6,-1243.1 c -20.8,-51.6 -35.5,-91.1 -44.7,-120.8 -10.5,-33.5 -15.8,-66.7 -15.8,-98.7 0,-62 25.1,-117.3 74.6,-164.5 48.7,-46.4 106,-70 170.3,-70 76.9,0 134.6,24.9 171.6,74 29,38.4 61.6,106.8 99.7,209 l 77,206.9 h 696.2 l 76.9,-202.1 0.6,-1.5 c 12.3,-29.9 27.2,-64.9 44.2,-103.7 19.3,-43.9 37.4,-76.4 55.5,-99.2 20.2,-25.5 45.4,-46 75,-60.8 29.9,-15 65.3,-22.6 104.9,-22.6 68.3,0 127.5,24.6 175.9,72.9 48.4,48.4 73,103.7 73,164.2 0,51.7 -20.1,124.1 -63.3,227.7"
         style="fill:#ffffff;fill-opacity:1;fill-rule:nonzero;stroke:none"
         id="path294" />
    </g>
  </g>
</svg>
