<?xml version="1.0" encoding="UTF-8" standalone="no"?>
<!-- Created with Inkscape (http://www.inkscape.org/) -->

<svg
   version="1.1"
   id="svg2"
   width="4000"
   height="2666.6667"
   viewBox="0 0 4000 2666.6667"
   sodipodi:docname="vecteezy_q-and-a-question-and-answers-faq-frequently-asked_20353069.eps"
   xmlns:inkscape="http://www.inkscape.org/namespaces/inkscape"
   xmlns:sodipodi="http://sodipodi.sourceforge.net/DTD/sodipodi-0.dtd"
   xmlns="http://www.w3.org/2000/svg"
   xmlns:svg="http://www.w3.org/2000/svg">
  <defs
     id="defs6" />
  <sodipodi:namedview
     id="namedview4"
     pagecolor="#ffffff"
     bordercolor="#000000"
     borderopacity="0.25"
     inkscape:showpageshadow="2"
     inkscape:pageopacity="0.0"
     inkscape:pagecheckerboard="0"
     inkscape:deskcolor="#d1d1d1" />
  <g
     id="g8"
     inkscape:groupmode="layer"
     inkscape:label="ink_ext_XXXXXX"
     transform="matrix(1.3333333,0,0,-1.3333333,0,2666.6667)">
    <g
       id="g10"
       transform="scale(0.1)">
      <path
         d="M 0,0 H 30000 V 20000 H 0 Z"
         style="fill:#eddcbc;fill-opacity:1;fill-rule:nonzero;stroke:none"
         id="path12" />
      <path
         d="M 14706.5,5783.1 9259.56,5418.2 c -445.36,-29.8 -844.82,272.6 -936.97,709.4 l -1319.43,6254.1 c -112.82,534.7 275.06,1045.1 820.49,1079.6 l 6607.95,417.9 c 507.5,32.1 939.9,-363.8 952.7,-872.1 L 15542.6,6700 c 12.1,-480.4 -356.7,-884.8 -836.1,-916.9"
         style="fill:#9ddbe2;fill-opacity:1;fill-rule:nonzero;stroke:none"
         id="path14" />
      <path
         d="M 11324.9,5787.3 C 11189.4,5550.1 10143.4,3819 10211.1,3672.2 c 54,-116.9 2635.9,2264.6 2635.9,2264.6 l -1522.1,-149.5"
         style="fill:#9ddbe2;fill-opacity:1;fill-rule:nonzero;stroke:none"
         id="path16" />
      <path
         d="m 10425.8,9977.8 c 34.8,-1889.4 1865.2,-1756.1 1630.3,116.9 -31.7,1878.6 -1861.5,1746.9 -1630.3,-116.9 z m -1074.94,-77 c -284.36,1933.1 1530.84,3573.9 3097.24,2095.1 880.8,-1005.2 994.4,-3065.2 36.1,-4022.5 251.9,-218.9 1037.9,-226.9 1065.5,-544 108.5,-1335.6 -1237.1,-948.1 -1797.9,-207.4 -27.2,15.6 -290.3,348.4 -333.5,298 -1289,-111.5 -2019.44,1168.2 -2067.44,2380.8"
         style="fill:#fffffe;fill-opacity:1;fill-rule:nonzero;stroke:none"
         id="path18" />
      <path
         d="M 14561.1,4362.8 19717,4017.4 c 524.7,-35.1 995.3,321.1 1103.8,835.7 l 1252.7,5937.9 c 132.9,630 -324,1231.2 -966.6,1271.9 l -6536.3,385.6 c -597.8,37.8 -1107.3,-428.6 -1122.3,-1027.4 L 13576,5442.9 c -14.2,-565.9 420.3,-1042.3 985.1,-1080.1"
         style="fill:#4fb3dc;fill-opacity:1;fill-rule:nonzero;stroke:none"
         id="path20" />
      <path
         d="m 18226.1,4430.5 c 135.5,-237.2 745.3,-2021.6 677.6,-2168.4 -54,-116.9 -1863.4,2202.3 -1863.4,2202.3 l 1185.8,-33.9"
         style="fill:#4fb3dc;fill-opacity:1;fill-rule:nonzero;stroke:none"
         id="path22" />
      <path
         d="m 17666.6,9794 c -158.6,-452.6 -363.5,-994.1 -504,-1479.1 l 739.7,-62.8 c -57.8,502.8 -133.6,1068.1 -199.9,1538.8 z m -632.2,1045.2 c 342.3,200.2 917.9,211.7 1258.5,-3.1 421.5,-296.1 285.1,-807.4 420.1,-1315.4 108.6,-720.8 212.8,-1508.1 308.9,-2236.1 50.4,-571.1 367.2,-1267.5 -448.1,-1172.6 -591,-18.6 -528.8,689.2 -591.9,1095.6 l -1079.8,91.7 c -160.6,-292.4 -82.4,-912.6 -452.6,-980.1 -382.5,-61.6 -839,105.4 -779.9,546.6 324.4,1301.4 901.5,2715.9 1364.8,3973.4"
         style="fill:#fffffe;fill-opacity:1;fill-rule:nonzero;stroke:none"
         id="path24" />
      <path
         d="m 9339.85,13194.9 c -193.03,0 -376.17,6 -525.51,13.8 -17.32,24.8 -33.76,49 -49.13,72.3 298.37,29.8 740.52,62.2 779.31,67.8 l 1181.28,203.1 c 9.7,-290.4 -743.46,-357 -1385.95,-357"
         style="fill:#85bac1;fill-opacity:1;fill-rule:nonzero;stroke:none"
         id="path26" />
      <path
         d="m 8851.64,11053.6 c -59.26,91.7 -177.4,339 -177.4,339 l 262.88,134.6 173.9,-373 -117.03,-199.3 -142.35,98.7"
         style="fill:#f7999c;fill-opacity:1;fill-rule:nonzero;stroke:none"
         id="path28" />
      <path
         d="m 8809.86,11084.3 c -31.03,-8 -5.34,-27.1 7.03,-71.9 28.32,-102.6 -315.51,-284.1 -362.92,-319.3 -24.48,-18.2 8,-173.7 141.42,-103.8 115.38,60.4 485.71,252.7 611.52,319.6 26.3,14 39.66,43.1 32.09,70.9 -27.03,99.3 -110.58,231.8 -147.52,216.3 -62.67,-11.3 -152.34,-78.6 -281.62,-111.8"
         style="fill:#201b28;fill-opacity:1;fill-rule:nonzero;stroke:none"
         id="path30" />
      <path
         d="m 9544.11,11740.4 c -87.54,68 -284.27,264.5 -284.27,264.5 l 201.94,209.5 292.66,-297.7 -41.91,-224.9 -168.42,48.6"
         style="fill:#f7999c;fill-opacity:1;fill-rule:nonzero;stroke:none"
         id="path32" />
      <path
         d="m 9494.09,11756.2 c -26.55,-17.2 4.27,-27.2 31.39,-65.6 62.08,-88.1 -200.14,-367.3 -232.81,-415.4 -16.87,-24.8 67.38,-161.6 169.33,-53.7 88.16,93.2 371.71,390.9 467.49,493.6 20.03,21.4 22.62,53.1 5.89,77 -59.72,85.3 -184.25,184.3 -213.83,158.1 -55.26,-30.4 -116.81,-122 -227.46,-194"
         style="fill:#201b28;fill-opacity:1;fill-rule:nonzero;stroke:none"
         id="path34" />
      <path
         d="m 10500.5,14213.7 c -1022.07,-19.1 -2295.1,-70.4 -2427.87,-332.9 -168.7,-333.6 1162.16,-2231.1 1311.38,-2097.7 149.23,133.4 385.46,249.4 315.52,333.4 -69.95,84 -1285.64,1453.9 -1030.9,1477.3 100.48,9.2 389.2,5.7 707.52,2.3 488.62,-5.3 1046.95,-10.6 1101.15,29.9 89.4,67 23.2,587.7 23.2,587.7"
         style="fill:#35354b;fill-opacity:1;fill-rule:nonzero;stroke:none"
         id="path36" />
      <path
         d="m 9364.89,11776.4 c -178.3,0 -1034.41,1186.4 -1255.04,1798.2 222.64,65.4 427.83,143.9 435.44,146.6 26.25,9.3 47.48,130.6 42.65,249.9 21.05,-15.8 42.11,-25.6 61.36,-25.6 2.94,0 5.82,0.2 8.67,0.7 51.84,8.6 504.5,74.5 845.69,234.2 61.64,3.4 123.88,6.5 186.54,9.3 0.26,-0.4 0.52,-0.8 0.78,-1.2 39.89,-59.9 71.76,-82.7 99.64,-82.7 31.22,0 57.42,28.5 84.25,65.1 4.66,6.3 8.78,13 12.4,20.1 82.97,-23.2 211.03,-47.7 381.83,-47.7 28.6,0 58.4,0.7 89.4,2.2 38.6,-139.2 74.8,-260.5 162.8,-321.3 0.8,-0.5 1.5,-1 2.2,-1.5 -2.5,-89.4 -13.8,-166.2 -42.3,-193.3 -1.3,-1.2 -2.6,-2.4 -3.9,-3.4 -35,-26.1 -279.2,-33.2 -579.37,-33.5 -7.21,0 -14.47,0 -21.75,0 -159.68,0 -333.92,1.8 -500.03,3.6 -166.17,1.8 -324.27,3.6 -451.75,3.6 -116.71,0 -207.75,-1.5 -255.77,-5.9 -24.13,-2.3 -35.07,-16.5 -35.04,-40.7 0.33,-230.7 1002.62,-1360.6 1065.94,-1436.6 8.74,-10.5 12.7,-21.5 12.64,-33 -0.12,-23.8 -17.62,-49.7 -45.58,-77.4 -53.2,-52.7 -144.31,-111.8 -225.68,-175.7 -19.77,-15.5 -38.96,-31.3 -56.9,-47.3 -5.06,-4.5 -11.45,-6.7 -19.12,-6.7"
         style="fill:#2e2d3e;fill-opacity:1;fill-rule:nonzero;stroke:none"
         id="path38" />
      <path
         d="m 10750.3,14206.6 c 53,-164.4 117.1,-467 -24.5,-654.7 -77.2,-102.3 -215.4,-170.5 -449.6,-163.8 -368.14,10.7 -1954.06,-157.3 -1932.51,-233.5 21.55,-76.2 781.53,-1771.7 729.86,-1862 -51.67,-90.4 -397.92,-226.4 -440.64,-135.6 -42.73,90.8 -998.07,2013.1 -783.66,2319.2 180.65,258 1939.63,524.8 2099.75,630.7 160.1,105.9 801.3,99.7 801.3,99.7"
         style="fill:#35354b;fill-opacity:1;fill-rule:nonzero;stroke:none"
         id="path40" />
      <path
         d="m 6831.63,14209.2 c -5.18,-56.7 -23.74,-161.4 15.04,-200.8 38.78,-39.4 575.76,-478.5 763.23,-516.3 220.56,-44.5 921.21,224.1 935.39,229.1 37.86,13.4 65.28,259.9 19.12,397.2 -40.16,119.6 -123.67,227.5 -134.67,242.5 -11,14.9 -334.01,-191.6 -334.01,-191.6 l -122.58,-444.6 -1141.52,484.5"
         style="fill:#35354b;fill-opacity:1;fill-rule:nonzero;stroke:none"
         id="path42" />
      <path
         d="m 8368.2,14435.8 c 274.68,-293.4 192.84,-666.1 151.8,-679.9 -466.25,-156.2 -703.37,-226.9 -825.96,-222 -122.59,4.9 -855.54,392.2 -868.22,598.7 -10.01,163 189.12,617 189.12,617 0,0 502.64,-507.8 644.55,-457.3 141.9,50.5 651.52,204.6 708.71,143.5"
         style="fill:#4d4c65;fill-opacity:1;fill-rule:nonzero;stroke:none"
         id="path44" />
      <path
         d="m 7037.27,14670.6 c -50.71,-122.6 -185.82,-486.5 -155.94,-547.1 89.81,-182.1 680.13,-519.8 684.64,-475.8 4.51,44 42.87,599.5 3.6,612.7 -117.07,39.5 -532.3,410.2 -532.3,410.2"
         style="fill:#ffffff;fill-opacity:1;fill-rule:nonzero;stroke:none"
         id="path46" />
      <path
         d="m 7676.35,14247.3 c 15.31,-223.2 -19.38,-581.6 18.83,-602.6 38.23,-21 532.49,76.1 548.17,120.2 15.67,44 -71.17,574.6 -91.28,582 -20.09,7.4 -475.72,-99.6 -475.72,-99.6"
         style="fill:#35354b;fill-opacity:1;fill-rule:nonzero;stroke:none"
         id="path48" />
      <path
         d="m 8240.77,14172.5 c 24.17,-114.2 29.06,-210.5 63.36,-219.1 34.3,-8.6 190.6,21.3 198.36,40.5 7.75,19.2 -28.94,210.1 -79.86,258 -21.31,20 -201.83,14.9 -181.86,-79.4"
         style="fill:#35354b;fill-opacity:1;fill-rule:nonzero;stroke:none"
         id="path50" />
      <path
         d="m 8283.99,14406.6 c -72.15,-26.2 -33.37,-6.4 -122.96,-53.8 -86.63,-45.8 -188.94,-52.3 -279.07,-53.5 -73.42,-0.9 -211.99,-100.6 -240.44,-198.6 -25.61,-88.3 158.78,4.3 215.25,6.4 216.8,7.8 81.82,-76.9 142.61,-108.7 60.79,-31.8 24.77,76.2 182.22,138.8 94.54,37.6 145.02,26.6 178.3,54.4 33.29,27.9 -75.91,215 -75.91,215"
         style="fill:#f0a0a0;fill-opacity:1;fill-rule:nonzero;stroke:none"
         id="path52" />
      <path
         d="m 9194.79,14744.9 c -72.32,-141 -1073.3,-353.7 -1108.84,-378.1 -26.65,-18.3 96.44,-269.6 189.87,-261.2 76.85,6.9 1370.18,288.5 1352.07,575.7 -13.65,216.2 208.67,1139.4 208.67,1139.4 0,0 -483.82,221.5 -447.13,1.8 9.02,-54 -159.1,-1008.3 -194.64,-1077.6"
         style="fill:#2e67b6;fill-opacity:1;fill-rule:nonzero;stroke:none"
         id="path54" />
      <path
         d="m 9642.41,15779.3 266.04,116.4 c -23.8,109.5 -91.37,304.4 -132.69,398.1 -45.32,102.8 -127.53,155.2 -127.53,155.2 l -34.74,-116.6 -112.33,-65.1 c 0,0 10.75,0.2 23.36,-30.3 20.76,-50.1 57.04,-207.6 -11.28,-299.3 -42.54,-57.2 129.17,-158.4 129.17,-158.4"
         style="fill:#f0a0a0;fill-opacity:1;fill-rule:nonzero;stroke:none"
         id="path56" />
      <path
         d="m 9552.83,16088.3 c -0.57,13.9 -1.41,27.4 -2.75,40.8 1.5,-13.2 2.48,-26.9 2.75,-40.8 m -32.77,189.9 c 5.75,50.1 66.58,54.4 86.88,54.4 4.1,0 6.55,-0.2 6.55,-0.2 l -93.43,-54.2"
         style="fill:#cebda8;fill-opacity:1;fill-rule:nonzero;stroke:none"
         id="path58" />
      <path
         d="m 9596.77,16070.6 c -13.3,0 -27.8,1.4 -43.48,4.5 -0.13,4.5 -0.28,8.9 -0.46,13.2 -0.27,13.9 -1.25,27.6 -2.75,40.8 -3.37,33.7 -9.9,66.9 -23.09,103.9 -6.47,18.2 -8.32,33.1 -6.93,45.2 l 93.43,54.2 v 0 c 0,0 58.87,-21 80.25,-50.5 51.81,-71.4 34.18,-211.3 -96.97,-211.3"
         style="fill:#d08c91;fill-opacity:1;fill-rule:nonzero;stroke:none"
         id="path60" />
      <path
         d="m 8271.21,14105.4 c -23.25,0 -48.13,15.3 -71.94,38.5 -49.24,47.9 -93.95,129.7 -110.36,180 -4.3,13.2 -6.66,24.2 -6.66,31.9 0.01,5.5 1.19,9.3 3.7,11 35.54,24.4 1036.52,237.1 1108.84,378.1 23.46,45.7 104.74,477.4 154.65,780.9 11.67,-112.8 38.5,-201.8 45.58,-221.1 32.93,-89.7 86.69,-262.2 119.94,-383.3 11.81,-43.2 20.37,-81.9 26.71,-116.6 -20.41,-58.6 -35.11,-99.6 -40.51,-112.6 -60.52,-146 -1020.5,-472.9 -1053.93,-499.8 -6.31,-5.1 -1.94,-24.2 9.62,-49.8 -97.39,-22.4 -165.16,-35.6 -181.03,-37 -1.53,-0.2 -3.06,-0.2 -4.61,-0.2"
         style="fill:#265796;fill-opacity:1;fill-rule:nonzero;stroke:none"
         id="path62" />
      <path
         d="m 9231.53,16450.6 c 34.04,-76.7 28.57,-258.4 80.2,-232.7 51.64,25.9 71.78,-162 127.78,-136.5 135.68,61.9 244.55,219 227.83,289.4 -16.71,70.4 -120.96,238.4 -120.96,238.4 l -314.85,-158.6"
         style="fill:#f0a0a0;fill-opacity:1;fill-rule:nonzero;stroke:none"
         id="path64" />
      <path
         d="m 9407.73,16448.1 c -39.44,-25.6 -35.5,-35.8 -72.49,-36.7 -36.99,-1 -7.48,63.3 -67.24,44.8 -59.75,-18.5 -121.86,-45.2 -160.79,12.3 -56.33,83.3 31.79,109.6 87.18,124.2 35.64,9.4 6.8,80.3 72.47,109.2 51.51,22.6 61.12,-8.5 108.03,9.8 28.32,11.1 57.63,80 117.01,69.7 110.14,-19.2 84,-122.8 183.11,-152.5 115.6,-34.5 24.36,-275.7 -6.26,-267.2 -35.74,9.9 -41.78,102.1 -75.49,107.7 -50.84,8.5 -39.04,-23.5 -54.35,-66.1 -16.36,-45.5 -75.39,-77.1 -68.07,-1.2 7.31,75.9 -27.4,69.1 -63.11,46"
         style="fill:#1a1c34;fill-opacity:1;fill-rule:nonzero;stroke:none"
         id="path66" />
      <path
         d="m 9847.54,16168.1 c -108.26,7.9 -142.73,-169.2 -224.61,-191.7 -49.7,-13.7 -66.52,74.5 -70.46,85.2 -21.56,-18.8 -35.97,-37.1 -45.05,-60.8 -231.48,-603.5 266.92,-1768.9 266.92,-1768.9 0,0 274.36,-142.9 791.26,-65.7 314.7,46.9 59.1,300.1 34.1,369.2 -24.9,69.1 -486.1,1421.2 -486.1,1421.2 0,0 -84,105.1 -266.06,211.5"
         style="fill:#ffffff;fill-opacity:1;fill-rule:nonzero;stroke:none"
         id="path68" />
      <path
         d="m 11075.4,13771.9 c -168.3,-142.1 -413.2,-44.9 -554.1,52.3 -133.9,92.5 -147.8,325.2 -233.2,547.9 -14.4,37.6 -31.3,77 -51.7,118.3 -2.9,5.8 -5.8,11.5 -8.7,17.4 -2.7,5.1 -5.4,10.2 -8,15.4 -2.4,4.5 -4.8,9 -7.3,13.5 -3.5,6.6 -7.3,13.3 -11,20 -3.7,6.5 -7.7,13.2 -11.9,20.3 -2.9,4.5 -5.8,9.3 -8.9,14.1 v 0.1 c -80.1,126.4 -235.96,314.8 -304.99,473 -6.23,14.2 -11.75,28.2 -16.45,42 -0.94,2.9 -1.97,5.7 -2.91,8.6 -0.86,2.9 -1.8,5.7 -2.64,8.6 -3.15,10.7 -6.16,21.7 -8.97,32.5 -0.78,2.9 -1.47,5.9 -2.18,8.9 -26.23,105.7 -36.17,221 -37.16,334.6 l -0.07,1.1 c -0.42,38.3 0.31,76.3 1.71,113.9 9.65,255.4 53.3,483.5 44.47,552.4 0,0 88.77,-13.9 327.99,-179.6 100.6,-69.7 284.8,-285.8 331.5,-464.8 15.3,-58.5 29.5,-115.3 42.9,-170.2 50.8,-208.4 91.7,-388.7 150.8,-523.1 76.7,-175 75.5,-367.7 248.7,-559.8 93.7,-104 261.8,-379.6 122.1,-497.4"
         style="fill:#2d65b2;fill-opacity:1;fill-rule:nonzero;stroke:none"
         id="path70" />
      <path
         d="m 9395.02,15304.7 c 32.93,-89.7 86.69,-262.2 119.94,-383.3 40.97,-149.8 42.8,-245.6 48.53,-305.4 12.97,-135.8 48.44,-308.7 127.49,-427.5 84.56,-127.1 133.1,-86.8 183.89,-17.6 87.02,118.7 -10.95,367.2 -126.93,711.5 -110.31,327.7 -237.85,509.6 -260.28,794.4 -16.92,215.4 64.81,384.8 64.81,384.8 -327.67,-185.6 -175.85,-706.8 -157.45,-756.9"
         style="fill:#2d65b2;fill-opacity:1;fill-rule:nonzero;stroke:none"
         id="path72" />
      <path
         d="m 8671.84,14215.8 c -72.15,-26.3 -42.19,12.9 -131.78,-34.5 -86.63,-45.8 -187.23,-76 -268.8,-99.7 -70.23,-20.4 -213.44,-73.8 -241.88,-171.8 -25.62,-88.3 158.73,6.5 215.24,6.4 152.27,-0.4 21.03,-45.1 81.82,-76.9 60.79,-31.8 85.56,44.4 243.01,107 94.54,37.6 145.02,26.6 178.31,54.5 33.28,27.8 -75.92,215 -75.92,215"
         style="fill:#f0a0a0;fill-opacity:1;fill-rule:nonzero;stroke:none"
         id="path74" />
      <path
         d="m 10320.7,14277 c -17.3,45.7 -64.8,173.9 -84.1,213.2 20.3,-41.2 37.2,-80.6 51.5,-118.1 12.2,-31.6 22.9,-63.5 32.6,-95.1"
         style="fill:#d4d4d2;fill-opacity:1;fill-rule:nonzero;stroke:none"
         id="path76" />
      <path
         d="m 10323.7,14269.8 c 0,0 -0.1,0 -0.2,0 -0.8,2.1 -1.7,4.5 -2.8,7.2 -9.7,31.6 -20.4,63.5 -32.6,95.1 -14.3,37.5 -31.2,76.9 -51.5,118.1 -0.1,0 -0.1,0.1 -0.2,0.2 v 0 c -2.9,5.8 -5.8,11.5 -8.7,17.4 -2.7,5.1 -5.4,10.2 -8,15.4 -2.4,4.5 -4.8,9 -7.3,13.5 -3.5,6.6 -7.3,13.3 -11,20 -3.7,6.5 -7.7,13.2 -11.9,20.3 -2.9,4.5 -5.8,9.3 -8.9,14.1 v 0.1 c -46,72.6 -117,165.6 -182.13,261.6 53.53,160 111.53,341.2 163.93,499.3 129.3,-359.7 189.2,-1082.3 161.3,-1082.3"
         style="fill:#255493;fill-opacity:1;fill-rule:nonzero;stroke:none"
         id="path78" />
      <path
         d="m 9790.62,14105.8 c -27.88,0 -59.75,22.8 -99.64,82.7 -14.86,22.4 -28.18,46.6 -40.11,72.2 92.52,59.4 166.34,128.5 205.66,208.6 4.8,9.8 9.92,21 15.35,33.6 22.48,-81 36.3,-151.2 36.31,-209.5 0,-39.8 -6.42,-74 -20.92,-102.4 -3.62,-7.1 -7.74,-13.8 -12.4,-20.1 -26.83,-36.6 -53.03,-65.1 -84.25,-65.1 m -248.95,699 c -6.34,34.7 -14.9,73.4 -26.71,116.6 -33.25,121.1 -87.01,293.6 -119.94,383.3 -9.13,24.9 -51.09,165.7 -51.06,323.9 0.03,160.8 43.39,339.5 208.51,433 0,0 -67.12,-139.1 -67.11,-325.5 0,-19.3 0.72,-39.1 2.3,-59.3 16.07,-204.1 86.1,-355.3 165.09,-545.2 -41.73,-125 -82.15,-243.7 -111.08,-326.8"
         style="fill:#255493;fill-opacity:1;fill-rule:nonzero;stroke:none"
         id="path80" />
      <path
         d="m 9501.16,14692.2 c -60.52,-146 -1020.5,-472.9 -1053.93,-499.8 -25.07,-20.2 118.28,-261.6 210.74,-246.2 76.05,12.6 1014.65,148.6 1198.56,523.1 96.35,196.2 328.57,991.6 427.27,1224.5 98.7,233 -458.84,265.5 -444.81,43.5 3.45,-54.6 -308.09,-973.4 -337.83,-1045.1"
         style="fill:#2e67b6;fill-opacity:1;fill-rule:nonzero;stroke:none"
         id="path82" />
      <path
         d="m 10526,15463.9 c 0,0.1 0,0 0,0 0,0.1 0,0.2 0,0.2 0,0 0,-0.1 0,-0.2 m -18.1,69.4 c -6.4,22.2 -14.8,44.9 -24.8,67.7 3,-1.9 5.8,-3.9 8.2,-5.9 8,-29.8 12.8,-47.4 16.6,-61.8"
         style="fill:#c6b6a2;fill-opacity:1;fill-rule:nonzero;stroke:none"
         id="path84" />
      <path
         d="m 10526,15463.9 c -77.7,24.1 -195.7,37.7 -309.3,49.3 17.4,50.2 33.4,95 47.7,132.1 93.1,-8.6 181.2,-21.2 218.7,-44.3 10,-22.8 18.4,-45.5 24.8,-67.7 5.6,-20.7 9.2,-34.8 18.1,-69.2 0,0 0,-0.1 0,-0.2"
         style="fill:#28589d;fill-opacity:1;fill-rule:nonzero;stroke:none"
         id="path86" />
      <path
         d="m 9614.89,15975.1 c 2.38,2.2 5.64,3.6 9.94,3.6 1.23,0 2.55,-0.2 3.95,-0.4 -1.93,-0.7 -3.87,-1.3 -5.85,-1.9 -2.78,-0.7 -5.46,-1.2 -8.04,-1.3"
         style="fill:#c7878d;fill-opacity:1;fill-rule:nonzero;stroke:none"
         id="path88" />
      <path
         d="m 9807.22,15621.3 c -110.73,98.1 -164.88,295.8 -176.61,295.8 -0.13,0 -0.25,-0.1 -0.37,-0.1 -0.53,-0.2 -1.07,-0.3 -1.63,-0.3 -6.86,0 -15.15,15.5 -18.05,31 -2.05,10.9 -1.41,21.9 4.33,27.4 2.58,0.1 5.26,0.6 8.04,1.3 1.98,0.6 3.92,1.2 5.85,1.9 0.97,-0.1 1.97,-0.4 3.03,-0.6 30.62,-7.8 27.16,-42.7 48.09,-70.6 34.73,-46.1 80.01,-99.4 136.09,-145.4 -3.72,-45.2 -6.84,-92.3 -8.77,-140.4"
         style="fill:#d9d8dd;fill-opacity:1;fill-rule:nonzero;stroke:none"
         id="path90" />
      <path
         d="m 9809.48,15619.4 c -0.76,0.6 -1.52,1.3 -2.26,1.9 1.93,48.1 5.05,95.2 8.77,140.4 7.39,-6 14.98,-12 22.75,-17.7 0.02,-2.2 0.11,-4.5 0.25,-6.7 0.67,-10.7 -10.64,-54.2 -29.51,-117.9"
         style="fill:#28589d;fill-opacity:1;fill-rule:nonzero;stroke:none"
         id="path92" />
      <path
         d="m 10216.7,15513.2 c -113.1,11.7 -221.99,21.5 -282.49,38 -41.42,11.3 -79.02,32.3 -112.61,58.2 -4.12,3.2 -8.15,6.5 -12.12,10 18.87,63.7 30.18,107.2 29.51,117.9 -0.14,2.2 -0.23,4.5 -0.25,6.7 3.03,-2.3 6.08,-4.5 9.17,-6.7 37.77,-26.9 79.82,-49.9 126.23,-65.2 34.46,-11.4 166.76,-15.5 290.26,-26.8 -14.3,-37.1 -30.3,-81.9 -47.7,-132.1"
         style="fill:#2859a0;fill-opacity:1;fill-rule:nonzero;stroke:none"
         id="path94" />
      <path
         d="m 9576.75,15970.5 c 5.38,19.1 25.74,47.6 66.34,37.2 30.59,-7.8 30.43,-20.9 51.37,-48.8 62.92,-83.6 160.64,-190.9 294.25,-235 133.59,-44.2 484.19,68.6 677.19,-18.7 193,-87.3 215.8,-282 498,-391 282.3,-109.1 622.9,-53 705.9,-86.2 83.1,-33.3 131.2,-63.3 121.8,-97 -9.5,-33.7 -64.5,-81 -130.3,-92.2 -65.7,-11.3 -607,66.7 -743.7,115.8 -223.4,80.1 -376.6,329.9 -522,374.8 -145.3,44.9 -475.3,26.7 -646.85,73.6 -191.37,52.2 -300.71,311.5 -315.31,305.7 -14.6,-5.8 -28.2,-11.5 -51.7,0 -16.15,8 -10.37,42.6 -4.99,61.8"
         style="fill:#f5b30c;fill-opacity:1;fill-rule:nonzero;stroke:none"
         id="path96" />
      <path
         d="m 20118.6,9785.7 c 0,0 -262,337.6 -265.1,385.9 -4.7,73.3 259.6,132.7 204.2,209.2 -48.1,66.5 630,981.7 595.6,1046 -34.4,64.4 -649.8,54.7 -1068.4,129 -1002.8,177.9 -1249.5,660.9 -1164.3,660.9 0.3,0 0.7,0 1,-0.1 17.1,-0.7 36.6,-1.9 60.2,-3.4 111.4,-424.3 936.3,-659.1 2114.9,-697.9 385.9,-12.7 -276.4,-707.5 -503.3,-1107 88.6,-136.2 138,-195.4 214.4,-239.9 l -189.2,-382.7"
         style="fill:#4294be;fill-opacity:1;fill-rule:nonzero;stroke:none"
         id="path98" />
      <path
         d="m 20812,10669.6 c -171.5,-205 -518.3,-567.4 -514.8,-621.1 3.4,-53.7 174.1,-484.3 13.3,-514.4 -75.7,-14.1 -291.9,452.8 -375.1,589.3 -51.8,85.1 41.9,68.1 162.6,171.9 120.6,103.9 427.7,543.6 487.1,638.1 59.5,94.4 398.3,-58.9 226.9,-263.8"
         style="fill:#fffffe;fill-opacity:1;fill-rule:nonzero;stroke:none"
         id="path100" />
      <path
         d="m 22075.4,11325.4 c 62.7,-102.4 239.5,-656.5 280.8,-822.9 41.4,-166.4 -10.1,-196.1 89.1,-237.1 114.5,-47.5 712.6,117.9 702.9,235.3 -11.2,134.8 -412.4,56.5 -470,66.5 -140.7,24.7 -97.8,178.5 -378.4,935.3 -37.7,101.6 -256.6,-124.2 -224.4,-177.1"
         style="fill:#fffffe;fill-opacity:1;fill-rule:nonzero;stroke:none"
         id="path102" />
      <path
         d="m 20596.7,11515.3 c 385.9,-12.7 -276.4,-707.5 -503.3,-1107 123.6,-190 170.8,-230.1 321.7,-289.5 171.8,204.7 1167.7,1346 777.2,1724.7 -34.9,33.9 -80.2,60.9 -133.3,83.3 -60.5,25.5 -131.2,45.1 -208.8,62.2 -236.9,52.2 -538.3,80.9 -808,182.2 -186.3,69.9 -357.6,174.3 -482.1,345 0,0 -47.9,77.7 -139.4,156.2 -139.3,119.6 -379.8,241.4 -707,95.4 -72.1,-32.2 -94.2,-88.9 -164.4,-179.3 -366.7,-662.1 557.9,-1024.1 2047.4,-1073.2"
         style="fill:#2c63ac;fill-opacity:1;fill-rule:nonzero;stroke:none"
         id="path104" />
      <path
         d="m 20515.2,11935.1 c 107.3,16.1 219,34.1 335,53.9 50.4,8.6 101.6,17.6 153.6,26.9 25.8,4.6 52.6,5.1 80,1.9 447.7,-51 1092.5,-1078.8 1145.6,-1404.8 147.3,-50.2 299.2,14.5 406.8,49.9 54.9,258.4 -672.9,1617 -1163.2,1862 -208.7,104.2 -722.2,82.5 -1154.9,61 -294.8,-14.8 -552.1,-29.5 -650,-4.4 -68.5,17.5 -143.2,42.7 -247.4,90.9 -263.9,121.8 -609.3,239.4 -869.8,-165.4 -100.2,-664.5 566.2,-781.2 1964.3,-571.9"
         style="fill:#2c63ac;fill-opacity:1;fill-rule:nonzero;stroke:none"
         id="path106" />
      <path
         d="m 20850.2,11989 c -236.9,52.2 -538.3,80.9 -808,182.2 24.5,4.5 49.4,6.3 75,6.3 94.1,0 197.7,-24.6 327.1,-28.7 310.4,-10 474.6,-27 639.5,-131 -11.5,1.4 -22.9,2 -34.1,2 -15.6,0 -30.9,-1.3 -45.9,-3.9 -52,-9.3 -103.2,-18.3 -153.6,-26.9 v 0"
         style="fill:#224b82;fill-opacity:1;fill-rule:nonzero;stroke:none"
         id="path108" />
      <path
         d="m 21341.6,12908.7 c 103.7,31.8 128,-215.6 69.1,-280.8 -126.7,-140.6 -707,-662.8 -920.9,-687.1 -251.6,-28.5 -1000.6,320.7 -1010.8,333.5 -40.5,50.8 5.6,186.1 86.7,324.5 70.7,120.5 151.6,178.7 166.9,193.3 15.4,14.5 323.4,-224.5 323.4,-224.5 l 35.3,-469.4 1250.3,810.5"
         style="fill:#363549;fill-opacity:1;fill-rule:nonzero;stroke:none"
         id="path110" />
      <path
         d="m 19655.2,12797.1 c -223,-383.9 -187.4,-480.4 -145.5,-497.9 476.1,-198.4 761.8,-303.8 897.2,-308.5 135.4,-4.6 1011.3,551.7 1028.9,772 13.9,173.9 -199.7,350.5 -199.7,350.5 0,0 -624.5,-687 -768.7,-623.5 -144.3,63.4 -762.2,393.5 -812.2,307.4"
         style="fill:#4c4c63;fill-opacity:1;fill-rule:nonzero;stroke:none"
         id="path112" />
      <path
         d="m 21220.8,13037.4 c 66.8,-108.6 187.9,-225 154.1,-294.3 -101.5,-208.3 -790.4,-688.6 -802.3,-644.8 -20.3,75.1 -55.3,326.5 -13.8,351.3 165.2,98.7 662,587.8 662,587.8"
         style="fill:#ffffff;fill-opacity:1;fill-rule:nonzero;stroke:none"
         id="path114" />
      <path
         d="m 20438.9,12444.4 c -30.9,-215.2 6.4,-321 -40.2,-339.7 -46.5,-18.7 -534.9,121.5 -542.3,168.3 -7.3,46.8 53.6,420.2 77.3,426.3 23.6,6 505.2,-254.9 505.2,-254.9"
         style="fill:#363549;fill-opacity:1;fill-rule:nonzero;stroke:none"
         id="path116" />
      <path
         d="m 19832.7,12547.1 c -21.8,-77.5 -24.5,-123.4 -64,-129.6 -39.5,-6.2 -169.2,49.3 -173.4,69.8 -4.2,20.4 -7,93 59.4,138.4 27.9,19 206.6,23.2 178,-78.6"
         style="fill:#363549;fill-opacity:1;fill-rule:nonzero;stroke:none"
         id="path118" />
      <path
         d="m 20037.9,12716.1 c 42.1,-33.2 23.7,-35 73.7,-84.3 50,-49.4 49.8,-124.8 85.2,-130.7 43.8,-7.3 21.1,20.8 30.3,77.8 4.3,26.9 112.6,-56.1 149.9,-59.7 37.4,-3.6 112.1,63.7 107.6,104.8 -4.5,41.1 -135.5,100.6 -192.8,138.4 -57.3,37.9 -150.7,65.2 -179.1,76.7 -28.5,11.4 -74.8,-123 -74.8,-123"
         style="fill:#f0a0a0;fill-opacity:1;fill-rule:nonzero;stroke:none"
         id="path120" />
      <path
         d="m 19252.5,12486.4 c 45.7,-24.4 88.7,-46.3 146.8,-81.8 85.7,-52.3 133.8,-15.9 166.5,-39.8 34.8,-25.4 -7.7,-48 -94.6,-61.6 -8.6,-1.3 76.2,-39.9 159.5,-73 33.8,-13.5 41.9,-100.5 3.5,-112.7 -38.3,-12.1 -226.7,39 -282.4,75.1 -55.8,36.1 -115.9,108.6 -137,129.4 -21.2,20.8 37.7,164.4 37.7,164.4"
         style="fill:#f0a0a0;fill-opacity:1;fill-rule:nonzero;stroke:none"
         id="path122" />
      <path
         d="m 18475.5,13197.2 c 18.6,-66.9 123.2,-170.5 254.1,-279.2 13.9,35.7 25.5,77.4 30.8,125.1 11.2,102.2 32.5,219.8 16.1,341.8 -11.7,86.5 -42.5,175.2 -109.5,262.2 l -0.5,0.6 c -146.1,-200.1 -228.2,-315.8 -191,-450.5 m 883.6,965.7 c -1.7,1.2 -2.6,1.9 -2.9,1.9 0.5,-0.4 3.8,-2.9 9.4,-7.3 -2.1,2.1 -4.3,3.9 -6.5,5.4 m -692.4,22.4 c 80,76.1 366.5,253.4 463.6,251.1 97.1,-2.3 282.3,-118.2 282.3,-118.2 211.1,-96.1 272.7,-287.6 288.8,-489.8 19.6,-29.7 33.9,-58.3 40.1,-84.6 18.2,-76 -3.9,-146.2 -37,-209.7 -2.9,-154.3 -2.3,-288.8 55.4,-359.5 100.9,-123.9 470.8,-289.2 450.4,-351.5 -1.9,-5.8 -4.3,-11.4 -7.1,-17 -28.3,-57 -99.3,-102.1 -134.4,-121.7 -12.3,-6.9 -20.3,-10.7 -20.3,-10.7 0,0 -381.6,184 -549.4,327.7 -20,-92 -31.6,-189.7 -16.1,-275.6 15.5,-85.8 -12.1,-186.6 -262.7,-173.3 79.3,-55.6 131.5,-91.9 130.7,-95.1 -2.4,-10.4 -7,-22.6 -13.1,-35.8 -21.7,-46.9 -62.5,-105.7 -89.8,-135.2 -13.1,-14 -23.1,-21.5 -26.6,-18 -36.8,36.4 -1045.8,731.2 -1093.6,916.7 -48.2,187.4 315.3,788 538.8,1000.2"
         style="fill:#ffffff;fill-opacity:1;fill-rule:nonzero;stroke:none"
         id="path124" />
      <path
         d="m 18776.5,13384.9 v 0 c -11.7,86.5 -42.5,175.2 -109.5,262.2 23.9,35 51.2,57.6 107.8,78.8 4.2,1.5 8,2.3 11.5,2.3 62.9,0 12.3,-247.1 -9.8,-343.3"
         style="fill:#e2e0e4;fill-opacity:1;fill-rule:nonzero;stroke:none"
         id="path126" />
      <path
         d="m 19084.4,14397.6 c 0.7,-2.9 2.1,-5.6 2.2,-8.6 5.5,-194.6 87,-271.5 184.7,-287.3 30.8,-5 112.2,-18.2 149.9,21.9 40.4,42.8 -40.3,138 -41.6,174.6 -2,59.9 -2.6,122.9 38.6,125.2 12,0.7 23.4,-2.7 34.1,-8.6 38.4,-20.9 68.3,-72.8 87.2,-77.7 48.5,-12.8 57.4,89.5 84.8,105.8 27.8,16.6 10.2,18.9 6,27.9 -10.4,22.3 5.7,11.9 24,8.5 27.7,-5.1 19.9,19.4 29.6,41.3 5.4,12 18.1,7.6 32.3,3.1 11.6,-3.6 24.3,-7.2 34.7,-1.9 23.2,12 -4.4,37.7 -9.9,99.5 -6.5,71.5 37.8,88.6 58.4,143.7 v 0 c 1.9,5.1 3.6,10.4 5,16.2 l -280.5,110.5 -153.9,-118.3 c 0,0 -351.2,-105.4 -285.6,-375.8"
         style="fill:#f6a2b1;fill-opacity:1;fill-rule:nonzero;stroke:none"
         id="path128" />
      <path
         d="m 17750.3,15029.7 c 29,-106 501.2,-32.6 571.8,-346.9 27.9,-124.3 157.2,-85.9 253.1,-117.8 15.8,-5.2 30.6,-12.3 44,-22.3 50.3,-37.8 71.6,-68.9 118.3,-96.8 h 0.1 c 10.8,-6.5 23.1,-12.8 37.4,-19 11.9,-5.2 25.2,-10.2 40.4,-15.2 27.4,-9.1 60.9,-17.9 102.7,-26.7 44,-9.3 88.4,-6.9 131.8,3 l 0.1,0.1 c 1.5,0.3 3,0.6 4.5,1 157,38 300,173.9 361.6,216 20.7,14.3 38.4,44.1 35.1,69.3 -4.5,33.8 -11.6,76.6 20.7,93.2 30.1,15.4 63.8,-10.4 62,-33.2 -4.5,-57.2 14,-85.3 52.5,-30.6 63.1,89.9 133.8,79.7 163.7,68.2 19.4,-7.4 35.6,-9.1 49.3,-7 v 0 c 52.7,8.4 65.7,75.6 69,101.1 15.5,121.6 -91.6,206.4 -251,262.4 -225.6,79.2 -461.8,-170.1 -532.2,-173.4 -70.5,-3.3 -73.1,92.8 -243.5,111.3 -199,21.5 -226.7,-69.9 -299,-65.5 -63.3,3.8 -141.4,78.7 -259.8,129.7 -202.1,87 -578.2,66 -532.6,-100.9"
         style="fill:#2b2a44;fill-opacity:1;fill-rule:nonzero;stroke:none"
         id="path130" />
      <path
         d="m 19379.6,14298.2 -0.6,1.2 c -67.7,121.9 -53.3,156.1 -18.2,156.1 27.4,0 67.4,-20.7 90.9,-36.9 0,0 0.2,-1.3 0.6,-3.8 -9.8,5.4 -20.2,8.7 -31.1,8.7 -1,0 -2,0 -3,-0.1 -33.3,-1.9 -39.3,-43.4 -39.3,-90.9 0,-11.3 0.4,-22.8 0.7,-34.3"
         style="fill:#d18a9b;fill-opacity:1;fill-rule:nonzero;stroke:none"
         id="path132" />
      <path
         d="m 19542.1,12967.1 c -9.8,7.6 -34.3,26.9 -43,34.3 v 0 c 28.6,131.5 60.6,221 82.8,307.9 -1.1,-52.5 -21.5,-282.4 -39.8,-342.2"
         style="fill:#d9d8dc;fill-opacity:1;fill-rule:nonzero;stroke:none"
         id="path134" />
      <path
         d="m 21488.6,5226.3 c -190.9,0 -391.2,1.8 -587.5,7.3 l 111.1,526.8 c 55.2,88.2 100.1,175.8 214.8,175.8 37.2,0 81.9,-9.3 136.7,-30.8 39.1,-15.4 74.3,-22.2 106.7,-22.2 264.5,0 334.3,457 683.2,467.1 6.9,0.2 13.6,0.3 20.2,0.3 433.9,0 252.8,-426.5 623.9,-472.2 362.1,-44.6 449.8,-154.8 452.9,-324.9 5.3,-284.1 -153.6,-321.1 -784.1,-321.1 -21.9,0 -44.5,0 -67.7,0.1 -9.6,0 -19.6,0 -30,0 -100.8,0 -231.9,-1.5 -382.2,-3.1 -150.4,-1.5 -320,-3.1 -498,-3.1"
         style="fill:#fbf9ef;fill-opacity:1;fill-rule:nonzero;stroke:none"
         id="path136" />
      <path
         d="m 20901.1,5233.6 c -232.3,6.5 -458.9,18.3 -657.3,38.4 -694.3,70.3 -208.4,509.6 28,509.6 206.4,0 249.4,-203.5 448.9,-203.5 28.9,0 61.1,4.3 97.6,14.1 98.8,26.5 149.7,97.5 193.9,168.2 l -111.1,-526.8"
         style="fill:#cceef4;fill-opacity:1;fill-rule:nonzero;stroke:none"
         id="path138" />
      <path
         d="m 6210.19,8543 c -471.11,-32.8 -921.39,10.2 -1383.66,119.6 -70.91,16.8 -146.11,39.2 -194.17,101.5 -72.78,94.2 -50.9,253 27.61,341 78.5,88 196.81,114.4 305.94,102.2 69.88,-7.9 141.54,-29.5 209,-7.1 84.27,28 140.09,116.6 196.6,193.7 56.5,77.2 133,153.4 220.09,141.3 65.26,-9 116.7,-65.4 174.78,-100.8 58.07,-35.4 142.42,-39.1 175.72,26 71.26,139.4 -28.76,521.6 338.26,521.6 529.78,0 443.24,-384.7 507.02,-466.3 96.68,-123.8 268.77,-96.5 408.79,-54.7 140.02,41.9 306.79,81.6 414.82,-29 93.69,-95.9 103.34,-271.9 202.95,-359.5 106.04,-93.4 256.65,-43.6 385.13,-1.7 128.48,42 294.13,57.4 368.7,-70 62.52,-106.8 15.9,-261.9 -73,-340.1 -88.9,-78.3 -206.16,-97.4 -317.93,-105.2 -725.69,-50.5 -1384.55,28 -1966.65,-12.5"
         style="fill:#ffffff;fill-opacity:1;fill-rule:nonzero;stroke:none"
         id="path140" />
    </g>
  </g>
</svg>
