<?xml version="1.0" standalone="no"?>
<!DOCTYPE svg PUBLIC "-//W3C//DTD SVG 1.0//EN" "http://www.w3.org/TR/2001/REC-SVG-20010904/DTD/svg10.dtd">
<svg xmlns="http://www.w3.org/2000/svg" xmlns:xlink="http://www.w3.org/1999/xlink" id="body_1" width="269" height="269">

<g transform="matrix(0.060044643 0 0 0.060044643 0 0)">
    <path d="M618.03125 2870L980 2870L980 3220L656.1758 3220C 540.1953 3220 446.17578 3314.0195 446.17578 3430L446.17578 3430L446.17578 3861.9688C 364.64844 3890.8164 306.17578 3968.6328 306.17578 4060C 306.17578 4175.9023 400.27344 4270 516.1758 4270C 632.0742 4270 726.1758 4175.9023 726.1758 4060C 726.1758 3968.6328 667.6992 3890.8164 586.1758 3861.9688L586.1758 3861.9688L586.1758 3430C 586.1758 3391.3398 617.5117 3360 656.1719 3360L656.1719 3360L980 3360L980 3710C 980 3825.9805 1074.0195 3920 1190 3920C 1611.9297 3920 2868.0703 3920 3290 3920C 3405.9805 3920 3500 3825.9805 3500 3710.004L3500 3710.004L3500 3360L3780 3360C 3818.6602 3360 3850 3391.3398 3850 3430L3850 3430L3850 3861.9688C 3768.4688 3890.8164 3710 3968.6328 3710 4060C 3710 4175.9023 3804.1016 4270 3920 4270C 4035.8984 4270 4130 4175.9023 4130 4060C 4130 3968.6328 4071.5312 3890.8164 3990 3861.9688L3990 3861.9688L3990 3430C 3990 3314.0195 3895.9805 3220 3780 3220L3780 3220L3500 3220L3500 2870L3861.9688 2870C 3890.8203 2951.5312 3968.629 3010 4060 3010C 4175.8984 3010 4270 2915.8984 4270 2800C 4270 2684.1016 4175.8984 2590 4060 2590C 3968.629 2590 3890.8203 2648.4688 3861.9688 2730L3861.9688 2730L3500 2730L3500 2380L3780 2380C 3895.9805 2380 3990 2285.9805 3990 2170L3990 2170L3990 1738.0312C 4071.5312 1709.1797 4130 1631.3711 4130 1540C 4130 1424.1016 4035.8984 1330 3920 1330C 3804.1016 1330 3710 1424.1016 3710 1540C 3710 1631.3711 3768.4688 1709.1797 3850 1738.0312L3850 1738.0312L3850 2170C 3850 2208.6602 3818.6602 2240 3780 2240L3780 2240L3500 2240L3500 1960C 3500 1844.0195 3405.9805 1750 3290 1750L3290 1750L3220 1750L3220 1190C 3220 649.71875 2768.7812 210 2211.711 210C 1654.6289 210 1203.4102 649.71875 1203.4102 1190L1203.4102 1190L1203.4102 1750L1190 1750C 1074.0195 1750 980 1844.0195 980 1960L980 1960L980 2240L656.1758 2240C 617.5117 2240 586.1758 2208.6602 586.1758 2170L586.1758 2170L586.1758 1738.0312C 667.6992 1709.1797 726.1758 1631.3711 726.1758 1540C 726.1758 1424.1016 632.0742 1330 516.1758 1330C 400.27344 1330 306.17578 1424.1016 306.17578 1540C 306.17578 1631.3711 364.64844 1709.1797 446.17578 1738.0312L446.17578 1738.0312L446.17578 2170C 446.17578 2285.9805 540.1953 2380 656.1719 2380L656.1719 2380L980 2380L980 2730L618.03125 2730C 589.1836 2648.4688 511.3672 2590 420 2590C 304.09766 2590 210 2684.1016 210 2800C 210 2915.8984 304.09766 3010 420 3010C 511.3672 3010 589.1836 2951.5312 618.03125 2870zM2800 1750L2800 1190C 2800 852.6406 2559.5586 577.5 2211.711 577.5C 1863.4609 577.5 1610 852.2617 1610 1190L1610 1190L1610 1750L2800 1750" stroke="none" fill="#000000" fill-rule="nonzero" />
    <path d="M1120 2240L1120 3430L3360 3430L3360 2240L1120 2240" stroke="none" fill="#A0A3AF" fill-rule="nonzero" />
    <path d="M1217.5391 2240C 1466.8281 2431.129 2230.539 2978.0508 3351.0117 3430L3351.0117 3430L1128.9883 3430L1128.9883 2240L1217.5391 2240" stroke="none" fill="#8E909F" fill-rule="nonzero" />
    <path d="M516.1758 3990C 554.8086 3990 586.1758 4021.3672 586.1758 4060C 586.1758 4098.633 554.8086 4130 516.1758 4130C 477.53906 4130 446.17578 4098.633 446.17578 4060C 446.17578 4021.3672 477.53906 3990 516.1758 3990" stroke="none" fill="#A0A3AF" fill-rule="nonzero" />
    <path d="M3920 3990C 3958.629 3990 3990 4021.3672 3990 4060C 3990 4098.633 3958.629 4130 3920 4130C 3881.371 4130 3850 4098.633 3850 4060C 3850 4021.3672 3881.371 3990 3920 3990" stroke="none" fill="#A0A3AF" fill-rule="nonzero" />
    <path d="M3360 3570L3360 3710C 3360 3748.6602 3328.6602 3780 3290 3780L3290 3780L1190 3780C 1151.3398 3780 1120 3748.6602 1120 3710.004L1120 3710.004L1120 3570L3360 3570" stroke="none" fill="#41444E" fill-rule="nonzero" />
    <path d="M2170 3036.539L2170 3220L2310 3220L2310 3036.539C 2440.4297 3005.0117 2537.4219 2887.4492 2537.4219 2747.4219C 2537.4219 2583.2695 2404.1484 2450 2240 2450C 2075.8516 2450 1942.5781 2583.2695 1942.5781 2747.4219C 1942.5781 2887.4492 2039.5703 3005.0117 2170 3036.539" stroke="none" fill="#000000" fill-rule="nonzero" />
    <path d="M2240 2590C 2326.879 2590 2397.4219 2660.539 2397.4219 2747.4219C 2397.4219 2834.3008 2326.879 2904.8281 2240 2904.8281C 2153.121 2904.8281 2082.5781 2834.3008 2082.5781 2747.4219C 2082.5781 2660.539 2153.121 2590 2240 2590" stroke="none" fill="#656978" fill-rule="nonzero" />
    <path d="M4060 2730C 4098.629 2730 4130 2761.371 4130 2800C 4130 2838.629 4098.629 2870 4060 2870C 4021.371 2870 3990 2838.629 3990 2800C 3990 2761.371 4021.371 2730 4060 2730" stroke="none" fill="#A0A3AF" fill-rule="nonzero" />
    <path d="M420 2730C 458.6328 2730 490 2761.371 490 2800C 490 2838.629 458.6328 2870 420 2870C 381.3672 2870 350 2838.629 350 2800C 350 2761.371 381.3672 2730 420 2730" stroke="none" fill="#A0A3AF" fill-rule="nonzero" />
    <path d="M3360 2100L1120 2100L1120 1960C 1120 1921.3398 1151.3398 1890 1190 1890L1190 1890L3290 1890C 3328.6602 1890 3360 1921.3398 3360 1960L3360 1960L3360 2100" stroke="none" fill="#656978" fill-rule="nonzero" />
    <path d="M3080 1750L3080 1190C 3080 725.78906 2690.3516 350 2211.711 350C 1733.0586 350 1343.4102 725.78906 1343.4102 1190L1343.4102 1190L1343.4102 1750L1470 1750L1470 1190C 1470 774.3789 1783.1602 437.5 2211.711 437.5C 2640.6406 437.5 2940 774 2940 1190L2940 1190L2940 1750L3080 1750" stroke="none" fill="#A0A3AF" fill-rule="nonzero" />
    <path d="M516.1758 1610C 477.53906 1610 446.17578 1578.6289 446.17578 1540C 446.17578 1501.3711 477.53906 1470 516.1758 1470C 554.8086 1470 586.1758 1501.3711 586.1758 1540C 586.1758 1578.6289 554.8086 1610 516.1758 1610" stroke="none" fill="#A0A3AF" fill-rule="nonzero" />
    <path d="M3920 1610C 3881.371 1610 3850 1578.6289 3850 1540C 3850 1501.3711 3881.371 1470 3920 1470C 3958.629 1470 3990 1501.3711 3990 1540C 3990 1578.6289 3958.629 1610 3920 1610" stroke="none" fill="#A0A3AF" fill-rule="nonzero" />
</g>
</svg>