<?xml version="1.0" encoding="UTF-8"?><svg id="Main" xmlns="http://www.w3.org/2000/svg" viewBox="0 0 2000 562.5"><defs><style>.cls-1,.cls-2,.cls-3,.cls-4,.cls-5,.cls-6,.cls-7,.cls-8,.cls-9,.cls-10,.cls-11,.cls-12,.cls-13,.cls-14,.cls-15,.cls-16,.cls-17,.cls-18,.cls-19,.cls-20,.cls-21,.cls-22,.cls-23,.cls-24,.cls-25,.cls-26{stroke-linecap:round;stroke-linejoin:round;}.cls-1,.cls-2,.cls-3,.cls-4,.cls-5,.cls-6,.cls-7,.cls-8,.cls-22,.cls-23{fill:none;}.cls-1,.cls-5{stroke:#e6e6e6;}.cls-2,.cls-6,.cls-8,.cls-9,.cls-10,.cls-11,.cls-12,.cls-13,.cls-14,.cls-16,.cls-17,.cls-20,.cls-21,.cls-23,.cls-24,.cls-26{stroke:#425066;}.cls-3,.cls-7{stroke:#ccc;}.cls-27{opacity:.09;}.cls-27,.cls-4,.cls-5,.cls-6,.cls-7,.cls-8,.cls-9,.cls-10,.cls-11,.cls-21,.cls-28,.cls-29,.cls-30,.cls-31,.cls-32,.cls-24,.cls-25,.cls-26{fill-rule:evenodd;}.cls-27,.cls-33,.cls-30{fill:#ff6f00;}.cls-4,.cls-18,.cls-22{stroke:#ff6f00;}.cls-8,.cls-9,.cls-10,.cls-11,.cls-12,.cls-13,.cls-14,.cls-15,.cls-16,.cls-17,.cls-18,.cls-19,.cls-20,.cls-21,.cls-22,.cls-23,.cls-24,.cls-25,.cls-26{stroke-width:.5px;}.cls-9,.cls-34,.cls-15,.cls-18,.cls-19,.cls-20,.cls-31{fill:#fff;}.cls-10,.cls-17{fill:#e5e6e8;}.cls-11,.cls-16{fill:#ffa800;}.cls-35,.cls-32{fill:#e6e6e6;}.cls-36,.cls-29{fill:#ccc;}.cls-37,.cls-12,.cls-28{fill:#425066;}.cls-13{fill:#ced0d1;}.cls-14,.cls-26{fill:#9fa1a2;}.cls-15{stroke:#697587;}.cls-19{stroke:#fff;}.cls-21,.cls-25{fill:#616161;}.cls-24{fill:#697587;}.cls-25{stroke:#616161;}</style></defs><path class="cls-4" d="M1469.27,195.32l44.49-25.69c11.11-6.42,24.81-6.42,35.92,0l15.68,9.05c17.83,10.29,39.8,10.29,57.63,0l189.76-109.56"/><path class="cls-6" d="M1532.01,32.24l57.61,34.43c12.69,7.58,28.52,7.58,41.21,0l57.61-34.43"/><path class="cls-5" d="M1547.33,114.19l123.09,71.93c10.72,6.27,23.97,6.33,34.76,.18l42.95-25.5c7.96-4.72,7.88-16.26-.13-20.89l-153.36-88.47"/><path class="cls-6" d="M1516.11,204.33l179.55,103.84c13.97,8.08,31.18,8.15,45.22,.19l86.03-48.78c10.67-6.05,23.75-6,34.38,.13l80.1,46.24c12.72,7.34,12.7,25.71-.04,33.02l-283.49,162.67"/><path class="cls-5" d="M1092.98,23.02l63.64,36.74c7.17,4.14,7.21,10.84,.08,14.95l-10.07,5.82c-7.13,4.12-7.09,10.81,.08,14.95l28.32,16.35c7.17,4.14,18.77,4.16,25.9,.05l8.36-4.83c11.75-6.78,30.86-6.75,42.68,.08l90.77,52.4"/><path class="cls-4" d="M924.48,34.28l58.77,33.93c7.17,4.14,7.21,10.84,.08,14.95l-9.46,5.46c-7.13,4.12-18.73,4.1-25.9-.05l-105.59-60.96c-7.17-4.14-18.77-4.16-25.9-.05l-36.44,21.04c-7.13,4.12-7.09,10.81,.08,14.95l38.21,22.06"/><path class="cls-4" d="M430.58,113.68l58.77,33.93c7.17,4.14,7.21,10.84,.08,14.95l-9.46,5.46c-7.13,4.12-18.73,4.1-25.9-.05l-105.59-60.96c-7.17-4.14-18.77-4.16-25.9-.05l-36.44,21.04c-7.13,4.12-7.09,10.81,.08,14.95l38.21,22.06"/><path class="cls-33" d="M919.72,27.03c2.48,0,4.5,2.02,4.5,4.5,0,1.2-.47,2.33-1.32,3.18-.85,.85-1.98,1.32-3.18,1.32-2.48,0-4.5-2.02-4.5-4.5,0-1.2,.47-2.33,1.32-3.18,.85-.85,1.98-1.32,3.18-1.32m0-1c-3.04,0-5.5,2.46-5.5,5.5,0,3.04,2.46,5.5,5.5,5.5s5.5-2.46,5.5-5.5c0-3.04-2.46-5.5-5.5-5.5h0Z"/><path class="cls-33" d="M328.34,163.78c2.48,0,4.5,2.02,4.5,4.5,0,1.2-.47,2.33-1.32,3.18-.85,.85-1.98,1.32-3.18,1.32-2.48,0-4.5-2.02-4.5-4.5s2.02-4.5,4.5-4.5m0-1c-3.04,0-5.5,2.46-5.5,5.5s2.46,5.5,5.5,5.5,5.5-2.46,5.5-5.5c0-3.04-2.46-5.5-5.5-5.5h0Z"/><g><circle class="cls-33" cx="823.09" cy="88.37" r="5"/><path class="cls-33" d="M823.09,83.87c2.48,0,4.5,2.02,4.5,4.5,0,2.48-2.02,4.5-4.5,4.5s-4.5-2.02-4.5-4.5c0-1.2,.47-2.33,1.32-3.18,.85-.85,1.98-1.32,3.18-1.32m0-1c-3.04,0-5.5,2.46-5.5,5.5,0,3.04,2.46,5.5,5.5,5.5s5.5-2.46,5.5-5.5c0-3.04-2.46-5.5-5.5-5.5h0Z"/></g><g><path class="cls-30" d="M1468.43,200.88c-2.76,0-5-2.24-5-5,0-1.34,.52-2.59,1.46-3.54,.94-.94,2.2-1.46,3.54-1.46,2.76,0,5,2.24,5,5s-2.24,5-5,5Z"/><path class="cls-33" d="M1468.43,191.38c2.48,0,4.5,2.02,4.5,4.5,0,1.2-.47,2.33-1.32,3.18-.85,.85-1.98,1.32-3.18,1.32-2.48,0-4.5-2.02-4.5-4.5,0-2.48,2.02-4.5,4.5-4.5m0-1c-3.04,0-5.5,2.46-5.5,5.5,0,3.04,2.46,5.5,5.5,5.5s5.5-2.46,5.5-5.5c0-3.04-2.46-5.5-5.5-5.5h0Z"/></g><g><path class="cls-30" d="M1423.53,443.39c-2.76,0-5-2.24-5-5s2.24-5,5-5,5,2.24,5,5-2.24,5-5,5Z"/><path class="cls-33" d="M1423.53,433.9c2.48,0,4.5,2.02,4.5,4.5,0,1.2-.47,2.33-1.32,3.18-.85,.85-1.98,1.32-3.18,1.32-2.48,0-4.5-2.02-4.5-4.5,0-1.2,.47-2.33,1.32-3.18,.85-.85,1.98-1.32,3.18-1.32m0-1c-3.04,0-5.5,2.46-5.5,5.5,0,3.04,2.46,5.5,5.5,5.5s5.5-2.46,5.5-5.5c0-3.04-2.46-5.5-5.5-5.5h0Z"/></g><g><circle class="cls-33" cx="1577.36" cy="455.89" r="5"/><path class="cls-33" d="M1577.36,451.39c2.48,0,4.5,2.02,4.5,4.5,0,2.48-2.02,4.5-4.5,4.5s-4.5-2.02-4.5-4.5,2.02-4.5,4.5-4.5m0-1c-3.04,0-5.5,2.46-5.5,5.5s2.46,5.5,5.5,5.5,5.5-2.46,5.5-5.5c0-3.04-2.46-5.5-5.5-5.5h0Z"/></g><g><path class="cls-30" d="M1814.24,74.79c-2.76,0-5-2.24-5-5s2.24-5,5-5,5,2.24,5,5-2.24,5-5,5Z"/><path class="cls-33" d="M1814.24,65.29c2.48,0,4.5,2.02,4.5,4.5,0,2.48-2.02,4.5-4.5,4.5s-4.5-2.02-4.5-4.5,2.02-4.5,4.5-4.5m0-1c-3.04,0-5.5,2.46-5.5,5.5s2.46,5.5,5.5,5.5,5.5-2.46,5.5-5.5c0-3.04-2.46-5.5-5.5-5.5h0Z"/></g><g><circle class="cls-33" cx="433.02" cy="114.19" r="5"/><path class="cls-33" d="M433.02,109.69c2.48,0,4.5,2.02,4.5,4.5s-2.02,4.5-4.5,4.5-4.5-2.02-4.5-4.5c0-2.48,2.02-4.5,4.5-4.5m0-1c-3.04,0-5.5,2.46-5.5,5.5,0,3.04,2.46,5.5,5.5,5.5s5.5-2.46,5.5-5.5-2.46-5.5-5.5-5.5h0Z"/></g><g><circle class="cls-33" cx="523.36" cy="469.15" r="5"/><path class="cls-33" d="M523.36,464.65c2.48,0,4.5,2.02,4.5,4.5,0,1.2-.47,2.33-1.32,3.18-.85,.85-1.98,1.32-3.18,1.32-2.48,0-4.5-2.02-4.5-4.5,0-2.48,2.02-4.5,4.5-4.5m0-1c-3.04,0-5.5,2.46-5.5,5.5,0,3.04,2.46,5.5,5.5,5.5s5.5-2.46,5.5-5.5c0-3.04-2.46-5.5-5.5-5.5h0Z"/></g><g><circle class="cls-33" cx="19.85" cy="238.44" r="5"/><path class="cls-33" d="M19.85,233.94c2.48,0,4.5,2.02,4.5,4.5s-2.02,4.5-4.5,4.5-4.5-2.02-4.5-4.5,2.02-4.5,4.5-4.5m0-1c-3.04,0-5.5,2.46-5.5,5.5s2.46,5.5,5.5,5.5,5.5-2.46,5.5-5.5-2.46-5.5-5.5-5.5h0Z"/></g><path class="cls-6" d="M1336.27,13.64l-175.46,102.11c-14.26,8.23-37.45,8.19-51.8-.09l-103.63-59.83c-14.35-8.28-37.54-8.33-51.8-.09l-102.98,59.45c-14.26,8.23-37.45,8.19-51.8-.09l-124.39-71.81"/><path class="cls-6" d="M521.21,95.05l-175.46,102.11c-14.26,8.23-37.45,8.19-51.8-.09l-103.63-59.83c-14.35-8.28-37.54-8.33-51.8-.09l-102.98,59.45"/><path class="cls-6" d="M529.41,136.89l33.79,19.51c7.17,4.14,7.21,10.84,.08,14.95l-20.88,12.05c-7.13,4.12-7.09,10.81,.08,14.95l52.33,30.22c7.17,4.14,7.21,10.84,.08,14.95l-33.18,19.16"/><path class="cls-5" d="M521.52,65.24l105.47,60.89c6.34,3.66,6.38,9.58,.07,13.22h0c-6.3,3.64-6.27,9.56,.07,13.22l27.15,15.67"/><path class="cls-5" d="M74.04,109.16l105.47,60.89c6.34,3.66,6.38,9.58,.07,13.22h0c-6.3,3.64-6.27,9.56,.07,13.22l27.15,15.67"/><path class="cls-6" d="M1462.87,294.64l-50.52,29.17c-7.13,4.12-7.09,10.81,.08,14.95l14.74,8.51c7.17,4.14,7.21,10.84,.08,14.95l-48.71,28.13"/><path class="cls-7" d="M1472.04,92.8l-64.45,37.21c-14.26,8.23-37.45,8.19-51.8-.09l-49.2-28.41"/><path class="cls-5" d="M648.7,109.99l-36.26-20.94c-7.17-4.14-7.21-10.84-.08-14.95l31.25-18.04c7.13-4.12,7.09-10.81-.08-14.95l-29.36-16.95c-7.17-4.14-18.77-4.16-25.9-.05l-44.16,25.5"/><line class="cls-2" x1="1420.95" y1="343.68" x2="1469.86" y2="371.92"/><g><circle class="cls-34" cx="1471.06" cy="372.39" r="5"/><path class="cls-37" d="M1471.06,367.89c2.48,0,4.5,2.02,4.5,4.5,0,2.48-2.02,4.5-4.5,4.5s-4.5-2.02-4.5-4.5c0-1.2,.47-2.33,1.32-3.18,.85-.85,1.98-1.32,3.18-1.32m0-1c-3.04,0-5.5,2.46-5.5,5.5,0,3.04,2.46,5.5,5.5,5.5s5.5-2.46,5.5-5.5c0-3.04-2.46-5.5-5.5-5.5h0Z"/></g><g><circle class="cls-37" cx="1373.78" cy="393.1" r="5"/><path class="cls-37" d="M1373.78,388.6c2.48,0,4.5,2.02,4.5,4.5,0,1.2-.47,2.33-1.32,3.18-.85,.85-1.98,1.32-3.18,1.32-2.48,0-4.5-2.02-4.5-4.5,0-2.48,2.02-4.5,4.5-4.5m0-1c-3.04,0-5.5,2.46-5.5,5.5,0,3.04,2.46,5.5,5.5,5.5s5.5-2.46,5.5-5.5c0-3.04-2.46-5.5-5.5-5.5h0Z"/></g><g><circle class="cls-37" cx="1459.68" cy="295.68" r="5"/><path class="cls-37" d="M1459.68,291.18c2.48,0,4.5,2.02,4.5,4.5,0,1.2-.47,2.33-1.32,3.18-.85,.85-1.98,1.32-3.18,1.32-2.48,0-4.5-2.02-4.5-4.5,0-2.48,2.02-4.5,4.5-4.5m0-1c-3.04,0-5.5,2.46-5.5,5.5,0,3.04,2.46,5.5,5.5,5.5s5.5-2.46,5.5-5.5c0-3.04-2.46-5.5-5.5-5.5h0Z"/></g><g><circle class="cls-37" cx="1656.39" cy="502.28" r="5"/><path class="cls-37" d="M1656.39,497.78c2.48,0,4.5,2.02,4.5,4.5,0,1.2-.47,2.33-1.32,3.18-.85,.85-1.98,1.32-3.18,1.32-2.48,0-4.5-2.02-4.5-4.5,0-2.48,2.02-4.5,4.5-4.5m0-1c-3.04,0-5.5,2.46-5.5,5.5,0,3.04,2.46,5.5,5.5,5.5s5.5-2.46,5.5-5.5c0-3.04-2.46-5.5-5.5-5.5h0Z"/></g><path class="cls-7" d="M699.6,85.56l55.28,31.92c7.13,4.12,7.09,10.81-.08,14.95l-14.74,8.51c-7.17,4.14-7.21,10.84-.08,14.95l48.71,28.13"/><line class="cls-3" x1="746.27" y1="137.35" x2="692.61" y2="168.33"/><g><path class="cls-31" d="M692.61,173.33c-2.76,0-5-2.24-5-5s2.24-5,5-5,5,2.24,5,5-2.24,5-5,5h0Z"/><path class="cls-36" d="M692.61,163.83c1.2,0,2.33,.47,3.18,1.32,.85,.85,1.32,1.98,1.32,3.18,0,2.48-2.02,4.5-4.5,4.5-2.48,0-4.5-2.02-4.5-4.5,0-2.48,2.02-4.5,4.5-4.5m0-1c-3.04,0-5.5,2.46-5.5,5.5,0,3.04,2.46,5.5,5.5,5.5,3.04,0,5.5-2.46,5.5-5.5,0-3.04-2.46-5.5-5.5-5.5h0Z"/></g><g><circle class="cls-36" cx="699.6" cy="85.56" r="5"/><path class="cls-36" d="M699.6,81.06c2.48,0,4.5,2.02,4.5,4.5,0,2.48-2.02,4.5-4.5,4.5-1.2,0-2.33-.47-3.18-1.32-.85-.85-1.32-1.98-1.32-3.18,0-2.48,2.02-4.5,4.5-4.5m0-1c-3.04,0-5.5,2.46-5.5,5.5,0,3.04,2.46,5.5,5.5,5.5s5.5-2.46,5.5-5.5c0-3.04-2.46-5.5-5.5-5.5h0Z"/></g><g><circle class="cls-36" cx="793.45" cy="186.77" r="5"/><path class="cls-36" d="M793.45,182.27c1.2,0,2.33,.47,3.18,1.32,.85,.85,1.32,1.98,1.32,3.18,0,2.48-2.02,4.5-4.5,4.5-1.2,0-2.33-.47-3.18-1.32-.85-.85-1.32-1.98-1.32-3.18,0-2.48,2.02-4.5,4.5-4.5m0-1c-3.04,0-5.5,2.46-5.5,5.5s2.46,5.5,5.5,5.5,5.5-2.46,5.5-5.5-2.46-5.5-5.5-5.5h0Z"/></g><path class="cls-7" d="M1336.35,255.54l-11.22,6.48c-7.13,4.12-7.09,10.81,.08,14.95l38.76,22.38c7.17,4.14,18.77,4.16,25.9,.05l93.75-54.13c7.13-4.12,7.09-10.81-.08-14.95l-111.85-64.58c-7.17-4.14-7.21-10.84-.08-14.95l56.62-32.69"/><g><path class="cls-29" d="M1336.35,260.54c-2.76,0-5-2.24-5-5s2.24-5,5-5,5,2.24,5,5-2.24,5-5,5h0Z"/><path class="cls-36" d="M1336.35,251.04c2.48,0,4.5,2.02,4.5,4.5,0,1.2-.47,2.33-1.32,3.18-.85,.85-1.98,1.32-3.18,1.32-2.48,0-4.5-2.02-4.5-4.5,0-2.48,2.02-4.5,4.5-4.5m0-1c-3.04,0-5.5,2.46-5.5,5.5,0,3.04,2.46,5.5,5.5,5.5,3.04,0,5.5-2.46,5.5-5.5,0-3.04-2.46-5.5-5.5-5.5h0Z"/></g><g><circle class="cls-36" cx="1624.75" cy="230.79" r="5"/><path class="cls-36" d="M1624.75,226.29c2.48,0,4.5,2.02,4.5,4.5,0,2.48-2.02,4.5-4.5,4.5s-4.5-2.02-4.5-4.5,2.02-4.5,4.5-4.5m0-1c-3.04,0-5.5,2.46-5.5,5.5s2.46,5.5,5.5,5.5,5.5-2.46,5.5-5.5c0-3.04-2.46-5.5-5.5-5.5h0Z"/></g><g><circle class="cls-36" cx="1907.88" cy="68.44" r="5"/><path class="cls-36" d="M1907.88,63.94c2.48,0,4.5,2.02,4.5,4.5,0,2.48-2.02,4.5-4.5,4.5s-4.5-2.02-4.5-4.5,2.02-4.5,4.5-4.5m0-1c-3.04,0-5.5,2.46-5.5,5.5s2.46,5.5,5.5,5.5,5.5-2.46,5.5-5.5c0-3.04-2.46-5.5-5.5-5.5h0Z"/></g><g><circle class="cls-36" cx="1799.46" cy="459.54" r="5"/><path class="cls-36" d="M1799.46,455.04c2.48,0,4.5,2.02,4.5,4.5s-2.02,4.5-4.5,4.5-4.5-2.02-4.5-4.5,2.02-4.5,4.5-4.5m0-1c-3.04,0-5.5,2.46-5.5,5.5s2.46,5.5,5.5,5.5,5.5-2.46,5.5-5.5-2.46-5.5-5.5-5.5h0Z"/></g><circle class="cls-1" cx="1812.66" cy="176.48" r="5.5" transform="translate(406.13 1333.44) rotate(-45)"/><g><circle class="cls-35" cx="1688.07" cy="375.09" r="5"/><path class="cls-35" d="M1688.07,370.59c2.48,0,4.5,2.02,4.5,4.5,0,1.2-.47,2.33-1.32,3.18-.85,.85-1.98,1.32-3.18,1.32-2.48,0-4.5-2.02-4.5-4.5s2.02-4.5,4.5-4.5m0-1c-3.04,0-5.5,2.46-5.5,5.5s2.46,5.5,5.5,5.5,5.5-2.46,5.5-5.5c0-3.04-2.46-5.5-5.5-5.5h0Z"/></g><g><circle class="cls-34" cx="544.1" cy="49.6" r="5"/><path class="cls-35" d="M544.1,45.1c2.48,0,4.5,2.02,4.5,4.5,0,1.2-.47,2.33-1.32,3.18-.85,.85-1.98,1.32-3.18,1.32-2.48,0-4.5-2.02-4.5-4.5,0-1.2,.47-2.33,1.32-3.18,.85-.85,1.98-1.32,3.18-1.32m0-1c-3.04,0-5.5,2.46-5.5,5.5,0,3.04,2.46,5.5,5.5,5.5s5.5-2.46,5.5-5.5c0-3.04-2.46-5.5-5.5-5.5h0Z"/></g><g><circle class="cls-36" cx="1306.59" cy="101.51" r="5"/><path class="cls-36" d="M1306.59,97.01c2.48,0,4.5,2.02,4.5,4.5,0,1.2-.47,2.33-1.32,3.18-.85,.85-1.98,1.32-3.18,1.32-2.48,0-4.5-2.02-4.5-4.5,0-2.48,2.02-4.5,4.5-4.5m0-1c-3.04,0-5.5,2.46-5.5,5.5,0,3.04,2.46,5.5,5.5,5.5s5.5-2.46,5.5-5.5c0-3.04-2.46-5.5-5.5-5.5h0Z"/></g><g><circle class="cls-34" cx="1473.61" cy="91.28" r="5"/><path class="cls-36" d="M1473.61,86.78c2.48,0,4.5,2.02,4.5,4.5,0,2.48-2.02,4.5-4.5,4.5s-4.5-2.02-4.5-4.5c0-1.2,.47-2.33,1.32-3.18,.85-.85,1.98-1.32,3.18-1.32m0-1c-3.04,0-5.5,2.46-5.5,5.5,0,3.04,2.46,5.5,5.5,5.5s5.5-2.46,5.5-5.5c0-3.04-2.46-5.5-5.5-5.5h0Z"/></g><g><path class="cls-32" d="M653.09,117.53c-2.76,0-5-2.24-5-5s2.24-5,5-5,5,2.24,5,5c0,2.76-2.24,5-5,5Z"/><path class="cls-35" d="M653.09,108.03c2.48,0,4.5,2.02,4.5,4.5,0,1.2-.47,2.33-1.32,3.18-.85,.85-1.98,1.32-3.18,1.32-2.48,0-4.5-2.02-4.5-4.5,0-2.48,2.02-4.5,4.5-4.5m0-1c-3.04,0-5.5,2.46-5.5,5.5,0,3.04,2.46,5.5,5.5,5.5s5.5-2.46,5.5-5.5c0-3.04-2.46-5.5-5.5-5.5h0Z"/></g><g><circle class="cls-37" cx="1336.46" cy="13.59" r="5"/><path class="cls-37" d="M1336.46,9.09c2.48,0,4.5,2.02,4.5,4.5s-2.02,4.5-4.5,4.5-4.5-2.02-4.5-4.5c0-2.48,2.02-4.5,4.5-4.5m0-1c-3.04,0-5.5,2.46-5.5,5.5,0,3.04,2.46,5.5,5.5,5.5s5.5-2.46,5.5-5.5-2.46-5.5-5.5-5.5h0Z"/></g><g><circle class="cls-37" cx="1531.91" cy="33.02" r="5"/><path class="cls-37" d="M1531.91,28.52c2.48,0,4.5,2.02,4.5,4.5,0,1.2-.47,2.33-1.32,3.18-.85,.85-1.98,1.32-3.18,1.32-2.48,0-4.5-2.02-4.5-4.5s2.02-4.5,4.5-4.5m0-1c-3.04,0-5.5,2.46-5.5,5.5s2.46,5.5,5.5,5.5,5.5-2.46,5.5-5.5c0-3.04-2.46-5.5-5.5-5.5h0Z"/></g><g><path class="cls-28" d="M1687.84,37.01c-2.76,0-5-2.24-5-5s2.24-5,5-5,5,2.24,5,5-2.24,5-5,5Z"/><path class="cls-37" d="M1687.84,27.51c2.48,0,4.5,2.02,4.5,4.5s-2.02,4.5-4.5,4.5-4.5-2.02-4.5-4.5,2.02-4.5,4.5-4.5m0-1c-3.04,0-5.5,2.46-5.5,5.5s2.46,5.5,5.5,5.5,5.5-2.46,5.5-5.5-2.46-5.5-5.5-5.5h0Z"/></g><path class="cls-5" d="M515.91,275.08l36.28,20.95c7.17,4.14,7.21,10.84,.08,14.95l-38.78,22.39"/><path class="cls-5" d="M193.33,33.07l83.12,47.99c7.17,4.14,7.21,10.84,.08,14.95l-38.78,22.39"/><path class="cls-35" d="M509.22,331.33c2.48,0,4.5,2.02,4.5,4.5,0,2.48-2.02,4.5-4.5,4.5s-4.5-2.02-4.5-4.5c0-1.2,.47-2.33,1.32-3.18,.85-.85,1.98-1.32,3.18-1.32m0-1c-3.04,0-5.5,2.46-5.5,5.5,0,3.04,2.46,5.5,5.5,5.5s5.5-2.46,5.5-5.5c0-3.04-2.46-5.5-5.5-5.5h0Z"/><g><path class="cls-32" d="M515.92,280.08c-2.76,0-5-2.24-5-5s2.24-5,5-5,5,2.24,5,5c0,2.76-2.24,5-5,5Z"/><path class="cls-35" d="M515.92,270.58c2.48,0,4.5,2.02,4.5,4.5,0,1.2-.47,2.33-1.32,3.18-.85,.85-1.98,1.32-3.18,1.32-2.48,0-4.5-2.02-4.5-4.5,0-2.48,2.02-4.5,4.5-4.5m0-1c-3.04,0-5.5,2.46-5.5,5.5,0,3.04,2.46,5.5,5.5,5.5s5.5-2.46,5.5-5.5c0-3.04-2.46-5.5-5.5-5.5h0Z"/></g><g><path class="cls-32" d="M443.78,218.2c-2.76,0-5-2.24-5-5s2.24-5,5-5,5,2.24,5,5-2.24,5-5,5Z"/><path class="cls-35" d="M443.78,208.7c2.48,0,4.5,2.02,4.5,4.5s-2.02,4.5-4.5,4.5-4.5-2.02-4.5-4.5c0-1.2,.47-2.33,1.32-3.18,.85-.85,1.98-1.32,3.18-1.32m0-1c-3.04,0-5.5,2.46-5.5,5.5,0,3.04,2.46,5.5,5.5,5.5s5.5-2.46,5.5-5.5-2.46-5.5-5.5-5.5h0Z"/></g><path class="cls-5" d="M1452.03,30.48l31.51,18.19c7.17,4.14,7.21,10.84,.08,14.95l-42.43,24.5"/><g><path class="cls-32" d="M1440.58,93.48c-2.76,0-5-2.24-5-5s2.24-5,5-5,5,2.24,5,5-2.24,5-5,5Z"/><path class="cls-35" d="M1440.58,83.98c2.48,0,4.5,2.02,4.5,4.5,0,1.2-.47,2.33-1.32,3.18-.85,.85-1.98,1.32-3.18,1.32-2.48,0-4.5-2.02-4.5-4.5s2.02-4.5,4.5-4.5m0-1c-3.04,0-5.5,2.46-5.5,5.5s2.46,5.5,5.5,5.5c3.04,0,5.5-2.46,5.5-5.5,0-3.04-2.46-5.5-5.5-5.5h0Z"/></g><path class="cls-35" d="M1447.28,23.22c2.48,0,4.5,2.02,4.5,4.5,0,2.48-2.02,4.5-4.5,4.5s-4.5-2.02-4.5-4.5c0-1.2,.47-2.33,1.32-3.18,.85-.85,1.98-1.32,3.18-1.32m0-1c-3.04,0-5.5,2.46-5.5,5.5,0,3.04,2.46,5.5,5.5,5.5s5.5-2.46,5.5-5.5c0-3.04-2.46-5.5-5.5-5.5h0Z"/><path class="cls-5" d="M525.91,300.08l36.28,20.95c7.17,4.14,7.21,10.84,.08,14.95l-42.43,24.5"/><g><circle class="cls-35" cx="519.22" cy="360.83" r="5"/><path class="cls-35" d="M519.22,356.33c2.48,0,4.5,2.02,4.5,4.5,0,2.48-2.02,4.5-4.5,4.5s-4.5-2.02-4.5-4.5c0-1.2,.47-2.33,1.32-3.18,.85-.85,1.98-1.32,3.18-1.32m0-1c-3.04,0-5.5,2.46-5.5,5.5,0,3.04,2.46,5.5,5.5,5.5s5.5-2.46,5.5-5.5c0-3.04-2.46-5.5-5.5-5.5h0Z"/></g><g><circle class="cls-35" cx="205.82" cy="212.86" r="5"/><path class="cls-35" d="M205.82,208.36c2.48,0,4.5,2.02,4.5,4.5s-2.02,4.5-4.5,4.5-4.5-2.02-4.5-4.5c0-1.2,.47-2.33,1.32-3.18,.85-.85,1.98-1.32,3.18-1.32m0-1c-3.04,0-5.5,2.46-5.5,5.5,0,3.04,2.46,5.5,5.5,5.5s5.5-2.46,5.5-5.5-2.46-5.5-5.5-5.5h0Z"/></g><g><path class="cls-31" d="M525.92,305.08c-2.76,0-5-2.24-5-5s2.24-5,5-5,5,2.24,5,5c0,2.76-2.24,5-5,5Z"/><path class="cls-35" d="M525.92,295.58c2.48,0,4.5,2.02,4.5,4.5,0,1.2-.47,2.33-1.32,3.18-.85,.85-1.98,1.32-3.18,1.32-2.48,0-4.5-2.02-4.5-4.5,0-2.48,2.02-4.5,4.5-4.5m0-1c-3.04,0-5.5,2.46-5.5,5.5,0,3.04,2.46,5.5,5.5,5.5s5.5-2.46,5.5-5.5c0-3.04-2.46-5.5-5.5-5.5h0Z"/></g><g><circle class="cls-34" cx="74.05" cy="109.16" r="5"/><path class="cls-35" d="M74.05,104.66c2.48,0,4.5,2.02,4.5,4.5,0,2.48-2.02,4.5-4.5,4.5s-4.5-2.02-4.5-4.5,2.02-4.5,4.5-4.5m0-1c-3.04,0-5.5,2.46-5.5,5.5s2.46,5.5,5.5,5.5,5.5-2.46,5.5-5.5c0-3.04-2.46-5.5-5.5-5.5h0Z"/></g><g><circle class="cls-34" cx="235.83" cy="119.86" r="5"/><path class="cls-35" d="M235.83,115.36c2.48,0,4.5,2.02,4.5,4.5,0,1.2-.47,2.33-1.32,3.18-.85,.85-1.98,1.32-3.18,1.32-2.48,0-4.5-2.02-4.5-4.5s2.02-4.5,4.5-4.5m0-1c-3.04,0-5.5,2.46-5.5,5.5s2.46,5.5,5.5,5.5,5.5-2.46,5.5-5.5c0-3.04-2.46-5.5-5.5-5.5h0Z"/></g><g><path class="cls-31" d="M193.07,38.48c-2.76,0-5-2.24-5-5s2.24-5,5-5,5,2.24,5,5-2.24,5-5,5Z"/><path class="cls-35" d="M193.07,28.98c2.48,0,4.5,2.02,4.5,4.5,0,1.2-.47,2.33-1.32,3.18-.85,.85-1.98,1.32-3.18,1.32-2.48,0-4.5-2.02-4.5-4.5,0-2.48,2.02-4.5,4.5-4.5m0-1c-3.04,0-5.5,2.46-5.5,5.5,0,3.04,2.46,5.5,5.5,5.5,3.04,0,5.5-2.46,5.5-5.5s-2.46-5.5-5.5-5.5h0Z"/></g><g><circle class="cls-34" cx="654.28" cy="168.25" r="5"/><path class="cls-35" d="M654.28,163.75c2.48,0,4.5,2.02,4.5,4.5s-2.02,4.5-4.5,4.5-4.5-2.02-4.5-4.5c0-2.48,2.02-4.5,4.5-4.5m0-1c-3.04,0-5.5,2.46-5.5,5.5,0,3.04,2.46,5.5,5.5,5.5s5.5-2.46,5.5-5.5-2.46-5.5-5.5-5.5h0Z"/></g><g><path class="cls-31" d="M674.42,48.28c-2.76,0-5-2.24-5-5,0-1.34,.52-2.59,1.46-3.54s2.2-1.46,3.54-1.46h0c2.76,0,5,2.24,5,5s-2.24,5-5,5Z"/><path class="cls-37" d="M674.42,38.78c2.48,0,4.5,2.02,4.5,4.5,0,1.2-.47,2.33-1.32,3.18-.85,.85-1.98,1.32-3.18,1.32-2.48,0-4.5-2.02-4.5-4.5,0-1.2,.47-2.33,1.32-3.18s1.98-1.32,3.18-1.32h0m0-1c-3.04,0-5.5,2.46-5.5,5.5,0,3.04,2.46,5.5,5.5,5.5s5.5-2.46,5.5-5.5c0-3.04-2.46-5.5-5.5-5.5h0Z"/></g><g><path class="cls-31" d="M521.52,70.24c-2.76,0-5-2.24-5-5,0-2.76,2.24-5,5-5s5,2.24,5,5-2.24,5-5,5Z"/><path class="cls-35" d="M521.52,60.74c2.48,0,4.5,2.02,4.5,4.5,0,2.48-2.02,4.5-4.5,4.5s-4.5-2.02-4.5-4.5c0-1.2,.47-2.33,1.32-3.18,.85-.85,1.98-1.32,3.18-1.32m0-1c-3.04,0-5.5,2.46-5.5,5.5,0,3.04,2.46,5.5,5.5,5.5s5.5-2.46,5.5-5.5c0-3.04-2.46-5.5-5.5-5.5h0Z"/></g><path class="cls-37" d="M524.65,129.64c2.48,0,4.5,2.02,4.5,4.5,0,1.2-.47,2.33-1.32,3.18-.85,.85-1.98,1.32-3.18,1.32-2.48,0-4.5-2.02-4.5-4.5,0-2.48,2.02-4.5,4.5-4.5m0-1c-3.04,0-5.5,2.46-5.5,5.5,0,3.04,2.46,5.5,5.5,5.5s5.5-2.46,5.5-5.5c0-3.04-2.46-5.5-5.5-5.5h0Z"/><g><circle class="cls-34" cx="556.96" cy="265.43" r="5"/><path class="cls-37" d="M556.96,260.93c2.48,0,4.5,2.02,4.5,4.5s-2.02,4.5-4.5,4.5-4.5-2.02-4.5-4.5c0-2.48,2.02-4.5,4.5-4.5m0-1c-3.04,0-5.5,2.46-5.5,5.5,0,3.04,2.46,5.5,5.5,5.5s5.5-2.46,5.5-5.5-2.46-5.5-5.5-5.5h0Z"/></g><path class="cls-4" d="M1159.03,31.23l65.85,38.02c14.35,8.28,37.54,8.33,51.8,.09l1.74-1.01c14.26-8.23,37.45-8.19,51.8,.09l113.49,65.52"/><path class="cls-4" d="M18.58,237.42l285.49,166.02c14.36,8.27,37.55,8.3,51.8,.05l1.74-1.01c14.25-8.24,37.44-8.22,51.8,.05l113.54,65.44"/><g><circle class="cls-34" cx="1159.03" cy="31.23" r="5"/><path class="cls-33" d="M1159.03,26.73c2.48,0,4.5,2.02,4.5,4.5,0,1.2-.47,2.33-1.32,3.18-.85,.85-1.98,1.32-3.18,1.32-2.48,0-4.5-2.02-4.5-4.5,0-1.2,.47-2.33,1.32-3.18,.85-.85,1.98-1.32,3.18-1.32m0-1c-3.04,0-5.5,2.46-5.5,5.5s2.46,5.5,5.5,5.5,5.5-2.46,5.5-5.5-2.46-5.5-5.5-5.5h0Z"/></g><g><circle class="cls-34" cx="1443.72" cy="133.96" r="5"/><path class="cls-33" d="M1443.72,129.46c2.48,0,4.5,2.02,4.5,4.5,0,2.48-2.02,4.5-4.5,4.5s-4.5-2.02-4.5-4.5c0-1.2,.47-2.33,1.32-3.18,.85-.85,1.98-1.32,3.18-1.32m0-1c-3.04,0-5.5,2.46-5.5,5.5,0,3.04,2.46,5.5,5.5,5.5s5.5-2.46,5.5-5.5c0-3.04-2.46-5.5-5.5-5.5h0Z"/></g><path class="cls-5" d="M1326.98,343.68l30.42,17.57c7.17,4.14,7.21,10.84,.08,14.95l-16.73,9.66c-7.13,4.12-7.09,10.81,.08,14.95l25.74,14.86c7.17,4.14,7.21,10.84,.08,14.95l-13.61,7.86c-7.13,4.12-7.09,10.81,.08,14.95l52.79,30.48"/><g><path class="cls-31" d="M1405.92,488.92c-2.76,0-5-2.24-5-5s2.24-5,5-5,5,2.24,5,5c0,1.34-.52,2.59-1.46,3.54-.94,.94-2.2,1.46-3.54,1.46Z"/><path class="cls-35" d="M1405.92,479.42c2.48,0,4.5,2.02,4.5,4.5,0,2.48-2.02,4.5-4.5,4.5s-4.5-2.02-4.5-4.5,2.02-4.5,4.5-4.5m0-1c-3.04,0-5.5,2.46-5.5,5.5s2.46,5.5,5.5,5.5,5.5-2.46,5.5-5.5c0-3.04-2.46-5.5-5.5-5.5h0Z"/></g><g><path class="cls-32" d="M1326.98,348.68c-2.76,0-5-2.24-5-5s2.24-5,5-5,5,2.24,5,5c0,1.34-.52,2.59-1.46,3.54-.94,.94-2.2,1.46-3.54,1.46Z"/><path class="cls-35" d="M1326.98,339.18c2.48,0,4.5,2.02,4.5,4.5,0,2.48-2.02,4.5-4.5,4.5s-4.5-2.02-4.5-4.5c0-1.2,.47-2.33,1.32-3.18,.85-.85,1.98-1.32,3.18-1.32m0-1c-3.04,0-5.5,2.46-5.5,5.5,0,3.04,2.46,5.5,5.5,5.5s5.5-2.46,5.5-5.5c0-3.04-2.46-5.5-5.5-5.5h0Z"/></g><path class="cls-5" d="M623.48,202.8l30.42,17.57c7.17,4.14,7.21,10.84,.08,14.95l-16.73,9.66c-7.13,4.12-7.09,10.81,.08,14.95l25.74,14.86c7.17,4.14,7.21,10.84,.08,14.95l-13.61,7.86c-7.13,4.12-7.09,10.81,.08,14.95l52.79,30.48"/><g><circle class="cls-35" cx="700.2" cy="343.06" r="5"/><path class="cls-35" d="M700.2,338.56c2.48,0,4.5,2.02,4.5,4.5,0,1.2-.47,2.33-1.32,3.18-.85,.85-1.98,1.32-3.18,1.32-2.48,0-4.5-2.02-4.5-4.5,0-2.48,2.02-4.5,4.5-4.5m0-1c-3.04,0-5.5,2.46-5.5,5.5,0,3.04,2.46,5.5,5.5,5.5s5.5-2.46,5.5-5.5c0-3.04-2.46-5.5-5.5-5.5h0Z"/></g><g><circle class="cls-35" cx="621.25" cy="202.82" r="5"/><path class="cls-35" d="M621.25,198.32c2.48,0,4.5,2.02,4.5,4.5,0,1.2-.47,2.33-1.32,3.18-.85,.85-1.98,1.32-3.18,1.32-2.48,0-4.5-2.02-4.5-4.5,0-2.48,2.02-4.5,4.5-4.5m0-1c-3.04,0-5.5,2.46-5.5,5.5,0,3.04,2.46,5.5,5.5,5.5s5.5-2.46,5.5-5.5c0-3.04-2.46-5.5-5.5-5.5h0Z"/></g><path class="cls-5" d="M1365.97,431.02l-67.57,39.01c-7.13,4.12-7.09,10.81,.08,14.95l73.68,42.54"/><g><path class="cls-31" d="M1372.15,532.52c-2.76,0-5-2.24-5-5s2.24-5,5-5,5,2.24,5,5-2.24,5-5,5Z"/><path class="cls-35" d="M1372.15,523.02c2.48,0,4.5,2.02,4.5,4.5,0,1.2-.47,2.33-1.32,3.18-.85,.85-1.98,1.32-3.18,1.32-2.48,0-4.5-2.02-4.5-4.5,0-2.48,2.02-4.5,4.5-4.5m0-1c-3.04,0-5.5,2.46-5.5,5.5,0,3.04,2.46,5.5,5.5,5.5s5.5-2.46,5.5-5.5c0-3.04-2.46-5.5-5.5-5.5h0Z"/></g><g><path class="cls-28" d="M34.11,202.84c-.33,0-.67-.03-1-.1-1.31-.27-2.44-1.03-3.17-2.14-.74-1.11-1-2.45-.73-3.76,.47-2.32,2.53-4,4.89-4,.33,0,.67,.03,1,.1,2.7,.55,4.45,3.19,3.9,5.9-.47,2.32-2.53,4.01-4.89,4.01h0Z"/><path class="cls-37" d="M34.1,193.34c.3,0,.6,.03,.9,.09,1.18,.24,2.19,.92,2.86,1.93,.66,1,.9,2.2,.66,3.38-.42,2.09-2.28,3.6-4.4,3.6-.3,0-.6-.03-.9-.09-2.43-.49-4.01-2.87-3.51-5.31,.42-2.09,2.28-3.6,4.4-3.6m0-1c-2.56,0-4.85,1.8-5.38,4.41-.61,2.98,1.32,5.88,4.29,6.49,.37,.08,.74,.11,1.1,.11,2.56,0,4.85-1.8,5.38-4.41,.61-2.98-1.32-5.88-4.29-6.49-.37-.08-.74-.11-1.1-.11h0Z"/></g><g><path class="cls-28" d="M302.59,443.52c-.33,0-.67-.03-1-.1-2.7-.55-4.45-3.19-3.9-5.9,.47-2.32,2.53-4,4.89-4,.33,0,.67,.03,1,.1,1.31,.27,2.44,1.03,3.17,2.14s1,2.45,.73,3.76c-.47,2.32-2.53,4.01-4.89,4.01h0Z"/><path class="cls-37" d="M302.58,434.01c.3,0,.6,.03,.9,.09,1.18,.24,2.19,.92,2.86,1.93,.66,1,.9,2.2,.66,3.38-.42,2.09-2.28,3.6-4.4,3.6-.3,0-.6-.03-.9-.09-2.43-.49-4.01-2.87-3.51-5.31,.42-2.09,2.28-3.6,4.4-3.6m0-1c-2.56,0-4.85,1.8-5.38,4.41-.61,2.98,1.32,5.88,4.29,6.49,.37,.08,.74,.11,1.1,.11,2.56,0,4.85-1.8,5.38-4.41,.61-2.98-1.32-5.88-4.29-6.49-.37-.08-.74-.11-1.1-.11h0Z"/></g><g><circle class="cls-37" cx="520.99" cy="94.01" r="5"/><path class="cls-37" d="M520.99,89.51c2.48,0,4.5,2.02,4.5,4.5,0,2.48-2.02,4.5-4.5,4.5s-4.5-2.02-4.5-4.5c0-1.2,.47-2.33,1.32-3.18,.85-.85,1.98-1.32,3.18-1.32m0-1c-3.04,0-5.5,2.46-5.5,5.5,0,3.04,2.46,5.5,5.5,5.5s5.5-2.46,5.5-5.5c0-3.04-2.46-5.5-5.5-5.5h0Z"/></g><g><circle class="cls-37" cx="440.48" cy="339.7" r="5"/><path class="cls-37" d="M440.48,335.2c2.48,0,4.5,2.02,4.5,4.5s-2.02,4.5-4.5,4.5-4.5-2.02-4.5-4.5c0-2.48,2.02-4.5,4.5-4.5m0-1c-3.04,0-5.5,2.46-5.5,5.5,0,3.04,2.46,5.5,5.5,5.5s5.5-2.46,5.5-5.5-2.46-5.5-5.5-5.5h0Z"/></g><g><circle class="cls-37" cx="413.58" cy="30.91" r="5"/><path class="cls-37" d="M413.58,26.41c2.48,0,4.5,2.02,4.5,4.5,0,2.48-2.02,4.5-4.5,4.5s-4.5-2.02-4.5-4.5,2.02-4.5,4.5-4.5m0-1c-3.04,0-5.5,2.46-5.5,5.5s2.46,5.5,5.5,5.5,5.5-2.46,5.5-5.5c0-3.04-2.46-5.5-5.5-5.5h0Z"/></g><path class="cls-6" d="M441.43,339.64l-52.79-30.9c-5.27-3.09-11.82-3.03-17.03,.15l-12.37,7.54c-6.04,3.68-13.63,3.69-19.68,.03l-52.39-31.74c-9.59-5.81-21.59-5.87-31.24-.18l-99.6,58.8c-5.53,3.26-12.38,3.36-17.99,.25l-27.16-15.04c-5.45-3.02-5.51-10.83-.11-13.93l57.7-33.14c18.07-10.38,18.08-36.44,.03-46.84L36.67,158.58"/><g><circle class="cls-34" cx="36.67" cy="159.06" r="5"/><path class="cls-37" d="M36.67,154.56c2.48,0,4.5,2.02,4.5,4.5s-2.02,4.5-4.5,4.5-4.5-2.02-4.5-4.5c0-2.48,2.02-4.5,4.5-4.5m0-1c-3.04,0-5.5,2.46-5.5,5.5,0,3.04,2.46,5.5,5.5,5.5s5.5-2.46,5.5-5.5-2.46-5.5-5.5-5.5h0Z"/></g><path class="cls-5" d="M443.13,213.35l-84.4,49.04c-5.75,3.34-12.87,3.28-18.56-.15h0c-3.9-2.36-8.78-2.4-12.72-.11l-51.45,29.9c-8.94,5.19-8.89,18.11,.07,23.25l56.42,32.3c7.22,4.13,7.29,14.51,.14,18.75l-50.21,29.73c-6.68,3.96-14.99,3.99-21.7,.07l-39.54-23.06c-7.68-4.48-17.19-4.47-24.86,.03l-81.06,47.57h0c-9.31,5.43-20.77,5.58-30.22,.4l-35.56-19.49c-7.17-4.14-7.21-10.84-.08-14.95l13.61-7.86c7.13-4.12,7.09-10.81-.08-14.95l-25.74-14.86c-7.17-4.14-7.21-10.84-.08-14.95l16.73-9.66c7.13-4.12,7.09-10.81-.08-14.95l-30.42-17.57"/><path class="cls-4" d="M1422.04,438.75l50.38-28.95c6.42-3.69,14.31-3.74,20.78-.12l22.31,12.47c6.49,3.63,6.55,12.94,.11,16.65l-21,12.09c-4.73,2.72-4.84,9.5-.2,12.38l26.12,16.21c5.93,3.68,13.42,3.72,19.39,.12l36.39-21.99"/><path class="cls-6" d="M288.63,33.09l47.97,28.89c8.27,4.98,18.63,4.97,26.88-.04l48.7-29.55"/><path class="cls-5" d="M336.1,41.47l47.97,28.89c8.27,4.98,18.63,4.97,26.88-.04l48.7-29.55"/><g><circle class="cls-34" cx="286.54" cy="31.78" r="5"/><path class="cls-37" d="M286.54,27.28c2.48,0,4.5,2.02,4.5,4.5,0,2.48-2.02,4.5-4.5,4.5s-4.5-2.02-4.5-4.5,2.02-4.5,4.5-4.5m0-1c-3.04,0-5.5,2.46-5.5,5.5s2.46,5.5,5.5,5.5,5.5-2.46,5.5-5.5c0-3.04-2.46-5.5-5.5-5.5h0Z"/></g><g><circle class="cls-34" cx="461.05" cy="39.46" r="5"/><path class="cls-35" d="M461.05,34.96c2.48,0,4.5,2.02,4.5,4.5s-2.02,4.5-4.5,4.5-4.5-2.02-4.5-4.5c0-1.2,.47-2.33,1.32-3.18,.85-.85,1.98-1.32,3.18-1.32m0-1c-3.04,0-5.5,2.46-5.5,5.5,0,3.04,2.46,5.5,5.5,5.5s5.5-2.46,5.5-5.5-2.46-5.5-5.5-5.5h0Z"/></g><g><circle class="cls-34" cx="336.33" cy="41.01" r="5"/><path class="cls-35" d="M336.33,36.51c2.48,0,4.5,2.02,4.5,4.5s-2.02,4.5-4.5,4.5-4.5-2.02-4.5-4.5c0-2.48,2.02-4.5,4.5-4.5m0-1c-3.04,0-5.5,2.46-5.5,5.5,0,3.04,2.46,5.5,5.5,5.5s5.5-2.46,5.5-5.5-2.46-5.5-5.5-5.5h0Z"/></g><path class="cls-5" d="M458.75,276.45l-77.62,44.81c-7.15,4.13-7.16,14.44-.02,18.59l71.89,41.76c9.47,5.5,9.46,19.19-.02,24.67l-118.19,68.33"/><path class="cls-5" d="M1812.75,177.29l-77.62,44.81c-7.15,4.13-7.16,14.44-.02,18.59l71.89,41.76c9.47,5.5,9.46,19.19-.02,24.67l-118.19,68.33"/><g><circle class="cls-34" cx="458.01" cy="276.42" r="5"/><path class="cls-35" d="M458.01,271.92c2.48,0,4.5,2.02,4.5,4.5,0,1.2-.47,2.33-1.32,3.18-.85,.85-1.98,1.32-3.18,1.32-2.48,0-4.5-2.02-4.5-4.5s2.02-4.5,4.5-4.5m0-1c-3.04,0-5.5,2.46-5.5,5.5s2.46,5.5,5.5,5.5,5.5-2.46,5.5-5.5c0-3.04-2.46-5.5-5.5-5.5h0Z"/></g><g><path class="cls-31" d="M332.61,480.39c-2.76,0-5-2.24-5-5,0-1.34,.52-2.59,1.46-3.54,.94-.94,2.2-1.46,3.54-1.46,2.76,0,5,2.24,5,5s-2.24,5-5,5Z"/><path class="cls-35" d="M332.61,470.89c2.48,0,4.5,2.02,4.5,4.5,0,2.48-2.02,4.5-4.5,4.5s-4.5-2.02-4.5-4.5,2.02-4.5,4.5-4.5m0-1c-3.04,0-5.5,2.46-5.5,5.5s2.46,5.5,5.5,5.5,5.5-2.46,5.5-5.5c0-3.04-2.46-5.5-5.5-5.5h0Z"/></g><path class="cls-6" d="M302.62,438.7l-67.03,38.7c-6.83,3.94-15.25,3.94-22.08,0l-51.41-29.68"/><g><circle class="cls-34" cx="162.05" cy="447.94" r="5"/><path class="cls-37" d="M162.05,443.44c2.48,0,4.5,2.02,4.5,4.5s-2.02,4.5-4.5,4.5-4.5-2.02-4.5-4.5,2.02-4.5,4.5-4.5m0-1c-3.04,0-5.5,2.46-5.5,5.5s2.46,5.5,5.5,5.5,5.5-2.46,5.5-5.5-2.46-5.5-5.5-5.5h0Z"/></g><g><circle class="cls-34" cx="22.83" cy="291.72" r="5"/><path class="cls-35" d="M22.83,287.22c2.48,0,4.5,2.02,4.5,4.5s-2.02,4.5-4.5,4.5-4.5-2.02-4.5-4.5c0-1.2,.47-2.33,1.32-3.18,.85-.85,1.98-1.32,3.18-1.32m0-1c-3.04,0-5.5,2.46-5.5,5.5,0,3.04,2.46,5.5,5.5,5.5s5.5-2.46,5.5-5.5-2.46-5.5-5.5-5.5h0Z"/></g><g><path class="cls-31" d="M1590.54,52.7c-2.21,0-4.13-1.42-4.78-3.54-.81-2.64,.68-5.44,3.32-6.24,.48-.15,.97-.22,1.46-.22,2.21,0,4.13,1.42,4.78,3.54,.39,1.28,.26,2.63-.37,3.81s-1.68,2.04-2.95,2.43c-.48,.15-.97,.22-1.46,.22Z"/><path class="cls-35" d="M1590.55,43.2h0c1.99,0,3.72,1.28,4.3,3.19,.35,1.15,.23,2.37-.33,3.43-.56,1.06-1.51,1.84-2.66,2.19-.43,.13-.87,.2-1.32,.2-1.99,0-3.72-1.28-4.3-3.19-.35-1.15-.23-2.37,.33-3.43,.56-1.06,1.51-1.84,2.66-2.19,.43-.13,.87-.2,1.32-.2m0-1c-.53,0-1.07,.08-1.61,.24-2.9,.89-4.54,3.96-3.65,6.87,.72,2.37,2.9,3.89,5.26,3.89,.53,0,1.07-.08,1.61-.24,2.9-.89,4.54-3.96,3.65-6.87-.72-2.37-2.9-3.89-5.26-3.89h0Z"/></g><g><path class="cls-31" d="M1543.82,115.66c-2.21,0-4.13-1.42-4.78-3.54-.39-1.28-.26-2.63,.37-3.81,.63-1.18,1.68-2.04,2.95-2.43,.48-.15,.97-.22,1.46-.22,2.21,0,4.13,1.42,4.78,3.54,.81,2.64-.68,5.44-3.32,6.24-.48,.15-.97,.22-1.46,.22Z"/><path class="cls-35" d="M1543.83,106.16h0c1.99,0,3.72,1.28,4.3,3.19,.35,1.15,.23,2.37-.33,3.43s-1.51,1.84-2.66,2.19c-.43,.13-.87,.2-1.32,.2-1.99,0-3.72-1.28-4.3-3.19-.73-2.37,.62-4.89,2.99-5.62,.43-.13,.87-.2,1.32-.2m0-1c-.53,0-1.07,.08-1.61,.24-2.9,.89-4.54,3.96-3.65,6.87,.72,2.37,2.9,3.89,5.26,3.89,.53,0,1.07-.08,1.61-.24,2.9-.89,4.54-3.96,3.65-6.87-.72-2.37-2.9-3.89-5.26-3.89h0Z"/></g><g><circle class="cls-34" cx="1512.26" cy="201.02" r="5"/><path class="cls-37" d="M1512.26,196.52c2.48,0,4.5,2.02,4.5,4.5,0,1.2-.47,2.33-1.32,3.18-.85,.85-1.98,1.32-3.18,1.32-2.48,0-4.5-2.02-4.5-4.5,0-2.48,2.02-4.5,4.5-4.5m0-1c-3.04,0-5.5,2.46-5.5,5.5,0,3.04,2.46,5.5,5.5,5.5s5.5-2.46,5.5-5.5c0-3.04-2.46-5.5-5.5-5.5h0Z"/></g><g><g><g><path class="cls-20" d="M587.18,483.36l-8.74-19.07c.95,5.72-.92,4.64-.92,4.64-.93-.42-3.21,.28-3.71,.81-.64,.69-1.77,.6-2.35-.14-1.47-1.88-.64-3.51-1.13-4.88l-1.2,8.12,4.87,10.07c.78,1.61,1.89,3.03,3.32,4.1,1.97,1.49,5,3.02,8.58,2.28,0,0,2.92-1.89,1.28-5.95Z"/><path class="cls-20" d="M575.57,468.77c.54-.49,2.88-.99,3.77-.49,0,0,1.77,1.24,1.32-4.54l.38-4.1-10.18,1.38,.12,2.62c.37,1.41,.77,3.88,2.06,5.88,.51,.79,1.83-.12,2.53-.75Z"/><path class="cls-20" d="M587.69,483.49l-7.04-19.76c.45,5.78-1.32,4.54-1.32,4.54-.89-.5-3.23,0-3.77,.49-.7,.63-1.82,.44-2.33-.34-.86-1.34-1.54-3.07-2-4.5-.13-.41-.74-.36-.8,.07l-.87,6.25,5.08,11.98c.58,1.36,1.39,2.61,2.44,3.64,1.8,1.76,4.86,3.91,8.8,3.44,0,0,3.08-1.62,1.8-5.81Z"/></g><line class="cls-23" x1="580.66" y1="471.82" x2="576.32" y2="472.32"/><line class="cls-23" x1="581.67" y1="473.91" x2="577.33" y2="474.41"/><line class="cls-23" x1="582.68" y1="476" x2="578.34" y2="476.49"/><path class="cls-9" d="M583.06,310.8l9.07-.61c3.96-.27,7.67,1.93,9.34,5.54l9.48,20.51c.87,1.88,.84,4.05-.08,5.91l-10.8,21.81-17.01-53.15Z"/><path class="cls-20" d="M588,450.57v7.29l16.54,2.39-5.16-4.84s-2.45-1.23-2.32-5.16l-9.06,.32Z"/><path class="cls-20" d="M613.72,465.9c-.67,2.07-2.02,3.3-3.54,4.02-.06,.03-.12,.06-.19,.08-.24,.11-.49,.21-.74,.29-2.73,.92-5.74,.48-8.26-.91l-2.63-1.47c-1.05-.58-2.19-.98-3.37-1.19l-2.87-.5c-.84-.15-1.66-.4-2.45-.74l-3.86-1.68c-.6-.26-.93-.9-.8-1.54l.39-1.86,.33-1.59,.74-2.44c.26-.26,.62-.39,.98-.39,.19,0,.38,.04,.56,.12,.24,.11,.45,.29,.61,.56,.37,.62,.84,1.12,1.38,1.5,1.25,.88,2.86,1.1,4.29,.62,.85-.29,1.63-.82,2.24-1.6l.77-.99c.48-.62,1.39-.7,1.98-.19l1.89,1.65,1.78,1.55,.64,.56,.78,.47,.63,.38,4.99,3.03,.35,.21,3.38,2.05Z"/><path class="cls-20" d="M613.72,465.9c-.78,1.86-2.09,2.94-3.53,3.55-.07,.03-.13,.06-.2,.08-.36,.15-.74,.26-1.11,.35-2.8,.68-5.76-.01-8.14-1.63l-2.5-1.68c-.99-.67-2.09-1.17-3.25-1.48l-2.82-.76c-.82-.22-1.62-.53-2.37-.94l-3.71-2.02c-.37-.2-.62-.57-.69-.97-.03-.2-.02-.41,.04-.62l.29-.97,.74-2.44,.51-1.68c.16-.53,.57-.85,1.03-.94,.09-.02,.19-.03,.28-.03,.49,0,.98,.25,1.23,.78,1.45,3.07,5.53,3.7,7.84,1.22l.85-.92c.07-.07,.14-.14,.22-.19,.53-.38,1.29-.32,1.77,.17l2.17,2.26,1.59,1.65,.2,.21,5.83,4.27,.36,.26,3.37,2.47Z"/><line class="cls-23" x1="602.37" y1="457.04" x2="598.48" y2="459.03"/><line class="cls-23" x1="604.05" y1="458.64" x2="600.16" y2="460.63"/><line class="cls-23" x1="605.72" y1="460.24" x2="601.84" y2="462.23"/><path class="cls-13" d="M602.37,366.97l-3.42,83.87s-5.54,4.89-12.54,.65c0,0-.55-3.07-.38-6.55l.58-23.94s.25-3.73,1.66-6.13l-3.15-46.23,17.25-1.66Z"/><path class="cls-13" d="M598.95,371.07h-30.86s-2.5,27.71,3.77,51.56c0,0-6.45,13.72-2.87,39.28,0,0,9.77,8.14,13.03,1.14,0,0-1.63-54.07,10.75-79.31"/><path class="cls-20" d="M592.83,309.75l-18.27,1.97-2.12,1.25c-2.61,1.54-4.37,4.19-4.77,7.2l-2.05,13.37c-.44,2.87-.3,5.8,.45,8.6,1.2,4.5,2.63,13.05,.88,24.83,0,0-.82,4.62-.58,9.28,.12,2.22,2.81,3.2,4.41,1.66,.98-.94,2.43-1.51,4.56-1.17l6.62,4.71c1.04,.74,2.41,.82,3.53,.2l5.57-3.1c.56-.31,.99-.8,1.22-1.4l1.47-3.77,1.16,1.64c.4,.57,1.17,.74,1.78,.4l1.38-.77c3.88-2.16,6.07-6.46,5.52-10.87l-1.09-8.81c-.5-3.99-.48-8.03,.04-12.02l.75-5.75s.68-7.52-1.45-14.96"/><path class="cls-9" d="M572.74,423.3s.95,2.29,2.94,2.04"/><path class="cls-9" d="M573.78,422.91s2.14-1.6,4.09-.65"/><path class="cls-9" d="M590.04,415.62s.95-.9,2.49-.8"/><polygon class="cls-26" points="577.49 298.74 576.91 309.75 582.7 316.98 590.97 313.91 590.02 310.82 590.45 298.74 577.49 298.74"/><path class="cls-10" d="M585.93,315.3s3.06-.17,4.09-4.48l2.65-.43-.58,8.06-2.78-2.59c-.34-.31-.81-.43-1.25-.3h0c-.42,.12-.76,.45-.88,.88l-.24,.79-1.01-1.94Z"/><path class="cls-26" d="M593.89,288.02c1.32,1.85,1.9,4.13,1.83,6.4l-.27,8.83-.19,5.96c-.36,1.79-3.27,2.57-5.38,2.9-1.33,.21-2.68-.08-3.82-.81l-3.71-2.38c-1.38-.89-2.41-2.26-2.86-3.83l-1.49-5.08c-.42-.36-.79-.75-1.12-1.16-1.46-1.85-1.89-3.94-1.89-3.94-.51-3.45,.47-5.89,1.79-7.57,1.76-2.24,4.51-3.43,7.35-3.54,5.26-.2,8.16,1.97,9.75,4.21Z"/><path class="cls-21" d="M595.45,303.25l-.19,5.96c-.36,1.79-3.27,2.57-5.38,2.9-1.33,.21-2.68-.08-3.82-.81l-3.71-2.38c-1.38-.89-2.41-2.26-2.86-3.83l-1.49-5.08c-.42-.36-.79-.75-1.12-1.16l1.92-.73s1.35,4.94,4.09,7.4c1.34,1.2,3.43,.96,4.56-.44,.3-.36,.68-.66,1.11-.86l2.01-.97c1.59-.77,3.49-.11,4.28,1.46l.6-1.48Z"/><ellipse class="cls-14" cx="577.33" cy="299.51" rx="1.94" ry="2.84" transform="translate(-69.42 230.76) rotate(-21.35)"/><path class="cls-26" d="M592.27,295.83l-.55,1.81c-.1,.32-.07,.66,.06,.97l1.09,2.39c.35,.77-.07,1.67-.89,1.89l-1.42,.38"/><path class="cls-26" d="M589.05,306.62s3.43-2.77,4.68-1.47c0,0,.57,2.25-.74,2.7l-2.44,.82s-.77-.33-1.51-2.06Z"/><path class="cls-10" d="M574.56,311.72l8.1,11.03,1.62-5.77c.3-1.06,1.7-1.26,2.29-.33l.37,.59-1.01-1.94h-1.11c-.89,0-1.74-.32-2.43-.89-1.64-1.38-4.63-4.11-5.38-6.3l.14-2.96-2.14,1.99-.45,4.57Z"/><path class="cls-20" d="M586.31,316.27s5.75,7.2,5.66,26.33c0,0,1.63,3.04,1.76,30.77"/><path class="cls-20" d="M574.56,311.72l-2.91,1.57c-9.32,5.01-12.61,16.76-7.25,25.89l11.3,19.25c.77,1.3,2.33,1.91,3.77,1.47,2.19-.38,4.51-.9,6.93-1.52v-11.18c-.8-.01-1.61,0-2.46,.03l-8.82-17.47"/><line class="cls-23" x1="580.25" y1="352.7" x2="583.49" y2="346.33"/><line class="cls-23" x1="581.35" y1="347.07" x2="578.42" y2="349.52"/><g><path class="cls-24" d="M616.15,329.41c.11,.04,.19,.15,.15,.28l-1.22,13.2c-.08,.26-.26,.49-.5,.63l-5.92,3.54c-.1,.06-.2,.03-.27-.04l-.89-.51c-.11-.04-.19-.15-.15-.28l1.22-13.2c.08-.26,.26-.49,.5-.63l5.92-3.54c.1-.06,.2-.03,.27,.04l.89,.51Z"/><path class="cls-24" d="M608.67,347.04l5.92-3.54c.24-.14,.41-.36,.5-.63l1.22-13.2c.06-.2-.15-.37-.33-.26l-5.92,3.54c-.24,.14-.41,.36-.5,.63l-1.22,13.2c-.06,.2,.15,.37,.33,.26Z"/></g><path class="cls-26" d="M615.54,337.95l-6.77,4.16-.97-.65,.3-3.23c-1.44,.51-2.53,1.72-3.1,2.46-.27,.36-.46,.77-.56,1.2l-.96,4.02c-6.14,2.64-10.92,1.37-17.08,1.28v11.18c6.32-1.62,13.36-4.02,20.95-7,2.96-.25,4.94-.86,6.19-1.44,1.15-.53,1.75-1.81,1.42-3.03-.17-.64-.09-1.33,.22-1.91l.37-.68c.36-.66,.41-1.43,.15-2.14l-.21-.57,.76-.62c.32-.26,.5-.65,.5-1.06v-1.21l-1.23-.77Z"/><path class="cls-17" d="M583.94,347.97v10.95c0,.94,.92,1.6,1.81,1.3l4.2-1.42c.56-.19,.93-.71,.93-1.3v-9.54c0-.76-.61-1.37-1.37-1.37h-4.2c-.76,0-1.37,.61-1.37,1.37Z"/></g><g><path class="cls-20" d="M679.41,485.31s6.9,3.23,5.05,15.81c0,0-2,4.18-7.78,0l2.73-15.81Z"/><path class="cls-20" d="M652.84,472.4l-2.39,6.44c-.94-.61-2.14-.66-3.13-.13l-1.8,.96c-1,.54-1.63,1.58-1.63,2.72v.33c0,1.1,.58,2.11,1.53,2.67l1.84,1.07c.97,.56,2.17,.56,3.13-.02l2.01-1.2c.43-.25,.79-.61,1.05-1.03l7.27-11.82h-7.89Z"/><path class="cls-12" d="M636.81,422.46l-6.02,3.47v-1.98c0-.51,.29-.97,.73-1.22l1.81-.94c.33-.18,.72-.21,1.08-.08,.78,.29,1.59,.53,2.41,.75Z"/><path class="cls-20" d="M674.39,472.92l-9.74-12.8c-1.03-1.35-1.59-3-1.59-4.69,0-.56-.05-1.12-.18-1.67l-5.17-23.41c-.52-2.31-1.98-4.2-3.93-5.29h0c.71-.99,.37-2.7,.37-2.7-.02,1.3-1.9,2.02-1.9,2.02,.17-2.27-1.7-4.04-1.7-4.04,.92,1.87,.07,3.56,.01,3.68h-.03c-1.22-2.02-3.75-1.89-3.75-1.89,1.8,.82,2.01,1.81,2.02,1.84-3.54-.05-7.91-.4-12.01-1.5l-6.02,3.47v2.13l1.18,.63v.05l.07,2.09c.01,.41,.21,.78,.52,1.04l2.72,2.13,6.39,5.02c0,1.37-.25,2.72-.72,4.01l-2.78,7.47c-1.71,4.58-1.82,9.62-.34,14.28,.31,1,.67,2.07,1.07,3.16,1.37,3.83,3.2,8.13,5.57,11.94,1.37,2.24,2.92,4.32,4.66,6.04,.16,.15,.32,.3,.49,.44,.93,.78,3.69,3.42,3.84,6.95l10.42,13.84,1.99,.3c2.97,.45,6-.1,8.63-1.55l4.76-2.62s8.36-14.38-4.86-30.38Z"/><path class="cls-20" d="M635.28,434.01l6.61,5.13c.71,.55,1.64,.72,2.49,.45l1.51-.47"/><path class="cls-20" d="M630.79,428.06l6.04,3.53c.57,.33,1.23,.45,1.88,.33l1.43-.26"/><path class="cls-20" d="M642.03,426.9s2.52-1.35,3.42,.63"/><path class="cls-12" d="M647.64,428.59l1.16-.68c.43-.25,.95-.25,1.37,0,1.38,.79,4.39,2.78,5.69,5.67,0,0-2.58,2.82-4.96,4.48-.91,.63-2.15-.02-2.15-1.12v-7.16l-.91-.23"/><path class="cls-20" d="M646.81,470.14s1.49,.42,4.14-2.55"/><line class="cls-23" x1="645.48" y1="501.12" x2="647.29" y2="502.24"/><line class="cls-23" x1="647.63" y1="499.99" x2="649.44" y2="501.12"/><path class="cls-20" d="M671.47,505.55c8.34,6.3,30.55,4.93,23.49-12.06,0,0-.13,12-12.79,10.46-2.1-.26-4.1-1.02-5.98-1.99-1.47-.77-3.8-1.42-6,.29"/><path class="cls-20" d="M641.32,455.12l-4.15,21.85-4.49,12.14h0c-.94-.61-2.14-.66-3.13-.13l-1.8,.97c-1,.54-1.63,1.58-1.63,2.72v.33c0,1.1,.58,2.11,1.53,2.67l1.84,1.07c.97,.56,2.17,.56,3.13-.02l2.01-1.2c.43-.26,.79-.61,1.05-1.03l8.5-13.83,6.34-17.43"/><line class="cls-23" x1="631.7" y1="491.24" x2="633.14" y2="487.87"/><line class="cls-23" x1="627.41" y1="490.12" x2="629.22" y2="491.24"/><line class="cls-23" x1="629.55" y1="489" x2="631.37" y2="490.12"/><path class="cls-20" d="M668.1,490.27s-9.26-5.39-15.28,0c0,0-3.08,4.34,.13,11.52l-2.85-1.63c-.99-.57-2.21-.59-3.22-.06l-.88,.46c-1.11,.58-1.81,1.73-1.81,2.99,0,1.19,.62,2.28,1.64,2.89l9.06,5.4,3.58,1.84c.83,.42,1.81,.4,2.61-.06l2.64-1.52c.81-.47,1.33-1.31,1.37-2.25,.14-3.21-.36-10.59-7.42-13.92"/><path class="cls-20" d="M652.82,490.27s-4.85,6.83,3.96,17.53"/></g><g><polyline class="cls-22" points="609.99 418.84 609.99 389.75 639.08 389.75"/><polyline class="cls-22" points="668.18 389.75 697.28 389.75 697.28 418.84"/><polyline class="cls-22" points="639.08 477.04 609.99 477.04 609.99 447.94"/><polyline class="cls-22" points="697.28 447.94 697.28 477.04 668.18 477.04"/></g><polygon class="cls-27" points="609.99 477.04 613.71 335.88 697.28 389.75 697.28 477.04 609.99 477.04"/></g><g><path class="cls-12" d="M1384.56,73.46l-89.06-51.42v-3.98c0-.81,.49-1.18,1.1-.83l86.85,50.14c.61,.35,1.1,1.29,1.1,2.1v3.98Z"/><path class="cls-20" d="M1384.56,73.46l-89.06-51.42v59.85c0,.81,.49,1.75,1.1,2.1l86.85,50.14c.61,.35,1.1-.02,1.1-.83v-59.85Z"/><ellipse class="cls-19" cx="1298.62" cy="21.12" rx=".72" ry="1.26" transform="translate(166.86 658.29) rotate(-30.31)"/><ellipse class="cls-19" cx="1302.07" cy="23.11" rx=".72" ry="1.26" transform="translate(166.33 660.3) rotate(-30.31)"/><ellipse class="cls-19" cx="1305.52" cy="25.09" rx=".72" ry="1.26" transform="translate(165.8 662.31) rotate(-30.31)"/><g><line class="cls-20" x1="1301.44" y1="30.28" x2="1306.97" y2="33.47"/><line class="cls-18" x1="1304.39" y1="35.21" x2="1311.7" y2="39.43"/><line class="cls-15" x1="1310.33" y1="41.87" x2="1326.03" y2="50.94"/><line class="cls-15" x1="1310.33" y1="45.1" x2="1369.69" y2="79.37"/><line class="cls-15" x1="1310.33" y1="48.33" x2="1350.06" y2="71.27"/><line class="cls-18" x1="1304.45" y1="48.17" x2="1314.71" y2="54.09"/><line class="cls-15" x1="1310.33" y1="54.8" x2="1318.32" y2="59.41"/><g><line class="cls-15" x1="1310.33" y1="58.03" x2="1316.28" y2="61.46"/><line class="cls-15" x1="1317.47" y1="62.15" x2="1327.21" y2="67.77"/></g><line class="cls-15" x1="1310.33" y1="61.26" x2="1321.28" y2="67.58"/><line class="cls-20" x1="1316.28" y1="67.92" x2="1336.08" y2="79.35"/><line class="cls-20" x1="1310.33" y1="67.72" x2="1316.49" y2="71.27"/><line class="cls-20" x1="1316.28" y1="74.38" x2="1337.3" y2="86.52"/><line class="cls-15" x1="1310.35" y1="74.19" x2="1326.63" y2="83.59"/><line class="cls-15" x1="1310.35" y1="77.42" x2="1317.1" y2="81.32"/><g><line class="cls-15" x1="1310.33" y1="80.64" x2="1314.71" y2="83.17"/><line class="cls-15" x1="1315.9" y1="83.86" x2="1328.4" y2="91.07"/></g><line class="cls-15" x1="1310.33" y1="83.87" x2="1317.1" y2="87.78"/><line class="cls-18" x1="1304.42" y1="83.69" x2="1311.78" y2="87.94"/></g></g><g><g><path class="cls-20" d="M1341.24,162.12l-3.01-1.93c-1.19-.77-2.76-.59-3.75,.42l-2.86,2.89-2.97,5.77c-.29,.57,.03,1.26,.65,1.4,.37,.09,.76-.05,.99-.34l2.3-2.89,2.03,1.1c2.38,1.29,5.25,1.29,7.63,0l17.25-9.54-4.13-8.14-14.12,11.27Z"/><path class="cls-16" d="M1379.05,119.34c-3.54-1.42-7.57,.21-9.12,3.69l-11.23,25.14-3.34,2.67,4.13,8.14,3.96-2.19c1.54-.85,2.82-2.09,3.73-3.59l18.73-31.1-6.86-2.76Z"/><path class="cls-11" d="M1356.01,161.02l-3.29,1.52s1.24-4.08-5.37-5.48l3.13-2.47"/><path class="cls-11" d="M1358.7,148.18l-5.06,3.92c-.88,.68-1.88,1.18-2.96,1.43l-2,.49c-.79,.18-1.31,.96-1.15,1.76l.2,1,.65-.52c1.9-.17,6.29,1.4,5.95,5.53l-1.2,.58,1.65,1.06c.74,.49,1.75,.23,2.16-.56,1-1.93,2.6-3.48,4.52-4.45,.08-.05,.15-.09,.23-.12l1.54-.72c.27-.13,.53-.27,.79-.42h0c1.44-.87,2.59-2.13,3.32-3.64l2.27-4.72"/><g><path class="cls-8" d="M1381.29,270.32c-1.64,.17-3.45,.83-5.38,1.96-1.61,.95-3.01,2.27-4.31,3.55-3.3,3.25-8.99,3.6-11.28,3.6-.56,0-.89-.02-.89-.02l-.43-.03"/><path class="cls-8" d="M1383.51,295.46h2.7s3.94-1.19,6.4-3.92"/><path class="cls-9" d="M1376.71,268.37l-3.8-.45-2.92-3.92c.26-.14,.48-.35,.66-.63,1.32-1.98,.63-6.93,.63-6.93l8.56-4.11c-.3,2.35-.16,5,.01,6.8,.08,.85,.3,1.68,.61,2.47,.11,.33,.26,.64,.41,.96,.02,.03,.03,.07,.05,.1,1.37,2.85-1.07,6.08-4.21,5.71Z"/><path class="cls-9" d="M1381.15,268.96c-2.77,.29-5.43,1.75-7.24,2.98-1.16,.79-2.15,1.77-3.12,2.78-3.65,3.8-11.27,3.33-11.27,3.33l-.91-.74c5.38-2.73,11.4-14.59,11.4-14.59,.22,.25,.44,.46,.66,.66,4.31,3.78,9.81-1.77,9.81-1.77,.11,.33,.26,.64,.41,.96,1.35,2.73,.94,5.17,.71,6.04-.05,.21-.23,.34-.44,.37Z"/><line class="cls-20" x1="1367.97" y1="266.34" x2="1370.43" y2="267.92"/><line class="cls-20" x1="1367.17" y1="267.68" x2="1369.63" y2="269.26"/><line class="cls-20" x1="1366.37" y1="269.02" x2="1368.83" y2="270.6"/><polygon class="cls-9" points="1386.21 260.45 1385.68 277.32 1393.25 275.58 1393.25 259.63 1386.21 260.45"/><path class="cls-9" d="M1396.57,180.56h-10.52l.17-.79-20.28-12.14c-2.04,16.45-2.47,31.59,2.62,57.06,0,0,3.29,14.46,1.25,33.15,0,0,5.47,5.59,11.19-1.14,0,0-1.11-5.63-.37-13.75,.33-3.65,.31-7.34-.31-10.95-.52-3-1.42-6.51-3.01-9.88l1.99-9.49c1.78,6.62,3.55,13.38,5.02,19.33,0,0-1.77,6.49,.58,17.32,0,0,.81,9.56-.45,14.89,0,0,7.4,5.05,10.74,.99,0,0-.81-2.71,.45-11.82,0,0,.81-25.98-3.79-31.49,0,0,5.17-13.73,4.71-41.29Z"/><path class="cls-8" d="M1376.32,201.65c2.65,9.64,5.69,20.97,8.01,30.31"/><path class="cls-9" d="M1385.44,273.81c-.21,.18-.32,.46-.33,.73-.1,1.88-.63,9.64-2.62,14.9,0,0-1.87,4.01,1.02,5.2h2.7s3.94-1.19,6.4-3.92c0,0,1.28-5.65,.64-17.78,0,0-.73,2.28-2.55,1.28,0,0-3.07-2.32-5.25-.4Z"/><path class="cls-21" d="M1363.59,115.12c3.35,2.69,6.56,3.09,8.26-2l14.51-6.16s2.77-7.46,7.46-5.49c0,0-2.14-13.4-15.12-11.52,0,0-10.34,.85-10.29,14.69,0,0,.18,5.52-.83,8.56-.54,1.62-2.34,2.55-3.93,1.95l-.06-.02Z"/><path class="cls-11" d="M1367.86,145.2c-.15,1.66-.07,3.35,.31,4.97,.27,1.15,.53,2.73,.51,4.55-.02,1.86-.5,3.67-1.24,5.37-.9,2.08-2.47,6.68-3.98,15.87-.2,1.2,.14,2.43,.93,3.35,13.03,15.18,24.33,25.15,32.96,21.62,0,0,.61-20.23-3.03-32.98,0,0-1.82-8.7,4.25-20.84,0,0,7.73-13.38-1.55-19.68l-17.81-11.87"/><path class="cls-11" d="M1370.43,128.28l-4.42,8.26c-1.28,2.4-.95,5.34,.83,7.4l3.59,4.13"/><path class="cls-11" d="M1382.38,153.05s5.52-.58,6.54-4.68"/><path class="cls-9" d="M1392.98,103.07h0c-.17,1.86-.86,3.64-2,5.12l-1.05,1.37c-1.24,1.62-1.95,3.58-2.03,5.61-.01,.15-.01,.29-.01,.44v1.27c-3.74,5.08-7.43,5.61-7.43,5.61-1.57,.2-3.03-.78-3.93-1.58v-1.35c-.27,.07-.56,.1-.83-.01l-.9-.34c-.25-.08-.46-.25-.63-.45-5.65-7.34-2.47-18.99-2.47-18.99l.89-1.75c.4-.78,.89-1.5,1.48-2.14l.74-.82c1.96-2.17,4.78-3.36,7.7-3.26h0c2.87,.1,5.56,1.44,7.37,3.68l1.28,1.59c1.37,1.69,2.03,3.86,1.83,6.03Z"/><path class="cls-9" d="M1387.88,116.88v2.31l-5.5,8.5-5.86-3.89v-2.89c.9,.81,2.36,1.79,3.93,1.58,0,0,3.69-.53,7.43-5.61Z"/><path class="cls-8" d="M1374.16,118.75c.16,.21,.38,.36,.62,.45l.9,.34c.38,.14,.79,.11,1.14-.09l7.21-4.03c.67-.37,1.15-1.01,1.32-1.75"/><path class="cls-11" d="M1383.82,129.45c-1.35,1.13-3.25,1.38-4.81,.56-1.28-.66-2.5-1.45-3.18-1.91-.37-.26-.59-.66-.59-1.11l-.04-5.77c.12-.34,.78-1.08,1.31-1.22v.91c.9,.81,2.36,1.79,3.93,1.58,0,0,3.69-.53,7.43-5.61v-1.27c0-.15,0-.29,.01-.44,1.24,.23,1.83,1.05,1.83,1.05v6.36c-.35,.62-.73,1.21-1.13,1.77"/><path class="cls-11" d="M1378.81,125.85c2.53,1.15,4.95,.41,7.04-1.84"/><path class="cls-25" d="M1393.83,101.47c-3.44-1.44-5.84,2.17-6.86,4.2l1.32,.62c-.18,.18-.37,.35-.58,.47-.09,.05-.18,.1-.28,.13-.06,.02-.12,.04-.19,.05-.04,.01-.08,.02-.12,.01h-.13c-.08,0-.16-.01-.25-.03-.47-.09-.95-.4-1.23-.81-.04-.06-.07-.11-.1-.16-.03-.06-.06-.12-.08-.18-.04-.09-.07-.19-.08-.29-.03-.21-.04-.41-.04-.62h0c0-1.27,.43-2.54,.88-3.69-1.06,.53-6.22,2.54-6.13,.33,.41-.2,.78-.47,.87-.79,.3-.99-.5-.49-.71,.09-.1,.27-.15,.51-.16,.7-.34,.17-.71,.29-1.01,.35l-.15,.03c-.37,.07-.74,.13-1.12,.18-.2,.02-.41,.04-.61,.06-.23,.01-.45,.02-.68,.02-.21,0-.52,0-.82-.02-.08-.01-.16-.02-.23-.04-.02,0-.05-.01-.08-.02-.1-.02-.18-.05-.26-.09-.07-.03-.12-.07-.17-.12-.23-.25-.28-.55-.21-.85,.01-.07,.04-.15,.07-.22,.01-.03,.02-.06,.03-.09-.12,.03-.23,.05-.35,.07-.07,.02-.14,.03-.21,.04-.5,.08-1,.11-1.42,.09-.15-.01-.32-.02-.51-.03-.11,0-.23-.03-.35-.05-.17-.03-.34-.08-.49-.15-.05-.03-.1-.05-.14-.08-.04-.03-.09-.06-.13-.1-.03-.03-.07-.07-.1-.11-.05-.07-.08-.15-.11-.23-.06-.22-.03-.43,.05-.62,.08-.18,.21-.35,.36-.5l.15-.15c.1-.09,.2-.18,.3-.26l.64-3.71,6.02-4.19,6.53,.33,5.42,2.97c2.78,3.35,3.45,7.46,3.45,7.46Z"/><path class="cls-8" d="M1371.77,98.61c-.44,.37-1.04,.89-.86,1.53,.2,.69,1.24,.73,1.83,.75,.99,.04,2.38-.16,3.25-.67,.66-.39,.29-.95-.36-.56-.61,.36-1.48,1.47-.81,2.19,.31,.33,1.15,.29,1.56,.29,.85,0,1.73-.11,2.56-.29,.65-.14,1.71-.55,1.88-1.14,.3-.99-.5-.48-.71,.09-1.21,3.28,4.81,.95,5.97,.37-.52,1.34-1.04,2.85-.84,4.31,.11,.8,.98,1.45,1.75,1.48,.5,.02,.93-.3,1.3-.67"/><path class="cls-9" d="M1374.09,107.72l-.63,3.66s.78,.73,2.13,.16"/><path class="cls-8" d="M1386.37,106.96s2.77-7.46,7.46-5.49c0,0-.66-4.11-3.45-7.46"/><path class="cls-9" d="M1385.9,106.84c.33-1.52,1.53-2.55,2.68-2.3,1.15,.25,1.82,1.68,1.49,3.2s-1.53,2.55-2.68,2.3c-.47-.1-.86-.4-1.14-.83"/><path class="cls-8" d="M1393.83,101.47s-2.14-13.4-15.12-11.52c0,0-10.34,.85-10.29,14.69"/><line class="cls-20" x1="1386.09" y1="277" x2="1389.01" y2="276.99"/><line class="cls-20" x1="1386.14" y1="278.55" x2="1389.07" y2="278.54"/><line class="cls-20" x1="1386.2" y1="280.11" x2="1389.12" y2="280.1"/></g></g><g><line class="cls-20" x1="1350.27" y1="158.15" x2="1350.27" y2="259.55"/><polygon class="cls-13" points="1364.68 216.85 1364.68 214.86 1408.3 189.66 1408.3 191.65 1364.68 216.85"/><polygon class="cls-17" points="1364.68 216.85 1306.65 183.34 1306.65 181.36 1364.68 214.86 1364.68 216.85"/><polygon class="cls-20" points="1364.68 214.85 1306.65 181.34 1350.27 156.16 1408.3 189.66 1364.68 214.85"/><polygon class="cls-14" points="1377.51 192.07 1377.51 191.08 1389.07 184.4 1389.07 185.4 1377.51 192.07"/><polygon class="cls-13" points="1377.59 192.07 1347.83 174.89 1347.83 173.9 1377.59 191.08 1377.59 192.07"/><polygon class="cls-17" points="1377.59 191.07 1347.83 173.89 1359.32 167.26 1389.07 184.44 1377.59 191.07"/><path class="cls-20" d="M1382.3,173.52l-3.01-1.93c-1.19-.77-2.76-.59-3.75,.42l-2.86,2.89-2.97,5.77c-.29,.57,.03,1.26,.65,1.4,.37,.09,.76-.05,.99-.34l2.3-2.89,2.03,1.1c2.38,1.29,5.25,1.29,7.63,0l14.43-7.84-5.17-6.76-10.26,8.19Z"/><path class="cls-16" d="M1389.72,141.32l5.39,21.97-2.56,2.04,5.17,6.76,6.13-3.33c1.08-.59,1.69-1.77,1.55-2.99l-1.16-9.77h0l-2.99-22.51"/><path class="cls-11" d="M1386.31,170.03c.47,2.85,2.03,4.92,4.47,5.94l5.86-3.09-5.7-6.51-4.63,3.65Z"/><path class="cls-11" d="M1403.86,168.76l-3.36,2.02c-.24,.13-1.31,.8-1.51,.99l-2.72,2.63c-.58,.56-1.37,.86-2.18,.82-5.8-.29-6.48-4.91-6.48-7.05,0-.63,.39-1.18,.99-1.38l.84-.29c1.57-.53,3.04-1.33,4.34-2.36l1.26-1s4.63-.19,6.85,1.51"/><path class="cls-9" d="M1383.86,177.52c-.08-1.16-.4-2.79-1.48-4.07"/><g><polygon class="cls-17" points="1374.54 152.71 1324.26 123.68 1325.98 122.69 1376.26 151.72 1374.54 152.71"/><polygon class="cls-14" points="1376.26 195.55 1374.53 196.55 1374.53 152.71 1376.26 151.71 1376.26 195.55"/><polygon class="cls-13" points="1374.54 196.55 1324.25 167.51 1324.25 123.68 1374.54 152.71 1374.54 196.55"/></g><g><polygon class="cls-14" points="1343.32 194.06 1334 188.68 1343.79 183.02 1353.11 188.4 1343.32 194.06"/><polygon class="cls-20" points="1343.32 194.06 1334 188.68 1340.79 170.02 1350.11 175.4 1343.32 194.06"/></g><line class="cls-20" x1="1306.65" y1="183.34" x2="1306.65" y2="284.74"/><line class="cls-20" x1="1364.68" y1="216.85" x2="1364.68" y2="318.24"/><line class="cls-20" x1="1408.3" y1="191.65" x2="1408.3" y2="293.05"/></g></g><path class="cls-7" d="M1624.75,230.79l-90.82,53.59c-8.26,4.87-8.2,16.85,.11,21.64l263.86,152.23"/><path class="cls-7" d="M1906.43,69.12l-59.42,34.42c-8.51,4.93-8.45,17.24,.12,22.08l58.73,33.19"/><g><circle class="cls-34" cx="1907.46" cy="159.99" r="5"/><path class="cls-36" d="M1907.46,155.49c2.48,0,4.5,2.02,4.5,4.5s-2.02,4.5-4.5,4.5-4.5-2.02-4.5-4.5c0-1.2,.47-2.33,1.32-3.18,.85-.85,1.98-1.32,3.18-1.32m0-1c-3.04,0-5.5,2.46-5.5,5.5,0,3.04,2.46,5.5,5.5,5.5s5.5-2.46,5.5-5.5-2.46-5.5-5.5-5.5h0Z"/></g><path class="cls-4" d="M1935.04,249.8l-69.02,41.2c-9.85,5.88-9.74,20.18,.19,25.91l69.5,40.15c7.79,4.5,7.71,15.76-.14,20.15l-24.98,13.97c-8.93,4.99-8.96,17.83-.05,22.87l26.54,15"/><g><path class="cls-31" d="M1937.24,253.91c-1.33,0-2.59-.52-3.54-1.46-.94-.94-1.46-2.2-1.46-3.54s.52-2.59,1.46-3.54c.94-.94,2.2-1.46,3.54-1.46s2.59,.52,3.54,1.46c1.95,1.95,1.95,5.12,0,7.07-.94,.94-2.2,1.46-3.54,1.46Z"/><path class="cls-33" d="M1937.24,244.41c1.2,0,2.33,.47,3.18,1.32,1.75,1.75,1.75,4.61,0,6.36-.85,.85-1.98,1.32-3.18,1.32s-2.33-.47-3.18-1.32c-1.75-1.75-1.75-4.61,0-6.36,.85-.85,1.98-1.32,3.18-1.32m0-1c-1.41,0-2.82,.54-3.89,1.61-2.15,2.15-2.15,5.63,0,7.78,1.07,1.07,2.48,1.61,3.89,1.61s2.82-.54,3.89-1.61c2.15-2.15,2.15-5.63,0-7.78-1.07-1.07-2.48-1.61-3.89-1.61h0Z"/></g><g><path class="cls-31" d="M1937,433.81c-1.34,0-2.59-.52-3.54-1.46-1.95-1.95-1.95-5.12,0-7.07,.94-.94,2.2-1.46,3.54-1.46s2.59,.52,3.54,1.46c1.95,1.95,1.95,5.12,0,7.07-.94,.94-2.2,1.46-3.54,1.46Z"/><path class="cls-33" d="M1937,424.31c1.2,0,2.33,.47,3.18,1.32,.85,.85,1.32,1.98,1.32,3.18s-.47,2.33-1.32,3.18c-.85,.85-1.98,1.32-3.18,1.32s-2.33-.47-3.18-1.32c-.85-.85-1.32-1.98-1.32-3.18s.47-2.33,1.32-3.18c.85-.85,1.98-1.32,3.18-1.32m0-1c-1.41,0-2.82,.54-3.89,1.61-2.15,2.15-2.15,5.63,0,7.78,1.07,1.07,2.48,1.61,3.89,1.61s2.82-.54,3.89-1.61c2.15-2.15,2.15-5.63,0-7.78-1.07-1.07-2.48-1.61-3.89-1.61h0Z"/></g><path class="cls-5" d="M1562.95,375.6l91.54,52.85c7.89,4.56,7.89,15.94,0,20.5l-13.08,7.55c-7.11,4.11-7.11,14.38,0,18.48l49.42,28.53c7.82,4.51,17.45,4.51,25.27,0l18.59-10.73"/><g><path class="cls-31" d="M1561.6,379.62c-2.76,0-5-2.24-5-5s2.24-5,5-5,5,2.24,5,5c0,1.34-.52,2.59-1.46,3.54-.94,.94-2.2,1.46-3.54,1.46Z"/><path class="cls-35" d="M1561.6,370.12c2.48,0,4.5,2.02,4.5,4.5,0,2.48-2.02,4.5-4.5,4.5s-4.5-2.02-4.5-4.5,2.02-4.5,4.5-4.5m0-1c-3.04,0-5.5,2.46-5.5,5.5s2.46,5.5,5.5,5.5,5.5-2.46,5.5-5.5c0-3.04-2.46-5.5-5.5-5.5h0Z"/></g><g><path class="cls-31" d="M1735.78,496.58c-2.76,0-5-2.24-5-5s2.24-5,5-5,5,2.24,5,5c0,1.34-.52,2.59-1.46,3.54-.94,.94-2.2,1.46-3.54,1.46Z"/><path class="cls-35" d="M1735.78,487.08c2.48,0,4.5,2.02,4.5,4.5,0,2.48-2.02,4.5-4.5,4.5s-4.5-2.02-4.5-4.5,2.02-4.5,4.5-4.5m0-1c-3.04,0-5.5,2.46-5.5,5.5s2.46,5.5,5.5,5.5,5.5-2.46,5.5-5.5c0-3.04-2.46-5.5-5.5-5.5h0Z"/></g></svg>