<?xml version="1.0" encoding="UTF-8" standalone="no"?>
<!-- Created with Inkscape (http://www.inkscape.org/) -->

<svg
   version="1.1"
   id="svg2"
   width="6400"
   height="4266.6665"
   viewBox="0 0 6400 4266.6665"
   sodipodi:docname="vecteezy_effective-teamwork-problem-solving-or-ways-to-improve_29258117.eps"
   xmlns:inkscape="http://www.inkscape.org/namespaces/inkscape"
   xmlns:sodipodi="http://sodipodi.sourceforge.net/DTD/sodipodi-0.dtd"
   xmlns="http://www.w3.org/2000/svg"
   xmlns:svg="http://www.w3.org/2000/svg">
  <defs
     id="defs6" />
  <sodipodi:namedview
     id="namedview4"
     pagecolor="#ffffff"
     bordercolor="#000000"
     borderopacity="0.25"
     inkscape:showpageshadow="2"
     inkscape:pageopacity="0.0"
     inkscape:pagecheckerboard="0"
     inkscape:deskcolor="#d1d1d1" />
  <g
     id="g8"
     inkscape:groupmode="layer"
     inkscape:label="ink_ext_XXXXXX"
     transform="matrix(1.3333333,0,0,-1.3333333,0,4266.6667)">
    <g
       id="g10"
       transform="scale(0.1)">
      <path
         d="M 0,0 H 48000 V 32000 H 0 Z"
         style="fill:#ffffff;fill-opacity:1;fill-rule:nonzero;stroke:none"
         id="path12" />
      <path
         d="m 42376.1,14453 c -521.8,1547 -1941.9,2329.3 -2686.7,2637.5 -1345,556.6 -3500.1,797.2 -4902.9,325.7 -2550.3,-857.4 -3304.1,-3459.1 -4607.6,-5491.1 -702.2,-1094.7 -1918.8,-2364.8 -3169.4,-2807.8 -1285.4,-455.4 -3018.5,-389.9 -4350.6,-225.2 -1606.6,198.7 -3180.2,489 -4623.9,1243.8 -1142.7,597.4 -2402.9,1274.7 -3710.5,1435.3 -1672.9,205.4 -3518.1,389.5 -5210.81,245 C 8096.81,11729.4 6163.8,10903.8 5693.11,9991.7 4436.36,7556.4 6514.94,5837.3 7929.9,5218.9 c 1190.13,-520.1 3270.2,-326.8 4556.5,-326.8 1721.2,0 3033.8,4.6 4729.7,127.2 3663.6,264.8 7106.7,347.2 10338.6,58.3 4104.8,-367 8887.5,-1257.7 12294.7,1497.5 1468.2,1187.3 2504.1,2567.4 2782.7,4409 137.7,910.1 46.6,2571.8 -256,3468.9"
         style="fill:#dde7ed;fill-opacity:1;fill-rule:nonzero;stroke:none"
         id="path14" />
      <path
         d="m 41262.3,10830.3 c 0,0 124.7,486.2 635.6,825 511,338.8 1573.8,256.8 1573.8,256.8 0,0 -582.4,-771.2 -1134.3,-1035.9 -488.4,-234.3 -1075.1,-45.9 -1075.1,-45.9"
         style="fill:#628caf;fill-opacity:1;fill-rule:nonzero;stroke:none"
         id="path16" />
      <path
         d="m 41093.9,10837.3 c 0,0 -124.7,486.2 -635.6,825 -511,338.8 -1573.8,256.8 -1573.8,256.8 0,0 582.4,-771.2 1134.3,-1035.9 488.4,-234.3 1075.1,-45.9 1075.1,-45.9"
         style="fill:#628caf;fill-opacity:1;fill-rule:nonzero;stroke:none"
         id="path18" />
      <path
         d="m 41263.1,9124.6 c 0,0 151.2,589.5 770.7,1000.2 619.4,410.8 1908,311.4 1908,311.4 0,0 -706.1,-935 -1375.2,-1255.9 -592.2,-284 -1303.5,-55.7 -1303.5,-55.7"
         style="fill:#628caf;fill-opacity:1;fill-rule:nonzero;stroke:none"
         id="path20" />
      <path
         d="m 41059,9133.1 c 0,0 -151.2,589.5 -770.7,1000.2 -619.4,410.8 -1908,311.4 -1908,311.4 0,0 706.1,-935 1375.2,-1255.9 592.2,-284 1303.5,-55.7 1303.5,-55.7"
         style="fill:#628caf;fill-opacity:1;fill-rule:nonzero;stroke:none"
         id="path22" />
      <path
         d="m 41278.6,7098.3 c 0,0 176.3,687.3 898.6,1166.2 722.3,479 2224.7,363.1 2224.7,363.1 0,0 -823.3,-1090.2 -1603.4,-1464.4 -690.5,-331.1 -1519.9,-64.9 -1519.9,-64.9"
         style="fill:#628caf;fill-opacity:1;fill-rule:nonzero;stroke:none"
         id="path24" />
      <path
         d="m 41040.6,7108.2 c 0,0 -176.3,687.3 -898.6,1166.2 -722.2,479 -2224.7,363.1 -2224.7,363.1 0,0 823.3,-1090.2 1603.5,-1464.4 690.4,-331.1 1519.8,-64.9 1519.8,-64.9"
         style="fill:#628caf;fill-opacity:1;fill-rule:nonzero;stroke:none"
         id="path26" />
      <path
         d="m 41193.2,11601.9 c 0,0 -340.2,308.5 -396.4,866.6 -56.2,558.1 463.8,1383.3 463.8,1383.3 0,0 375.6,-800.5 354.3,-1360.1 -18.8,-495.3 -421.7,-889.8 -421.7,-889.8"
         style="fill:#628caf;fill-opacity:1;fill-rule:nonzero;stroke:none"
         id="path28" />
      <path
         d="m 41185.8,10747.3 c -8.2,0 -16.2,4 -21,11.4 -7.5,11.6 -4.2,27.1 7.4,34.6 12.6,8.2 1272.4,822.3 2284.9,1136.6 13.2,4.1 27.2,-3.2 31.3,-16.4 4.1,-13.2 -3.3,-27.2 -16.5,-31.3 -1005.8,-312.3 -2259.9,-1122.7 -2272.5,-1130.9 -4.2,-2.7 -8.9,-4 -13.6,-4"
         style="fill:#3c5c82;fill-opacity:1;fill-rule:nonzero;stroke:none"
         id="path30" />
      <path
         d="m 41170.4,10754.3 c -4.7,0 -9.4,1.3 -13.6,4 -12.6,8.2 -1266.7,818.6 -2272.5,1130.9 -13.2,4.1 -20.6,18.1 -16.5,31.3 4.1,13.2 18.1,20.5 31.3,16.4 1012.5,-314.3 2272.3,-1128.4 2284.9,-1136.6 11.6,-7.5 14.9,-23 7.4,-34.6 -4.8,-7.4 -12.8,-11.4 -21,-11.4"
         style="fill:#3c5c82;fill-opacity:1;fill-rule:nonzero;stroke:none"
         id="path32" />
      <path
         d="m 41170.4,9029.4 c -8.2,0 -16.2,4 -21,11.3 -7.5,11.6 -4.2,27.1 7.4,34.6 15.2,9.9 1542,996.6 2768.8,1377.5 13.2,4 27.2,-3.3 31.3,-16.5 4.1,-13.2 -3.3,-27.2 -16.4,-31.3 -1220.2,-378.8 -2741.3,-1361.7 -2756.5,-1371.6 -4.2,-2.7 -8.9,-4 -13.6,-4"
         style="fill:#3c5c82;fill-opacity:1;fill-rule:nonzero;stroke:none"
         id="path34" />
      <path
         d="m 41151.7,9037.9 c -4.7,0 -9.4,1.3 -13.6,4 -15.2,9.9 -1536.3,992.8 -2756.5,1371.6 -13.2,4.1 -20.5,18.1 -16.5,31.3 4.1,13.2 18.2,20.5 31.3,16.5 1226.9,-380.9 2753.6,-1367.6 2768.9,-1377.5 11.6,-7.5 14.9,-23 7.4,-34.6 -4.8,-7.3 -12.8,-11.3 -21,-11.3"
         style="fill:#3c5c82;fill-opacity:1;fill-rule:nonzero;stroke:none"
         id="path36" />
      <path
         d="m 41170.5,6991.4 c -8.2,0 -16.2,4 -21,11.4 -7.5,11.6 -4.2,27 7.4,34.6 17.8,11.5 1797.5,1161.6 3227.4,1605.5 13.2,4.1 27.2,-3.2 31.3,-16.4 4.1,-13.2 -3.3,-27.2 -16.5,-31.3 -1423.2,-441.9 -3197.2,-1588.3 -3215,-1599.8 -4.2,-2.7 -8.9,-4 -13.6,-4"
         style="fill:#3c5c82;fill-opacity:1;fill-rule:nonzero;stroke:none"
         id="path38" />
      <path
         d="m 41148.7,7001.3 c -4.7,0 -9.4,1.3 -13.6,4 -17.8,11.6 -1791.8,1158 -3215,1599.8 -13.2,4.1 -20.6,18.1 -16.5,31.3 4.1,13.2 18.1,20.5 31.3,16.5 1429.9,-444 3209.6,-1594.1 3227.4,-1605.6 11.6,-7.6 14.9,-23 7.4,-34.6 -4.8,-7.4 -12.8,-11.4 -21,-11.4"
         style="fill:#3c5c82;fill-opacity:1;fill-rule:nonzero;stroke:none"
         id="path40" />
      <path
         d="m 41229.6,4020.2 c -13.4,0 -24.5,10.7 -24.9,24.2 -173.6,5048.5 28.7,9723.9 30.8,9770.6 0.6,13.7 12.6,24.1 26.1,23.8 13.8,-0.6 24.5,-12.3 23.8,-26.1 -2,-46.6 -204.3,-4720.1 -30.8,-9766.6 0.5,-13.8 -10.3,-25.4 -24.1,-25.8 l -0.9,-0.1"
         style="fill:#3c5c82;fill-opacity:1;fill-rule:nonzero;stroke:none"
         id="path42" />
      <path
         d="m 38677.3,7400.5 c 0,0 98.6,384.4 502.6,652.2 404,267.9 1244.3,203.1 1244.3,203.1 0,0 -460.5,-609.8 -896.8,-819 -386.2,-185.3 -850.1,-36.3 -850.1,-36.3"
         style="fill:#98c0d9;fill-opacity:1;fill-rule:nonzero;stroke:none"
         id="path44" />
      <path
         d="m 38544.2,7406 c 0,0 -98.6,384.4 -502.5,652.3 -404,267.8 -1244.3,203 -1244.3,203 0,0 460.5,-609.7 896.8,-819 386.2,-185.2 850,-36.3 850,-36.3"
         style="fill:#98c0d9;fill-opacity:1;fill-rule:nonzero;stroke:none"
         id="path46" />
      <path
         d="m 38678,6051.9 c 0,0 119.5,466.1 609.3,790.8 489.7,324.8 1508.5,246.2 1508.5,246.2 0,0 -558.2,-739.2 -1087.2,-993 -468.2,-224.5 -1030.6,-44 -1030.6,-44"
         style="fill:#98c0d9;fill-opacity:1;fill-rule:nonzero;stroke:none"
         id="path48" />
      <path
         d="m 38516.6,6058.6 c 0,0 -119.5,466.1 -609.3,790.8 -489.7,324.8 -1508.5,246.2 -1508.5,246.2 0,0 558.2,-739.2 1087.2,-992.9 468.2,-224.6 1030.6,-44.1 1030.6,-44.1"
         style="fill:#98c0d9;fill-opacity:1;fill-rule:nonzero;stroke:none"
         id="path50" />
      <path
         d="m 38690.3,4449.9 c 0,0 139.3,543.4 710.4,922 571,378.7 1758.9,287.1 1758.9,287.1 0,0 -650.9,-862 -1267.7,-1157.8 -545.9,-261.8 -1201.6,-51.3 -1201.6,-51.3"
         style="fill:#98c0d9;fill-opacity:1;fill-rule:nonzero;stroke:none"
         id="path52" />
      <path
         d="m 38502.1,4457.7 c 0,0 -139.4,543.4 -710.4,922.1 -571.1,378.6 -1759,287 -1759,287 0,0 651,-861.9 1267.8,-1157.8 545.9,-261.8 1201.6,-51.3 1201.6,-51.3"
         style="fill:#98c0d9;fill-opacity:1;fill-rule:nonzero;stroke:none"
         id="path54" />
      <path
         d="m 38622.8,8010.5 c 0,0 -269.1,243.9 -313.5,685.2 -44.4,441.2 366.7,1093.7 366.7,1093.7 0,0 297,-632.9 280.1,-1075.4 -14.9,-391.6 -333.3,-703.5 -333.3,-703.5"
         style="fill:#98c0d9;fill-opacity:1;fill-rule:nonzero;stroke:none"
         id="path56" />
      <path
         d="m 38606.5,3891.8 c -10.9,0 -19.8,8.8 -20,19.7 -45.7,3198.5 68.3,5822.6 69.4,5848.7 0.5,11.1 10.1,19.3 20.9,19.1 11,-0.5 19.6,-9.8 19.1,-20.8 -1.2,-26.2 -115.1,-2649.1 -69.4,-5846.4 0.2,-11.1 -8.7,-20.2 -19.7,-20.3 h -0.3"
         style="fill:#3c5c82;fill-opacity:1;fill-rule:nonzero;stroke:none"
         id="path58" />
      <path
         d="m 6952.24,6988.8 c 711.3,-129.1 1033.11,-725.4 1178.7,-1232.8 -117.89,-169.8 -213.98,-348.9 -292.25,-528 -34.68,44.4 -71.65,88.1 -111.21,130.6 -2.53,1232 -775.24,1630.2 -775.24,1630.2"
         style="fill:#84b1d3;fill-opacity:1;fill-rule:nonzero;stroke:none"
         id="path60" />
      <path
         d="m 7685.69,5453.1 c 37.54,-40.4 72.62,-81.8 105.53,-124 -194.49,-444.5 -273.74,-889.3 -306.02,-1179 -282.13,1709.5 -1590.01,1948.1 -1590.01,1948.1 884.91,17.3 1441.12,-268.9 1790.5,-645.1"
         style="fill:#6d9cbf;fill-opacity:1;fill-rule:nonzero;stroke:none"
         id="path62" />
      <path
         d="m 7967.73,5678.2 c -96.54,-139.1 -175.24,-285.7 -239.34,-432.4 -167.85,-383.7 -236.24,-767.5 -264.1,-1017.5 -9.81,-88.4 -14.59,-160 -16.91,-209 h 44.43 651.71 92.06 c 8.33,314.9 55.47,844.3 255.76,1307.7 396.05,916.3 1337,1212.9 1337,1212.9 -946.13,34.6 -1516.63,-365.7 -1860.61,-861.7"
         style="fill:#608db2;fill-opacity:1;fill-rule:nonzero;stroke:none"
         id="path64" />
      <path
         d="m 42829.3,5045.3 c -5.3,116.5 -94.5,215 -215,215 -112.5,0 -220.2,-98.9 -215,-215 5.2,-116.5 94.4,-215 215,-215 112.4,0 220.2,98.9 215,215"
         style="fill:#c7d8e5;fill-opacity:1;fill-rule:nonzero;stroke:none"
         id="path66" />
      <path
         d="m 36517.8,4279.4 c -5.3,116.4 -94.5,215 -215,215 -112.5,0 -220.2,-98.9 -215,-215 5.2,-116.5 94.4,-215 215,-215 112.4,0 220.2,98.9 215,215"
         style="fill:#c7d8e5;fill-opacity:1;fill-rule:nonzero;stroke:none"
         id="path68" />
      <path
         d="m 27418.2,5995.1 c -5.2,116.5 -94.5,215 -215,215 -112.5,0 -220.2,-98.9 -215,-215 5.2,-116.5 94.5,-215 215,-215 112.5,0 220.2,98.9 215,215"
         style="fill:#c7d8e5;fill-opacity:1;fill-rule:nonzero;stroke:none"
         id="path70" />
      <path
         d="m 36884.9,4164.9 c -128.7,0 -128.9,-200 0,-200 128.7,0 128.9,200 0,200"
         style="fill:#c7d8e5;fill-opacity:1;fill-rule:nonzero;stroke:none"
         id="path72" />
      <path
         d="m 41725.7,4318.1 c -128.6,0 -128.9,-200 0,-200 128.7,0 128.9,200 0,200"
         style="fill:#c7d8e5;fill-opacity:1;fill-rule:nonzero;stroke:none"
         id="path74" />
      <path
         d="m 44115.5,4869.6 c -128.7,0 -128.9,-200 0,-200 128.7,0 128.9,200 0,200"
         style="fill:#c7d8e5;fill-opacity:1;fill-rule:nonzero;stroke:none"
         id="path76" />
      <path
         d="m 40530.8,6125.7 c -128.6,0 -128.9,-200 0,-200 128.7,0 129,200 0,200"
         style="fill:#c7d8e5;fill-opacity:1;fill-rule:nonzero;stroke:none"
         id="path78" />
      <path
         d="m 33361.5,4348.7 c -128.7,0 -128.9,-200 0,-200 128.7,0 128.9,200 0,200"
         style="fill:#c7d8e5;fill-opacity:1;fill-rule:nonzero;stroke:none"
         id="path80" />
      <path
         d="m 27540.2,4930.9 c -128.7,0 -128.9,-200 0,-200 128.7,0 128.9,200 0,200"
         style="fill:#c7d8e5;fill-opacity:1;fill-rule:nonzero;stroke:none"
         id="path82" />
      <path
         d="m 23986.2,4747 c -128.7,0 -128.9,-200 0,-200 128.7,0 128.9,200 0,200"
         style="fill:#c7d8e5;fill-opacity:1;fill-rule:nonzero;stroke:none"
         id="path84" />
      <path
         d="m 33759.8,5176 c -128.7,0 -128.9,-200 0,-200 128.7,0 128.9,200 0,200"
         style="fill:#c7d8e5;fill-opacity:1;fill-rule:nonzero;stroke:none"
         id="path86" />
      <path
         d="m 31262.1,23217.9 c 176,-194.6 446.2,-477 686.9,-702.2 61.2,-57.2 120.5,-110.8 175.8,-158.2 116.6,-100 215.7,-173.2 278.4,-197.4 211.9,-82 1125,-292.7 1396.6,-354.3 8.1,7.4 35.4,75.1 70.9,169.9 93.2,248.9 242.1,684.6 245.4,704.1 -165.6,20 -1207.7,177 -1464.2,276 -206.4,79.8 -808.1,472.6 -1132.3,688.8 -77.8,-89.4 -196.7,-245.9 -257.5,-426.7"
         style="fill:#5e8899;fill-opacity:1;fill-rule:nonzero;stroke:none"
         id="path88" />
      <path
         d="m 31286.5,23764.6 c 12.5,14.6 20.1,23.3 20.1,23.3 0,0 84.8,-57.8 213,-143.3 -77.8,-89.4 -196.7,-245.9 -257.5,-426.7 -97.8,108.3 -166.5,189.5 -184.7,218.6 -6,9.6 -2.1,27.7 8.2,50.6 36.8,80.5 153.8,221.9 200.9,277.5"
         style="fill:#e4f4f8;fill-opacity:1;fill-rule:nonzero;stroke:none"
         id="path90" />
      <path
         d="m 30966.4,24124.9 c 18.1,-6.5 -34.8,260.7 46.7,253.5 65,-5.7 157,-519.8 157,-519.8 l 116.4,-94 c -47.1,-55.6 -164.1,-197 -200.9,-277.5 l -102.3,114.6 c 0,0 -236.2,152.6 -308.8,216.6 -165.2,145.8 -239.6,254.5 -206.8,333.3 42.9,103.3 413.2,20.8 498.7,-26.7"
         style="fill:#e8b691;fill-opacity:1;fill-rule:nonzero;stroke:none"
         id="path92" />
      <path
         d="m 32124.8,22357.5 c 116.6,-100 215.7,-173.2 278.4,-197.4 211.9,-82 1125,-292.7 1396.6,-354.3 8.1,7.4 35.4,75.1 70.9,169.9 -249,25.8 -1149.6,132.7 -1745.9,381.8"
         style="fill:#4a707c;fill-opacity:1;fill-rule:nonzero;stroke:none"
         id="path94" />
      <path
         d="m 19542.2,23115.7 c 0,0 295.5,-61.2 286,-144.4 -9.7,-83.2 -143.8,-71.8 -143.8,-71.8 0,0 40,-165.6 -68.3,-246.6 -108.2,-81 -446.8,-40.5 -526.4,139.5 l -46.7,12 c 52.7,56.4 134.6,206.5 127.5,317.4 l 2.2,-0.8 c 0,0 264.5,105.7 333.7,45.9 14.9,-12.9 26.9,-30.6 35.8,-51.2"
         style="fill:#89776a;fill-opacity:1;fill-rule:nonzero;stroke:none"
         id="path96" />
      <path
         d="m 19170.5,23121.8 c 7.1,-110.9 -74.8,-261 -127.5,-317.4 l -173.9,44.3 c 85.1,118.2 136.9,285.4 106.5,378.2 57.5,-8 187.5,-32.9 194.3,-96.5 0.3,-2.9 0.6,-5.8 0.6,-8.6"
         style="fill:#98c0d9;fill-opacity:1;fill-rule:nonzero;stroke:none"
         id="path98" />
      <path
         d="m 18869.1,22848.7 c -7.7,-11 -15.8,-21.4 -24.2,-31.4 -41.1,-49 -88.1,-85.6 -136.5,-98.4 -175,-46.1 -1176.7,165.4 -1433.8,375.3 -257,209.8 -988.3,844.4 -988.3,844.4 l 576.3,1024.3 c 0,0 679.3,-1120.3 901.2,-1267.5 222,-147.3 1126.8,-317.3 1201.5,-445.2 4.1,-7.1 7.5,-14.8 10.3,-23.3 30.4,-92.8 -21.4,-260 -106.5,-378.2"
         style="fill:#daecef;fill-opacity:1;fill-rule:nonzero;stroke:none"
         id="path100" />
      <path
         d="m 19480.1,22837.8 c -4.8,0 -9.4,1.1 -13.8,3.3 -33.3,16.6 -39.6,98.3 -39.5,157.7 -27,-56.9 -80.2,-137.5 -166.1,-138.1 v 0 c -5.5,0 -10,4.5 -10,10 -0.1,5.5 4.4,10 9.9,10 115.1,0.8 168,176.9 168.5,178.7 1.5,4.9 6.3,7.9 11.4,7 5,-0.9 8.5,-5.4 8.2,-10.5 -5,-73.8 -0.2,-183.6 26.5,-196.9 6.2,-3.1 14.9,0.2 26,9.8 65.6,56.8 74.3,166.7 44.8,236 -2.2,5 0.2,10.9 5.2,13.1 5.1,2.1 11,-0.2 13.2,-5.3 32.9,-77.3 23.3,-195.3 -50.1,-258.9 -12.2,-10.6 -23.7,-15.9 -34.2,-15.9"
         style="fill:#231f20;fill-opacity:1;fill-rule:nonzero;stroke:none"
         id="path102" />
      <path
         d="m 29411.2,12433.9 c 1.9,-97.3 5.6,-186.5 10.9,-267.1 -359.1,7.3 -1242.3,32.4 -1757,109 l -0.8,0.2 c -146.5,21.8 -263.1,47.9 -329.1,78.9 -39.3,18.4 -128.8,84 -249.4,197.5 -101.8,96 -225.8,226.1 -360.4,390.7 60.5,130.7 176.7,344.9 347.1,504 257.2,-205.4 515.3,-403.1 596.6,-436.9 173.9,-72.4 1831.7,167.6 1848.7,178.8 -6.2,-123.7 -111.5,-420.1 -107.4,-708 0.2,-15.9 0.4,-31.6 0.8,-47.1"
         style="fill:#3c5c82;fill-opacity:1;fill-rule:nonzero;stroke:none"
         id="path104" />
      <path
         d="m 29422.1,12166.8 c -359.1,7.3 -1242.3,32.4 -1756.9,109 l -0.9,0.2 c -146.5,21.8 -263.1,47.9 -329.1,78.9 -39.3,18.4 -128.8,84 -249.4,197.5 271.6,-103.4 1024.4,-313.1 2325.4,-118.4 1.9,-97.4 5.6,-186.6 10.9,-267.2"
         style="fill:#2e4a66;fill-opacity:1;fill-rule:nonzero;stroke:none"
         id="path106" />
      <path
         d="m 26852.3,13624.5 c 70.3,-57.1 145.2,-117.5 220.1,-177.4 -170.3,-159 -286.5,-373.3 -347,-504 -69.3,84.7 -141.4,178.7 -214.9,282 71.4,112.5 188.9,273.9 341.8,399.4"
         style="fill:#98c0d9;fill-opacity:1;fill-rule:nonzero;stroke:none"
         id="path108" />
      <path
         d="m 26357.5,14404.6 c 81.1,-42.5 44.9,-414.1 101.3,-457.9 22.5,-17.4 189.4,-156.2 393.5,-322.2 -152.9,-125.5 -270.4,-286.9 -341.8,-399.4 -106.5,149.7 -215.6,319 -322.6,507.9 -198.2,-29.9 -532.5,147.4 -499.2,311.9 33.2,164.4 546.5,107 569.8,132.9 23.2,25.8 18,269.5 99,226.8"
         style="fill:#846652;fill-opacity:1;fill-rule:nonzero;stroke:none"
         id="path110" />
      <path
         d="m 19592.5,13601.7 c -164.6,-224.6 -419.2,-552.1 -648.7,-816.1 -58.4,-67 -115.1,-130 -168.4,-186.1 -112.1,-118.3 -208.8,-206.3 -272.4,-238.7 -214.7,-109.6 -1155.7,-431.4 -1435.7,-526 -9.3,6.9 -45.6,75.4 -93.4,171.6 -125.4,252.7 -330,696.4 -335.6,716.6 172.6,39.2 1255.6,318.3 1515.5,450.7 209.3,106.7 801.7,586.9 1120.4,850.4 91.9,-85.9 234.4,-238.2 318.3,-422.4"
         style="fill:#3c5c82;fill-opacity:1;fill-rule:nonzero;stroke:none"
         id="path112" />
      <path
         d="m 19507.2,14176.2 c -14.7,14 -23.7,22.4 -23.7,22.4 0,0 -83.2,-70.3 -209.3,-174.5 91.8,-85.9 234.4,-238.2 318.2,-422.4 91.5,124.9 155.2,218.2 171.2,250.8 5.4,10.9 -0.8,29.6 -14.1,52.5 -47.6,81 -186.5,217.6 -242.3,271.2"
         style="fill:#e4f4f8;fill-opacity:1;fill-rule:nonzero;stroke:none"
         id="path114" />
      <path
         d="m 19805.9,14591.3 c -18.4,-8.8 8.4,279 -76.9,262.6 -68,-13.1 -109.1,-565.8 -109.1,-565.8 l -112.7,-111.9 c 55.8,-53.6 194.7,-190.2 242.3,-271.2 l 95.5,132.2 c 0,0 232.7,186.8 302.4,262.3 158.6,171.8 225.2,294.7 182.1,374.3 -56.6,104.4 -438.5,-23.1 -523.6,-82.5"
         style="fill:#e8b691;fill-opacity:1;fill-rule:nonzero;stroke:none"
         id="path116" />
      <path
         d="m 18775.4,12599.5 c -112.1,-118.3 -208.8,-206.3 -272.4,-238.7 -214.7,-109.6 -1155.7,-431.4 -1435.7,-526 -9.3,6.9 -45.6,75.4 -93.4,171.6 260.1,54.4 1199.2,265.3 1801.5,593.1"
         style="fill:#314f6d;fill-opacity:1;fill-rule:nonzero;stroke:none"
         id="path118" />
      <path
         d="m 11462.3,3329.7 c -12.8,0 -25.9,2.5 -38.5,7.8 -51,21.3 -75,79.9 -53.7,130.9 l 7360.8,17594.9 c 21.3,51 79.9,75 130.9,53.7 50.9,-21.3 75,-79.9 53.6,-130.9 L 11554.6,3391.2 c -16,-38.4 -53.2,-61.5 -92.3,-61.5"
         style="fill:#3c5c82;fill-opacity:1;fill-rule:nonzero;stroke:none"
         id="path120" />
      <path
         d="m 9554.04,3480.5 c -13.24,0 -26.7,2.6 -39.63,8.2 -50.69,21.9 -74.03,80.8 -52.12,131.5 l 7567.21,17507.1 c 21.9,50.7 80.8,74.1 131.5,52.2 50.7,-22 74,-80.8 52.1,-131.5 L 9645.88,3540.8 c -16.32,-37.8 -53.16,-60.3 -91.84,-60.3"
         style="fill:#3c5c82;fill-opacity:1;fill-rule:nonzero;stroke:none"
         id="path122" />
      <path
         d="M 11890.8,4353.7 H 9919.82 c -55.23,0 -100,44.8 -100,100 0,55.2 44.77,100 100,100 h 1970.98 c 55.2,0 100,-44.8 100,-100 0,-55.2 -44.8,-100 -100,-100"
         style="fill:#3c5c82;fill-opacity:1;fill-rule:nonzero;stroke:none"
         id="path124" />
      <path
         d="M 12667.6,6210.8 H 10726 c -55.3,0 -100,44.8 -100,100 0,55.2 44.7,100 100,100 h 1941.6 c 55.3,0 100,-44.8 100,-100 0,-55.2 -44.7,-100 -100,-100"
         style="fill:#3c5c82;fill-opacity:1;fill-rule:nonzero;stroke:none"
         id="path126" />
      <path
         d="m 13425.7,8022.8 h -1925.3 c -55.2,0 -100,44.8 -100,100 0,55.2 44.8,100 100,100 h 1925.3 c 55.3,0 100,-44.8 100,-100 0,-55.2 -44.7,-100 -100,-100"
         style="fill:#3c5c82;fill-opacity:1;fill-rule:nonzero;stroke:none"
         id="path128" />
      <path
         d="m 14183.8,9835 h -1887 c -55.2,0 -100,44.7 -100,100 0,55.2 44.8,100 100,100 h 1887 c 55.3,0 100,-44.8 100,-100 0,-55.3 -44.7,-100 -100,-100"
         style="fill:#3c5c82;fill-opacity:1;fill-rule:nonzero;stroke:none"
         id="path130" />
      <path
         d="m 14941.9,11647 h -1859.6 c -55.2,0 -100,44.8 -100,100 0,55.2 44.8,100 100,100 h 1859.6 c 55.3,0 100,-44.8 100,-100 0,-55.2 -44.7,-100 -100,-100"
         style="fill:#3c5c82;fill-opacity:1;fill-rule:nonzero;stroke:none"
         id="path132" />
      <path
         d="m 15699.9,13459.1 h -1832.1 c -55.2,0 -100,44.7 -100,100 0,55.2 44.8,100 100,100 h 1832.1 c 55.3,0 100,-44.8 100,-100 0,-55.3 -44.7,-100 -100,-100"
         style="fill:#3c5c82;fill-opacity:1;fill-rule:nonzero;stroke:none"
         id="path134" />
      <path
         d="m 16458,15271.1 h -1804.7 c -55.2,0 -100,44.8 -100,100 0,55.2 44.8,100 100,100 H 16458 c 55.3,0 100,-44.8 100,-100 0,-55.2 -44.7,-100 -100,-100"
         style="fill:#3c5c82;fill-opacity:1;fill-rule:nonzero;stroke:none"
         id="path136" />
      <path
         d="m 17216.1,17083.1 h -1777.3 c -55.3,0 -100,44.8 -100,100 0,55.3 44.7,100 100,100 h 1777.3 c 55.3,0 100,-44.7 100,-100 0,-55.2 -44.7,-100 -100,-100"
         style="fill:#3c5c82;fill-opacity:1;fill-rule:nonzero;stroke:none"
         id="path138" />
      <path
         d="m 17974.2,18895.3 h -1761.1 c -55.2,0 -100,44.8 -100,100 0,55.2 44.8,100 100,100 h 1761.1 c 55.3,0 100,-44.8 100,-100 0,-55.2 -44.7,-100 -100,-100"
         style="fill:#3c5c82;fill-opacity:1;fill-rule:nonzero;stroke:none"
         id="path140" />
      <path
         d="m 19598.4,3398.2 c 0,-189.8 1628.3,-343.7 3636.9,-343.7 2008.6,0 3636.8,153.9 3636.8,343.7 0,189.8 -1628.2,343.7 -3636.8,343.7 -2008.6,0 -3636.9,-153.9 -3636.9,-343.7"
         style="fill:#c1c1c1;fill-opacity:1;fill-rule:nonzero;stroke:none"
         id="path142" />
      <path
         d="m 23235.3,10594.9 v -0.6 H 20465.5 V 12155 c -2157.9,1019.5 -3680.8,3163.1 -3812.1,5675.3 h 2776.2 c 16.6,0 32.2,7.4 42.7,20.2 10.5,12.7 14.8,29.5 11.6,45.7 -31.6,160.7 -103.1,312.8 -206.9,439.6 -125.1,152.6 -194,345.6 -194,543.5 0,233.1 92,451.3 258.9,614.2 166.8,162.9 387.3,249.6 620.7,243.8 455,-11 830.4,-390.4 836.9,-845.7 2.9,-200 -64.5,-395.6 -189.8,-550.9 -105.7,-131 -178.3,-284.6 -210.3,-444.4 -3.3,-16.1 1,-33 11.5,-45.8 10.4,-12.7 26.1,-20.2 42.7,-20.2 h 2748.6 v -2477.2 c -118.5,33.5 -231.7,92.3 -330.7,172.1 -175.2,141.5 -396.2,217.3 -621.8,214.3 -250.4,-3.6 -487.1,-103.4 -666.7,-281 -179.4,-177.7 -281.7,-413.4 -287.8,-663.7 -6.4,-263.5 91.4,-512.3 275.1,-700.6 184,-188.3 430.1,-292 693.4,-292 223.3,0 441.2,77.7 613.4,218.9 95.3,78 206.6,135.4 325.1,168.3 v -3543.8 c 0,-22.6 13.6,-42 33.1,-50.7"
         style="fill:#f1cc17;fill-opacity:1;fill-rule:nonzero;stroke:none"
         id="path144" />
      <path
         d="M 29967.4,17863.4 C 29847.7,15337 28321.1,13179 26153.7,12155 v -1560.7 h -2874.3 v 0.6 c 19.5,8.7 33.2,28.1 33.2,50.7 v 3613.6 c 0,16.5 -7.4,32.2 -20.1,42.7 -12.8,10.4 -29.5,14.6 -45.7,11.4 -160.8,-31.4 -312.8,-103 -439.7,-206.8 -152.6,-125.1 -345.5,-193.9 -543.4,-193.9 -233.2,0 -451.4,91.9 -614.3,258.8 -162.9,166.8 -249.4,387.3 -243.7,620.6 11,455.1 390.3,830.6 845.5,837.1 h 12.4 c 195.7,0 386.5,-67.1 538.6,-189.9 130.9,-105.6 284.7,-178.4 444.3,-210.3 16.3,-3.2 33.1,1 45.9,11.5 12.8,10.5 20.2,26.2 20.2,42.6 v 2580.4 h 2785.6 c -31.5,-138.5 -95.2,-269 -185.2,-379.1 -136.4,-166.3 -211.5,-376.8 -211.5,-592.3 0,-254.3 100.2,-492.1 282.1,-669.7 176.3,-172 407.4,-266 653.1,-266 7.9,0 15.7,0.1 23.4,0.3 241.8,5.9 469.4,104.6 641,278 171.6,173.4 268,402 271.5,643.8 3.1,218 -70.4,431.3 -207,600.5 -92,114.1 -157.1,246.5 -189,384.5 h 2790.8"
         style="fill:#f1cc17;fill-opacity:1;fill-rule:nonzero;stroke:none"
         id="path146" />
      <path
         d="m 24848.3,21115.6 c -164.7,-177.6 -388.6,-279.1 -630.8,-285.5 -205.4,-5.4 -407.7,60.8 -569.5,186.5 -125.3,96.9 -274,162.2 -430.2,188.5 -6.4,1.2 -13.2,-0.8 -18.1,-5.1 -5,-4.3 -7.8,-10.6 -7.7,-17.2 l 77.7,-2924.9 -2584.9,-68.4 c 28.1,67 65.2,131.3 109.8,189.8 149.3,195.3 226.1,438.4 215.9,684.6 -11.2,273 -126.8,528.5 -325.8,719.1 -198.9,190.6 -459,295.3 -732.5,294.6 -287.3,-0.7 -555.9,-114.4 -756,-320.2 -200.2,-206.2 -306.3,-477.8 -298.7,-764.9 6.6,-243.6 97.8,-479 256.7,-662.8 46,-53.3 85.3,-113.6 116,-177.8 l -2581.8,-68.4 c -1.2,0 -3.2,-0.1 -5.8,-0.3 -2.7,51.6 -4.6,103.4 -6,155.3 -31.3,1177.4 244.8,2291.6 755.3,3265.6 134.4,256.7 285.1,503.5 450.9,739.3 1157.7,1647.6 3044.7,2751.5 5206.1,2832.6 l 76.1,-2869.6 c 0.1,-6.7 3.3,-12.8 8.5,-16.9 5.3,-4.1 12,-5.6 18.4,-4.1 153.6,34.9 300.4,109.3 424.5,214.9 157.8,134.4 359.5,209.9 566.7,212.3 472.9,5.8 877.1,-373.6 901,-845.8 12.3,-242.1 -71.4,-473.2 -235.8,-651.2"
         style="fill:#f1cc17;fill-opacity:1;fill-rule:nonzero;stroke:none"
         id="path148" />
      <path
         d="m 25309,8794 c 0.3,145 -0.4,294.3 -1.8,446.1 -4.3,447 -15.3,915.2 -28.8,1354.2 v 0 h 875.3 V 12155 c 295.3,139.5 578.5,299.9 848,479.6 v 0 c -269.5,-179.7 -552.7,-340.1 -848,-479.6 V 9203.8 c 125.1,-49.4 217,-144.9 241.7,-259.5 -346.9,-76 -713.3,-123.9 -1086.4,-150.3"
         style="fill:#d8d8d8;fill-opacity:1;fill-rule:nonzero;stroke:none"
         id="path150" />
      <path
         d="m 24808.5,5651.5 h -832.1 c 1051.9,421.9 1050.7,1023 1222.4,1501.5 4.9,13.6 9.5,28.6 14,45.1 38.7,142.9 63.7,395.8 78.5,716.5 8.3,183.4 13.4,389 16,608.9 1,88.1 1.5,178.4 1.7,270.5 373.1,26.4 739.5,74.3 1086.4,150.3 4.4,-20.3 6.7,-41.1 6.7,-62.3 0,-99.3 -49.4,-188.6 -129.4,-253.4 -34.6,-28 -74.5,-51.5 -119,-68.8 v -681.4 c 147.1,-58.1 248.4,-180.1 248.4,-321.8 0,-99 -49.4,-188.7 -129.4,-253.4 -34.6,-28 -74.5,-51.5 -119,-68.8 v -249.7 c 0,-661.7 -486.7,-1210.9 -1123.9,-1315.1 -50,-8.3 -101.1,-14.1 -153,-16.5 -11,-0.4 -22.2,-0.9 -33.8,-1.2 -11.5,-0.4 -23,-0.4 -34.5,-0.4"
         style="fill:#bbc4c9;fill-opacity:1;fill-rule:nonzero;stroke:none"
         id="path152" />
      <path
         d="m 26153.7,10594.3 h -875.3 c -15.4,506 -34.2,973.1 -49.5,1323.9 -16.1,364.3 191.3,701.9 524.1,851.2 2880.7,1293.7 3395.8,4203.1 3486.7,5094 h 727.7 C 29876.1,15935.9 28966,14223 27577,13064.3 c -183.6,-153.1 -375.7,-296.7 -575.3,-429.7 -269.5,-179.7 -552.7,-340.1 -848,-479.6 v -1560.7"
         style="fill:#ccad13;fill-opacity:1;fill-rule:nonzero;stroke:none"
         id="path154" />
      <path
         d="M 26153.7,10594.3 V 6984.7 c 0,-661.7 -486.7,-1210.9 -1123.9,-1315.1 -50,-8.3 -101.1,-14.1 -153,-16.5 -11,-0.4 -22.2,-0.9 -33.8,-1.2 -11.5,-0.4 -23,-0.4 -34.5,-0.4 h -2997.8 c -11.6,0 -23,0 -34.6,0.4 -11.5,0.3 -22.7,0.8 -33.8,1.2 -711.2,35.5 -1276.8,618 -1276.8,1331.6 v 3609.6 h 5688.2"
         style="fill:#3c5c82;fill-opacity:1;fill-rule:nonzero;stroke:none"
         id="path156" />
      <path
         d="m 26402.1,8882 c 0,-99.3 -49.4,-188.6 -129.3,-253.4 -34.7,-28 -74.6,-51.5 -119.1,-68.8 -58.5,-23 -124,-36.3 -193.2,-36.3 h -5301.8 c -69.2,0 -134.7,13.3 -193.2,36.3 -147.1,58.1 -248.5,180.5 -248.5,322.2 0,98.9 49.5,188.2 129.4,253 34.6,28.4 74.6,51.5 119.1,68.8 58.5,23 124,36.3 193.2,36.3 h 5301.8 c 69.2,0 134.7,-13.3 193.2,-36.3 147.1,-58.1 248.4,-180 248.4,-321.8"
         style="fill:#98c0d9;fill-opacity:1;fill-rule:nonzero;stroke:none"
         id="path158" />
      <path
         d="m 26402.1,7556.6 c 0,-99 -49.4,-188.7 -129.3,-253.4 -34.7,-28 -74.6,-51.5 -119.1,-68.8 -58.5,-23.1 -124,-36.3 -193.2,-36.3 h -5301.8 c -69.2,0 -134.7,13.2 -193.2,36.3 -147.1,58 -248.5,180.1 -248.5,322.2 0,98.8 49.5,188.3 129.4,253 34.6,27.9 74.6,51.4 119.1,68.8 58.5,23.1 124,36.2 193.2,36.2 h 5301.8 c 69.2,0 134.7,-13.1 193.2,-36.2 147.1,-58.1 248.4,-180.1 248.4,-321.8"
         style="fill:#98c0d9;fill-opacity:1;fill-rule:nonzero;stroke:none"
         id="path160" />
      <path
         d="m 32233.5,20581.5 c -4.5,-50.7 -9.5,-101.4 -15.2,-152.1 -17.2,-156 -40.1,-312.6 -68.9,-469.3 -29.8,-163 -66.1,-326.4 -108.6,-489.4 -23.4,-89.7 -48.6,-178.6 -75.5,-266.4 l -2728.5,712.9 c -6.4,1.6 -13.2,0.4 -18.5,-3.6 -5.4,-3.7 -8.7,-9.9 -9.2,-16.5 -9.1,-157.3 21.4,-318.9 88.4,-467.5 85.2,-188.9 101.6,-403.2 46.1,-603.5 -126,-455.7 -602.9,-738.3 -1063,-630 -235.8,55.8 -435,200.4 -559.7,407.9 -125,207.5 -160.1,450.9 -98.9,685.4 51.9,198.6 171.9,374.4 337.6,495.1 128.1,93.2 232.1,217.9 300.9,360.6 2.8,5.9 2.9,12.8 0.1,18.9 -2.7,5.9 -8.1,10.3 -14.4,12 l -2753.6,719.3 763.4,2922 c 126,-65.4 236.3,-160 319.9,-275 126.6,-174 311.2,-299.9 519.8,-354.3 245.9,-64.3 501.5,-27.5 719.2,103.7 217.7,131 369.8,339.7 428.2,587.5 55.3,235.2 17.4,480.4 -107,690.4 -124.5,209.8 -321.3,360.8 -554.3,425.2 -210.6,58.1 -435.1,41 -633.4,-48.4 -133.6,-60.2 -278.2,-89.6 -419.7,-85.5 l 718.6,2751.2 c 9.9,-2.5 19.6,-5.1 29.3,-7.6 2865.4,-748.6 4805.9,-3251.8 4970.7,-6056.3 18.9,-319 14.6,-642 -13.8,-966.7"
         style="fill:#f1cc17;fill-opacity:1;fill-rule:nonzero;stroke:none"
         id="path162" />
      <path
         d="m 20465.5,10984.1 v 982.1 l 1256.8,780 c -95.9,-731.8 -832.4,-1420.7 -1256.8,-1762.1"
         style="fill:#ccad13;fill-opacity:1;fill-rule:nonzero;stroke:none"
         id="path164" />
      <path
         d="m 32218.3,20429.4 c -697.6,393.1 -2033.6,1268.8 -2211.8,2295.9 l 2240.8,-1177.1 c 7.6,-129.6 11.5,-259.9 11.5,-390.6 -0.1,-191.1 -8.4,-383.3 -25.3,-576.1 -4.5,-50.7 -9.5,-101.4 -15.2,-152.1 v 0"
         style="fill:#ccad13;fill-opacity:1;fill-rule:nonzero;stroke:none"
         id="path166" />
      <path
         d="m 17446.6,21504.1 c -4.9,0 -9.8,0 -14.7,0 134.4,256.7 285.1,503.5 450.9,739.3 l 940.4,-402.9 c 0,0 -564,-336.4 -1376.6,-336.4"
         style="fill:#ccad13;fill-opacity:1;fill-rule:nonzero;stroke:none"
         id="path168" />
      <path
         d="m 16449.9,17087.8 c -66.1,-95 -325.2,-92.1 -709,106.2 -389.9,201.3 -592.1,159.2 -564.5,375.2 15.7,122.7 87.2,250.5 146,338 254.6,-107.3 475.2,-83.1 565.3,-65.8 1.7,-64.7 15.6,-145.3 63.9,-209.4 178,-237.2 564.6,-449.1 498.3,-544.2"
         style="fill:#2b4860;fill-opacity:1;fill-rule:nonzero;stroke:none"
         id="path170" />
      <path
         d="m 11202,19775.7 c -28.4,-38.8 -64,-80.9 -105.4,-116.6 -110.2,-94.7 -313.7,-597.7 -419.8,-551.2 -106.2,46.5 -206.5,320.2 -33.6,716.2 172.8,395.9 41.3,611.8 258.5,626.6 134.8,9.2 288.7,-45.7 385.9,-88.6 -36.7,-119.1 -118.5,-414.3 -85.6,-586.4"
         style="fill:#2b4860;fill-opacity:1;fill-rule:nonzero;stroke:none"
         id="path172" />
      <path
         d="m 15930.8,17851.6 c 0,0 -15.3,-4.8 -43.1,-10.2 -90.1,-17.3 -310.7,-41.5 -565.3,65.8 -21.7,9.2 -43.7,19.4 -65.9,30.6 -6.2,3.1 -12.4,6.3 -18.7,9.5 0,0 112.2,1617.3 212.7,1874 100.5,256.7 228.3,554.2 228.3,554.2 l -1007.9,1537.9 c -182.7,-562.6 -532,-1636.2 -590.2,-1799.3 -79.3,-222.5 -211.5,-379.2 -499.3,-365.9 -287.9,13.3 -2351.5,-49.2 -2351.5,-49.2 -13.3,20.8 -22.3,46.8 -27.9,76.7 -32.9,172.1 48.9,467.3 85.6,586.4 10,32.7 16.7,52.1 16.7,52.1 0,0 871.8,172.6 1128.1,221.8 256.3,49.4 709.2,103.4 709.2,103.4 43.7,108.2 124.5,1346.2 211.8,1910.2 28.1,181.9 115.2,395 220.4,600.4 220.9,431.7 521.4,829 521.4,829 l 72.2,-18.7 357.8,-92.6 948.4,-245.6 164.2,-42.6 c 0,0 0.7,-19.6 2,-53 2.4,-60.6 6.5,-166.4 11.3,-284.2 10.3,-247.5 23.9,-547.1 31,-588 11.8,-68.4 684,-1244.3 987.6,-2272.7 23,-77.4 20.4,-160 -7,-235.9 -140.3,-386.9 -594.6,-1667.7 -731.9,-2394.1"
         style="fill:#3c5c82;fill-opacity:1;fill-rule:nonzero;stroke:none"
         id="path174" />
      <path
         d="m 15256.5,17937.8 c -6.2,3.1 -12.4,6.3 -18.7,9.5 0,0 112.2,1617.3 212.7,1874 100.5,256.7 228.3,554.2 228.3,554.2 l -1007.9,1537.9 95.7,295.3 c 0,0 1035.4,-1616.8 1027.6,-1842.5 -7.7,-225.7 -276.4,-831.7 -354.7,-1466.9 -55.6,-451.1 -139.3,-798.2 -183,-961.5"
         style="fill:#304f6d;fill-opacity:1;fill-rule:nonzero;stroke:none"
         id="path176" />
      <path
         d="m 14670.9,21898.4 c -1.5,0 -3.1,0.3 -4.6,0.8 -7.9,2.5 -12.2,11 -9.7,18.9 66.7,205.6 111.2,342.9 111.2,342.9 0.5,1.6 1.3,3.1 2.4,4.4 l 148.8,195.5 c 5,6.6 14.4,7.9 21,2.9 6.6,-5.1 7.9,-14.5 2.9,-21.1 l -147.3,-193.4 c -6.2,-19.2 -48.9,-150.8 -110.4,-340.5 -2.1,-6.3 -8,-10.4 -14.3,-10.4"
         style="fill:#233d56;fill-opacity:1;fill-rule:nonzero;stroke:none"
         id="path178" />
      <path
         d="m 18528.4,22263.4 c 72.2,-21.5 335.8,-185.6 360.9,-234 39.5,-76.1 -2.5,-143.8 -66.1,-188.9 -63.6,-45.1 -269.9,-42.1 -447.1,-14.1 -177.1,28.1 -292.7,132.5 -292.7,132.5 l -139.3,56.4 c 85.6,83 156.8,237 174.2,312.3 l 64.8,-26.2 c 0,0 439.2,187.6 508.8,146.7 65,-38 -174.3,-149.6 -163.5,-184.7"
         style="fill:#89776a;fill-opacity:1;fill-rule:nonzero;stroke:none"
         id="path180" />
      <path
         d="m 17498.9,25342.3 c -50.5,1.4 -137.3,98 -200.3,177.4 -54.8,-55.1 -101,-113.4 -139.7,-171.5 -72.6,-109.1 -119.2,-217.3 -147.6,-301.1 -77.9,201.7 -205.6,370.1 -286.9,464.7 212.3,42.8 352.3,139 352.3,139 l 1.1,2.6 165.1,98.8 c -47.8,70.1 -20.7,174.6 49.6,204.2 71.2,30.2 107,-43.3 119.3,-77.3 159.6,5 291.2,77 355.2,119.3 5.4,-32.2 4.5,-70.2 -1.1,-111.2 -30.4,-225.8 -201.2,-546.5 -267,-544.9"
         style="fill:#89776a;fill-opacity:1;fill-rule:nonzero;stroke:none"
         id="path182" />
      <path
         d="m 18186.7,22300 c -17.5,-75.4 -88.7,-229.3 -174.3,-312.4 -35.1,-34.3 -72.7,-56.4 -110.1,-56.1 -69,0.5 -132.3,41.5 -176.9,80.6 65.4,12.3 117.7,56.3 178.7,128.8 94.9,112.7 136.2,223.2 116,307.2 63,-19.1 181.5,-65.1 168.7,-137.2 -0.6,-3.5 -1.3,-7 -2.1,-10.9"
         style="fill:#98c0d9;fill-opacity:1;fill-rule:nonzero;stroke:none"
         id="path184" />
      <path
         d="m 17767,25998.4 c -64,-42.3 -195.6,-114.3 -355.2,-119.3 -12.3,34 -48.1,107.5 -119.4,77.3 -70.2,-29.6 -97.3,-134.1 -49.5,-204.2 l -165.1,-98.8 c 0,0 -26.9,184.3 -26,248.8 1.2,64.6 -133.4,200.1 -93,300.2 40.5,100 268.1,132.5 268.1,132.5 0,0 52.5,124.9 165.2,95.6 112.7,-29.4 181.3,-127.4 240,-156.6 58.5,-29.1 276.1,50.3 296.7,-58 19.6,-103.6 -41.8,-286.7 -162.9,-328.7 5.6,41 6.5,79 1.1,111.2"
         style="fill:#233d56;fill-opacity:1;fill-rule:nonzero;stroke:none"
         id="path186" />
      <path
         d="m 18020.1,22448.1 c 20.2,-84 -21.1,-194.5 -116,-307.2 -61,-72.5 -113.3,-116.5 -178.7,-128.8 -91.6,-17.5 -209,26.7 -412.3,140.4 -348.7,195.2 -947.6,535 -1109.8,790 -46.5,73.4 -94.9,253 -139.9,472.7 233,164.5 622.8,403.9 735.9,639.3 43,89.5 74.5,197.8 98.2,307.3 -4.7,-353.2 -8,-695.3 48.2,-815.4 81.4,-173.6 706.1,-837.8 986.1,-988.9 48.4,-26.3 77.4,-63.9 88.3,-109.4"
         style="fill:#e4f4f8;fill-opacity:1;fill-rule:nonzero;stroke:none"
         id="path188" />
      <path
         d="m 16897.5,24361.8 c -23.7,-109.5 -55.2,-217.8 -98.2,-307.3 -113.1,-235.4 -502.9,-474.8 -735.9,-639.3 -50,-35.3 -92.8,-67.3 -124.1,-94.8 -176.9,-156.3 -112.2,-250.7 -275.2,-412.6 -163,-161.9 -759.9,54 -1097.7,291.7 -474.4,334.3 -699.7,694.4 -510.2,874.1 116.1,110.2 628,306.8 842.8,396.5 214.9,89.6 863.1,1042.9 1599.1,1021.8 81.5,-2.3 157.7,6 226.3,19.9 81.3,-94.6 209,-263 286.9,-464.7 -18.2,-53.4 -28.9,-97.1 -34.2,-124.8 -13.8,-71.9 -27.7,-319.7 -79.6,-560.5"
         style="fill:#e4f4f8;fill-opacity:1;fill-rule:nonzero;stroke:none"
         id="path190" />
      <path
         d="m 15873.3,23252.6 c -145.4,479 23.9,1226.9 23.9,1226.9 l 166.2,-1064.3 -190.1,-162.6"
         style="fill:#628999;fill-opacity:1;fill-rule:nonzero;stroke:none"
         id="path192" />
      <path
         d="m 17298.6,25519.7 c -54.8,-55.1 -101,-113.4 -139.7,-171.5 2.3,137.9 83,274.1 83,274.1 l 56.7,-102.6"
         style="fill:#60534a;fill-opacity:1;fill-rule:nonzero;stroke:none"
         id="path194" />
      <path
         d="m 16063.3,23405.2 c -4.6,0 -8.8,3.3 -9.7,8 -109.6,534.7 -203.4,1335.8 -194.8,1367.6 1.4,5.4 6.9,8.6 12.2,7.1 5.3,-1.4 8.5,-6.9 7.1,-12.2 -6.1,-36.9 85,-821.2 195.1,-1358.5 1.1,-5.4 -2.4,-10.7 -7.8,-11.8 l -2.1,-0.2"
         style="fill:#233d56;fill-opacity:1;fill-rule:nonzero;stroke:none"
         id="path196" />
      <path
         d="m 16897.5,24351.8 h -0.1 c -5.6,0.1 -10,4.6 -9.9,10.2 l 0.2,19.2 c 2,149.8 4,304.7 1.7,442.4 -8.4,453.7 -301.6,616.2 -304.6,617.8 -4.8,2.6 -6.7,8.7 -4.1,13.6 2.7,4.8 8.7,6.7 13.6,4.1 3.1,-1.7 306.5,-169.8 315.1,-635.2 2.3,-138 0.3,-293 -1.7,-443 l -0.2,-19.2 c -0.1,-5.5 -4.6,-9.9 -10,-9.9"
         style="fill:#233d56;fill-opacity:1;fill-rule:nonzero;stroke:none"
         id="path198" />
      <path
         d="m 12768.2,3218.6 c 0,-194.7 1345.9,-352.6 3006.2,-352.6 1660.3,0 3006.3,157.9 3006.3,352.6 0,194.8 -1346,352.7 -3006.3,352.7 -1660.3,0 -3006.2,-157.9 -3006.2,-352.7"
         style="fill:#c1c1c1;fill-opacity:1;fill-rule:nonzero;stroke:none"
         id="path200" />
      <path
         d="m 17617.9,3410.8 c 0,0 212.4,-79.1 324.3,-79.3 l 42.1,90 c 0,0 81.1,-79.1 173.3,-144 92.2,-65 756.9,-205.8 784.7,-68.8 32.6,161.1 -377.4,300.4 -564.2,453.1 -81.7,66.8 -148.7,168.7 -192.6,246.5 -121.4,-4.2 -304.3,8.4 -522.3,83.3 -44.5,-124 -111.2,-367.3 -45.3,-580.8"
         style="fill:#233d56;fill-opacity:1;fill-rule:nonzero;stroke:none"
         id="path202" />
      <path
         d="m 12876.8,4265.9 c 0,0 25.9,-230.4 75.6,-333.3 l 97.4,1.5 c 0,0 -32.6,-110.1 -48.1,-223.7 -15.6,-113.6 156.1,-775 290.3,-752 216.3,37 93.2,480.8 142.9,720.8 29.9,144.7 130.2,293.8 176.3,356.5 -114,78.5 -293.2,250.7 -373.8,418 -119.7,-30.3 -258.3,-85.9 -360.6,-187.8"
         style="fill:#233d56;fill-opacity:1;fill-rule:nonzero;stroke:none"
         id="path204" />
      <path
         d="m 18868.2,6867 c -8.2,-684.4 -562.7,-2511 -578.7,-3096 0,0 -4.4,-0.8 -13,-1.7 h -0.1 c -22.9,-2.7 -74.6,-7 -148.6,-3.2 -118.1,6.1 -293.2,33.3 -497.3,121.2 -5.4,2.3 -10.9,4.7 -16.2,7.1 -14.4,6.4 -28.7,13 -43.3,20 -12,5.8 -24.1,11.8 -36.3,18 0,0 94.1,2140 141.8,2856 -18.6,70.3 -666.9,880.2 -1223.4,1484.3 -2,2.2 -4,4.4 -6.1,6.6 l -2.3,2.7 c -125.5,-654.2 -328.7,-1494.1 -525,-1828.3 -315.3,-536.9 -2153.1,-2452.6 -2216.2,-2461.9 -15.6,-2.3 -49.3,14.2 -92.3,43.9 v 0.1 c -11.8,8.1 -24.3,17.2 -37.4,27.3 -6.5,5 -13.2,10.3 -20,15.7 -12.2,9.9 -24.9,20.5 -37.7,31.8 -4.3,3.8 -8.6,7.6 -12.9,11.4 -3.2,2.8 -6.2,5.6 -9.4,8.5 -15.4,14 -31,28.9 -46.6,44.4 -4.6,4.7 -9.4,9.5 -14.1,14.2 -4.7,4.9 -9.4,9.7 -14.1,14.7 -3.8,4 -7.7,8.1 -11.5,12.2 -11.5,12.4 -22.9,25.1 -34.1,38 -4.1,4.9 -8.2,9.7 -12.4,14.6 -4.7,5.8 -9.6,11.5 -14.1,17.3 -3.4,4.1 -6.7,8.3 -10.1,12.6 -3.9,5 -7.8,10 -11.7,15.1 -3.8,5 -7.6,10.1 -11.3,15.3 -3.8,5.1 -7.4,10.2 -11.1,15.4 -14.5,20.6 -28,41.3 -40.2,62.3 -6.1,10.5 -11.8,20.9 -17.3,31.4 -2.8,5.2 -5.3,10.5 -7.9,15.7 -12.1,25.2 -22.1,50.4 -29.2,75 0,0 1464.7,2183.9 1615.6,2426.7 131.5,211.4 228,1540 328.8,2391.2 15,126.6 30.1,242.7 45.4,342.9 16.7,109.3 47,226.9 86.2,347.2 191.9,588.8 595.6,1240.6 645.4,1284.1 l 309.5,-138.3 613.4,-274.6 27.3,-12.2 211,-94.4 243.3,-108.8 c 0,0 53.9,-712.7 63,-888.4 8.4,-165.7 1475.5,-2509.9 1471.2,-2937.1"
         style="fill:#2b4860;fill-opacity:1;fill-rule:nonzero;stroke:none"
         id="path206" />
      <path
         d="m 17571.1,3914.4 c -12.1,5.8 -24.2,11.8 -36.4,18 0,0 94.1,2140 141.8,2856 -18.6,70.3 -666.9,880.2 -1223.4,1484.3 l 29.9,198 0.2,1 c 0,0 1198.1,-1324.9 1259.3,-1689 50.3,-299 -111.8,-2198.2 -171.4,-2868.3"
         style="fill:#253f51;fill-opacity:1;fill-rule:nonzero;stroke:none"
         id="path208" />
      <path
         d="m 16376.2,8246.6 c -1.2,0 -2.5,0.1 -3.8,0.4 -10.9,2.1 -17.9,12.6 -15.8,23.4 77.2,391.4 126.3,687.9 126.8,690.9 0.8,4.8 3.3,9.2 7.1,12.3 l 263.9,213 c 8.6,6.9 21.2,5.6 28.1,-3 7,-8.6 5.6,-21.2 -3,-28.2 l -257.9,-208.2 c -8.2,-48.6 -55.3,-327.1 -125.8,-684.5 -1.8,-9.5 -10.2,-16.1 -19.6,-16.1"
         style="fill:#3c5c82;fill-opacity:1;fill-rule:nonzero;stroke:none"
         id="path210" />
      <path
         d="m 17168.1,14200.5 c 25.9,-13.2 51.9,-29.5 77.1,-48.2 4.7,93.9 6.1,340.2 -106.6,325.2 -139.2,-18.5 -228.8,-151.2 -228.8,-151.2 0,0 -209.7,84 -274.5,-29 -64.7,-112.9 -64.7,-202.2 -64.7,-202.2 0,0 -219.2,-71.1 -135.8,-234.6 83.2,-163.5 277.7,-172.7 323.9,-243.7 35.7,-54.8 197.7,-172 274.9,-164.4 22.9,2.1 38.3,15.2 41,44 6.3,72.1 10,141.4 12.1,187.4 -69.4,24.1 -129.7,74.7 -121.2,133.6 9.4,66.1 113.1,68.9 160.9,66.5 -17.5,61.1 -33.3,149.5 2.6,198.7 25.5,34.9 35.7,79.2 39.1,117.9"
         style="fill:#233d56;fill-opacity:1;fill-rule:nonzero;stroke:none"
         id="path212" />
      <path
         d="m 20764.8,12379.9 c -8.9,10 -14,15.6 -14,15.6 0,0 -100.4,-57.3 -251.2,-139 73.4,-104.2 193.6,-289.5 295.8,-517.8 162.2,165.5 261.5,287.6 257.7,299 -2.9,8.6 -20.1,31.9 -45.1,62.7 -69.9,86.3 -200.3,232 -243.2,279.5"
         style="fill:#e4f4f8;fill-opacity:1;fill-rule:nonzero;stroke:none"
         id="path214" />
      <path
         d="m 17683.4,12712.7 -76.8,-94.6 c 8.8,-13.6 16.5,-27.4 22.6,-41 13.8,-30.8 22.3,-78.5 25.2,-139.2 56.4,-31.1 120.4,-66.3 189.2,-103.8 -36.9,142.1 -117.4,300.3 -160.2,378.6"
         style="fill:#e4f4f8;fill-opacity:1;fill-rule:nonzero;stroke:none"
         id="path216" />
      <path
         d="m 16974.2,13237.4 -64.4,-142.5 c 16.5,-7.4 45.4,-20.6 82.5,-38.6 12.7,52.6 21.6,106.4 27.9,158.8 l -46,22.3"
         style="fill:#e4f4f8;fill-opacity:1;fill-rule:nonzero;stroke:none"
         id="path218" />
      <path
         d="m 17486.9,12988.9 -466.7,226.2 c -6.3,-52.4 -15.2,-106.2 -27.9,-158.8 166.6,-80.4 498.3,-257.3 614.3,-438.2 l 76.8,94.6 39.3,48.4 66.4,81.4 -302.2,146.4"
         style="fill:#e4f4f8;fill-opacity:1;fill-rule:nonzero;stroke:none"
         id="path220" />
      <path
         d="m 15774.4,10186.2 c 108.1,-66 208.9,-114.1 404.4,-174.8 390.2,-121.1 1190.7,-130.7 1289.5,-13.4 98.6,117.3 -37,358 0,536.8 15.7,76.5 91.3,356.2 172.3,667.6 -78.8,40.8 -153.7,80.8 -222.5,118.9 -137.4,-332.3 -333.4,-628.6 -586.7,-743.3 -268.1,-121.5 -759.9,-287.8 -1057,-391.8"
         style="fill:#e4f4f8;fill-opacity:1;fill-rule:nonzero;stroke:none"
         id="path222" />
      <path
         d="m 17090.7,10801.3 v 0 l -211,94.4 -27.3,12.2 342.7,65 c 0,0 -29.8,-63.9 -104.4,-171.6"
         style="fill:#cccccc;fill-opacity:1;fill-rule:nonzero;stroke:none"
         id="path224" />
      <path
         d="m 15152.5,9346.6 c 15,126.6 30.1,242.7 45.4,342.9 16.7,109.3 47,226.9 86.2,347.2 131,227.4 301.8,471.5 477,664.2 l 421.8,80.1 669.5,126.9 27.3,-12.2 211,-94.4 v 0 c -20.6,-29.7 -44.6,-62.7 -72.3,-98.6 -58.4,-52.3 -120.8,-94.7 -187,-124.7 -268.1,-121.5 -759.9,-287.8 -1057,-391.8 108.1,-66 208.9,-114.1 404.4,-174.8 27.7,-8.6 57.4,-16.6 88.7,-24 -285.5,-210.9 -651.1,-432.8 -1115,-640.8"
         style="fill:#223a4d;fill-opacity:1;fill-rule:nonzero;stroke:none"
         id="path226" />
      <path
         d="m 16267.5,9987.4 c -31.3,7.4 -61,15.4 -88.7,24 -195.5,60.7 -296.3,108.8 -404.4,174.8 297.1,104 788.9,270.3 1057,391.8 66.2,30 128.6,72.4 187,124.7 -47.6,-61.7 -106.1,-131.9 -177.2,-208.5 -139.1,-149.8 -326.4,-324.2 -573.7,-506.8"
         style="fill:#b6c3c6;fill-opacity:1;fill-rule:nonzero;stroke:none"
         id="path228" />
      <path
         d="m 17719.8,12700.6 c 68.7,-272.6 464.8,-1855.7 585.9,-2602.1 5.8,-35.8 -14.7,-62.9 -42.9,-56.6 l -185.8,41.1 c -23.3,5.2 -43.5,31.7 -46.5,61.2 -27.6,272.1 -164.8,1556.2 -388.2,2546.5 -7.3,32.4 9.8,59 35.4,55.1 18.7,-2.8 36.1,-21.5 42.1,-45.2"
         style="fill:#ef6163;fill-opacity:1;fill-rule:nonzero;stroke:none"
         id="path230" />
      <path
         d="m 17086.7,13683.8 c -2.1,-46 -5.8,-115.3 -12.1,-187.4 -2.7,-28.8 -18.1,-41.9 -41,-44 0,-68.5 -3,-151.2 -13.4,-237.3 l 466.7,-226.2 c -14.6,26.7 -28.2,54.2 -40.6,82.3 -40.6,91.5 -70.1,188.1 -91.3,273.5 -19.2,77.9 -31.4,146.4 -38.6,193.8 3.6,0.1 7.4,0.5 11.2,0.7 h 1.1 c 13.4,1.1 27.4,2.2 41.7,3.4 l 0.9,0.2 h 0.7 c 90.1,8.7 192.1,25 225.9,55.5 52.5,47.6 -131.3,390.9 -352.7,554 -25.2,18.7 -51.2,35 -77.1,48.2 -3.4,-38.7 -13.6,-83 -39.1,-117.9 -35.9,-49.2 -20.1,-137.6 -2.6,-198.7 -47.8,2.4 -151.5,-0.4 -160.9,-66.5 -8.5,-58.9 51.8,-109.5 121.2,-133.6"
         style="fill:#e8b691;fill-opacity:1;fill-rule:nonzero;stroke:none"
         id="path232" />
      <path
         d="m 20914.3,12490.7 -149.5,-110.8 c 42.9,-47.5 173.3,-193.2 243.2,-279.5 l 140.8,167.1 c 194.8,68.9 345.6,167.1 440.6,257.7 164.8,157.4 155.9,316.2 106.4,370.2 -97.6,106.5 -541,-65.9 -541,-65.9 0,0 21,307.4 -76.4,307.4 -45,0 -61.4,-151.1 -108.6,-380.9 -16.9,-82 -55.5,-265.3 -55.5,-265.3"
         style="fill:#e8b691;fill-opacity:1;fill-rule:nonzero;stroke:none"
         id="path234" />
      <path
         d="m 15611,11583.7 c 455.8,93.9 925.7,1258.8 1283.4,1518 0,0 5.5,-2.4 15.4,-6.8 16.5,-7.4 45.4,-20.6 82.5,-38.6 166.6,-80.4 498.3,-257.3 614.3,-438.2 8.8,-13.6 16.5,-27.4 22.6,-41 13.8,-30.8 22.3,-78.5 25.2,-139.2 56.4,-31.1 120.4,-66.3 189.2,-103.8 31.2,-17.1 63.3,-34.3 96.1,-52 37.5,-20.3 76.3,-41.2 115.6,-62 443.7,-236.4 981.5,-504.4 1152.9,-513.3 220.4,-11.6 913.7,345.3 1291.4,549.7 73.4,-104.2 193.6,-289.5 295.8,-517.8 -364.5,-371.6 -1046.9,-962.8 -1593.3,-1014.5 -257.2,-24.4 -584.4,58.9 -908.4,182.4 -104.8,39.9 -209.4,84.1 -311.1,129.9 -119,53.9 -234.3,110.4 -342,165.9 -78.8,40.8 -153.7,80.8 -222.5,118.9 -137.4,-332.3 -333.3,-628.6 -586.7,-743.3 -268.1,-121.5 -524.8,-256.3 -861.6,-398 -403,-169.5 -600.2,-337.2 -1112.7,-559.7 0,0 -1113.1,627.1 -1112.7,1449.8 0.1,177.7 1087,353 1866.6,513.6"
         style="fill:#3c5c82;fill-opacity:1;fill-rule:nonzero;stroke:none"
         id="path236" />
      <path
         d="m 17138.2,13570.5 c 0,0 89.9,-160 216.8,-225.8 -19.2,77.9 -31.4,146.4 -38.6,193.8 3.6,0.1 7.4,0.5 11.2,0.7 -36.6,0.2 -98.2,6 -189.4,31.3"
         style="fill:#846652;fill-opacity:1;fill-rule:nonzero;stroke:none"
         id="path238" />
      <path
         d="m 17381.8,11319.4 c -3.3,0 -6.6,0.8 -9.6,2.5 -268.5,148.1 -452.9,267.6 -454.8,268.8 -9.2,6 -11.9,18.4 -5.8,27.6 6,9.3 18.4,11.9 27.6,5.9 1.8,-1.2 185.1,-119.9 452.3,-267.3 9.7,-5.3 13.2,-17.5 7.8,-27.2 -3.6,-6.6 -10.5,-10.3 -17.5,-10.3"
         style="fill:#233d56;fill-opacity:1;fill-rule:nonzero;stroke:none"
         id="path240" />
      <path
         d="m 17640.6,12425.6 c -4.1,0 -8.2,1.2 -11.7,3.8 -497.3,361.7 -871.3,283.3 -875,282.5 -10.8,-2.3 -21.5,4.3 -23.9,15.1 -2.5,10.8 4.3,21.4 15,23.9 15.9,3.6 394.2,84.1 907.4,-289.1 8.9,-6.5 10.9,-19 4.4,-28 -3.9,-5.3 -10,-8.2 -16.2,-8.2"
         style="fill:#233d56;fill-opacity:1;fill-rule:nonzero;stroke:none"
         id="path242" />
      <path
         d="m 31619.1,3569.7 c -6.2,0 -12.5,0.5 -18.9,1.8 -54.2,10.3 -89.8,62.7 -79.4,116.9 l 2107.3,11041 c 10.3,54.2 62.6,89.8 116.9,79.5 54.3,-10.4 89.9,-62.8 79.5,-117 l -2107.3,-11041 c -9.1,-47.9 -51.1,-81.2 -98.1,-81.2"
         style="fill:#2b4860;fill-opacity:1;fill-rule:nonzero;stroke:none"
         id="path244" />
      <path
         d="m 34206.6,3569.7 c -6.2,0 -12.5,0.5 -18.9,1.8 -54.2,10.3 -89.8,62.7 -79.5,116.9 l 2107.3,11041 c 10.4,54.2 62.7,89.8 117,79.5 54.3,-10.4 89.9,-62.8 79.5,-117 l -2107.3,-11041 c -9.2,-47.9 -51.1,-81.2 -98.1,-81.2"
         style="fill:#2b4860;fill-opacity:1;fill-rule:nonzero;stroke:none"
         id="path246" />
      <path
         d="m 36042.8,13191.1 h -2587.4 c -55.3,0 -100,44.8 -100,100 0,55.2 44.7,100 100,100 h 2587.4 c 55.3,0 100,-44.8 100,-100 0,-55.2 -44.7,-100 -100,-100"
         style="fill:#2b4860;fill-opacity:1;fill-rule:nonzero;stroke:none"
         id="path248" />
      <path
         d="m 35571.7,10731.2 h -2587.5 c -55.2,0 -100,44.7 -100,100 0,55.2 44.8,100 100,100 h 2587.5 c 55.3,0 100,-44.8 100,-100 0,-55.3 -44.7,-100 -100,-100"
         style="fill:#2b4860;fill-opacity:1;fill-rule:nonzero;stroke:none"
         id="path250" />
      <path
         d="M 35098.5,8271.2 H 32511 c -55.2,0 -100,44.8 -100,100 0,55.3 44.8,100 100,100 h 2587.5 c 55.2,0 100,-44.7 100,-100 0,-55.2 -44.8,-100 -100,-100"
         style="fill:#2b4860;fill-opacity:1;fill-rule:nonzero;stroke:none"
         id="path252" />
      <path
         d="m 34632.2,5811.3 h -2587.5 c -55.2,0 -100,44.8 -100,100 0,55.2 44.8,100 100,100 h 2587.5 c 55.2,0 100,-44.8 100,-100 0,-55.2 -44.8,-100 -100,-100"
         style="fill:#2b4860;fill-opacity:1;fill-rule:nonzero;stroke:none"
         id="path254" />
      <path
         d="m 38445.8,3569.7 c -47,0 -89,33.3 -98.1,81.2 l -2107.3,11041 c -10.4,54.2 25.2,106.6 79.5,117 54.3,10.3 106.6,-25.3 116.9,-79.5 l 2107.4,-11041 c 10.3,-54.2 -25.3,-106.6 -79.5,-116.9 -6.4,-1.3 -12.7,-1.8 -18.9,-1.8"
         style="fill:#40647c;fill-opacity:1;fill-rule:nonzero;stroke:none"
         id="path256" />
      <path
         d="m 35858.3,3569.7 c -47,0 -89,33.3 -98.1,81.2 l -2107.3,11041 c -10.4,54.2 25.2,106.6 79.5,117 54.3,10.3 106.6,-25.3 116.9,-79.5 l 2107.4,-11041 c 10.3,-54.2 -25.3,-106.6 -79.5,-116.9 -6.4,-1.3 -12.7,-1.8 -18.9,-1.8"
         style="fill:#40647c;fill-opacity:1;fill-rule:nonzero;stroke:none"
         id="path258" />
      <path
         d="m 36609.5,13191.1 h -2587.4 c -55.3,0 -100,44.8 -100,100 0,55.2 44.7,100 100,100 h 2587.4 c 55.3,0 100,-44.8 100,-100 0,-55.2 -44.7,-100 -100,-100"
         style="fill:#40647c;fill-opacity:1;fill-rule:nonzero;stroke:none"
         id="path260" />
      <path
         d="m 37080.7,10731.2 h -2587.5 c -55.3,0 -100,44.7 -100,100 0,55.2 44.7,100 100,100 h 2587.5 c 55.2,0 100,-44.8 100,-100 0,-55.3 -44.8,-100 -100,-100"
         style="fill:#40647c;fill-opacity:1;fill-rule:nonzero;stroke:none"
         id="path262" />
      <path
         d="m 37553.9,8271.2 h -2587.5 c -55.2,0 -100,44.8 -100,100 0,55.3 44.8,100 100,100 h 2587.5 c 55.2,0 100,-44.7 100,-100 0,-55.2 -44.8,-100 -100,-100"
         style="fill:#40647c;fill-opacity:1;fill-rule:nonzero;stroke:none"
         id="path264" />
      <path
         d="m 38020.2,5811.3 h -2587.5 c -55.2,0 -100,44.8 -100,100 0,55.2 44.8,100 100,100 h 2587.5 c 55.2,0 100,-44.8 100,-100 0,-55.2 -44.8,-100 -100,-100"
         style="fill:#40647c;fill-opacity:1;fill-rule:nonzero;stroke:none"
         id="path266" />
      <path
         d="m 34704.1,13784.3 c 91.7,-94.2 160,-220.3 135.8,-278.4 -33.2,-79.2 -173.1,-135.8 -299.7,-202 -126.6,-66.3 -177,-215 -346.3,-272.9 -169.4,-57.7 -503.4,-138.5 -536.8,-64.4 -33.6,74.1 21.8,102.9 192.3,272.9 86.2,86 174.3,197.1 240,285.8 94.4,-54.2 296.2,-88.2 614.7,259"
         style="fill:#293a4c;fill-opacity:1;fill-rule:nonzero;stroke:none"
         id="path268" />
      <path
         d="m 37994.6,14663.6 c 17.1,-70.1 -4.1,-258.3 -29.8,-367.7 -25.6,-109.5 14.4,-288.6 -76.4,-473.7 -90.8,-184.9 -303.4,-387.9 -403.9,-363 -100.4,25 -16.6,400.6 1.4,515.5 9.5,61.3 0.3,170.7 -10.4,259.3 74.7,53.6 323,244.8 432.4,488.9 45.4,-13.4 80.2,-32.9 86.7,-59.3"
         style="fill:#293a4c;fill-opacity:1;fill-rule:nonzero;stroke:none"
         id="path270" />
      <path
         d="m 37949.2,14846.3 c -9.1,-42.3 -23.3,-83.6 -41.3,-123.4 -109.4,-244.1 -357.7,-435.3 -432.4,-488.9 -13.8,-9.9 -21.6,-15.1 -21.6,-15.1 -180.4,377.4 -1739.7,1676.3 -1894.5,2035.5 -102,236.2 -386.7,1195.8 -569.8,1825.1 -270.2,-456 -689.7,-1191.9 -861.3,-1641.2 74.3,-186.8 221.8,-571.4 281,-825.9 47.7,-204.9 95.4,-434.4 137.2,-643.1 60.3,-303.4 108.1,-562.8 124.2,-638.6 50.3,-236.4 128.2,-435.8 128.2,-435.8 -32.6,-40.6 -64.2,-77.4 -94.8,-110.6 -318.5,-347.2 -520.3,-313.2 -614.7,-259 -41.9,24.1 -62.6,52.1 -62.6,52.1 9.4,259.3 -926.4,2396 -997.8,2887.5 -71.2,491.4 917.4,2748.7 961.2,2836.1 47.2,94.2 274.4,869.4 274.4,869.4 l 1777.9,159.1 c 0,0 184.1,-726.4 237.1,-1089.4 45.7,-313.9 37.8,-1670.4 163.9,-2464.7 166.8,-172.4 506.4,-529 604.4,-677.1 131.6,-198.9 901.3,-1252 901.3,-1252"
         style="fill:#375c70;fill-opacity:1;fill-rule:nonzero;stroke:none"
         id="path272" />
      <path
         d="m 34409.3,15612.4 c 47.7,-204.9 95.4,-434.4 137.2,-643.1 -143.6,339.8 -435.8,1020.1 -593.6,1314.2 -181.7,338.5 928.7,2107 928.7,2107 l 108,-311 c -270.2,-456 -689.7,-1191.9 -861.3,-1641.2 74.3,-186.8 221.8,-571.4 281,-825.9"
         style="fill:#314f60;fill-opacity:1;fill-rule:nonzero;stroke:none"
         id="path274" />
      <path
         d="m 34989.6,18062 c -7.6,0 -14.6,5 -16.8,12.6 -86.2,296.3 -150.6,522 -161.4,560.2 l -251.5,188.1 c -7.8,5.8 -9.3,16.8 -3.6,24.5 5.8,7.8 16.8,9.3 24.5,3.5 l 256.3,-191.6 c 3.1,-2.3 5.3,-5.6 6.3,-9.2 0.7,-2.4 68.7,-241.9 163,-565.7 2.7,-9.3 -2.6,-19 -11.9,-21.7 -1.6,-0.5 -3.3,-0.7 -4.9,-0.7"
         style="fill:#233d56;fill-opacity:1;fill-rule:nonzero;stroke:none"
         id="path276" />
      <path
         d="m 34225.3,23584.7 c 9.9,-42.3 25.1,-105.8 43.3,-171.6 7.4,-26.2 23.9,-35.7 45.5,-33.8 11.7,-63.5 96.2,-221 120.5,-299 l -461.2,-208 c 9,27.2 16.9,55.1 23.5,83.2 21.9,91.8 32.8,186.3 37.8,269.1 4.5,75.5 4,141 2.6,186.1 -3.3,-0.4 -6.9,-0.8 -10.5,-1.3 l -1,-0.1 c -12.6,-1.3 -25.7,-2.7 -39.2,-4 h -0.9 l -0.7,-0.1 c -84.9,-7.3 -182.3,-9.7 -218.7,12.7 -56.9,35.2 54.7,384.8 232,573.8 20.1,21.6 41.4,41.2 63.1,57.9 9.8,-35.4 26.8,-74.6 56.5,-102.7 41.6,-39.3 42.2,-124 36.3,-183.6 44,10.4 140.5,25.6 160.6,-34.1 17.9,-53.1 -29.3,-110.3 -89.5,-144.5"
         style="fill:#e8b691;fill-opacity:1;fill-rule:nonzero;stroke:none"
         id="path278" />
      <path
         d="m 30772.7,22516.5 140.9,-104.4 c -40.5,-44.7 -163.3,-182 -229.2,-263.3 l -132.7,157.4 c -183.6,64.9 -325.6,157.4 -415.2,242.9 -155.3,148.2 -146.8,297.9 -100.2,348.8 92,100.3 509.8,-62.2 509.8,-62.2 0,0 -19.8,289.7 72,289.7 42.3,0 57.8,-142.4 102.3,-358.9 15.9,-77.3 52.3,-250 52.3,-250"
         style="fill:#e8b691;fill-opacity:1;fill-rule:nonzero;stroke:none"
         id="path280" />
      <path
         d="m 34546.1,23728.8 c 0,0 2.3,-45.1 2.3,-101.4 0,-56.5 -180.8,-261 -231.4,-261 -1.2,4.7 -32.4,0 -48.4,46.7 -22.2,64.5 -33.5,129.3 -43.3,171.6 60.2,34.3 107.4,91.4 89.4,144.5 -20,59.7 -116.6,44.5 -160.4,34.1 5.7,59.6 5.3,144.3 -36.5,183.6 -29.6,28.1 -46.6,67.3 -56.4,102.7 -7.1,-5.4 -14,-11.1 -20.9,-17.1 -8.1,55.4 -26,199.7 3.5,240.4 l 81.7,-107.1 26.7,101.8 c 0,0 379.5,-285 393.7,-380.9 14.1,-95.9 0,-157.9 0,-157.9"
         style="fill:#846652;fill-opacity:1;fill-rule:nonzero;stroke:none"
         id="path282" />
      <path
         d="m 30913.6,22412.1 c 8.4,9.4 13.1,14.7 13.1,14.7 0,0 94.7,-53.9 236.8,-131 -69.2,-98.2 -182.4,-272.7 -278.8,-487.9 -152.8,155.9 -246.4,271 -242.8,281.8 2.7,8 18.9,30 42.5,59.1 65.9,81.3 188.7,218.6 229.2,263.3"
         style="fill:#e4f4f8;fill-opacity:1;fill-rule:nonzero;stroke:none"
         id="path284" />
      <path
         d="m 33817.2,22725.7 72.4,-89.1 c -8.4,-12.9 -15.6,-25.8 -21.4,-38.7 -13,-29 -21,-73.9 -23.7,-131.1 -53.1,-29.4 -113.4,-62.5 -178.3,-97.9 34.8,133.9 110.7,283 151,356.8"
         style="fill:#e4f4f8;fill-opacity:1;fill-rule:nonzero;stroke:none"
         id="path286" />
      <path
         d="m 34485.5,23220.1 60.6,-134.2 c -15.6,-7 -42.7,-19.5 -77.7,-36.4 -12,49.5 -20.3,100.3 -26.3,149.6 l 43.4,21"
         style="fill:#e4f4f8;fill-opacity:1;fill-rule:nonzero;stroke:none"
         id="path288" />
      <path
         d="m 34002.3,22986 439.8,213.1 c 6,-49.3 14.3,-100.1 26.3,-149.6 -157,-75.8 -469.5,-242.5 -578.8,-412.9 l -72.4,89.1 -37.1,45.6 -62.5,76.7 284.7,138"
         style="fill:#e4f4f8;fill-opacity:1;fill-rule:nonzero;stroke:none"
         id="path290" />
      <path
         d="m 35616,20345 c -101.8,-62.2 -196.8,-107.5 -381.1,-164.7 -367.7,-114.1 -1121.9,-123.2 -1215,-12.7 -92.9,110.5 34.8,337.3 0,505.9 -14.9,72.1 -86.1,335.6 -162.4,629 74.3,38.5 144.8,76.2 209.7,112.1 129.5,-313.1 314.1,-592.3 552.8,-700.4 252.6,-114.5 716.1,-271.2 996,-369.2"
         style="fill:#e4f4f8;fill-opacity:1;fill-rule:nonzero;stroke:none"
         id="path292" />
      <path
         d="m 36236,19485.9 c -14.7,74.1 -31.2,151.9 -48.2,229.2 19.5,-78.7 40.4,-163.6 48.2,-229.2 m -85.9,396.5 c -40.7,176.6 -78.7,331.2 -96.7,403.6 36.9,-113.3 80.9,-300.5 96.7,-403.6 m -650.2,398.5 c 41.1,20 78.1,40.9 116.1,64.1 -279.9,98 -743.4,254.7 -996,369.2 -62.4,28.2 -121.1,68.2 -176.2,117.4 -26.1,33.9 -48.7,65 -68.1,93 -70.3,101.5 -98.4,161.7 -98.4,161.7 l 322.9,-61.2 630.9,-119.6 397.4,-75.5 c 154.1,-169.4 283,-309.7 399.9,-501.8 l -528.5,-47.3"
         style="fill:#cccccc;fill-opacity:1;fill-rule:nonzero;stroke:none"
         id="path294" />
      <path
         d="m 36236,19485.9 c -454.8,203.8 -819.8,443 -1102.8,667.5 36.3,8.2 70.4,17.2 101.7,26.9 115.5,35.8 196,67 265,100.6 l 528.5,47.3 c 8.4,-13.7 16.7,-27.8 24.9,-42.1 0,-0.1 0.1,-0.1 0.1,-0.1 18,-72.4 56,-227 96.7,-403.6 v 0 c 6.5,-42.5 21.6,-102.9 37.7,-167.3 17,-77.3 33.5,-155.1 48.2,-229.2 v 0"
         style="fill:#2c4a5a;fill-opacity:1;fill-rule:nonzero;stroke:none"
         id="path296" />
      <path
         d="m 35133.2,20153.4 c -224.6,178.2 -397.5,347.2 -522.4,481.8 -67,72.2 -122.1,138.3 -167,196.4 55.1,-49.2 113.8,-89.2 176.2,-117.4 252.6,-114.5 716.1,-271.2 996,-369.2 -38,-23.2 -75,-44.1 -116.1,-64.1 -69,-33.6 -149.5,-64.8 -265,-100.6 -31.3,-9.7 -65.4,-18.7 -101.7,-26.9"
         style="fill:#b6c3c6;fill-opacity:1;fill-rule:nonzero;stroke:none"
         id="path298" />
      <path
         d="m 33782.9,22714.3 c -64.7,-256.9 -438,-1748.7 -552.1,-2452 -5.5,-33.7 13.8,-59.2 40.4,-53.3 l 175.1,38.8 c 22,4.8 40.9,29.8 43.8,57.6 26,256.4 155.3,1466.4 365.8,2399.6 6.9,30.6 -9.3,55.6 -33.3,51.9 -17.7,-2.7 -34.1,-20.3 -39.7,-42.6"
         style="fill:#ef6163;fill-opacity:1;fill-rule:nonzero;stroke:none"
         id="path300" />
      <path
         d="m 35770,21661.9 c -429.5,88.4 -872.3,1186.1 -1209.4,1430.3 0,0 -5.1,-2.2 -14.5,-6.3 -15.6,-7 -42.7,-19.5 -77.7,-36.4 -157,-75.8 -469.5,-242.5 -578.8,-412.9 -8.4,-12.9 -15.6,-25.8 -21.4,-38.7 -13,-29 -21,-73.9 -23.7,-131.1 -53.1,-29.4 -113.4,-62.5 -178.3,-97.9 -29.4,-16 -59.6,-32.3 -90.5,-49 -35.4,-19.1 -71.9,-38.8 -109,-58.4 -418.1,-222.7 -924.8,-475.3 -1086.4,-483.7 -207.7,-10.9 -860.9,325.4 -1216.8,518 -69.2,-98.2 -182.4,-272.7 -278.8,-487.9 343.5,-350.1 986.5,-907.2 1501.4,-955.9 242.4,-23.1 550.6,55.5 856,171.8 98.7,37.6 197.3,79.2 293.1,122.4 112.2,50.8 220.8,104.1 322.3,156.3 74.3,38.4 144.8,76.2 209.7,112.1 129.5,-313.1 314.1,-592.3 552.8,-700.4 252.6,-114.5 494.5,-241.5 811.9,-375.1 379.7,-159.7 565.5,-317.7 1048.5,-527.4 0,0 1048.8,591 1048.5,1366.2 -0.1,167.4 -1024.3,332.7 -1758.9,484"
         style="fill:#6a91a0;fill-opacity:1;fill-rule:nonzero;stroke:none"
         id="path302" />
      <path
         d="m 34101.4,21411.6 c -7.1,0 -13.9,3.8 -17.6,10.4 -5.3,9.6 -1.8,21.8 7.9,27.1 251.7,138.9 424.4,250.8 426.1,251.9 9.2,6 21.6,3.4 27.6,-5.9 6.1,-9.2 3.4,-21.6 -5.8,-27.6 -1.8,-1.2 -175.6,-113.7 -428.6,-253.4 -3,-1.7 -6.4,-2.5 -9.6,-2.5"
         style="fill:#233d56;fill-opacity:1;fill-rule:nonzero;stroke:none"
         id="path304" />
      <path
         d="m 33857.5,22454 c -6.2,0 -12.3,2.9 -16.2,8.3 -6.5,8.9 -4.5,21.4 4.4,27.9 484,352 841,276 856,272.6 10.7,-2.4 17.5,-13.1 15,-23.9 -2.4,-10.8 -13.1,-17.5 -23.9,-15.1 -4.3,1 -356,74.1 -823.6,-266 -3.5,-2.5 -7.6,-3.8 -11.7,-3.8"
         style="fill:#233d56;fill-opacity:1;fill-rule:nonzero;stroke:none"
         id="path306" />
      <path
         d="m 33543.1,3324.4 c 0,-163.7 -1200.6,-296.4 -2681.6,-296.4 -1481,0 -2681.6,132.7 -2681.6,296.4 0,163.7 1200.6,296.4 2681.6,296.4 1481,0 2681.6,-132.7 2681.6,-296.4"
         style="fill:#c1c1c1;fill-opacity:1;fill-rule:nonzero;stroke:none"
         id="path308" />
      <path
         d="m 33416.2,6382.5 c 17.2,-6.2 1.4,-145.9 -2.2,-175 -1.7,-13.7 -13.3,-23.7 -26.6,-20.1 l -210.2,57.7 c 26.9,-69.9 201.1,-222.4 212.6,-296.4 49.3,-315.9 -53.5,-678.5 -168.7,-664.2 -35.8,4.6 -50.1,132.6 -92,298.3 39.7,149.3 35.8,429.2 -147.2,949.9 189.9,10.6 207.2,-68.3 434.3,-150.2"
         style="fill:#2b4860;fill-opacity:1;fill-rule:nonzero;stroke:none"
         id="path310" />
      <path
         d="m 33129.1,5582.8 c -48.5,192.6 -134.2,436.2 -334.1,595.8 -24.3,19.3 -172.4,31 -356.3,37.8 -61.7,2.3 -127.2,4.1 -193.7,5.5 36.8,141.5 62.1,279.9 79.2,394.9 25.2,-6 50.3,-11.9 75.1,-17.6 216.3,-50.2 412.8,-89.8 462.6,-81.2 46.8,8 86.1,12.9 119.9,14.7 h 0.1 c 183,-520.7 186.9,-800.7 147.2,-949.9"
         style="fill:#846652;fill-opacity:1;fill-rule:nonzero;stroke:none"
         id="path312" />
      <path
         d="m 32438.7,6216.4 c -61.7,2.3 -127.2,4.1 -193.7,5.5 36.8,141.5 62.1,279.9 79.2,394.9 25.2,-6 50.3,-11.9 75.1,-17.6 36.1,-129.7 40.7,-287.9 39.4,-382.8"
         style="fill:#6d5141;fill-opacity:1;fill-rule:nonzero;stroke:none"
         id="path314" />
      <path
         d="m 30445.1,3759 c 48,-149.5 -1.5,-198 -14.7,-422 -1.1,-18.3 -139.5,-42.8 -168.3,-47.6 -13.7,-2.3 -26.6,5.9 -26.9,19.8 l -4.5,229.5 c -59.5,-45.6 -153,-274.6 -223.7,-299.5 -207,-73.4 -665.8,-141.1 -684.7,-26.7 -6.6,39.8 130,78.3 294.5,176.6 l 0.2,0.1 c 145.1,-1.4 399.2,69.3 828.1,369.8"
         style="fill:#2b4860;fill-opacity:1;fill-rule:nonzero;stroke:none"
         id="path316" />
      <path
         d="m 30445.2,3759 c -428.9,-300.6 -683.1,-371.2 -828.2,-369.8 154.4,92.4 333.2,237.3 441.6,485.6 16.4,37.6 -41.9,277.5 -110.5,528.9 -23.4,85.2 -47.8,171.7 -71,252.1 133.5,34.3 282.6,77.1 447.3,129.7 1.3,-61.3 2.9,-128.8 4.9,-198.2 8.5,-293.2 24.5,-622 53.8,-681.8 29.3,-59.6 49.2,-106.7 62.1,-146.5"
         style="fill:#846652;fill-opacity:1;fill-rule:nonzero;stroke:none"
         id="path318" />
      <path
         d="m 30324.4,4785.5 c 1.3,-61.3 2.9,-128.8 4.9,-198.2 -100.6,-87 -266.9,-148.7 -381.2,-183.6 -23.4,85.2 -47.8,171.7 -71,252.1 133.5,34.3 282.6,77.1 447.3,129.7"
         style="fill:#6d5141;fill-opacity:1;fill-rule:nonzero;stroke:none"
         id="path320" />
      <path
         d="m 31142,9543.5 c 44.2,-269.9 -118.4,-1846.2 -144.2,-2538.6 245.2,-55.2 928.1,-209.2 1338,-304.4 -3.4,-26 -7.2,-54.1 -11.6,-83.8 -17.1,-114.9 -42.5,-253.3 -79.2,-394.8 -8.8,-33.8 -18.2,-67.8 -28.4,-101.7 -343.3,-51.3 -1522.2,-220.2 -1913.6,-179.9 28.4,-238.3 76.9,-675.4 107.4,-1126.8 -29.1,-9.6 -57.8,-18.9 -86,-28 -164.8,-52.7 -313.9,-95.3 -447.3,-129.7 -89,-23 -171,-42.4 -246.2,-58.7 -232.6,735.9 -562.5,1885.1 -614.8,2415.7 -54.6,555.4 -158.8,1652.6 -113.4,2300.7 12.7,182.1 210.6,879.3 303.7,1081.4 0,0 645.3,90.9 1607.8,195 90.4,-157.4 281.4,-640 327.8,-1046.4"
         style="fill:#87b5cc;fill-opacity:1;fill-rule:nonzero;stroke:none"
         id="path322" />
      <path
         d="m 30303,5920.3 -2.1,0.1 c -81.3,8.3 -124.3,24.3 -139.6,51.9 -326,585.7 -371.6,2722.7 -374.8,2899.8 l -159.1,146.2 c -8.1,7.5 -8.6,20.1 -1.2,28.3 7.5,8.1 20.2,8.6 28.3,1.1 l 165.3,-152 c 4.1,-3.7 6.4,-8.9 6.5,-14.4 0.4,-22.9 41.9,-2300.2 370,-2889.6 2,-3.6 16.6,-22.1 108.7,-31.5 11,-1.2 19,-11 17.9,-22 -1.1,-10.3 -9.8,-17.9 -19.9,-17.9"
         style="fill:#233d56;fill-opacity:1;fill-rule:nonzero;stroke:none"
         id="path324" />
      <path
         d="m 30339.8,10183.5 c -65.5,-21.3 -129.3,-38.8 -191.1,-52.7 -435.9,-99.2 -776,-30 -945,36.9 -62.4,24.7 -101.5,49.1 -113.5,64.6 -55,71.6 5.5,148.6 38,244.4 10.8,31.7 14.4,92.5 14.4,159.3 160.6,101 333.2,242.6 496.5,391.9 64,58.2 126.4,117.9 186.2,176.5 47.2,-141.4 113.8,-317.9 202.6,-502 83.5,-173.8 187,-354.3 311.9,-518.9"
         style="fill:#e4f4f8;fill-opacity:1;fill-rule:nonzero;stroke:none"
         id="path326" />
      <path
         d="m 29696.7,12578.7 c -17.5,-76.5 -32,-157.1 -41.6,-241 -147.7,-166.5 -342,-401 -526.1,-602.1 8.7,334.2 90.8,686.3 180.9,977.4 40,-71 96.6,-139.3 171,-158.6 70.4,-18.1 148.5,-1.6 215.8,24.3"
         style="fill:#e4f4f8;fill-opacity:1;fill-rule:nonzero;stroke:none"
         id="path328" />
      <path
         d="m 27734.9,11271 c -42.1,-283.2 29.1,-578.5 57.8,-681.1 -122.8,27.1 -243.4,56.4 -355.1,85.3 -19.7,120.9 -44.8,348.7 -4.8,572.9 96.9,7.4 199.4,15.2 302.1,22.9"
         style="fill:#98c0d9;fill-opacity:1;fill-rule:nonzero;stroke:none"
         id="path330" />
      <path
         d="m 31148.7,9321.4 c 0.6,28.5 0.9,55.2 0.9,79.6 1.9,-37.7 1.9,-65.8 -0.9,-79.6 m -22.2,331.3 c -63.9,379.9 -229.8,793.7 -312.3,937.2 -253.2,-27.4 -484.3,-53.9 -687.6,-78 -35.6,63.7 -68.5,127.5 -98.7,190.5 l 880.6,95.8 158.7,-681.4 c 0,0 34.6,-244.6 59.3,-464.1"
         style="fill:#b1b9be;fill-opacity:1;fill-rule:nonzero;stroke:none"
         id="path332" />
      <path
         d="m 31148.7,9321.4 c -507,226.6 -749.7,511.2 -1000,809.4 v 0 0 c 61.8,13.9 125.6,31.4 191.1,52.7 -79.7,104.9 -150.6,216.4 -213.2,328.4 203.3,24.1 434.4,50.6 687.6,78 82.5,-143.5 248.4,-557.3 312.3,-937.2 10.8,-96.4 19.8,-187.8 23.1,-251.7 0,-24.4 -0.3,-51.1 -0.9,-79.6 v 0"
         style="fill:#6c91a3;fill-opacity:1;fill-rule:nonzero;stroke:none"
         id="path334" />
      <path
         d="m 30148.7,10130.8 c -161.3,192.1 -278,381.5 -361.4,545.4 -71.6,141 -118.6,263 -148.2,351.7 64,58.2 126.4,117.9 186.2,176.5 47.2,-141.4 113.8,-317.9 202.6,-502 v 0 c 30.2,-63 63.1,-126.8 98.7,-190.5 62.6,-112 133.5,-223.5 213.2,-328.4 -65.5,-21.3 -129.3,-38.8 -191.1,-52.7 v 0"
         style="fill:#b6c3c6;fill-opacity:1;fill-rule:nonzero;stroke:none"
         id="path336" />
      <path
         d="m 29491.5,13216.7 c -48.6,-117.5 -117.2,-294.9 -181.6,-503.7 -90,-291.1 -172.2,-643.1 -180.9,-977.4 -75.2,-81.9 -148.6,-158.5 -216.5,-222.6 -32.7,162 -82.9,439.6 -75.4,578 1.4,25.5 7.7,106.2 12.3,133.3 18.2,105.7 40,337.2 312.7,788.7 39.3,65 99.4,114.9 170.5,141.8 68.4,25.9 146.5,55.7 158.9,61.9"
         style="fill:#3c5c82;fill-opacity:1;fill-rule:nonzero;stroke:none"
         id="path338" />
      <path
         d="m 30339.8,10183.5 c -257.5,338.7 -422.7,745.8 -514.5,1020.9 -212.5,-208.8 -459.2,-428 -682.7,-568.4 -110,-69.1 -214.4,-119.2 -306.3,-139.5 -239.3,-53.1 -653.5,8 -1043.6,93.4 -28.7,102.6 -99.9,397.9 -57.8,681.1 391.6,29.1 785.8,56.4 893.2,56.4 64.5,0 166.1,74.1 284.4,185.6 67.9,64.2 141.3,140.6 216.5,222.6 184.1,201.1 378.4,435.6 526.1,602.1 9.6,83.9 24.1,164.5 41.6,241 59,258.6 152.5,468.6 210.7,583.8 8.3,-29.6 19.9,-54.9 35.8,-74.3 77.4,-95.1 258.6,-199.2 403.4,-316.7 81.6,-65.9 151.6,-136.2 185.2,-211.6 93.6,-209 99.1,-918.9 302.8,-1078.4 176.8,-138.7 1010.7,-655.8 1330.6,-929.6 -642,-803.2 -1176.6,-897.3 -1176.6,-897.3 -261.7,105 -476,301.5 -648.8,528.9"
         style="fill:#3c5c82;fill-opacity:1;fill-rule:nonzero;stroke:none"
         id="path340" />
      <path
         d="m 29918.6,13613.6 c -22.3,-127.2 -46.9,-326 -11.2,-451.1 -58.2,-115.2 -151.7,-325.2 -210.7,-583.8 -67.3,-25.9 -145.4,-42.4 -215.8,-24.3 -74.4,19.3 -131,87.6 -171,158.6 64.5,208.8 133,386.2 181.6,503.7 86.7,42.6 143.9,122.5 180.7,198.8 21.9,45.2 36.6,89.4 46.3,123.8 -84.6,-9.1 -253,-23 -281.6,5.6 -33.9,34 91,498.4 329.7,643.5 8.5,-107.1 29.5,-249.4 80.4,-366.7 38.1,27 100.4,60.3 140.1,25.8 50.4,-43.3 22.8,-200.7 -68.5,-233.9"
         style="fill:#846652;fill-opacity:1;fill-rule:nonzero;stroke:none"
         id="path342" />
      <path
         d="m 27432.8,11248.1 c -40,-224.2 -14.9,-452 4.8,-572.9 -342.5,88.8 -603.4,173.5 -603.4,173.5 0,0 -467.8,-214.7 -632.8,-115.6 -165,99.1 321,467.8 321,467.8 0,0 -244.1,165 -183.4,242.1 60.4,76.9 495.2,-242.1 495.2,-242.1 0,0 268,21.6 598.6,47.2"
         style="fill:#846652;fill-opacity:1;fill-rule:nonzero;stroke:none"
         id="path344" />
      <path
         d="m 29824,13564.5 c 0,0 -26.2,-97.1 -151.8,-149 21.9,45.2 36.6,89.4 46.3,123.8 l 105.5,25.2"
         style="fill:#60473a;fill-opacity:1;fill-rule:nonzero;stroke:none"
         id="path346" />
      <path
         d="m 29907.4,13162.5 c -35.7,125.1 -11.1,323.9 11.2,451.1 91.3,33.2 118.9,190.6 68.5,233.9 -39.7,34.5 -102,1.2 -140.1,-25.8 -50.9,117.3 -72,259.6 -80.4,366.7 31.2,18.9 64.4,32.5 99.4,38.8 302.6,55.1 451.3,-121 467.8,-286.1 16.5,-165 194.2,-349.6 462.2,-511.7 367.5,-222.1 -34.8,-623.6 -449.4,-657.9 -144.8,117.5 -326,221.6 -403.4,316.7 -15.9,19.4 -27.5,44.7 -35.8,74.3"
         style="fill:#ef6163;fill-opacity:1;fill-rule:nonzero;stroke:none"
         id="path348" />
      <path
         d="m 29825.3,11184.4 c -5.2,0 -10.3,2 -14.2,6 -7.8,7.9 -7.7,20.6 0.2,28.3 298.4,293.3 532.4,570 534.7,572.8 7.1,8.4 19.8,9.5 28.2,2.4 8.4,-7.2 9.5,-19.8 2.4,-28.2 -2.3,-2.8 -237.5,-280.9 -537.3,-575.5 -3.9,-3.9 -8.9,-5.8 -14,-5.8"
         style="fill:#2b4860;fill-opacity:1;fill-rule:nonzero;stroke:none"
         id="path350" />
      <path
         d="m 29655.1,12317.7 c -4.7,0 -9.5,1.6 -13.3,5 -8.2,7.4 -9,20 -1.6,28.3 72.7,81.6 122,133.7 159.9,168.7 255.7,236.2 459.4,177.5 468,174.9 10.5,-3.2 16.5,-14.4 13.3,-25 -3.3,-10.5 -14.4,-16.4 -24.9,-13.3 -2.3,0.7 -191.8,53.3 -429.2,-166 -37,-34.1 -85.5,-85.3 -157.2,-165.9 -4,-4.5 -9.5,-6.7 -15,-6.7"
         style="fill:#2b4860;fill-opacity:1;fill-rule:nonzero;stroke:none"
         id="path352" />
      <path
         d="m 9065.96,3130.4 c -5.23,-172 836.71,-337.2 1880.54,-368.9 1043.8,-31.8 1894.2,81.9 1899.5,253.9 5.2,172.1 -836.7,337.3 -1880.6,369 -1043.78,31.8 -1894.21,-81.9 -1899.44,-254"
         style="fill:#c1c1c1;fill-opacity:1;fill-rule:nonzero;stroke:none"
         id="path354" />
      <path
         d="m 9585.74,3349.1 c -224.74,-440.5 -89.58,-501.4 131.09,-515.6 240.04,-15.7 402.57,145.3 456.27,276.3 28.8,70.3 6.3,179.2 -20.8,265.1 -139.7,-34.5 -327.13,-49.7 -566.56,-25.8"
         style="fill:#51382c;fill-opacity:1;fill-rule:nonzero;stroke:none"
         id="path356" />
      <path
         d="m 11352.1,3467 c -4,-56.1 -4.8,-111.4 5.4,-123.5 22.1,-26.2 140.4,-162.5 503.1,-309.6 362.7,-147.2 645.8,-143.6 649.5,-19.7 1.9,60.7 -120.4,171.5 -245.3,268.1 -178.1,-37.9 -700.7,17.5 -912.7,184.7"
         style="fill:#51382c;fill-opacity:1;fill-rule:nonzero;stroke:none"
         id="path358" />
      <path
         d="m 11576.9,11695 186.5,-164.8 172.1,290.7 441.7,-138.5 c 63.9,60.2 127.9,122.7 175.3,173.9 43.1,46.4 72.4,83.5 75.8,101.3 14.3,75.6 -292.6,375.8 -408,536.8 -171.1,238.7 -243.9,407.9 -425.9,609.6 -126.3,139.9 -472.1,215.2 -728.3,296.8 -68.2,21.7 -130.3,43.8 -179.9,67.8 -61.5,-143.6 -173.9,-389.1 -304,-596 0,0 -315.1,395 -454.7,741.8 -57.5,-35.1 -130.83,-55.8 -213.19,-68.5 -306.99,-47.1 -737.92,18.2 -933.26,-136.1 -258.49,-204.3 -394.64,-732.7 -538.38,-984.6 -143.85,-251.8 -274.26,-460.1 -263.62,-504.4 2.62,-10.8 58.56,-31.3 142.01,-56.3 181.34,-54.5 492.25,-129.8 665.29,-170.8 100.98,29.1 207.36,62.2 313.44,97 11.19,38.9 22.4,78.8 33.26,118.9 1.54,-34.5 3.04,-70 4.28,-106.5 338.48,111.9 668.77,236.4 813.47,292.1 19.3,89.7 63.8,272.2 112.8,306.7 65.5,46 620.5,185.6 638,44.5 11.1,-90.3 -179.5,-30.5 -298.6,-103 0,0 113.9,-232.2 -19.8,-390.1 -133.9,-157.7 -367.3,-198.2 -367.3,-198.2 0,0 -463.32,-397.6 -895.61,-728.9 -7.11,-71.2 -16.13,-139.8 -27.63,-204.5 -88.17,-497.4 -339.79,-657.8 -73.67,-817.2 62.03,-37.1 152.4,-74.3 279.57,-115.7 592.84,-192.9 1724.74,-364.9 2199.74,-170 63.4,26.1 115.1,58.6 152.3,98.4 115.9,124.3 150.7,217.6 14.2,468 -55.3,101.2 -251.8,608.2 -276.4,963.3 -7.5,108.1 -10.7,271.5 -11.5,446.5"
         style="fill:#98c0d9;fill-opacity:1;fill-rule:nonzero;stroke:none"
         id="path360" />
      <path
         d="m 9152.02,6001.6 c 78.88,-1137.4 226.37,-2223.4 285.52,-2633.7 51.5,-7.9 100.83,-14.1 148.2,-18.8 239.43,-23.9 426.86,-8.7 566.56,25.8 14,3.3 27.4,6.9 40.4,10.7 47,13.8 18.3,1394.8 59.5,1958.1 32.1,438.4 235.5,1883.1 324.1,2502 181.6,-547.8 529.3,-1601.5 544.5,-1681.7 20.7,-108.7 230.2,-2696.2 230.2,-2696.2 l 1.1,-0.8 c 212,-167.2 734.6,-222.6 912.7,-184.7 39.5,8.3 62.1,21.1 60.7,38.4 -112.1,1446.8 91.2,2209.3 10.3,3100.6 -76.1,837 -415.5,2074.1 -480.5,2411.3 -4.3,21.9 -7.2,39.9 -9.1,53.9 -11.6,91.8 -44.5,279 -79.7,470.3 -23.6,127.8 -48.2,257.7 -68.2,362 -475,-194.9 -1606.9,-22.9 -2199.74,170 -127.17,41.4 -217.54,78.6 -279.57,115.7 -1.45,-24.5 -3.1,-51.5 -4.81,-81 -15.47,-268.5 -40.25,-735.3 -60.46,-1275.7 -32.18,-864.7 -52.22,-1917.7 -1.7,-2646.2"
         style="fill:#3c5c82;fill-opacity:1;fill-rule:nonzero;stroke:none"
         id="path362" />
      <path
         d="m 9214.18,9923.5 c 339.87,-193.6 1216.32,-647.7 1935.72,-631.6 251.6,5.6 454.5,31 616.6,64.9 -23.6,127.8 -48.2,257.7 -68.2,362 -475,-194.9 -1606.9,-22.9 -2199.74,170 -127.17,41.4 -217.54,78.6 -279.57,115.7 -1.45,-24.5 -3.1,-51.5 -4.81,-81"
         style="fill:#2f4b68;fill-opacity:1;fill-rule:nonzero;stroke:none"
         id="path364" />
      <path
         d="m 10601.9,14596.2 c 93.3,-54.6 245.9,-124.7 370.4,-90 6.1,1.7 12.3,3.5 18.3,5.5 182.8,56.6 290.1,175.7 253.6,246.5 -37.9,73.3 -500.5,3.2 -580,17.7 -79.6,14.4 -174.6,53.4 -208.1,6.3 -33.4,-47 -34.9,-95 -34.9,-95 0,0 -127.2,27.8 -149.7,-51.5 -22.4,-79.4 67.1,-294.4 28.1,-393.3 -37.4,-94.8 -60.8,-208.5 107.7,-194.6 26.4,85.2 39.9,158.6 46.2,198.6 -107.3,-7.2 -65.5,188.8 -20.4,205.2 30.5,11.1 53.6,-27.3 65.5,-53.9 38.3,62.8 81.8,152.8 103.3,198.5"
         style="fill:#f5d5bb;fill-opacity:1;fill-rule:nonzero;stroke:none"
         id="path366" />
      <path
         d="m 8159.68,11310.8 c 42.21,204.8 111.78,415.6 161.38,553.7 181.34,-54.5 492.25,-129.8 665.29,-170.8 100.98,29.1 207.36,62.2 313.44,97 12.48,4.1 25.07,8.2 37.54,12.4 338.48,111.9 668.77,236.4 813.47,292.1 19.3,89.7 63.8,272.2 112.8,306.7 65.5,46 620.5,185.6 638,44.5 11.1,-90.3 -179.5,-30.5 -298.6,-103 0,0 113.9,-232.2 -19.8,-390.1 -133.9,-157.7 -367.3,-198.2 -367.3,-198.2 0,0 -463.32,-397.6 -895.61,-728.9 -293.94,-225.3 -573.43,-420.1 -683.37,-438.6 -271.66,-45.8 -548.58,377 -477.24,723.2"
         style="fill:#846652;fill-opacity:1;fill-rule:nonzero;stroke:none"
         id="path368" />
      <path
         d="m 11701.3,11425.3 c 0,0 17.3,-27.5 46.7,-71.8 112.2,-169.3 401,-585.2 579.6,-662 104.8,-45.1 221.9,-32.1 321.1,25 114.2,65.3 204.4,188.8 224.7,348.8 32.3,255.2 -178.2,594.4 -320.9,791 -47.5,-51.2 -111.4,-113.6 -175.4,-174 l -441.6,138.6 -172.1,-290.7 -5.9,-9.9 -16.2,-27.4 -40,-67.6"
         style="fill:#846652;fill-opacity:1;fill-rule:nonzero;stroke:none"
         id="path370" />
      <path
         d="m 10161.2,13638.1 c 129.1,105.6 203.9,272.7 246.1,409.7 26.4,85.2 39.9,158.6 46.2,198.6 -107.3,-7.2 -65.5,188.8 -20.4,205.2 30.5,11.1 53.6,-27.3 65.5,-53.9 38.3,62.8 81.8,152.8 103.3,198.5 93.3,-54.6 245.9,-124.7 370.4,-90 6.1,1.7 12.3,3.5 18.3,5.5 -3.9,-49.9 -10.8,-113.8 -23.5,-181.2 -8.5,-46.5 -19.8,-94.7 -34.5,-141.3 -8.3,-26.5 -17.7,-52.5 -28.4,-77.3 -90.5,-209.4 -162.9,-223.2 -198.6,-210.1 -8.7,3.2 -25.5,15.9 -46,33.1 10.1,-134.4 43,-326.9 146.4,-416.5 20.4,-17.7 47.7,-34.1 80.2,-49.8 -61.5,-143.6 -173.9,-389.1 -304,-596 0,0 -315.1,395 -454.7,741.8 12,7.2 23.2,15.1 33.7,23.7"
         style="fill:#846652;fill-opacity:1;fill-rule:nonzero;stroke:none"
         id="path372" />
      <path
         d="m 11738.5,11552.1 2.8,-59.2 6.7,-139.4 c 112.2,-169.3 401,-585.2 579.6,-662 104.8,-45.1 221.9,-32.1 321.1,25 -456.1,135.2 -807.5,667.6 -891.2,803.8 -12.4,20.4 -19,31.8 -19,31.8"
         style="fill:#684d3e;fill-opacity:1;fill-rule:nonzero;stroke:none"
         id="path374" />
      <path
         d="m 10659.6,13934.9 -160.1,136.3 c 0,0 10.6,-249.1 183.3,-301.5 l -23.2,165.2"
         style="fill:#664b3c;fill-opacity:1;fill-rule:nonzero;stroke:none"
         id="path376" />
      <path
         d="m 10868.5,14358.7 h 0.1 z m 44.1,0.7 c -11,0 -21.6,-4.8 -28.7,-13.4 v -0.1 c -4,-4.8 -6.7,-10.3 -8,-16.5 l -4.1,-20.2 c -8.5,-42.1 18.8,-83.4 61,-92.1 l 48.4,-9.8 c 19.9,-4 40.7,0 58.1,11.5 17.3,11.5 29.2,29.1 33.4,49.6 l 4.2,20.2 c 4,20.1 -9.1,40 -29.2,44.1 l -127.6,25.9 c -2.5,0.6 -5,0.8 -7.5,0.8 z m 83.9,-193.6 c -7.9,0 -15.9,0.8 -23.9,2.5 l -1.9,0.4 -45.8,9.3 c -63.8,13 -105.2,75.5 -92.3,139.2 l 4.2,20.3 c 2.6,12.5 8.2,24.3 16.3,34 18.2,21.9 46.9,32 74.9,26.3 l 127.7,-25.9 c 41.6,-8.6 68.7,-49.5 60.4,-91.2 l -4.2,-20.4 c -6.3,-30.9 -24.3,-57.5 -50.6,-74.9 -19.5,-12.9 -41.9,-19.6 -64.8,-19.6"
         style="fill:#2b4860;fill-opacity:1;fill-rule:nonzero;stroke:none"
         id="path378" />
      <path
         d="m 10593.4,14308.5 74.9,-20.2 c 41.5,-11.3 84.5,13.3 95.9,54.9 l 7.3,27.1 c 1,3.6 1.5,7.3 1.3,10.9 -0.6,16.6 -11.7,30.5 -27.6,34.8 l -153.5,41.7 c -9.7,2.7 -19.7,1.4 -28.4,-3.6 -8.6,-5 -14.8,-13 -17.4,-22.5 l -7.4,-27.2 c -11.3,-41.5 13.3,-84.5 54.9,-95.9 z m 95.4,-63 c -10.3,0 -20.7,1.4 -31,4.2 l -74.8,20.2 h -0.1 c -62.9,17.2 -100.1,82.2 -83,145 l 7.4,27.1 c 5.3,19.9 18.2,36.5 36.1,46.8 18,10.3 38.8,13 58.8,7.5 l 153.4,-41.7 c 33,-8.8 56,-37.7 57.2,-71.8 0.3,-7.7 -0.6,-15.6 -2.7,-23.2 l -7.4,-26.9 c -14.3,-52.5 -62,-87.2 -113.9,-87.2"
         style="fill:#2b4860;fill-opacity:1;fill-rule:nonzero;stroke:none"
         id="path380" />
      <path
         d="m 10868.5,14338.7 c -3.4,0 -6.8,0.9 -9.9,2.7 -14.1,8 -37.2,18.2 -67.5,20.8 -11,0.9 -19.2,10.6 -18.3,21.6 1,11 10.7,19.1 21.7,18.2 37.6,-3.2 66.4,-15.9 84,-25.9 9.5,-5.5 12.9,-17.8 7.4,-27.3 -3.7,-6.5 -10.5,-10.1 -17.4,-10.1"
         style="fill:#2b4860;fill-opacity:1;fill-rule:nonzero;stroke:none"
         id="path382" />
      <path
         d="m 11113.5,12952.5 c -4,0 -8.1,1.3 -11.4,3.7 -2.1,1.4 -203.4,141.1 -317.6,115 -10.7,-2.4 -21.5,4.3 -23.9,15.1 -2.5,10.8 4.2,21.5 15,24 107.7,24.5 267.6,-68.5 326.7,-106.3 8.6,56.9 -8.7,187.4 -48.6,361.7 -2.4,10.8 4.3,21.5 15.1,23.9 10.7,2.6 21.5,-4.2 23.9,-15 51.5,-224.8 64.4,-363.3 38.4,-411.5 -2.7,-5.1 -7.4,-8.7 -12.9,-10 -1.6,-0.4 -3.1,-0.6 -4.7,-0.6"
         style="fill:#2b4860;fill-opacity:1;fill-rule:nonzero;stroke:none"
         id="path384" />
      <path
         d="m 9874.25,13032.7 c -1.29,0 -2.59,0.1 -3.88,0.4 -5.6,1.1 -10.47,4.5 -13.36,9.4 -39.45,67.2 -3.48,302.1 33.65,487.4 2.17,10.8 12.72,17.8 23.54,15.7 10.83,-2.2 17.85,-12.7 15.68,-23.5 -43.03,-214.8 -59.36,-373.2 -45.87,-437.7 60.13,41.9 229.79,150.3 347.09,128.2 10.8,-2 17.9,-12.5 15.9,-23.4 -2,-10.8 -12.5,-17.9 -23.4,-15.9 -124.3,23.5 -335.15,-135 -337.27,-136.6 -3.5,-2.6 -7.75,-4 -12.08,-4"
         style="fill:#2b4860;fill-opacity:1;fill-rule:nonzero;stroke:none"
         id="path386" />
      <path
         d="m 12643.5,11578.9 c -2,0 -4,0.3 -6,0.9 l -708,222.1 c -10.5,3.3 -16.4,14.5 -13.1,25 3.3,10.6 14.6,16.4 25.1,13.1 l 708,-222 c 10.5,-3.3 16.4,-14.6 13.1,-25.1 -2.7,-8.6 -10.6,-14 -19.1,-14"
         style="fill:#2b4860;fill-opacity:1;fill-rule:nonzero;stroke:none"
         id="path388" />
      <path
         d="m 11576.7,11700.3 c -11,0 -19.9,8.9 -20,20 -1.4,388.9 8.7,829.6 8.8,834 0.2,11 9.3,20.1 20.4,19.5 11.1,-0.2 19.8,-9.4 19.6,-20.4 -0.1,-4.4 -10.2,-444.6 -8.8,-833 0.1,-11 -8.8,-20 -19.9,-20.1 h -0.1"
         style="fill:#2b4860;fill-opacity:1;fill-rule:nonzero;stroke:none"
         id="path390" />
      <path
         d="m 9333.06,11889.6 c -1.74,0 -3.5,0.3 -5.26,0.7 -10.66,2.9 -16.95,13.9 -14.05,24.6 82.87,304.6 155.24,629.7 155.96,632.9 2.39,10.8 13.06,17.6 23.86,15.2 10.78,-2.4 17.58,-13 15.19,-23.8 -0.73,-3.3 -73.29,-329.2 -156.41,-634.8 -2.42,-8.9 -10.49,-14.8 -19.29,-14.8"
         style="fill:#2b4860;fill-opacity:1;fill-rule:nonzero;stroke:none"
         id="path392" />
      <path
         d="m 8669.44,11569.5 c -8.44,0 -16.29,5.4 -19.02,13.9 -3.41,10.5 2.36,21.8 12.87,25.2 l 317.36,102.7 c 10.51,3.4 21.79,-2.4 25.19,-12.9 3.4,-10.5 -2.36,-21.8 -12.87,-25.2 l -317.37,-102.7 c -2.05,-0.6 -4.12,-1 -6.16,-1"
         style="fill:#2b4860;fill-opacity:1;fill-rule:nonzero;stroke:none"
         id="path394" />
      <path
         d="m 10632.4,8218.8 c -4.2,0 -8.4,1.3 -12.1,4.1 -8.7,6.7 -10.5,19.2 -3.8,28 2.1,2.7 204.1,269.7 268.5,466.3 25.1,76.5 53,277.6 80.8,581.5 1,11 10.8,19.2 21.7,18.1 11,-1 19.1,-10.7 18.1,-21.7 -28.4,-311.3 -56.2,-509.9 -82.6,-590.3 -66.5,-203.1 -266.2,-467 -274.6,-478.1 -4,-5.2 -9.9,-7.9 -16,-7.9"
         style="fill:#2b4860;fill-opacity:1;fill-rule:nonzero;stroke:none"
         id="path396" />
      <path
         d="m 10576.3,7825.7 c -0.9,0 -1.9,0.1 -2.9,0.2 -10.9,1.6 -18.5,11.7 -16.9,22.6 25.2,176.3 41.1,285.6 41.1,285.6 1.6,10.9 11.7,18.4 22.7,16.9 10.9,-1.6 18.5,-11.8 16.9,-22.7 0,0 -15.9,-109.2 -41.1,-285.4 -1.5,-10 -10,-17.2 -19.8,-17.2"
         style="fill:#2b4860;fill-opacity:1;fill-rule:nonzero;stroke:none"
         id="path398" />
      <path
         d="m 11995.3,6267.5 c -4.3,0 -8.6,1.4 -12.3,4.2 -524.9,410.3 -1210.2,1628.1 -1217.1,1640.4 -5.4,9.6 -2,21.8 7.7,27.2 9.6,5.4 21.8,1.9 27.2,-7.7 6.8,-12.2 688.2,-1223 1206.8,-1628.3 8.8,-6.9 10.3,-19.4 3.5,-28.1 -4,-5.1 -9.8,-7.7 -15.8,-7.7"
         style="fill:#2b4860;fill-opacity:1;fill-rule:nonzero;stroke:none"
         id="path400" />
      <path
         d="m 9172.64,8654.7 c -3.95,0 -7.95,1.2 -11.43,3.6 -9.06,6.4 -11.27,18.8 -4.95,27.9 456.84,654.3 484.6,1017.3 484.83,1020.9 0.7,11 10.24,19.3 21.19,18.7 11.02,-0.6 19.4,-10.1 18.74,-21.1 -0.91,-15 -27.48,-376.1 -491.97,-1041.4 -3.88,-5.6 -10.1,-8.6 -16.41,-8.6"
         style="fill:#2b4860;fill-opacity:1;fill-rule:nonzero;stroke:none"
         id="path402" />
      <path
         d="m 11822.3,8858.4 c -6.3,0 -12.6,3 -16.5,8.6 -204.9,295.9 -311.6,669.1 -312.7,672.8 -2.9,10.6 3.2,21.7 13.9,24.7 10.6,3 21.6,-3.2 24.6,-13.8 1.1,-3.7 106.1,-370.6 307.1,-660.9 6.3,-9.1 4.1,-21.6 -5,-27.8 -3.5,-2.4 -7.5,-3.6 -11.4,-3.6"
         style="fill:#2b4860;fill-opacity:1;fill-rule:nonzero;stroke:none"
         id="path404" />
      <path
         d="m 10788.5,11206.9 2,-1.8 c 12.9,-10.7 28.5,-17.8 46.3,-20.4 l 760,-108.1 c 62.7,-8.9 128.9,43 147.9,116 l 131,506.2 148.3,573 c 6.2,23.9 6.7,47 2.3,67.8 -9.2,43.4 -39.2,76.1 -82.2,82.1 l -766.6,106.4 c -63,8.8 -129.3,-44.1 -148,-118.1 l -272.4,-1077.3 c -13.1,-51 0.7,-98.7 31.4,-125.8"
         style="fill:#edf7f9;fill-opacity:1;fill-rule:nonzero;stroke:none"
         id="path406" />
      <path
         d="m 10788.5,11206.9 2,-1.8 c 12.9,-10.7 28.5,-17.8 46.3,-20.4 l 760,-108.1 c 62.7,-8.9 128.9,43 147.9,116 l 131,506.2 148.3,573 c 6.2,23.9 6.7,47 2.3,67.8 -13.2,11.8 -29.8,19.6 -48.7,22.3 l -766.7,106.4 c -63,8.8 -129.3,-44.1 -148,-118.1 l -272.3,-1077.3 c -6,-23.2 -6.4,-45.8 -2.1,-66"
         style="fill:#c7d8e5;fill-opacity:1;fill-rule:nonzero;stroke:none"
         id="path408" />
      <path
         d="m 10790.6,11205.1 c 12.8,-10.6 28.4,-17.8 46.2,-20.4 l 760,-108.1 c 62.7,-8.9 128.9,42.9 147.8,116 l 131.1,506.2 c -208.2,-142.8 -591.3,-368.3 -1085.1,-493.7"
         style="fill:#a0b5c1;fill-opacity:1;fill-rule:nonzero;stroke:none"
         id="path410" />
      <path
         d="m 10809.1,11226.6 c -1.4,0 -2.8,0.2 -4.3,0.6 -9.4,2.3 -15,11.9 -12.7,21.2 l 272.5,1077.4 c 20.7,82.1 95.7,141 167.3,131 l 766.8,-106.3 c 9.5,-1.4 16.2,-10.2 14.9,-19.8 -1.3,-9.5 -10.2,-16.3 -19.8,-14.9 l -766.7,106.4 c -54.5,7.6 -112.1,-39.6 -128.5,-105 l -272.5,-1077.4 c -2,-7.9 -9.2,-13.2 -17,-13.2"
         style="fill:#3c5c82;fill-opacity:1;fill-rule:nonzero;stroke:none"
         id="path412" />
      <path
         d="m 11981.3,11962.8 c -23.1,3.3 -255.1,35 -328.7,-12.3 -77.6,-49.6 -88.4,-213.6 -68.2,-264.2 25.3,-63.1 164.1,-136.1 278.7,-109.5 28.8,6.7 56,19.6 79.6,40.6 117.3,104.5 149,359.8 107.4,437.2 -28.1,52 -102.9,56.5 -148.8,53.9 -28.9,-1.7 -67.7,-10.8 -72.5,-39.4 -12.1,-73.1 134.3,-102.8 152.5,-106.3"
         style="fill:#846652;fill-opacity:1;fill-rule:nonzero;stroke:none"
         id="path414" />
      <path
         d="m 13265.3,27055.7 c 0,-8.6 -0.2,-17.1 -0.8,-25.5 h -3069.3 c -6.6,33.8 -10.1,68.8 -10.1,104.6 0,298 241.6,539.7 539.7,539.7 143.1,0 273.2,-55.8 369.8,-146.8 89.8,297.3 365.7,513.8 692.3,513.8 369.9,0 675,-277.8 718,-636.1 80.6,69.1 185.2,111 299.7,111 254.4,0 460.7,-206.3 460.7,-460.7"
         style="fill:#c7d8e5;fill-opacity:1;fill-rule:nonzero;stroke:none"
         id="path416" />
      <path
         d="m 9685.92,24998.2 c 0,-4.2 0,-8.5 -0.2,-12.7 h -5256.3 c -3.1,25.3 -4.6,51.1 -4.6,77.2 0,361.1 292.7,653.8 653.8,653.8 162.5,0 311,-59.4 425.4,-157.5 61.1,508.5 493.9,902.7 1018.9,902.7 463.5,0 855.2,-307.2 982.6,-729.1 137.1,129 321.6,208.3 524.8,208.3 319.9,0 593.8,-196.2 708.5,-474.8 99.2,76 223.2,121.3 357.9,121.3 325.4,0 589.2,-263.8 589.2,-589.2"
         style="fill:#c7d8e5;fill-opacity:1;fill-rule:nonzero;stroke:none"
         id="path418" />
      <path
         d="m 42663,25933.9 c 14,49.4 21.4,101.4 21.4,154.9 0,334.6 -288.9,605.8 -645.3,605.8 -74,0 -145,-11.8 -211.1,-33.3 -3.5,-0.1 -7,-0.1 -10.5,-0.2 -111.5,356.6 -444.4,615.5 -837.8,615.5 -317.5,0 -595.7,-168.7 -749.8,-421.4 -141.9,396.7 -520.9,680.6 -966.4,680.6 -525,0 -957.9,-394.2 -1019,-902.7 -114.3,98.1 -262.8,157.5 -425.3,157.5 -361.1,0 -653.8,-292.7 -653.8,-653.8 0,-70.9 11.3,-139.1 32.2,-202.9 H 42663"
         style="fill:#c7d8e5;fill-opacity:1;fill-rule:nonzero;stroke:none"
         id="path420" />
    </g>
  </g>
</svg>
