<svg version="1.1" id="Layer_1" xmlns="http://www.w3.org/2000/svg" xmlns:xlink="http://www.w3.org/1999/xlink" x="0px" y="0px"
	 width="100%" viewBox="0 0 223 226" enable-background="new 0 0 223 226" xml:space="preserve">
<path fill="#FDFDFD" opacity="1.000000" stroke="none" 
	d="
M224.000000,88.000000 
	C224.000000,134.666672 224.000000,180.833328 224.000000,227.000000 
	C149.666672,227.000000 75.333336,227.000000 1.000000,227.000000 
	C1.000000,151.666672 1.000000,76.333336 1.000000,1.000000 
	C75.333336,1.000000 149.666672,1.000000 224.000000,1.000000 
	C224.000000,29.833334 224.000000,58.666668 224.000000,88.000000 
M92.076492,72.560623 
	C92.386040,72.714401 92.695595,72.868179 93.885178,73.372696 
	C105.521767,73.392860 117.159698,73.503853 128.793411,73.330482 
	C130.445755,73.305870 132.808441,72.349960 133.602417,71.061188 
	C139.598312,61.328613 145.348648,51.441502 150.977264,41.490433 
	C151.609680,40.372360 151.542892,38.247383 150.891418,37.109875 
	C144.887970,26.627472 138.684219,16.259790 132.194946,5.339958 
	C131.804642,5.269268 131.414322,5.198577 130.091812,4.996479 
	C118.055199,5.042913 106.018593,5.089348 93.489548,5.024060 
	C93.342514,5.105984 93.195480,5.187907 92.412109,5.482669 
	C86.451813,15.765376 80.393188,25.993658 74.638779,36.390320 
	C73.789841,37.924103 73.609726,40.690048 74.430855,42.147446 
	C80.098312,52.206528 86.113655,62.069607 92.076492,72.560623 
M28.369541,115.916962 
	C28.108995,116.241364 27.848452,116.565765 27.065166,117.294746 
	C21.374636,127.190506 15.602920,137.041428 10.085317,147.032669 
	C9.301123,148.452682 9.012788,150.969513 9.746811,152.274643 
	C15.574109,162.635834 21.704327,172.826660 27.920595,183.633377 
	C28.273848,183.734039 28.627100,183.834717 29.910040,184.082581 
	C41.947929,184.024063 53.985817,183.965546 66.498337,184.012436 
	C66.498337,184.012436 66.957199,183.851669 67.648346,183.792725 
	C73.441032,173.942291 79.436119,164.201187 84.864075,154.153717 
	C86.018501,152.016800 86.111237,148.222488 84.976242,146.117447 
	C79.647995,136.235260 73.720695,126.676064 67.955910,116.435272 
	C67.639320,116.299477 67.322723,116.163689 66.094429,115.789169 
	C53.731838,115.849167 41.369247,115.909164 28.369541,115.916962 
M131.512421,78.932915 
	C131.345490,78.970551 131.178558,79.008194 130.086990,78.871223 
	C118.053581,78.933929 106.020180,78.996643 93.495499,78.947632 
	C93.344460,79.021057 93.193428,79.094482 92.361824,79.282089 
	C86.358788,89.608978 80.274490,99.890465 74.449745,110.316963 
	C73.671944,111.709259 73.506836,114.225571 74.248268,115.560043 
	C79.728905,125.424316 85.450043,135.157898 91.281456,144.820389 
	C91.961899,145.947876 93.770081,147.039017 95.065369,147.050735 
	C107.045052,147.159058 119.026917,147.026337 131.510269,147.087875 
	C131.658554,146.999878 131.806839,146.911896 132.610992,146.640442 
	C138.581894,136.505936 144.595764,126.396179 150.469009,116.205376 
	C151.197891,114.940651 151.954819,112.798103 151.389191,111.818245 
	C145.060928,100.855110 138.475433,90.040466 131.512421,78.932915 
M131.512070,220.975769 
	C131.655090,220.888596 131.798126,220.801437 132.560226,220.468567 
	C138.526901,210.311462 144.612213,200.220352 150.337204,189.928818 
	C151.234894,188.315063 151.270889,185.365524 150.387482,183.757782 
	C145.052139,174.047791 139.379883,164.520569 133.678848,155.017075 
	C133.029175,153.934067 131.500610,152.688156 130.376846,152.685516 
	C117.918427,152.656433 105.459473,152.857971 92.453026,153.015579 
	C92.323936,153.338654 92.194847,153.661728 91.579277,154.476929 
	C85.824364,164.334244 80.018311,174.162506 74.380356,184.086273 
	C73.688782,185.303558 73.200623,187.435349 73.795135,188.461380 
	C80.074776,199.299072 86.593399,209.998276 93.484749,220.980728 
	C93.648422,220.945221 93.812088,220.909698 94.906837,221.014664 
	C106.944710,220.967026 118.982574,220.919388 131.512070,220.975769 
M195.075150,115.784088 
	C182.715118,115.864548 170.355087,115.945007 157.424255,116.005814 
	C157.277359,116.335938 157.130478,116.666061 156.463974,117.440224 
	C151.631104,125.769226 147.212875,134.379166 141.824692,142.331924 
	C138.010727,147.961166 138.154556,152.323044 141.945526,157.831741 
	C147.719971,166.222595 152.712982,175.151199 158.497467,184.012268 
	C158.497467,184.012268 158.973007,183.907562 159.899826,184.079895 
	C171.938889,184.031830 183.977966,183.983749 196.642334,183.989792 
	C196.909546,183.690704 197.176758,183.391632 197.947388,182.674042 
	C203.857498,172.668182 209.819946,162.692383 215.607086,152.615906 
	C216.279724,151.444717 216.628632,149.347137 216.033356,148.302734 
	C210.039719,137.786804 203.817490,127.401161 197.508331,116.433876 
	C197.003662,116.282196 196.499008,116.130516 195.075150,115.784088 
M28.401321,42.017818 
	C28.202852,42.329475 28.004383,42.641136 27.226376,43.299622 
	C21.460714,53.366833 15.594696,63.379295 10.040097,73.561646 
	C9.228422,75.049553 9.196868,77.730553 10.001169,79.207932 
	C15.230377,88.813156 20.893906,98.181236 26.174006,107.759933 
	C27.604080,110.354240 29.325218,111.002365 32.091328,110.963600 
	C42.567486,110.816811 53.049999,110.763046 63.523273,110.990494 
	C66.677986,111.059006 68.240753,109.865822 69.664658,107.264580 
	C73.326088,100.575676 76.676964,93.595222 81.238235,87.551064 
	C87.009148,79.904007 87.298401,73.416138 81.429153,65.605461 
	C75.935455,58.294563 71.731232,50.014706 66.503151,41.995739 
	C66.503151,41.995739 66.028687,42.098557 65.101128,41.929485 
	C53.061237,41.976830 41.021347,42.024170 28.401321,42.017818 
M197.199265,42.362267 
	C196.806992,42.265213 196.414719,42.168156 195.092072,41.926575 
	C183.052963,41.983868 171.013840,42.041164 158.501572,41.995319 
	C158.501572,41.995319 158.046204,42.160152 157.355545,42.221668 
	C151.383347,52.551670 145.297806,62.819466 139.558121,73.277077 
	C138.672119,74.891365 138.601395,77.796379 139.467407,79.391006 
	C144.764664,89.145126 150.348099,98.749596 156.096771,108.246185 
	C156.901672,109.575859 159.122513,110.758125 160.711792,110.789238 
	C171.847275,111.007217 182.991257,111.012444 194.126221,110.781303 
	C195.682159,110.749008 197.814346,109.424469 198.642899,108.065781 
	C204.510773,98.443565 210.182358,88.698036 215.698639,78.869545 
	C216.395340,77.628212 216.435852,75.327797 215.743256,74.105980 
	C209.805389,63.631077 203.628555,53.291637 197.199265,42.362267 
z"/>
<path fill="#393939" opacity="1.000000" stroke="none" 
	d="
M158.974731,42.098457 
	C171.013840,42.041164 183.052963,41.983868 195.722748,42.254261 
	C196.743332,42.691872 197.133224,42.801796 197.523132,42.911720 
	C203.628555,53.291637 209.805389,63.631077 215.743256,74.105980 
	C216.435852,75.327797 216.395340,77.628212 215.698639,78.869545 
	C210.182358,88.698036 204.510773,98.443565 198.642899,108.065781 
	C197.814346,109.424469 195.682159,110.749008 194.126221,110.781303 
	C182.991257,111.012444 171.847275,111.007217 160.711792,110.789238 
	C159.122513,110.758125 156.901672,109.575859 156.096771,108.246185 
	C150.348099,98.749596 144.764664,89.145126 139.467407,79.391006 
	C138.601395,77.796379 138.672119,74.891365 139.558121,73.277077 
	C145.297806,62.819466 151.383347,52.551670 157.791107,42.345947 
	C158.476013,42.346302 158.725372,42.222382 158.974731,42.098457 
M162.643311,51.584564 
	C158.375595,58.895550 154.227676,66.280739 149.771942,73.475281 
	C148.310440,75.835144 148.531326,77.527672 149.887604,79.733727 
	C153.712540,85.955254 157.161240,92.414696 161.151840,98.523239 
	C162.184525,100.104042 164.622253,101.571854 166.484848,101.663513 
	C173.781281,102.022606 181.113495,101.989975 188.414307,101.678474 
	C190.144714,101.604645 192.447998,100.298645 193.385834,98.847351 
	C197.437469,92.577560 201.235718,86.126640 204.755524,79.543472 
	C205.576538,78.007919 205.654526,75.327057 204.861221,73.805786 
	C201.410294,67.188141 197.368607,60.880527 193.845276,54.297718 
	C192.437836,51.668175 190.666794,51.002964 187.893723,51.036465 
	C179.920746,51.132786 171.944626,50.967205 163.779587,50.595512 
	C163.520020,50.731529 163.260437,50.867546 162.643311,51.584564 
z"/>
<path fill="#393939" opacity="1.000000" stroke="none" 
	d="
M66.959526,42.161278 
	C71.731232,50.014706 75.935455,58.294563 81.429153,65.605461 
	C87.298401,73.416138 87.009148,79.904007 81.238235,87.551064 
	C76.676964,93.595222 73.326088,100.575676 69.664658,107.264580 
	C68.240753,109.865822 66.677986,111.059006 63.523273,110.990494 
	C53.049999,110.763046 42.567486,110.816811 32.091328,110.963600 
	C29.325218,111.002365 27.604080,110.354240 26.174006,107.759933 
	C20.893906,98.181236 15.230377,88.813156 10.001169,79.207932 
	C9.196868,77.730553 9.228422,75.049553 10.040097,73.561646 
	C15.594696,63.379295 21.460714,53.366833 27.769634,43.057915 
	C28.535746,42.567978 28.758602,42.319744 28.981457,42.071514 
	C41.021347,42.024170 53.061237,41.976830 65.630821,42.180939 
	C66.426849,42.342022 66.693192,42.251652 66.959526,42.161278 
M33.511169,51.331570 
	C28.963190,59.070309 24.328428,66.760780 19.967127,74.603333 
	C19.360205,75.694717 19.635946,77.790855 20.293980,78.986641 
	C23.981598,85.687874 27.791040,92.331398 31.855766,98.808319 
	C32.726727,100.196152 34.792736,101.596474 36.359142,101.656227 
	C44.012047,101.948174 51.686302,101.917816 59.342720,101.675903 
	C60.836853,101.628700 62.877995,100.507195 63.656254,99.253746 
	C67.865761,92.473976 71.848030,85.546227 75.665833,78.537224 
	C76.273628,77.421394 76.145012,75.367020 75.514595,74.202522 
	C71.793419,67.328865 67.972519,60.496284 63.818378,53.880192 
	C62.923470,52.454910 60.547623,51.239807 58.813454,51.183891 
	C50.659107,50.920979 42.490646,51.095760 33.511169,51.331570 
z"/>
<path fill="#383839" opacity="1.000000" stroke="none" 
	d="
M158.037842,183.851440 
	C152.712982,175.151199 147.719971,166.222595 141.945526,157.831741 
	C138.154556,152.323044 138.010727,147.961166 141.824692,142.331924 
	C147.212875,134.379166 151.631104,125.769226 156.947464,117.120392 
	C157.717590,116.613976 157.905624,116.355614 157.995056,116.025475 
	C170.355087,115.945007 182.715118,115.864548 195.652847,116.113922 
	C196.706879,116.622139 197.183197,116.800514 197.659531,116.978882 
	C203.817490,127.401161 210.039719,137.786804 216.033356,148.302734 
	C216.628632,149.347137 216.279724,151.444717 215.607086,152.615906 
	C209.819946,162.692383 203.857498,172.668182 197.406158,182.939697 
	C196.582291,183.448776 196.299652,183.692230 196.017029,183.935684 
	C183.977966,183.983749 171.938889,184.031830 159.368942,183.826385 
	C158.571320,183.665741 158.304581,183.758591 158.037842,183.851440 
M151.577103,144.078857 
	C147.620895,148.187561 148.728882,151.991837 151.691757,156.264938 
	C155.086517,161.160919 157.659668,166.621246 160.950394,171.597931 
	C161.959427,173.123962 164.116577,174.742142 165.813538,174.816208 
	C173.612915,175.156662 181.438400,175.073013 189.246933,174.861603 
	C190.580566,174.825485 192.381531,173.747955 193.107666,172.605576 
	C197.202469,166.163452 201.197662,159.642822 204.834412,152.936172 
	C205.669617,151.395981 205.673737,148.642517 204.846954,147.096161 
	C201.328384,140.515396 197.507477,134.078262 193.431839,127.826721 
	C192.483139,126.371513 190.139206,125.120155 188.373123,125.029953 
	C181.905823,124.699623 175.397812,125.155014 168.931992,124.810440 
	C164.450989,124.571640 161.613373,125.681969 159.680023,130.110748 
	C157.635727,134.793671 154.600250,139.043900 151.577103,144.078857 
z"/>
<path fill="#38393A" opacity="1.000000" stroke="none" 
	d="
M93.046112,220.735672 
	C86.593399,209.998276 80.074776,199.299072 73.795135,188.461380 
	C73.200623,187.435349 73.688782,185.303558 74.380356,184.086273 
	C80.018311,174.162506 85.824364,164.334244 92.029419,154.120636 
	C92.729156,153.560165 92.902863,153.304443 93.000664,152.997177 
	C105.459473,152.857971 117.918427,152.656433 130.376846,152.685516 
	C131.500610,152.688156 133.029175,153.934067 133.678848,155.017075 
	C139.379883,164.520569 145.052139,174.047791 150.387482,183.757782 
	C151.270889,185.365524 151.234894,188.315063 150.337204,189.928818 
	C144.612213,200.220352 138.526901,210.311462 132.141327,220.469116 
	C131.370346,220.338425 131.136353,220.472443 131.020447,220.871750 
	C118.982574,220.919388 106.944710,220.967026 94.372818,220.792023 
	C93.541176,220.323761 93.276955,220.379196 93.046112,220.735672 
M90.460686,199.025055 
	C94.146339,209.911087 101.588875,214.258118 112.881454,211.911331 
	C113.041199,211.878143 113.219788,211.878387 113.379669,211.911270 
	C123.694901,214.033035 129.501190,209.495270 134.225769,200.279480 
	C141.322922,186.435715 141.234253,187.159042 134.280762,173.381027 
	C129.565750,164.038467 123.658020,161.671402 113.516052,161.296402 
	C101.334656,160.845978 95.049866,164.941132 89.284721,175.429031 
	C84.415810,184.286514 83.479584,190.922897 90.460686,199.025055 
z"/>
<path fill="#383838" opacity="1.000000" stroke="none" 
	d="
M131.008148,146.963669 
	C119.026917,147.026337 107.045052,147.159058 95.065369,147.050735 
	C93.770081,147.039017 91.961899,145.947876 91.281456,144.820389 
	C85.450043,135.157898 79.728905,125.424316 74.248268,115.560043 
	C73.506836,114.225571 73.671944,111.709259 74.449745,110.316963 
	C80.274490,99.890465 86.358788,89.608978 92.804108,79.367943 
	C93.493187,79.322311 93.739975,79.190826 93.986771,79.059357 
	C106.020180,78.996643 118.053581,78.933929 130.615753,79.125122 
	C131.416077,79.314636 131.687622,79.250244 131.959167,79.185852 
	C138.475433,90.040466 145.060928,100.855110 151.389191,111.818245 
	C151.954819,112.798103 151.197891,114.940651 150.469009,116.205376 
	C144.595764,126.396179 138.581894,136.505936 132.177216,146.587189 
	C131.498337,146.677170 131.253235,146.820419 131.008148,146.963669 
M106.597046,138.057938 
	C112.259201,138.057877 117.939766,138.315567 123.573166,137.913055 
	C125.455673,137.778549 127.883720,136.395721 128.916428,134.828445 
	C132.847336,128.862671 136.504303,122.690056 139.817001,116.360970 
	C140.693008,114.687332 140.712067,111.793297 139.848541,110.116989 
	C136.424072,103.469254 132.602371,97.014771 128.659088,90.655327 
	C127.876137,89.392639 125.930946,88.160690 124.483665,88.114815 
	C116.664429,87.866974 108.827942,87.846085 101.010490,88.120300 
	C99.392632,88.177048 97.211617,89.424294 96.348076,90.791199 
	C92.353363,97.114471 88.540092,103.574570 85.111725,110.217834 
	C84.256287,111.875450 84.385139,114.743805 85.250031,116.455002 
	C87.870270,121.639114 91.471176,126.341484 93.937927,131.585342 
	C96.422523,136.867111 99.961662,139.099976 106.597046,138.057938 
z"/>
<path fill="#383938" opacity="1.000000" stroke="none" 
	d="
M66.023705,183.907043 
	C53.985817,183.965546 41.947929,184.024063 29.325663,183.767319 
	C28.408037,183.324631 28.074789,183.197220 27.741541,183.069794 
	C21.704327,172.826660 15.574109,162.635834 9.746811,152.274643 
	C9.012788,150.969513 9.301123,148.452682 10.085317,147.032669 
	C15.602920,137.041428 21.374636,127.190506 27.618093,117.030685 
	C28.449566,116.500809 28.728111,116.234985 29.006657,115.969162 
	C41.369247,115.909164 53.731838,115.849167 66.654236,116.127747 
	C67.418755,116.733177 67.683174,116.911583 68.007278,117.001541 
	C73.720695,126.676064 79.647995,136.235260 84.976242,146.117447 
	C86.111237,148.222488 86.018501,152.016800 84.864075,154.153717 
	C79.436119,164.201187 73.441032,173.942291 67.212128,183.666718 
	C66.525169,183.662796 66.274437,183.784912 66.023705,183.907043 
M70.861015,160.369659 
	C77.020798,153.650162 77.361252,146.858276 71.128601,139.972000 
	C70.912285,139.733002 70.825821,139.380676 70.656273,139.094543 
	C67.943176,134.515564 66.248596,128.136475 62.229427,125.856918 
	C58.020878,123.469955 51.481419,125.609093 46.134247,124.723053 
	C36.252171,123.085556 31.606215,127.766403 26.432348,135.798782 
	C19.775438,146.133591 19.639746,153.746979 26.449732,164.143005 
	C31.741306,172.221039 36.687328,174.972992 46.262161,175.444290 
	C58.601284,176.051682 66.545433,172.794907 70.861015,160.369659 
z"/>
<path fill="#3A3937" opacity="1.000000" stroke="none" 
	d="
M93.981979,5.135783 
	C106.018593,5.089348 118.055199,5.042913 130.752518,5.281905 
	C131.788391,5.664463 132.163574,5.761594 132.538742,5.858727 
	C138.684219,16.259790 144.887970,26.627472 150.891418,37.109875 
	C151.542892,38.247383 151.609680,40.372360 150.977264,41.490433 
	C145.348648,51.441502 139.598312,61.328613 133.602417,71.061188 
	C132.808441,72.349960 130.445755,73.305870 128.793411,73.330482 
	C117.159698,73.503853 105.521767,73.392860 93.339737,72.974823 
	C92.601044,72.295250 92.342010,72.101494 92.017181,71.995682 
	C86.113655,62.069607 80.098312,52.206528 74.430855,42.147446 
	C73.609726,40.690048 73.789841,37.924103 74.638779,36.390320 
	C80.393188,25.993658 86.451813,15.765376 92.836670,5.501565 
	C93.261238,5.520462 93.703995,5.526532 93.703995,5.526532 
	C93.703995,5.526532 93.981979,5.135783 93.981979,5.135783 
M128.162781,16.030394 
	C127.121391,15.389243 126.089905,14.211393 125.037041,14.191963 
	C116.716339,14.038413 108.386848,13.965909 100.072769,14.245845 
	C98.722939,14.291294 97.021782,15.944064 96.190559,17.290648 
	C92.350349,23.511780 88.892365,29.969934 85.016090,36.167191 
	C83.442772,38.682556 83.726318,40.569611 85.182892,42.917831 
	C88.949730,48.990540 92.340210,55.303650 96.274574,61.260818 
	C97.317780,62.840378 99.743210,64.312866 101.604256,64.404305 
	C108.911339,64.763329 116.254028,64.729942 123.565727,64.421379 
	C125.322510,64.347244 127.679634,63.085739 128.615128,61.632759 
	C132.660339,55.349815 136.435440,48.875431 139.938431,42.274139 
	C140.740707,40.762264 140.757736,38.111145 139.964294,36.599377 
	C136.413269,29.833502 132.438553,23.289993 128.162781,16.030394 
z"/>
<path fill="#292929" opacity="1.000000" stroke="none" 
	d="
M197.583923,116.706375 
	C197.183197,116.800514 196.706879,116.622139 196.112442,116.211304 
	C196.499008,116.130516 197.003662,116.282196 197.583923,116.706375 
z"/>
<path fill="#1A1A1A" opacity="1.000000" stroke="none" 
	d="
M27.831068,183.351593 
	C28.074789,183.197220 28.408037,183.324631 28.860819,183.693726 
	C28.627100,183.834717 28.273848,183.734039 27.831068,183.351593 
z"/>
<path fill="#1A1A1A" opacity="1.000000" stroke="none" 
	d="
M66.261017,183.959732 
	C66.274437,183.784912 66.525169,183.662796 66.866554,183.696182 
	C66.957199,183.851669 66.498337,184.012436 66.261017,183.959732 
z"/>
<path fill="#2A2A2A" opacity="1.000000" stroke="none" 
	d="
M92.726845,153.006378 
	C92.902863,153.304443 92.729156,153.560165 92.272659,153.874573 
	C92.194847,153.661728 92.323936,153.338654 92.726845,153.006378 
z"/>
<path fill="#222222" opacity="1.000000" stroke="none" 
	d="
M131.259216,147.025772 
	C131.253235,146.820419 131.498337,146.677170 131.849274,146.678925 
	C131.806839,146.911896 131.658554,146.999878 131.259216,147.025772 
z"/>
<path fill="#1A1A1A" opacity="1.000000" stroke="none" 
	d="
M158.267654,183.931854 
	C158.304581,183.758591 158.571320,183.665741 158.905533,183.740234 
	C158.973007,183.907562 158.497467,184.012268 158.267654,183.931854 
z"/>
<path fill="#1A1A1A" opacity="1.000000" stroke="none" 
	d="
M196.329681,183.962738 
	C196.299652,183.692230 196.582291,183.448776 197.154449,183.148941 
	C197.176758,183.391632 196.909546,183.690704 196.329681,183.962738 
z"/>
<path fill="#2C2C2C" opacity="1.000000" stroke="none" 
	d="
M93.265427,220.858200 
	C93.276955,220.379196 93.541176,220.323761 93.907272,220.721771 
	C93.812088,220.909698 93.648422,220.945221 93.265427,220.858200 
z"/>
<path fill="#2C2C2C" opacity="1.000000" stroke="none" 
	d="
M131.266266,220.923767 
	C131.136353,220.472443 131.370346,220.338425 131.831787,220.591980 
	C131.798126,220.801437 131.655090,220.888596 131.266266,220.923767 
z"/>
<path fill="#2A2A2A" opacity="1.000000" stroke="none" 
	d="
M67.981598,116.718407 
	C67.683174,116.911583 67.418755,116.733177 67.110085,116.247116 
	C67.322723,116.163689 67.639320,116.299477 67.981598,116.718407 
z"/>
<path fill="#292929" opacity="1.000000" stroke="none" 
	d="
M157.709656,116.015640 
	C157.905624,116.355614 157.717590,116.613976 157.207275,116.898376 
	C157.130478,116.666061 157.277359,116.335938 157.709656,116.015640 
z"/>
<path fill="#1A1A1A" opacity="1.000000" stroke="none" 
	d="
M28.691389,42.044666 
	C28.758602,42.319744 28.535746,42.567978 28.059402,42.884499 
	C28.004383,42.641136 28.202852,42.329475 28.691389,42.044666 
z"/>
<path fill="#2A2A2A" opacity="1.000000" stroke="none" 
	d="
M28.688099,115.943062 
	C28.728111,116.234985 28.449566,116.500809 27.879463,116.828400 
	C27.848452,116.565765 28.108995,116.241364 28.688099,115.943062 
z"/>
<path fill="#313131" opacity="1.000000" stroke="none" 
	d="
M93.735764,5.079922 
	C93.981979,5.135783 93.703995,5.526532 93.703995,5.526532 
	C93.703995,5.526532 93.261238,5.520462 93.154846,5.395146 
	C93.195480,5.187907 93.342514,5.105984 93.735764,5.079922 
z"/>
<path fill="#222222" opacity="1.000000" stroke="none" 
	d="
M131.735794,79.059387 
	C131.687622,79.250244 131.416077,79.314636 131.078064,79.212433 
	C131.178558,79.008194 131.345490,78.970551 131.735794,79.059387 
z"/>
<path fill="#222222" opacity="1.000000" stroke="none" 
	d="
M93.741135,79.003494 
	C93.739975,79.190826 93.493187,79.322311 93.144394,79.310852 
	C93.193428,79.094482 93.344460,79.021057 93.741135,79.003494 
z"/>
<path fill="#2C2C2C" opacity="1.000000" stroke="none" 
	d="
M92.046837,72.278152 
	C92.342010,72.101494 92.601044,72.295250 92.899719,72.799454 
	C92.695595,72.868179 92.386040,72.714401 92.046837,72.278152 
z"/>
<path fill="#313131" opacity="1.000000" stroke="none" 
	d="
M132.366852,5.599342 
	C132.163574,5.761594 131.788391,5.664463 131.218628,5.347610 
	C131.414322,5.198577 131.804642,5.269268 132.366852,5.599342 
z"/>
<path fill="#1A1A1A" opacity="1.000000" stroke="none" 
	d="
M197.361206,42.636993 
	C197.133224,42.801796 196.743332,42.691872 196.187927,42.326523 
	C196.414719,42.168156 196.806992,42.265213 197.361206,42.636993 
z"/>
<path fill="#1A1A1A" opacity="1.000000" stroke="none" 
	d="
M158.738159,42.046890 
	C158.725372,42.222382 158.476013,42.346302 158.136429,42.315186 
	C158.046204,42.160152 158.501572,41.995319 158.738159,42.046890 
z"/>
<path fill="#1A1A1A" opacity="1.000000" stroke="none" 
	d="
M66.731339,42.078506 
	C66.693192,42.251652 66.426849,42.342022 66.094604,42.265472 
	C66.028687,42.098557 66.503151,41.995739 66.731339,42.078506 
z"/>
<path fill="#EE7425" opacity="1.000000" stroke="none" 
	d="
M163.969742,50.904530 
	C171.944626,50.967205 179.920746,51.132786 187.893723,51.036465 
	C190.666794,51.002964 192.437836,51.668175 193.845276,54.297718 
	C197.368607,60.880527 201.410294,67.188141 204.861221,73.805786 
	C205.654526,75.327057 205.576538,78.007919 204.755524,79.543472 
	C201.235718,86.126640 197.437469,92.577560 193.385834,98.847351 
	C192.447998,100.298645 190.144714,101.604645 188.414307,101.678474 
	C181.113495,101.989975 173.781281,102.022606 166.484848,101.663513 
	C164.622253,101.571854 162.184525,100.104042 161.151840,98.523239 
	C157.161240,92.414696 153.712540,85.955254 149.887604,79.733727 
	C148.531326,77.527672 148.310440,75.835144 149.771942,73.475281 
	C154.227676,66.280739 158.375595,58.895550 163.066910,51.294769 
	C163.490509,51.004971 163.969742,50.904530 163.969742,50.904530 
z"/>
<path fill="#1F3238" opacity="1.000000" stroke="none" 
	d="
M163.874664,50.750023 
	C163.969742,50.904530 163.490509,51.004971 163.245697,51.004265 
	C163.260437,50.867546 163.520020,50.731529 163.874664,50.750023 
z"/>
<path fill="#CADB71" opacity="1.000000" stroke="none" 
	d="
M33.919197,51.222946 
	C42.490646,51.095760 50.659107,50.920979 58.813454,51.183891 
	C60.547623,51.239807 62.923470,52.454910 63.818378,53.880192 
	C67.972519,60.496284 71.793419,67.328865 75.514595,74.202522 
	C76.145012,75.367020 76.273628,77.421394 75.665833,78.537224 
	C71.848030,85.546227 67.865761,92.473976 63.656254,99.253746 
	C62.877995,100.507195 60.836853,101.628700 59.342720,101.675903 
	C51.686302,101.917816 44.012047,101.948174 36.359142,101.656227 
	C34.792736,101.596474 32.726727,100.196152 31.855766,98.808319 
	C27.791040,92.331398 23.981598,85.687874 20.293980,78.986641 
	C19.635946,77.790855 19.360205,75.694717 19.967127,74.603333 
	C24.328428,66.760780 28.963190,59.070309 33.919197,51.222946 
z"/>
<path fill="#8162AA" opacity="1.000000" stroke="none" 
	d="
M151.787415,143.781006 
	C154.600250,139.043900 157.635727,134.793671 159.680023,130.110748 
	C161.613373,125.681969 164.450989,124.571640 168.931992,124.810440 
	C175.397812,125.155014 181.905823,124.699623 188.373123,125.029953 
	C190.139206,125.120155 192.483139,126.371513 193.431839,127.826721 
	C197.507477,134.078262 201.328384,140.515396 204.846954,147.096161 
	C205.673737,148.642517 205.669617,151.395981 204.834412,152.936172 
	C201.197662,159.642822 197.202469,166.163452 193.107666,172.605576 
	C192.381531,173.747955 190.580566,174.825485 189.246933,174.861603 
	C181.438400,175.073013 173.612915,175.156662 165.813538,174.816208 
	C164.116577,174.742142 161.959427,173.123962 160.950394,171.597931 
	C157.659668,166.621246 155.086517,161.160919 151.691757,156.264938 
	C148.728882,151.991837 147.620895,148.187561 151.787415,143.781006 
z"/>
<path fill="#6389C5" opacity="1.000000" stroke="none" 
	d="
M90.284424,198.704407 
	C83.479584,190.922897 84.415810,184.286514 89.284721,175.429031 
	C95.049866,164.941132 101.334656,160.845978 113.516052,161.296402 
	C123.658020,161.671402 129.565750,164.038467 134.280762,173.381027 
	C141.234253,187.159042 141.322922,186.435715 134.225769,200.279480 
	C129.501190,209.495270 123.694901,214.033035 113.379669,211.911270 
	C113.219788,211.878387 113.041199,211.878143 112.881454,211.911331 
	C101.588875,214.258118 94.146339,209.911087 90.284424,198.704407 
z"/>
<path fill="#E7282B" opacity="1.000000" stroke="none" 
	d="
M106.116257,138.057983 
	C99.961662,139.099976 96.422523,136.867111 93.937927,131.585342 
	C91.471176,126.341484 87.870270,121.639114 85.250031,116.455002 
	C84.385139,114.743805 84.256287,111.875450 85.111725,110.217834 
	C88.540092,103.574570 92.353363,97.114471 96.348076,90.791199 
	C97.211617,89.424294 99.392632,88.177048 101.010490,88.120300 
	C108.827942,87.846085 116.664429,87.866974 124.483665,88.114815 
	C125.930946,88.160690 127.876137,89.392639 128.659088,90.655327 
	C132.602371,97.014771 136.424072,103.469254 139.848541,110.116989 
	C140.712067,111.793297 140.693008,114.687332 139.817001,116.360970 
	C136.504303,122.690056 132.847336,128.862671 128.916428,134.828445 
	C127.883720,136.395721 125.455673,137.778549 123.573166,137.913055 
	C117.939766,138.315567 112.259201,138.057877 106.116257,138.057983 
z"/>
<path fill="#97C93F" opacity="1.000000" stroke="none" 
	d="
M70.689468,160.691956 
	C66.545433,172.794907 58.601284,176.051682 46.262161,175.444290 
	C36.687328,174.972992 31.741306,172.221039 26.449732,164.143005 
	C19.639746,153.746979 19.775438,146.133591 26.432348,135.798782 
	C31.606215,127.766403 36.252171,123.085556 46.134247,124.723053 
	C51.481419,125.609093 58.020878,123.469955 62.229427,125.856918 
	C66.248596,128.136475 67.943176,134.515564 70.656273,139.094543 
	C70.825821,139.380676 70.912285,139.733002 71.128601,139.972000 
	C77.361252,146.858276 77.020798,153.650162 70.689468,160.691956 
z"/>
<path fill="#F7C419" opacity="1.000000" stroke="none" 
	d="
M128.389801,16.348301 
	C132.438553,23.289993 136.413269,29.833502 139.964294,36.599377 
	C140.757736,38.111145 140.740707,40.762264 139.938431,42.274139 
	C136.435440,48.875431 132.660339,55.349815 128.615128,61.632759 
	C127.679634,63.085739 125.322510,64.347244 123.565727,64.421379 
	C116.254028,64.729942 108.911339,64.763329 101.604256,64.404305 
	C99.743210,64.312866 97.317780,62.840378 96.274574,61.260818 
	C92.340210,55.303650 88.949730,48.990540 85.182892,42.917831 
	C83.726318,40.569611 83.442772,38.682556 85.016090,36.167191 
	C88.892365,29.969934 92.350349,23.511780 96.190559,17.290648 
	C97.021782,15.944064 98.722939,14.291294 100.072769,14.245845 
	C108.386848,13.965909 116.716339,14.038413 125.037041,14.191963 
	C126.089905,14.211393 127.121391,15.389243 128.389801,16.348301 
z"/>
</svg>