<svg version="1.1" id="Layer_1" xmlns="http://www.w3.org/2000/svg" xmlns:xlink="http://www.w3.org/1999/xlink" x="0px" y="0px"
	 width="100%" viewBox="0 0 216 233" enable-background="new 0 0 216 233" xml:space="preserve">
<path fill="#FEFFFF" opacity="1.000000" stroke="none" 
	d="
M1.000000,88.000000 
	C1.000000,58.666672 1.000000,29.833344 1.000000,1.000012 
	C72.999977,1.000008 144.999954,1.000008 216.999954,1.000004 
	C216.999969,78.666634 216.999969,156.333267 216.999985,233.999939 
	C145.000046,233.999954 73.000092,233.999954 1.000067,233.999969 
	C1.000000,185.500000 1.000000,137.000000 1.000000,88.000000 
M5.927244,122.772438 
	C5.966259,123.847336 6.005275,124.922234 5.898661,126.913933 
	C5.952862,130.941025 6.007064,134.968109 5.928090,139.887589 
	C5.971565,142.590561 6.015040,145.293533 5.927156,148.851181 
	C5.976856,150.575150 6.026557,152.299103 6.030297,154.494522 
	C6.030297,154.494522 6.182391,154.943100 6.254359,155.602036 
	C8.116001,157.097580 9.977643,158.593124 12.196725,160.666016 
	C18.406826,164.986206 24.616928,169.306396 31.127901,174.176071 
	C38.094677,179.111313 45.061451,184.046570 52.383663,189.545029 
	C56.910992,192.702850 61.438316,195.860672 66.339951,199.574142 
	C73.519325,204.562347 80.698700,209.550552 88.137032,215.116440 
	C94.170937,219.456161 100.120934,223.922134 106.306969,228.032944 
	C107.601341,228.893082 110.305229,229.237930 111.440956,228.466949 
	C118.131851,223.924973 124.550995,218.982681 131.684952,213.875626 
	C138.501831,208.942993 145.318710,204.010376 152.755219,198.817062 
	C156.537888,196.017746 160.320572,193.218445 164.759460,190.144882 
	C172.909348,184.251251 181.059235,178.357620 189.844208,172.163727 
	C194.892731,168.477127 199.941269,164.790543 205.643295,160.862000 
	C206.729141,160.104874 207.850647,159.393677 208.894684,158.582748 
	C213.622009,154.910950 213.621231,152.322830 208.895203,148.877258 
	C207.967453,148.200851 206.962204,147.630737 205.580002,146.489136 
	C199.565674,142.258804 193.551331,138.028458 187.096802,133.251358 
	C180.060577,128.174286 173.024368,123.097198 166.155029,117.369400 
	C168.177979,115.795181 170.200928,114.220963 172.860596,112.320747 
	C177.662872,108.823532 182.465149,105.326309 187.931137,101.531708 
	C193.621765,97.354980 199.312408,93.178246 205.661163,88.820152 
	C214.976837,82.136574 214.963730,81.200439 205.644196,74.501854 
	C175.008331,52.481758 144.326614,30.524479 113.823669,8.321677 
	C110.134323,5.636232 107.823654,5.870907 104.305168,8.427103 
	C75.664261,29.234858 46.874401,49.837540 18.137957,70.513863 
	C5.237869,79.795677 5.246233,79.807304 5.909236,96.912201 
	C5.963461,101.272179 6.017686,105.632156 5.911866,110.897400 
	C5.964656,114.270615 6.017447,117.643829 5.970505,121.498985 
	C5.970505,121.498985 6.081322,121.978508 5.927244,122.772438 
z"/>
<path fill="#08B1AE" opacity="1.000000" stroke="none" 
	d="
M6.070454,95.993973 
	C5.246233,79.807304 5.237869,79.795677 18.137957,70.513863 
	C46.874401,49.837540 75.664261,29.234858 104.305168,8.427103 
	C107.823654,5.870907 110.134323,5.636232 113.823669,8.321677 
	C144.326614,30.524479 175.008331,52.481758 205.644196,74.501854 
	C214.963730,81.200439 214.976837,82.136574 205.013367,88.748672 
	C201.581039,88.131554 198.796494,87.585915 196.211060,86.775848 
	C198.463394,84.903168 200.516632,83.294930 202.816925,81.493179 
	C190.905533,72.947159 179.334076,64.645020 167.717499,56.310516 
	C162.684036,60.107285 158.017731,63.627106 153.110504,67.328651 
	C159.867538,72.290749 166.006409,76.798882 172.637466,81.668457 
	C159.329025,91.748360 146.383163,101.553642 133.328827,111.441071 
	C137.676514,114.983620 141.882797,118.410957 145.941925,122.171661 
	C144.508499,123.014053 143.222229,123.523079 141.615158,123.926834 
	C138.113419,121.461693 134.807236,119.249466 131.793259,116.692795 
	C129.589615,114.823524 128.058792,115.058624 125.835136,116.775589 
	C116.043449,124.336151 106.092438,131.690384 95.865692,139.080383 
	C94.385063,138.089523 93.237900,137.137650 92.368034,135.990326 
	C96.721413,132.707199 100.797478,129.619537 105.130013,126.337601 
	C103.726387,125.205292 102.613373,124.231590 101.425110,123.360542 
	C88.947433,114.213860 76.467140,105.070663 63.966373,95.955589 
	C59.402710,92.627953 54.739994,86.741890 50.199669,86.815041 
	C45.416618,86.892105 40.725842,92.696243 35.663063,95.968262 
	C34.214222,94.944557 33.097065,93.950729 32.174511,92.686172 
	C36.631573,89.157341 40.894028,85.899239 45.497353,82.380577 
	C40.167805,78.463577 35.375782,74.941635 30.327614,71.231438 
	C25.563337,74.786385 20.857847,78.297470 15.978391,81.938370 
	C18.383888,83.866997 20.299704,85.403015 21.792759,86.957367 
	C18.859030,87.790680 16.348063,88.605659 13.452661,89.345200 
	C12.687602,91.511124 12.306978,93.752502 11.508070,95.997162 
	C9.416677,95.998283 7.743565,95.996132 6.070454,95.993973 
M118.438370,107.034729 
	C114.087730,103.857727 109.737091,100.680725 105.039597,97.250435 
	C118.421051,87.134506 131.335358,77.371719 144.655136,67.302422 
	C132.347931,58.277927 120.606407,49.668232 108.931328,41.107250 
	C90.415962,55.045269 72.366783,68.632347 54.070526,82.405426 
	C72.768883,96.091492 91.100830,109.509369 109.425095,122.921616 
	C114.589058,119.013580 119.347832,115.412178 124.451714,111.549606 
	C122.418640,110.020905 120.716194,108.740814 118.438370,107.034729 
M75.433632,59.941799 
	C85.064445,52.648472 94.695267,45.355145 104.631470,37.830555 
	C99.650246,34.193195 95.235565,30.969534 90.630013,27.606489 
	C71.918129,41.092983 53.373360,54.459030 34.488434,68.070244 
	C39.890282,72.067711 44.685246,75.616066 49.737591,79.354897 
	C58.175549,72.985161 66.524063,66.682953 75.433632,59.941799 
M123.215172,45.291569 
	C131.767776,51.558239 140.320389,57.824909 148.888336,64.102814 
	C153.784363,60.384048 158.353714,56.913391 163.333344,53.131119 
	C145.095993,39.993999 127.316544,27.186712 109.293564,14.204005 
	C104.534538,17.632732 99.879959,20.986216 94.932312,24.550840 
	C104.405594,31.515877 113.510513,38.210079 123.215172,45.291569 
M160.622177,84.196350 
	C161.665192,83.304276 162.708191,82.412201 163.925659,81.370926 
	C159.558365,78.157646 155.459137,75.332184 151.590576,72.220001 
	C149.450729,70.498535 147.997498,70.871887 145.992661,72.452553 
	C139.220352,77.792000 132.285522,82.925072 125.423721,88.151337 
	C121.530762,91.116402 117.659027,94.109322 113.514580,97.291756 
	C118.852676,101.194359 123.657677,104.707222 128.749847,108.430023 
	C139.243896,100.460106 149.660294,92.549164 160.622177,84.196350 
z"/>
<path fill="#37BDB8" opacity="1.000000" stroke="none" 
	d="
M141.935974,124.032104 
	C143.222229,123.523079 144.508499,123.014053 146.279724,122.188705 
	C148.846390,120.593300 150.928085,119.314224 153.301819,118.324944 
	C157.725281,118.416527 161.856705,118.218323 165.988144,118.020119 
	C173.024368,123.097198 180.060577,128.174286 186.867218,133.581177 
	C184.048599,134.626053 181.459549,135.341080 178.547424,135.962128 
	C172.973343,132.109802 167.622635,128.480545 162.515778,124.535614 
	C160.156189,122.712891 158.425308,122.609413 156.023712,124.430099 
	C151.154236,128.121719 146.059067,131.515594 140.691208,134.870758 
	C137.564011,134.162872 134.802551,133.616425 132.256714,132.815338 
	C135.626877,129.717804 138.781418,126.874954 141.935974,124.032104 
z"/>
<path fill="#8CD1CA" opacity="1.000000" stroke="none" 
	d="
M131.061676,214.175217 
	C124.550995,218.982681 118.131851,223.924973 111.440956,228.466949 
	C110.305229,229.237930 107.601341,228.893082 106.306969,228.032944 
	C100.120934,223.922134 94.170937,219.456161 88.039902,214.405365 
	C89.657471,212.456589 91.372154,211.218872 93.401382,210.096268 
	C98.754433,213.833939 103.792923,217.456497 108.719315,220.998459 
	C113.613022,217.789429 118.133560,214.825119 123.048447,211.895050 
	C126.180298,212.006653 129.607559,209.744156 131.061676,214.175217 
z"/>
<path fill="#44C0BB" opacity="1.000000" stroke="none" 
	d="
M6.058516,147.996506 
	C6.015040,145.293533 5.971565,142.590561 6.415470,139.444977 
	C8.588730,139.000504 10.274610,138.998657 12.026901,139.419159 
	C12.093312,141.851151 12.093312,143.860779 12.093312,146.595154 
	C18.912695,141.909821 24.752394,137.897583 31.034304,133.918549 
	C34.053757,134.674149 36.630997,135.396515 39.028900,136.407745 
	C32.957630,140.823608 27.065693,144.950607 20.779911,148.909485 
	C15.610217,148.493073 10.834366,148.244797 6.058516,147.996506 
z"/>
<path fill="#66C8C2" opacity="1.000000" stroke="none" 
	d="
M189.209122,172.463989 
	C181.059235,178.357620 172.909348,184.251251 164.348358,189.851807 
	C161.225662,189.022644 158.514053,188.486557 155.989410,187.659424 
	C163.968781,181.848648 171.761169,176.328918 180.026855,170.863678 
	C183.403137,171.433441 186.306137,171.948715 189.209122,172.463989 
z"/>
<path fill="#66C8C2" opacity="1.000000" stroke="none" 
	d="
M52.028225,188.981812 
	C45.061451,184.046570 38.094677,179.111313 31.057550,173.480728 
	C33.319031,171.922958 35.650864,171.060516 38.293861,170.305664 
	C46.499592,176.250122 54.394161,182.086975 61.831200,187.946106 
	C58.258522,188.306198 55.143375,188.643997 52.028225,188.981812 
z"/>
<path fill="#82CFC8" opacity="1.000000" stroke="none" 
	d="
M131.373322,214.025421 
	C129.607559,209.744156 126.180298,212.006653 123.266769,211.622955 
	C129.322098,206.860016 135.553436,202.403427 142.240265,197.962997 
	C145.842377,198.345367 148.988983,198.711548 152.135590,199.077728 
	C145.318710,204.010376 138.501831,208.942993 131.373322,214.025421 
z"/>
<path fill="#44C0BB" opacity="1.000000" stroke="none" 
	d="
M178.870514,136.056107 
	C181.459549,135.341080 184.048599,134.626053 187.087311,133.854553 
	C193.551331,138.028458 199.565674,142.258804 205.517731,147.035919 
	C203.202087,148.477478 200.948700,149.372238 198.372406,150.167496 
	C191.656509,145.397354 185.263519,140.726730 178.870514,136.056107 
z"/>
<path fill="#82CFC8" opacity="1.000000" stroke="none" 
	d="
M93.086838,209.981155 
	C91.372154,211.218872 89.657471,212.456589 87.910431,214.116516 
	C80.698700,209.550552 73.519325,204.562347 66.534668,199.129028 
	C69.914963,198.431137 73.100548,198.178329 76.590080,198.040176 
	C82.291634,202.096924 87.689240,206.039032 93.086838,209.981155 
z"/>
<path fill="#5CC6C0" opacity="1.000000" stroke="none" 
	d="
M37.982697,170.198074 
	C35.650864,171.060516 33.319031,171.922958 30.907114,173.205994 
	C24.616928,169.306396 18.406826,164.986206 12.391850,160.212372 
	C15.383554,159.200180 18.180134,158.641617 21.303120,158.173828 
	C27.080584,162.242432 32.531639,166.220245 37.982697,170.198074 
z"/>
<path fill="#5CC6C0" opacity="1.000000" stroke="none" 
	d="
M189.526672,172.313858 
	C186.306137,171.948715 183.403137,171.433441 180.249359,170.592056 
	C185.944977,166.051498 191.891388,161.837051 198.069885,157.958466 
	C200.531265,159.230896 202.760529,160.167419 204.989807,161.103958 
	C199.941269,164.790543 194.892731,168.477127 189.526672,172.313858 
z"/>
<path fill="#18B6B2" opacity="1.000000" stroke="none" 
	d="
M196.011963,87.040283 
	C198.796494,87.585915 201.581039,88.131554 204.684296,88.839355 
	C199.312408,93.178246 193.621765,97.354980 187.536041,101.235580 
	C186.245834,95.008354 182.079056,100.194771 180.029648,98.509811 
	C185.476364,94.497124 190.744171,90.768707 196.011963,87.040283 
z"/>
<path fill="#21B8B4" opacity="1.000000" stroke="none" 
	d="
M179.850739,98.794083 
	C182.079056,100.194771 186.245834,95.008354 187.204178,101.384277 
	C182.465149,105.326309 177.662872,108.823532 172.442047,112.038887 
	C169.535400,111.107582 167.047287,110.458138 164.764587,109.525436 
	C169.456955,106.127899 173.943893,103.013611 178.756226,99.833130 
	C179.367172,99.448174 179.652710,99.129410 179.910446,98.838120 
	C179.882660,98.865601 179.850739,98.794083 179.850739,98.794083 
z"/>
<path fill="#4EC2BD" opacity="1.000000" stroke="none" 
	d="
M20.976711,158.083069 
	C18.180134,158.641617 15.383554,159.200180 12.213131,159.923706 
	C9.977643,158.593124 8.116001,157.097580 6.356558,155.176392 
	C6.331258,154.508194 6.203759,154.265625 6.076259,154.023071 
	C6.026557,152.299103 5.976856,150.575150 5.992836,148.423843 
	C10.834366,148.244797 15.610217,148.493073 20.594402,149.197876 
	C19.162619,150.938034 17.522501,152.221710 15.634539,153.699371 
	C17.685038,155.381973 19.330873,156.732529 20.976711,158.083069 
z"/>
<path fill="#74CCC5" opacity="1.000000" stroke="none" 
	d="
M76.286133,197.925537 
	C73.100548,198.178329 69.914963,198.431137 66.347511,198.851212 
	C61.438316,195.860672 56.910992,192.702850 52.205948,189.263412 
	C55.143375,188.643997 58.258522,188.306198 62.139679,188.050598 
	C67.365837,191.397049 71.825989,194.661285 76.286133,197.925537 
z"/>
<path fill="#4EC2BD" opacity="1.000000" stroke="none" 
	d="
M205.316559,160.982971 
	C202.760529,160.167419 200.531265,159.230896 198.270416,157.710083 
	C199.513550,156.113541 200.788254,155.101273 202.272125,153.922897 
	C201.381607,152.899124 200.659317,152.068756 199.846039,150.968018 
	C199.444016,150.496887 199.132996,150.296143 198.816040,150.157288 
	C198.810089,150.219193 198.695312,150.267014 198.695312,150.267014 
	C200.948700,149.372238 203.202087,148.477478 205.724091,147.297150 
	C206.962204,147.630737 207.967453,148.200851 208.895203,148.877258 
	C213.621231,152.322830 213.622009,154.910950 208.894684,158.582748 
	C207.850647,159.393677 206.729141,160.104874 205.316559,160.982971 
z"/>
<path fill="#74CCC5" opacity="1.000000" stroke="none" 
	d="
M152.445404,198.947388 
	C148.988983,198.711548 145.842377,198.345367 142.439560,197.681473 
	C146.723053,194.239334 151.262756,191.094894 155.802444,187.950455 
	C158.514053,188.486557 161.225662,189.022644 164.020264,189.988953 
	C160.320572,193.218445 156.537888,196.017746 152.445404,198.947388 
z"/>
<path fill="#2CBBB6" opacity="1.000000" stroke="none" 
	d="
M164.559189,109.808685 
	C167.047287,110.458138 169.535400,111.107582 172.123688,112.201889 
	C170.200928,114.220963 168.177979,115.795181 166.071594,117.694763 
	C161.856705,118.218323 157.725281,118.416527 153.515228,118.067131 
	C157.144150,114.949249 160.851669,112.378967 164.559189,109.808685 
z"/>
<path fill="#2CBBB6" opacity="1.000000" stroke="none" 
	d="
M6.070236,121.017044 
	C6.017447,117.643829 5.964656,114.270615 6.409556,110.449104 
	C8.579705,109.997902 10.252165,109.995003 12.005074,110.445381 
	C12.031874,114.271889 11.978224,117.645111 11.767858,121.103699 
	C11.551641,121.290894 11.417443,121.446762 11.445373,121.485367 
	C11.577042,121.667435 11.753129,121.817375 11.990594,122.375687 
	C12.028623,123.847313 11.989429,124.922043 11.528353,125.999481 
	C9.419077,126.000504 7.731684,125.998817 6.044291,125.997131 
	C6.005275,124.922234 5.966259,123.847336 6.160054,122.287552 
	C6.285321,121.540794 6.177778,121.278923 6.070236,121.017044 
z"/>
<path fill="#18B6B2" opacity="1.000000" stroke="none" 
	d="
M11.924623,109.992096 
	C10.252165,109.995003 8.579705,109.997902 6.489579,109.996475 
	C6.017686,105.632156 5.963461,101.272179 5.989845,96.453087 
	C7.743565,95.996132 9.416677,95.998283 11.587141,96.370819 
	C12.031558,97.499306 11.978622,98.257416 11.768030,99.101501 
	C11.550683,99.290077 11.415902,99.447029 11.444114,99.486000 
	C11.576694,99.669144 11.754038,99.819885 11.992990,100.431763 
	C12.021925,103.918251 11.973274,106.955170 11.924623,109.992096 
z"/>
<path fill="#37BDB8" opacity="1.000000" stroke="none" 
	d="
M5.971476,126.455536 
	C7.731684,125.998817 9.419077,126.000504 11.600374,126.458237 
	C12.049683,130.941788 12.005086,134.969315 11.960490,138.996826 
	C10.274610,138.998657 8.588730,139.000504 6.482058,138.998779 
	C6.007064,134.968109 5.952862,130.941025 5.971476,126.455536 
z"/>
<path fill="#37BDB8" opacity="1.000000" stroke="none" 
	d="
M6.053279,154.258789 
	C6.203759,154.265625 6.331258,154.508194 6.320574,154.846924 
	C6.182391,154.943100 6.030297,154.494522 6.053279,154.258789 
z"/>
<path fill="#18B6B2" opacity="1.000000" stroke="none" 
	d="
M6.020370,121.258011 
	C6.177778,121.278923 6.285321,121.540794 6.237093,121.890594 
	C6.081322,121.978508 5.970505,121.498985 6.020370,121.258011 
z"/>
<path fill="#FDFEFE" opacity="1.000000" stroke="none" 
	d="
M118.726059,107.247726 
	C120.716194,108.740814 122.418640,110.020905 124.451714,111.549606 
	C119.347832,115.412178 114.589058,119.013580 109.425095,122.921616 
	C91.100830,109.509369 72.768883,96.091492 54.070526,82.405426 
	C72.366783,68.632347 90.415962,55.045269 108.931328,41.107250 
	C120.606407,49.668232 132.347931,58.277927 144.655136,67.302422 
	C131.335358,77.371719 118.421051,87.134506 105.039597,97.250435 
	C109.737091,100.680725 114.087730,103.857727 118.726059,107.247726 
z"/>
<path fill="#FBFEFE" opacity="1.000000" stroke="none" 
	d="
M164.764587,109.525436 
	C160.851669,112.378967 157.144150,114.949249 153.223206,117.777344 
	C150.928085,119.314224 148.846390,120.593300 146.426880,121.855331 
	C141.882797,118.410957 137.676514,114.983620 133.328827,111.441071 
	C146.383163,101.553642 159.329025,91.748360 172.637466,81.668457 
	C166.006409,76.798882 159.867538,72.290749 153.110504,67.328651 
	C158.017731,63.627106 162.684036,60.107285 167.717499,56.310516 
	C179.334076,64.645020 190.905533,72.947159 202.816925,81.493179 
	C200.516632,83.294930 198.463394,84.903168 196.211060,86.775848 
	C190.744171,90.768707 185.476364,94.497124 180.029648,98.509811 
	C179.850739,98.794083 179.882660,98.865601 179.598053,98.924500 
	C179.019226,99.288712 178.725021,99.594017 178.430832,99.899323 
	C173.943893,103.013611 169.456955,106.127899 164.764587,109.525436 
z"/>
<path fill="#FBFEFE" opacity="1.000000" stroke="none" 
	d="
M75.153099,60.161270 
	C66.524063,66.682953 58.175549,72.985161 49.737591,79.354897 
	C44.685246,75.616066 39.890282,72.067711 34.488434,68.070244 
	C53.373360,54.459030 71.918129,41.092983 90.630013,27.606489 
	C95.235565,30.969534 99.650246,34.193195 104.631470,37.830555 
	C94.695267,45.355145 85.064445,52.648472 75.153099,60.161270 
z"/>
<path fill="#FBFEFE" opacity="1.000000" stroke="none" 
	d="
M12.026901,139.419159 
	C12.005086,134.969315 12.049683,130.941788 12.022257,126.455521 
	C11.989429,124.922043 12.028623,123.847313 12.045035,122.136185 
	C12.022255,121.499771 11.924574,121.018341 11.924574,121.018341 
	C11.978224,117.645111 12.031874,114.271889 12.005074,110.445374 
	C11.973274,106.955170 12.021925,103.918251 12.050638,100.190681 
	C12.030701,99.500038 11.925688,99.015526 11.925688,99.015526 
	C11.978622,98.257416 12.031558,97.499306 12.005424,96.367538 
	C12.306978,93.752502 12.687602,91.511124 13.637986,89.609695 
	C19.103905,93.387474 24.000063,96.825302 29.069582,100.541580 
	C34.121113,104.235207 38.999287,107.650391 44.053490,111.353569 
	C46.397282,113.189064 48.656841,114.629601 50.669930,116.357330 
	C51.190189,116.803833 50.937119,118.151398 50.715630,119.179367 
	C43.792023,124.144234 37.192059,129.014786 30.592094,133.885345 
	C24.752394,137.897583 18.912695,141.909821 12.093312,146.595154 
	C12.093312,143.860779 12.093312,141.851151 12.026901,139.419159 
z"/>
<path fill="#FBFEFE" opacity="1.000000" stroke="none" 
	d="
M35.994747,95.998123 
	C40.725842,92.696243 45.416618,86.892105 50.199669,86.815041 
	C54.739994,86.741890 59.402710,92.627953 63.966373,95.955589 
	C76.467140,105.070663 88.947433,114.213860 101.425110,123.360542 
	C102.613373,124.231590 103.726387,125.205292 105.130013,126.337601 
	C100.797478,129.619537 96.721413,132.707199 92.040359,135.948730 
	C90.116600,135.362686 88.797813,134.622742 87.263527,133.595917 
	C80.091232,128.518997 73.134438,123.728996 66.031456,118.627785 
	C61.582710,115.223976 57.280140,112.131378 52.775669,108.771851 
	C47.703804,105.062172 42.833839,101.619431 37.790298,98.023361 
	C37.616726,97.870026 37.170448,97.745972 37.170319,97.740036 
	C37.170185,97.734108 37.200603,97.722359 37.066696,97.484100 
	C36.620106,96.829941 36.307426,96.414032 35.994747,95.998123 
z"/>
<path fill="#FBFEFE" opacity="1.000000" stroke="none" 
	d="
M122.915298,45.097923 
	C113.510513,38.210079 104.405594,31.515877 94.932312,24.550840 
	C99.879959,20.986216 104.534538,17.632732 109.293564,14.204005 
	C127.316544,27.186712 145.095993,39.993999 163.333344,53.131119 
	C158.353714,56.913391 153.784363,60.384048 148.888336,64.102814 
	C140.320389,57.824909 131.767776,51.558239 122.915298,45.097923 
z"/>
<path fill="#FBFEFE" opacity="1.000000" stroke="none" 
	d="
M160.349442,84.417282 
	C149.660294,92.549164 139.243896,100.460106 128.749847,108.430023 
	C123.657677,104.707222 118.852676,101.194359 113.514580,97.291756 
	C117.659027,94.109322 121.530762,91.116402 125.423721,88.151337 
	C132.285522,82.925072 139.220352,77.792000 145.992661,72.452553 
	C147.997498,70.871887 149.450729,70.498535 151.590576,72.220001 
	C155.459137,75.332184 159.558365,78.157646 163.925659,81.370926 
	C162.708191,82.412201 161.665192,83.304276 160.349442,84.417282 
z"/>
<path fill="#FBFEFE" opacity="1.000000" stroke="none" 
	d="
M141.615158,123.926834 
	C138.781418,126.874954 135.626877,129.717804 131.934723,132.917068 
	C125.604080,137.530930 119.811050,141.788376 113.699783,146.147797 
	C111.367989,147.618988 109.564308,149.934799 106.525597,147.444504 
	C102.929993,144.486511 99.564583,141.802948 96.199158,139.119385 
	C106.092438,131.690384 116.043449,124.336151 125.835136,116.775589 
	C128.058792,115.058624 129.589615,114.823524 131.793259,116.692795 
	C134.807236,119.249466 138.113419,121.461693 141.615158,123.926834 
z"/>
<path fill="#FBFEFE" opacity="1.000000" stroke="none" 
	d="
M22.215519,86.939034 
	C20.299704,85.403015 18.383888,83.866997 15.978391,81.938370 
	C20.857847,78.297470 25.563337,74.786385 30.327614,71.231438 
	C35.375782,74.941635 40.167805,78.463577 45.497353,82.380577 
	C40.894028,85.899239 36.631573,89.157341 31.831238,92.653938 
	C28.267412,90.907959 25.241467,88.923500 22.215519,86.939034 
z"/>
<path fill="#44C0BB" opacity="1.000000" stroke="none" 
	d="
M95.865700,139.080383 
	C99.564583,141.802948 102.929993,144.486511 106.029663,147.519379 
	C102.778862,148.282181 99.793793,148.695679 96.484222,149.016006 
	C90.362183,144.660278 84.564644,140.397705 79.125381,135.956238 
	C82.148766,135.145813 84.813896,134.514313 87.479027,133.882812 
	C88.797813,134.622742 90.116600,135.362686 91.763062,136.144196 
	C93.237900,137.137650 94.385063,138.089523 95.865700,139.080383 
z"/>
<path fill="#18B6B2" opacity="1.000000" stroke="none" 
	d="
M21.792759,86.957367 
	C25.241467,88.923500 28.267412,90.907959 31.636635,92.924667 
	C33.097065,93.950729 34.214222,94.944557 35.663063,95.968262 
	C36.307426,96.414032 36.620106,96.829941 36.633118,97.566963 
	C33.854378,98.679764 31.375298,99.471451 28.896221,100.263138 
	C24.000063,96.825302 19.103905,93.387474 14.022420,89.685143 
	C16.348063,88.605659 18.859030,87.790680 21.792759,86.957367 
z"/>
<path fill="#FEFFFF" opacity="1.000000" stroke="none" 
	d="
M78.767113,136.135147 
	C84.564644,140.397705 90.362183,144.660278 96.674316,149.297638 
	C97.987122,150.242233 98.791191,150.803986 99.582603,151.383041 
	C109.589989,158.705093 109.589523,158.705734 119.570435,150.605652 
	C126.947250,145.305374 134.002106,140.168793 141.056946,135.032227 
	C146.059067,131.515594 151.154236,128.121719 156.023712,124.430099 
	C158.425308,122.609413 160.156189,122.712891 162.515778,124.535614 
	C167.622635,128.480545 172.973343,132.109802 178.547424,135.962128 
	C185.263519,140.726730 191.656509,145.397354 198.372406,150.167496 
	C198.695312,150.267014 198.810089,150.219193 198.890045,150.434601 
	C199.292328,150.846130 199.614670,151.042267 199.937027,151.238403 
	C200.659317,152.068756 201.381607,152.899124 202.272125,153.922897 
	C200.788254,155.101273 199.513550,156.113541 198.038315,157.374207 
	C191.891388,161.837051 185.944977,166.051498 179.776062,170.537567 
	C171.761169,176.328918 163.968781,181.848648 155.989410,187.659424 
	C151.262756,191.094894 146.723053,194.239334 141.984070,197.665298 
	C135.553436,202.403427 129.322098,206.860016 122.872429,211.588715 
	C118.133560,214.825119 113.613022,217.789429 108.719315,220.998459 
	C103.792923,217.456497 98.754433,213.833939 93.401382,210.096268 
	C87.689240,206.039032 82.291634,202.096924 76.590088,198.040176 
	C71.825989,194.661285 67.365837,191.397049 62.597206,188.028320 
	C54.394161,182.086975 46.499592,176.250122 38.293861,170.305664 
	C32.531639,166.220245 27.080584,162.242432 21.303120,158.173828 
	C19.330873,156.732529 17.685038,155.381973 15.634539,153.699371 
	C17.522501,152.221710 19.162619,150.938034 20.988245,149.365982 
	C27.065693,144.950607 32.957630,140.823608 39.350800,136.312561 
	C45.121334,132.176590 50.520916,128.590851 55.606003,124.603973 
	C58.220955,122.553787 59.972649,122.805107 62.498962,124.728027 
	C67.764977,128.736267 73.326820,132.355865 78.767113,136.135147 
z"/>
<path fill="#44C0BB" opacity="1.000000" stroke="none" 
	d="
M140.691208,134.870758 
	C134.002106,140.168793 126.947250,145.305374 119.489288,150.181793 
	C117.396782,148.629700 115.707397,147.337769 114.018013,146.045837 
	C119.811050,141.788376 125.604080,137.530930 131.719101,133.171722 
	C134.802551,133.616425 137.564011,134.162872 140.691208,134.870758 
z"/>
<path fill="#37BDB8" opacity="1.000000" stroke="none" 
	d="
M79.125381,135.956238 
	C73.326820,132.355865 67.764977,128.736267 62.498962,124.728027 
	C59.972649,122.805107 58.220955,122.553787 55.606003,124.603973 
	C50.520916,128.590851 45.121334,132.176590 39.530132,136.023697 
	C36.630997,135.396515 34.053757,134.674149 31.034306,133.918549 
	C37.192059,129.014786 43.792023,124.144234 50.972614,119.428406 
	C56.428043,119.368423 61.302837,119.153717 66.177635,118.938995 
	C73.134438,123.728996 80.091232,128.518997 87.263527,133.595917 
	C84.813896,134.514313 82.148766,135.145813 79.125381,135.956238 
z"/>
<path fill="#18B6B2" opacity="1.000000" stroke="none" 
	d="
M178.756226,99.833130 
	C178.725021,99.594017 179.019226,99.288712 179.625824,98.897026 
	C179.652710,99.129410 179.367172,99.448174 178.756226,99.833130 
z"/>
<path fill="#44C0BB" opacity="1.000000" stroke="none" 
	d="
M199.846039,150.968018 
	C199.614670,151.042267 199.292328,150.846130 198.895981,150.372696 
	C199.132996,150.296143 199.444016,150.496887 199.846039,150.968018 
z"/>
<path fill="#18B6B2" opacity="1.000000" stroke="none" 
	d="
M11.767858,121.103699 
	C11.924574,121.018341 12.022255,121.499771 11.967813,121.739273 
	C11.753129,121.817375 11.577042,121.667435 11.445373,121.485367 
	C11.417443,121.446762 11.551641,121.290894 11.767858,121.103699 
z"/>
<path fill="#08B1AE" opacity="1.000000" stroke="none" 
	d="
M11.768030,99.101501 
	C11.925688,99.015526 12.030701,99.500038 11.973052,99.741119 
	C11.754038,99.819885 11.576694,99.669144 11.444114,99.486000 
	C11.415902,99.447029 11.550683,99.290077 11.768030,99.101501 
z"/>
<path fill="#21B8B4" opacity="1.000000" stroke="none" 
	d="
M29.069580,100.541580 
	C31.375298,99.471451 33.854378,98.679764 36.767029,97.805222 
	C37.200603,97.722359 37.170185,97.734108 37.168251,97.933426 
	C37.432171,98.147385 37.698021,98.162033 37.963875,98.176682 
	C42.833839,101.619431 47.703804,105.062172 52.504536,109.052536 
	C49.582687,110.088623 46.730072,110.577103 43.877457,111.065582 
	C38.999287,107.650391 34.121113,104.235207 29.069580,100.541580 
z"/>
<path fill="#2CBBB6" opacity="1.000000" stroke="none" 
	d="
M44.053490,111.353569 
	C46.730072,110.577103 49.582687,110.088623 52.706436,109.319458 
	C57.280140,112.131378 61.582710,115.223976 66.031456,118.627792 
	C61.302837,119.153717 56.428043,119.368423 51.296265,119.334099 
	C50.937119,118.151398 51.190189,116.803833 50.669930,116.357330 
	C48.656841,114.629601 46.397282,113.189064 44.053490,111.353569 
z"/>
<path fill="#18B6B2" opacity="1.000000" stroke="none" 
	d="
M37.790298,98.023354 
	C37.698021,98.162033 37.432171,98.147385 37.168381,97.939354 
	C37.170448,97.745972 37.616726,97.870026 37.790298,98.023354 
z"/>
<path fill="#4EC2BD" opacity="1.000000" stroke="none" 
	d="
M113.699783,146.147797 
	C115.707397,147.337769 117.396782,148.629700 119.167320,150.345490 
	C109.589523,158.705734 109.589989,158.705093 99.582603,151.383041 
	C98.791191,150.803986 97.987122,150.242233 96.998825,149.390808 
	C99.793793,148.695679 102.778862,148.282181 106.259857,147.793808 
	C109.564308,149.934799 111.367989,147.618988 113.699783,146.147797 
z"/>
</svg>