<svg version="1.1" id="Layer_1" xmlns="http://www.w3.org/2000/svg" xmlns:xlink="http://www.w3.org/1999/xlink" x="0px" y="0px"
	 width="100%" viewBox="0 0 1200 600" enable-background="new 0 0 1200 600" xml:space="preserve">
<path fill="#FFFFFF" opacity="1.000000" stroke="none" 
	d="
M717.000000,601.000000 
	C478.000000,601.000000 239.500031,601.000000 1.000032,601.000000 
	C1.000021,401.000031 1.000021,201.000046 1.000011,1.000059 
	C400.999969,1.000039 800.999939,1.000039 1201.000000,1.000020 
	C1201.000000,200.999939 1201.000000,400.999878 1201.000000,600.999878 
	C1039.833374,601.000000 878.666687,601.000000 717.000000,601.000000 
M220.234787,307.605652 
	C218.863052,319.814606 219.281586,331.777008 225.146591,343.702881 
	C230.084930,354.235413 237.568909,362.485077 247.513290,368.484802 
	C264.764069,378.892639 287.476929,378.821442 301.244873,368.427399 
	C303.450073,366.762543 305.339111,364.647095 303.245361,362.320984 
	C302.187927,361.146210 298.951141,360.813873 297.281006,361.505066 
	C290.354614,364.371735 283.421570,365.747772 275.912964,364.475616 
	C262.194092,362.151398 252.330139,354.499847 244.986526,342.209015 
	C239.120438,330.645050 240.316818,318.858307 244.270416,306.396240 
	C248.465927,295.733673 255.822418,287.703796 265.853577,281.114014 
	C274.501221,276.286652 283.733612,274.236572 293.652649,274.781128 
	C306.332886,275.477295 317.503815,280.177277 328.286926,287.597137 
	C341.656769,297.883484 349.426392,311.523285 352.458771,328.929382 
	C354.344482,344.377655 350.733459,358.848663 344.162292,373.331787 
	C338.083099,385.171265 329.866760,395.251740 318.879974,402.803864 
	C313.483215,406.513519 307.587158,409.496765 301.133911,412.890564 
	C286.979980,417.659393 272.538239,419.350861 257.704285,417.019958 
	C252.827744,416.253723 247.934067,415.596466 242.756683,414.248016 
	C219.349304,406.806427 200.013474,393.514526 184.789490,373.380066 
	C176.076721,361.490387 170.398331,348.212250 166.779892,333.198486 
	C166.515778,331.908875 166.246796,330.620239 165.988297,329.329498 
	C163.363785,316.224884 164.314316,303.111603 166.162384,289.252289 
	C168.855591,274.606873 173.790268,260.709473 180.709641,246.860489 
	C188.702011,232.162643 198.728668,218.960052 212.976929,210.046860 
	C255.194977,183.636856 299.011017,182.045639 343.613220,203.668716 
	C363.495422,213.307571 378.926270,228.392120 392.138123,246.682281 
	C401.371613,260.296783 408.105286,275.037628 412.422272,290.925446 
	C412.842896,292.473480 414.797760,293.604645 416.040436,294.929321 
	C416.998138,293.424011 418.775452,291.925018 418.787079,290.412415 
	C418.907318,274.807770 416.545837,259.592682 410.779083,244.273514 
	C403.366974,224.513168 392.296722,207.103027 377.465393,192.060165 
	C376.640045,191.223053 376.329803,189.363831 376.535950,188.104095 
	C378.457001,176.364960 376.442993,165.287415 371.582062,154.536911 
	C370.132782,151.331604 368.147461,150.137756 364.679352,150.277695 
	C353.700531,150.720688 343.269073,152.901611 333.632874,158.489639 
	C332.051147,159.406860 329.570862,159.642197 327.771271,159.173492 
	C317.009399,156.370636 306.379089,153.048691 295.579407,150.414383 
	C292.678314,149.706696 291.513580,148.544754 290.522369,145.970413 
	C284.613098,130.623093 274.160187,119.059761 260.130554,110.729294 
	C258.733795,109.899940 255.902756,109.913261 254.567596,110.794014 
	C239.653137,120.632439 228.986221,133.869720 223.012451,150.852829 
	C222.385849,152.634232 220.382996,154.356247 218.591522,155.234497 
	C206.678940,161.074463 194.691605,166.768433 182.617432,172.265778 
	C180.635040,173.168350 177.848526,173.650620 175.866547,173.002762 
	C152.736282,165.442139 129.983139,166.694733 107.371704,175.154465 
	C104.152542,176.358856 102.500031,177.892593 102.746445,181.579727 
	C103.101395,186.890839 102.589279,192.271973 103.111153,197.557678 
	C104.865707,215.327972 109.586876,232.153427 120.157913,247.744171 
	C122.543236,250.228653 122.050125,252.809891 121.265533,255.969986 
	C118.473991,267.213440 116.184792,278.581573 113.324875,290.504791 
	C112.139778,292.062622 111.281090,294.178711 109.719131,295.092041 
	C93.922447,304.329102 81.295197,316.600128 72.183807,333.291962 
	C70.146973,337.646088 67.958466,341.939392 66.172272,346.394043 
	C65.681709,347.617493 65.829613,349.835876 66.640869,350.730438 
	C76.988686,362.140686 88.666336,371.839264 103.530952,378.404205 
	C111.564590,380.999969 119.542900,383.790985 127.660324,386.091064 
	C130.716904,386.957153 132.669495,388.254120 134.579544,390.917389 
	C141.148895,400.077240 148.214050,408.881531 155.220261,418.662384 
	C153.887833,428.773468 152.555405,438.884552 151.092987,449.864685 
	C152.621414,457.826508 154.157227,465.786957 155.674622,473.750885 
	C156.270370,476.877594 158.015274,477.930084 161.267914,477.849579 
	C181.014587,477.360931 199.264145,472.240723 215.795898,461.198425 
	C217.426193,460.109497 220.147125,459.500275 221.966797,460.028717 
	C237.884720,464.651123 254.073441,466.963318 270.648926,467.071625 
	C273.062866,467.087402 275.464386,469.008301 278.098938,470.687164 
	C288.281494,482.685699 301.560028,489.290558 316.666565,492.538422 
	C318.075348,492.841278 320.525970,492.131561 321.274292,491.049316 
	C326.035828,484.163300 330.455139,477.040619 335.479706,469.486786 
	C337.234894,462.656128 338.990112,455.825439 340.935883,448.206116 
	C340.586975,445.285095 341.808868,443.414215 344.221619,441.618317 
	C354.254944,434.150024 363.255127,425.605927 370.718231,414.695923 
	C373.505432,408.980713 377.706635,406.480682 384.406952,406.755737 
	C388.669464,406.930725 393.356842,405.490540 397.285858,403.596619 
	C418.197021,393.516785 417.197998,395.179108 408.681274,373.707092 
	C408.569702,373.425751 408.240906,373.230591 407.940338,372.295166 
	C404.045319,367.149872 400.038086,362.083740 396.319855,356.813751 
	C395.116455,355.108154 394.129181,352.908508 393.975616,350.864777 
	C393.404022,343.258331 393.220306,335.622772 392.975128,327.169250 
	C390.667084,312.152832 385.642731,298.210358 376.223969,285.236298 
	C375.210785,283.983276 374.112396,282.789337 373.196991,281.468567 
	C351.835754,250.648926 305.596954,233.976257 268.631470,248.048477 
	C253.198944,253.923416 240.552597,263.448212 231.311752,278.175110 
	C225.864471,287.054443 221.482880,296.329956 220.234787,307.605652 
M565.500366,310.044037 
	C576.919250,310.044037 588.338196,310.044037 599.820435,310.044037 
	C597.205444,329.858246 581.517517,345.849213 561.869385,349.199219 
	C541.234802,352.717407 521.314697,342.717682 511.950745,324.140472 
	C502.052399,304.503021 505.918243,280.773987 521.455566,265.643433 
	C529.101196,258.198029 538.219666,253.638489 548.745056,252.177353 
	C565.285828,249.881226 578.874878,256.751068 591.323608,266.907776 
	C595.022705,262.351898 598.445496,258.136353 601.831177,253.966492 
	C576.047607,229.390610 540.440063,227.277603 514.169128,248.375031 
	C487.625763,269.691132 480.855469,306.910980 498.197144,336.181152 
	C514.666748,363.979462 549.251038,375.404785 579.052307,362.739410 
	C610.445618,349.397461 622.449768,316.108490 618.400085,294.554962 
	C594.322327,294.554962 570.267090,294.554962 546.304077,294.554962 
	C546.304077,299.875397 546.304077,304.805237 546.304077,310.044037 
	C552.557922,310.044037 558.529297,310.044037 565.500366,310.044037 
M687.929749,332.398987 
	C691.687134,347.474731 700.726379,358.229004 714.941895,364.296112 
	C732.377625,371.737640 748.330017,368.259491 763.416016,355.780212 
	C763.416016,360.009674 763.416016,363.250854 763.416016,366.649048 
	C768.540833,366.649048 773.164062,366.649048 778.046875,366.649048 
	C778.046875,336.985291 778.046875,307.448578 778.046875,277.875519 
	C772.911743,277.875519 768.132202,277.875519 762.868591,277.875519 
	C762.868591,281.321167 762.868591,284.523499 762.868591,288.045288 
	C742.776550,273.676178 724.680725,272.395081 707.430603,283.806396 
	C691.504028,294.342163 683.769043,313.133667 687.929749,332.398987 
M1054.181763,349.292999 
	C1061.250732,358.455170 1070.332764,364.527985 1081.679810,367.020630 
	C1096.695435,370.319153 1109.775024,365.961670 1122.012695,355.633606 
	C1122.012695,359.960938 1122.012695,363.201843 1122.012695,366.496033 
	C1127.173950,366.496033 1131.897217,366.496033 1136.672119,366.496033 
	C1136.672119,336.781219 1136.672119,307.400024 1136.672119,277.856262 
	C1131.638062,277.856262 1126.875732,277.856262 1121.806763,277.856262 
	C1121.643311,281.235229 1121.489258,284.421814 1121.340820,287.492798 
	C1120.685059,287.578156 1120.455200,287.680817 1120.364746,287.608704 
	C1119.324341,286.780151 1118.338989,285.879578 1117.274658,285.084290 
	C1108.234253,278.328766 1098.057739,275.135162 1086.842285,276.431793 
	C1051.047974,280.570038 1033.607788,318.842529 1054.181763,349.292999 
M896.807251,276.632751 
	C877.308472,274.087006 858.279358,284.538757 849.789612,302.457031 
	C841.060608,320.880280 845.137634,341.945618 860.316040,355.841003 
	C868.850220,363.653778 878.968384,367.797272 890.618530,368.061279 
	C902.458618,368.329590 912.473022,363.707397 922.014465,355.730896 
	C922.014465,359.883301 922.014465,363.123413 922.014465,366.553070 
	C927.151062,366.553070 931.879150,366.553070 936.806641,366.553070 
	C936.806641,336.872986 936.806641,307.467682 936.806641,277.845886 
	C931.848938,277.845886 927.069458,277.845886 921.759888,277.845886 
	C921.759888,281.206146 921.759888,284.414276 921.759888,288.737549 
	C914.263306,282.058990 906.658142,277.913422 896.807251,276.632751 
M1006.281921,298.041077 
	C1011.980835,302.446869 1014.365417,308.292542 1014.292725,315.439911 
	C1014.162292,328.260101 1014.257141,341.082550 1014.257690,353.904053 
	C1014.257874,358.020538 1014.257690,362.137054 1014.257690,366.380188 
	C1020.507812,366.380188 1026.193604,366.380188 1032.070557,366.380188 
	C1032.070557,348.181183 1032.356689,330.367676 1031.980835,312.568176 
	C1031.674805,298.076141 1024.702393,287.037964 1011.892944,280.358582 
	C999.389160,273.838562 986.881653,274.785339 974.952454,282.435669 
	C973.953735,283.076141 972.850952,283.554321 971.448059,284.290833 
	C971.262146,281.764069 971.120483,279.839081 970.978027,277.902374 
	C966.063721,277.902374 961.482849,277.902374 956.741089,277.902374 
	C956.741089,307.567261 956.741089,336.946320 956.741089,366.548340 
	C962.624268,366.548340 968.202637,366.548340 974.263733,366.548340 
	C974.263733,364.533295 974.263611,362.730652 974.263733,360.928009 
	C974.264587,345.775330 974.171936,330.621918 974.291016,315.470154 
	C974.429321,297.865814 990.384277,288.836884 1006.281921,298.041077 
M827.706360,242.036102 
	C808.391907,242.918365 796.898682,254.613007 796.816345,273.896240 
	C796.689819,303.553467 796.775391,333.211670 796.798157,362.869446 
	C796.799133,364.117981 797.072754,365.366333 797.207458,366.513428 
	C803.046692,366.513428 808.470276,366.513428 814.472168,366.513428 
	C814.472168,341.984772 814.472168,317.762390 814.472168,293.075562 
	C824.142090,293.075562 833.229553,293.075562 842.488403,293.075562 
	C842.488403,287.840942 842.488403,283.084961 842.488403,277.698853 
	C833.043457,277.698853 823.816589,277.698853 814.687012,277.698853 
	C813.278076,265.256683 818.792603,258.955200 830.542114,258.883636 
	C833.707703,258.864349 836.877747,258.970795 840.036926,258.826782 
	C841.049011,258.780640 842.609436,258.385681 842.937134,257.688660 
	C845.277344,252.711777 847.363647,247.615479 849.755127,242.033051 
	C841.977783,242.033051 835.319153,242.033051 827.706360,242.036102 
M676.283203,294.825104 
	C678.193115,294.283600 681.177734,294.313446 681.823120,293.099609 
	C684.342590,288.360718 686.121704,283.228149 688.364685,277.784119 
	C680.878296,277.784119 674.015686,277.119568 667.347534,277.973480 
	C660.849731,278.805603 654.550781,281.191101 648.268250,282.866913 
	C648.182861,281.694672 648.042969,279.775543 647.905151,277.883850 
	C643.033386,277.883850 638.590027,277.883850 634.022461,277.883850 
	C634.022461,307.513641 634.022461,336.892090 634.022461,366.474030 
	C639.863831,366.474030 645.418213,366.474030 651.491333,366.474030 
	C651.491333,364.399689 651.491211,362.606262 651.491333,360.812866 
	C651.492615,345.834167 651.520752,330.855408 651.484253,315.876801 
	C651.465454,308.144287 654.100037,301.441345 661.067993,297.964020 
	C665.303711,295.850220 670.569946,295.801544 676.283203,294.825104 
z"/>
<path fill="#F15B2A" opacity="1.000000" stroke="none" 
	d="
M391.992493,246.003235 
	C378.926270,228.392120 363.495422,213.307571 343.613220,203.668716 
	C299.011017,182.045639 255.194977,183.636856 212.976929,210.046860 
	C198.728668,218.960052 188.702011,232.162643 180.162170,246.734085 
	C177.826675,246.405319 176.039154,246.032669 174.250565,246.027313 
	C158.776047,245.980911 143.301056,245.954163 127.826935,246.045761 
	C125.210777,246.061249 122.598129,246.671265 119.983864,247.006592 
	C109.586876,232.153427 104.865707,215.327972 103.111153,197.557678 
	C102.589279,192.271973 103.101395,186.890839 102.746445,181.579727 
	C102.500031,177.892593 104.152542,176.358856 107.371704,175.154465 
	C129.983139,166.694733 152.736282,165.442139 175.866547,173.002762 
	C177.848526,173.650620 180.635040,173.168350 182.617432,172.265778 
	C194.691605,166.768433 206.678940,161.074463 218.591522,155.234497 
	C220.382996,154.356247 222.385849,152.634232 223.012451,150.852829 
	C228.986221,133.869720 239.653137,120.632439 254.567596,110.794014 
	C255.902756,109.913261 258.733795,109.899940 260.130554,110.729294 
	C274.160187,119.059761 284.613098,130.623093 290.522369,145.970413 
	C291.513580,148.544754 292.678314,149.706696 295.579407,150.414383 
	C306.379089,153.048691 317.009399,156.370636 327.771271,159.173492 
	C329.570862,159.642197 332.051147,159.406860 333.632874,158.489639 
	C343.269073,152.901611 353.700531,150.720688 364.679352,150.277695 
	C368.147461,150.137756 370.132782,151.331604 371.582062,154.536911 
	C376.442993,165.287415 378.457001,176.364960 376.535950,188.104095 
	C376.329803,189.363831 376.640045,191.223053 377.465393,192.060165 
	C392.296722,207.103027 403.366974,224.513168 410.340454,244.635040 
	C403.932037,245.332108 397.962250,245.667664 391.992493,246.003235 
z"/>
<path fill="#444345" opacity="1.000000" stroke="none" 
	d="
M565.000488,310.044037 
	C558.529297,310.044037 552.557922,310.044037 546.304077,310.044037 
	C546.304077,304.805237 546.304077,299.875397 546.304077,294.554962 
	C570.267090,294.554962 594.322327,294.554962 618.400085,294.554962 
	C622.449768,316.108490 610.445618,349.397461 579.052307,362.739410 
	C549.251038,375.404785 514.666748,363.979462 498.197144,336.181152 
	C480.855469,306.910980 487.625763,269.691132 514.169128,248.375031 
	C540.440063,227.277603 576.047607,229.390610 601.831177,253.966492 
	C598.445496,258.136353 595.022705,262.351898 591.323608,266.907776 
	C578.874878,256.751068 565.285828,249.881226 548.745056,252.177353 
	C538.219666,253.638489 529.101196,258.198029 521.455566,265.643433 
	C505.918243,280.773987 502.052399,304.503021 511.950745,324.140472 
	C521.314697,342.717682 541.234802,352.717407 561.869385,349.199219 
	C581.517517,345.849213 597.205444,329.858246 599.820435,310.044037 
	C588.338196,310.044037 576.919250,310.044037 565.000488,310.044037 
z"/>
<path fill="#F9B411" opacity="1.000000" stroke="none" 
	d="
M151.222961,448.995636 
	C152.555405,438.884552 153.887833,428.773468 155.407669,417.966064 
	C157.828720,416.846527 160.061111,416.062958 162.296204,416.055176 
	C187.345795,415.967834 212.395859,416.023651 237.445557,415.952087 
	C239.314102,415.946747 241.180725,415.259613 243.048233,414.889404 
	C247.934067,415.596466 252.827744,416.253723 257.704285,417.019958 
	C272.538239,419.350861 286.979980,417.659393 301.715271,413.214844 
	C304.295380,414.026062 306.291748,414.924896 308.293213,414.936462 
	C328.913086,415.055695 349.533813,415.031433 370.154297,415.047150 
	C363.255127,425.605927 354.254944,434.150024 344.221619,441.618317 
	C341.808868,443.414215 340.586975,445.285095 340.389221,448.601868 
	C276.969391,448.996979 214.096176,448.996307 151.222961,448.995636 
z"/>
<path fill="#434244" opacity="1.000000" stroke="none" 
	d="
M687.853149,331.976746 
	C683.769043,313.133667 691.504028,294.342163 707.430603,283.806396 
	C724.680725,272.395081 742.776550,273.676178 762.868591,288.045288 
	C762.868591,284.523499 762.868591,281.321167 762.868591,277.875519 
	C768.132202,277.875519 772.911743,277.875519 778.046875,277.875519 
	C778.046875,307.448578 778.046875,336.985291 778.046875,366.649048 
	C773.164062,366.649048 768.540833,366.649048 763.416016,366.649048 
	C763.416016,363.250854 763.416016,360.009674 763.416016,355.780212 
	C748.330017,368.259491 732.377625,371.737640 714.941895,364.296112 
	C700.726379,358.229004 691.687134,347.474731 687.853149,331.976746 
M729.013794,349.894135 
	C730.345581,349.940857 731.677368,350.029541 733.009094,350.027771 
	C744.818420,350.012054 754.902039,342.995483 759.160339,331.849335 
	C763.303650,321.004150 760.171326,308.647369 751.324951,300.939240 
	C742.529358,293.275360 729.861084,291.857971 719.606262,297.390228 
	C709.560364,302.809814 703.841919,313.831116 705.083252,325.380920 
	C706.375793,337.407318 714.748230,346.261047 729.013794,349.894135 
z"/>
<path fill="#434244" opacity="1.000000" stroke="none" 
	d="
M1053.986572,348.993286 
	C1033.607788,318.842529 1051.047974,280.570038 1086.842285,276.431793 
	C1098.057739,275.135162 1108.234253,278.328766 1117.274658,285.084290 
	C1118.338989,285.879578 1119.324341,286.780151 1120.364746,287.608704 
	C1120.455200,287.680817 1120.685059,287.578156 1121.340820,287.492798 
	C1121.489258,284.421814 1121.643311,281.235229 1121.806763,277.856262 
	C1126.875732,277.856262 1131.638062,277.856262 1136.672119,277.856262 
	C1136.672119,307.400024 1136.672119,336.781219 1136.672119,366.496033 
	C1131.897217,366.496033 1127.173950,366.496033 1122.012695,366.496033 
	C1122.012695,363.201843 1122.012695,359.960938 1122.012695,355.633606 
	C1109.775024,365.961670 1096.695435,370.319153 1081.679810,367.020630 
	C1070.332764,364.527985 1061.250732,358.455170 1053.986572,348.993286 
M1079.363770,347.378723 
	C1091.243652,352.291351 1102.773438,350.322693 1111.125366,341.955597 
	C1119.375366,333.690674 1121.704834,321.231049 1116.978638,310.648376 
	C1112.328125,300.235168 1101.772583,293.679749 1090.259033,294.054291 
	C1078.132568,294.448822 1067.112427,303.351990 1064.205688,315.103119 
	C1061.049683,327.861481 1066.534180,339.976715 1079.363770,347.378723 
z"/>
<path fill="#434244" opacity="1.000000" stroke="none" 
	d="
M897.236816,276.712311 
	C906.658142,277.913422 914.263306,282.058990 921.759888,288.737549 
	C921.759888,284.414276 921.759888,281.206146 921.759888,277.845886 
	C927.069458,277.845886 931.848938,277.845886 936.806641,277.845886 
	C936.806641,307.467682 936.806641,336.872986 936.806641,366.553070 
	C931.879150,366.553070 927.151062,366.553070 922.014465,366.553070 
	C922.014465,363.123413 922.014465,359.883301 922.014465,355.730896 
	C912.473022,363.707397 902.458618,368.329590 890.618530,368.061279 
	C878.968384,367.797272 868.850220,363.653778 860.316040,355.841003 
	C845.137634,341.945618 841.060608,320.880280 849.789612,302.457031 
	C858.279358,284.538757 877.308472,274.087006 897.236816,276.712311 
M911.865723,341.356293 
	C922.916809,328.179932 921.895081,310.805817 909.466064,300.551605 
	C897.314331,290.526093 879.859497,292.225739 869.830200,304.410950 
	C860.687805,315.518677 861.756287,332.458588 872.228027,342.426788 
	C883.161926,352.834839 899.217834,352.606232 911.865723,341.356293 
z"/>
<path fill="#F6921B" opacity="1.000000" stroke="none" 
	d="
M103.015732,377.926208 
	C88.666336,371.839264 76.988686,362.140686 66.640869,350.730438 
	C65.829613,349.835876 65.681709,347.617493 66.172272,346.394043 
	C67.958466,341.939392 70.146973,337.646088 72.848862,333.250671 
	C75.631149,333.472931 77.747993,333.962311 79.865685,333.965912 
	C108.833237,334.015411 137.800903,333.997803 166.768555,333.996704 
	C170.398331,348.212250 176.076721,361.490387 184.688538,374.051514 
	C182.731552,375.148651 180.876785,375.938232 179.019257,375.944794 
	C155.315750,376.028503 131.611633,375.962036 107.908440,376.082825 
	C106.274445,376.091125 104.646484,377.284149 103.015732,377.926208 
z"/>
<path fill="#F36C26" opacity="1.000000" stroke="none" 
	d="
M327.950226,287.018158 
	C317.503815,280.177277 306.332886,275.477295 293.652649,274.781128 
	C283.733612,274.236572 274.501221,276.286652 265.235229,280.868347 
	C256.333374,280.415131 248.040985,280.367310 239.771484,279.907715 
	C237.113281,279.759979 234.515427,278.526306 231.889954,277.789490 
	C240.552597,263.448212 253.198944,253.923416 268.631470,248.048477 
	C305.596954,233.976257 351.835754,250.648926 373.196991,281.468567 
	C374.112396,282.789337 375.210785,283.983276 375.914307,285.580383 
	C373.779724,285.949677 371.954376,285.959045 370.129852,286.002502 
	C356.069885,286.337341 342.010071,286.678772 327.950226,287.018158 
z"/>
<path fill="#464547" opacity="1.000000" stroke="none" 
	d="
M1005.975464,297.824402 
	C990.384277,288.836884 974.429321,297.865814 974.291016,315.470154 
	C974.171936,330.621918 974.264587,345.775330 974.263733,360.928009 
	C974.263611,362.730652 974.263733,364.533295 974.263733,366.548340 
	C968.202637,366.548340 962.624268,366.548340 956.741089,366.548340 
	C956.741089,336.946320 956.741089,307.567261 956.741089,277.902374 
	C961.482849,277.902374 966.063721,277.902374 970.978027,277.902374 
	C971.120483,279.839081 971.262146,281.764069 971.448059,284.290833 
	C972.850952,283.554321 973.953735,283.076141 974.952454,282.435669 
	C986.881653,274.785339 999.389160,273.838562 1011.892944,280.358582 
	C1024.702393,287.037964 1031.674805,298.076141 1031.980835,312.568176 
	C1032.356689,330.367676 1032.070557,348.181183 1032.070557,366.380188 
	C1026.193604,366.380188 1020.507812,366.380188 1014.257690,366.380188 
	C1014.257690,362.137054 1014.257874,358.020538 1014.257690,353.904053 
	C1014.257141,341.082550 1014.162292,328.260101 1014.292725,315.439911 
	C1014.365417,308.292542 1011.980835,302.446869 1005.975464,297.824402 
z"/>
<path fill="#FAC00F" opacity="1.000000" stroke="none" 
	d="
M151.157974,449.430176 
	C214.096176,448.996307 276.969391,448.996979 340.293945,448.996216 
	C338.990112,455.825439 337.234894,462.656128 334.765625,469.742645 
	C315.324921,470.014862 296.598297,470.031250 277.871643,470.047607 
	C275.464386,469.008301 273.062866,467.087402 270.648926,467.071625 
	C254.073441,466.963318 237.884720,464.651123 221.966797,460.028717 
	C220.147125,459.500275 217.426193,460.109497 215.795898,461.198425 
	C199.264145,472.240723 181.014587,477.360931 161.267914,477.849579 
	C158.015274,477.930084 156.270370,476.877594 155.674622,473.750885 
	C154.157227,465.786957 152.621414,457.826508 151.157974,449.430176 
z"/>
<path fill="#F58020" opacity="1.000000" stroke="none" 
	d="
M166.774231,333.597595 
	C137.800903,333.997803 108.833237,334.015411 79.865685,333.965912 
	C77.747993,333.962311 75.631149,333.472931 73.108002,333.036072 
	C81.295197,316.600128 93.922447,304.329102 109.719131,295.092041 
	C111.281090,294.178711 112.139778,292.062622 114.004517,290.232727 
	C131.754700,289.972717 148.825241,289.984833 165.895767,289.996918 
	C164.314316,303.111603 163.363785,316.224884 165.988297,329.329498 
	C166.246796,330.620239 166.515778,331.908875 166.774231,333.597595 
z"/>
<path fill="#F8A316" opacity="1.000000" stroke="none" 
	d="
M370.436279,414.871521 
	C349.533813,415.031433 328.913086,415.055695 308.293213,414.936462 
	C306.291748,414.924896 304.295380,414.026062 302.106873,413.173950 
	C307.587158,409.496765 313.483215,406.513519 318.879974,402.803864 
	C329.866760,395.251740 338.083099,385.171265 344.897339,373.140869 
	C366.426117,372.965027 387.219818,372.980103 408.013519,372.995178 
	C408.240906,373.230591 408.569702,373.425751 408.681274,373.707092 
	C417.197998,395.179108 418.197021,393.516785 397.285858,403.596619 
	C393.356842,405.490540 388.669464,406.930725 384.406952,406.755737 
	C377.706635,406.480682 373.505432,408.980713 370.436279,414.871521 
z"/>
<path fill="#F8A416" opacity="1.000000" stroke="none" 
	d="
M103.273338,378.165222 
	C104.646484,377.284149 106.274445,376.091125 107.908440,376.082825 
	C131.611633,375.962036 155.315750,376.028503 179.019257,375.944794 
	C180.876785,375.938232 182.731552,375.148651 184.784348,374.380981 
	C200.013474,393.514526 219.349304,406.806427 242.902466,414.568726 
	C241.180725,415.259613 239.314102,415.946747 237.445557,415.952087 
	C212.395859,416.023651 187.345795,415.967834 162.296204,416.055176 
	C160.061111,416.062958 157.828720,416.846527 155.342682,417.545532 
	C148.214050,408.881531 141.148895,400.077240 134.579544,390.917389 
	C132.669495,388.254120 130.716904,386.957153 127.660324,386.091064 
	C119.542900,383.790985 111.564590,380.999969 103.273338,378.165222 
z"/>
<path fill="#434244" opacity="1.000000" stroke="none" 
	d="
M828.183472,242.034576 
	C835.319153,242.033051 841.977783,242.033051 849.755127,242.033051 
	C847.363647,247.615479 845.277344,252.711777 842.937134,257.688660 
	C842.609436,258.385681 841.049011,258.780640 840.036926,258.826782 
	C836.877747,258.970795 833.707703,258.864349 830.542114,258.883636 
	C818.792603,258.955200 813.278076,265.256683 814.687012,277.698853 
	C823.816589,277.698853 833.043457,277.698853 842.488403,277.698853 
	C842.488403,283.084961 842.488403,287.840942 842.488403,293.075562 
	C833.229553,293.075562 824.142090,293.075562 814.472168,293.075562 
	C814.472168,317.762390 814.472168,341.984772 814.472168,366.513428 
	C808.470276,366.513428 803.046692,366.513428 797.207458,366.513428 
	C797.072754,365.366333 796.799133,364.117981 796.798157,362.869446 
	C796.775391,333.211670 796.689819,303.553467 796.816345,273.896240 
	C796.898682,254.613007 808.391907,242.918365 828.183472,242.034576 
z"/>
<path fill="#F36C25" opacity="1.000000" stroke="none" 
	d="
M166.029083,289.624603 
	C148.825241,289.984833 131.754700,289.972717 114.194771,289.931580 
	C116.184792,278.581573 118.473991,267.213440 121.265533,255.969986 
	C122.050125,252.809891 122.543236,250.228653 120.070892,247.375381 
	C122.598129,246.671265 125.210777,246.061249 127.826935,246.045761 
	C143.301056,245.954163 158.776047,245.980911 174.250565,246.027313 
	C176.039154,246.032669 177.826675,246.405319 179.889984,246.950226 
	C173.790268,260.709473 168.855591,274.606873 166.029083,289.624603 
z"/>
<path fill="#424143" opacity="1.000000" stroke="none" 
	d="
M675.828247,294.825134 
	C670.569946,295.801544 665.303711,295.850220 661.067993,297.964020 
	C654.100037,301.441345 651.465454,308.144287 651.484253,315.876801 
	C651.520752,330.855408 651.492615,345.834167 651.491333,360.812866 
	C651.491211,362.606262 651.491333,364.399689 651.491333,366.474030 
	C645.418213,366.474030 639.863831,366.474030 634.022461,366.474030 
	C634.022461,336.892090 634.022461,307.513641 634.022461,277.883850 
	C638.590027,277.883850 643.033386,277.883850 647.905151,277.883850 
	C648.042969,279.775543 648.182861,281.694672 648.268250,282.866913 
	C654.550781,281.191101 660.849731,278.805603 667.347534,277.973480 
	C674.015686,277.119568 680.878296,277.784119 688.364685,277.784119 
	C686.121704,283.228149 684.342590,288.360718 681.823120,293.099609 
	C681.177734,294.313446 678.193115,294.283600 675.828247,294.825134 
z"/>
<path fill="#F6911C" opacity="1.000000" stroke="none" 
	d="
M407.976929,372.645172 
	C387.219818,372.980103 366.426117,372.965027 345.138611,372.914551 
	C350.733459,358.848663 354.344482,344.377655 352.982910,328.464661 
	C366.635071,327.999329 379.763031,327.998749 392.891022,327.998138 
	C393.220306,335.622772 393.404022,343.258331 393.975616,350.864777 
	C394.129181,352.908508 395.116455,355.108154 396.319855,356.813751 
	C400.038086,362.083740 404.045319,367.149872 407.976929,372.645172 
z"/>
<path fill="#F47D21" opacity="1.000000" stroke="none" 
	d="
M392.933075,327.583679 
	C379.763031,327.998749 366.635071,327.999329 352.990845,327.995117 
	C349.426392,311.523285 341.656769,297.883484 328.118591,287.307648 
	C342.010071,286.678772 356.069885,286.337341 370.129852,286.002502 
	C371.954376,285.959045 373.779724,285.949677 376.120361,285.883423 
	C385.642731,298.210358 390.667084,312.152832 392.933075,327.583679 
z"/>
<path fill="#F7961D" opacity="1.000000" stroke="none" 
	d="
M245.120941,342.956787 
	C252.330139,354.499847 262.194092,362.151398 275.912964,364.475616 
	C283.421570,365.747772 290.354614,364.371735 297.281006,361.505066 
	C298.951141,360.813873 302.187927,361.146210 303.245361,362.320984 
	C305.339111,364.647095 303.450073,366.762543 301.244873,368.427399 
	C287.476929,378.821442 264.764069,378.892639 247.513290,368.484802 
	C237.568909,362.485077 230.084930,354.235413 225.588791,343.350342 
	C232.394302,342.984100 238.757629,342.970428 245.120941,342.956787 
z"/>
<path fill="#FBC80E" opacity="1.000000" stroke="none" 
	d="
M277.985291,470.367371 
	C296.598297,470.031250 315.324921,470.014862 334.519348,469.997192 
	C330.455139,477.040619 326.035828,484.163300 321.274292,491.049316 
	C320.525970,492.131561 318.075348,492.841278 316.666565,492.538422 
	C301.560028,489.290558 288.281494,482.685699 277.985291,470.367371 
z"/>
<path fill="#F47723" opacity="1.000000" stroke="none" 
	d="
M231.600861,277.982300 
	C234.515427,278.526306 237.113281,279.759979 239.771484,279.907715 
	C248.040985,280.367310 256.333374,280.415131 264.886108,280.971313 
	C255.822418,287.703796 248.465927,295.733673 243.613068,306.697510 
	C235.512772,306.971252 228.069855,306.943726 220.626923,306.916168 
	C221.482880,296.329956 225.864471,287.054443 231.600861,277.982300 
z"/>
<path fill="#F58520" opacity="1.000000" stroke="none" 
	d="
M220.430847,307.260925 
	C228.069855,306.943726 235.512772,306.971252 243.415741,306.997925 
	C240.316818,318.858307 239.120438,330.645050 245.053741,342.582886 
	C238.757629,342.970428 232.394302,342.984100 225.570068,342.996063 
	C219.281586,331.777008 218.863052,319.814606 220.430847,307.260925 
z"/>
<path fill="#F36E2A" opacity="1.000000" stroke="none" 
	d="
M392.065308,246.342743 
	C397.962250,245.667664 403.932037,245.332108 410.356750,244.995270 
	C416.545837,259.592682 418.907318,274.807770 418.787079,290.412415 
	C418.775452,291.925018 416.998138,293.424011 416.040436,294.929321 
	C414.797760,293.604645 412.842896,292.473480 412.422272,290.925446 
	C408.105286,275.037628 401.371613,260.296783 392.065308,246.342743 
z"/>
<path fill="#FDFDFD" opacity="1.000000" stroke="none" 
	d="
M728.583862,349.835938 
	C714.748230,346.261047 706.375793,337.407318 705.083252,325.380920 
	C703.841919,313.831116 709.560364,302.809814 719.606262,297.390228 
	C729.861084,291.857971 742.529358,293.275360 751.324951,300.939240 
	C760.171326,308.647369 763.303650,321.004150 759.160339,331.849335 
	C754.902039,342.995483 744.818420,350.012054 733.009094,350.027771 
	C731.677368,350.029541 730.345581,349.940857 728.583862,349.835938 
z"/>
<path fill="#FDFDFD" opacity="1.000000" stroke="none" 
	d="
M1079.017944,347.218872 
	C1066.534180,339.976715 1061.049683,327.861481 1064.205688,315.103119 
	C1067.112427,303.351990 1078.132568,294.448822 1090.259033,294.054291 
	C1101.772583,293.679749 1112.328125,300.235168 1116.978638,310.648376 
	C1121.704834,321.231049 1119.375366,333.690674 1111.125366,341.955597 
	C1102.773438,350.322693 1091.243652,352.291351 1079.017944,347.218872 
z"/>
<path fill="#FDFDFD" opacity="1.000000" stroke="none" 
	d="
M911.616699,341.612915 
	C899.217834,352.606232 883.161926,352.834839 872.228027,342.426788 
	C861.756287,332.458588 860.687805,315.518677 869.830200,304.410950 
	C879.859497,292.225739 897.314331,290.526093 909.466064,300.551605 
	C921.895081,310.805817 922.916809,328.179932 911.616699,341.612915 
z"/>
</svg>