<?xml version="1.0" encoding="UTF-8" standalone="no"?>
<!-- Created with Inkscape (http://www.inkscape.org/) -->

<svg
   version="1.1"
   id="svg2"
   width="4275.9199"
   height="4614.8267"
   viewBox="0 0 4275.9199 4614.8267"
   sodipodi:docname="vecteezy_construction-project-vector-icon_30384108.eps"
   xmlns:inkscape="http://www.inkscape.org/namespaces/inkscape"
   xmlns:sodipodi="http://sodipodi.sourceforge.net/DTD/sodipodi-0.dtd"
   xmlns="http://www.w3.org/2000/svg"
   xmlns:svg="http://www.w3.org/2000/svg">
  <defs
     id="defs6" />
  <sodipodi:namedview
     id="namedview4"
     pagecolor="#ffffff"
     bordercolor="#000000"
     borderopacity="0.25"
     inkscape:showpageshadow="2"
     inkscape:pageopacity="0.0"
     inkscape:pagecheckerboard="0"
     inkscape:deskcolor="#d1d1d1" />
  <g
     id="g8"
     inkscape:groupmode="layer"
     inkscape:label="ink_ext_XXXXXX"
     transform="matrix(1.3333333,0,0,-1.3333333,0,4614.8267)">
    <g
       id="g10"
       transform="scale(0.1)">
      <path
         d="m 14491.3,17807.4 c 258.2,852.6 1158.6,1334.5 2011.2,1076.3 852.6,-258.1 1334.5,-1158.6 1076.3,-2011.2 -258.1,-852.5 -1158.6,-1334.4 -2011.2,-1076.3 -852.6,258.2 -1334.4,1158.6 -1076.3,2011.2"
         style="fill:#fabb0a;fill-opacity:1;fill-rule:evenodd;stroke:none"
         id="path12" />
      <path
         d="m 9292.36,20766.1 v -4711.4 h 2761.44 v -488 c 0,-908.4 743.1,-1651.6 1651.6,-1651.6 h 2328.5 2328.5 c 908.4,0 1651.5,743.2 1651.5,1651.6 v 488 h 2761.5 v 4711.4 h -1409.1 -2640.2 -5386 -2640.2 z m 8355.24,-3425.9 c 0,-890.3 -721.8,-1612.9 -1612.9,-1612.9 -890.4,0 -1613,721.8 -1613,1612.9 0,890.3 721.9,1613 1613,1613 890.3,0 1612.9,-722.7 1612.9,-1613 v 0"
         style="fill:#f9a50d;fill-opacity:1;fill-rule:evenodd;stroke:none"
         id="path14" />
      <path
         d="m 22777,20766.1 v -4711.4 h 3225.1 v 4711.4 H 24584.3 22777"
         style="fill:#fabb0a;fill-opacity:1;fill-rule:evenodd;stroke:none"
         id="path16" />
      <path
         d="m 26002.1,20766.1 v -4711.4 h 3959.6 v 4711.4 h -1784.6 -2175"
         style="fill:#f9a50d;fill-opacity:1;fill-rule:evenodd;stroke:none"
         id="path18" />
      <path
         d="m 9292.36,16054.7 v 4711.4 H 6067.24 v -4711.4 h 3225.12"
         style="fill:#fabb0a;fill-opacity:1;fill-rule:evenodd;stroke:none"
         id="path20" />
      <path
         d="m 6067.24,16054.7 v 4711.4 H 2107.66 v -4711.4 h 2645.76 1313.82"
         style="fill:#f9a50d;fill-opacity:1;fill-rule:evenodd;stroke:none"
         id="path22" />
      <path
         d="M 3892.23,20766.1 H 10702.2 C 11750,25958.4 9844.18,29050.5 7917.92,30782.3 5446.15,28316.8 3892.23,24742.2 3892.23,20766.1"
         style="fill:#f9a50d;fill-opacity:1;fill-rule:evenodd;stroke:none"
         id="path24" />
      <path
         d="m 14927.1,24391.1 v 6217.2 c 0,609.3 498.3,1107.6 1107.6,1107.6 609.2,0 1107.5,-498.3 1107.5,-1107.6 v -6217.2 c 0,-609.3 -498.3,-1107.6 -1107.5,-1107.6 -609.3,0 -1107.6,498.3 -1107.6,1107.6 z m -7009.96,6391.2 c 1926.26,-1731 3832.06,-4823.9 2784.26,-10016.2 h 2640.3 5385.9 2640.3 c -1047.8,5192.3 858,8284.4 2784.3,10016.2 -2151.4,2145.1 -4997.1,3451 -8117.5,3451 -3120.5,0 -5966.2,-1305.9 -8117.56,-3451 v 0"
         style="fill:#fabb0a;fill-opacity:1;fill-rule:evenodd;stroke:none"
         id="path26" />
      <path
         d="m 14927.1,30608.3 v -6217.2 c 0,-609.3 498.3,-1107.6 1107.6,-1107.6 609.2,0 1107.5,498.3 1107.5,1107.6 v 6217.2 c 0,609.3 -498.3,1107.6 -1107.5,1107.6 -609.3,0 -1107.6,-498.3 -1107.6,-1107.6"
         style="fill:#f9a50d;fill-opacity:1;fill-rule:evenodd;stroke:none"
         id="path28" />
      <path
         d="m 24152.2,30782.3 c -1926.3,-1731 -3832.1,-4823.9 -2784.3,-10016.2 h 1409.1 1808.1 1417.8 2175 c -0.8,3976.1 -1554.7,7550.7 -4025.7,10016.2"
         style="fill:#f9a50d;fill-opacity:1;fill-rule:evenodd;stroke:none"
         id="path30" />
      <path
         d="M 16034.7,9407.7 H 12817.4 V 543.102 h 6434.5 V 9407.7 h -3217.2"
         style="fill:#e2f1fb;fill-opacity:1;fill-rule:evenodd;stroke:none"
         id="path32" />
      <path
         d="m 25887.2,4892.41 c 0,789.5 639.9,1429.5 1429.5,1429.5 789.5,0 1429.5,-640 1429.5,-1429.5 0,-789.61 -640,-1429.61 -1429.5,-1429.61 -789.6,0 -1429.5,640.81 -1429.5,1429.61 z m -1815.3,0 c 0,-257.5 29.9,-508.61 87.4,-748.71 l -1217.8,-702.9 930.4,-1611.4 1218.6,703.7 c 362.9,-342.4 805.3,-603 1296.5,-749.4 V 377.801 h 1860.2 V 1783.7 c 491.2,146.4 932.8,407 1296.5,749.4 l 1218.5,-703.7 930.5,1611.4 -1217.8,702.9 c 56.7,240.1 86.6,491.21 86.6,748.71 0,257.39 -29.9,508.49 -86.6,748.59 l 1217.8,702.9 -930.5,1611.4 -1218.5,-703.69 C 29180.8,7594 28738.4,7853.8 28247.2,8001 v 1405.91 h -930.5 -930.5 V 8001 c -491.2,-146.39 -932.8,-407 -1296.5,-749.39 l -1218.5,703.69 -929.7,-1610.6 1217.8,-702.9 c -57.5,-240.9 -87.4,-491.3 -87.4,-749.39 v 0"
         style="fill:#c5cfd2;fill-opacity:1;fill-rule:evenodd;stroke:none"
         id="path34" />
      <path
         d="m 27315.9,6321.91 c 789.5,0 1429.5,-640 1429.5,-1429.5 0,-789.61 -640,-1429.61 -1429.5,-1429.61 -789.5,0 -1429.5,640 -1429.5,1429.61 0,789.5 640,1429.5 1429.5,1429.5"
         style="fill:#ffffff;fill-opacity:1;fill-rule:evenodd;stroke:none"
         id="path36" />
      <path
         d="m 4753.42,6321.91 c 789.51,0 1429.54,-640 1429.54,-1429.5 0,-789.61 -640.03,-1429.61 -1429.54,-1429.61 -789.52,0 -1429.54,640 -1429.54,1429.61 0,789.5 640.02,1429.5 1429.54,1429.5"
         style="fill:#ffffff;fill-opacity:1;fill-rule:evenodd;stroke:none"
         id="path38" />
      <path
         d="M 6979.59,7252.41 C 6616.7,7594.8 6174.3,7854.61 5683.09,8001.8 V 9407.7 H 4752.63 3822.95 V 8001.8 c -491.2,-146.5 -932.82,-407 -1296.5,-749.39 L 1307.87,7956.11 377.414,6344.7 1595.2,5641.8 c -56.68,-240.1 -86.59,-491.3 -86.59,-748.7 0,-257.4 29.91,-508.49 87.38,-748.6 L 378.199,3441.61 1308.67,1830.2 2527.23,2533.9 c 362.9,-342.4 805.3,-603 1296.51,-749.4 V 378.602 H 5683.88 V 1784.5 c 491.2,146.4 932.82,407 1296.5,749.4 l 1218.57,-703.7 930.46,1611.41 -1217.79,702.89 c 56.68,240.11 86.6,491.2 86.6,748.6 0,257.4 -29.92,508.6 -86.6,748.7 l 1217.79,702.9 -930.46,1611.41 z m -2226.17,-930.5 c 789.55,0 1429.54,-640 1429.54,-1429.5 0,-789.61 -639.99,-1429.61 -1429.54,-1429.61 -789.56,0 -1429.54,640 -1429.54,1429.61 0,789.5 639.98,1429.5 1429.54,1429.5 v 0"
         style="fill:#c5cfd2;fill-opacity:1;fill-rule:evenodd;stroke:none"
         id="path40" />
      <path
         d="m 2485.52,16432.6 h 9569.08 c 208.6,0 377.9,-169.3 377.9,-377.9 v -488.8 c 0,-702.2 571.5,-1273.7 1273.6,-1273.7 H 18364 c 702.1,0 1273.6,571.5 1273.6,1273.7 v 488.8 c 0,208.6 169.3,377.9 377.9,377.9 h 9569.1 v 3955.6 H 2485.52 Z M 18363.2,13536.5 h -4657.8 c -1118.6,0 -2029.4,910 -2029.4,2029.4 v 111 H 2107.66 c -208.6,0 -377.85,169.2 -377.85,377.8 v 4711.4 c 0,208.6 169.25,377.8 377.85,377.8 H 29962.4 c 208.6,0 377.9,-169.2 377.9,-377.8 v -4711.4 c 0,-208.6 -169.3,-377.8 -377.9,-377.8 h -9569.8 v -111 c 0,-1118.6 -910,-2029.4 -2029.4,-2029.4"
         style="fill:#100f0d;fill-opacity:1;fill-rule:nonzero;stroke:none"
         id="path42" />
      <path
         d="m 28177.1,20388.2 c -208.6,0 -377.9,169.3 -377.9,377.9 0,7217.7 -5277.3,13089.4 -11764.5,13089.4 -6487.28,0 -11764.62,-5871.7 -11764.62,-13089.4 0,-208.6 -169.25,-377.9 -377.85,-377.9 -208.61,0 -377.86,169.3 -377.86,377.9 0,7634.2 5616.62,13845.1 12520.33,13845.1 6903.6,0 12520.2,-6210.9 12520.2,-13845.1 0,-208.6 -169.2,-377.9 -377.8,-377.9"
         style="fill:#100f0d;fill-opacity:1;fill-rule:nonzero;stroke:none"
         id="path44" />
      <path
         d="m 7484.18,20388.2 c -85.01,0 -170.03,28.4 -240.09,86.6 -160.59,133 -183.42,370.8 -51.17,532.2 485.7,588.8 753.34,1333.5 753.34,2098.6 0,1639.7 -1223.29,3044.1 -2844.9,3266.9 -207.04,28.3 -351.09,218.8 -322.75,425.8 28.34,207.1 218.83,351.1 425.87,322.8 1993.95,-274 3498.28,-2000.3 3498.28,-4015.5 0,-939.9 -329.05,-1856.2 -926.53,-2579.6 -74.78,-91.3 -182.63,-137.8 -292.05,-137.8"
         style="fill:#100f0d;fill-opacity:1;fill-rule:nonzero;stroke:none"
         id="path46" />
      <path
         d="m 24585.1,20388.2 c -108.6,0 -216.4,46.5 -291.2,137 -597.5,723.4 -926.6,1639.7 -926.6,2579.6 0,2016 1503.6,3742.3 3498.3,4015.5 206.3,28.3 397.6,-116.5 425.9,-322.8 28.3,-206.2 -116.5,-397.5 -322.7,-425.8 -1622.4,-222.8 -2845,-1627.2 -2845,-3266.9 0,-764.3 267.7,-1509.8 753.4,-2098.6 133,-160.6 110.2,-399.1 -51.2,-532.2 -71.6,-57.4 -156.6,-85.8 -240.9,-85.8"
         style="fill:#100f0d;fill-opacity:1;fill-rule:nonzero;stroke:none"
         id="path48" />
      <path
         d="m 13341.7,20388.2 c -208.6,0 -377.9,169.3 -377.9,377.9 v 13134.3 c 0,208.6 169.3,377.8 377.9,377.8 208.6,0 377.8,-169.2 377.8,-377.8 V 20766.1 c 0,-208.6 -169.2,-377.9 -377.8,-377.9 z m 5385.9,0 c -208.6,0 -377.8,169.3 -377.8,377.9 v 13134.3 c 0,208.6 169.2,377.8 377.8,377.8 208.6,0 377.9,-169.2 377.9,-377.8 V 20766.1 c 0,-208.6 -169.3,-377.9 -377.9,-377.9"
         style="fill:#100f0d;fill-opacity:1;fill-rule:nonzero;stroke:none"
         id="path50" />
      <path
         d="m 6067.24,15676.9 c -208.61,0 -377.85,169.2 -377.85,377.8 v 4711.4 c 0,208.6 169.24,377.8 377.85,377.8 208.6,0 377.85,-169.2 377.85,-377.8 v -4711.4 c 0,-209.4 -169.25,-377.8 -377.85,-377.8"
         style="fill:#100f0d;fill-opacity:1;fill-rule:nonzero;stroke:none"
         id="path52" />
      <path
         d="m 9292.36,15676.9 c -208.6,0 -377.85,169.2 -377.85,377.8 v 4711.4 c 0,208.6 169.25,377.8 377.85,377.8 208.61,0 377.85,-169.2 377.85,-377.8 v -4711.4 c 0,-209.4 -169.24,-377.8 -377.85,-377.8"
         style="fill:#100f0d;fill-opacity:1;fill-rule:nonzero;stroke:none"
         id="path54" />
      <path
         d="m 22777,15676.9 c -208.6,0 -377.9,169.2 -377.9,377.8 v 4711.4 c 0,208.6 169.3,377.8 377.9,377.8 208.6,0 377.8,-169.2 377.8,-377.8 v -4711.4 c 0,-209.4 -169.2,-377.8 -377.8,-377.8"
         style="fill:#100f0d;fill-opacity:1;fill-rule:nonzero;stroke:none"
         id="path56" />
      <path
         d="m 26002.1,15676.9 c -208.6,0 -377.9,169.2 -377.9,377.8 v 4711.4 c 0,208.6 169.3,377.8 377.9,377.8 208.6,0 377.8,-169.2 377.8,-377.8 v -4711.4 c 0,-209.4 -169.2,-377.8 -377.8,-377.8"
         style="fill:#100f0d;fill-opacity:1;fill-rule:nonzero;stroke:none"
         id="path58" />
      <path
         d="m 16034.7,18575.3 c -681,0 -1235.1,-554.2 -1235.1,-1235.1 0,-680.9 554.1,-1235.1 1235.1,-1235.1 680.9,0 1235.1,554.2 1235.1,1235.1 0,680.9 -554.2,1235.1 -1235.1,1235.1 z m 0,-3225.9 c -1097.4,0 -1990.8,892.7 -1990.8,1990.8 0,1097.4 892.6,1990.8 1990.8,1990.8 1098.1,0 1990.8,-892.7 1990.8,-1990.8 0,-1097.3 -893.5,-1990.8 -1990.8,-1990.8"
         style="fill:#100f0d;fill-opacity:1;fill-rule:nonzero;stroke:none"
         id="path60" />
      <path
         d="m 16034.7,31338.1 c -402.3,0 -729.8,-327.5 -729.8,-729.8 v -6217.2 c 0,-402.3 327.5,-729.7 729.8,-729.7 402.2,0 729.7,327.4 729.7,729.7 v 6217.2 c 0,402.3 -327.5,729.8 -729.7,729.8 z m 0,-8432.4 c -818.7,0 -1485.5,665.9 -1485.5,1485.4 v 6217.2 c 0,818.7 666,1485.5 1485.5,1485.5 818.6,0 1485.4,-666 1485.4,-1485.5 v -6217.2 c 0,-819.5 -666,-1485.4 -1485.4,-1485.4"
         style="fill:#100f0d;fill-opacity:1;fill-rule:nonzero;stroke:none"
         id="path62" />
      <path
         d="m 21367.1,20388.2 c -176.3,0 -333.8,123.6 -370,303.1 -1095.8,5431.6 973,8637.9 2901.6,10372 155.1,139.4 394.4,126.8 533.7,-28.3 139.4,-155.1 126.8,-394.4 -28.3,-533.7 -1782.2,-1602 -3691.9,-4579.1 -2666.2,-9660.4 40.9,-204.7 -91.4,-403.9 -296,-444.8 -24.4,-5.5 -49.6,-7.9 -74.8,-7.9"
         style="fill:#100f0d;fill-opacity:1;fill-rule:nonzero;stroke:none"
         id="path64" />
      <path
         d="m 10702.2,20388.2 c -24.4,0 -49.6,2.4 -74.8,7.9 -204.6,40.9 -336.9,240.9 -295.9,444.8 1025.7,5081.3 -884.06,8058.4 -2666.26,9660.4 -155.08,139.3 -167.67,378.6 -28.34,533.7 139.33,155.1 378.64,167.7 533.71,28.3 1928.59,-1734.2 3998.19,-4940.4 2901.59,-10372 -36.2,-179.5 -194.4,-303.1 -370,-303.1"
         style="fill:#100f0d;fill-opacity:1;fill-rule:nonzero;stroke:none"
         id="path66" />
      <path
         d="m 16034.7,9029.8 c -208.6,0 -377.9,169.31 -377.9,377.9 v 4506.7 c 0,208.6 169.3,377.8 377.9,377.8 208.6,0 377.8,-169.2 377.8,-377.8 V 9407.7 c 0,-208.59 -169.2,-377.9 -377.8,-377.9"
         style="fill:#100f0d;fill-opacity:1;fill-rule:nonzero;stroke:none"
         id="path68" />
      <path
         d="m 4753.42,9029.8 c -208.61,0 -377.86,169.31 -377.86,377.9 v 6647 c 0,208.6 169.25,377.9 377.86,377.9 208.6,0 377.85,-169.3 377.85,-377.9 v -6647 c 0,-208.59 -169.25,-377.9 -377.85,-377.9"
         style="fill:#100f0d;fill-opacity:1;fill-rule:nonzero;stroke:none"
         id="path70" />
      <path
         d="m 27315.9,9029.8 c -208.6,0 -377.9,169.31 -377.9,377.9 v 6647 c 0,208.6 169.3,377.9 377.9,377.9 208.6,0 377.9,-169.3 377.9,-377.9 v -6647 c 0,-208.59 -168.5,-377.9 -377.9,-377.9"
         style="fill:#100f0d;fill-opacity:1;fill-rule:nonzero;stroke:none"
         id="path72" />
      <path
         d="m 26764.1,755.703 h 1104.4 V 1783.7 c 0,166.9 109.4,314.1 270,362.1 424.3,126.8 820.3,355.9 1144.6,662.1 121.2,114.9 303.8,136.21 447.9,52.7 l 891.1,-514.8 552.6,956.4 -890.3,514.1 c -144.8,83.4 -217.3,251.9 -178.7,414 51.2,215.7 77.2,438.5 77.2,662.11 0,223.49 -26,446.29 -77.2,662 -38.6,162.09 34.6,330.59 178.7,413.99 l 890.3,514.1 -552.6,956.4 -891.1,-514.79 c -144.8,-83.41 -326.7,-62.2 -448.7,52.69 -324.3,306.3 -720.3,535.31 -1144.6,662.1 -159.8,48.01 -270,195.21 -270,362.1 V 9029 H 26763.3 V 8001 c 0,-166.89 -109.4,-314.09 -270,-362.1 -424.3,-126.79 -820.3,-355.8 -1144.6,-662.1 -121.2,-114.89 -303.8,-136.1 -448.7,-52.69 l -891.1,514.79 -552.6,-956.4 890.3,-514.1 c 144.9,-83.4 217.3,-251.9 178.7,-413.99 -51.2,-215.71 -77.1,-438.51 -77.1,-662 0,-223.61 25.9,-446.41 77.1,-662.11 38.6,-162.1 -34.6,-330.6 -178.7,-414 l -890.3,-514.1 552.6,-956.4 891.1,514.8 c 144.9,83.51 326.7,62.2 448.7,-52.7 324.3,-306.2 720.3,-535.3 1145.4,-662.1 159.8,-48 270,-195.2 270,-362.1 V 755.703 Z M 28246.4,0 h -1860.2 c -208.6,0 -377.8,169.203 -377.8,377.801 V 1514.5 c -346.4,134.6 -672.3,323.5 -962.8,557.3 l -984.7,-568.3 c -181.1,-104.7 -411.7,-42.5 -516.4,138.5 L 22614,3253.4 c -50.4,86.6 -63.8,189.7 -37.8,286.6 26,96.8 89,179.41 176.4,229.8 l 984.7,568.4 c -28.3,183.41 -42.5,370 -42.5,556.5 0,186.6 14.2,372.41 42.5,556.6 l -984.7,568.31 c -86.6,50.39 -150.4,132.99 -176.4,229.89 -26,96.8 -12.6,199.91 37.8,286.5 l 930.5,1611.41 c 50.3,86.59 133,150.29 229.8,176.29 96.9,26 200,12.6 286.6,-37.8 l 984.7,-569.1 c 290.5,233.8 616.4,421.9 962.8,556.5 v 1136.8 c 0,208.6 169.2,377.8 377.8,377.8 h 1860.2 c 208.6,0 377.8,-169.2 377.8,-377.8 V 8273.3 c 346.4,-134.6 672.3,-322.7 962.8,-556.5 l 984.7,569.1 c 86.6,50.4 189.7,63.8 286.6,37.8 96.8,-26 179.5,-88.9 229.8,-176.29 L 32018.6,6536 c 104.7,-181 42.5,-411.7 -138.5,-516.39 l -984.8,-568.31 c 28.3,-183.4 42.5,-370 42.5,-556.6 0,-186.5 -14.2,-373.09 -42.5,-556.5 l 984,-568.4 c 86.6,-50.39 150.3,-133 176.3,-229.8 26,-96.9 12.6,-200 -37.8,-286.6 L 31087.3,1642 c -104.7,-180.2 -335.3,-242.39 -516.4,-138.5 l -984.7,568.3 c -290.5,-233.8 -616.4,-421.89 -962.8,-556.5 V 378.602 C 28624.2,169.203 28455,0 28246.4,0"
         style="fill:#100f0d;fill-opacity:1;fill-rule:nonzero;stroke:none"
         id="path74" />
      <path
         d="m 27315.9,5944 c -580.2,0 -1051.7,-471.5 -1051.7,-1051.59 0,-580.21 471.5,-1051.71 1051.7,-1051.71 580.2,0 1051.7,471.5 1051.7,1051.71 0,580.09 -471.5,1051.59 -1051.7,1051.59 z m 0,-2858.3 c -996.6,0 -1807.4,810.91 -1807.4,1807.4 0,996.6 810.8,1807.4 1807.4,1807.4 996.6,0 1807.4,-810.8 1807.4,-1807.4 0,-996.49 -810.8,-1807.4 -1807.4,-1807.4"
         style="fill:#100f0d;fill-opacity:1;fill-rule:nonzero;stroke:none"
         id="path76" />
      <path
         d="M 4200.8,755.703 H 5305.24 V 1783.7 c 0,166.9 109.42,314.1 270,362.1 424.3,126.8 820.26,355.9 1145.37,662.1 121.22,114.9 303.85,136.21 447.91,52.7 l 891.1,-514.8 552.61,956.4 -890.31,514.1 c -144.85,83.4 -217.27,251.9 -178.69,414 51.16,215.7 77.14,438.5 77.14,662.11 0,223.49 -25.98,446.29 -77.14,662 -38.58,162.09 34.63,330.59 178.69,413.99 l 890.31,514.1 -552.61,956.4 -891.1,-514.79 c -144.85,-83.41 -326.69,-62.2 -447.91,52.69 -324.33,306.3 -720.28,535.31 -1145.37,662.1 -159.8,48.01 -270,195.21 -270,362.1 V 9029 H 4200.8 V 8001 c 0,-166.89 -109.41,-314.09 -270,-362.1 -424.3,-126.79 -820.25,-355.8 -1144.58,-662.1 -121.23,-114.89 -303.85,-135.4 -447.91,-52.69 l -891.1,514.79 -552.608,-956.4 890.318,-514.1 c 144.84,-83.4 217.26,-251.9 178.69,-413.99 -51.17,-215.71 -77.15,-438.51 -77.15,-662 0,-222.8 25.98,-445.61 77.15,-662.11 38.57,-162.1 -34.64,-330.6 -178.69,-414 l -890.318,-514.1 552.608,-956.4 891.1,514.8 c 144.84,83.51 326.68,62.2 447.91,-52.7 324.33,-306.2 720.28,-535.3 1145.37,-662.1 159.8,-48 270.01,-195.2 270.01,-362.1 V 755.703 Z M 5683.09,0 H 3822.95 C 3614.35,0 3445.1,169.203 3445.1,377.801 V 1514.5 c -346.36,134.6 -672.26,323.5 -962.73,556.61 L 1497.59,1502.7 C 1317.32,1398 1085.89,1460.2 981.191,1641.3 L 50.7305,3252.6 c -50.378937,86.6 -63.7657,189.7 -37.7813,286.6 25.9766,96.8 88.9488,179.5 176.3278,229.8 l 984.773,568.41 c -28.33,183.39 -42.5,370 -42.5,556.49 0,186.6 14.17,373.21 42.5,556.6 l -984.773,568.3 c -86.593,50.4 -150.3512,133.11 -176.3356,229.9 -25.9766,96.8 -12.589837,199.91 37.7891,286.5 L 981.191,8146.61 c 50.379,86.59 132.249,150.39 229.069,176.29 96.83,26 199.95,12.6 286.54,-37.7 L 2481.58,7716 c 290.47,233.8 616.37,422 962.73,556.6 v 1136.7 c 0,208.6 169.25,377.81 377.86,377.81 H 5682.3 c 208.61,0 377.85,-169.21 377.85,-377.81 V 8272.6 C 6406.52,8138 6732.42,7949 7022.89,7716 l 984.77,569.2 c 86.6,50.3 189.72,63.7 286.54,37.7 96.82,-25.9 179.48,-88.9 229.86,-176.29 L 9454.52,6535.2 c 104.7,-181 42.51,-411.7 -138.55,-516.4 L 8331.2,5450.5 c 28.34,-183.39 42.51,-370 42.51,-556.6 0,-186.49 -14.17,-372.29 -42.51,-556.49 L 9315.97,3769 c 86.6,-50.3 150.36,-133 176.34,-229.8 25.97,-96.9 12.6,-200 -37.79,-286.6 L 8524.07,1641.3 C 8419.37,1461 8188.72,1398.8 8007.66,1502.7 l -984.77,568.41 C 6732.42,1837.3 6406.52,1649.1 6060.15,1514.5 V 377.801 C 6060.94,169.203 5891.69,0 5683.09,0"
         style="fill:#100f0d;fill-opacity:1;fill-rule:nonzero;stroke:none"
         id="path78" />
      <path
         d="m 4753.42,5944 c -580.16,0 -1051.69,-471.5 -1051.69,-1051.59 0,-580.21 471.53,-1051.71 1051.69,-1051.71 580.16,0 1051.68,471.5 1051.68,1051.71 0,580.09 -472.31,1051.59 -1051.68,1051.59 z m 0,-2858.3 c -996.59,0 -1807.4,810.91 -1807.4,1807.4 0,996.6 810.81,1807.4 1807.4,1807.4 996.58,0 1807.39,-810.8 1807.39,-1807.4 C 6560.02,3896.61 5750,3085.7 4753.42,3085.7"
         style="fill:#100f0d;fill-opacity:1;fill-rule:nonzero;stroke:none"
         id="path80" />
      <path
         d="m 13195.3,921.004 h 5678 V 9029 h -5678 z m 6056.6,-754.902 h -6433.7 c -208.6,0 -377.9,169.199 -377.9,377.8 V 9407.7 c 0,208.6 169.3,377.8 377.9,377.8 h 6433.7 c 208.6,0 377.9,-169.2 377.9,-377.8 V 543.902 c 0,-209.398 -169.3,-377.8 -377.9,-377.8"
         style="fill:#100f0d;fill-opacity:1;fill-rule:nonzero;stroke:none"
         id="path82" />
      <path
         d="m 17772,6939.8 h -3475.5 c -208.6,0 -377.8,169.31 -377.8,377.9 0,208.6 169.2,377.8 377.8,377.8 H 17772 c 208.6,0 377.8,-169.2 377.8,-377.8 0,-208.59 -169.2,-377.9 -377.8,-377.9"
         style="fill:#100f0d;fill-opacity:1;fill-rule:nonzero;stroke:none"
         id="path84" />
      <path
         d="m 17772,4597.9 h -3475.5 c -208.6,0 -377.8,169.3 -377.8,377.9 0,208.61 169.2,377.81 377.8,377.81 H 17772 c 208.6,0 377.8,-169.2 377.8,-377.81 0,-208.6 -169.2,-377.9 -377.8,-377.9"
         style="fill:#100f0d;fill-opacity:1;fill-rule:nonzero;stroke:none"
         id="path86" />
      <path
         d="m 17772,2256 h -3475.5 c -208.6,0 -377.8,169.3 -377.8,377.9 0,208.6 169.2,377.8 377.8,377.8 H 17772 c 208.6,0 377.8,-169.2 377.8,-377.8 0,-208.6 -169.2,-377.9 -377.8,-377.9"
         style="fill:#100f0d;fill-opacity:1;fill-rule:nonzero;stroke:none"
         id="path88" />
    </g>
  </g>
</svg>
