<?xml version="1.0" encoding="UTF-8"?> <svg xmlns="http://www.w3.org/2000/svg" width="256" height="256" viewBox="0 0 256 256" fill="none"> <g clip-path="url(#clip0_3465_15091)"> <path d="M0 128C0 83.1958 0 60.7937 8.71948 43.6808C16.3893 28.6278 28.6278 16.3893 43.6808 8.71948C60.7937 0 83.1958 0 128 0C172.804 0 195.206 0 212.319 8.71948C227.372 16.3893 239.611 28.6278 247.281 43.6808C256 60.7937 256 83.1958 256 128C256 172.804 256 195.206 247.281 212.319C239.611 227.372 227.372 239.611 212.319 247.281C195.206 256 172.804 256 128 256C83.1958 256 60.7937 256 43.6808 247.281C28.6278 239.611 16.3893 227.372 8.71948 212.319C0 195.206 0 172.804 0 128Z" fill="#30415A"></path> <g clip-path="url(#clip1_3465_15091)"> <path d="M84.4105 126.121C84.4105 128.58 84.6763 130.573 85.1414 132.035C85.673 133.497 86.3375 135.091 87.2677 136.819C87.6 137.351 87.7329 137.882 87.7329 138.347C87.7329 139.012 87.3342 139.676 86.4704 140.341L82.2842 143.132C81.6862 143.53 81.0881 143.73 80.5566 143.73C79.8921 143.73 79.2276 143.397 78.5631 142.799C77.6329 141.803 76.8355 140.739 76.171 139.676C75.5066 138.547 74.8421 137.284 74.1112 135.756C68.9283 141.869 62.4164 144.926 54.5756 144.926C48.994 144.926 44.5421 143.331 41.2862 140.141C38.0302 136.952 36.369 132.699 36.369 127.384C36.369 121.736 38.3625 117.151 42.4158 113.695C46.469 110.24 51.8513 108.512 58.6954 108.512C60.9546 108.512 63.2802 108.712 65.7388 109.044C68.1973 109.376 70.7223 109.908 73.3802 110.506V105.655C73.3802 100.605 72.3171 97.0835 70.2572 95.0237C68.1309 92.9638 64.5427 91.9671 59.4263 91.9671C57.1006 91.9671 54.7085 92.2329 52.25 92.8309C49.7914 93.4289 47.3993 94.1598 45.0737 95.0901C44.0105 95.5552 43.2131 95.821 42.748 95.9539C42.2829 96.0868 41.9506 96.1533 41.6848 96.1533C40.7546 96.1533 40.2894 95.4888 40.2894 94.0934V90.8375C40.2894 89.7743 40.4223 88.9769 40.7546 88.5118C41.0868 88.0467 41.6848 87.5816 42.6151 87.1164C44.9408 85.9204 47.7315 84.9237 50.9875 84.1263C54.2434 83.2625 57.6987 82.8638 61.3533 82.8638C69.2605 82.8638 75.0414 84.6579 78.7625 88.246C82.4171 91.8342 84.2776 97.2829 84.2776 104.592V126.121H84.4105ZM57.4329 136.221C59.6256 136.221 61.8848 135.822 64.2769 135.025C66.6691 134.228 68.7954 132.766 70.5894 130.772C71.6526 129.51 72.45 128.114 72.8487 126.52C73.2473 124.925 73.5131 122.998 73.5131 120.739V117.948C71.5862 117.483 69.5263 117.084 67.4 116.818C65.2737 116.553 63.2138 116.42 61.1539 116.42C56.7019 116.42 53.446 117.284 51.2533 119.078C49.0605 120.872 47.9973 123.397 47.9973 126.719C47.9973 129.842 48.7947 132.168 50.4559 133.762C52.0506 135.424 54.3763 136.221 57.4329 136.221ZM110.79 143.397C109.594 143.397 108.797 143.198 108.265 142.733C107.734 142.334 107.268 141.404 106.87 140.141L91.2546 88.7776C90.8559 87.4487 90.6566 86.5848 90.6566 86.1197C90.6566 85.0566 91.1881 84.4585 92.2513 84.4585H98.7631C100.026 84.4585 100.889 84.6579 101.355 85.123C101.886 85.5217 102.285 86.4519 102.684 87.7144L113.847 131.703L124.212 87.7144C124.545 86.3855 124.943 85.5217 125.475 85.123C126.007 84.7243 126.937 84.4585 128.133 84.4585H133.449C134.711 84.4585 135.575 84.6579 136.107 85.123C136.638 85.5217 137.103 86.4519 137.369 87.7144L147.868 132.234L159.363 87.7144C159.762 86.3855 160.227 85.5217 160.692 85.123C161.224 84.7243 162.087 84.4585 163.284 84.4585H169.463C170.526 84.4585 171.124 84.9901 171.124 86.1197C171.124 86.4519 171.058 86.7842 170.991 87.1829C170.925 87.5816 170.792 88.1131 170.526 88.8441L154.512 140.208C154.114 141.537 153.649 142.401 153.117 142.799C152.585 143.198 151.722 143.464 150.592 143.464H144.878C143.615 143.464 142.751 143.264 142.22 142.799C141.688 142.334 141.223 141.47 140.957 140.141L130.658 97.2829L120.425 140.075C120.093 141.404 119.694 142.268 119.162 142.733C118.631 143.198 117.701 143.397 116.505 143.397H110.79ZM196.175 145.191C192.72 145.191 189.264 144.793 185.942 143.995C182.62 143.198 180.028 142.334 178.301 141.337C177.237 140.739 176.507 140.075 176.241 139.477C175.975 138.879 175.842 138.214 175.842 137.616V134.228C175.842 132.832 176.374 132.168 177.37 132.168C177.769 132.168 178.168 132.234 178.566 132.367C178.965 132.5 179.563 132.766 180.228 133.032C182.487 134.028 184.945 134.826 187.537 135.357C190.195 135.889 192.786 136.155 195.444 136.155C199.63 136.155 202.886 135.424 205.145 133.962C207.405 132.5 208.601 130.374 208.601 127.649C208.601 125.789 208.003 124.261 206.807 122.998C205.611 121.736 203.351 120.606 200.095 119.543L190.46 116.553C185.61 115.024 182.022 112.765 179.829 109.775C177.636 106.851 176.507 103.595 176.507 100.14C176.507 97.3493 177.105 94.8908 178.301 92.7644C179.497 90.6381 181.091 88.7776 183.085 87.3158C185.078 85.7875 187.337 84.6579 189.995 83.8605C192.653 83.0631 195.444 82.7309 198.368 82.7309C199.83 82.7309 201.358 82.7973 202.82 82.9967C204.348 83.196 205.743 83.4618 207.139 83.7276C208.468 84.0598 209.73 84.3921 210.926 84.7908C212.122 85.1894 213.053 85.5881 213.717 85.9868C214.647 86.5184 215.312 87.05 215.711 87.648C216.109 88.1796 216.309 88.9105 216.309 89.8408V92.9638C216.309 94.3592 215.777 95.0901 214.78 95.0901C214.249 95.0901 213.385 94.8243 212.255 94.2927C208.468 92.5651 204.215 91.7013 199.497 91.7013C195.71 91.7013 192.72 92.2993 190.66 93.5618C188.6 94.8243 187.537 96.7513 187.537 99.4756C187.537 101.336 188.201 102.931 189.53 104.193C190.859 105.456 193.318 106.718 196.839 107.848L206.275 110.838C211.059 112.366 214.514 114.493 216.574 117.217C218.634 119.941 219.631 123.064 219.631 126.52C219.631 129.377 219.033 131.968 217.903 134.228C216.707 136.487 215.112 138.48 213.053 140.075C210.993 141.736 208.534 142.932 205.677 143.796C202.687 144.726 199.564 145.191 196.175 145.191Z" fill="white"></path> <path fill-rule="evenodd" clip-rule="evenodd" d="M208.734 177.485C186.872 193.632 155.11 202.203 127.801 202.203C89.5269 202.203 55.0408 188.05 28.9934 164.528C26.9335 162.667 28.7941 160.142 31.2526 161.604C59.4263 177.95 94.1783 187.851 130.126 187.851C154.38 187.851 181.025 182.801 205.544 172.435C209.199 170.774 212.322 174.827 208.734 177.485Z" fill="#FF9900"></path> <path fill-rule="evenodd" clip-rule="evenodd" d="M217.837 167.119C215.046 163.531 199.364 165.391 192.255 166.255C190.128 166.521 189.796 164.661 191.723 163.265C204.215 154.494 224.747 157.019 227.14 159.943C229.532 162.933 226.475 183.465 214.78 193.299C212.986 194.828 211.259 194.03 212.056 192.037C214.714 185.459 220.628 170.641 217.837 167.119Z" fill="#FF9900"></path> </g> </g> <defs> <clipPath id="clip0_3465_15091"> <rect width="256" height="256" fill="white"></rect> </clipPath> <clipPath id="clip1_3465_15091"> <rect width="202" height="120.934" fill="white" transform="translate(27 82)"></rect> </clipPath> </defs> </svg> 