<?xml version="1.0" encoding="UTF-8" standalone="no"?>
<!-- Created with Inkscape (http://www.inkscape.org/) -->

<svg
   version="1.1"
   id="svg2"
   width="3645.0132"
   height="4375.2935"
   viewBox="0 0 3645.0132 4375.2935"
   sodipodi:docname="vecteezy_online-server-vector-icon_31872796.eps"
   xmlns:inkscape="http://www.inkscape.org/namespaces/inkscape"
   xmlns:sodipodi="http://sodipodi.sourceforge.net/DTD/sodipodi-0.dtd"
   xmlns="http://www.w3.org/2000/svg"
   xmlns:svg="http://www.w3.org/2000/svg">
  <defs
     id="defs6" />
  <sodipodi:namedview
     id="namedview4"
     pagecolor="#ffffff"
     bordercolor="#000000"
     borderopacity="0.25"
     inkscape:showpageshadow="2"
     inkscape:pageopacity="0.0"
     inkscape:pagecheckerboard="0"
     inkscape:deskcolor="#d1d1d1" />
  <g
     id="g8"
     inkscape:groupmode="layer"
     inkscape:label="ink_ext_XXXXXX"
     transform="matrix(1.3333333,0,0,-1.3333333,0,4375.2933)">
    <g
       id="g10"
       transform="scale(0.1)">
      <path
         d="m 22656.2,4487 v 8039.6 c 1041.5,305.6 1994.3,870.4 2771,1646.4 1232.3,1233.7 1910.4,2873 1910.4,4616.6 0,3600.4 -2928.6,6529.8 -6529.1,6529.8 H 20129 c 47.1,318.3 71.1,640.8 71.1,964 0,3601.2 -2930.1,6531.3 -6531.3,6531.3 -3601.2,0 -6531.25,-2930.1 -6531.25,-6531.3 0,-323.2 23.95,-645.7 71.13,-964 h -679.53 c -1743.55,0 -3383.58,-679.5 -4618.01,-1913.2 C 678.828,22173.1 0,20533.1 0,18789.6 0,15861.6 1908.33,13332.9 4681.38,12525.9 V 4487 h 7438.22 v -526 c -33.8,-31 -66.9,-63.4 -98.6,-96.5 H 5824.26 c -854.17,0 -1549.19,-695 -1549.19,-1549.2 0,-854.2 695.02,-1549.202 1549.19,-1549.202 H 11961.9 C 12392.1,283 13015.3,0 13668.8,0 c 654.2,0 1276.7,283 1706.9,766.098 h 6137.7 c 854.1,0 1549.2,695.002 1549.2,1549.202 0,854.2 -695.1,1549.2 -1549.2,1549.2 h -6196.8 c -31.7,33.1 -64.8,65.5 -98.6,96.5 v 526 h 7438.2"
         style="fill:#f4f3f3;fill-opacity:1;fill-rule:nonzero;stroke:none"
         id="path12" />
      <path
         d="m 22233.7,11672.4 v 1178.8 c 1092.2,259.9 2090.7,817.6 2894.2,1620.3 1152.8,1154.2 1787.2,2687.9 1787.2,4318.1 0,3367.4 -2739.2,6107.3 -6106.6,6107.3 h -1189.4 c 105.7,452.8 158.5,916.2 158.5,1386.5 0,3368.1 -2740.7,6108.8 -6108.8,6108.8 -3368.1,0 -6108.74,-2740.7 -6108.74,-6108.8 0,-470.3 52.82,-934.4 158.44,-1386.5 H 6529.15 c -1630.88,0 -3164.58,-635.2 -4319.44,-1789.3 -1152.74,-1153.4 -1787.202,-2686.4 -1787.202,-4318 0,-2858.3 1920.292,-5284.9 4681.382,-5938.4 v -1178.8 h 2094.23 v -501.3 H 5103.89 V 4909.5 h 7438.21 v -1145 c -123.2,-93.6 -233.8,-202.1 -329.5,-322.5 H 5824.26 c -621.08,0 -1126.68,-505.6 -1126.68,-1126.7 0,-621.1 505.6,-1126.7 1126.68,-1126.7 h 6339.04 c 342.2,-470.401 895.7,-766.1 1505.5,-766.1 609.8,0 1163.3,295.699 1505.5,766.1 h 6339.1 c 621,0 1126.7,505.6 1126.7,1126.7 0,621.1 -505.7,1126.7 -1126.7,1126.7 h -6388.3 c -96.5,121.1 -207.1,229.6 -329.6,322.5 v 1145 h 7438.2 v 6261.6 h -2094.2 v 501.3 h 2094.2"
         style="fill:#ffffff;fill-opacity:1;fill-rule:nonzero;stroke:none"
         id="path14" />
      <path
         d="M 7550.91,8416.3 H 13543.5 V 7664.2 H 7550.91 v 752.1"
         style="fill:#5982ca;fill-opacity:1;fill-rule:nonzero;stroke:none"
         id="path16" />
      <path
         d="m 16519.3,7587.5 c 249.3,0 452.8,203.5 452.8,452.8 0,249.3 -203.5,452.8 -452.8,452.8 -250,0 -452.8,-203.5 -452.8,-452.8 0,-249.3 202.8,-452.8 452.8,-452.8"
         style="fill:#5982ca;fill-opacity:1;fill-rule:nonzero;stroke:none"
         id="path18" />
      <path
         d="m 19333.9,7587.5 c 249.3,0 452.8,203.5 452.8,452.8 0,249.3 -203.5,452.8 -452.8,452.8 -249.2,0 -452.8,-203.5 -452.8,-452.8 0,-249.3 203.6,-452.8 452.8,-452.8"
         style="fill:#5982ca;fill-opacity:1;fill-rule:nonzero;stroke:none"
         id="path20" />
      <path
         d="m 19333.9,7024.2 c -560.5,0 -1016.1,456.3 -1016.1,1016.1 0,560.5 455.6,1016.1 1016.1,1016.1 559.9,0 1016.2,-455.6 1016.2,-1016.1 0,-559.8 -456.3,-1016.1 -1016.2,-1016.1 z m -2814.6,0 c -560.5,0 -1016.1,456.3 -1016.1,1016.1 0,560.5 455.6,1016.1 1016.1,1016.1 559.9,0 1016.2,-455.6 1016.2,-1016.1 0,-559.8 -456.3,-1016.1 -1016.2,-1016.1 z m -2412.5,358.4 c 0,-155.6 -126,-281.7 -281.7,-281.7 H 7269.24 c -155.63,0 -281.68,126.1 -281.68,281.7 V 8698 c 0,155.6 126.05,281.7 281.68,281.7 h 6555.86 c 155.7,0 281.7,-126.1 281.7,-281.7 z M 5948.9,10326 V 5754.5 H 21388.7 V 10326 H 5948.9"
         style="fill:#5982ca;fill-opacity:1;fill-rule:nonzero;stroke:none"
         id="path22" />
      <path
         d="m 18619.9,11954.1 h 674.6 v -1064.7 h -674.6 v 1064.7"
         style="fill:#5982ca;fill-opacity:1;fill-rule:nonzero;stroke:none"
         id="path24" />
      <path
         d="m 8043.13,11954.1 h 674.61 v -1064.7 h -674.61 v 1064.7"
         style="fill:#5982ca;fill-opacity:1;fill-rule:nonzero;stroke:none"
         id="path26" />
      <path
         d="m 7550.91,15180 h 5992.59 v -752.8 H 7550.91 v 752.8"
         style="fill:#5982ca;fill-opacity:1;fill-rule:nonzero;stroke:none"
         id="path28" />
      <path
         d="m 19333.9,15256 c -249.2,0 -452.8,-202.8 -452.8,-452.8 0,-249.3 203.6,-452.8 452.8,-452.8 249.3,0 452.8,203.5 452.8,452.8 0,250 -203.5,452.8 -452.8,452.8"
         style="fill:#5982ca;fill-opacity:1;fill-rule:nonzero;stroke:none"
         id="path30" />
      <path
         d="m 16519.3,15256 c -250,0 -452.8,-202.8 -452.8,-452.8 0,-249.3 202.8,-452.8 452.8,-452.8 249.3,0 452.8,203.5 452.8,452.8 0,250 -203.5,452.8 -452.8,452.8"
         style="fill:#5982ca;fill-opacity:1;fill-rule:nonzero;stroke:none"
         id="path32" />
      <path
         d="m 19333.9,13787.1 c -560.5,0 -1016.1,456.3 -1016.1,1016.1 0,560.5 455.6,1016.1 1016.1,1016.1 559.9,0 1016.2,-455.6 1016.2,-1016.1 0,-559.8 -456.3,-1016.1 -1016.2,-1016.1 z m -2814.6,0 c -560.5,0 -1016.1,456.3 -1016.1,1016.1 0,560.5 455.6,1016.1 1016.1,1016.1 559.9,0 1016.2,-455.6 1016.2,-1016.1 0,-559.8 -456.3,-1016.1 -1016.2,-1016.1 z m -2412.5,358.4 c 0,-155.6 -126,-281.7 -281.7,-281.7 H 7269.24 c -155.63,0 -281.68,126.1 -281.68,281.7 v 1316.1 c 0,154.9 126.05,281.7 281.68,281.7 h 6555.86 c 155.7,0 281.7,-126.8 281.7,-281.7 z M 5948.9,17089 v -3763.2 c 0.71,-11.2 0.71,-22.5 0,-34.5 v -773.8 h 15439.8 v 773.8 c -0.7,12 -0.7,23.3 0,34.5 V 17089 H 5948.9"
         style="fill:#5982ca;fill-opacity:1;fill-rule:nonzero;stroke:none"
         id="path34" />
      <path
         d="m 26070.1,18789.6 c 0,-1405.6 -547.1,-2726.6 -1540,-3720.9 -716.2,-715.5 -1601.3,-1201.3 -2578,-1416.1 v 3718.1 c 0,155.6 -126.1,281.6 -281.7,281.6 H 5667.23 c -155.62,0 -281.67,-126 -281.67,-281.6 v -3718.1 c -2405.48,527.4 -4118.04,2637.8 -4118.04,5137 0,1406.2 547.15,2727.3 1540.04,3720.8 995,994.4 2316.75,1541.5 3721.59,1541.5 h 1947.76 c 92.24,0 178.86,45.8 231.67,121.8 52.11,76.1 64.08,172.6 31.68,259.2 -222.51,592.2 -335.18,1214.7 -335.18,1850.5 0,2902.7 2361.12,5263.8 5263.72,5263.8 2902.6,0 5263.8,-2361.1 5263.8,-5263.8 0,-635.8 -112.7,-1258.3 -335.2,-1850.5 -32.4,-86.6 -20.5,-183.1 31.6,-259.2 52.9,-76 139.5,-121.8 231.7,-121.8 h 1947.8 c 2901.2,0 5261.6,-2360.4 5261.6,-5262.3"
         style="fill:#5982ca;fill-opacity:1;fill-rule:nonzero;stroke:none"
         id="path36" />
      <path
         d="m 21795,2315.3 c 0,-155.6 -126,-281.7 -281.6,-281.7 h -6860.1 c -111.3,-440.1 -510.6,-766.1 -984.5,-766.1 -473.9,0 -873.2,326 -984.4,766.1 H 5824.26 c -155.62,0 -281.67,126.1 -281.67,281.7 0,154.9 126.05,281.7 281.67,281.7 h 6878.44 c 103.5,319 360.5,569 684.4,661.9 v 1932.3 h 563.4 V 3258.9 c 323.9,-92.9 580.9,-342.9 684.4,-661.9 h 6878.5 c 155.6,0 281.6,-126.8 281.6,-281.7"
         style="fill:#5982ca;fill-opacity:1;fill-rule:nonzero;stroke:none"
         id="path38" />
    </g>
  </g>
</svg>
