<svg xmlns="http://www.w3.org/2000/svg" width="249" height="84" viewBox="0 0 249 84" version="1.1"><path d="M 151 30.500 L 151 39 164.500 39 L 178 39 178 53 L 178 67 164.500 67 L 151 67 151 75.500 L 151 84 166.040 84 C 178.825 84, 181.636 83.716, 184.790 82.106 C 193.535 77.643, 195 73.467, 195 53 C 195 32.533, 193.535 28.357, 184.790 23.894 C 181.636 22.284, 178.825 22, 166.040 22 L 151 22 151 30.500 M 208.500 23.665 C 203.867 26.113, 201.877 28.153, 199.881 32.500 C 198.284 35.978, 198.041 39.279, 198.022 57.795 C 198 79.085, 198.001 79.092, 200.455 81.545 C 203.777 84.868, 209.772 84.936, 212.826 81.686 C 214.910 79.467, 215 78.534, 215 59.186 L 215 39 229.545 39 C 243.655 39, 244.164 38.927, 246.545 36.545 C 248.240 34.851, 249 32.979, 249 30.500 C 249 28.021, 248.240 26.149, 246.545 24.455 C 244.136 22.046, 243.788 22.001, 227.795 22.040 C 214.908 22.072, 210.873 22.412, 208.500 23.665" stroke="none" fill="#79dbd4" fill-rule="evenodd"/><path d="M 2 2 C 0.070 3.930, 0 5.333, -0 41.826 L -0 79.651 2.314 81.826 C 5.580 84.894, 11.329 84.762, 14.545 81.545 C 16.790 79.301, 17 78.316, 17 70.045 L 17 61 31 61 L 45 61 45.006 67.750 C 45.012 76.038, 46.475 81.649, 48.978 82.988 C 52.008 84.610, 57.579 84.162, 60.139 82.090 C 62.282 80.356, 62.531 79.266, 62.838 70.273 C 63.024 64.825, 62.675 58.508, 62.064 56.236 C 60.619 50.872, 55.900 46.233, 50.390 44.759 L 46 43.585 46 35.247 C 46 27.728, 45.759 26.668, 43.545 24.455 C 40.223 21.132, 34.228 21.064, 31.174 24.314 C 29.286 26.324, 29 27.773, 29 35.314 L 29 44 23 44 L 17 44 17 24.455 C 17 5.036, 16.984 4.893, 14.545 2.455 C 11.376 -0.715, 4.948 -0.948, 2 2 M 76.481 1.394 C 72.295 3.218, 67.225 9.281, 66.456 13.385 C 66.102 15.270, 65.967 21.565, 66.156 27.373 C 66.422 35.549, 66.875 38.307, 68.160 39.591 C 69.706 41.135, 69.689 41.462, 67.914 44.374 C 66.337 46.960, 66.007 49.450, 66.004 58.782 C 66 71.243, 66.995 74.856, 71.627 79.186 C 76.225 83.485, 79.003 84, 97.605 84 C 112.779 84, 115.568 83.751, 118.790 82.106 C 126.765 78.036, 129 72.921, 129 58.744 C 129 50.794, 128.588 47.615, 127.207 44.906 C 125.484 41.527, 125.484 41.272, 127.201 38.444 C 128.611 36.123, 128.991 33.322, 128.995 25.218 C 129.002 11.084, 126.761 5.962, 118.790 1.894 C 115.550 0.240, 112.823 0.005, 97.290 0.039 C 84.861 0.066, 78.590 0.475, 76.481 1.394 M 83 25 L 83 33 97 33 L 111 33 111 25 L 111 17 97 17 L 83 17 83 25 M 142.502 23.575 C 133.456 28.292, 132.044 32.266, 132.044 53 C 132.044 66.980, 132.329 70.129, 133.913 73.616 C 136.264 78.792, 141.721 83.019, 146.963 83.722 L 151 84.263 151 75.632 C 151 70.544, 150.589 67, 150 67 C 149.381 67, 149 61.667, 149 53 C 149 44.333, 149.381 39, 150 39 C 150.588 39, 151 35.500, 151 30.500 L 151 22 148.250 22.006 C 146.738 22.010, 144.151 22.716, 142.502 23.575 M 83 58.500 L 83 67 97.500 67 L 112 67 112 58.500 L 112 50 97.500 50 L 83 50 83 58.500" stroke="none" fill="#c995c3" fill-rule="evenodd"/></svg>