<?xml version="1.0" encoding="UTF-8" standalone="no"?>
<!-- Created with Inkscape (http://www.inkscape.org/) -->

<svg
   version="1.1"
   id="svg2"
   width="2829.3333"
   height="2829.3333"
   viewBox="0 0 2829.3333 2829.3333"
   sodipodi:docname="vecteezy_cargo-containers-icon_10793639.eps"
   xmlns:inkscape="http://www.inkscape.org/namespaces/inkscape"
   xmlns:sodipodi="http://sodipodi.sourceforge.net/DTD/sodipodi-0.dtd"
   xmlns="http://www.w3.org/2000/svg"
   xmlns:svg="http://www.w3.org/2000/svg">
  <defs
     id="defs6" />
  <sodipodi:namedview
     id="namedview4"
     pagecolor="#ffffff"
     bordercolor="#000000"
     borderopacity="0.25"
     inkscape:showpageshadow="2"
     inkscape:pageopacity="0.0"
     inkscape:pagecheckerboard="0"
     inkscape:deskcolor="#d1d1d1" />
  <g
     id="g8"
     inkscape:groupmode="layer"
     inkscape:label="ink_ext_XXXXXX"
     transform="matrix(1.3333333,0,0,-1.3333333,0,2829.3333)">
    <g
       id="g10"
       transform="scale(0.1)">
      <path
         d="m 18365.7,6643.4 -12.8,4530.5 -1880,1092.5 315.5,182.1 -12.8,4530.6 -3647.2,2119.5 -634.6,-366.4 -32.4,18.9 c -34.1,19.8 -77.9,8.2 -97.8,-25.9 -12.7,-22 -12.3,-47.9 -1.3,-68.9 l -742.8,-428.8 -37.7,21.9 c -34.1,19.8 -77.9,8.2 -97.7,-25.9 -13.7,-23.6 -12,-51.7 1.4,-73.4 l -844.1,-487.3 -33.1,19.1 c -34.1,19.9 -77.8,8.3 -97.6,-25.8 -13,-22.2 -12.4,-48.3 -1.1,-69.5 l -972.14,-561.2 -30.7,17.8 c -34.1,19.9 -77.85,8.3 -97.64,-25.8 -12.47,-21.5 -12.47,-46.7 -2.33,-67.5 l -851.63,-491.7 -41.04,23.9 c -34.2,19.8 -77.85,8.3 -97.73,-25.9 -14.32,-24.6 -12.07,-54.2 3.12,-76.3 l -879.02,-507.4 -53.99,31.4 c -34.2,19.8 -77.85,8.2 -97.72,-25.9 -16.67,-28.7 -10.91,-64.1 11.59,-86.4 l -921.7,-532.2 -35.47,20.6 c -34.1,19.8 -77.85,8.2 -97.63,-25.9 -13.34,-22.9 -12.17,-50 0.09,-71.5 l -966.41,-557.9 -35.47,20.6 c -34.11,19.8 -77.86,8.2 -97.64,-25.9 -19.87,-34.1 -8.28,-77.9 25.82,-97.7 l 36.16,-21 5.65,-2000 -162.15,-93.7 -54.08,31.4 c -34.1,19.9 -77.85,8.3 -97.74,-25.8 -16.66,-28.8 -10.9,-64.1 11.7,-86.5 l -921.79,-532.2 -35.47,20.6 c -34.1,19.9 -77.85,8.3 -97.64,-25.8 -13.34,-23 -12.18,-50.1 0.1,-71.5 l -966.43,-558 -35.37,20.6 c -34.2,19.8 -77.85,8.2 -97.73,-25.9 -19.78,-34.1 -8.19,-77.8 25.93,-97.7 l 36.04,-21 12.68,-4447.8 3647.13,-2119.5 317.94,183.6 1.18,-403.8 3647.13,-2119.5 1020.3,589.1 c 13.3,-23 37.8,-38.6 66.3,-38.6 42.4,0 76.8,34.4 76.8,76.8 v 44.4 l 917.2,529.5 c 11.3,-28.5 38.8,-48.7 71.4,-48.7 42.4,0 76.8,34.4 76.8,76.9 v 57.4 l 860.5,496.8 c 12.7,-24.8 38.4,-42 68.2,-42 42.4,0 76.8,34.4 76.8,76.9 v 48.8 l 847.3,489.2 c 12.6,-25.2 38.4,-42.7 68.5,-42.7 42.5,0 76.9,34.4 76.9,76.8 v 49.9 l 957.4,552.6 c 12.9,-24 38.1,-40.6 67.3,-40.6 42.5,0 76.9,34.4 76.9,76.9 v 47 l 831.3,480 c 13.6,-21.8 37.6,-36.5 65.2,-36.5 42.5,0 76.9,34.4 76.9,76.8 v 41.8 l 735,424.3 c 12.9,-24.4 38.2,-41.2 67.7,-41.2 42.4,0 76.9,34.4 76.9,76.9 v 47.8 l 638.9,368.9"
         style="fill:#f35d5b;fill-opacity:1;fill-rule:nonzero;stroke:none"
         id="path12" />
      <path
         d="m 4282.89,9669.8 c 34.3,-19.5 46.28,-63.1 26.8,-97.4 -19.54,-34.3 -63.15,-46.3 -97.44,-26.8 l -123.56,70.3 v -343.5 l 194.2,-110.5 c 34.3,-19.5 46.28,-63.2 26.8,-97.5 -19.54,-34.3 -63.15,-46.2 -97.44,-26.7 L 4088.69,9108 V 7318.7 l 194.2,-110.5 c 34.3,-19.5 46.28,-63.2 26.8,-97.5 -19.54,-34.3 -63.15,-46.2 -97.44,-26.7 l -123.56,70.3 v -343.5 l 194.2,-110.5 c 34.3,-19.6 46.28,-63.2 26.8,-97.5 -19.54,-34.3 -63.15,-46.2 -97.44,-26.8 l -123.56,70.4 v -303.1 l 277.79,-161.4 V 9890 l -277.79,161.4 v -271.1 l 194.2,-110.5"
         style="fill:#faba5c;fill-opacity:1;fill-rule:nonzero;stroke:none"
         id="path14" />
      <path
         d="m 3487.48,6692.7 458.26,-266.3 v 301.3 l -458.26,260.8 v -295.8"
         style="fill:#faba5c;fill-opacity:1;fill-rule:nonzero;stroke:none"
         id="path16" />
      <path
         d="m 4509.39,6098.9 585.77,-340.4 v 251.2 l -230.5,131.2 c -34.3,19.5 -46.28,63.1 -26.75,97.4 19.49,34.3 63.14,46.3 97.44,26.8 l 159.81,-91 v 343.5 l -230.5,131.1 c -34.3,19.6 -46.28,63.2 -26.75,97.5 19.49,34.3 63.14,46.3 97.44,26.8 l 159.81,-90.9 v 1789.2 l -230.5,131.1 c -34.3,19.6 -46.28,63.2 -26.75,97.5 19.49,34.3 63.14,46.3 97.44,26.8 l 159.81,-90.9 v 343.4 l -230.5,131.2 c -34.3,19.5 -46.28,63.1 -26.75,97.4 19.49,34.3 63.14,46.3 97.44,26.8 l 159.81,-91 v 322.9 l -585.77,340.4 v -3708"
         style="fill:#faba5c;fill-opacity:1;fill-rule:nonzero;stroke:none"
         id="path18" />
      <path
         d="m 5238.01,9062.3 458.26,-260.8 v 315.7 l -458.26,266.3 v -321.2"
         style="fill:#faba5c;fill-opacity:1;fill-rule:nonzero;stroke:none"
         id="path20" />
      <path
         d="m 3945.74,9861.7 v 272.8 l -458.26,266.3 v -278.3 l 458.26,-260.8"
         style="fill:#faba5c;fill-opacity:1;fill-rule:nonzero;stroke:none"
         id="path22" />
      <path
         d="m 5238.01,8554.4 458.26,-260.8 v 343.5 l -458.26,260.8 v -343.5"
         style="fill:#faba5c;fill-opacity:1;fill-rule:nonzero;stroke:none"
         id="path24" />
      <path
         d="m 3487.48,9614.6 458.26,-260.9 v 343.5 L 3487.48,9958 v -343.4"
         style="fill:#faba5c;fill-opacity:1;fill-rule:nonzero;stroke:none"
         id="path26" />
      <path
         d="m 3487.48,7153 458.26,-260.9 v 343.5 l -458.26,260.8 V 7153"
         style="fill:#faba5c;fill-opacity:1;fill-rule:nonzero;stroke:none"
         id="path28" />
      <path
         d="M 3487.48,7660.8 3945.74,7400 v 1789.3 l -458.26,260.8 V 7660.8"
         style="fill:#faba5c;fill-opacity:1;fill-rule:nonzero;stroke:none"
         id="path30" />
      <path
         d="m 6072.01,8587.7 c 34.3,-19.6 46.28,-63.2 26.8,-97.5 -19.55,-34.3 -63.15,-46.3 -97.44,-26.7 l -162.15,92.3 v -343.5 l 232.79,-132.5 c 34.3,-19.5 46.28,-63.2 26.8,-97.5 -19.55,-34.3 -63.15,-46.2 -97.44,-26.7 l -162.15,92.3 V 6258.6 l 232.79,-132.5 c 34.3,-19.6 46.28,-63.2 26.8,-97.5 -19.55,-34.3 -63.15,-46.3 -97.44,-26.8 l -162.15,92.3 v -343.4 l 232.79,-132.5 c 34.3,-19.5 46.28,-63.2 26.8,-97.4 -19.55,-34.3 -63.15,-46.3 -97.44,-26.8 l -162.15,92.2 v -260.1 l 647.5,-376.4 c 34.1,-19.8 45.7,-63.5 25.92,-97.6 -19.89,-34.1 -63.59,-45.7 -97.74,-25.9 l -613.14,356.3 c -10.2,-5.5 -21.59,-8.9 -34.02,-8.9 -39.02,0 -70.59,31.2 -71.32,70.1 l -511.91,297.5 c -5.75,-1.5 -11.7,-2.5 -17.93,-2.5 -33.03,0 -60.51,22.4 -68.69,52.9 l -638.44,370.9 c -6.82,-2.1 -13.93,-3.6 -21.54,-3.6 -34.39,0 -63.13,24.4 -69.9,56.9 l -344.03,199.8 c -2.24,-0.2 -4.48,-0.7 -6.77,-0.7 -29.18,0 -54.12,17.6 -65.24,42.6 l -928.02,539.3 c -34.11,19.8 -45.71,63.6 -25.87,97.7 19.83,34.1 63.58,45.7 97.68,25.9 l 248.87,-144.7 v 294.2 l -269.08,153 c -34.31,19.6 -46.29,63.2 -26.76,97.5 19.49,34.3 63.14,46.3 97.44,26.8 l 198.4,-112.9 v 343.4 l -269.08,153.1 c -34.31,19.6 -46.29,63.2 -26.76,97.5 19.49,34.3 63.14,46.2 97.44,26.7 l 198.4,-112.8 v 1789.2 l -269.08,153.1 c -34.31,19.6 -46.29,63.2 -26.76,97.5 19.49,34.2 63.14,46.2 97.44,26.7 l 198.4,-112.8 v 343.4 l -269.08,153.2 c -34.31,19.5 -46.29,63.1 -26.76,97.4 19.49,34.3 63.14,46.3 97.44,26.8 l 198.4,-112.9 v 280 l -320.68,186.4 c -34.11,19.8 -45.71,63.5 -25.87,97.7 19.83,34.1 63.58,45.7 97.68,25.8 L 6486.72,8823.1 c 34.1,-19.8 45.7,-63.6 25.92,-97.7 -19.89,-34.1 -63.59,-45.7 -97.74,-25.9 l -575.68,334.6 v -313.9 z m 458.17,349 -3610.98,2098.5 12.57,-4447.8 3647.18,-2119.5 -12.62,4459.4 c -12.29,-0.1 -24.76,2.8 -36.15,9.4"
         style="fill:#faba5c;fill-opacity:1;fill-rule:nonzero;stroke:none"
         id="path32" />
      <path
         d="m 5238.01,5675.4 458.26,-266.3 v 258.5 l -458.26,260.7 v -252.9"
         style="fill:#faba5c;fill-opacity:1;fill-rule:nonzero;stroke:none"
         id="path34" />
      <path
         d="m 5238.01,6600.7 458.26,-260.8 V 8129.2 L 5238.01,8390 V 6600.7"
         style="fill:#faba5c;fill-opacity:1;fill-rule:nonzero;stroke:none"
         id="path36" />
      <path
         d="M 5238.01,6092.8 5696.27,5832 v 343.5 l -458.26,260.8 v -343.5"
         style="fill:#faba5c;fill-opacity:1;fill-rule:nonzero;stroke:none"
         id="path38" />
      <path
         d="m 6627.71,9034 223.82,129.3 -1530.8,889.5 -2.43,861.9 -1335.88,776.3 c -11.2,6.5 -19.72,15.7 -25.72,26.2 l -966.47,-558 3611.76,-2098.9 c 11.2,-6.5 19.68,-15.8 25.72,-26.3"
         style="fill:#f79058;fill-opacity:1;fill-rule:nonzero;stroke:none"
         id="path40" />
      <path
         d="m 5313.77,12500.7 -162.19,-93.7 162.72,-94.5 z"
         style="fill:#f79058;fill-opacity:1;fill-rule:nonzero;stroke:none"
         id="path42" />
      <path
         d="m 5314.79,12146.9 -289.11,168 c -5.36,3.1 -10.04,7 -14.22,11.2 l -921.8,-532.2 1228.15,-713.7 -3.02,1066.7"
         style="fill:#f79058;fill-opacity:1;fill-rule:nonzero;stroke:none"
         id="path44" />
      <path
         d="m 6849.3,8716.4 c -34.1,19.9 -45.71,63.6 -25.92,97.7 19.87,34.1 63.57,45.7 97.73,25.9 l 35.37,-20.6 244.18,140.9 -349.13,203 -223.82,-129.3 c 12.38,-21.4 13.5,-48.5 0.2,-71.4 -13.26,-22.7 -37.08,-35.2 -61.58,-35.3 l 12.62,-4459.4 317.9,183.6 -11.4,4043.9 -36.15,21"
         style="fill:#f9a95b;fill-opacity:1;fill-rule:nonzero;stroke:none"
         id="path46" />
      <path
         d="m 5696.27,5409.1 -458.26,266.3 v -65.3 c 0,-33.2 -22.76,-60.9 -53.5,-68.9 l 511.91,-297.5 c 0,0.5 -0.15,0.9 -0.15,1.3 v 164.1"
         style="fill:#f79058;fill-opacity:1;fill-rule:nonzero;stroke:none"
         id="path48" />
      <path
         d="m 5801.76,5182.5 613.14,-356.3 c 34.15,-19.8 77.85,-8.2 97.74,25.9 19.78,34.1 8.18,77.8 -25.92,97.6 l -647.5,376.4 V 5245 c 0,-27.1 -15.29,-50.4 -37.46,-62.5"
         style="fill:#f79058;fill-opacity:1;fill-rule:nonzero;stroke:none"
         id="path50" />
      <path
         d="m 5095.16,5758.5 -585.77,340.4 v 3708 l 585.77,-340.4 v 17 c 0,39.5 31.96,71.5 71.42,71.5 39.46,0 71.43,-32 71.43,-71.5 v -100 l 458.26,-266.3 v 1.2 c 0,39.4 32.01,71.5 71.47,71.5 39.47,0 71.48,-32.1 71.48,-71.5 v -84.3 l 575.68,-334.6 c 34.15,-19.8 77.85,-8.2 97.74,25.9 19.78,34.1 8.18,77.9 -25.92,97.7 l -3390.96,1970.6 c -34.1,19.9 -77.85,8.3 -97.68,-25.8 -19.84,-34.2 -8.24,-77.9 25.87,-97.7 l 320.68,-186.4 v 41.1 c 0,39.5 31.95,71.5 71.42,71.5 39.46,0 71.43,-32 71.43,-71.5 v -124.1 l 458.26,-266.3 v 25.3 c 0,39.4 32.01,71.5 71.47,71.5 39.47,0 71.48,-32.1 71.48,-71.5 v -108.4 L 4366.48,9890 V 6181.9 l -277.79,161.4 v -56.9 c 0,-37.1 -28.46,-67.3 -64.71,-70.8 l 344.03,-199.8 c 6.77,-32.5 35.51,-56.9 69.9,-56.9 7.61,0 14.72,1.5 21.54,3.6 l 638.44,-370.9 c -1.66,5.9 -2.73,12.1 -2.73,18.5 v 148.4"
         style="fill:#f79058;fill-opacity:1;fill-rule:nonzero;stroke:none"
         id="path52" />
      <path
         d="m 3945.74,6426.4 -458.26,266.3 v -41.1 c 0,-39.5 -31.97,-71.5 -71.43,-71.5 -39.47,0 -71.42,32 -71.42,71.5 v 124.1 l -248.87,144.7 c -34.1,19.8 -77.85,8.2 -97.68,-25.9 -19.84,-34.1 -8.24,-77.9 25.87,-97.7 l 928.02,-539.3 c -3.89,8.9 -6.23,18.6 -6.23,28.9 v 140"
         style="fill:#f79058;fill-opacity:1;fill-rule:nonzero;stroke:none"
         id="path54" />
      <path
         d="m 3146.23,10316.7 c -34.3,19.5 -77.95,7.5 -97.44,-26.8 -19.53,-34.3 -7.55,-77.9 26.76,-97.4 l 269.08,-153.2 v 164.5 l -198.4,112.9"
         style="fill:#f79058;fill-opacity:1;fill-rule:nonzero;stroke:none"
         id="path56" />
      <path
         d="m 4309.69,9572.4 c 19.48,34.3 7.5,77.9 -26.8,97.4 l -194.2,110.5 v -164.4 l 123.56,-70.3 c 34.29,-19.5 77.9,-7.5 97.44,26.8"
         style="fill:#f79058;fill-opacity:1;fill-rule:nonzero;stroke:none"
         id="path58" />
      <path
         d="m 3487.48,9958 458.26,-260.8 v 164.5 l -458.26,260.8 V 9958"
         style="fill:#f79058;fill-opacity:1;fill-rule:nonzero;stroke:none"
         id="path60" />
      <path
         d="m 4309.69,9064.4 c 19.48,34.3 7.5,78 -26.8,97.5 l -194.2,110.5 V 9108 l 123.56,-70.3 c 34.29,-19.5 77.9,-7.6 97.44,26.7"
         style="fill:#f79058;fill-opacity:1;fill-rule:nonzero;stroke:none"
         id="path62" />
      <path
         d="m 3146.23,9808.7 c -34.3,19.5 -77.95,7.5 -97.44,-26.7 -19.53,-34.3 -7.55,-77.9 26.76,-97.5 l 269.08,-153.1 v 164.5 l -198.4,112.8"
         style="fill:#f79058;fill-opacity:1;fill-rule:nonzero;stroke:none"
         id="path64" />
      <path
         d="m 3487.48,9450.1 458.26,-260.8 v 164.4 l -458.26,260.9 v -164.5"
         style="fill:#f79058;fill-opacity:1;fill-rule:nonzero;stroke:none"
         id="path66" />
      <path
         d="m 3146.23,7855 c -34.3,19.5 -77.95,7.6 -97.44,-26.7 -19.53,-34.3 -7.55,-77.9 26.76,-97.5 l 269.08,-153.1 v 164.5 l -198.4,112.8"
         style="fill:#f79058;fill-opacity:1;fill-rule:nonzero;stroke:none"
         id="path68" />
      <path
         d="m 3487.48,7496.4 458.26,-260.8 V 7400 l -458.26,260.8 v -164.4"
         style="fill:#f79058;fill-opacity:1;fill-rule:nonzero;stroke:none"
         id="path70" />
      <path
         d="m 4309.69,7110.7 c 19.48,34.3 7.5,78 -26.8,97.5 l -194.2,110.5 v -164.4 l 123.56,-70.3 c 34.29,-19.5 77.9,-7.6 97.44,26.7"
         style="fill:#f79058;fill-opacity:1;fill-rule:nonzero;stroke:none"
         id="path72" />
      <path
         d="m 3487.48,6988.5 458.26,-260.8 v 164.4 L 3487.48,7153 v -164.5"
         style="fill:#f79058;fill-opacity:1;fill-rule:nonzero;stroke:none"
         id="path74" />
      <path
         d="m 4309.69,6602.8 c 19.48,34.3 7.5,77.9 -26.8,97.5 l -194.2,110.5 v -164.4 l 123.56,-70.4 c 34.29,-19.4 77.9,-7.5 97.44,26.8"
         style="fill:#f79058;fill-opacity:1;fill-rule:nonzero;stroke:none"
         id="path76" />
      <path
         d="m 3146.23,7347.2 c -34.3,19.5 -77.95,7.5 -97.44,-26.8 -19.53,-34.3 -7.55,-77.9 26.76,-97.5 l 269.08,-153 v 164.4 l -198.4,112.9"
         style="fill:#f79058;fill-opacity:1;fill-rule:nonzero;stroke:none"
         id="path78" />
      <path
         d="m 4837.91,9207.8 c -19.53,-34.3 -7.55,-77.9 26.75,-97.4 l 230.5,-131.2 v 164.4 l -159.81,91 c -34.3,19.5 -77.95,7.5 -97.44,-26.8"
         style="fill:#f79058;fill-opacity:1;fill-rule:nonzero;stroke:none"
         id="path80" />
      <path
         d="m 5238.01,8897.9 458.26,-260.8 v 164.4 l -458.26,260.8 v -164.4"
         style="fill:#f79058;fill-opacity:1;fill-rule:nonzero;stroke:none"
         id="path82" />
      <path
         d="m 6001.37,8463.5 c 34.29,-19.6 77.89,-7.6 97.44,26.7 19.48,34.3 7.5,77.9 -26.8,97.5 l -232.79,132.5 v -164.4 l 162.15,-92.3"
         style="fill:#f79058;fill-opacity:1;fill-rule:nonzero;stroke:none"
         id="path84" />
      <path
         d="m 5238.01,8390 458.26,-260.8 v 164.4 l -458.26,260.8 V 8390"
         style="fill:#f79058;fill-opacity:1;fill-rule:nonzero;stroke:none"
         id="path86" />
      <path
         d="m 6001.37,7955.6 c 34.29,-19.5 77.89,-7.6 97.44,26.7 19.48,34.3 7.5,78 -26.8,97.5 l -232.79,132.5 v -164.4 l 162.15,-92.3"
         style="fill:#f79058;fill-opacity:1;fill-rule:nonzero;stroke:none"
         id="path88" />
      <path
         d="m 4837.91,8699.9 c -19.53,-34.3 -7.55,-77.9 26.75,-97.5 l 230.5,-131.1 v 164.5 l -159.81,90.9 c -34.3,19.5 -77.95,7.5 -97.44,-26.8"
         style="fill:#f79058;fill-opacity:1;fill-rule:nonzero;stroke:none"
         id="path90" />
      <path
         d="m 6001.37,6001.8 c 34.29,-19.5 77.89,-7.5 97.44,26.8 19.48,34.3 7.5,77.9 -26.8,97.5 l -232.79,132.5 v -164.5 l 162.15,-92.3"
         style="fill:#f79058;fill-opacity:1;fill-rule:nonzero;stroke:none"
         id="path92" />
      <path
         d="m 5238.01,6436.3 458.26,-260.8 v 164.4 l -458.26,260.8 v -164.4"
         style="fill:#f79058;fill-opacity:1;fill-rule:nonzero;stroke:none"
         id="path94" />
      <path
         d="m 4837.91,6746.2 c -19.53,-34.3 -7.55,-77.9 26.75,-97.5 l 230.5,-131.1 v 164.5 l -159.81,90.9 c -34.3,19.5 -77.95,7.5 -97.44,-26.8"
         style="fill:#f79058;fill-opacity:1;fill-rule:nonzero;stroke:none"
         id="path96" />
      <path
         d="m 6001.37,5494 c 34.29,-19.5 77.89,-7.5 97.44,26.8 19.48,34.2 7.5,77.9 -26.8,97.4 l -232.79,132.5 v -164.5 l 162.15,-92.2"
         style="fill:#f79058;fill-opacity:1;fill-rule:nonzero;stroke:none"
         id="path98" />
      <path
         d="m 4837.91,6238.3 c -19.53,-34.3 -7.55,-77.9 26.75,-97.4 l 230.5,-131.2 v 164.4 l -159.81,91 c -34.3,19.5 -77.95,7.5 -97.44,-26.8"
         style="fill:#f79058;fill-opacity:1;fill-rule:nonzero;stroke:none"
         id="path100" />
      <path
         d="m 5238.01,5928.3 458.26,-260.7 V 5832 l -458.26,260.8 v -164.5"
         style="fill:#f79058;fill-opacity:1;fill-rule:nonzero;stroke:none"
         id="path102" />
      <path
         d="m 3416.05,6580.1 c 39.46,0 71.43,32 71.43,71.5 v 41.1 295.8 164.5 343.4 164.4 1789.3 164.5 343.4 164.5 278.3 124.1 c 0,39.5 -31.97,71.5 -71.43,71.5 -39.47,0 -71.42,-32 -71.42,-71.5 v -41.1 -280 -164.5 -343.4 -164.5 -1789.2 -164.5 -343.4 -164.4 -294.2 -124.1 c 0,-39.5 31.95,-71.5 71.42,-71.5"
         style="fill:#e2e2e2;fill-opacity:1;fill-rule:nonzero;stroke:none"
         id="path104" />
      <path
         d="m 4088.69,6286.4 v 3873.4 c 0,39.4 -32.01,71.5 -71.48,71.5 -39.46,0 -71.47,-32.1 -71.47,-71.5 v -25.3 -272.8 -164.5 -343.5 -164.4 -1789.3 -164.4 -343.5 -164.4 -301.3 -140 c 0,-10.3 2.34,-20 6.23,-28.9 11.12,-25 36.06,-42.6 65.24,-42.6 2.29,0 4.53,0.5 6.77,0.7 36.25,3.5 64.71,33.7 64.71,70.8"
         style="fill:#e2e2e2;fill-opacity:1;fill-rule:nonzero;stroke:none"
         id="path106" />
      <path
         d="m 5238.01,5610.1 v 3873.4 c 0,39.5 -31.97,71.5 -71.43,71.5 -39.46,0 -71.42,-32 -71.42,-71.5 v -17 -322.9 -164.4 -343.4 -164.5 -1789.2 -164.5 -343.5 -164.4 -251.2 -148.4 c 0,-6.4 1.07,-12.6 2.73,-18.5 8.18,-30.5 35.66,-52.9 68.69,-52.9 6.23,0 12.18,1 17.93,2.5 30.74,8 53.5,35.7 53.5,68.9"
         style="fill:#e2e2e2;fill-opacity:1;fill-rule:nonzero;stroke:none"
         id="path108" />
      <path
         d="m 5839.22,9118.4 c 0,39.4 -32.01,71.5 -71.48,71.5 -39.46,0 -71.47,-32.1 -71.47,-71.5 V 9117.2 8801.5 8637.1 8293.6 8129.2 6339.9 6175.5 5832 5667.6 5409.1 5245 c 0,-0.4 0.15,-0.8 0.15,-1.3 0.73,-38.9 32.3,-70.1 71.32,-70.1 12.43,0 23.82,3.4 34.02,8.9 22.17,12.1 37.46,35.4 37.46,62.5 v 81.1 260.1 164.5 343.4 164.5 1789.3 164.4 343.5 164.4 313.9 84.3"
         style="fill:#e2e2e2;fill-opacity:1;fill-rule:nonzero;stroke:none"
         id="path110" />
      <path
         d="m 6566.33,8927.3 c 24.5,0.1 48.32,12.6 61.58,35.3 13.3,22.9 12.18,50 -0.2,71.4 -6.04,10.5 -14.52,19.8 -25.72,26.3 l -3611.76,2098.9 -35.37,20.6 c -34.16,19.8 -77.86,8.2 -97.73,-25.9 -19.79,-34.1 -8.18,-77.8 25.92,-97.7 l 36.15,-21 3610.98,-2098.5 c 11.39,-6.6 23.86,-9.5 36.15,-9.4"
         style="fill:#e2e2e2;fill-opacity:1;fill-rule:nonzero;stroke:none"
         id="path112" />
      <path
         d="m 3982.42,11691 1335.88,-776.3 -0.49,165.5 -1228.15,713.7 -35.42,20.6 c -34.15,19.9 -77.85,8.3 -97.68,-25.8 -13.36,-23 -12.18,-50.1 0.14,-71.5 6,-10.5 14.52,-19.7 25.72,-26.2"
         style="fill:#faba5c;fill-opacity:1;fill-rule:nonzero;stroke:none"
         id="path114" />
      <path
         d="m 5314.79,12146.9 -0.49,165.6 -162.72,94.5 -54.08,31.4 c -34.11,19.9 -77.86,8.3 -97.7,-25.8 -16.69,-28.8 -10.9,-64.1 11.66,-86.5 4.18,-4.2 8.86,-8.1 14.22,-11.2 l 289.11,-168"
         style="fill:#faba5c;fill-opacity:1;fill-rule:nonzero;stroke:none"
         id="path116" />
      <path
         d="m 9204.26,3335.6 458.26,-266.3 v 258.5 l -458.26,260.8 v -253"
         style="fill:#70af89;fill-opacity:1;fill-rule:nonzero;stroke:none"
         id="path118" />
      <path
         d="m 7453.72,4352.9 458.27,-266.3 V 4388 l -458.27,260.7 v -295.8"
         style="fill:#70af89;fill-opacity:1;fill-rule:nonzero;stroke:none"
         id="path120" />
      <path
         d="m 9204.26,3753.1 458.26,-260.8 v 343.5 l -458.26,260.8 v -343.5"
         style="fill:#70af89;fill-opacity:1;fill-rule:nonzero;stroke:none"
         id="path122" />
      <path
         d="m 10038.3,6247.9 c 34.3,-19.5 46.2,-63.2 26.7,-97.5 -19.5,-34.3 -63.1,-46.2 -97.39,-26.7 L 9805.47,6216 V 5872.5 L 10038.3,5740 c 34.3,-19.5 46.2,-63.1 26.7,-97.5 -19.5,-34.2 -63.1,-46.2 -97.39,-26.7 L 9805.47,5708 V 3918.9 l 232.83,-132.6 c 34.3,-19.5 46.2,-63.1 26.7,-97.4 -19.5,-34.3 -63.1,-46.3 -97.39,-26.7 l -162.14,92.2 V 3411 l 232.83,-132.5 c 34.3,-19.6 46.2,-63.2 26.7,-97.5 -19.5,-34.3 -63.1,-46.2 -97.39,-26.7 l -162.14,92.3 V 2986.2 L 10453,2609.9 c 34.1,-19.8 45.7,-63.5 25.9,-97.6 -19.9,-34.2 -63.6,-45.7 -97.7,-25.9 l -613.25,356.4 c -10.14,-5.6 -21.58,-9 -33.96,-9 -39.02,0 -70.59,31.3 -71.28,70.1 l -512.05,297.6 c -5.75,-1.5 -11.6,-2.6 -17.83,-2.6 -32.94,0 -60.41,22.5 -68.69,52.9 l -638.53,371 c -6.83,-2.1 -13.95,-3.6 -21.45,-3.6 -34.39,0 -63.14,24.3 -69.86,56.7 l -344.16,200 c -2.25,-0.2 -4.39,-0.7 -6.68,-0.7 -29.08,0 -54.03,17.5 -65.19,42.5 L 6990.2,4457 c -34.11,19.9 -45.71,63.6 -25.88,97.7 19.83,34.1 63.59,45.7 97.69,25.9 L 7310.88,4436 v 294.1 l -269.09,153.1 c -34.3,19.5 -46.28,63.1 -26.75,97.4 19.49,34.3 63.14,46.3 97.44,26.8 l 198.4,-112.9 V 5238 l -269.09,153.2 c -34.3,19.4 -46.28,63.1 -26.75,97.4 19.49,34.3 63.14,46.3 97.44,26.7 l 198.4,-112.8 v 1789.2 l -269.09,153.1 c -34.3,19.5 -46.28,63.1 -26.75,97.4 19.49,34.3 63.14,46.3 97.44,26.8 l 198.4,-112.9 v 343.4 l -269.09,153.2 c -34.3,19.5 -46.28,63.2 -26.75,97.5 19.49,34.3 63.14,46.2 97.44,26.7 l 198.4,-112.9 v 280.1 l -320.68,186.3 c -34.11,19.9 -45.71,63.6 -25.88,97.7 19.83,34.1 63.59,45.7 97.69,25.9 L 10453,6483.4 c 34.1,-19.9 45.7,-63.6 25.9,-97.7 -19.9,-34.1 -63.6,-45.7 -97.7,-25.9 l -575.73,334.6 v -314 z m 458.1,349.1 -3610.95,2098.4 11.4,-4043.9 1.16,-403.8 3647.09,-2119.5 -12.6,4459.4 c -12.2,-0.1 -24.7,2.8 -36.1,9.4"
         style="fill:#70af89;fill-opacity:1;fill-rule:nonzero;stroke:none"
         id="path124" />
      <path
         d="m 8249.14,7330 c 34.3,-19.6 46.28,-63.2 26.8,-97.5 -19.54,-34.3 -63.15,-46.2 -97.44,-26.7 l -123.56,70.3 v -343.4 l 194.2,-110.6 c 34.3,-19.5 46.28,-63.2 26.8,-97.5 -19.54,-34.3 -63.15,-46.2 -97.44,-26.7 l -123.56,70.3 V 4979 l 194.2,-110.5 c 34.3,-19.6 46.28,-63.2 26.8,-97.5 -19.54,-34.3 -63.15,-46.2 -97.44,-26.8 l -123.56,70.4 v -343.5 l 194.2,-110.5 c 34.3,-19.6 46.28,-63.2 26.8,-97.5 -19.54,-34.3 -63.15,-46.3 -97.44,-26.7 l -123.56,70.3 v -303.1 l 277.79,-161.5 v 3708.2 l -277.79,161.4 v -271.2 l 194.2,-110.5"
         style="fill:#70af89;fill-opacity:1;fill-rule:nonzero;stroke:none"
         id="path126" />
      <path
         d="m 9204.26,6214.6 458.26,-260.8 v 343.5 l -458.26,260.8 v -343.5"
         style="fill:#70af89;fill-opacity:1;fill-rule:nonzero;stroke:none"
         id="path128" />
      <path
         d="m 9204.26,4261 458.26,-260.8 v 1789.2 l -458.26,260.8 V 4261"
         style="fill:#70af89;fill-opacity:1;fill-rule:nonzero;stroke:none"
         id="path130" />
      <path
         d="m 9204.26,6722.5 458.26,-260.8 v 315.8 l -458.26,266.3 v -321.3"
         style="fill:#70af89;fill-opacity:1;fill-rule:nonzero;stroke:none"
         id="path132" />
      <path
         d="m 7453.72,4813.2 458.27,-260.8 v 343.5 l -458.27,260.8 v -343.5"
         style="fill:#70af89;fill-opacity:1;fill-rule:nonzero;stroke:none"
         id="path134" />
      <path
         d="M 7453.72,7274.8 7911.99,7014 v 343.4 l -458.27,260.8 v -343.4"
         style="fill:#70af89;fill-opacity:1;fill-rule:nonzero;stroke:none"
         id="path136" />
      <path
         d="m 7453.72,5321.1 458.27,-260.8 v 1789.3 l -458.27,260.7 V 5321.1"
         style="fill:#70af89;fill-opacity:1;fill-rule:nonzero;stroke:none"
         id="path138" />
      <path
         d="m 7911.99,7521.9 v 272.8 L 7453.72,8061 v -278.3 l 458.27,-260.8"
         style="fill:#70af89;fill-opacity:1;fill-rule:nonzero;stroke:none"
         id="path140" />
      <path
         d="m 8475.59,3759.1 585.82,-340.4 V 3670 l -230.55,131.1 c -34.3,19.5 -46.29,63.1 -26.7,97.4 19.49,34.4 63.14,46.3 97.44,26.8 l 159.81,-90.9 v 343.5 l -230.55,131.2 c -34.3,19.5 -46.29,63.1 -26.7,97.4 19.49,34.3 63.14,46.3 97.44,26.8 l 159.81,-91 v 1789.2 l -230.55,131.2 c -34.3,19.5 -46.29,63.1 -26.7,97.4 19.49,34.3 63.14,46.3 97.44,26.8 l 159.81,-91 v 343.5 l -230.55,131.2 c -34.3,19.5 -46.29,63.2 -26.7,97.5 19.49,34.3 63.14,46.2 97.44,26.7 l 159.81,-90.9 v 322.9 l -585.82,340.4 V 3759.1"
         style="fill:#70af89;fill-opacity:1;fill-rule:nonzero;stroke:none"
         id="path142" />
      <path
         d="m 14296.4,10962.8 c 0,-42.5 -34.4,-76.9 -76.8,-76.9 -29.3,0 -54.5,16.6 -67.5,40.6 l -160.8,-92.8 1844.2,-1071.7 c 0.7,-0.5 1.3,-1 2,-1.5 2.3,-1.4 4.5,-3 6.6,-4.8 1.8,-1.4 3.8,-2.9 5.5,-4.5 1.8,-1.7 3.4,-3.5 4.9,-5.4 1.7,-1.9 3.4,-3.8 4.9,-5.8 1,-1.4 1.8,-2.8 2.6,-4.1 l 831.5,480 v 2.8 l -1877.6,1091.1 -519.5,-300 v -47"
         style="fill:#2e9d90;fill-opacity:1;fill-rule:nonzero;stroke:none"
         id="path144" />
      <path
         d="m 16149.5,12031.8 c 0,-42.4 -34.5,-76.8 -76.9,-76.8 -29.5,0 -54.9,16.8 -67.7,41.2 l -161.2,-93 1844.8,-1072.1 c 0.7,-0.5 1.3,-1 2,-1.5 2.4,-1.5 4.5,-3.1 6.6,-4.8 1.9,-1.5 3.8,-2.9 5.5,-4.5 1.8,-1.7 3.4,-3.6 5.1,-5.5 1.6,-1.9 3.3,-3.7 4.7,-5.8 0.8,-1.1 1.6,-2.3 2.3,-3.5 l 638.1,368.4 -1879.9,1092.5 -323.4,-186.7 v -47.9"
         style="fill:#2e9d90;fill-opacity:1;fill-rule:nonzero;stroke:none"
         id="path146" />
      <path
         d="m 15269.9,11530.2 c 0,-42.5 -34.4,-76.9 -76.9,-76.9 -27.6,0 -51.6,14.7 -65.1,36.6 l -158.5,-91.5 1839.6,-1069 c 0.6,-0.5 1.2,-1 1.9,-1.5 2.3,-1.4 4.5,-3.1 6.6,-4.8 2,-1.4 3.8,-2.9 5.6,-4.5 1.7,-1.7 3.3,-3.6 5,-5.5 1.6,-1.9 3.3,-3.7 4.7,-5.7 1.5,-2 2.7,-4.2 3.9,-6.4 0.3,-0.6 0.8,-1.1 1.1,-1.8 l 732.4,422.8 -1880,1092.5 -420.3,-242.6 v -41.7"
         style="fill:#2e9d90;fill-opacity:1;fill-rule:nonzero;stroke:none"
         id="path148" />
      <path
         d="m 12202.2,9751.8 c 0,-42.4 -34.5,-76.8 -76.8,-76.8 -29.9,0 -55.5,17.2 -68.2,42 l -152.2,-87.8 1836.2,-1067.1 c 13.8,-8 24.2,-19.7 30.6,-33 l 842,486.1 -1879.9,1092.5 -531.7,-307 v -48.9"
         style="fill:#2e9d90;fill-opacity:1;fill-rule:nonzero;stroke:none"
         id="path150" />
      <path
         d="m 11196.7,9162.8 c 0,-42.5 -34.5,-76.9 -76.8,-76.9 -32.5,0 -60.2,20.2 -71.5,48.7 l -157.9,-91.2 1823.1,-1059.5 c 10.4,-6.1 18.7,-14.4 25,-23.8 7.1,-4.6 13.2,-10.4 18.4,-17 l 868.8,501.7 v 6.6 l -1874.2,1089.2 -554.9,-320.4 v -57.4"
         style="fill:#2e9d90;fill-opacity:1;fill-rule:nonzero;stroke:none"
         id="path152" />
      <path
         d="m 13194.9,10324 c 0,-42.4 -34.4,-76.9 -76.9,-76.9 -30.1,0 -55.9,17.6 -68.5,42.8 l -162.2,-93.6 1846.6,-1073 c 0.7,-0.5 1.3,-1.1 2,-1.5 2.3,-1.5 4.5,-3.1 6.6,-4.8 1.9,-1.4 3.8,-2.9 5.6,-4.6 1.7,-1.6 3.3,-3.5 4.8,-5.3 1.8,-2 3.5,-3.8 4.9,-5.9 0.5,-0.7 1.1,-1.3 1.5,-2 l 958.5,553.3 -1879.9,1092.6 -643,-371.3 v -49.8"
         style="fill:#2e9d90;fill-opacity:1;fill-rule:nonzero;stroke:none"
         id="path154" />
      <path
         d="m 10131.3,8560.7 c 0,-42.4 -34.4,-76.9 -76.9,-76.9 -28.4,0 -52.9,15.7 -66.24,38.6 L 9828.55,8430.3 11670.4,7360 c 0.7,-0.5 1.3,-1 1.9,-1.5 2.4,-1.5 4.5,-3.1 6.7,-4.8 1.9,-1.4 3.8,-2.9 5.5,-4.5 1.8,-1.7 3.4,-3.6 5,-5.5 1.7,-1.9 3.3,-3.7 4.8,-5.8 1.3,-1.9 2.5,-4 3.8,-6.1 l 918.8,530.5 -1879.9,1092.5 -605.7,-349.7 v -44.4"
         style="fill:#2e9d90;fill-opacity:1;fill-rule:nonzero;stroke:none"
         id="path156" />
      <path
         d="M 7200.66,8960.3 6956.48,8819.4 10568.2,6720.5 c 11.2,-6.5 19.7,-15.7 25.8,-26.2 l 960.9,554.9 v 0.1 L 9675.09,8341.7 8967.86,7933.4 7200.66,8960.3"
         style="fill:#2e9d90;fill-opacity:1;fill-rule:nonzero;stroke:none"
         id="path158" />
      <path
         d="M 11554.9,7249.2 10594,6694.3 c 12.3,-21.4 13.4,-48.5 0.1,-71.4 -13.2,-22.8 -37.1,-35.2 -61.6,-35.3 l 12.6,-4459.4 1020.3,589.1 c -6.5,11.3 -10.5,24.2 -10.5,38.2 v 4493.7"
         style="fill:#59a98c;fill-opacity:1;fill-rule:nonzero;stroke:none"
         id="path160" />
      <path
         d="m 12620.3,7860.3 -3.4,2 -918.8,-530.5 c 0,-0.1 0,-0.1 0.1,-0.2 1.1,-2.1 2.4,-4.1 3.4,-6.3 1,-2.4 1.8,-4.8 2.6,-7.2 0.8,-2.3 1.6,-4.6 2.1,-6.9 0.6,-2.4 0.9,-4.8 1.2,-7.2 0.4,-2.7 0.8,-5.3 0.9,-8 0,-0.8 0.2,-1.6 0.2,-2.5 V 2799.9 l 917.1,529.5 c -3.4,8.8 -5.4,18.2 -5.4,28.2 v 4502.7"
         style="fill:#59a98c;fill-opacity:1;fill-rule:nonzero;stroke:none"
         id="path162" />
      <path
         d="m 16693.5,10215.9 -831.5,-480 c 0.4,-0.7 0.7,-1.4 1.1,-2.1 1.3,-2.2 2.6,-4.3 3.6,-6.6 1,-2.2 1.8,-4.6 2.6,-6.9 0.8,-2.4 1.6,-4.7 2.2,-7.1 0.6,-2.3 0.9,-4.7 1.1,-7 0.4,-2.8 0.8,-5.5 0.9,-8.2 0,-0.9 0.2,-1.7 0.2,-2.5 V 5204.6 l 831.4,480 c -7.2,11.8 -11.6,25.5 -11.6,40.3 v 4491"
         style="fill:#59a98c;fill-opacity:1;fill-rule:nonzero;stroke:none"
         id="path164" />
      <path
         d="M 13625.8,8444.8 12757,7943.1 c 10.5,-13.1 17,-29.5 17,-47.6 V 3415 l 860.5,496.8 c -5.4,10.5 -8.7,22.3 -8.7,34.9 v 4498.1"
         style="fill:#59a98c;fill-opacity:1;fill-rule:nonzero;stroke:none"
         id="path166" />
      <path
         d="m 17573,10720.4 -2.8,1.6 -732.4,-422.8 c 0.8,-1.5 1.7,-3 2.3,-4.5 1.1,-2.3 1.9,-4.8 2.7,-7.2 0.8,-2.3 1.6,-4.6 2.1,-6.9 0.6,-2.3 0.9,-4.8 1.2,-7.2 0.4,-2.7 0.8,-5.3 0.9,-7.9 0,-0.9 0.2,-1.7 0.2,-2.6 V 5766.7 l 735,424.3 c -5.7,10.7 -9.2,22.7 -9.2,35.7 v 4493.7"
         style="fill:#59a98c;fill-opacity:1;fill-rule:nonzero;stroke:none"
         id="path168" />
      <path
         d="m 14618.4,9012.6 -4.6,2.6 -842,-486.1 c 5.9,-12.3 8.2,-26 7.2,-39.6 0.1,-1.7 0.5,-3.2 0.5,-4.9 V 3995.5 l 847.3,489.2 c -5.2,10.3 -8.4,21.8 -8.4,34.1 v 4493.8"
         style="fill:#59a98c;fill-opacity:1;fill-rule:nonzero;stroke:none"
         id="path170" />
      <path
         d="m 18352.8,11173.9 -638.1,-368.4 c 0.6,-0.9 1.1,-1.9 1.5,-2.8 1.2,-2.1 2.5,-4.1 3.5,-6.3 1,-2.4 1.8,-4.8 2.7,-7.2 0.8,-2.3 1.5,-4.6 2.1,-6.9 0.5,-2.4 0.8,-4.8 1.2,-7.2 0.4,-2.7 0.7,-5.3 0.8,-8 0,-0.9 0.3,-1.6 0.3,-2.5 V 6274.5 l 638.9,368.9 -12.9,4530.5"
         style="fill:#59a98c;fill-opacity:1;fill-rule:nonzero;stroke:none"
         id="path172" />
      <path
         d="m 15720,9651.3 -2.2,1.2 -958.5,-553.3 c 0.9,-1.3 1.4,-2.7 2.2,-4.1 1.3,-2.2 2.6,-4.3 3.6,-6.6 1.1,-2.3 1.8,-4.6 2.6,-7 0.8,-2.3 1.6,-4.6 2.2,-7.1 0.6,-2.3 0.9,-4.6 1.2,-6.9 0.4,-2.8 0.7,-5.5 0.8,-8.3 0.1,-0.8 0.2,-1.6 0.2,-2.4 V 4568.7 l 957.4,552.6 c -5.8,10.9 -9.5,23.1 -9.5,36.3 v 4493.7"
         style="fill:#59a98c;fill-opacity:1;fill-rule:nonzero;stroke:none"
         id="path174" />
      <path
         d="m 11708.4,7296 c -0.1,2.7 -0.5,5.3 -0.9,8 -0.3,2.4 -0.6,4.8 -1.2,7.2 -0.5,2.3 -1.3,4.6 -2.1,6.9 -0.8,2.4 -1.6,4.8 -2.6,7.2 -1,2.2 -2.3,4.2 -3.4,6.3 -0.1,0.1 -0.1,0.1 -0.1,0.2 -1.3,2.1 -2.5,4.2 -3.8,6.1 -1.5,2.1 -3.1,3.9 -4.8,5.8 -1.6,1.9 -3.2,3.8 -5,5.5 -1.7,1.6 -3.6,3.1 -5.5,4.5 -2.2,1.7 -4.3,3.3 -6.7,4.8 -0.6,0.5 -1.2,1 -1.9,1.5 L 9828.55,8430.3 9675.09,8341.7 11554.9,7249.3 v -0.1 -4493.7 c 0,-14 4,-26.9 10.5,-38.2 13.4,-23 37.9,-38.6 66.4,-38.6 42.4,0 76.8,34.4 76.8,76.8 v 44.4 4493.6 c 0,0.9 -0.2,1.7 -0.2,2.5"
         style="fill:#42a28e;fill-opacity:1;fill-rule:nonzero;stroke:none"
         id="path176" />
      <path
         d="m 12757,7943.1 c -5.2,6.6 -11.3,12.4 -18.4,17 -6.3,9.4 -14.6,17.7 -25,23.8 l -1823.1,1059.5 -153.5,-88.6 1879.9,-1092.5 3.4,-2 V 3357.6 c 0,-10 2,-19.4 5.4,-28.2 11.3,-28.5 38.9,-48.7 71.4,-48.7 42.4,0 76.9,34.4 76.9,76.9 v 57.4 4480.5 c 0,18.1 -6.5,34.5 -17,47.6"
         style="fill:#42a28e;fill-opacity:1;fill-rule:nonzero;stroke:none"
         id="path178" />
      <path
         d="m 13779,8489.5 c 1,13.6 -1.3,27.3 -7.2,39.6 -6.4,13.3 -16.8,25 -30.6,33 l -1836.2,1067.1 -153.4,-88.6 1874.2,-1089.2 v -6.6 -4498.1 c 0,-12.6 3.3,-24.4 8.7,-34.9 12.7,-24.8 38.3,-42 68.1,-42 42.4,0 76.9,34.4 76.9,76.9 v 48.8 4489.1 c 0,1.7 -0.4,3.2 -0.5,4.9"
         style="fill:#42a28e;fill-opacity:1;fill-rule:nonzero;stroke:none"
         id="path180" />
      <path
         d="m 14771.9,9059.2 c -0.1,2.8 -0.4,5.5 -0.8,8.3 -0.3,2.3 -0.6,4.6 -1.2,6.9 -0.6,2.5 -1.4,4.8 -2.2,7.1 -0.8,2.4 -1.5,4.7 -2.6,7 -1,2.3 -2.3,4.4 -3.6,6.6 -0.8,1.4 -1.3,2.8 -2.2,4.1 -0.4,0.7 -1,1.3 -1.5,2 -1.4,2.1 -3.1,3.9 -4.9,5.9 -1.5,1.8 -3.1,3.7 -4.8,5.3 -1.8,1.7 -3.7,3.2 -5.6,4.6 -2.1,1.7 -4.3,3.3 -6.6,4.8 -0.7,0.4 -1.3,1 -2,1.5 l -1846.6,1073 -153.4,-88.6 1879.9,-1092.5 4.6,-2.6 V 4518.8 c 0,-12.3 3.2,-23.8 8.4,-34.1 12.5,-25.2 38.4,-42.7 68.5,-42.7 42.4,0 76.8,34.4 76.8,76.8 v 49.9 4488.1 c 0,0.8 -0.1,1.6 -0.2,2.4"
         style="fill:#42a28e;fill-opacity:1;fill-rule:nonzero;stroke:none"
         id="path182" />
      <path
         d="m 15873.5,9698 c -0.1,2.7 -0.5,5.4 -0.9,8.2 -0.2,2.3 -0.5,4.7 -1.1,7 -0.6,2.4 -1.4,4.7 -2.2,7.1 -0.8,2.3 -1.6,4.7 -2.6,6.9 -1,2.3 -2.3,4.4 -3.6,6.6 -0.4,0.7 -0.7,1.4 -1.1,2.1 -0.8,1.3 -1.6,2.7 -2.6,4.1 -1.5,2 -3.2,3.9 -4.9,5.8 -1.5,1.9 -3.1,3.7 -4.9,5.4 -1.7,1.6 -3.7,3.1 -5.5,4.5 -2.1,1.8 -4.3,3.4 -6.6,4.8 -0.7,0.5 -1.3,1 -2,1.5 l -1844.2,1071.7 -153.4,-88.6 1879.9,-1092.6 2.2,-1.2 V 5157.6 c 0,-13.2 3.7,-25.4 9.5,-36.3 13,-24 38.1,-40.6 67.3,-40.6 42.5,0 76.9,34.4 76.9,76.9 v 47 4490.9 c 0,0.8 -0.2,1.6 -0.2,2.5"
         style="fill:#42a28e;fill-opacity:1;fill-rule:nonzero;stroke:none"
         id="path184" />
      <path
         d="m 16847,10265.5 c -0.1,2.6 -0.5,5.2 -0.9,7.9 -0.3,2.4 -0.6,4.9 -1.2,7.2 -0.5,2.3 -1.3,4.6 -2.1,6.9 -0.8,2.4 -1.6,4.9 -2.7,7.2 -0.6,1.5 -1.5,3 -2.3,4.5 -0.3,0.7 -0.8,1.2 -1.1,1.8 -1.2,2.2 -2.4,4.4 -3.9,6.4 -1.4,2 -3.1,3.8 -4.7,5.7 -1.7,1.9 -3.3,3.8 -5,5.5 -1.8,1.6 -3.6,3.1 -5.6,4.5 -2.1,1.7 -4.3,3.4 -6.6,4.8 -0.7,0.5 -1.3,1 -1.9,1.5 l -1839.6,1069 -153.5,-88.6 1877.6,-1091.1 v -2.8 -4491 c 0,-14.8 4.4,-28.5 11.6,-40.3 13.6,-21.8 37.6,-36.5 65.2,-36.5 42.5,0 76.9,34.4 76.9,76.8 v 41.8 4496.2 c 0,0.9 -0.2,1.7 -0.2,2.6"
         style="fill:#42a28e;fill-opacity:1;fill-rule:nonzero;stroke:none"
         id="path186" />
      <path
         d="m 17726.5,10767.1 c -0.1,2.7 -0.4,5.3 -0.8,8 -0.4,2.4 -0.7,4.8 -1.2,7.2 -0.6,2.3 -1.3,4.6 -2.1,6.9 -0.9,2.4 -1.7,4.8 -2.7,7.2 -1,2.2 -2.3,4.2 -3.5,6.3 -0.4,0.9 -0.9,1.9 -1.5,2.8 -0.7,1.2 -1.5,2.4 -2.3,3.5 -1.4,2.1 -3.1,3.9 -4.7,5.8 -1.7,1.9 -3.3,3.8 -5.1,5.5 -1.7,1.6 -3.6,3 -5.5,4.5 -2.1,1.7 -4.2,3.3 -6.6,4.8 -0.7,0.5 -1.3,1 -2,1.5 l -1844.8,1072.1 -153.5,-88.7 1880,-1092.5 2.8,-1.6 V 6226.7 c 0,-13 3.5,-25 9.2,-35.7 12.8,-24.4 38.2,-41.2 67.7,-41.2 42.4,0 76.9,34.4 76.9,76.9 v 47.8 4490.1 c 0,0.9 -0.3,1.6 -0.3,2.5"
         style="fill:#42a28e;fill-opacity:1;fill-rule:nonzero;stroke:none"
         id="path188" />
      <path
         d="m 9662.52,3069.3 -458.26,266.3 v -65.2 c 0,-33.3 -22.8,-61 -53.6,-68.9 l 512.05,-297.6 c -0.04,0.5 -0.19,0.9 -0.19,1.3 v 164.1"
         style="fill:#42a28e;fill-opacity:1;fill-rule:nonzero;stroke:none"
         id="path190" />
      <path
         d="m 9767.95,2842.8 613.25,-356.4 c 34.1,-19.8 77.8,-8.3 97.7,25.9 19.8,34.1 8.2,77.8 -25.9,97.6 l -647.53,376.3 v -81 c 0,-27.1 -15.3,-50.3 -37.52,-62.4"
         style="fill:#42a28e;fill-opacity:1;fill-rule:nonzero;stroke:none"
         id="path192" />
      <path
         d="m 9061.41,3418.7 -585.82,340.4 v 3708.1 l 585.82,-340.4 v 16.9 c 0,39.5 31.95,71.5 71.42,71.5 39.46,0 71.43,-32 71.43,-71.5 v -99.9 l 458.26,-266.3 v 1.1 c 0,39.5 32.01,71.5 71.47,71.5 39.47,0 71.48,-32 71.48,-71.5 v -84.2 l 575.73,-334.6 c 34.1,-19.8 77.8,-8.2 97.7,25.9 19.8,34.1 8.2,77.8 -25.9,97.7 L 7062.01,8454 c -34.1,19.8 -77.86,8.2 -97.69,-25.9 -19.83,-34.1 -8.23,-77.8 25.88,-97.7 l 320.68,-186.3 v 41.1 c 0,39.5 31.95,71.5 71.42,71.5 39.46,0 71.42,-32 71.42,-71.5 V 8061 l 458.27,-266.3 v 25.4 c 0,39.4 32.01,71.4 71.47,71.4 39.47,0 71.48,-32 71.48,-71.4 v -108.4 l 277.79,-161.4 V 3842.1 l -277.79,161.5 v -56.9 c 0,-37.2 -28.51,-67.3 -64.8,-70.8 l 344.16,-200 c 6.72,-32.4 35.47,-56.7 69.86,-56.7 7.5,0 14.62,1.5 21.45,3.6 l 638.53,-371 c -1.62,5.9 -2.73,12.1 -2.73,18.6 v 148.3"
         style="fill:#42a28e;fill-opacity:1;fill-rule:nonzero;stroke:none"
         id="path194" />
      <path
         d="m 7911.99,4086.6 -458.27,266.3 v -41.1 c 0,-39.5 -31.96,-71.4 -71.42,-71.4 -39.47,0 -71.42,31.9 -71.42,71.4 V 4436 l -248.87,144.6 c -34.1,19.8 -77.86,8.2 -97.69,-25.9 -19.83,-34.1 -8.23,-77.8 25.88,-97.7 l 928.07,-539.3 c -3.94,8.9 -6.28,18.7 -6.28,29 v 139.9"
         style="fill:#42a28e;fill-opacity:1;fill-rule:nonzero;stroke:none"
         id="path196" />
      <path
         d="m 8275.94,7232.5 c 19.48,34.3 7.5,77.9 -26.8,97.5 l -194.2,110.5 v -164.4 l 123.56,-70.3 c 34.29,-19.5 77.9,-7.6 97.44,26.7"
         style="fill:#42a28e;fill-opacity:1;fill-rule:nonzero;stroke:none"
         id="path198" />
      <path
         d="m 7112.48,7976.9 c -34.3,19.5 -77.95,7.6 -97.44,-26.7 -19.53,-34.3 -7.55,-78 26.75,-97.5 l 269.09,-153.2 V 7864 l -198.4,112.9"
         style="fill:#42a28e;fill-opacity:1;fill-rule:nonzero;stroke:none"
         id="path200" />
      <path
         d="m 7453.72,7618.2 458.27,-260.8 v 164.5 l -458.27,260.8 v -164.5"
         style="fill:#42a28e;fill-opacity:1;fill-rule:nonzero;stroke:none"
         id="path202" />
      <path
         d="m 7112.48,7469 c -34.3,19.5 -77.95,7.5 -97.44,-26.8 -19.53,-34.3 -7.55,-77.9 26.75,-97.4 l 269.09,-153.1 v 164.4 l -198.4,112.9"
         style="fill:#42a28e;fill-opacity:1;fill-rule:nonzero;stroke:none"
         id="path204" />
      <path
         d="m 8275.94,6724.6 c 19.48,34.3 7.5,78 -26.8,97.5 l -194.2,110.6 v -164.5 l 123.56,-70.3 c 34.29,-19.5 77.9,-7.6 97.44,26.7"
         style="fill:#42a28e;fill-opacity:1;fill-rule:nonzero;stroke:none"
         id="path206" />
      <path
         d="m 7453.72,7110.3 458.27,-260.7 V 7014 l -458.27,260.8 v -164.5"
         style="fill:#42a28e;fill-opacity:1;fill-rule:nonzero;stroke:none"
         id="path208" />
      <path
         d="m 8275.94,4771 c 19.48,34.3 7.5,77.9 -26.8,97.5 l -194.2,110.5 v -164.4 l 123.56,-70.4 c 34.29,-19.4 77.9,-7.5 97.44,26.8"
         style="fill:#42a28e;fill-opacity:1;fill-rule:nonzero;stroke:none"
         id="path210" />
      <path
         d="m 7112.48,5515.3 c -34.3,19.6 -77.95,7.6 -97.44,-26.7 -19.53,-34.3 -7.55,-78 26.75,-97.4 L 7310.88,5238 v 164.5 l -198.4,112.8"
         style="fill:#42a28e;fill-opacity:1;fill-rule:nonzero;stroke:none"
         id="path212" />
      <path
         d="m 7453.72,5156.7 458.27,-260.8 v 164.4 l -458.27,260.8 v -164.4"
         style="fill:#42a28e;fill-opacity:1;fill-rule:nonzero;stroke:none"
         id="path214" />
      <path
         d="M 7453.72,4648.7 7911.99,4388 v 164.4 l -458.27,260.8 v -164.5"
         style="fill:#42a28e;fill-opacity:1;fill-rule:nonzero;stroke:none"
         id="path216" />
      <path
         d="m 7112.48,5007.4 c -34.3,19.5 -77.95,7.5 -97.44,-26.8 -19.53,-34.3 -7.55,-77.9 26.75,-97.4 l 269.09,-153.1 v 164.4 l -198.4,112.9"
         style="fill:#42a28e;fill-opacity:1;fill-rule:nonzero;stroke:none"
         id="path218" />
      <path
         d="m 8275.94,4263.1 c 19.48,34.3 7.5,77.9 -26.8,97.5 l -194.2,110.5 v -164.4 l 123.56,-70.3 c 34.29,-19.6 77.9,-7.6 97.44,26.7"
         style="fill:#42a28e;fill-opacity:1;fill-rule:nonzero;stroke:none"
         id="path220" />
      <path
         d="m 8804.16,6868.1 c -19.59,-34.3 -7.6,-78 26.7,-97.5 l 230.55,-131.2 v 164.5 l -159.81,90.9 c -34.3,19.5 -77.95,7.6 -97.44,-26.7"
         style="fill:#42a28e;fill-opacity:1;fill-rule:nonzero;stroke:none"
         id="path222" />
      <path
         d="m 9204.26,6558.1 458.26,-260.8 v 164.4 l -458.26,260.8 v -164.4"
         style="fill:#42a28e;fill-opacity:1;fill-rule:nonzero;stroke:none"
         id="path224" />
      <path
         d="m 9967.61,6123.7 c 34.29,-19.5 77.89,-7.6 97.39,26.7 19.5,34.3 7.6,78 -26.7,97.5 l -232.83,132.5 V 6216 l 162.14,-92.3"
         style="fill:#42a28e;fill-opacity:1;fill-rule:nonzero;stroke:none"
         id="path226" />
      <path
         d="m 9967.61,5615.8 c 34.29,-19.5 77.89,-7.5 97.39,26.7 19.5,34.4 7.6,78 -26.7,97.5 l -232.83,132.5 V 5708 l 162.14,-92.2"
         style="fill:#42a28e;fill-opacity:1;fill-rule:nonzero;stroke:none"
         id="path228" />
      <path
         d="m 8804.16,6360.1 c -19.59,-34.3 -7.6,-77.9 26.7,-97.4 l 230.55,-131.2 v 164.4 l -159.81,91 c -34.3,19.5 -77.95,7.5 -97.44,-26.8"
         style="fill:#42a28e;fill-opacity:1;fill-rule:nonzero;stroke:none"
         id="path230" />
      <path
         d="m 9204.26,6050.2 458.26,-260.8 v 164.4 l -458.26,260.8 v -164.4"
         style="fill:#42a28e;fill-opacity:1;fill-rule:nonzero;stroke:none"
         id="path232" />
      <path
         d="m 8804.16,4406.5 c -19.59,-34.3 -7.6,-77.9 26.7,-97.4 l 230.55,-131.2 v 164.4 l -159.81,91 c -34.3,19.5 -77.95,7.5 -97.44,-26.8"
         style="fill:#42a28e;fill-opacity:1;fill-rule:nonzero;stroke:none"
         id="path234" />
      <path
         d="m 9204.26,4096.6 458.26,-260.8 v 164.4 L 9204.26,4261 v -164.4"
         style="fill:#42a28e;fill-opacity:1;fill-rule:nonzero;stroke:none"
         id="path236" />
      <path
         d="m 9967.61,3662.2 c 34.29,-19.6 77.89,-7.6 97.39,26.7 19.5,34.3 7.6,77.9 -26.7,97.4 l -232.83,132.6 v -164.5 l 162.14,-92.2"
         style="fill:#42a28e;fill-opacity:1;fill-rule:nonzero;stroke:none"
         id="path238" />
      <path
         d="m 8804.16,3898.5 c -19.59,-34.3 -7.6,-77.9 26.7,-97.4 L 9061.41,3670 v 164.4 l -159.81,90.9 c -34.3,19.5 -77.95,7.6 -97.44,-26.8"
         style="fill:#42a28e;fill-opacity:1;fill-rule:nonzero;stroke:none"
         id="path240" />
      <path
         d="m 9967.61,3154.3 c 34.29,-19.5 77.89,-7.6 97.39,26.7 19.5,34.3 7.6,77.9 -26.7,97.5 L 9805.47,3411 v -164.4 l 162.14,-92.3"
         style="fill:#42a28e;fill-opacity:1;fill-rule:nonzero;stroke:none"
         id="path242" />
      <path
         d="m 9204.26,3588.6 458.26,-260.8 v 164.5 l -458.26,260.8 v -164.5"
         style="fill:#42a28e;fill-opacity:1;fill-rule:nonzero;stroke:none"
         id="path244" />
      <path
         d="m 7382.3,4240.4 c 39.46,0 71.42,31.9 71.42,71.4 v 41.1 295.8 164.5 343.5 164.4 1789.2 164.5 343.4 164.5 278.3 124.2 c 0,39.5 -31.96,71.5 -71.42,71.5 -39.47,0 -71.42,-32 -71.42,-71.5 V 8144.1 7864 7699.5 7356.1 7191.7 5402.5 5238 4894.5 4730.1 4436 4311.8 c 0,-39.5 31.95,-71.4 71.42,-71.4"
         style="fill:#e2e2e2;fill-opacity:1;fill-rule:nonzero;stroke:none"
         id="path246" />
      <path
         d="m 8054.94,3946.7 v 3873.4 c 0,39.4 -32.01,71.4 -71.48,71.4 -39.46,0 -71.47,-32 -71.47,-71.4 V 7794.7 7521.9 7357.4 7014 6849.6 5060.3 4895.9 4552.4 4388 4086.6 3946.7 c 0,-10.3 2.34,-20.1 6.28,-29 11.16,-25 36.11,-42.5 65.19,-42.5 2.29,0 4.43,0.5 6.68,0.7 36.29,3.5 64.8,33.6 64.8,70.8"
         style="fill:#e2e2e2;fill-opacity:1;fill-rule:nonzero;stroke:none"
         id="path248" />
      <path
         d="m 9204.26,3270.4 v 3873.3 c 0,39.5 -31.97,71.5 -71.43,71.5 -39.47,0 -71.42,-32 -71.42,-71.5 V 7126.8 6803.9 6639.4 6295.9 6131.5 4342.3 4177.9 3834.4 3670 3418.7 3270.4 c 0,-6.5 1.11,-12.7 2.73,-18.6 8.28,-30.4 35.75,-52.9 68.69,-52.9 6.23,0 12.08,1.1 17.83,2.6 30.8,7.9 53.6,35.6 53.6,68.9"
         style="fill:#e2e2e2;fill-opacity:1;fill-rule:nonzero;stroke:none"
         id="path250" />
      <path
         d="m 9805.47,6778.6 c 0,39.5 -32.01,71.5 -71.48,71.5 -39.46,0 -71.47,-32 -71.47,-71.5 v -1.1 -315.8 -164.4 -343.5 -164.4 -1789.2 -164.4 -343.5 -164.5 -258.5 -164.1 c 0,-0.4 0.15,-0.8 0.19,-1.3 0.69,-38.8 32.26,-70.1 71.28,-70.1 12.38,0 23.82,3.4 33.96,9 22.22,12.1 37.52,35.3 37.52,62.4 v 81 260.4 164.4 343.4 164.5 1789.1 164.5 343.5 164.4 314 84.2"
         style="fill:#e2e2e2;fill-opacity:1;fill-rule:nonzero;stroke:none"
         id="path252" />
      <path
         d="m 10568.2,6720.5 -3611.72,2098.9 -35.37,20.6 c -34.16,19.8 -77.86,8.2 -97.73,-25.9 -19.79,-34.1 -8.18,-77.8 25.92,-97.7 l 36.15,-21 L 10496.4,6597 c 11.4,-6.6 23.9,-9.5 36.1,-9.4 24.5,0.1 48.4,12.5 61.6,35.3 13.3,22.9 12.2,50 -0.1,71.4 -6.1,10.5 -14.6,19.7 -25.8,26.2"
         style="fill:#e2e2e2;fill-opacity:1;fill-rule:nonzero;stroke:none"
         id="path254" />
      <path
         d="m 6671.86,13135.2 c 34.29,-19.5 46.28,-63.2 26.79,-97.5 -19.54,-34.3 -63.14,-46.2 -97.44,-26.7 l -123.61,70.3 v -343.4 l 194.26,-110.6 c 34.29,-19.5 46.28,-63.1 26.79,-97.4 -19.54,-34.3 -63.14,-46.3 -97.44,-26.8 l -123.61,70.4 v -1789.3 l 194.26,-110.6 c 34.29,-19.5 46.28,-63.1 26.79,-97.4 -19.54,-34.3 -63.14,-46.3 -97.44,-26.8 l -123.61,70.4 v -343.5 l 194.26,-110.6 c 34.29,-19.5 46.28,-63.2 26.79,-97.5 -19.54,-34.3 -63.14,-46.2 -97.44,-26.7 l -123.61,70.3 v -303.1 l 277.86,-161.4 v 3708.1 l -277.86,161.5 v -271.2 l 194.26,-110.5"
         style="fill:#f46d5b;fill-opacity:1;fill-rule:nonzero;stroke:none"
         id="path256" />
      <path
         d="m 6334.71,13599.9 -458.26,266.3 v -278.3 l 458.26,-260.8 v 272.8"
         style="fill:#f46d5b;fill-opacity:1;fill-rule:nonzero;stroke:none"
         id="path258" />
      <path
         d="m 7626.97,10066.1 458.26,-260.8 v 1789.3 l -458.26,260.8 v -1789.3"
         style="fill:#f46d5b;fill-opacity:1;fill-rule:nonzero;stroke:none"
         id="path260" />
      <path
         d="m 7626.97,12019.8 458.26,-260.7 v 343.4 l -458.26,260.8 v -343.5"
         style="fill:#f46d5b;fill-opacity:1;fill-rule:nonzero;stroke:none"
         id="path262" />
      <path
         d="m 7626.97,9558.2 458.26,-260.7 v 343.4 l -458.26,260.8 v -343.5"
         style="fill:#f46d5b;fill-opacity:1;fill-rule:nonzero;stroke:none"
         id="path264" />
      <path
         d="m 6334.71,12654.8 -458.26,260.8 v -1789.3 l 458.26,-260.8 v 1789.3"
         style="fill:#f46d5b;fill-opacity:1;fill-rule:nonzero;stroke:none"
         id="path266" />
      <path
         d="m 6334.71,10193.2 -458.26,260.8 v -295.9 l 458.26,-266.2 v 301.3"
         style="fill:#f46d5b;fill-opacity:1;fill-rule:nonzero;stroke:none"
         id="path268" />
      <path
         d="m 8085.23,12267 v 315.6 l -458.26,266.3 v -321.1 l 458.26,-260.8"
         style="fill:#f46d5b;fill-opacity:1;fill-rule:nonzero;stroke:none"
         id="path270" />
      <path
         d="m 7626.97,9140.8 458.26,-266.3 V 9133 l -458.26,260.8 v -253"
         style="fill:#f46d5b;fill-opacity:1;fill-rule:nonzero;stroke:none"
         id="path272" />
      <path
         d="m 6334.71,10701.1 -458.26,260.8 v -343.5 l 458.26,-260.8 v 343.5"
         style="fill:#f46d5b;fill-opacity:1;fill-rule:nonzero;stroke:none"
         id="path274" />
      <path
         d="m 5464.45,10688.4 c -34.29,19.5 -46.28,63.2 -26.7,97.5 19.5,34.3 63.15,46.2 97.45,26.7 l 198.3,-112.9 v 343.5 l -269.05,153.1 c -34.29,19.5 -46.28,63.1 -26.7,97.4 19.5,34.3 63.15,46.3 97.45,26.8 l 198.3,-112.9 v 1789.3 l -269.05,153.1 c -34.29,19.5 -46.28,63.1 -26.7,97.4 19.5,34.3 63.15,46.3 97.45,26.8 l 198.3,-112.9 v 343.5 l -269.05,153.1 c -34.29,19.5 -46.28,63.1 -26.7,97.4 19.5,34.3 63.15,46.3 97.45,26.8 l 198.3,-112.9 v 280.1 l -320.59,186.3 c -34.1,19.8 -45.7,63.5 -25.92,97.7 19.89,34.1 63.58,45.7 97.74,25.8 l 3390.95,-1970.6 c 34.11,-19.8 45.71,-63.5 25.92,-97.6 -19.88,-34.2 -63.57,-45.7 -97.73,-25.9 l -575.74,334.6 v -314 l 232.85,-132.5 c 34.29,-19.5 46.28,-63.2 26.73,-97.5 -19.53,-34.2 -63.13,-46.2 -97.44,-26.7 l -162.14,92.3 v -343.5 l 232.85,-132.5 c 34.29,-19.5 46.28,-63.2 26.73,-97.5 -19.53,-34.3 -63.13,-46.2 -97.44,-26.7 l -162.14,92.3 V 9724 l 232.85,-132.5 c 34.29,-19.5 46.28,-63.2 26.73,-97.5 -19.53,-34.3 -63.13,-46.2 -97.44,-26.7 l -162.14,92.3 v -343.5 l 232.85,-132.5 c 34.29,-19.5 46.28,-63.2 26.73,-97.4 -19.53,-34.3 -63.13,-46.3 -97.44,-26.7 l -162.14,92.2 v -260.2 l 647.55,-376.4 c 34.11,-19.8 45.71,-63.5 25.92,-97.6 -19.88,-34.1 -63.57,-45.7 -97.73,-25.9 l -613.21,356.3 c -10.12,-5.5 -21.62,-8.9 -34,-8.9 -38.97,0 -70.64,31.3 -71.33,70.2 l -511.85,297.5 c -5.75,-1.5 -11.7,-2.6 -17.93,-2.6 -33.03,0 -60.51,22.5 -68.79,52.9 l -638.39,371 c -6.83,-2.1 -13.99,-3.7 -21.49,-3.7 -34.4,0 -63.14,24.4 -69.91,56.9 l -344.02,199.9 c -2.29,-0.2 -4.47,-0.7 -6.82,-0.7 -29.14,0 -54.08,17.5 -65.23,42.5 l -927.99,539.3 c -34.1,19.9 -45.7,63.6 -25.92,97.7 19.89,34.1 63.58,45.7 97.74,25.9 l 248.77,-144.6 v 294.1 z m -149.66,1458.5 3.02,-1066.7 0.49,-165.5 2.43,-861.9 1530.8,-889.5 349.13,-203 1767.2,-1026.9 -12.62,4459.3 c -12.27,0 -24.69,2.8 -36.1,9.5 l -3611.07,2098.5 5.7,-2000 0.53,-188.2 0.49,-165.6"
         style="fill:#f46d5b;fill-opacity:1;fill-rule:nonzero;stroke:none"
         id="path276" />
      <path
         d="m 6334.71,13162.7 -458.26,260.8 V 13080 l 458.26,-260.8 v 343.5"
         style="fill:#f46d5b;fill-opacity:1;fill-rule:nonzero;stroke:none"
         id="path278" />
      <path
         d="m 7253.57,9606.3 c -34.29,19.5 -46.28,63.1 -26.69,97.4 19.49,34.3 63.14,46.3 97.44,26.8 l 159.7,-90.9 v 343.5 l -230.45,131.1 c -34.29,19.5 -46.28,63.2 -26.69,97.5 19.49,34.3 63.14,46.3 97.44,26.7 l 159.7,-90.9 v 1789.2 l -230.45,131.2 c -34.29,19.5 -46.28,63.1 -26.69,97.4 19.49,34.4 63.14,46.3 97.44,26.8 l 159.7,-90.9 v 343.5 l -230.45,131.1 c -34.29,19.5 -46.28,63.2 -26.69,97.5 19.49,34.3 63.14,46.2 97.44,26.7 l 159.7,-90.9 v 322.9 l -585.72,340.3 v -3708 l 585.72,-340.4 v 251.3 l -230.45,131.1"
         style="fill:#f46d5b;fill-opacity:1;fill-rule:nonzero;stroke:none"
         id="path280" />
      <path
         d="m 16137.4,16610.7 638.1,368.4 -3647.1,2119.5 -634.6,-366.4 3590.9,-2086.8 c 22.2,-3.5 41.2,-16.4 52.7,-34.7"
         style="fill:#f14759;fill-opacity:1;fill-rule:nonzero;stroke:none"
         id="path282" />
      <path
         d="m 13182,14904.4 960.7,554.6 v 3.8 l -3606.2,2095.6 c -11.9,6.9 -20.9,16.9 -26.9,28.2 l -972.2,-561.2 3592.7,-2087.8 c 21.6,-3.4 40.3,-15.7 51.9,-33.2"
         style="fill:#f14759;fill-opacity:1;fill-rule:nonzero;stroke:none"
         id="path284" />
      <path
         d="m 14284.7,15541 831.5,480.1 v 9 L 11510,18125.8 c -10.5,6.1 -18.6,14.6 -24.6,24.3 l -844,-487.3 3590.2,-2086.4 c 22.5,-3.6 41.6,-16.8 53.1,-35.4"
         style="fill:#f14759;fill-opacity:1;fill-rule:nonzero;stroke:none"
         id="path286" />
      <path
         d="m 15260.4,16104.3 735.3,424.6 v 2.9 l -3606.2,2095.7 c -12.1,7.1 -21.2,17.2 -27.3,28.8 l -742.8,-428.8 3585.7,-2083.8 c 24,-3.8 44.1,-18.7 55.3,-39.4"
         style="fill:#f14759;fill-opacity:1;fill-rule:nonzero;stroke:none"
         id="path288" />
      <path
         d="m 11149.3,13771.7 c 12.1,-5.1 22.4,-13.3 30.4,-23.3 l 868.8,501.5 v 13 l -3606.23,2095.7 c -9.46,5.5 -16.96,12.9 -22.81,21.3 l -878.91,-507.4 3593.05,-2088.1 c 6,-3.5 11.1,-7.9 15.7,-12.7"
         style="fill:#f14759;fill-opacity:1;fill-rule:nonzero;stroke:none"
         id="path290" />
      <path
         d="m 10120.7,13136.9 922.3,532.5 v 2.4 l -3628.35,2108.5 c -5.46,3.2 -10.04,7.1 -14.23,11.3 l -921.79,-532.2 3587.87,-2085.1 c 23.3,-3.7 42.9,-17.7 54.2,-37.4"
         style="fill:#f14759;fill-opacity:1;fill-rule:nonzero;stroke:none"
         id="path292" />
      <path
         d="m 12189.8,14331.5 851.4,491.6 v 0.9 l -3606.3,2095.7 c -12.67,7.3 -22.13,18 -28.16,30.2 l -851.64,-491.7 3606.1,-2095.6 c 13,-7.5 22.6,-18.5 28.6,-31.1"
         style="fill:#f14759;fill-opacity:1;fill-rule:nonzero;stroke:none"
         id="path294" />
      <path
         d="m 9016.68,12499.5 960.92,554.8 v 6.4 l -3606.21,2095.7 c -11.2,6.5 -19.73,15.8 -25.73,26.2 l -966.46,-557.9 3611.76,-2099 c 11.21,-6.5 19.68,-15.7 25.72,-26.2"
         style="fill:#f14759;fill-opacity:1;fill-rule:nonzero;stroke:none"
         id="path296" />
      <path
         d="m 15995.7,12031.8 v 4497.1 l -735.3,-424.6 c 5.9,-10.8 9.5,-23 9.5,-36.2 v -4496.2 l 420.3,242.6 153.5,88.7 161.2,93 c -5.7,10.7 -9.2,22.7 -9.2,35.6"
         style="fill:#f35d5b;fill-opacity:1;fill-rule:nonzero;stroke:none"
         id="path298" />
      <path
         d="m 16149.5,16569.8 v -4490.1 l 323.4,186.7 315.5,182.1 -12.9,4530.6 -638.1,-368.4 c 7.5,-11.8 12.1,-25.8 12.1,-40.9"
         style="fill:#f35d5b;fill-opacity:1;fill-rule:nonzero;stroke:none"
         id="path300" />
      <path
         d="M 14142.7,10962.8 V 15459 l -960.7,-554.6 c 8.1,-12.2 12.9,-26.7 12.9,-42.5 v -4488.1 l 643,371.3 153.4,88.6 160.8,92.8 c -5.8,10.9 -9.4,23.1 -9.4,36.3"
         style="fill:#f35d5b;fill-opacity:1;fill-rule:nonzero;stroke:none"
         id="path302" />
      <path
         d="m 15116.2,11530.2 v 4490.9 l -831.5,-480.1 c 7.3,-11.7 11.7,-25.4 11.7,-40.3 v -4490.9 l 519.5,300 153.5,88.6 158.5,91.5 c -7.3,11.7 -11.7,25.4 -11.7,40.3"
         style="fill:#f35d5b;fill-opacity:1;fill-rule:nonzero;stroke:none"
         id="path304" />
      <path
         d="m 12048.5,9751.8 v 4498.1 l -868.8,-501.5 c 10.5,-13.2 17,-29.6 17,-47.7 V 9220.2 l 554.9,320.4 153.4,88.6 152.2,87.8 c -5.4,10.5 -8.7,22.2 -8.7,34.8"
         style="fill:#f35d5b;fill-opacity:1;fill-rule:nonzero;stroke:none"
         id="path306" />
      <path
         d="m 13041.2,10324 v 4499.1 l -851.4,-491.6 c 0.1,-0.1 0.1,-0.2 0.2,-0.4 7.6,-11.9 12.2,-26 12.2,-41.3 V 9800.7 l 531.7,307 153.4,88.6 162.2,93.6 c -5.2,10.3 -8.3,21.8 -8.3,34.1"
         style="fill:#f35d5b;fill-opacity:1;fill-rule:nonzero;stroke:none"
         id="path308" />
      <path
         d="m 11043,9162.8 v 4506.6 l -922.3,-532.5 c 6.6,-11.3 10.6,-24.2 10.6,-38.2 V 8605.1 l 605.7,349.7 153.5,88.6 157.9,91.2 c -3.4,8.7 -5.4,18.2 -5.4,28.2"
         style="fill:#f35d5b;fill-opacity:1;fill-rule:nonzero;stroke:none"
         id="path310" />
      <path
         d="m 9977.6,8560.7 v 4493.6 l -960.92,-554.8 c 12.32,-21.4 13.45,-48.6 0.15,-71.5 -13.21,-22.7 -37.08,-35.2 -61.59,-35.3 l 12.62,-4459.3 707.23,408.3 153.46,88.6 159.61,92.1 c -6.52,11.4 -10.56,24.3 -10.56,38.3"
         style="fill:#f35d5b;fill-opacity:1;fill-rule:nonzero;stroke:none"
         id="path312" />
      <path
         d="m 6334.71,9891.9 -458.26,266.2 v -41.1 c 0,-39.5 -31.98,-71.5 -71.43,-71.5 -39.47,0 -71.52,32 -71.52,71.5 v 124.2 l -248.77,144.6 c -34.16,19.8 -77.85,8.2 -97.74,-25.9 -19.78,-34.1 -8.18,-77.8 25.92,-97.7 l 927.99,-539.3 c -3.95,8.9 -6.19,18.6 -6.19,28.9 v 140.1"
         style="fill:#f14759;fill-opacity:1;fill-rule:nonzero;stroke:none"
         id="path314" />
      <path
         d="m 8085.23,8874.5 -458.26,266.3 v -65.2 c 0,-33.3 -22.8,-61 -53.49,-68.9 l 511.85,-297.5 c 0,0.4 -0.1,0.8 -0.1,1.2 v 164.1"
         style="fill:#f14759;fill-opacity:1;fill-rule:nonzero;stroke:none"
         id="path316" />
      <path
         d="m 8190.66,8647.9 613.21,-356.3 c 34.16,-19.8 77.85,-8.2 97.73,25.9 19.79,34.1 8.19,77.8 -25.92,97.6 l -647.55,376.4 v -81.1 c 0,-27.1 -15.24,-50.3 -37.47,-62.5"
         style="fill:#f14759;fill-opacity:1;fill-rule:nonzero;stroke:none"
         id="path318" />
      <path
         d="m 5805.02,14061.9 c 39.45,0 71.43,-32 71.43,-71.5 v -124.2 l 458.26,-266.3 v 25.3 c 0,39.5 31.95,71.5 71.42,71.5 39.47,0 71.47,-32 71.47,-71.5 v -108.3 l 277.86,-161.5 V 9647.3 l -277.86,161.4 v -56.9 c 0,-37.1 -28.4,-67.3 -64.65,-70.7 l 344.02,-199.9 c 6.77,-32.5 35.51,-56.9 69.91,-56.9 7.5,0 14.66,1.6 21.49,3.7 l 638.39,-371 c -1.56,5.9 -2.74,12.1 -2.74,18.6 v 148.3 l -585.72,340.4 v 3708 l 585.72,-340.3 v 17 c 0,39.5 32.06,71.5 71.53,71.5 39.46,0 71.42,-32 71.42,-71.5 v -100.1 l 458.26,-266.3 v 1.2 c 0,39.5 31.97,71.5 71.43,71.5 39.47,0 71.47,-32 71.47,-71.5 v -84.2 l 575.74,-334.6 c 34.16,-19.8 77.85,-8.3 97.73,25.9 19.79,34.1 8.19,77.8 -25.92,97.6 l -3390.95,1970.6 c -34.16,19.9 -77.85,8.3 -97.74,-25.8 -19.78,-34.2 -8.18,-77.9 25.92,-97.7 l 320.59,-186.3 v 41.1 c 0,39.5 32.05,71.5 71.52,71.5"
         style="fill:#f14759;fill-opacity:1;fill-rule:nonzero;stroke:none"
         id="path320" />
      <path
         d="m 5535.2,13782.1 c -34.3,19.5 -77.95,7.5 -97.45,-26.8 -19.58,-34.3 -7.59,-77.9 26.7,-97.4 l 269.05,-153.1 v 164.4 l -198.3,112.9"
         style="fill:#f14759;fill-opacity:1;fill-rule:nonzero;stroke:none"
         id="path322" />
      <path
         d="m 6334.71,13327.1 -458.26,260.8 v -164.4 l 458.26,-260.8 v 164.4"
         style="fill:#f14759;fill-opacity:1;fill-rule:nonzero;stroke:none"
         id="path324" />
      <path
         d="m 6698.65,13037.7 c 19.49,34.3 7.5,78 -26.79,97.5 l -194.26,110.5 v -164.4 l 123.61,-70.3 c 34.3,-19.5 77.9,-7.6 97.44,26.7"
         style="fill:#f14759;fill-opacity:1;fill-rule:nonzero;stroke:none"
         id="path326" />
      <path
         d="m 5535.2,13274.2 c -34.3,19.5 -77.95,7.5 -97.45,-26.8 -19.58,-34.3 -7.59,-77.9 26.7,-97.4 l 269.05,-153.1 v 164.4 l -198.3,112.9"
         style="fill:#f14759;fill-opacity:1;fill-rule:nonzero;stroke:none"
         id="path328" />
      <path
         d="m 6334.71,12819.2 -458.26,260.8 v -164.4 l 458.26,-260.8 v 164.4"
         style="fill:#f14759;fill-opacity:1;fill-rule:nonzero;stroke:none"
         id="path330" />
      <path
         d="m 6698.65,12529.9 c 19.49,34.3 7.5,77.9 -26.79,97.4 l -194.26,110.6 v -164.4 l 123.61,-70.4 c 34.3,-19.5 77.9,-7.5 97.44,26.8"
         style="fill:#f14759;fill-opacity:1;fill-rule:nonzero;stroke:none"
         id="path332" />
      <path
         d="m 5535.2,11320.5 c -34.3,19.5 -77.95,7.5 -97.45,-26.8 -19.58,-34.3 -7.59,-77.9 26.7,-97.4 l 269.05,-153.1 v 164.4 l -198.3,112.9"
         style="fill:#f14759;fill-opacity:1;fill-rule:nonzero;stroke:none"
         id="path334" />
      <path
         d="m 6698.65,10576.2 c 19.49,34.3 7.5,77.9 -26.79,97.4 l -194.26,110.6 v -164.4 l 123.61,-70.4 c 34.3,-19.5 77.9,-7.5 97.44,26.8"
         style="fill:#f14759;fill-opacity:1;fill-rule:nonzero;stroke:none"
         id="path336" />
      <path
         d="m 6334.71,10865.5 -458.26,260.8 v -164.4 l 458.26,-260.8 v 164.4"
         style="fill:#f14759;fill-opacity:1;fill-rule:nonzero;stroke:none"
         id="path338" />
      <path
         d="m 6334.71,10357.6 -458.26,260.8 V 10454 l 458.26,-260.8 v 164.4"
         style="fill:#f14759;fill-opacity:1;fill-rule:nonzero;stroke:none"
         id="path340" />
      <path
         d="m 6698.65,10068.2 c 19.49,34.3 7.5,78 -26.79,97.5 l -194.26,110.6 v -164.5 l 123.61,-70.3 c 34.3,-19.5 77.9,-7.6 97.44,26.7"
         style="fill:#f14759;fill-opacity:1;fill-rule:nonzero;stroke:none"
         id="path342" />
      <path
         d="m 5535.2,10812.6 c -34.3,19.5 -77.95,7.6 -97.45,-26.7 -19.58,-34.3 -7.59,-78 26.7,-97.5 l 269.05,-153.1 v 164.4 l -198.3,112.9"
         style="fill:#f14759;fill-opacity:1;fill-rule:nonzero;stroke:none"
         id="path344" />
      <path
         d="m 8390.27,11928.9 c 34.31,-19.5 77.91,-7.5 97.44,26.7 19.55,34.3 7.56,78 -26.73,97.5 l -232.85,132.5 v -164.4 l 162.14,-92.3"
         style="fill:#f14759;fill-opacity:1;fill-rule:nonzero;stroke:none"
         id="path346" />
      <path
         d="m 7626.97,12363.3 458.26,-260.8 v 164.5 l -458.26,260.8 v -164.5"
         style="fill:#f14759;fill-opacity:1;fill-rule:nonzero;stroke:none"
         id="path348" />
      <path
         d="m 7226.88,12673.3 c -19.59,-34.3 -7.6,-78 26.69,-97.5 l 230.45,-131.1 v 164.4 l -159.7,90.9 c -34.3,19.5 -77.95,7.6 -97.44,-26.7"
         style="fill:#f14759;fill-opacity:1;fill-rule:nonzero;stroke:none"
         id="path350" />
      <path
         d="m 8390.27,11421 c 34.31,-19.5 77.91,-7.6 97.44,26.7 19.55,34.3 7.56,78 -26.73,97.5 l -232.85,132.5 v -164.4 l 162.14,-92.3"
         style="fill:#f14759;fill-opacity:1;fill-rule:nonzero;stroke:none"
         id="path352" />
      <path
         d="m 7226.88,12165.3 c -19.59,-34.3 -7.6,-77.9 26.69,-97.4 l 230.45,-131.2 v 164.5 l -159.7,90.9 c -34.3,19.5 -77.95,7.6 -97.44,-26.8"
         style="fill:#f14759;fill-opacity:1;fill-rule:nonzero;stroke:none"
         id="path354" />
      <path
         d="m 7626.97,11855.4 458.26,-260.8 v 164.5 l -458.26,260.7 v -164.4"
         style="fill:#f14759;fill-opacity:1;fill-rule:nonzero;stroke:none"
         id="path356" />
      <path
         d="m 7626.97,9901.7 458.26,-260.8 v 164.4 l -458.26,260.8 v -164.4"
         style="fill:#f14759;fill-opacity:1;fill-rule:nonzero;stroke:none"
         id="path358" />
      <path
         d="m 7226.88,10211.7 c -19.59,-34.3 -7.6,-78 26.69,-97.5 l 230.45,-131.1 v 164.4 l -159.7,90.9 c -34.3,19.6 -77.95,7.6 -97.44,-26.7"
         style="fill:#f14759;fill-opacity:1;fill-rule:nonzero;stroke:none"
         id="path360" />
      <path
         d="m 8390.27,9467.3 c 34.31,-19.5 77.91,-7.6 97.44,26.7 19.55,34.3 7.56,78 -26.73,97.5 L 8228.13,9724 v -164.4 l 162.14,-92.3"
         style="fill:#f14759;fill-opacity:1;fill-rule:nonzero;stroke:none"
         id="path362" />
      <path
         d="m 7226.88,9703.7 c -19.59,-34.3 -7.6,-77.9 26.69,-97.4 l 230.45,-131.1 v 164.4 l -159.7,90.9 c -34.3,19.5 -77.95,7.5 -97.44,-26.8"
         style="fill:#f14759;fill-opacity:1;fill-rule:nonzero;stroke:none"
         id="path364" />
      <path
         d="m 8390.27,8959.5 c 34.31,-19.6 77.91,-7.6 97.44,26.7 19.55,34.2 7.56,77.9 -26.73,97.4 l -232.85,132.5 v -164.4 l 162.14,-92.2"
         style="fill:#f14759;fill-opacity:1;fill-rule:nonzero;stroke:none"
         id="path366" />
      <path
         d="M 7626.97,9393.8 8085.23,9133 v 164.5 l -458.26,260.7 v -164.4"
         style="fill:#f14759;fill-opacity:1;fill-rule:nonzero;stroke:none"
         id="path368" />
      <path
         d="m 5733.5,10117 c 0,-39.5 32.05,-71.5 71.52,-71.5 39.45,0 71.43,32 71.43,71.5 v 41.1 295.9 164.4 343.5 164.4 1789.3 164.4 343.5 164.4 278.3 124.2 c 0,39.5 -31.98,71.5 -71.43,71.5 -39.47,0 -71.52,-32 -71.52,-71.5 v -41.1 -280.1 -164.4 -343.5 -164.4 -1789.3 -164.4 -343.5 -164.4 -294.1 -124.2"
         style="fill:#d7cad6;fill-opacity:1;fill-rule:nonzero;stroke:none"
         id="path370" />
      <path
         d="m 6477.6,9751.8 v 3873.4 c 0,39.5 -32,71.5 -71.47,71.5 -39.47,0 -71.42,-32 -71.42,-71.5 v -25.3 -272.8 -164.4 -343.5 -164.4 -1789.3 -164.4 -343.5 -164.4 -301.3 -140.1 c 0,-10.3 2.24,-20 6.19,-28.9 11.15,-25 36.09,-42.5 65.23,-42.5 2.35,0 4.53,0.5 6.82,0.7 36.25,3.4 64.65,33.6 64.65,70.7"
         style="fill:#d7cad6;fill-opacity:1;fill-rule:nonzero;stroke:none"
         id="path372" />
      <path
         d="M 7626.97,9075.6 V 12949 c 0,39.5 -31.96,71.5 -71.42,71.5 -39.47,0 -71.53,-32 -71.53,-71.5 v -17 -322.9 -164.4 -343.5 -164.5 -1789.2 -164.4 -343.5 -164.4 -251.3 -148.3 c 0,-6.5 1.18,-12.7 2.74,-18.6 8.28,-30.4 35.76,-52.9 68.79,-52.9 6.23,0 12.18,1.1 17.93,2.6 30.69,7.9 53.49,35.6 53.49,68.9"
         style="fill:#d7cad6;fill-opacity:1;fill-rule:nonzero;stroke:none"
         id="path374" />
      <path
         d="m 8156.66,12655.3 c -39.46,0 -71.43,-32 -71.43,-71.5 v -1.2 -315.6 -164.5 -343.4 -164.5 V 9805.3 9640.9 9297.5 9133 8874.5 8710.4 c 0,-0.4 0.1,-0.8 0.1,-1.2 0.69,-38.9 32.36,-70.2 71.33,-70.2 12.38,0 23.88,3.4 34,8.9 22.23,12.2 37.47,35.4 37.47,62.5 v 81.1 260.2 164.4 343.5 164.4 1789.3 164.4 343.5 164.4 314 84.2 c 0,39.5 -32,71.5 -71.47,71.5"
         style="fill:#d7cad6;fill-opacity:1;fill-rule:nonzero;stroke:none"
         id="path376" />
      <path
         d="m 8955.24,12392.7 c 24.51,0.1 48.38,12.6 61.59,35.3 13.3,22.9 12.17,50.1 -0.15,71.5 -6.04,10.5 -14.51,19.7 -25.72,26.2 l -3611.76,2099 -35.42,20.6 c -34.15,19.8 -77.86,8.2 -97.69,-25.9 -19.82,-34.1 -8.28,-77.9 25.87,-97.7 l 36.11,-21 3611.07,-2098.5 c 11.41,-6.7 23.83,-9.5 36.1,-9.5"
         style="fill:#d7cad6;fill-opacity:1;fill-rule:nonzero;stroke:none"
         id="path378" />
      <path
         d="M 6371.39,15156.4 9977.6,13060.7 v -4500 c 0,-14 4.04,-26.9 10.56,-38.3 13.34,-22.9 37.84,-38.6 66.24,-38.6 42.5,0 76.9,34.5 76.9,76.9 v 44.4 4493.6 c 0,14 -4,26.9 -10.6,38.2 -11.3,19.7 -30.9,33.7 -54.2,37.4 l -3587.87,2085.1 -35.43,20.6 c -34.15,19.8 -77.85,8.2 -97.67,-25.9 -13.36,-22.9 -12.19,-50 0.13,-71.5 6,-10.4 14.53,-19.7 25.73,-26.2"
         style="fill:#f46d5b;fill-opacity:1;fill-rule:nonzero;stroke:none"
         id="path380" />
      <path
         d="m 11043,13671.8 v -4509 c 0,-10 2,-19.5 5.4,-28.2 11.3,-28.5 39,-48.7 71.5,-48.7 42.3,0 76.8,34.4 76.8,76.9 v 57.4 4480.5 c 0,18.1 -6.5,34.5 -17,47.7 -8,10 -18.3,18.2 -30.4,23.3 -4.6,4.8 -9.7,9.2 -15.7,12.7 l -3593.05,2088.1 -54.09,31.4 c -34.16,19.8 -77.85,8.2 -97.73,-25.9 -16.66,-28.7 -10.86,-64.1 11.69,-86.4 4.19,-4.2 8.77,-8.1 14.23,-11.3 L 11043,13671.8"
         style="fill:#f46d5b;fill-opacity:1;fill-rule:nonzero;stroke:none"
         id="path382" />
      <path
         d="M 8442.27,16358.6 12048.5,14262.9 V 9751.8 c 0,-12.6 3.3,-24.3 8.7,-34.8 12.7,-24.8 38.3,-42 68.2,-42 42.3,0 76.8,34.4 76.8,76.8 v 48.9 4489.1 c 0,15.3 -4.6,29.4 -12.2,41.3 -0.1,0.2 -0.1,0.3 -0.2,0.4 -6,12.6 -15.6,23.6 -28.6,31.1 l -3606.1,2095.6 -41.02,23.9 c -34.16,19.8 -77.86,8.3 -97.73,-25.9 -14.33,-24.6 -11.99,-54.2 3.11,-76.3 5.85,-8.4 13.35,-15.8 22.81,-21.3"
         style="fill:#f46d5b;fill-opacity:1;fill-rule:nonzero;stroke:none"
         id="path384" />
      <path
         d="M 9434.9,16919.7 13041.2,14824 v -4500 c 0,-12.3 3.1,-23.8 8.3,-34.1 12.6,-25.2 38.4,-42.8 68.5,-42.8 42.5,0 76.9,34.5 76.9,76.9 v 49.8 4488.1 c 0,15.8 -4.8,30.3 -12.9,42.5 -11.6,17.5 -30.3,29.8 -51.9,33.2 l -3592.7,2087.8 -30.68,17.8 c -34.11,19.9 -77.86,8.3 -97.64,-25.8 -12.48,-21.5 -12.48,-46.7 -2.34,-67.5 6.03,-12.2 15.49,-22.9 28.16,-30.2"
         style="fill:#f46d5b;fill-opacity:1;fill-rule:nonzero;stroke:none"
         id="path386" />
      <path
         d="m 10536.5,17558.4 3606.2,-2095.6 v -4500 c 0,-13.2 3.6,-25.4 9.4,-36.3 13,-24 38.2,-40.6 67.5,-40.6 42.4,0 76.8,34.4 76.8,76.9 v 47 4490.9 c 0,14.9 -4.4,28.6 -11.7,40.3 -11.5,18.6 -30.6,31.8 -53.1,35.4 l -3590.2,2086.4 -33.1,19.1 c -34.1,19.9 -77.9,8.3 -97.7,-25.8 -12.9,-22.2 -12.3,-48.3 -1,-69.5 6,-11.3 15,-21.3 26.9,-28.2"
         style="fill:#f46d5b;fill-opacity:1;fill-rule:nonzero;stroke:none"
         id="path388" />
      <path
         d="m 11510,18125.8 3606.2,-2095.7 v -4499.9 c 0,-14.9 4.4,-28.6 11.7,-40.3 13.5,-21.9 37.5,-36.6 65.1,-36.6 42.5,0 76.9,34.4 76.9,76.9 v 41.7 4496.2 c 0,13.2 -3.6,25.4 -9.5,36.2 -11.2,20.7 -31.3,35.6 -55.3,39.4 l -3585.7,2083.8 -37.6,21.9 c -34.2,19.8 -77.9,8.2 -97.7,-25.9 -13.7,-23.6 -12.1,-51.7 1.3,-73.4 6,-9.7 14.1,-18.2 24.6,-24.3"
         style="fill:#f46d5b;fill-opacity:1;fill-rule:nonzero;stroke:none"
         id="path390" />
      <path
         d="m 12389.5,18627.5 3606.2,-2095.7 v -4500 c 0,-12.9 3.5,-24.9 9.2,-35.6 12.8,-24.4 38.2,-41.2 67.7,-41.2 42.4,0 76.9,34.4 76.9,76.8 v 47.9 4490.1 c 0,15.1 -4.6,29.1 -12.1,40.9 -11.5,18.3 -30.5,31.2 -52.7,34.7 l -3590.9,2086.8 -32.5,18.9 c -34.1,19.8 -77.8,8.2 -97.7,-25.9 -12.8,-22 -12.3,-47.9 -1.4,-68.9 6.1,-11.6 15.2,-21.7 27.3,-28.8"
         style="fill:#f46d5b;fill-opacity:1;fill-rule:nonzero;stroke:none"
         id="path392" />
    </g>
  </g>
</svg>
