<?xml version="1.0" encoding="UTF-8" standalone="no"?>
<!-- Created with Inkscape (http://www.inkscape.org/) -->

<svg
   version="1.1"
   id="svg2"
   width="2666.6667"
   height="2666.6667"
   viewBox="0 0 2666.6667 2666.6667"
   sodipodi:docname="vecteezy_file-icon-for-your-website-mobile-presentation-and-logo_19518510.eps"
   xmlns:inkscape="http://www.inkscape.org/namespaces/inkscape"
   xmlns:sodipodi="http://sodipodi.sourceforge.net/DTD/sodipodi-0.dtd"
   xmlns="http://www.w3.org/2000/svg"
   xmlns:svg="http://www.w3.org/2000/svg">
  <defs
     id="defs6" />
  <sodipodi:namedview
     id="namedview4"
     pagecolor="#ffffff"
     bordercolor="#000000"
     borderopacity="0.25"
     inkscape:showpageshadow="2"
     inkscape:pageopacity="0.0"
     inkscape:pagecheckerboard="0"
     inkscape:deskcolor="#d1d1d1" />
  <g
     id="g8"
     inkscape:groupmode="layer"
     inkscape:label="ink_ext_XXXXXX"
     transform="matrix(1.3333333,0,0,-1.3333333,0,2666.6667)">
    <g
       id="g10"
       transform="scale(0.1)">
      <path
         d="M 20000,0 H 0 V 20000 H 20000 V 0"
         style="fill:#ffffff;fill-opacity:1;fill-rule:nonzero;stroke:none"
         id="path12" />
      <path
         d="M 12100,17000 H 6266.67 c -136.27,0 -265.69,-59.5 -354.11,-162.9 L 3112.57,13570.4 C 3039.65,13485.9 3000,13378.1 3000,13266.7 v -9100 C 3000,3523.4 3523.18,3000 4166.67,3000 H 12100 c 643.5,0 1166.7,523.4 1166.7,1166.7 v 11666.6 c 0,643.3 -523.2,1166.7 -1166.7,1166.7"
         style="fill:#f5eeec;fill-opacity:1;fill-rule:nonzero;stroke:none"
         id="path14" />
      <path
         d="m 3933.33,4166.7 v 9100 c 0,111.4 39.65,219.2 112.57,303.7 l 2800,3266.7 c 88.41,103.4 217.84,162.9 354.1,162.9 h -933.33 c -136.27,0 -265.69,-59.5 -354.11,-162.9 L 3112.57,13570.4 C 3039.65,13485.9 3000,13378.1 3000,13266.7 v -9100 C 3000,3523.4 3523.18,3000 4166.67,3000 H 5100 c -643.49,0 -1166.67,523.4 -1166.67,1166.7"
         style="fill:#e0dede;fill-opacity:1;fill-rule:nonzero;stroke:none"
         id="path16" />
      <path
         d="M 3112.57,13570.4 C 3039.65,13485.9 3000,13378.1 3000,13266.7 h 2100 c 643.49,0 1166.67,523.4 1166.67,1166.6 V 17000 c -136.27,0 -265.69,-59.5 -354.11,-162.9 L 3112.57,13570.4"
         style="fill:#ffc144;fill-opacity:1;fill-rule:nonzero;stroke:none"
         id="path18" />
      <path
         d="m 4045.9,13570.4 2220.77,2590.9 v 838.7 c -136.27,0 -265.69,-59.5 -354.11,-162.9 L 3112.57,13570.4 C 3039.65,13485.9 3000,13378.1 3000,13266.7 h 933.33 c 0,111.4 39.65,219.2 112.57,303.7"
         style="fill:#d3922a;fill-opacity:1;fill-rule:nonzero;stroke:none"
         id="path20" />
      <path
         d="M 13266.7,13033.3 H 8133.33 C 7617.87,13033.3 7200,12615.5 7200,12100 V 5800 c 0,-515.5 417.87,-933.3 933.33,-933.3 h 5133.37 v 8166.6"
         style="fill:#e0dede;fill-opacity:1;fill-rule:nonzero;stroke:none"
         id="path22" />
      <path
         d="M 16066.7,12566.7 H 8600 c -515.47,0 -933.33,-417.9 -933.33,-933.4 V 6266.7 c 0,-515.5 417.86,-933.4 933.33,-933.4 h 7466.7 c 515.4,0 933.3,417.9 933.3,933.4 v 5366.6 c 0,515.5 -417.9,933.4 -933.3,933.4"
         style="fill:#7dd9c2;fill-opacity:1;fill-rule:nonzero;stroke:none"
         id="path24" />
      <path
         d="M 9533.33,11633.3 H 17000 c 0,515.5 -417.9,933.4 -933.3,933.4 H 8600 c -515.46,0 -933.33,-417.9 -933.33,-933.4 V 6266.7 c 0,-515.5 417.87,-933.4 933.33,-933.4 V 10700 c 0,515.5 417.88,933.3 933.33,933.3"
         style="fill:#58b79c;fill-opacity:1;fill-rule:nonzero;stroke:none"
         id="path26" />
      <path
         d="M 10179.1,7352.7 8911.72,8620.1 c -182.29,182.2 -182.29,477.6 0,659.8 L 10179.1,10547.3 10839,9887.4 9901.56,8950 10839,8012.6 10179.1,7352.7"
         style="fill:#f5eeec;fill-opacity:1;fill-rule:nonzero;stroke:none"
         id="path28" />
      <path
         d="m 14487.6,7352.7 -659.9,659.9 937.4,937.4 -937.4,937.4 659.9,659.9 1267.3,-1267.4 c 182.3,-182.2 182.3,-477.6 0,-659.8 L 14487.6,7352.7"
         style="fill:#f5eeec;fill-opacity:1;fill-rule:nonzero;stroke:none"
         id="path30" />
      <path
         d="m 12297.8,6884 -905.5,226.4 976.6,3905.7 905.5,-226.5 -976.6,-3905.6"
         style="fill:#f5eeec;fill-opacity:1;fill-rule:nonzero;stroke:none"
         id="path32" />
      <path
         d="m 5800,4866.7 h -933.33 v 1400 H 5800 v -1400"
         style="fill:#ffc144;fill-opacity:1;fill-rule:nonzero;stroke:none"
         id="path34" />
      <path
         d="M 5800,7200 H 4866.67 V 8600 H 5800 V 7200"
         style="fill:#ffc144;fill-opacity:1;fill-rule:nonzero;stroke:none"
         id="path36" />
    </g>
  </g>
</svg>
