<?xml version="1.0" encoding="UTF-8" standalone="no"?>
<!-- Created with Inkscape (http://www.inkscape.org/) -->

<svg
   version="1.1"
   id="svg2"
   width="2605.7866"
   height="4406.5332"
   viewBox="0 0 2605.7866 4406.5332"
   sodipodi:docname="vecteezy_big-data-vector-icon-design_20679192.eps"
   xmlns:inkscape="http://www.inkscape.org/namespaces/inkscape"
   xmlns:sodipodi="http://sodipodi.sourceforge.net/DTD/sodipodi-0.dtd"
   xmlns="http://www.w3.org/2000/svg"
   xmlns:svg="http://www.w3.org/2000/svg">
  <defs
     id="defs6" />
  <sodipodi:namedview
     id="namedview4"
     pagecolor="#ffffff"
     bordercolor="#000000"
     borderopacity="0.25"
     inkscape:showpageshadow="2"
     inkscape:pageopacity="0.0"
     inkscape:pagecheckerboard="0"
     inkscape:deskcolor="#d1d1d1" />
  <g
     id="g8"
     inkscape:groupmode="layer"
     inkscape:label="ink_ext_XXXXXX"
     transform="matrix(1.3333333,0,0,-1.3333333,0,4406.5333)">
    <g
       id="g10"
       transform="scale(0.1)">
      <path
         d="m 9771.63,23579.7 c -3222.76,0 -5468.58,-1195.1 -5468.58,-2267.2 0,-1072.6 2245.82,-2267.3 5468.58,-2267.3 3222.77,0 5468.97,1195.1 5468.97,2267.3 0,1072.4 -2246.2,2267.2 -5468.97,2267.2 z m 0,-5536 c -3628.03,0 -6470.07,1435.7 -6470.07,3268.8 0,1832.9 2842.04,3268.6 6470.07,3268.6 3628.07,0 6470.17,-1435.7 6470.17,-3268.6 0,-1833.1 -2842.1,-3268.8 -6470.17,-3268.8 v 0"
         style="fill:#043659;fill-opacity:1;fill-rule:evenodd;stroke:none"
         id="path12" />
      <path
         d="m 9771.63,15276.2 c -3628.03,0 -6470.07,1435.5 -6470.07,3268.3 0,276.7 224.04,500.7 500.74,500.7 276.71,0 500.75,-224 500.75,-500.7 0,-1072.2 2245.82,-2266.8 5468.58,-2266.8 3222.77,0 5468.97,1194.6 5468.97,2266.8 0,276.7 224,500.7 500.6,500.7 276.6,0 500.6,-224 500.6,-500.7 0,-1832.7 -2842.1,-3268.3 -6470.17,-3268.3"
         style="fill:#043659;fill-opacity:1;fill-rule:evenodd;stroke:none"
         id="path14" />
      <path
         d="m 9771.63,12508.1 c -3628.03,0 -6470.07,1435.6 -6470.07,3268.7 0,276.5 224.04,500.9 500.74,500.9 276.71,0 500.75,-224.4 500.75,-500.9 0,-1072.2 2245.82,-2267.3 5468.58,-2267.3 3222.77,0 5468.97,1195.1 5468.97,2267.3 0,276.5 224,500.9 500.6,500.9 276.6,0 500.6,-224.4 500.6,-500.9 0,-1833.1 -2842.1,-3268.7 -6470.17,-3268.7"
         style="fill:#043659;fill-opacity:1;fill-rule:evenodd;stroke:none"
         id="path16" />
      <path
         d="m 9771.63,9739.9 c -3628.03,0 -6470.07,1435.7 -6470.07,3268.8 0,276.5 224.04,500.6 500.74,500.6 276.71,0 500.75,-224.1 500.75,-500.6 0,-1072.4 2245.82,-2267.3 5468.58,-2267.3 3222.77,0 5468.97,1194.9 5468.97,2267.3 0,276.5 224,500.6 500.6,500.6 276.6,0 500.6,-224.1 500.6,-500.6 0,-1833.1 -2842.1,-3268.8 -6470.17,-3268.8"
         style="fill:#043659;fill-opacity:1;fill-rule:evenodd;stroke:none"
         id="path18" />
      <path
         d="m 9771.63,6972.1 c -3628.03,0 -6470.07,1435.7 -6470.07,3268.5 0,276.8 224.04,500.8 500.74,500.8 276.71,0 500.75,-224 500.75,-500.8 0,-1072.2 2245.82,-2267 5468.58,-2267 3222.77,0 5468.97,1194.8 5468.97,2267 0,276.8 224,500.8 500.6,500.8 276.6,0 500.6,-224 500.6,-500.8 0,-1832.8 -2842.1,-3268.5 -6470.17,-3268.5"
         style="fill:#043659;fill-opacity:1;fill-rule:evenodd;stroke:none"
         id="path20" />
      <path
         d="m 9771.63,4204.3 c -3628.03,0 -6470.07,1435.6 -6470.07,3268.4 0,276.6 224.04,500.9 500.74,500.9 276.71,0 500.75,-224.3 500.75,-500.9 0,-1072.1 2245.82,-2266.9 5468.58,-2266.9 3222.77,0 5468.97,1194.8 5468.97,2266.9 0,276.6 224,500.9 500.6,500.9 276.6,0 500.6,-224.3 500.6,-500.9 0,-1832.5 -2842.1,-3268.4 -6470.17,-3268.4"
         style="fill:#043659;fill-opacity:1;fill-rule:evenodd;stroke:none"
         id="path22" />
      <path
         d="m 3802.3,6972.1 c -276.7,0 -500.74,224 -500.74,500.6 v 13839.8 c 0,276.5 224.04,500.7 500.74,500.7 276.71,0 500.75,-224.2 500.75,-500.7 V 7472.7 c 0,-276.6 -224.3,-500.6 -500.75,-500.6"
         style="fill:#043659;fill-opacity:1;fill-rule:evenodd;stroke:none"
         id="path24" />
      <path
         d="m 15741.2,6972.1 c -276.6,0 -500.6,224 -500.6,500.6 v 13839.8 c 0,276.5 224,500.7 500.6,500.7 276.6,0 500.6,-224.2 500.6,-500.7 V 7472.7 c 0,-276.6 -224,-500.6 -500.6,-500.6"
         style="fill:#043659;fill-opacity:1;fill-rule:evenodd;stroke:none"
         id="path26" />
      <path
         d="m 9771.63,2134.3 c -276.7,0 -500.75,224 -500.75,500.9 v 2069.9 c 0,276.9 224.05,500.7 500.75,500.7 276.87,0 500.57,-223.8 500.57,-500.7 V 2635.2 c 0,-276.6 -223.7,-500.9 -500.57,-500.9"
         style="fill:#043659;fill-opacity:1;fill-rule:evenodd;stroke:none"
         id="path28" />
      <path
         d="M 7901.67,1001.5 H 11642 V 2134.3 H 7901.67 Z M 12142.6,0 H 7400.92 C 7124.21,0 6900.17,224.301 6900.17,500.801 V 2635.4 c 0,276.6 224.04,500.7 500.75,500.7 h 4741.68 c 276.6,0 500.9,-224.1 500.9,-500.9 V 500.801 C 12643.5,224 12419.2,0 12142.6,0 v 0"
         style="fill:#249ecf;fill-opacity:1;fill-rule:evenodd;stroke:none"
         id="path30" />
      <path
         d="M 7400.92,1067.1 H 500.754 C 224.043,1067.1 0,1291.2 0,1567.7 c 0,276.9 224.043,500.9 500.754,500.9 H 7400.92 c 276.58,0 500.75,-224 500.75,-500.9 0,-276.5 -224.31,-500.6 -500.75,-500.6 z m 11641.58,0 h -6899.9 c -276.6,0 -500.6,224.1 -500.6,500.6 0,276.9 224,500.9 500.6,500.9 h 6899.9 c 276.8,0 500.9,-224 500.9,-500.9 0,-276.5 -224.3,-500.6 -500.9,-500.6 v 0"
         style="fill:#249ecf;fill-opacity:1;fill-rule:evenodd;stroke:none"
         id="path32" />
      <path
         d="m 17673.6,26905.8 c -223.6,0 -405.8,-182.2 -405.8,-405.9 0,-223.7 182,-405.8 405.8,-405.8 223.7,0 406,182.1 406,405.8 0,223.7 -182.3,405.9 -406,405.9 z m 0,-1813.2 c -776.2,0 -1407.3,631.1 -1407.3,1407.3 0,776.1 631.1,1407.3 1407.3,1407.3 776.1,0 1407.3,-631.2 1407.3,-1407.3 0,-776.2 -631.5,-1407.3 -1407.3,-1407.3 v 0"
         style="fill:#249ecf;fill-opacity:1;fill-rule:evenodd;stroke:none"
         id="path34" />
      <path
         d="m 12474.9,23280.3 c -276.6,0 -500.7,224 -500.7,500.7 v 2718.9 c 0,276.7 224.1,500.7 500.7,500.7 h 4292.2 c 276.6,0 500.7,-224 500.7,-500.7 0,-276.6 -224.1,-500.7 -500.7,-500.7 H 12975.7 V 23781 c 0,-276.7 -224,-500.7 -500.8,-500.7"
         style="fill:#043659;fill-opacity:1;fill-rule:evenodd;stroke:none"
         id="path36" />
      <path
         d="m 7058.29,23277.9 c -276.71,0 -500.75,224 -500.75,500.7 v 2220.6 h -3791.4 c -276.71,0 -500.75,224.1 -500.75,500.7 0,276.7 224.04,500.7 500.75,500.7 h 4292.15 c 276.71,0 500.75,-224 500.75,-500.7 v -2721.3 c 0,-276.7 -224.04,-500.7 -500.75,-500.7"
         style="fill:#043659;fill-opacity:1;fill-rule:evenodd;stroke:none"
         id="path38" />
      <path
         d="m 8386.26,23504.8 c -276.7,0 -500.74,224.1 -500.74,500.8 V 28542 H 4551.66 c -276.71,0 -500.75,224 -500.75,500.9 0,276.5 224.04,500.6 500.75,500.6 h 3834.6 c 276.71,0 500.75,-224.1 500.75,-500.6 v -5037.3 c 0,-276.7 -224.04,-500.8 -500.75,-500.8"
         style="fill:#043659;fill-opacity:1;fill-rule:evenodd;stroke:none"
         id="path40" />
      <path
         d="m 11146.9,23505.9 c -276.9,0 -500.9,224 -500.9,500.7 v 5036.3 c 0,276.5 224,500.6 500.9,500.6 h 3835 c 276.6,0 500.6,-224.1 500.6,-500.6 0,-276.9 -224,-500.9 -500.6,-500.9 h -3334.4 v -4535.6 c 0,-276.6 -223.8,-500.5 -500.6,-500.5"
         style="fill:#043659;fill-opacity:1;fill-rule:evenodd;stroke:none"
         id="path42" />
      <path
         d="m 9766.77,23579.7 c -276.7,0 -500.75,223.9 -500.75,500.6 v 6654.9 c 0,276.7 224.05,500.7 500.75,500.7 276.43,0 500.73,-224 500.73,-500.7 v -6654.8 c 0,-276.4 -224.3,-500.7 -500.73,-500.7"
         style="fill:#043659;fill-opacity:1;fill-rule:evenodd;stroke:none"
         id="path44" />
      <path
         d="m 15888.3,29448.7 c -223.5,0 -405.8,-182.2 -405.8,-405.8 0,-223.8 182.3,-406 405.8,-406 223.8,0 405.8,182.2 405.8,406 0,223.6 -182,405.8 -405.8,405.8 z m 0,-1813.3 c -776.1,0 -1407.3,631.2 -1407.3,1407.5 0,776 631.2,1407.3 1407.3,1407.3 776.1,0 1407.3,-631.3 1407.3,-1407.3 0,-776.3 -631.2,-1407.5 -1407.3,-1407.5 v 0"
         style="fill:#249ecf;fill-opacity:1;fill-rule:evenodd;stroke:none"
         id="path46" />
      <path
         d="m 3645.11,29448.7 c -223.78,0 -405.8,-182.2 -405.8,-405.8 0,-223.8 182.02,-406 405.8,-406 223.78,0 405.8,182.2 405.8,406 0,223.6 -182.02,405.8 -405.8,405.8 z m 0,-1813.3 c -776.28,0 -1407.3,631.2 -1407.3,1407.5 0,776 631.02,1407.3 1407.3,1407.3 776.14,0 1407.29,-631.3 1407.29,-1407.3 0,-776.3 -631.41,-1407.5 -1407.29,-1407.5 v 0"
         style="fill:#249ecf;fill-opacity:1;fill-rule:evenodd;stroke:none"
         id="path48" />
      <path
         d="m 1869.7,26770.4 c -223.78,0 -405.8,-182 -405.8,-406.1 0,-223.7 182.02,-405.9 405.8,-405.9 223.78,0 405.93,182.2 405.93,405.9 -0.13,223.8 -182.15,406.1 -405.93,406.1 z m 0,-1813.4 c -776.14,0 -1407.298,631.1 -1407.298,1407.3 0,776.2 631.158,1407.3 1407.298,1407.3 776.27,0 1407.43,-631.5 1407.43,-1407.3 0,-775.8 -631.55,-1407.3 -1407.43,-1407.3 v 0"
         style="fill:#249ecf;fill-opacity:1;fill-rule:evenodd;stroke:none"
         id="path50" />
      <path
         d="m 9766.77,32047.8 c -223.78,0 -405.8,-182.2 -405.8,-405.8 0,-223.8 182.02,-405.8 405.8,-405.8 223.65,0 405.63,182 405.63,405.8 0,223.6 -181.98,405.8 -405.63,405.8 z m 0,-1813.4 c -776.27,0 -1407.3,631.2 -1407.3,1407.4 0,776 631.03,1407.2 1407.3,1407.2 775.73,0 1407.13,-631.2 1407.13,-1407.2 0,-776.2 -631.4,-1407.4 -1407.13,-1407.4 v 0"
         style="fill:#249ecf;fill-opacity:1;fill-rule:evenodd;stroke:none"
         id="path52" />
    </g>
  </g>
</svg>
