<?xml version="1.0" standalone="no"?>
<!DOCTYPE svg PUBLIC "-//W3C//DTD SVG 1.0//EN" "http://www.w3.org/TR/2001/REC-SVG-20010904/DTD/svg10.dtd">
<svg xmlns="http://www.w3.org/2000/svg" xmlns:xlink="http://www.w3.org/1999/xlink" id="body_1" width="180" height="300">

<g transform="matrix(0.09988901 0 0 0.09988901 -0 0.16647762)">
    <path d="M915.83594 910.2383L1567.4609 1216.7383C 1580.1719 1222.6797 1587.6289 1235.2891 1587.6484 1248.4609L1587.6484 1248.4609L1587.7812 1248.4609L1587.7812 1861.4688C 1587.7812 1876.6602 1578.1406 1889.6016 1564.6484 1894.5195L1564.6484 1894.5195L915.83594 2199.6914C 906.0664 2204.2617 895.25 2203.9219 886.1758 2199.6875L886.1758 2199.6875L234.55078 1893.1914C 221.83984 1887.25 214.3711 1874.6406 214.35938 1861.4688L214.35938 1861.4688L214.22656 1861.4688L214.22656 1248.4609C 214.22656 1233.2695 223.86719 1220.3281 237.35938 1215.4219L237.35938 1215.4219L886.1758 910.2383C 895.9492 905.6719 906.7656 906.0117 915.83594 910.2383zM1211.9883 1126.9297L901.0078 980.66016L284.53516 1270.6289L284.53516 1839.3086L901.0078 2129.2734L1517.4688 1839.3086L1517.4688 1270.6211L1211.9883 1126.9297" stroke="none" fill="#000000" fill-rule="nonzero" />
    <path d="M237.10547 1281.6602C 195.35547 1262.1406 224.98047 1198.6992 266.76562 1218.2109L266.76562 1218.2109L901.0078 1513.8984L1534.6484 1218.2109C 1576.4492 1198.7109 1606.0586 1262.1719 1564.3086 1281.6484L1564.3086 1281.6484L915.83594 1584.2617C 906.77734 1588.4805 895.9336 1588.8086 886.1758 1584.2617L886.1758 1584.2617L237.10547 1281.6602" stroke="none" fill="#000000" fill-rule="nonzero" />
    <path d="M865.85156 1552.5391C 865.85156 1506.2617 936.16016 1506.2617 936.16016 1552.5391L936.16016 1552.5391L936.16016 2165.3828C 936.16016 2211.6562 865.85156 2211.664 865.85156 2165.3828L865.85156 2165.3828L865.85156 1552.5391" stroke="none" fill="#000000" fill-rule="nonzero" />
    <path d="M865.84766 2167.9648C 865.84766 2121.6836 936.15234 2121.6836 936.15234 2167.9648L936.15234 2167.9648L936.15234 2654.7266C 936.15234 2701.0078 865.84766 2701.0078 865.84766 2654.7266L865.84766 2654.7266L865.84766 2167.9648" stroke="none" fill="#000000" fill-rule="nonzero" />
    <path d="M1222.8594 2000.0352C 1222.8594 1984.4883 1231.0508 1974.5898 1241.5703 1969.5C 1262.3984 1959.4102 1293.1719 1969.3086 1293.1719 2000.0352L1293.1719 2000.0352L1293.1719 2425.3164L1595.5 2727.6406C 1628.2305 2760.3672 1578.5117 2810.082 1545.7891 2777.3555L1545.7891 2777.3555L1233.1602 2464.7344C 1226.8008 2458.371 1222.8594 2449.586 1222.8594 2439.875L1222.8594 2439.875L1222.8594 2000.0352" stroke="none" fill="#000000" fill-rule="nonzero" />
    <path d="M1646.2617 2690.4102C 1782.9297 2690.4102 1853.3906 2856.9219 1755.4609 2954.664C 1657.8398 3052.0898 1491.5117 2981.7812 1491.5117 2845.1602C 1491.5117 2759.8906 1561 2690.4102 1646.2617 2690.4102zM1705.9688 2785.3125C 1627.4102 2706.7578 1507.8516 2826.2969 1586.5508 2905.004C 1665.1094 2983.5625 1784.6797 2864.0234 1705.9688 2785.3125" stroke="none" fill="#000000" fill-rule="nonzero" />
    <path d="M508.82812 2000.0352C 508.82812 1969.5195 539.1953 1959.4688 560.0117 1969.1797C 570.7656 1974.1992 579.1406 1984.2812 579.1406 2000.0352L579.1406 2000.0352L579.1406 2439.875C 579.1406 2449.586 575.1992 2458.371 568.83984 2464.7344L568.83984 2464.7344L256.21094 2777.3555C 223.48438 2810.082 173.77344 2760.3672 206.4961 2727.6406L206.4961 2727.6406L508.82812 2425.3164L508.82812 2000.0352" stroke="none" fill="#000000" fill-rule="nonzero" />
    <path d="M155.73828 2760.7188C 44.585938 2760.7188 44.59375 2929.5977 155.73828 2929.5977C 266.8828 2929.5977 266.89062 2760.7188 155.73828 2760.7188zM46.316406 2735.879C 144.1836 2638.0117 310.48438 2708.625 310.48438 2845.1602C 310.48438 2981.8164 144.0039 3052.2383 46.316406 2954.4414C -14.058594 2894 -14.117188 2796.3086 46.316406 2735.879" stroke="none" fill="#000000" fill-rule="nonzero" />
    <path d="M901 2619.5703C 1037.6406 2619.5703 1108.1406 2786.0742 1010.1992 2883.8203C 912.5781 2981.25 746.2539 2910.9492 746.2539 2774.3164C 746.2539 2689.0469 815.7383 2619.5703 901 2619.5703zM960.70703 2714.4727C 882.14844 2635.914 762.58594 2755.4531 841.29297 2834.164C 919.85156 2912.7188 1039.4219 2793.1836 960.70703 2714.4727" stroke="none" fill="#000000" fill-rule="nonzero" />
    <path d="M1293.1719 1109.8906C 1293.1719 1140.1406 1263.2109 1150.1602 1242.3984 1140.8789C 1231.3789 1135.9609 1222.8594 1125.9297 1222.8594 1109.8906L1222.8594 1109.8906L1222.8594 560.1094C 1222.8594 550.39844 1226.8008 541.6094 1233.1602 535.25L1233.1602 535.25L1545.7891 222.6289C 1562.1289 206.28906 1580.7188 212.73047 1593.1406 225.1211C 1605.5898 237.53906 1611.8711 255.98047 1595.5 272.33984L1595.5 272.33984L1293.1719 574.6719L1293.1719 1109.8906" stroke="none" fill="#000000" fill-rule="nonzero" />
    <path d="M1646.2617 239.26953C 1757.4102 239.26953 1757.4102 70.39844 1646.2617 70.39844C 1535.1094 70.39844 1535.1094 239.26953 1646.2617 239.26953zM1755.6797 264.1211C 1657.8203 361.98047 1491.5117 291.3711 1491.5117 154.82812C 1491.5117 18.179688 1658 -52.23828 1755.6797 45.55078C 1816.0508 105.98828 1816.1211 203.67969 1755.6797 264.1211" stroke="none" fill="#000000" fill-rule="nonzero" />
    <path d="M579.1406 1109.8906C 579.1406 1125.4805 570.91016 1135.6211 560.2383 1140.6914C 539.41797 1150.5898 508.82812 1140.6289 508.82812 1109.8906L508.82812 1109.8906L508.82812 574.6719L206.4961 272.33984C 173.77344 239.6211 223.48438 189.91016 256.21094 222.6289L256.21094 222.6289L568.83984 535.25C 575.1992 541.6094 579.1406 550.39844 579.1406 560.1094L579.1406 560.1094L579.1406 1109.8906" stroke="none" fill="#000000" fill-rule="nonzero" />
    <path d="M155.73828 309.57812C 19.085938 309.57812 -51.402344 143.07812 46.539062 45.328125C 144.15234 -52.101562 310.48438 18.199219 310.48438 154.82812C 310.48438 240.10156 241 309.57812 155.73828 309.57812zM96.03125 214.67969C 174.58984 293.23828 294.15234 173.69922 215.44531 94.98828C 136.88672 16.429688 17.324219 135.96875 96.03125 214.67969" stroke="none" fill="#000000" fill-rule="nonzero" />
    <path d="M1517.4688 1303.5117L936.16016 1574.7695L936.16016 2112.7422L1517.4688 1839.3086L1517.4688 1303.5117" stroke="none" fill="#BDBDBD" fill-rule="nonzero" />
    <path d="M901.0078 1513.8984L1470.0898 1248.3398L1211.9883 1126.9297L901.0078 980.66016L331.65234 1248.4609L901.0078 1513.8984" stroke="none" fill="#868686" fill-rule="nonzero" />
    <path d="M865.85156 2112.7422L865.85156 1574.7891L284.53516 1303.7695L284.53516 1839.3086L865.85156 2112.7422" stroke="none" fill="#A1A1A1" fill-rule="nonzero" />
    <path d="M96.03125 214.67969C 174.58984 293.23828 294.15234 173.69922 215.44531 94.98828C 136.88672 16.429688 17.324219 135.96875 96.03125 214.67969" stroke="none" fill="#A2A2A2" fill-rule="nonzero" />
    <path d="M1646.2617 70.39844C 1535.1094 70.39844 1535.1094 239.26953 1646.2617 239.26953C 1757.4102 239.26953 1757.4102 70.39844 1646.2617 70.39844" stroke="none" fill="#939393" fill-rule="nonzero" />
    <path d="M1705.9688 2785.3125C 1627.4102 2706.7578 1507.8516 2826.2969 1586.5508 2905.004C 1665.1094 2983.5625 1784.6797 2864.0234 1705.9688 2785.3125" stroke="none" fill="#626262" fill-rule="nonzero" />
    <path d="M841.29297 2834.164C 919.85156 2912.7188 1039.4219 2793.1836 960.70703 2714.4727C 944.0039 2697.7695 925.4336 2690.0156 907.3164 2688.9297C 903.5625 2689.539 899.70703 2689.5938 895.9336 2689.1094C 833.71484 2694.7773 782.85156 2775.7227 841.29297 2834.164" stroke="none" fill="#BDBDBD" fill-rule="nonzero" />
    <path d="M155.73828 2929.5977C 241.63281 2929.5977 261.15234 2828.7383 214.28125 2782.914C 210.91406 2780.871 207.83203 2778.2969 205.20312 2775.3438C 192.36719 2766.2617 175.875 2760.7188 155.73828 2760.7188C 44.585938 2760.7188 44.59375 2929.5977 155.73828 2929.5977" stroke="none" fill="#8E8E8E" fill-rule="nonzero" />
</g>
</svg>