<svg xmlns="http://www.w3.org/2000/svg" xmlns:xlink="http://www.w3.org/1999/xlink" width="1080" zoomAndPan="magnify" viewBox="0 0 810 809.999993" height="1080" preserveAspectRatio="xMidYMid meet" version="1.0"><rect x="-81" width="972" fill="#ffffff" y="-80.999999" height="971.999992" fill-opacity="1"/><rect x="-81" width="972" fill="#ffffff" y="-80.999999" height="971.999992" fill-opacity="1"/><path fill="#e3e8ea" d="M 556.34375 233.789062 C 556.34375 319.042969 487.230469 388.15625 401.976562 388.15625 C 316.722656 388.15625 247.609375 319.042969 247.609375 233.789062 C 247.609375 148.535156 316.722656 79.421875 401.976562 79.421875 C 487.230469 79.421875 556.34375 148.535156 556.34375 233.789062 " fill-opacity="1" fill-rule="nonzero"/><path fill="#ffffff" d="M 382.214844 356.960938 L 421.742188 356.960938 L 425.296875 327.71875 C 434.804688 325.363281 443.734375 321.621094 451.902344 316.691406 L 475.097656 334.855469 L 503.042969 306.910156 L 484.875 283.710938 C 489.804688 275.546875 493.546875 266.613281 495.902344 257.105469 L 525.148438 253.550781 L 525.144531 214.027344 L 495.902344 210.472656 C 493.546875 200.964844 489.800781 192.027344 484.875 183.863281 L 503.039062 160.671875 L 475.089844 132.722656 L 451.898438 150.886719 C 443.730469 145.957031 434.796875 142.214844 425.292969 139.859375 L 421.734375 110.613281 L 382.210938 110.613281 L 378.65625 139.859375 C 369.148438 142.214844 360.214844 145.957031 352.046875 150.886719 L 328.855469 132.722656 L 300.90625 160.667969 L 319.074219 183.863281 C 314.144531 192.03125 310.398438 200.964844 308.050781 210.472656 L 278.804688 214.027344 L 278.804688 253.550781 L 308.050781 257.105469 C 310.402344 266.613281 314.144531 275.546875 319.078125 283.714844 L 300.910156 306.90625 L 328.863281 334.851562 L 352.050781 316.691406 C 360.214844 321.621094 369.148438 325.363281 378.65625 327.71875 L 382.214844 356.960938 " fill-opacity="1" fill-rule="nonzero"/><path fill="#1e334e" d="M 390.671875 347.40625 L 413.28125 347.40625 L 415.816406 326.5625 C 416.296875 322.636719 419.152344 319.410156 422.996094 318.449219 C 431.464844 316.351562 439.53125 313 446.964844 308.515625 C 450.359375 306.464844 454.664062 306.707031 457.792969 309.167969 L 474.328125 322.125 L 490.308594 306.136719 L 477.359375 289.601562 C 474.910156 286.484375 474.648438 282.175781 476.695312 278.78125 C 481.199219 271.320312 484.542969 263.261719 486.636719 254.8125 C 487.589844 250.960938 490.820312 248.105469 494.753906 247.621094 L 515.597656 245.09375 L 515.59375 222.488281 L 494.75 219.957031 C 490.8125 219.472656 487.582031 216.609375 486.628906 212.769531 C 484.546875 204.328125 481.203125 196.261719 476.695312 188.796875 C 474.644531 185.402344 474.90625 181.09375 477.355469 177.980469 L 490.300781 161.441406 L 474.320312 145.457031 L 457.785156 158.402344 C 454.664062 160.84375 450.355469 161.097656 446.964844 159.0625 C 439.496094 154.558594 431.433594 151.21875 423 149.132812 C 419.152344 148.179688 416.292969 144.953125 415.8125 141.015625 L 413.277344 120.164062 L 390.667969 120.164062 L 388.132812 141.015625 C 387.65625 144.953125 384.796875 148.179688 380.945312 149.132812 C 372.515625 151.210938 364.457031 154.558594 356.972656 159.0625 C 353.589844 161.105469 349.273438 160.855469 346.15625 158.402344 L 329.625 145.457031 L 313.644531 161.441406 L 326.589844 177.980469 C 329.039062 181.09375 329.296875 185.402344 327.25 188.796875 C 322.75 196.25 319.414062 204.316406 317.316406 212.769531 C 316.367188 216.617188 313.132812 219.472656 309.199219 219.957031 L 288.351562 222.488281 L 288.351562 245.09375 L 309.199219 247.621094 C 313.132812 248.105469 316.359375 250.960938 317.316406 254.8125 C 319.414062 263.261719 322.753906 271.320312 327.253906 278.78125 C 329.300781 282.175781 329.039062 286.484375 326.59375 289.601562 L 313.648438 306.128906 L 329.628906 322.113281 L 346.160156 309.167969 C 349.289062 306.707031 353.605469 306.464844 356.988281 308.515625 C 364.425781 313 372.488281 316.351562 380.957031 318.449219 C 384.804688 319.398438 387.664062 322.636719 388.140625 326.5625 Z M 421.738281 366.511719 L 382.214844 366.511719 C 377.382812 366.511719 373.316406 362.910156 372.730469 358.117188 L 369.945312 335.179688 C 364.074219 333.324219 358.378906 330.964844 352.929688 328.128906 L 334.75 342.371094 C 330.945312 345.355469 325.515625 345.03125 322.105469 341.609375 L 294.160156 313.65625 C 290.746094 310.242188 290.414062 304.8125 293.394531 301.015625 L 307.632812 282.828125 C 304.792969 277.375 302.429688 271.683594 300.582031 265.820312 L 277.652344 263.039062 C 272.855469 262.453125 269.253906 258.382812 269.253906 253.554688 L 269.253906 214.027344 C 269.253906 209.195312 272.855469 205.128906 277.652344 204.542969 L 300.582031 201.761719 C 302.429688 195.894531 304.785156 190.207031 307.632812 184.742188 L 293.390625 166.554688 C 290.410156 162.757812 290.742188 157.328125 294.15625 153.914062 L 322.101562 125.964844 C 325.503906 122.542969 330.933594 122.214844 334.742188 125.199219 L 352.925781 139.441406 C 358.390625 136.597656 364.082031 134.246094 369.9375 132.390625 L 372.726562 109.457031 C 373.3125 104.671875 377.375 101.0625 382.210938 101.0625 L 421.734375 101.0625 C 426.5625 101.0625 430.632812 104.660156 431.214844 109.457031 L 434.003906 132.390625 C 439.867188 134.246094 445.554688 136.597656 451.015625 139.441406 L 469.199219 125.207031 C 473.003906 122.234375 478.429688 122.550781 481.839844 125.972656 L 509.789062 153.914062 C 513.203125 157.328125 513.53125 162.757812 510.554688 166.554688 L 496.316406 184.742188 C 499.160156 190.207031 501.519531 195.894531 503.367188 201.761719 L 526.296875 204.542969 C 531.089844 205.128906 534.695312 209.195312 534.695312 214.027344 L 534.699219 253.554688 C 534.699219 258.382812 531.09375 262.453125 526.300781 263.039062 L 503.371094 265.820312 C 501.519531 271.683594 499.160156 277.375 496.316406 282.839844 L 510.5625 301.027344 C 513.542969 304.824219 513.210938 310.25 509.796875 313.664062 L 481.851562 341.609375 C 478.445312 345.019531 473.019531 345.347656 469.207031 342.371094 L 451.023438 328.128906 C 445.574219 330.964844 439.886719 333.324219 434.007812 335.179688 L 431.21875 358.117188 C 430.636719 362.910156 426.566406 366.511719 421.738281 366.511719 " fill-opacity="1" fill-rule="nonzero"/><path fill="#4fa1de" d="M 330.863281 233.789062 C 330.863281 194.515625 362.699219 162.675781 401.972656 162.675781 C 441.25 162.675781 473.085938 194.515625 473.085938 233.789062 C 473.089844 273.0625 441.25 304.902344 401.976562 304.902344 C 362.703125 304.902344 330.863281 273.0625 330.863281 233.789062 " fill-opacity="1" fill-rule="nonzero"/><path fill="#ffffff" d="M 367.285156 233.789062 C 367.285156 214.628906 382.816406 199.097656 401.972656 199.097656 C 421.132812 199.097656 436.664062 214.628906 436.664062 233.789062 C 436.664062 252.945312 421.132812 268.476562 401.976562 268.476562 C 382.816406 268.476562 367.285156 252.945312 367.285156 233.789062 " fill-opacity="1" fill-rule="nonzero"/><path fill="#1e334e" d="M 401.976562 208.644531 C 388.113281 208.644531 376.835938 219.921875 376.835938 233.789062 C 376.835938 247.648438 388.113281 258.925781 401.976562 258.925781 C 415.839844 258.925781 427.117188 247.648438 427.117188 233.789062 C 427.117188 219.921875 415.839844 208.644531 401.976562 208.644531 Z M 401.976562 278.027344 C 377.582031 278.027344 357.734375 258.179688 357.734375 233.789062 C 357.734375 209.390625 377.582031 189.542969 401.976562 189.542969 C 426.371094 189.542969 446.21875 209.390625 446.21875 233.789062 C 446.21875 258.179688 426.371094 278.027344 401.976562 278.027344 " fill-opacity="1" fill-rule="nonzero"/><path fill="#1e334e" d="M 640.644531 154.632812 L 621.539062 154.632812 L 621.539062 135.535156 L 640.644531 135.535156 L 640.644531 154.632812 " fill-opacity="1" fill-rule="nonzero"/><path fill="#1e334e" d="M 640.644531 208.8125 L 621.539062 208.8125 L 621.539062 189.710938 L 640.644531 189.710938 L 640.644531 208.8125 " fill-opacity="1" fill-rule="nonzero"/><path fill="#1e334e" d="M 640.644531 262.980469 L 621.539062 262.980469 L 621.539062 243.882812 L 640.644531 243.882812 L 640.644531 262.980469 " fill-opacity="1" fill-rule="nonzero"/><path fill="#1e334e" d="M 193.285156 154.632812 L 174.179688 154.632812 L 174.179688 135.535156 L 193.285156 135.535156 L 193.285156 154.632812 " fill-opacity="1" fill-rule="nonzero"/><path fill="#1e334e" d="M 193.285156 208.8125 L 174.179688 208.8125 L 174.179688 189.710938 L 193.285156 189.710938 L 193.285156 208.8125 " fill-opacity="1" fill-rule="nonzero"/><path fill="#1e334e" d="M 193.285156 262.980469 L 174.179688 262.980469 L 174.179688 243.882812 L 193.285156 243.882812 L 193.285156 262.980469 " fill-opacity="1" fill-rule="nonzero"/><path fill="#1e334e" d="M 401.976562 690.660156 C 396.703125 690.660156 392.425781 686.386719 392.425781 681.109375 L 392.425781 356.957031 C 392.425781 351.679688 396.703125 347.40625 401.976562 347.40625 C 407.25 347.40625 411.527344 351.679688 411.527344 356.957031 L 411.527344 681.109375 C 411.527344 686.386719 407.25 690.660156 401.976562 690.660156 " fill-opacity="1" fill-rule="nonzero"/><path fill="#1e334e" d="M 401.976562 690.660156 C 399.046875 690.660156 396.277344 689.316406 394.46875 687.011719 L 351.835938 632.757812 C 348.578125 628.609375 349.292969 622.601562 353.445312 619.347656 C 357.589844 616.082031 363.59375 616.800781 366.851562 620.949219 L 401.976562 665.652344 L 437.101562 620.949219 C 440.359375 616.800781 446.371094 616.074219 450.507812 619.347656 C 454.660156 622.601562 455.375 628.609375 452.117188 632.757812 L 409.484375 687.011719 C 407.675781 689.316406 404.90625 690.660156 401.976562 690.660156 " fill-opacity="1" fill-rule="nonzero"/><path fill="#f04646" d="M 564.972656 476.875 L 564.96875 344.597656 L 697.246094 344.597656 L 697.246094 476.875 L 564.972656 476.875 " fill-opacity="1" fill-rule="nonzero"/><path fill="#1e334e" d="M 574.519531 467.324219 L 687.695312 467.324219 L 687.695312 354.152344 L 574.519531 354.152344 Z M 697.246094 486.421875 L 564.96875 486.421875 C 559.695312 486.421875 555.417969 482.152344 555.417969 476.871094 L 555.417969 344.601562 C 555.417969 339.320312 559.695312 335.050781 564.96875 335.050781 L 697.246094 335.050781 C 702.519531 335.050781 706.796875 339.320312 706.796875 344.601562 L 706.796875 476.871094 C 706.796875 482.152344 702.519531 486.421875 697.246094 486.421875 " fill-opacity="1" fill-rule="nonzero"/><path fill="#ffffff" d="M 603.175781 438.671875 L 603.171875 382.804688 L 659.042969 382.804688 L 659.046875 438.671875 L 603.175781 438.671875 " fill-opacity="1" fill-rule="nonzero"/><path fill="#f9b544" d="M 95.5625 410.738281 L 183.734375 322.5625 L 271.910156 410.734375 L 183.734375 498.910156 L 95.5625 410.738281 " fill-opacity="1" fill-rule="nonzero"/><path fill="#1e334e" d="M 109.066406 410.738281 L 183.734375 485.40625 L 258.40625 410.738281 L 183.734375 336.066406 Z M 183.734375 508.460938 C 181.292969 508.460938 178.847656 507.527344 176.984375 505.664062 L 88.808594 417.488281 C 85.078125 413.757812 85.078125 407.714844 88.808594 403.984375 L 176.984375 315.808594 C 180.714844 312.078125 186.757812 312.078125 190.488281 315.808594 L 278.664062 403.984375 C 282.394531 407.714844 282.394531 413.757812 278.664062 417.488281 L 190.488281 505.664062 C 188.625 507.527344 186.179688 508.460938 183.734375 508.460938 " fill-opacity="1" fill-rule="nonzero"/><path fill="#ffffff" d="M 149.585938 410.738281 L 183.734375 376.589844 L 217.882812 410.738281 L 183.738281 444.882812 L 149.585938 410.738281 " fill-opacity="1" fill-rule="nonzero"/><path fill="#1e334e" d="M 631.109375 566.726562 L 183.734375 566.726562 C 178.460938 566.726562 174.1875 562.453125 174.1875 557.175781 L 174.1875 498.910156 C 174.1875 493.632812 178.460938 489.359375 183.734375 489.359375 C 189.011719 489.359375 193.285156 493.632812 193.285156 498.910156 L 193.285156 547.625 L 621.558594 547.625 L 621.558594 476.871094 C 621.558594 471.59375 625.835938 467.324219 631.109375 467.324219 C 636.382812 467.324219 640.660156 471.59375 640.660156 476.871094 L 640.660156 557.175781 C 640.660156 562.453125 636.382812 566.726562 631.109375 566.726562 " fill-opacity="1" fill-rule="nonzero"/></svg>