<?xml version="1.0" standalone="no"?>
<!DOCTYPE svg PUBLIC "-//W3C//DTD SVG 1.0//EN" "http://www.w3.org/TR/2001/REC-SVG-20010904/DTD/svg10.dtd">
<svg xmlns="http://www.w3.org/2000/svg" xmlns:xlink="http://www.w3.org/1999/xlink" id="body_1" width="324" height="324">

<g transform="matrix(0.40000004 0 0 0.40000004 0 0)">
    <path d="M-81 -81L891 -81L891 891L-81 891z" stroke="none" fill="#FFFFFF" fill-rule="nonzero" />
    <path d="M-81 -81L891 -81L891 891L-81 891z" stroke="none" fill="#FFFFFF" fill-rule="nonzero" />
    <path d="M556.34375 233.78906C 556.34375 319.04297 487.23047 388.15625 401.97656 388.15625C 316.72266 388.15625 247.60938 319.04297 247.60938 233.78906C 247.60938 148.53516 316.72266 79.421875 401.97656 79.421875C 487.23047 79.421875 556.34375 148.53516 556.34375 233.78906" stroke="none" fill="#E3E8EA" fill-rule="nonzero" />
    <path d="M382.21484 356.96094L421.7422 356.96094L425.29688 327.71875C 434.8047 325.36328 443.73438 321.6211 451.90234 316.6914L451.90234 316.6914L475.09766 334.85547L503.04297 306.91016L484.875 283.71094C 489.8047 275.54688 493.54688 266.61328 495.90234 257.10547L495.90234 257.10547L525.14844 253.55078L525.14453 214.02734L495.90234 210.47266C 493.54688 200.96484 489.80078 192.02734 484.875 183.86328L484.875 183.86328L503.03906 160.67188L475.08984 132.72266L451.89844 150.88672C 443.73047 145.95703 434.79688 142.21484 425.29297 139.85938L425.29297 139.85938L421.73438 110.61328L382.21094 110.61328L378.65625 139.85938C 369.14844 142.21484 360.21484 145.95703 352.04688 150.88672L352.04688 150.88672L328.85547 132.72266L300.90625 160.66797L319.07422 183.86328C 314.14453 192.03125 310.39844 200.96484 308.05078 210.47266L308.05078 210.47266L278.8047 214.02734L278.8047 253.55078L308.05078 257.10547C 310.40234 266.61328 314.14453 275.54688 319.07812 283.71484L319.07812 283.71484L300.91016 306.90625L328.86328 334.85156L352.05078 316.6914C 360.21484 321.6211 369.14844 325.36328 378.65625 327.71875L378.65625 327.71875L382.21484 356.96094" stroke="none" fill="#FFFFFF" fill-rule="nonzero" />
    <path d="M390.67188 347.40625L413.28125 347.40625L415.8164 326.5625C 416.29688 322.63672 419.15234 319.41016 422.9961 318.44922C 431.46484 316.35156 439.53125 313 446.96484 308.51562C 450.35938 306.46484 454.66406 306.70703 457.79297 309.16797L457.79297 309.16797L474.32812 322.125L490.3086 306.13672L477.35938 289.60156C 474.91016 286.48438 474.64844 282.17578 476.6953 278.78125C 481.19922 271.3203 484.54297 263.26172 486.63672 254.8125C 487.58984 250.96094 490.8203 248.10547 494.7539 247.6211L494.7539 247.6211L515.59766 245.09375L515.59375 222.48828L494.75 219.95703C 490.8125 219.47266 487.58203 216.60938 486.6289 212.76953C 484.54688 204.32812 481.20312 196.26172 476.6953 188.79688C 474.64453 185.40234 474.90625 181.09375 477.35547 177.98047L477.35547 177.98047L490.30078 161.4414L474.3203 145.45703L457.78516 158.40234C 454.66406 160.84375 450.35547 161.09766 446.96484 159.0625C 439.4961 154.5586 431.4336 151.21875 423 149.13281C 419.15234 148.17969 416.29297 144.95312 415.8125 141.01562L415.8125 141.01562L413.27734 120.16406L390.66797 120.16406L388.1328 141.01562C 387.65625 144.95312 384.79688 148.17969 380.9453 149.13281C 372.51562 151.21094 364.45703 154.5586 356.97266 159.0625C 353.58984 161.10547 349.27344 160.85547 346.15625 158.40234L346.15625 158.40234L329.625 145.45703L313.64453 161.4414L326.58984 177.98047C 329.03906 181.09375 329.29688 185.40234 327.25 188.79688C 322.75 196.25 319.41406 204.3164 317.3164 212.76953C 316.3672 216.61719 313.1328 219.47266 309.19922 219.95703L309.19922 219.95703L288.35156 222.48828L288.35156 245.09375L309.19922 247.6211C 313.1328 248.10547 316.35938 250.96094 317.3164 254.8125C 319.41406 263.26172 322.7539 271.3203 327.2539 278.78125C 329.30078 282.17578 329.03906 286.48438 326.59375 289.60156L326.59375 289.60156L313.64844 306.1289L329.6289 322.11328L346.16016 309.16797C 349.28906 306.70703 353.60547 306.46484 356.98828 308.51562C 364.42578 313 372.48828 316.35156 380.95703 318.44922C 384.8047 319.39844 387.66406 322.63672 388.14062 326.5625L388.14062 326.5625L390.67188 347.40625zM421.73828 366.51172L382.21484 366.51172C 377.3828 366.51172 373.3164 362.91016 372.73047 358.1172L372.73047 358.1172L369.9453 335.1797C 364.07422 333.32422 358.3789 330.96484 352.9297 328.1289L352.9297 328.1289L334.75 342.3711C 330.9453 345.35547 325.51562 345.03125 322.10547 341.60938L322.10547 341.60938L294.16016 313.65625C 290.7461 310.2422 290.41406 304.8125 293.39453 301.01562L293.39453 301.01562L307.6328 282.82812C 304.79297 277.375 302.4297 271.6836 300.58203 265.8203L300.58203 265.8203L277.65234 263.03906C 272.85547 262.45312 269.2539 258.3828 269.2539 253.55469L269.2539 253.55469L269.2539 214.02734C 269.2539 209.19531 272.85547 205.1289 277.65234 204.54297L277.65234 204.54297L300.58203 201.76172C 302.4297 195.89453 304.78516 190.20703 307.6328 184.74219L307.6328 184.74219L293.39062 166.55469C 290.41016 162.75781 290.7422 157.32812 294.15625 153.91406L294.15625 153.91406L322.10156 125.96484C 325.5039 122.54297 330.9336 122.21484 334.7422 125.19922L334.7422 125.19922L352.92578 139.4414C 358.39062 136.59766 364.08203 134.2461 369.9375 132.39062L369.9375 132.39062L372.72656 109.45703C 373.3125 104.671875 377.375 101.0625 382.21094 101.0625L382.21094 101.0625L421.73438 101.0625C 426.5625 101.0625 430.6328 104.66016 431.21484 109.45703L431.21484 109.45703L434.0039 132.39062C 439.8672 134.2461 445.5547 136.59766 451.01562 139.4414L451.01562 139.4414L469.19922 125.20703C 473.0039 122.234375 478.4297 122.55078 481.83984 125.97266L481.83984 125.97266L509.78906 153.91406C 513.2031 157.32812 513.53125 162.75781 510.5547 166.55469L510.5547 166.55469L496.3164 184.74219C 499.16016 190.20703 501.51953 195.89453 503.3672 201.76172L503.3672 201.76172L526.2969 204.54297C 531.08984 205.1289 534.6953 209.19531 534.6953 214.02734L534.6953 214.02734L534.6992 253.55469C 534.6992 258.3828 531.09375 262.45312 526.3008 263.03906L526.3008 263.03906L503.3711 265.8203C 501.51953 271.6836 499.16016 277.375 496.3164 282.83984L496.3164 282.83984L510.5625 301.02734C 513.54297 304.82422 513.21094 310.25 509.79688 313.66406L509.79688 313.66406L481.85156 341.60938C 478.4453 345.01953 473.01953 345.34766 469.20703 342.3711L469.20703 342.3711L451.02344 328.1289C 445.57422 330.96484 439.88672 333.32422 434.0078 335.1797L434.0078 335.1797L431.21875 358.1172C 430.63672 362.91016 426.5664 366.51172 421.73828 366.51172" stroke="none" fill="#1E334E" fill-rule="nonzero" />
    <path d="M330.86328 233.78906C 330.86328 194.51562 362.69922 162.67578 401.97266 162.67578C 441.25 162.67578 473.08594 194.51562 473.08594 233.78906C 473.08984 273.0625 441.25 304.90234 401.97656 304.90234C 362.70312 304.90234 330.86328 273.0625 330.86328 233.78906" stroke="none" fill="#4FA1DE" fill-rule="nonzero" />
    <path d="M367.28516 233.78906C 367.28516 214.6289 382.8164 199.09766 401.97266 199.09766C 421.1328 199.09766 436.66406 214.6289 436.66406 233.78906C 436.66406 252.94531 421.1328 268.47656 401.97656 268.47656C 382.8164 268.47656 367.28516 252.94531 367.28516 233.78906" stroke="none" fill="#FFFFFF" fill-rule="nonzero" />
    <path d="M401.97656 208.64453C 388.11328 208.64453 376.83594 219.92188 376.83594 233.78906C 376.83594 247.64844 388.11328 258.92578 401.97656 258.92578C 415.83984 258.92578 427.1172 247.64844 427.1172 233.78906C 427.1172 219.92188 415.83984 208.64453 401.97656 208.64453zM401.97656 278.02734C 377.58203 278.02734 357.73438 258.1797 357.73438 233.78906C 357.73438 209.39062 377.58203 189.54297 401.97656 189.54297C 426.3711 189.54297 446.21875 209.39062 446.21875 233.78906C 446.21875 258.1797 426.3711 278.02734 401.97656 278.02734" stroke="none" fill="#1E334E" fill-rule="nonzero" />
    <path d="M640.64453 154.63281L621.53906 154.63281L621.53906 135.53516L640.64453 135.53516L640.64453 154.63281" stroke="none" fill="#1E334E" fill-rule="nonzero" />
    <path d="M640.64453 208.8125L621.53906 208.8125L621.53906 189.71094L640.64453 189.71094L640.64453 208.8125" stroke="none" fill="#1E334E" fill-rule="nonzero" />
    <path d="M640.64453 262.98047L621.53906 262.98047L621.53906 243.88281L640.64453 243.88281L640.64453 262.98047" stroke="none" fill="#1E334E" fill-rule="nonzero" />
    <path d="M193.28516 154.63281L174.17969 154.63281L174.17969 135.53516L193.28516 135.53516L193.28516 154.63281" stroke="none" fill="#1E334E" fill-rule="nonzero" />
    <path d="M193.28516 208.8125L174.17969 208.8125L174.17969 189.71094L193.28516 189.71094L193.28516 208.8125" stroke="none" fill="#1E334E" fill-rule="nonzero" />
    <path d="M193.28516 262.98047L174.17969 262.98047L174.17969 243.88281L193.28516 243.88281L193.28516 262.98047" stroke="none" fill="#1E334E" fill-rule="nonzero" />
    <path d="M401.97656 690.66016C 396.70312 690.66016 392.42578 686.3867 392.42578 681.1094L392.42578 681.1094L392.42578 356.95703C 392.42578 351.6797 396.70312 347.40625 401.97656 347.40625C 407.25 347.40625 411.52734 351.6797 411.52734 356.95703L411.52734 356.95703L411.52734 681.1094C 411.52734 686.3867 407.25 690.66016 401.97656 690.66016" stroke="none" fill="#1E334E" fill-rule="nonzero" />
    <path d="M401.97656 690.66016C 399.04688 690.66016 396.27734 689.3164 394.46875 687.0117L394.46875 687.0117L351.83594 632.7578C 348.57812 628.6094 349.29297 622.60156 353.4453 619.34766C 357.58984 616.08203 363.59375 616.8008 366.85156 620.9492L366.85156 620.9492L401.97656 665.65234L437.10156 620.9492C 440.35938 616.8008 446.3711 616.0742 450.5078 619.34766C 454.66016 622.60156 455.375 628.6094 452.1172 632.7578L452.1172 632.7578L409.48438 687.0117C 407.67578 689.3164 404.90625 690.66016 401.97656 690.66016" stroke="none" fill="#1E334E" fill-rule="nonzero" />
    <path d="M564.97266 476.875L564.96875 344.59766L697.2461 344.59766L697.2461 476.875L564.97266 476.875" stroke="none" fill="#F04646" fill-rule="nonzero" />
    <path d="M574.51953 467.32422L687.6953 467.32422L687.6953 354.15234L574.51953 354.15234L574.51953 467.32422zM697.2461 486.42188L564.96875 486.42188C 559.6953 486.42188 555.41797 482.15234 555.41797 476.8711L555.41797 476.8711L555.41797 344.60156C 555.41797 339.3203 559.6953 335.05078 564.96875 335.05078L564.96875 335.05078L697.2461 335.05078C 702.51953 335.05078 706.7969 339.3203 706.7969 344.60156L706.7969 344.60156L706.7969 476.8711C 706.7969 482.15234 702.51953 486.42188 697.2461 486.42188" stroke="none" fill="#1E334E" fill-rule="nonzero" />
    <path d="M603.1758 438.67188L603.1719 382.8047L659.04297 382.8047L659.0469 438.67188L603.1758 438.67188" stroke="none" fill="#FFFFFF" fill-rule="nonzero" />
    <path d="M95.5625 410.73828L183.73438 322.5625L271.91016 410.73438L183.73438 498.91016L95.5625 410.73828" stroke="none" fill="#F9B544" fill-rule="nonzero" />
    <path d="M109.06641 410.73828L183.73438 485.40625L258.40625 410.73828L183.73438 336.0664L109.06641 410.73828zM183.73438 508.46094C 181.29297 508.46094 178.84766 507.52734 176.98438 505.66406L176.98438 505.66406L88.80859 417.48828C 85.078125 413.7578 85.078125 407.71484 88.80859 403.98438L88.80859 403.98438L176.98438 315.8086C 180.71484 312.07812 186.75781 312.07812 190.48828 315.8086L190.48828 315.8086L278.66406 403.98438C 282.39453 407.71484 282.39453 413.7578 278.66406 417.48828L278.66406 417.48828L190.48828 505.66406C 188.625 507.52734 186.17969 508.46094 183.73438 508.46094" stroke="none" fill="#1E334E" fill-rule="nonzero" />
    <path d="M149.58594 410.73828L183.73438 376.58984L217.88281 410.73828L183.73828 444.8828L149.58594 410.73828" stroke="none" fill="#FFFFFF" fill-rule="nonzero" />
    <path d="M631.1094 566.72656L183.73438 566.72656C 178.46094 566.72656 174.1875 562.4531 174.1875 557.1758L174.1875 557.1758L174.1875 498.91016C 174.1875 493.6328 178.46094 489.35938 183.73438 489.35938C 189.01172 489.35938 193.28516 493.6328 193.28516 498.91016L193.28516 498.91016L193.28516 547.625L621.5586 547.625L621.5586 476.8711C 621.5586 471.59375 625.83594 467.32422 631.1094 467.32422C 636.3828 467.32422 640.66016 471.59375 640.66016 476.8711L640.66016 476.8711L640.66016 557.1758C 640.66016 562.4531 636.3828 566.72656 631.1094 566.72656" stroke="none" fill="#1E334E" fill-rule="nonzero" />
</g>
</svg>