<?xml version="1.0" standalone="no"?>
<!DOCTYPE svg PUBLIC "-//W3C//DTD SVG 1.0//EN" "http://www.w3.org/TR/2001/REC-SVG-20010904/DTD/svg10.dtd">
<svg xmlns="http://www.w3.org/2000/svg" xmlns:xlink="http://www.w3.org/1999/xlink" id="body_1" width="230" height="320">

<g transform="matrix(0.06 0 0 0.06 7.3242186E-06 -0)">
	<g transform="matrix(1.3333333 0 -0 -1.3333333 0 5333.3335)">
		<g transform="matrix(0.1 0 0 0.1 0 0)">
            <path d="M6250 33750C 4871.89 33750 3750 34871.9 3750 36250C 3750 37628.1 4871.89 38750 6250 38750C 7628.12 38750 8750 37628.1 8750 36250C 8750 34871.9 7628.12 33750 6250 33750M6250 40000C 4181.25 40000 2500 38318.8 2500 36250C 2500 34181.3 4181.25 32500 6250 32500C 8318.75 32500 10000 34181.3 10000 36250C 10000 38318.8 8318.75 40000 6250 40000" stroke="none" fill="#2D4356" fill-rule="nonzero" />
            <path d="M8750 36250C 8750 34871.9 7628.12 33750 6250 33750C 4871.89 33750 3750 34871.9 3750 36250C 3750 37628.1 4871.89 38750 6250 38750C 7628.12 38750 8750 37628.1 8750 36250" stroke="none" fill="#FC785E" fill-rule="nonzero" />
            <path d="M17500 4375C 16121.5 4375 15000 5496.5 15000 6875L15000 6875L15000 10580.1L23776.3 15742.8C 24916.5 16413.3 25625 17651.7 25625 18974.9L25625 18974.9L25625 20980.9C 25419.8 20955.1 25212.1 20937.5 25000 20937.5C 24787.9 20937.5 24580.2 20955.1 24375 20980.9L24375 20980.9L24375 18974.9C 24375 18092.701 23902.7 17267.1 23142.5 16820.1L23142.5 16820.1L15000 12030.2L15000 33125C 15000 35192.9 13317.7 36875 11250 36875L11250 36875L11206.6 36875C 11232.399 36669.8 11250 36462.1 11250 36250C 11250 36037.9 11232.4 35830.2 11206.6 35625L11206.6 35625L11250 35625C 12628.5 35625 13750 34503.5 13750 33125L13750 33125L13750 29732.4L4973.75 24569.7C 3833.47 23899.2 3125 22660.8 3125 21337.6L3125 21337.6L3125 19331.6C 3330.23 19357.4 3537.9 19375 3750 19375C 3962.1 19375 4169.77 19357.4 4375 19331.6L4375 19331.6L4375 21337.6C 4375 22219.799 4847.26 23045.4 5607.45 23492.4L5607.45 23492.4L13750 28282.3L13750 6875C 13750 4807.1 15432.3 3125 17500 3125L17500 3125L17855.9 3125C 17830.1 3330.2 17812.5 3537.9 17812.5 3750C 17812.5 3962.1 17830.1 4169.8 17855.9 4375L17855.9 4375L17500 4375" stroke="none" fill="#2D4356" fill-rule="nonzero" />
            <path d="M22812.5 1250C 21434.4 1250 20312.5 2371.9 20312.5 3750C 20312.5 5128.1 21434.4 6250 22812.5 6250C 24190.6 6250 25312.5 5128.1 25312.5 3750C 25312.5 2371.9 24190.6 1250 22812.5 1250M22812.5 7500C 20743.7 7500 19062.5 5818.7 19062.5 3750C 19062.5 1681.2 20743.7 0 22812.5 0C 24881.2 0 26562.5 1681.2 26562.5 3750C 26562.5 5818.7 24881.2 7500 22812.5 7500" stroke="none" fill="#2D4356" fill-rule="nonzero" />
            <path d="M25312.5 3750C 25312.5 2371.9 24190.6 1250 22812.5 1250C 21434.4 1250 20312.5 2371.9 20312.5 3750C 20312.5 5128.1 21434.4 6250 22812.5 6250C 24190.6 6250 25312.5 5128.1 25312.5 3750" stroke="none" fill="#FC785E" fill-rule="nonzero" />
            <path d="M3750 11875C 2371.8901 11875 1250 12996.9 1250 14375C 1250 15753.1 2371.8901 16875 3750 16875C 5128.12 16875 6250 15753.1 6250 14375C 6250 12996.9 5128.12 11875 3750 11875M3750 18125C 1681.25 18125 0 16443.8 0 14375C 0 12306.2 1681.25 10625 3750 10625C 5818.75 10625 7500 12306.2 7500 14375C 7500 16443.8 5818.75 18125 3750 18125" stroke="none" fill="#2D4356" fill-rule="nonzero" />
            <path d="M6250 14375C 6250 12996.9 5128.12 11875 3750 11875C 2371.8901 11875 1250 12996.9 1250 14375C 1250 15753.1 2371.8901 16875 3750 16875C 5128.12 16875 6250 15753.1 6250 14375" stroke="none" fill="#FFDB80" fill-rule="nonzero" />
            <path d="M25000 23437.5C 23621.9 23437.5 22500 24559.4 22500 25937.5C 22500 27315.6 23621.9 28437.5 25000 28437.5C 26378.1 28437.5 27500 27315.6 27500 25937.5C 27500 24559.4 26378.1 23437.5 25000 23437.5M25000 29687.5C 22931.3 29687.5 21250 28006.3 21250 25937.5C 21250 23868.8 22931.3 22187.5 25000 22187.5C 27068.8 22187.5 28750 23868.8 28750 25937.5C 28750 28006.3 27068.8 29687.5 25000 29687.5" stroke="none" fill="#2D4356" fill-rule="nonzero" />
            <path d="M27500 25937.5C 27500 24559.4 26378.1 23437.5 25000 23437.5C 23621.9 23437.5 22500 24559.4 22500 25937.5C 22500 27315.6 23621.9 28437.5 25000 28437.5C 26378.1 28437.5 27500 27315.6 27500 25937.5" stroke="none" fill="#FFDB80" fill-rule="nonzero" />
            <path d="M8731.25 35937.5C 8731.14 35938.4 8731.01 35939.4 8730.9 35940.3C 8743.181 36039.1 8749.65 36139.7 8749.98 36241.8C 8749.671 36138.402 8743.44 36037.902 8731.25 35937.5M3768.75 35937.5C 3756.58 36037.9 3750.33 36138.4 3750.01 36241.7C 3750.34 36139.598 3756.82 36039.098 3769.1 35940.3C 3768.99 35939.3 3768.87 35938.402 3768.75 35937.5M8749.99 36242.5C 8749.99 36243.6 8749.99 36244.6 8749.99 36245.6C 8749.99 36244.6 8749.99 36243.6 8749.99 36242.5M3750.0103 36242.8C 3750.0002 36243.7 3750.0002 36244.7 3750.0002 36245.6C 3750.0002 36244.6 3750.0002 36243.8 3750.0103 36242.8" stroke="none" fill="#6B717D" fill-rule="nonzero" />
            <path d="M8730.9 36559.7C 8577.86 37792.4 7523.31 38750 6250 38750C 7523.24 38750 8577.76 37792.3 8730.9 36559.7" stroke="none" fill="#6B717D" fill-rule="nonzero" />
            <path d="M8671.11 36250C 8391.44 37326.9 7412.0303 38125 6250 38125C 5087.9697 38125 4108.56 37326.9 3828.89 36250C 3802.68 36350.9 3782.5898 36454.4 3769.0999 36559.8C 3922.2498 37792.3 4976.78 38750 6250 38750C 7523.31 38750 8577.86 37792.4 8730.9 36559.7C 8717.4 36454.3 8697.33 36350.9 8671.11 36250" stroke="none" fill="#FB9683" fill-rule="nonzero" />
            <path d="M8750 36250C 8750 36251.5 8750 36252.9 8749.99 36254.4C 8750 36252.9 8750 36251.4 8750 36250" stroke="none" fill="#FB9683" fill-rule="nonzero" />
            <path d="M3750 36250C 3750 36251.4 3750 36253 3750 36254.4C 3750 36252.9 3750 36251.5 3750 36250M3750.01 36257.2C 3750.01 36257.598 3750.01 36258 3750.01 36258.3C 3750.01 36258 3750.01 36257.6 3750.01 36257.2M8749.99 36257.5C 8749.99 36257.7 8749.98 36258 8749.98 36258.3C 8749.98 36258 8749.99 36257.7 8749.99 36257.5" stroke="none" fill="#FB9683" fill-rule="nonzero" />
            <path d="M6250 33750C 4976.7803 33750 3922.25 34707.7 3769.1 35940.3C 3922.25 34707.7 4976.78 33750 6250 33750C 7523.23 33750 8577.75 34707.7 8730.9 35940.3C 8577.76 34707.7 7523.24 33750 6250 33750" stroke="none" fill="#69474A" fill-rule="nonzero" />
            <path d="M6250 33750C 4976.7803 33750 3922.25 34707.7 3769.1 35940.3C 3782.59 36045.6 3802.6802 36149.1 3828.8901 36250C 4108.56 35173.1 5087.97 34375 6250 34375C 7412.0303 34375 8391.439 35173.1 8671.11 36250C 8697.33 36149.1 8717.4 36045.7 8730.9 35940.3C 8577.75 34707.7 7523.23 33750 6250 33750" stroke="none" fill="#D0614E" fill-rule="nonzero" />
            <path d="M3750.01 36241.7C 3750.01 36242 3750.01 36242.5 3750.01 36242.8C 3750.01 36242.402 3750.01 36242 3750.01 36241.7" stroke="none" fill="#D0614E" fill-rule="nonzero" />
            <path d="M8749.98 36241.8C 8749.98 36242 8749.99 36242.3 8749.99 36242.5C 8749.99 36242.3 8749.98 36242 8749.98 36241.8" stroke="none" fill="#D0614E" fill-rule="nonzero" />
            <path d="M3750 36245.6C 3750 36247 3750 36248.6 3750 36250C 3750 36248.5 3750 36247.1 3750 36245.6" stroke="none" fill="#D0614E" fill-rule="nonzero" />
            <path d="M8749.99 36245.6C 8750 36247.1 8750 36248.6 8750 36250C 8750 36248.6 8750 36247.1 8749.99 36245.6" stroke="none" fill="#D0614E" fill-rule="nonzero" />
            <path d="M8749.99 36254.4C 8749.99 36255.4 8749.99 36256.4 8749.99 36257.5C 8749.99 36256.4 8749.99 36255.4 8749.99 36254.4" stroke="none" fill="#69474A" fill-rule="nonzero" />
            <path d="M3750 36254.4C 3750 36255.297 3750 36256.297 3750.01 36257.2C 3750 36256.2 3750 36255.4 3750 36254.4" stroke="none" fill="#69474A" fill-rule="nonzero" />
            <path d="M8749.98 36258.3C 8749.9 36283.7 8749.431 36309.2 8748.591 36334.5C 8746.051 36410.5 8740.11 36485.5 8730.9 36559.7C 8731.011 36560.598 8731.141 36561.598 8731.25 36562.5C 8743.44 36462.1 8749.67 36361.6 8749.98 36258.3" stroke="none" fill="#69474A" fill-rule="nonzero" />
            <path d="M3750.01 36258.3C 3750.33 36361.7 3756.58 36462.1 3768.75 36562.5C 3768.87 36561.6 3768.99 36560.7 3769.1 36559.8C 3756.82 36460.902 3750.34 36360.402 3750.01 36258.3" stroke="none" fill="#69474A" fill-rule="nonzero" />
            <path d="M3769.1 35940.3C 3756.82 36039.1 3750.34 36139.6 3750.01 36241.7C 3750.01 36242 3750.01 36242.4 3750.01 36242.8C 3750 36243.8 3750 36244.6 3750 36245.6C 3750 36247.1 3750 36248.5 3750 36250C 3750 36251.5 3750 36252.9 3750 36254.4C 3750 36255.4 3750 36256.2 3750.01 36257.2C 3750.01 36257.598 3750.01 36258 3750.01 36258.3C 3750.34 36360.402 3756.82 36460.902 3769.1 36559.8C 3782.59 36454.402 3802.6802 36350.902 3828.8901 36250C 3802.6802 36149.1 3782.59 36045.6 3769.1 35940.3" stroke="none" fill="#D07061" fill-rule="nonzero" />
            <path d="M8730.9 35940.3C 8743.181 36039.1 8749.65 36139.7 8749.98 36241.8C 8749.65 36139.7 8743.181 36039.1 8730.9 35940.3M8748.591 36334.5C 8746.051 36410.4 8740.101 36485.6 8730.9 36559.7C 8740.11 36485.5 8746.051 36410.5 8748.591 36334.5" stroke="none" fill="#885E5E" fill-rule="nonzero" />
            <path d="M8730.9 35940.3C 8717.4 36045.7 8697.33 36149.1 8671.11 36250C 8697.33 36350.9 8717.4 36454.3 8730.9 36559.7C 8740.101 36485.598 8746.051 36410.4 8748.591 36334.5C 8749.431 36309.2 8749.9 36283.7 8749.98 36258.3C 8749.98 36258 8749.99 36257.7 8749.99 36257.5C 8749.99 36256.4 8749.99 36255.4 8749.99 36254.4C 8750 36252.9 8750 36251.5 8750 36250C 8750 36248.6 8750 36247.1 8749.99 36245.6C 8749.99 36244.6 8749.99 36243.6 8749.99 36242.5C 8749.99 36242.3 8749.98 36242 8749.98 36241.8C 8749.65 36139.7 8743.181 36039.1 8730.9 35940.3" stroke="none" fill="#D07061" fill-rule="nonzero" />
            <path d="M25293.7 3437.5C 25293.6 3438.4 25293.5 3439.3 25293.398 3440.2C 25305.7 3539.0999 25312.2 3639.7 25312.498 3741.7C 25312.197 3638.4 25305.898 3538 25293.697 3437.5M20331.197 3437.5C 20319.098 3537.9 20312.797 3638.4 20312.498 3741.7C 20312.799 3639.5999 20319.299 3539.0999 20331.598 3440.3C 20331.498 3439.4001 20331.398 3438.4001 20331.197 3437.5M25312.496 3742.6C 25312.496 3743.6 25312.496 3744.6 25312.496 3745.7002C 25312.496 3744.6 25312.496 3743.6 25312.496 3742.6M20312.496 3742.8C 20312.496 3743.7 20312.496 3744.7 20312.496 3745.6C 20312.496 3744.6 20312.496 3743.8 20312.496 3742.8M25293.396 4059.8C 25140.2 5292.3 24085.7 6250 22812.5 6250C 24085.7 6250 25140.3 5292.3 25293.4 4059.8" stroke="none" fill="#6B717D" fill-rule="nonzero" />
            <path d="M25233.6 3750C 24953.9 4826.9 23974.5 5625 22812.5 5625C 21650.5 5625 20671.1 4826.9 20391.4 3750C 20365.201 3850.9 20345.1 3954.3 20331.6 4059.7C 20484.7 5292.3 21539.299 6250 22812.5 6250C 24085.7 6250 25140.2 5292.3 25293.4 4059.8C 25279.9 3954.4001 25259.8 3850.9001 25233.6 3750M25312.5 3750C 25312.5 3751.5 25312.5 3752.9 25312.5 3754.4C 25312.5 3752.9 25312.5 3751.4 25312.5 3750L25312.5 3750L20312.5 3750C 20312.5 3751.4 20312.5 3753 20312.5 3754.4C 20312.5 3752.9 20312.5 3751.5 20312.5 3750M20312.5 3757.2C 20312.5 3757.5 20312.5 3758 20312.5 3758.3C 20312.5 3758 20312.5 3757.6 20312.5 3757.2M25312.5 3757.4C 25312.5 3757.7 25312.5 3758 25312.5 3758.2998C 25312.5 3757.9 25312.5 3757.7998 25312.5 3757.4" stroke="none" fill="#FB9683" fill-rule="nonzero" />
            <path d="M22812.5 1250C 21539.3 1250 20484.7 2207.7 20331.6 3440.3C 20484.7 2207.7 21539.3 1250 22812.5 1250C 24085.7 1250 25140.2 2207.7 25293.4 3440.2C 25140.3 2207.7 24085.7 1250 22812.5 1250M25312.5 3754.4C 25312.5 3755.4 25312.5 3756.4 25312.5 3757.4C 25312.5 3756.4 25312.5 3755.4 25312.5 3754.4M20312.5 3754.4C 20312.5 3755.2998 20312.5 3756.2998 20312.5 3757.2C 20312.5 3756.2 20312.5 3755.4 20312.5 3754.4M25312.5 3758.2998C 25312.5 3767.5999 25312.4 3776.9998 25312.2 3786.2998C 25310.898 3878.7998 25304.6 3969.9 25293.398 4059.7998C 25293.498 4060.6997 25293.598 4061.5999 25293.7 4062.4998C 25305.898 3962.0999 25312.2 3861.5999 25312.5 3758.2998M20312.5 3758.2998C 20312.8 3861.6997 20319.1 3962.0999 20331.2 4062.4998C 20331.398 4061.5999 20331.5 4060.5999 20331.6 4059.6997C 20319.299 3960.8997 20312.799 3860.3997 20312.5 3758.2998" stroke="none" fill="#69474A" fill-rule="nonzero" />
            <path d="M22812.5 1250C 21539.3 1250 20484.7 2207.7 20331.6 3440.3C 20345.1 3545.7 20365.2 3649.1 20391.4 3750C 20671.1 2673.1 21650.5 1875 22812.5 1875C 23974.5 1875 24953.9 2673.1 25233.6 3750C 25259.799 3649.1 25279.9 3545.6 25293.4 3440.2C 25140.2 2207.7 24085.7 1250 22812.5 1250M20312.5 3741.7C 20312.5 3742 20312.5 3742.5 20312.5 3742.8C 20312.5 3742.4001 20312.5 3742 20312.5 3741.7M25312.5 3741.7C 25312.5 3742 25312.5 3742.3 25312.5 3742.5999C 25312.5 3742.2998 25312.5 3742.0999 25312.5 3741.7M20312.5 3745.5999C 20312.5 3746.9998 20312.5 3748.5999 20312.5 3749.9998C 20312.5 3748.4998 20312.5 3747.0999 20312.5 3745.5999M25312.5 3745.7C 25312.5 3747.0999 25312.5 3748.5999 25312.5 3750C 25312.5 3748.6 25312.5 3747.1 25312.5 3745.7" stroke="none" fill="#D0614E" fill-rule="nonzero" />
            <path d="M25293.4 3440.2C 25305.701 3539.0999 25312.201 3639.7 25312.5 3741.7C 25312.2 3639.7 25305.7 3539.0999 25293.4 3440.2M25312.201 3786.3C 25310.9 3878.8 25304.602 3969.9001 25293.4 4059.8C 25304.6 3969.9001 25310.9 3878.8 25312.201 3786.3" stroke="none" fill="#885E5E" fill-rule="nonzero" />
            <path d="M25293.4 3440.2C 25279.9 3545.5999 25259.8 3649.0999 25233.6 3750C 25259.799 3850.9 25279.9 3954.4 25293.4 4059.8C 25304.6 3969.9001 25310.9 3878.8 25312.201 3786.3C 25312.4 3777 25312.502 3767.6 25312.502 3758.3C 25312.502 3758 25312.502 3757.7 25312.502 3757.4001C 25312.502 3756.4001 25312.502 3755.4001 25312.502 3754.4001C 25312.502 3752.9001 25312.502 3751.5002 25312.502 3750.0002C 25312.502 3748.6003 25312.502 3747.1003 25312.502 3745.7002C 25312.502 3744.6 25312.502 3743.6 25312.502 3742.6C 25312.502 3742.3 25312.502 3742 25312.502 3741.7002C 25312.201 3639.7002 25305.701 3539.1 25293.402 3440.2002M20331.602 3440.3003C 20319.3 3539.1003 20312.8 3639.6003 20312.502 3741.7002C 20312.502 3742.0002 20312.502 3742.4001 20312.502 3742.8003C 20312.502 3743.8003 20312.502 3744.6003 20312.502 3745.6003C 20312.502 3747.1003 20312.502 3748.5002 20312.502 3750.0002C 20312.502 3751.5002 20312.502 3752.9001 20312.502 3754.4001C 20312.502 3755.4001 20312.502 3756.2002 20312.502 3757.2002C 20312.502 3757.6 20312.502 3758.0002 20312.502 3758.3003C 20312.803 3860.4004 20319.303 3960.9004 20331.602 4059.7002C 20345.102 3954.3003 20365.201 3850.9001 20391.402 3750.0002C 20365.203 3649.1003 20345.102 3545.7002 20331.602 3440.3003" stroke="none" fill="#D07061" fill-rule="nonzero" />
            <path d="M6231.25 14062.5C 6231.14 14063.4 6231.01 14064.4 6230.9 14065.3C 6243.1797 14164.1 6249.65 14264.7 6249.98 14366.8C 6249.67 14263.399 6243.44 14163 6231.25 14062.5M1268.75 14062.5C 1256.58 14162.9 1250.33 14263.4 1250.01 14366.7C 1250.34 14264.601 1256.8201 14164.101 1269.1 14065.2C 1268.99 14064.3 1268.87 14063.4 1268.75 14062.5M6249.99 14367.5C 6249.99 14368.6 6249.99 14369.6 6249.99 14370.7C 6249.99 14369.601 6249.99 14368.601 6249.99 14367.5M1250.0103 14367.8C 1250.0002 14368.7 1250.0002 14369.7 1250.0002 14370.6C 1250.0002 14369.6 1250.0002 14368.8 1250.0103 14367.8" stroke="none" fill="#939894" fill-rule="nonzero" />
            <path d="M6230.9 14684.7C 6077.86 15917.4 5023.31 16875 3750 16875C 5023.24 16875 6077.76 15917.3 6230.9 14684.7" stroke="none" fill="#939894" fill-rule="nonzero" />
            <path d="M6171.11 14375C 5891.44 15451.9 4912.03 16250 3749.9998 16250C 2587.9697 16250 1608.5598 15451.9 1328.8896 14375C 1302.6797 14475.9 1282.5896 14579.4 1269.0996 14684.8C 1422.2496 15917.3 2476.7798 16875 3749.9995 16875C 5023.3096 16875 6077.8594 15917.4 6230.8994 14684.7C 6217.3994 14579.3 6197.3296 14475.9 6171.1094 14375" stroke="none" fill="#FCE4A9" fill-rule="nonzero" />
            <path d="M6250 14375C 6250 14376.5 6250 14377.9 6249.99 14379.4C 6250 14377.9 6250 14376.4 6250 14375" stroke="none" fill="#FCE4A9" fill-rule="nonzero" />
            <path d="M1250 14375C 1250 14376.4 1250 14378 1250 14379.4C 1250 14377.9 1250 14376.5 1250 14375M1250.01 14382.2C 1250.01 14382.5 1250.01 14383 1250.01 14383.3C 1250.01 14383 1250.01 14382.6 1250.01 14382.2M6249.99 14382.5C 6249.9805 14382.7 6249.9805 14383 6249.9805 14383.3C 6249.9805 14383 6249.9805 14382.7 6249.99 14382.5" stroke="none" fill="#FCE4A9" fill-rule="nonzero" />
            <path d="M3750 11875C 2476.78 11875 1422.25 12832.7 1269.1001 14065.2C 1422.25 12832.7 2476.78 11875 3750 11875C 5023.23 11875 6077.75 12832.7 6230.9 14065.3C 6077.75 12832.7 5023.24 11875 3750 11875" stroke="none" fill="#676757" fill-rule="nonzero" />
            <path d="M3750 11875C 2476.78 11875 1422.25 12832.7 1269.1001 14065.2C 1282.5901 14170.601 1302.68 14274.101 1328.8901 14375C 1608.5602 13298.1 2587.9702 12500 3750.0002 12500C 4912.0303 12500 5891.4404 13298.1 6171.1104 14375C 6197.3306 14274.1 6217.4004 14170.7 6230.9004 14065.3C 6077.75 12832.7 5023.23 11875 3750 11875" stroke="none" fill="#DABB6E" fill-rule="nonzero" />
            <path d="M1250.01 14366.7C 1250.01 14367 1250.01 14367.5 1250.01 14367.8C 1250.01 14367.399 1250.01 14367 1250.01 14366.7" stroke="none" fill="#DABB6E" fill-rule="nonzero" />
            <path d="M6249.98 14366.8C 6249.98 14367 6249.98 14367.3 6249.9897 14367.5C 6249.98 14367.3 6249.98 14367 6249.98 14366.8" stroke="none" fill="#DABB6E" fill-rule="nonzero" />
            <path d="M1250 14370.6C 1250 14372 1250 14373.6 1250 14375C 1250 14373.5 1250 14372.1 1250 14370.6" stroke="none" fill="#DABB6E" fill-rule="nonzero" />
            <path d="M6249.99 14370.7C 6250 14372.101 6250 14373.601 6250 14375C 6250 14373.6 6250 14372.1 6249.99 14370.7" stroke="none" fill="#DABB6E" fill-rule="nonzero" />
            <path d="M6249.99 14379.4C 6249.99 14380.5 6249.99 14381.4 6249.99 14382.5C 6249.99 14381.4 6249.99 14380.4 6249.99 14379.4" stroke="none" fill="#676757" fill-rule="nonzero" />
            <path d="M1250 14379.4C 1250 14380.301 1250 14381.301 1250.01 14382.2C 1250 14381.2 1250 14380.4 1250 14379.4" stroke="none" fill="#676757" fill-rule="nonzero" />
            <path d="M6249.98 14383.3C 6249.9 14408.7 6249.43 14434.2 6248.59 14459.5C 6246.05 14535.5 6240.11 14610.5 6230.9 14684.7C 6231.01 14685.601 6231.14 14686.601 6231.25 14687.5C 6243.44 14587.1 6249.67 14486.6 6249.98 14383.3" stroke="none" fill="#676757" fill-rule="nonzero" />
            <path d="M1250.01 14383.3C 1250.33 14486.7 1256.58 14587.1 1268.75 14687.5C 1268.87 14686.6 1268.99 14685.7 1269.1 14684.8C 1256.82 14585.899 1250.34 14485.399 1250.01 14383.3" stroke="none" fill="#676757" fill-rule="nonzero" />
            <path d="M1269.1 14065.2C 1256.82 14164.101 1250.34 14264.601 1250.01 14366.7C 1250.01 14367 1250.01 14367.4 1250.01 14367.8C 1250 14368.8 1250 14369.6 1250 14370.6C 1250 14372.1 1250 14373.5 1250 14375C 1250 14376.5 1250 14377.9 1250 14379.4C 1250 14380.4 1250 14381.2 1250.01 14382.2C 1250.01 14382.601 1250.01 14383 1250.01 14383.3C 1250.34 14485.399 1256.8201 14585.899 1269.1 14684.8C 1282.59 14579.399 1302.6799 14475.899 1328.89 14375C 1302.68 14274.1 1282.59 14170.6 1269.1 14065.2" stroke="none" fill="#D8BF85" fill-rule="nonzero" />
            <path d="M6230.9 14065.3C 6243.1797 14164.1 6249.65 14264.7 6249.98 14366.8C 6249.65 14264.7 6243.18 14164.1 6230.9 14065.3M6248.59 14459.5C 6246.05 14535.4 6240.0996 14610.6 6230.9 14684.7C 6240.11 14610.5 6246.05 14535.5 6248.59 14459.5" stroke="none" fill="#9F9679" fill-rule="nonzero" />
            <path d="M6230.9 14065.3C 6217.4 14170.7 6197.33 14274.1 6171.11 14375C 6197.33 14475.9 6217.4 14579.3 6230.9 14684.7C 6240.1 14610.601 6246.05 14535.4 6248.59 14459.5C 6249.4297 14434.2 6249.9 14408.7 6249.98 14383.3C 6249.98 14383 6249.98 14382.7 6249.9897 14382.5C 6249.9897 14381.4 6249.9897 14380.5 6249.9897 14379.4C 6249.9995 14377.9 6249.9995 14376.5 6249.9995 14375C 6249.9995 14373.6 6249.9995 14372.1 6249.9897 14370.7C 6249.9897 14369.601 6249.9897 14368.601 6249.9897 14367.5C 6249.98 14367.3 6249.98 14367 6249.98 14366.8C 6249.65 14264.7 6243.18 14164.1 6230.9 14065.3" stroke="none" fill="#D8BF85" fill-rule="nonzero" />
            <path d="M27481.3 25625C 27481.102 25625.9 27481 25626.9 27480.9 25627.8C 27493.201 25726.602 27499.6 25827.201 27500 25929.201C 27499.7 25825.9 27493.4 25725.502 27481.3 25625.002M22518.8 25625.002C 22506.602 25725.402 22500.3 25825.902 22500 25929.201C 22500.3 25827.102 22506.8 25726.602 22519.1 25627.701C 22519 25626.8 22518.9 25625.9 22518.799 25625.002M27500 25930.102C 27500 25931.102 27500 25932.102 27500 25933.102C 27500 25932.102 27500 25931.102 27500 25930.102M22500 25930.3C 22500 25931.201 22500 25932.201 22500 25933.102C 22500 25932.102 22500 25931.3 22500 25930.3" stroke="none" fill="#939894" fill-rule="nonzero" />
            <path d="M27500 25937.5C 27500 25939 27500 25940.4 27500 25941.9C 27500 25940.4 27500 25938.9 27500 25937.5" stroke="none" fill="#FCE4A9" fill-rule="nonzero" />
            <path d="M22500 25937.5C 22500 25938.9 22500 25940.5 22500 25941.9C 22500 25940.4 22500 25939 22500 25937.5" stroke="none" fill="#FCE4A9" fill-rule="nonzero" />
            <path d="M27480.9 26247.2C 27327.8 27479.799 26273.201 28437.5 25000 28437.5C 26273.2 28437.5 27327.8 27479.8 27480.9 26247.2" stroke="none" fill="#939894" fill-rule="nonzero" />
            <path d="M27421.1 25937.5C 27141.4 27014.4 26162 27812.5 25000 27812.5C 23838 27812.5 22858.6 27014.4 22578.9 25937.5C 22552.701 26038.4 22532.6 26141.9 22519.1 26247.3C 22672.2 27479.8 23726.799 28437.5 25000 28437.5C 26273.2 28437.5 27327.8 27479.8 27480.9 26247.2C 27467.4 26141.799 27447.3 26038.398 27421.1 25937.5M22500 25944.7C 22500 25945 22500 25945.5 22500 25945.799C 22500 25945.498 22500 25945.1 22500 25944.7M27500 25944.898C 27500 25945.2 27500 25945.498 27500 25945.799C 27500 25945.398 27500 25945.299 27500 25944.898" stroke="none" fill="#FCE4A9" fill-rule="nonzero" />
            <path d="M25000 23437.5C 23726.8 23437.5 22672.2 24395.2 22519.1 25627.7C 22672.2 24395.2 23726.799 23437.5 25000 23437.5C 26273.2 23437.5 27327.8 24395.2 27480.9 25627.8C 27327.8 24395.2 26273.2 23437.5 25000 23437.5" stroke="none" fill="#676757" fill-rule="nonzero" />
            <path d="M25000 23437.5C 23726.8 23437.5 22672.2 24395.2 22519.1 25627.7C 22532.6 25733.1 22552.7 25836.6 22578.9 25937.5C 22858.6 24860.6 23838 24062.5 25000 24062.5C 26162 24062.5 27141.4 24860.6 27421.1 25937.5C 27447.299 25836.6 27467.4 25733.2 27480.9 25627.8C 27327.8 24395.201 26273.201 23437.5 25000 23437.5" stroke="none" fill="#DABB6E" fill-rule="nonzero" />
            <path d="M22500 25929.2C 22500 25929.5 22500 25930 22500 25930.299C 22500 25929.898 22500 25929.498 22500 25929.2" stroke="none" fill="#DABB6E" fill-rule="nonzero" />
            <path d="M27500 25929.2C 27500 25929.5 27500 25929.799 27500 25930.1C 27500 25929.799 27500 25929.6 27500 25929.2" stroke="none" fill="#DABB6E" fill-rule="nonzero" />
            <path d="M22500 25933.1C 22500 25934.5 22500 25936.1 22500 25937.5C 22500 25936 22500 25934.6 22500 25933.1" stroke="none" fill="#DABB6E" fill-rule="nonzero" />
            <path d="M27500 25933.1C 27500 25934.6 27500 25936 27500 25937.5C 27500 25936.1 27500 25934.6 27500 25933.1" stroke="none" fill="#DABB6E" fill-rule="nonzero" />
            <path d="M27500 25941.9C 27500 25942.9 27500 25943.9 27500 25944.9C 27500 25943.9 27500 25942.9 27500 25941.9" stroke="none" fill="#676757" fill-rule="nonzero" />
            <path d="M22500 25941.9C 22500 25942.8 22500 25943.8 22500 25944.701C 22500 25943.701 22500 25942.9 22500 25941.9" stroke="none" fill="#676757" fill-rule="nonzero" />
            <path d="M27500 25945.8C 27499.9 25971.201 27499.4 25996.701 27498.6 26022C 27496.1 26098 27490.1 26173 27480.9 26247.2C 27481 26248.1 27481.1 26249.1 27481.3 26250C 27493.4 26149.6 27499.701 26049.1 27500 25945.8" stroke="none" fill="#676757" fill-rule="nonzero" />
            <path d="M22500 25945.8C 22500.3 26049.201 22506.6 26149.602 22518.8 26250C 22518.9 26249.1 22519 26248.2 22519.102 26247.3C 22506.8 26148.4 22500.3 26047.9 22500.002 25945.8" stroke="none" fill="#676757" fill-rule="nonzero" />
            <path d="M22519.1 25627.7C 22506.799 25726.6 22500.299 25827.1 22500 25929.2C 22500 25929.5 22500 25929.898 22500 25930.299C 22500 25931.299 22500 25932.1 22500 25933.1C 22500 25934.6 22500 25936 22500 25937.5C 22500 25939 22500 25940.4 22500 25941.9C 22500 25942.9 22500 25943.701 22500 25944.701C 22500 25945.102 22500 25945.502 22500 25945.8C 22500.3 26047.9 22506.8 26148.4 22519.1 26247.3C 22532.6 26141.9 22552.7 26038.4 22578.9 25937.5C 22552.701 25836.6 22532.6 25733.1 22519.1 25627.7" stroke="none" fill="#D8BF85" fill-rule="nonzero" />
            <path d="M27480.9 25627.8C 27493.201 25726.602 27499.6 25827.201 27500 25929.201C 27499.6 25827.201 27493.2 25726.602 27480.9 25627.8M27498.6 26022C 27496.1 26098 27490.1 26173 27480.9 26247.2C 27490.1 26173 27496.1 26098 27498.6 26022" stroke="none" fill="#9F9679" fill-rule="nonzero" />
            <path d="M27480.9 25627.8C 27467.4 25733.201 27447.3 25836.602 27421.1 25937.5C 27447.299 26038.4 27467.4 26141.8 27480.9 26247.2C 27490.1 26173 27496.1 26098 27498.6 26022C 27499.4 25996.7 27499.9 25971.2 27500 25945.8C 27500 25945.5 27500 25945.201 27500 25944.9C 27500 25943.9 27500 25942.9 27500 25941.9C 27500 25940.4 27500 25939 27500 25937.5C 27500 25936 27500 25934.6 27500 25933.1C 27500 25932.1 27500 25931.1 27500 25930.1C 27500 25929.799 27500 25929.5 27500 25929.2C 27499.6 25827.2 27493.2 25726.6 27480.9 25627.799" stroke="none" fill="#D8BF85" fill-rule="nonzero" />
		</g>
	</g>
</g>
</svg>