<?xml version="1.0" encoding="UTF-8" standalone="no"?>
<!-- Created with Inkscape (http://www.inkscape.org/) -->

<svg
   version="1.1"
   id="svg2"
   width="3200"
   height="3109.3333"
   viewBox="0 0 3200 3109.3333"
   sodipodi:docname="vecteezy_diagram-vector-icon_36922709.eps"
   xmlns:inkscape="http://www.inkscape.org/namespaces/inkscape"
   xmlns:sodipodi="http://sodipodi.sourceforge.net/DTD/sodipodi-0.dtd"
   xmlns="http://www.w3.org/2000/svg"
   xmlns:svg="http://www.w3.org/2000/svg">
  <defs
     id="defs6" />
  <sodipodi:namedview
     id="namedview4"
     pagecolor="#ffffff"
     bordercolor="#000000"
     borderopacity="0.25"
     inkscape:showpageshadow="2"
     inkscape:pageopacity="0.0"
     inkscape:pagecheckerboard="0"
     inkscape:deskcolor="#d1d1d1" />
  <g
     id="g8"
     inkscape:groupmode="layer"
     inkscape:label="ink_ext_XXXXXX"
     transform="matrix(1.3333333,0,0,-1.3333333,0,3109.3333)">
    <g
       id="g10"
       transform="scale(0.1)">
      <path
         d="m 7029.61,15404.7 c -112.5,0 -210.9,56.2 -253.09,168.7 l -618.59,1532.5 H 4344.3 l -632.66,-1546.6 c -56.25,-140.5 -210.9,-210.9 -365.55,-154.6 -140.58,56.2 -224.96,210.9 -154.64,365.5 l 1785.5,4414.6 c 42.19,98.4 140.59,182.8 253.05,182.8 126.56,0 224.96,-84.4 267.15,-182.8 l 1785.51,-4414.6 c 70.31,-140.6 -14.07,-309.3 -154.65,-365.5 -14.06,0 -56.25,0 -98.4,0 z M 23717.9,9949.73 H 22382.2 V 5577.3 c 0,-14.06 0,-14.06 0,-28.12 -14,-140.59 -56.2,-295.23 -154.6,-407.7 -28.1,-56.25 -84.4,-112.5 -168.7,-168.71 L 18459.7,2329.65 c -112.5,-98.44 -267.1,-140.59 -407.7,-140.59 -14.1,0 -14.1,0 -42.2,0 h -7367 C 10642.8,979.961 9658.67,9.88281 8435.51,9.88281 H 2193.24 C 970.078,9.88281 0,979.961 0,2189.06 v 6495.31 c 0,1209.11 970.078,2179.23 2193.24,2179.23 h 6242.27 c 1096.6,0 2010.49,-815.5 2179.19,-1869.89 h 7395.1 c 182.8,0 351.5,-56.25 492.1,-182.77 l 3332,-2432.27 v 3571.06 h -1363.7 c -154.7,0 -267.1,112.47 -267.1,281.17 V 13352 c 0,154.7 112.4,267.2 267.1,267.2 H 21848 l -14.1,3627.2 -3346.1,-2474.4 c -126.5,-98.4 -281.2,-126.5 -421.7,-126.5 -14.1,0 -14.1,0 -28.2,0 h -7395.1 c 0,-1223.2 -984.13,-2193.2 -2207.29,-2193.2 H 2193.24 C 970.078,12452.3 0,13422.3 0,14645.5 v 6481.3 C 0,22335.9 970.078,23320 2193.24,23320 h 6242.27 c 1096.6,0 2010.49,-829.5 2179.19,-1883.9 h 7395.1 c 182.8,0 351.5,-56.3 492.1,-168.8 l 3571,-2629 c 154.7,-112.5 281.2,-281.2 295.3,-478 14,-84.4 14,-168.7 0,-239 l 28.1,-4302.1 h 1321.6 c 154.6,0 281.1,-112.5 281.1,-267.2 v -3121.1 c 14.1,-168.7 -126.5,-281.17 -281.1,-281.17 z m -2952.5,562.37 h 2685.27 v 2558.79 H 20765.4 Z M 2193.24,10301.2 c -899.8,0 -1630.861,-717.02 -1630.861,-1616.83 V 2189.06 c 0,-899.8 731.061,-1616.83 1630.861,-1616.83 h 6242.27 c 899.8,0 1630.89,717.03 1630.89,1616.83 v 281.17 c 0,154.65 112.5,267.11 267.1,267.11 h 843.6 l 3669.4,2699.38 c 28.1,14.06 42.2,42.19 56.2,42.19 56.3,70.27 42.2,210.86 -28.1,267.11 l -3683.5,2685.31 h -829.5 c -168.7,0 -281.2,112.46 -281.2,267.11 -14,885.74 -745.09,1602.76 -1616.77,1602.76 z M 12105,2737.34 h 5876.7 c 28.1,0 70.3,0 126.5,42.19 l 3599.2,2643.13 c 112.4,98.39 168.7,168.71 14,309.29 l -3557,2643.13 c -28.1,28.12 -70.2,56.25 -126.5,56.25 H 12133.1 L 15155.8,6195.9 c 337.4,-253.05 421.8,-716.99 168.7,-1054.42 -70.3,-56.25 -126.5,-112.5 -182.7,-168.71 z m 7662.2,2586.92 h -2755.6 c -154.7,0 -267.1,112.46 -267.1,267.11 0,154.65 112.4,281.17 267.1,281.17 h 2755.6 c 154.7,0 281.2,-126.52 281.2,-281.17 0,-154.65 -126.5,-267.11 -281.2,-267.11 z M 5862.7,3074.77 H 3697.58 c -154.65,0 -281.21,112.5 -281.21,267.14 v 4161.53 c 0,154.65 126.56,281.17 281.21,281.17 h 1968.28 c 702.97,0 1265.31,-562.38 1265.31,-1279.38 0,-337.42 -140.58,-660.78 -379.61,-885.74 407.74,-239.02 674.85,-674.84 674.85,-1180.97 0,-759.18 -604.53,-1363.75 -1363.71,-1363.75 z m -1898.01,2727.5 h 1701.17 c 393.63,0 702.97,323.35 702.97,702.96 0,393.64 -309.34,731.06 -702.97,731.06 H 3964.69 Z m 0,-2165.12 H 5862.7 c 449.88,0 801.36,379.61 801.36,801.37 0,435.82 -379.61,801.36 -801.36,801.36 H 3964.69 Z M 2193.24,22743.6 c -899.8,0 -1630.861,-717 -1630.861,-1616.8 v -6481.3 c 0,-899.8 731.061,-1630.9 1630.861,-1630.9 h 6242.27 c 899.8,0 1630.89,731.1 1630.89,1630.9 v 267.1 c 0,154.7 112.5,281.2 267.1,281.2 h 843.6 l 3669.4,2671.2 c 84.4,84.4 154.6,210.9 28.1,309.3 l -3683.5,2699.4 h -829.5 c -168.7,0 -281.2,112.5 -281.2,267.1 -14,885.8 -745.09,1602.8 -1616.77,1602.8 z m 9939.86,-7549.8 h 5848.6 c 28.1,0 70.3,0 126.5,28.1 4878.6,3585.1 4681.7,2165.1 56.2,5595.6 -28.1,42.2 -70.2,56.2 -126.5,56.2 h -5904.8 l 3022.7,-2235.4 c 337.4,-253.1 421.8,-717 168.7,-1054.4 -70.3,-56.3 -126.5,-112.5 -182.7,-168.7 z m 7634.1,2558.8 h -2755.6 c -154.7,0 -267.1,112.4 -267.1,267.1 0,154.6 112.4,267.1 267.1,267.1 h 2755.6 c 154.7,0 281.2,-112.5 281.2,-267.1 0,-154.7 -126.5,-267.1 -281.2,-267.1 z m -13820.17,-98.5 -688.9,1701.2 -688.91,-1701.2 z"
         style="fill:#000000;fill-opacity:1;fill-rule:evenodd;stroke:none"
         id="path12" />
      <path
         d="m 10080.4,8698.44 c -14,885.74 -745.09,1602.76 -1616.77,1602.76 H 2193.24 c -899.8,0 -1630.861,-717.02 -1630.861,-1616.83 V 2189.06 c 0,-899.8 731.061,-1616.83 1630.861,-1616.83 h 6242.27 c 899.8,0 1630.89,717.03 1630.89,1616.83 0,210.86 -56.2,548.28 267.1,548.28 h 843.6 l 3725.6,2741.57 c 56.3,70.27 42.2,210.86 -28.1,267.11 l -3683.5,2685.31 h -829.5 c -168.7,0 -281.2,112.46 -281.2,267.11 z M 7226.41,4438.52 c 0,-759.18 -604.53,-1363.75 -1363.71,-1363.75 H 3697.58 c -154.65,0 -281.21,112.5 -281.21,267.14 v 4161.53 c 0,154.65 126.56,281.17 281.21,281.17 h 1968.28 c 1138.79,0 1701.17,-1377.81 885.7,-2165.12 407.74,-239.02 674.85,-674.84 674.85,-1180.97 z"
         style="fill:#a7a7a7;fill-opacity:1;fill-rule:evenodd;stroke:none"
         id="path14" />
      <path
         d="M 18037.9,8431.33 H 12133.1 L 15155.8,6195.9 c 337.4,-253.05 421.8,-716.99 168.7,-1054.42 L 15141.8,4972.77 12105,2737.34 h 5876.7 c 28.1,0 70.3,0 126.5,42.19 l 3599.2,2643.13 c 112.4,98.39 168.7,168.71 14,309.29 l -3557,2643.13 c -28.1,28.12 -70.2,56.25 -126.5,56.25 z M 17011.6,5324.26 c -351.5,0 -351.5,548.28 0,548.28 h 2755.6 c 365.5,0 365.5,-548.28 0,-548.28 z"
         style="fill:#878787;fill-opacity:1;fill-rule:evenodd;stroke:none"
         id="path16" />
      <path
         d="m 5862.7,3637.15 c 449.88,0 801.36,379.61 801.36,801.37 0,435.82 -379.61,801.36 -801.36,801.36 H 3964.69 V 3637.15 Z"
         style="fill:#a7a7a7;fill-opacity:1;fill-rule:evenodd;stroke:none"
         id="path18" />
      <path
         d="m 5665.86,5802.27 c 393.63,0 702.97,323.35 702.97,702.96 0,393.64 -309.34,731.06 -702.97,731.06 H 3964.69 V 5802.27 Z"
         style="fill:#a7a7a7;fill-opacity:1;fill-rule:evenodd;stroke:none"
         id="path20" />
      <path
         d="M 5258.13,19355.3 4569.22,17654.1 H 5947.03 Z"
         style="fill:#d6d6d7;fill-opacity:1;fill-rule:evenodd;stroke:none"
         id="path22" />
      <path
         d="m 5497.15,20184.8 1785.51,-4414.6 c 70.31,-140.6 -14.07,-309.3 -154.65,-365.5 h -98.4 c -112.5,0 -210.9,56.2 -253.09,168.7 l -618.59,1532.5 H 4344.3 l -632.66,-1546.6 c -140.62,-351.4 -660.78,-140.5 -520.19,210.9 l 1785.5,4414.6 c 98.4,239 421.76,239 520.2,0 z m 5679.95,-4991 3669.4,2671.2 c 84.4,84.4 154.6,210.9 28.1,309.3 l -3683.5,2699.4 h -829.5 c -168.7,0 -281.2,112.5 -281.2,267.1 -14,885.8 -745.09,1602.8 -1616.77,1602.8 H 2193.24 c -899.8,0 -1630.861,-717 -1630.861,-1616.8 v -6481.3 c 0,-899.8 731.061,-1630.9 1630.861,-1630.9 h 6242.27 c 899.8,0 1630.89,731.1 1630.89,1630.9 0,196.8 -56.2,548.3 267.1,548.3 z"
         style="fill:#d6d6d7;fill-opacity:1;fill-rule:evenodd;stroke:none"
         id="path24" />
      <path
         d="m 15141.8,17415.2 -3008.7,-2221.4 h 5848.6 c 28.1,0 70.3,0 126.5,28.1 4878.6,3585.1 4681.7,2165.1 56.2,5595.6 -28.1,42.2 -70.2,56.2 -126.5,56.2 h -5904.8 l 3022.7,-2235.4 c 337.4,-253.1 421.8,-717 168.7,-1054.4 z m 1869.8,337.4 c -351.5,0 -351.5,534.2 0,534.2 h 2755.6 c 365.5,0 365.5,-534.2 0,-534.2 z"
         style="fill:#c3c3c4;fill-opacity:1;fill-rule:evenodd;stroke:none"
         id="path26" />
      <path
         d="m 20765.4,10512.1 h 2685.27 v 2558.79 H 20765.4 Z"
         style="fill:#7b7b7c;fill-opacity:1;fill-rule:evenodd;stroke:none"
         id="path28" />
    </g>
  </g>
</svg>
