<?xml version="1.0" encoding="UTF-8"?>
<svg xmlns="http://www.w3.org/2000/svg" xmlns:xlink="http://www.w3.org/1999/xlink" width="4480" height="4480" viewBox="0 0 4480 4480">
<path fill-rule="evenodd" fill="rgb(0%, 0%, 0%)" fill-opacity="1" d="M 618.03125 2870 L 980 2870 L 980 3220 L 656.175781 3220 C 540.195312 3220 446.175781 3314.019531 446.175781 3430 L 446.175781 3861.96875 C 364.648438 3890.816406 306.175781 3968.632812 306.175781 4060 C 306.175781 4175.902344 400.273438 4270 516.175781 4270 C 632.074219 4270 726.175781 4175.902344 726.175781 4060 C 726.175781 3968.632812 667.699219 3890.816406 586.175781 3861.96875 L 586.175781 3430 C 586.175781 3391.339844 617.511719 3360 656.171875 3360 L 980 3360 L 980 3710 C 980 3825.980469 1074.019531 3920 1190 3920 C 1611.929688 3920 2868.070312 3920 3290 3920 C 3405.980469 3920 3500 3825.980469 3500 3710.003906 L 3500 3360 L 3780 3360 C 3818.660156 3360 3850 3391.339844 3850 3430 L 3850 3861.96875 C 3768.46875 3890.816406 3710 3968.632812 3710 4060 C 3710 4175.902344 3804.101562 4270 3920 4270 C 4035.898438 4270 4130 4175.902344 4130 4060 C 4130 3968.632812 4071.53125 3890.816406 3990 3861.96875 L 3990 3430 C 3990 3314.019531 3895.980469 3220 3780 3220 L 3500 3220 L 3500 2870 L 3861.96875 2870 C 3890.820312 2951.53125 3968.628906 3010 4060 3010 C 4175.898438 3010 4270 2915.898438 4270 2800 C 4270 2684.101562 4175.898438 2590 4060 2590 C 3968.628906 2590 3890.820312 2648.46875 3861.96875 2730 L 3500 2730 L 3500 2380 L 3780 2380 C 3895.980469 2380 3990 2285.980469 3990 2170 L 3990 1738.03125 C 4071.53125 1709.179688 4130 1631.371094 4130 1540 C 4130 1424.101562 4035.898438 1330 3920 1330 C 3804.101562 1330 3710 1424.101562 3710 1540 C 3710 1631.371094 3768.46875 1709.179688 3850 1738.03125 L 3850 2170 C 3850 2208.660156 3818.660156 2240 3780 2240 L 3500 2240 L 3500 1960 C 3500 1844.019531 3405.980469 1750 3290 1750 L 3220 1750 L 3220 1190 C 3220 649.71875 2768.78125 210 2211.710938 210 C 1654.628906 210 1203.410156 649.71875 1203.410156 1190 L 1203.410156 1750 L 1190 1750 C 1074.019531 1750 980 1844.019531 980 1960 L 980 2240 L 656.175781 2240 C 617.511719 2240 586.175781 2208.660156 586.175781 2170 L 586.175781 1738.03125 C 667.699219 1709.179688 726.175781 1631.371094 726.175781 1540 C 726.175781 1424.101562 632.074219 1330 516.175781 1330 C 400.273438 1330 306.175781 1424.101562 306.175781 1540 C 306.175781 1631.371094 364.648438 1709.179688 446.175781 1738.03125 L 446.175781 2170 C 446.175781 2285.980469 540.195312 2380 656.171875 2380 L 980 2380 L 980 2730 L 618.03125 2730 C 589.183594 2648.46875 511.367188 2590 420 2590 C 304.097656 2590 210 2684.101562 210 2800 C 210 2915.898438 304.097656 3010 420 3010 C 511.367188 3010 589.183594 2951.53125 618.03125 2870 Z M 2800 1750 L 2800 1190 C 2800 852.640625 2559.558594 577.5 2211.710938 577.5 C 1863.460938 577.5 1610 852.261719 1610 1190 L 1610 1750 L 2800 1750 "/>
<path fill-rule="evenodd" fill="rgb(62.693787%, 63.867188%, 68.554688%)" fill-opacity="1" d="M 1120 2240 L 1120 3430 L 3360 3430 L 3360 2240 L 1120 2240 "/>
<path fill-rule="evenodd" fill="rgb(55.664062%, 56.639099%, 62.304688%)" fill-opacity="1" d="M 1217.539062 2240 C 1466.828125 2431.128906 2230.539062 2978.050781 3351.011719 3430 L 1128.988281 3430 L 1128.988281 2240 L 1217.539062 2240 "/>
<path fill-rule="evenodd" fill="rgb(62.693787%, 63.867188%, 68.554688%)" fill-opacity="1" d="M 516.175781 3990 C 554.808594 3990 586.175781 4021.367188 586.175781 4060 C 586.175781 4098.632812 554.808594 4130 516.175781 4130 C 477.539062 4130 446.175781 4098.632812 446.175781 4060 C 446.175781 4021.367188 477.539062 3990 516.175781 3990 "/>
<path fill-rule="evenodd" fill="rgb(62.693787%, 63.867188%, 68.554688%)" fill-opacity="1" d="M 3920 3990 C 3958.628906 3990 3990 4021.367188 3990 4060 C 3990 4098.632812 3958.628906 4130 3920 4130 C 3881.371094 4130 3850 4098.632812 3850 4060 C 3850 4021.367188 3881.371094 3990 3920 3990 "/>
<path fill-rule="evenodd" fill="rgb(25.488281%, 26.609802%, 30.393982%)" fill-opacity="1" d="M 3360 3570 L 3360 3710 C 3360 3748.660156 3328.660156 3780 3290 3780 L 1190 3780 C 1151.339844 3780 1120 3748.660156 1120 3710.003906 L 1120 3570 L 3360 3570 "/>
<path fill-rule="evenodd" fill="rgb(0%, 0%, 0%)" fill-opacity="1" d="M 2170 3036.539062 L 2170 3220 L 2310 3220 L 2310 3036.539062 C 2440.429688 3005.011719 2537.421875 2887.449219 2537.421875 2747.421875 C 2537.421875 2583.269531 2404.148438 2450 2240 2450 C 2075.851562 2450 1942.578125 2583.269531 1942.578125 2747.421875 C 1942.578125 2887.449219 2039.570312 3005.011719 2170 3036.539062 "/>
<path fill-rule="evenodd" fill="rgb(39.598083%, 41.209412%, 47.093201%)" fill-opacity="1" d="M 2240 2590 C 2326.878906 2590 2397.421875 2660.539062 2397.421875 2747.421875 C 2397.421875 2834.300781 2326.878906 2904.828125 2240 2904.828125 C 2153.121094 2904.828125 2082.578125 2834.300781 2082.578125 2747.421875 C 2082.578125 2660.539062 2153.121094 2590 2240 2590 "/>
<path fill-rule="evenodd" fill="rgb(62.693787%, 63.867188%, 68.554688%)" fill-opacity="1" d="M 4060 2730 C 4098.628906 2730 4130 2761.371094 4130 2800 C 4130 2838.628906 4098.628906 2870 4060 2870 C 4021.371094 2870 3990 2838.628906 3990 2800 C 3990 2761.371094 4021.371094 2730 4060 2730 "/>
<path fill-rule="evenodd" fill="rgb(62.693787%, 63.867188%, 68.554688%)" fill-opacity="1" d="M 420 2730 C 458.632812 2730 490 2761.371094 490 2800 C 490 2838.628906 458.632812 2870 420 2870 C 381.367188 2870 350 2838.628906 350 2800 C 350 2761.371094 381.367188 2730 420 2730 "/>
<path fill-rule="evenodd" fill="rgb(39.598083%, 41.209412%, 47.093201%)" fill-opacity="1" d="M 3360 2100 L 1120 2100 L 1120 1960 C 1120 1921.339844 1151.339844 1890 1190 1890 L 3290 1890 C 3328.660156 1890 3360 1921.339844 3360 1960 L 3360 2100 "/>
<path fill-rule="evenodd" fill="rgb(62.693787%, 63.867188%, 68.554688%)" fill-opacity="1" d="M 3080 1750 L 3080 1190 C 3080 725.789062 2690.351562 350 2211.710938 350 C 1733.058594 350 1343.410156 725.789062 1343.410156 1190 L 1343.410156 1750 L 1470 1750 L 1470 1190 C 1470 774.378906 1783.160156 437.5 2211.710938 437.5 C 2640.640625 437.5 2940 774 2940 1190 L 2940 1750 L 3080 1750 "/>
<path fill-rule="evenodd" fill="rgb(62.693787%, 63.867188%, 68.554688%)" fill-opacity="1" d="M 516.175781 1610 C 477.539062 1610 446.175781 1578.628906 446.175781 1540 C 446.175781 1501.371094 477.539062 1470 516.175781 1470 C 554.808594 1470 586.175781 1501.371094 586.175781 1540 C 586.175781 1578.628906 554.808594 1610 516.175781 1610 "/>
<path fill-rule="evenodd" fill="rgb(62.693787%, 63.867188%, 68.554688%)" fill-opacity="1" d="M 3920 1610 C 3881.371094 1610 3850 1578.628906 3850 1540 C 3850 1501.371094 3881.371094 1470 3920 1470 C 3958.628906 1470 3990 1501.371094 3990 1540 C 3990 1578.628906 3958.628906 1610 3920 1610 "/>
</svg>
